<svg version="1.1" id="Layer_1" xmlns="http://www.w3.org/2000/svg" xmlns:xlink="http://www.w3.org/1999/xlink" x="0px" y="0px" viewBox="0 0 475.1 64.4" style="enable-background:new 0 0 475.1 64.4;" xml:space="preserve">
            <g>
                <path d="M26.5,13.2h8.7c0,10.6,0,21.3,0,31.9h-8.4l-0.5-4c-2.1,3.4-6.7,4.7-9.8,4.7C6.9,46,0,39.7,0,29.2
                    c0-10.6,7.3-16.8,16.7-16.7c4,0,7.8,1.6,9.4,4.4L26.5,13.2z M9.3,29.2c0,5.3,3.7,8.4,8.4,8.4c5.2,0,8.5-4.1,8.5-8.1
                    c0-4.6-2.9-8.8-8.5-8.8C13.1,20.7,9.3,23.9,9.3,29.2z"></path>
                <path d="M50.9,0v45.2h-9.2V0H50.9z"></path>
                <path d="M64.9,32.3c0.5,3.1,3.4,5.6,8.7,5.6c2.5,0,6-0.6,8.3-2.5l5.2,5.8c-3.4,3.4-8.9,4.7-13.7,4.7c-11.6,0-17.9-6.8-17.9-17
                    c0-9.7,6.5-16.5,16.9-16.5c10.9,0,18,6.8,16,19.8H64.9z M80,25.5c-0.2-3.5-3.7-5.1-7.6-5.1c-3.7,0-6.6,1.9-7.5,5.1H80z"></path>
                <path d="M111.2,13.3h11.1v0.3l-10.1,15.5L122.9,45v0.2h-11.1l-5.9-9.6l-5.8,9.6H88.9V45l10.8-15.8L89.5,13.6v-0.3h11.1l5.3,9.5
                    L111.2,13.3z"></path>
                <path d="M149.3,13.2h8.7c0,10.6,0,21.3,0,31.9h-8.4l-0.5-4c-2.1,3.4-6.7,4.7-9.8,4.7c-9.6,0.1-16.5-6.1-16.5-16.7
                    c0-10.6,7.3-16.8,16.7-16.7c4,0,7.8,1.6,9.4,4.4L149.3,13.2z M132.1,29.2c0,5.3,3.7,8.4,8.4,8.4c5.2,0,8.5-4.1,8.5-8.1
                    c0-4.6-2.9-8.8-8.5-8.8C135.8,20.7,132.1,23.9,132.1,29.2z"></path>
                <path d="M187.3,45.2V28.3c0-4.9-2.1-7.4-6.6-7.4c-4.3-0.1-7.2,3.7-7.2,7.8v16.5h-9.2V13.2h8.4l0.3,4.1c2.8-3.7,6.5-4.9,10.3-4.8
                    c7.2,0,13.3,3.4,13.3,15.8v16.9H187.3z"></path>
                <path d="M236,0v45.2h-8.3l-0.6-4.1c-3,3.8-6.6,4.7-10.6,4.7c-9.4,0-15.8-6.6-15.8-16.5c0-10.3,6.5-16.6,15.9-16.6
                    c3.7,0,7.3,1.2,10,4.5V0H236z M210,29.2c0,4.6,2.8,8.2,7.8,8.2c4.2,0,8.6-2.1,8.6-8.2c0-5.4-4.3-8.2-8.6-8.2
                    C213.1,21,210,24.4,210,29.2z"></path>
                <path d="M250.9,13.3l0.7,3.5c2.1-3,5-4.3,8.5-4.3c3,0,5.6,0.9,7.8,2.9l-3.9,7.4c-1.6-1.1-3.2-1.6-5.1-1.6c-4,0-7.4,2.6-7.4,7.4
                    v16.6h-9.3V13.3H250.9z"></path>
                <path d="M278.9,13.2v16.9c0,4.9,2.1,7.4,6.6,7.4c4.3,0.1,7.2-3.7,7.2-7.8V13.2h9.2v31.9h-8.4l-0.3-4.2c-2.8,3.8-6.5,4.9-10.3,4.8
                    c-7.2,0-13.3-3.2-13.3-15.6V13.2H278.9z"></path>
                <path d="M337,11.6l2.1,1.8l-3.3,3.9c2.3,2.5,4.5,5.2,4.5,11c0,5.6-3.2,12.2-10.2,13.8c5.8,1.3,10,4.7,10,10.5
                    c0,7.6-7.6,11.7-16.1,11.7c-8.5,0-15.8-4.7-15.8-12.7h3.2c0,6.5,6.2,9.7,12.6,9.7c6.4,0,13-2.5,13-8.7c0-6.3-7-8.8-13-8.8
                    c-9.6,0-16.5-5.6-16.5-15.6c0-10.3,8.8-15.6,16.5-15.6c3.2,0,7.4,1,9.8,2.8L337,11.6z M310.5,28.3c0,8.6,5.8,12.6,13.3,12.6
                    c8.1,0,13.2-6,13.2-12.6c0-8.9-6.7-12.6-13.2-12.6C317.7,15.7,310.5,19.6,310.5,28.3z"></path>
                <path d="M377.3,13.2c0,10.7,0,21.3,0,31.9h-3.2v-6.8c-3.1,5-7.9,7.3-13.1,7.3c-8.9,0-16.2-6.7-16.2-16.5s7.3-16.4,16.2-16.4
                    c5.2,0,10.4,2.4,13.1,7.4v-7H377.3z M348,29.2c0,8,5.8,13.4,13.1,13.4c17.8,0,17.8-26.7,0-26.7C353.8,15.9,348,21.2,348,29.2z"></path>
                <path d="M392.9,3.6v9.6h10.9v2.6h-10.9v19.5c0,4.3,0.9,7.4,5.9,7.4c1.6,0,3.3-0.5,4.9-1.3l1.1,2.6c-2,1-4,1.6-6,1.6
                    c-6.8,0-9-4-9-10.3V15.9H383v-2.6h6.8V3.9L392.9,3.6z"></path>
                <path d="M406.3,29.2c0-9.6,7.2-16.5,16.2-16.5c9,0,17,5.5,15.8,18h-28.8c0.6,7.5,6.4,11.9,13,11.9c4.2,0,9.1-1.7,11.5-4.8l2.3,1.8
                    c-3.1,4.1-8.7,6.1-13.8,6.1C413.6,45.7,406.3,39.4,406.3,29.2z M435.5,27.9c-0.1-7.9-5.2-12.3-12.9-12.3c-6.6,0-12.3,4.5-13,12.3
                    H435.5z"></path>
                <path d="M475.1,13.2c0,10.7,0,21.3,0,31.9h-3.2v-6.8c-3.1,5-7.9,7.3-13.1,7.3c-8.9,0-16.2-6.7-16.2-16.5s7.3-16.4,16.2-16.4
                    c5.2,0,10.4,2.4,13.1,7.4v-7H475.1z M445.8,29.2c0,8,5.8,13.4,13.1,13.4c17.8,0,17.8-26.7,0-26.7C451.6,15.9,445.8,21.2,445.8,29.2
                    z"></path>
            </g>
            <style>
                path {
                    fill: #fff;
                }
            </style>
        </svg>