<?xml version="1.0" standalone="no"?>
<!DOCTYPE svg PUBLIC "-//W3C//DTD SVG 20010904//EN"
 "http://www.w3.org/TR/2001/REC-SVG-20010904/DTD/svg10.dtd">
<svg version="1.0" xmlns="http://www.w3.org/2000/svg"
 width="700.000000pt" height="700.000000pt" viewBox="0 0 700.000000 700.000000"
 preserveAspectRatio="xMidYMid meet">
<metadata>
Created by potrace 1.14, written by Peter Selinger 2001-2017
</metadata>
<g transform="translate(0.000000,700.000000) scale(0.100000,-0.100000)"
fill="#000000" stroke="none">
<path d="M3425 6360 c-79 -24 -93 -46 -329 -524 -210 -423 -437 -881 -1181
-2381 -169 -341 -428 -863 -575 -1160 -147 -297 -366 -738 -486 -980 -250
-504 -250 -505 -192 -589 19 -29 50 -58 73 -70 l40 -21 2718 -2 2718 -3 50 25
c35 18 59 40 79 72 55 86 54 87 -161 522 -106 212 -331 667 -501 1011 -170
344 -321 640 -334 658 -14 18 -44 42 -67 54 -41 22 -52 22 -347 22 -168 0
-322 -2 -343 -6 -143 -23 -282 -168 -291 -304 -13 -190 131 -345 344 -368 110
-13 130 -18 169 -47 36 -26 59 -66 212 -371 143 -287 171 -350 171 -388 2 -90
-57 -162 -150 -185 -35 -9 -425 -12 -1562 -11 l-1516 1 -49 26 c-68 34 -105
89 -107 156 -2 49 9 74 187 433 104 209 195 380 202 381 7 0 69 0 137 1 135 0
209 13 279 48 52 26 110 79 142 130 112 179 17 408 -202 484 l-33 11 22 45
c309 635 783 1576 805 1596 77 72 205 77 294 12 24 -18 76 -112 241 -443 115
-231 217 -428 226 -439 10 -10 35 -30 57 -45 l40 -26 231 -2 c130 -1 249 3
272 9 85 21 152 108 147 191 -2 32 -91 220 -380 802 -207 418 -471 949 -585
1180 -129 259 -219 430 -237 447 -53 49 -153 71 -228 48z"/>
</g>
</svg>
