<?xml version="1.0" encoding="UTF-8"?><svg id="a" xmlns="http://www.w3.org/2000/svg" viewBox="0 0 560 560"><path d="M246.02,437.76c-1.28-6.65-2.34-13.35-2.55-20.13s.89-13.18-.41-19.66c-.63-3.15-1.76-6.16-2.72-9.22s-1.87-6.33-2.67-9.54c-1.59-6.41-2.86-12.9-4.13-19.39-.71-3.64-1.33-7.27-1.28-10.99.05-3.99.66-7.94,1.27-11.88.3-1.89-2.59-2.7-2.89-.8-1.06,6.79-1.85,13.42-.76,20.26s2.5,13.27,4,19.82c.76,3.3,1.58,6.58,2.52,9.83s2.06,6.32,2.98,9.51,1.35,6.62,1.33,10.07-.29,6.68-.27,10.03c.05,7.7,1.24,15.34,2.7,22.88.37,1.89,3.26,1.09,2.89-.8h0Z" style="fill:#fff; stroke-width:0px;"/><path d="M206.83,233.18c.26,5.43,1.2,10.82,2.88,15.99.76,2.34,1.56,4.8,3.09,6.76,1.41,1.79,3.43,2.87,5.63,3.37,2.35.54,4.79.56,7.18.68,2.83.14,5.66.28,8.49.42,2.55.13,5.25.53,7.8.27s4-1.89,5.2-3.98c2.54-4.39,4.07-9.29,5.28-14.18.6-2.43,1-4.96,1.73-7.36.36-1.18.88-1.78,2.15-1.96,1.38-.2,2.8-.24,4.19-.36.72-.06,1.43-.12,2.15-.18.15-.01.67-.13.79-.06-.2-.11-.24-.05-.18.17.34,1.25.31,2.71.53,4,.43,2.54,1.05,5.05,1.86,7.49,1.47,4.45,3.36,9.76,7.47,12.43s9.31,2.68,13.92,2.86c5.72.23,11.45.02,17.13-.64,2.47-.28,5.13-.44,7.5-1.26s3.75-2.27,4.61-4.48c.94-2.4,1.49-5.03,2.09-7.54.67-2.78,1.21-5.59,1.45-8.44.36-4.13.43-9.84-3.05-12.81-1.81-1.54-4.1-1.81-6.39-1.84-2.88-.03-5.76-.02-8.63-.03-5.82-.02-11.65-.04-17.47-.06-5.24-.02-10.73-.55-15.68,1.49-4.09,1.69-8.01,4.82-12.58,4.99-2.8.11-5.52-.77-8.23-1.35s-5.45-1.03-8.2-1.36c-5.55-.67-11.17-.81-16.75-.41-4.31.31-9.02.69-12.8,2.97-1.64.99-3.01,2.36-3.88,4.07s1.71,3.23,2.59,1.51c1.76-3.43,5.76-4.52,9.31-5.06,4.95-.76,10.09-.85,15.09-.62,5.3.25,10.55,1.01,15.71,2.21,2.49.58,5.06,1.21,7.64,1.01,2.07-.16,4.01-.79,5.9-1.62,4.1-1.8,7.76-4.43,12.36-4.77,5.3-.39,10.72-.06,16.03-.04s10.81.04,16.22.06c2.2,0,5.06-.42,7.09.62,1.74.89,2.39,2.98,2.67,4.77.81,5.07-.37,10.42-1.62,15.32-.3,1.17-.62,2.33-.94,3.49s-.55,2.36-1.18,3.37c-1.16,1.88-3.61,2.09-5.6,2.38-5.28.79-10.63,1.16-15.97,1.16-4.71,0-9.93.13-14.44-1.4s-6.41-6.07-7.95-10.28c-.86-2.35-1.55-4.76-2.05-7.21-.25-1.2-.46-2.42-.61-3.64-.13-1.02-.08-2.22-.59-3.15-1.17-2.12-4.09-1.24-6.04-1.08-2.13.18-4.82,0-6.6,1.37s-2.07,3.67-2.52,5.69c-.54,2.38-1.08,4.76-1.73,7.12s-1.33,4.53-2.22,6.71c-.82,2.01-1.79,4.54-3.33,6.12-.78.8-1.76.84-2.82.81-1.33-.04-2.66-.13-3.99-.19-2.59-.13-5.17-.26-7.76-.38s-5.11-.17-7.65-.42c-1.97-.2-4.11-.67-5.54-2.14-1.65-1.69-2.35-4.24-3.05-6.42-.78-2.45-1.41-4.95-1.87-7.48s-.71-4.98-.83-7.49c-.09-1.92-3.09-1.93-3,0h0Z" style="fill:#fff; stroke-width:0px;"/><path d="M211.32,247.83c2.29,15.17.53,30.92,5.51,45.65l2.51-1.46c-3.81-4.02-8.15-7.5-12.91-10.35-2.3-1.38-4.57-2.73-6.23-4.9s-2.73-4.55-3.6-7.02c-1.81-5.18-2.39-10.67-2.59-16.13-.1-2.64-.16-5.3-.11-7.95.05-2.93.8-5.41,2.75-7.64.88-1,1.8-1.97,2.35-3.19.68-1.5.7-3.15.67-4.77-.07-3.32-.42-6.63-.99-9.9-.33-1.9-3.22-1.09-2.89.8.52,3.01.82,6.05.88,9.1.03,1.36.08,2.75-.62,3.96s-1.75,2.06-2.54,3.13c-3.41,4.58-2.69,10.63-2.51,16.02.34,10.2,1.9,23.18,11.15,29.37,2.57,1.72,5.27,3.17,7.75,5.02,2.63,1.96,5.07,4.18,7.32,6.56,1,1.06,2.99-.03,2.51-1.46-4.96-14.7-3.22-30.5-5.51-45.65-.29-1.9-3.18-1.09-2.89.8h0Z" style="fill:#fff; stroke-width:0px;"/><path d="M358.86,231.69c-3.73,8.09-5.63,16.78-6.95,25.55-.67,4.44-1.03,8.97-1.92,13.38s-3.04,7.84-5.6,11.41c-2.79,3.9-5.45,7.91-5.89,12.81-.17,1.92,2.83,1.91,3,0,.37-4.21,2.97-7.79,5.36-11.12s4.65-6.73,5.68-10.78,1.36-8.6,1.97-12.87,1.31-8.51,2.27-12.71c1.12-4.85,2.59-9.62,4.67-14.15.8-1.74-1.78-3.27-2.59-1.51h0Z" style="fill:#fff; stroke-width:0px;"/><path d="M367.42,233.03c.99-4.38,1.6-8.61,1.08-13.1-.49-4.28-1.56-8.47-2.21-12.72s-.72-8.35-1.55-12.46-2.7-7.82-5.19-11.29-4.92-7.01-8.81-8.74c-1.75-.78-3.28,1.81-1.51,2.59,3.23,1.44,5.31,4.33,7.33,7.11,2.36,3.25,4.28,6.52,5.15,10.48.83,3.73.96,7.57,1.44,11.35.52,4.03,1.49,7.98,2.11,11.99.35,2.26.55,4.55.44,6.83-.11,2.43-.65,4.8-1.19,7.17-.43,1.88,2.47,2.68,2.89.8h0Z" style="fill:#fff; stroke-width:0px;"/><path d="M377.68,237.09c.31-5.92-.08-11.84-.71-17.73s-1.23-11.52-2.29-17.18-2.89-10.58-5.41-15.5-5.17-9.49-8.21-13.89c-1.64-2.38-3.48-4.57-5.68-6.44s-4.83-3.61-7.36-5.24c-1.47-.95-2.95,1.14-1.82,2.36,3.71,3.99,6.12,9.12,6.72,14.55.21,1.9,3.21,1.92,3,0-.69-6.26-3.3-12.05-7.6-16.67l-1.82,2.36c4.24,2.75,8.33,5.57,11.34,9.72s5.58,8.68,7.99,13.17,4.52,9.56,5.63,14.77,1.72,11.02,2.35,16.53c.72,6.38,1.21,12.79.88,19.21-.1,1.93,2.9,1.92,3,0h0Z" style="fill:#fff; stroke-width:0px;"/><path d="M229.45,315.93c-2.89,3.38-3.65,7.84-2.33,12.08,1.25,4,4.04,7.07,6.93,9.99s5.08,6.1,8.24,8.5,7.47,3.49,11.32,4.71c8.18,2.59,16.56,5.56,25.26,4.39,8.4-1.13,15.89-5.13,22.09-10.83,6.8-6.25,12.48-13.95,16.92-22.02,2.2-4-2.18-8.29-6.16-6.16-.32.17-.66.32-.98.5-.69.37.93-.29-.34.13-.62.21-1.25.42-1.88.59-1.42.38-2.87.65-4.33.88-3.03.48-6.09.85-9.12,1.37-.9.16,1.06-.08-.15.02-.25.02-.49.05-.74.06-.31.01-.61-.01-.92-.01h-.18c.6.07.65.06.15-.06l.22.09c.32.15.29.12-.08-.09.5-.03.47.48.06-.1-.33-.47-.77-.93-1.22-1.3-1.7-1.42-3.83-2.06-6.02-1.46-1.59.44-2.91,1.52-4.34,2.29-.54.29-1.1.54-1.65.81-.7.33.97-.33-.24.09-.26.09-.51.19-.76.28-1.29.45-2.6.81-3.94,1.1-.67.14-1.35.27-2.03.38-.27.04-.55.09-.82.12.85-.12.12-.02-.04,0-1.39.13-2.78.25-4.18.31-5.68.23-11.51.07-17.17-.47-.4-.04-.8-.08-1.2-.13-1.55-.18.81.15-.72-.1-.8-.13-1.59-.28-2.38-.45s-1.59-.39-2.37-.65c-.26-.09-.51-.19-.77-.27.84.28-.3-.14-.42-.2-.24-.12-.48-.25-.71-.39-.23-.14-.46-.28-.68-.43-.38-.27-.44-.31-.19-.14.46.41-.46-.47-.43-.44-.17-.17-.75-1.07-.28-.3-.14-.22-.27-.44-.41-.67-.55-.91.11.67-.15-.35,0-.01-.26-1.23-.16-.52.11.78.15-1.48-.05-.11l-6.61,2.69c-1.7-.97-1.59-4.03-1.64-2.52,0-.16.22-1.01,0-.28-.16.52-.23,1.06-.3,1.6-.18,1.35-.13,2.59.13,3.94.45,2.32,1.75,4.46,3.31,6.2,3.15,3.51,7.98,4.95,12.46,5.75,9.8,1.76,19.75,1.96,29.66,1.34,4.86-.3,9.7-.77,14.54-1.3,1.21-.13,2.42-.27,3.62-.41.56-.06,1.13-.13,1.69-.19.34-.04,1.66.01,1.96-.2-.64.47-2.36-1.64-2.44-2.26-.09-.71.15-1.19.59-1.73-.21.25-.56.33.08,0-.15.08-.34.17-.48.27-.51.38.66-.21.05,0-.32.11-.64.23-.97.35-4.47,1.53-9.11,2.53-13.72,3.56-2.34.52-4.69,1.04-7.07,1.35.68-.09-.76.07-.94.09-.55.05-1.11.09-1.66.12-1.27.06-2.54.06-3.81-.03-.32-.02-.63-.05-.95-.08-.38-.04-.53-.09-.06,0-.62-.11-1.25-.21-1.87-.35-1.17-.25-2.33-.57-3.47-.93-2.31-.72-4.56-1.59-6.82-2.45-4.78-1.83-9.51-3.41-14.63-3.85-2.48-.21-4.42,2.24-4.5,4.5-.18,5.32,4.82,7.8,9.06,9.4,3.85,1.45,7.87,2.43,11.91,3.17,4.41.81,8.86,1.38,13.31,1.96s8.67,1.03,13.01.55c5.04-.56,9.79-2.04,14.58-3.67l-4.38-7.52c.68-.54-.25.19-.4.29-.34.24-.68.47-1.02.69-.69.44-1.4.85-2.13,1.22-.37.19-.74.36-1.11.54-1.2.57.81-.29-.44.19-.77.29-1.55.57-2.33.81-1.59.48-3.21.83-4.84,1.1-1.35.22.91-.08-.45.06-.41.04-.83.09-1.24.12-.83.07-1.66.11-2.49.13-1.86.05-3.73-.03-5.59-.19-.96-.08-1.93-.18-2.88-.31.73.1-.68-.11-.72-.11-.48-.07-.96-.15-1.43-.23-3.83-.66-7.61-1.55-11.39-2.45-2.2-.52-4.42.51-5.31,2.61-.79,1.87-.21,4.71,1.84,5.62,5.93,2.63,12.04,4.74,18.58,5.1s12.47-1.46,18.07-4.34c10.1-5.19,18.29-13.75,26.16-21.76,4.6-4.69,9-9.72,12.16-15.51,1.12-2.07.58-5-1.61-6.16s-4.84-.53-6.16,1.61c-.43.7-.87,1.39-1.34,2.07-.23.34-.47.67-.71,1-.12.17-.25.33-.36.49-.41.57.4-.48-.04.06-1.12,1.38-2.27,2.72-3.5,3.99-2.43,2.52-5.08,4.83-7.82,7-.18.14-.97.76-.4.32-.33.25-.66.5-.99.75-.72.54-1.44,1.08-2.17,1.61-1.45,1.06-2.92,2.09-4.39,3.12-3.04,2.12-6.06,4.34-9.37,6.03-.39.2-.79.39-1.19.58-.01,0-.68.3-.27.13s-.27.1-.28.11c-.93.34-1.86.64-2.82.88-.45.11-.9.21-1.36.29-.23.04-.46.08-.69.12,0,0-.76.1-.32.05s-.32.03-.33.03c-.23.02-.46.04-.7.06-.54.04-1.09.08-1.63.1-4.01.16-8.06-.12-12.05-.51-1.03-.1-2.06-.22-3.09-.35,0,0-.77-.1-.35-.04s-.36-.05-.35-.05c-.55-.08-1.1-.16-1.65-.25-1.97-.32-3.92-.69-5.86-1.13s-3.93-.95-5.86-1.53c-.86-.26-1.71-.53-2.55-.83-.42-.15-.84-.3-1.26-.46-.21-.08-.42-.16-.62-.24-.07-.03-.85-.34-.5-.2.4.17-.27-.12-.28-.13-.27-.12-.54-.24-.81-.37-.47-.22-.94-.45-1.4-.69-.99-.51-1.95-1.07-2.89-1.67-.43-.28-.86-.57-1.28-.87-.18-.13-.36-.26-.53-.39.38.28.06.05-.13-.1-.8-.65-1.57-1.32-2.33-2.01-1.57-1.44-3.05-2.98-4.51-4.53-.35-.37-.71-.75-1.06-1.12-.13-.14-.27-.29-.4-.43-.08-.08-.51-.71-.27-.31.27.45-.07-.17-.08-.19.08.31.21.53.2.87-.05,1.39-1.4,2.15-2.72,2.28l-4.34-5.7c-3.11,9.72,3.04,18.68,9.77,25.06,1.71,1.62,4.69,1.82,6.36,0s1.82-4.63,0-6.36c-1.34-1.27-2.64-2.57-3.83-3.97-.28-.32-.55-.65-.81-.98.51.66-.33-.48-.43-.62-.52-.75-1-1.53-1.42-2.34-.2-.38-.39-.76-.56-1.14.35.78-.11-.34-.17-.51-.32-.93-.58-1.91-.71-2.89.11.81,0-.25,0-.49-.02-.42,0-.84,0-1.26,0-1.04-.17.46.04-.47.12-.55.25-1.09.43-1.63.83-2.59-1.46-5.98-4.34-5.7-3.3.33-5.73,2.45-6.18,5.8-.38,2.84,1.11,5.21,2.96,7.21,3,3.25,6.11,6.37,9.63,9.05,7.11,5.42,16.26,7.92,24.93,9.45,4.71.83,9.48,1.37,14.25,1.64s9.4.29,14-.74,8.4-3.19,12.11-5.68c3.33-2.23,6.61-4.54,9.83-6.92,7.52-5.56,14.62-11.73,19.56-19.79l-7.77-4.54c-.62,1.14-1.28,2.25-1.99,3.34-.32.48-.64.96-.97,1.42-.21.29-.42.58-.63.87-.15.2-.59.78-.21.29-1.63,2.11-3.43,4.11-5.27,6.04-3.59,3.78-7.33,7.45-11.14,11.02-1.96,1.84-3.96,3.63-6.05,5.31-.23.18-.45.36-.68.54.15-.12.59-.44-.12.09-.52.39-1.04.78-1.57,1.15-1.11.79-2.26,1.55-3.43,2.26-1.05.64-2.12,1.24-3.21,1.79-.6.31-1.21.59-1.83.88-.08.04-.79.33-.19.09-.42.17-.85.34-1.29.49-1.22.44-2.47.82-3.74,1.1-.67.15-1.35.29-2.03.38.21-.03.74-.07-.17,0-.46.04-.91.07-1.37.09-1.52.06-3.03-.01-4.54-.18-.93-.1-.36-.05-.16-.02-.45-.07-.9-.15-1.35-.24-.75-.15-1.5-.31-2.24-.5-1.57-.4-3.11-.88-4.63-1.43-1.7-.61-2.58-.98-3.84-1.54l-3.47,8.22c8.24,1.95,16.72,3.96,25.24,3.58,8.04-.35,15.67-2.71,21.99-7.76,1.48-1.18,1.69-3.92.7-5.45s-3.15-2.73-5.08-2.07c-2.34.8-4.67,1.6-7.05,2.25-1.19.32-2.38.61-3.59.85-.16.03-1.86.31-1.08.2-.62.09-1.25.14-1.88.18-2.41.16-4.84.05-7.25-.17-1.29-.12-2.57-.28-3.86-.44-.64-.08-1.28-.17-1.92-.25-.3-.04-.61-.08-.91-.12.44.06.38.05-.17-.02-4.69-.65-9.39-1.34-13.99-2.51-2.36-.6-4.69-1.32-6.96-2.21-.28-.11-.57-.23-.85-.34.44.19.45.18.02-.02-.42-.24-.84-.46-1.24-.72.43.35.46.36.09.04-.34-.37-.32-.32.05.14-.24-.44-.23-.37.05.2.05.67.07.74.08.22l-4.5,4.5c.28.02.56.06.84.08-.81-.06-.11-.02.06,0,.55.09,1.11.19,1.66.31,1.1.23,2.19.53,3.27.85,2.17.66,4.3,1.47,6.42,2.28,4.51,1.72,8.96,3.32,13.77,3.95,5.36.7,10.78-.19,16.02-1.31,4.93-1.05,9.9-2.12,14.69-3.69,2.65-.87,5.49-1.92,6.97-4.48,1.64-2.84,1.19-6.67-1.46-8.72-2.5-1.93-5.56-1.18-8.44-.85-2.58.29-5.16.58-7.74.83-10.28,1.02-20.67,1.62-30.98.6-.72-.07-1.44-.15-2.16-.24-.32-.04-.64-.08-.96-.12.64.09-.37-.06-.48-.08-1.36-.2-2.72-.43-4.06-.72-1.23-.26-2.44-.57-3.62-1-.11-.04-.91-.37-.42-.16s-.49-.25-.58-.3c-.24-.13-.48-.26-.72-.41-.09-.06-1.01-.68-.55-.34.43.31-.18-.17-.27-.25-.23-.21-.44-.44-.65-.66-.57-.59-.1-.12,0,.04-.17-.26-.34-.51-.5-.78-.07-.12-.45-.81-.18-.29s-.12-.36-.15-.49c-.07-.23-.11-.47-.17-.7.13.58.05.49.05-.06,0-.17.12-.9,0-.3-.13.65.1-.26.13-.4.17-.73.33-1.51.34-2.26.02-2.11-.97-4.05-2.82-5.11-2.27-1.29-6.17-.28-6.61,2.69-.59,3.95.45,7.42,3.1,10.43,2.19,2.49,5.49,3.97,8.63,4.83,6.43,1.75,13.39,1.74,20.01,1.82,6.03.08,12.31-.21,18.06-2.15,1.52-.51,3.03-1.13,4.47-1.85.61-.3,1.21-.63,1.8-.98.24-.14.47-.29.7-.44.24-.16.48-.31.72-.45-.75.35-1.54.28-2.39-.19-.16-.1-.65-.7-.19-.12.2.25.43.5.64.75.55.63,1.16,1.18,1.87,1.63,1.56.99,3.53,1.37,5.36,1.3,3.75-.14,7.6-1.04,11.31-1.6s7.39-1.36,10.77-3.17c-2.05-2.05-4.1-4.1-6.16-6.16-1.78,3.24-3.76,6.38-5.93,9.37-1.13,1.56-1.33,1.82-2.55,3.3s-2.5,2.94-3.82,4.34c-1.24,1.31-2.52,2.59-3.88,3.79-.67.6-1.36,1.19-2.08,1.74.64-.49-.49.35-.5.35-.35.25-.7.49-1.06.73-1.43.95-2.93,1.8-4.49,2.54-.39.18-.78.37-1.17.53.85-.35-.47.17-.52.19-.94.35-1.89.66-2.85.92-.82.22-1.66.42-2.5.57-.35.07-.7.12-1.05.18-.8.13,1.06-.06-.28.02-1.89.13-3.72.14-5.62,0-1.47-.11.81.17-.64-.08-.46-.08-.91-.15-1.37-.24-.91-.18-1.82-.39-2.71-.62-1.81-.46-3.61-1-5.39-1.54-3.71-1.12-7.45-2.22-11.1-3.52-.4-.14-.8-.28-1.19-.45.86.36-.4-.21-.46-.25-.62-.32-1.23-.68-1.78-1.1.75.58-.27-.29-.34-.35-.3-.28-.59-.57-.87-.87-.66-.7-1.28-1.44-1.9-2.17-1.25-1.48-2.57-2.87-3.93-4.25-.58-.59-1.16-1.18-1.72-1.79-.28-.3-.55-.61-.82-.93-.18-.21-.35-.42-.52-.64.29.37.28.34-.03-.08-.22-.35-.46-.68-.66-1.04-.12-.21-.7-1.59-.33-.56-.12-.35-.25-.69-.34-1.04-.07-.27-.25-1.76-.17-.59-.02-.36-.05-.71-.04-1.07,0-.24.02-.47.04-.71-.09.62-.08.67.02.16.09-.24.52-1.19,0-.23.13-.24.97-1.35.27-.54,1.53-1.79,1.89-4.63,0-6.36-1.68-1.54-4.73-1.91-6.36,0h0Z" style="fill:#fff; stroke-width:0px;"/><path d="M256.57,166.2c.31-3.51-.49-6.97-.39-10.47.01-.4.04-.8.07-1.2.06-.87-.09.33.02-.2.15-.72.28-1.44.48-2.16.09-.32.19-.64.3-.96.04-.13.47-1.24.27-.78-.22.52.22-.47.27-.56.18-.36.37-.72.57-1.06.33-.58.71-1.14,1.08-1.69.58-.85-.34.34.29-.36.28-.31.54-.62.83-.91.49-.51,1.02-1.03,1.59-1.45-.66.49.47-.28.49-.29.37-.23.75-.42,1.13-.63l.4-.19c-.33.14-.35.15-.05.04.35-.09.69-.24,1.04-.34.78-.23,1.57-.4,2.36-.56,1.68-.32,3.37-.53,5.05-.84,2.32-.42,3.84-3.37,3.14-5.54-.81-2.49-3.05-3.59-5.54-3.14-3.84.69-7.62,1.08-11.14,2.89s-6.29,4.83-8.25,8.11-3,6.86-3.34,10.6.67,7.77.32,11.68c-.21,2.35,2.22,4.6,4.5,4.5,2.62-.12,4.28-1.98,4.5-4.5h0Z" style="fill:#fff; stroke-width:0px;"/><path d="M269.61,167.45c1.24-4.41,2.55-8.93,4.39-12.48.43-.83.89-1.65,1.39-2.44.29-.45.58-.9.89-1.34.05-.07.85-1.09.26-.37.68-.82,1.38-1.62,2.15-2.36.29-.28.58-.54.89-.8.2-.17.41-.34.62-.51-.39.3-.37.29.07-.03.83-.53,1.65-1.07,2.53-1.52.14-.07,1.66-.77.84-.43.52-.22,1.05-.41,1.59-.59.94-.31,1.9-.58,2.87-.79.55-.12,1.11-.23,1.67-.33.19-.03,1.42-.21.49-.09,4.77-.61,9.61-.3,14.39-.02,2.35.14,4.6-2.17,4.5-4.5-.11-2.56-1.98-4.35-4.5-4.5-9.89-.59-20.84-.86-29.26,5.24s-11.76,15.88-14.45,25.47c-.64,2.26.78,5,3.14,5.54s4.86-.72,5.54-3.14h0Z" style="fill:#fff; stroke-width:0px;"/><path d="M285.15,167.9c.17-1,.4-1.98.72-2.95.06-.18.64-1.69.22-.7.2-.47.42-.92.66-1.37.47-.9,1.02-1.74,1.6-2.58.3-.41.3-.41,0,0,.16-.2.32-.39.49-.58.33-.38.68-.75,1.04-1.1s.75-.68,1.12-1.02c.4-.32.39-.32-.02,0,.2-.15.41-.3.62-.44.8-.55,1.65-1.05,2.52-1.48.14-.07,1.66-.73.96-.45.55-.22,1.12-.42,1.68-.61,1.13-.38,2.29-.7,3.45-1,2.44-.62,4.9-1.13,7.37-1.57,1.1-.19,2.19-.36,3.29-.53.56-.08.63-.09.22-.04.32-.04.63-.08.95-.12.63-.08,1.26-.15,1.89-.22,2.52-.26,5.05-.47,7.58-.51,1.26-.02,2.52,0,3.77.1.17.01,1.85.24,1.14.11.25.04.51.08.76.14-.58-.3-.68-.32-.29-.06l-1.61-1.61-.22-.6c.61,2.27,3.23,3.89,5.54,3.14s3.8-3.1,3.14-5.54c-.91-3.39-4.02-4.09-7.04-4.46-2.19-.27-4.39-.29-6.59-.2-4.76.2-9.51.77-14.2,1.57-8.39,1.43-17.55,3.44-23.41,10.13-3.01,3.44-5.21,7.61-5.99,12.14-.4,2.31.61,4.96,3.14,5.54,2.18.5,5.11-.66,5.54-3.14h0Z" style="fill:#fff; stroke-width:0px;"/><path d="M294.44,167.46c.12-.88.3-1.74.57-2.58.08-.24.16-.48.25-.71-.22.49-.22.5,0,.04.18-.33.34-.67.53-1s.41-.64.61-.95c.3-.41.29-.41-.02,0,.16-.19.32-.38.5-.57.26-.28.52-.55.8-.8.18-.17.37-.34.57-.5-.42.31-.42.32-.01.02.76-.49,1.53-.93,2.35-1.32.29-.13.26-.12-.08.04.27-.1.54-.2.81-.29.41-.14.83-.27,1.24-.38,2.09-.6,4.24-.98,6.39-1.31.98-.15-.18,0,.72-.1.64-.07,1.28-.15,1.93-.21,1.05-.1,2.09-.18,3.14-.25,2.18-.15,4.37-.23,6.56-.3,4.56-.13,9.12-.12,13.68-.03,2.35.05,4.61-2.1,4.5-4.5s-1.98-4.45-4.5-4.5c-9.93-.21-20.05-.24-29.87,1.44-4.78.81-9.48,2.16-13.25,5.34-3.23,2.72-5.56,6.85-6.12,11.04-.31,2.32.55,4.95,3.14,5.54,2.11.48,5.2-.65,5.54-3.14h0Z" style="fill:#fff; stroke-width:0px;"/><path d="M300.9,168.1c.25-1.03-.23.69.06-.21-.37.44-.39.46-.05.09.12-.13.26-.25.39-.37.24-.21.18-.16-.2.15.15-.1.3-.2.46-.3.4-.25.82-.47,1.25-.68.14-.07,1.28-.56.54-.26.41-.17.82-.32,1.24-.46.84-.29,1.69-.53,2.54-.76,1.89-.5,3.81-.92,5.73-1.29,1.03-.2,2.06-.39,3.09-.55.48-.08.95-.15,1.43-.22.14-.02,1.44-.2.72-.11,3.89-.51,7.89-.93,11.82-.64.46.03.93.07,1.39.14-.7-.1.41.09.53.12.8.16,1.59.37,2.37.62.39.13.77.26,1.15.42-.85-.36.23.14.4.23.42.22.83.46,1.22.72.17.11.34.22.5.34-.37-.3-.35-.28.05.05,1.81,1.5,4.62,1.9,6.36,0,1.53-1.66,1.93-4.76,0-6.36-7.81-6.5-18.02-5.71-27.47-4.41-4.5.62-9.06,1.41-13.4,2.76s-9.63,3.67-10.81,8.59c-.55,2.29.72,4.98,3.14,5.54s4.95-.69,5.54-3.14h0Z" style="fill:#fff; stroke-width:0px;"/><path d="M312.28,170.48c.24-.14.49-.27.75-.4.43-.2.51-.24.23-.12-.28.11-.2.09.25-.09.27-.1.53-.18.8-.27.81-.25,1.64-.44,2.48-.59.28-.05.56-.1.84-.14-.42.05-.47.06-.14.02.5-.04.99-.11,1.48-.15.96-.08,1.92-.14,2.88-.17,2.08-.08,4.16-.04,6.24.09,1.04.07,2.08.16,3.11.28.24.03.48.06.72.09-.4-.05-.33-.04.23.04.47.08.95.15,1.42.23,1.89.34,3.77.74,5.58,1.37,1.2.42-.63-.39.48.21.36.2.72.39,1.07.61.21.14.42.28.62.43-.36-.29-.42-.33-.18-.12.3.31.65.58.95.9.26.27.49.56.74.84-.65-.73.1.16.2.3.5.74.94,1.51,1.34,2.31.17.34.33.7.49,1.05-.42-.92.08.24.13.35.32.84.59,1.69.85,2.55.67,2.25,3.19,3.9,5.54,3.14s3.86-3.12,3.14-5.54c-1.23-4.13-3.03-8.22-6.05-11.37-3.23-3.36-7.56-4.79-12.02-5.62-4.8-.89-9.7-1.32-14.58-1.15-4.86.17-9.81.73-14.12,3.13-2.06,1.14-2.91,4.15-1.61,6.16s3.95,2.84,6.16,1.61h0Z" style="fill:#fff; stroke-width:0px;"/><path d="M322.27,177.64c.27-.09.54-.15.82-.2-.5.07-.48.09.07.05.42.03.86.03,1.28.05.54.06.57.06.08,0,.23.03.46.07.69.11.53.09,1.07.19,1.6.3,1.97.4,3.92.92,5.86,1.46s4.03,1.18,5.98,1.94c.93.36-.25-.16.57.25.53.27,1.07.52,1.59.81.76.43,1.46.92,2.18,1.4.26.19.21.15-.13-.11.2.16.4.33.6.5.3.26.59.52.87.79.66.63,1.26,1.31,1.86,2.01.67.78-.27-.45.25.33.29.43.59.86.87,1.3.45.73.86,1.48,1.23,2.25.1.2.19.4.28.6-.17-.4-.15-.34.05.15.15.42.3.83.44,1.25.31.98.56,1.99.75,3.01.03.17.2,1.35.11.56.07.59.12,1.18.15,1.77.05,1.03.03,2.07-.03,3.1-.14,2.35,2.17,4.6,4.5,4.5,2.56-.11,4.35-1.98,4.5-4.5.58-9.76-3.6-19.19-11.43-25.06-3.76-2.81-8.32-4.28-12.79-5.54-2.23-.63-4.48-1.22-6.77-1.64-2.8-.51-5.61-.92-8.4-.13-2.27.64-3.89,3.21-3.14,5.54s3.11,3.83,5.54,3.14h0Z" style="fill:#fff; stroke-width:0px;"/><path d="M206.97,395.06c-2.22,5.11-4.24,10.31-6.03,15.59-.86,2.53-1.61,5.08-2.43,7.62s-1.78,4.79-3.67,6.57c-.35.33.18.86.53.53,3.53-3.33,4.38-8.73,5.84-13.15,1.88-5.69,4.03-11.28,6.41-16.78.19-.44-.46-.82-.65-.38h0Z" style="fill:#fff; stroke-width:0px;"/><path d="M218.13,405.85c-13.84-3.56-27.73-6.93-41.67-10.11-.47-.11-.67.62-.2.72,13.94,3.18,27.83,6.54,41.67,10.11.47.12.67-.6.2-.72h0Z" style="fill:#fff; stroke-width:0px;"/><path d="M207.38,401.46c-10.25-3.26-20.8-5.45-31.49-6.56-.48-.05-.48.7,0,.75,10.63,1.1,21.11,3.3,31.3,6.53.46.15.66-.58.2-.72h0Z" style="fill:#fff; stroke-width:0px;"/><path d="M210.1,400.42c-10.16-3.09-20.57-5.29-31.11-6.6-.48-.06-.47.69,0,.75,10.47,1.3,20.81,3.51,30.91,6.58.46.14.66-.58.2-.72h0Z" style="fill:#fff; stroke-width:0px;"/><path d="M368.08,230.71c.68.38,1.41.66,2.15.91.32.11.64.21.95.33.17.06.33.12.5.19.03.01.27.12.09.04-.2-.09.14.07.14.07.3.14.59.31.86.5.03.02.23.18.09.06-.16-.13.12.11.13.11.12.1.24.21.36.31.6.53,1.2,1.08,1.89,1.49s1.68.18,2.05-.54.18-1.63-.54-2.05c-.15-.09-.3-.2-.45-.29-.18-.12.18.16.02.02-.06-.05-.12-.1-.18-.15-.27-.23-.54-.48-.81-.71-.59-.51-1.2-1-1.91-1.34s-1.4-.58-2.12-.83c-.34-.11-.67-.23-1-.36-.16-.06-.08-.02.03.02-.07-.02-.15-.06-.22-.1-.18-.08-.35-.17-.52-.27-.68-.38-1.67-.19-2.05.54s-.19,1.64.54,2.05h0Z" style="fill:#fff; stroke-width:0px;"/><path d="M352.06,246.27c-.16-.16-.34-.29-.52-.42-.08-.06-.16-.12-.25-.17-.19-.11-.4-.19-.61-.27-.1-.04-.19-.07-.29-.1-.2-.06-.4-.07-.6-.03-.2,0-.39.07-.56.18-.17.09-.32.22-.42.39-.13.14-.22.31-.27.51l-.05.4c0,.27.07.52.2.76l.23.3c.19.19.41.31.66.39.1.03.2.06.3.1l-.36-.15c.18.08.35.18.5.3l-.3-.23c.07.06.14.11.2.18.14.15.3.25.48.31.18.09.37.14.58.13.21,0,.4-.04.58-.13.19-.06.35-.16.48-.31l.23-.3c.14-.23.2-.49.2-.76l-.05-.4c-.07-.25-.2-.47-.39-.66h0Z" style="fill:#fff; stroke-width:0px;"/><path d="M353.15,241.22l-.67-.17c-.2-.06-.4-.07-.6-.03-.2,0-.39.07-.56.18-.17.09-.32.22-.42.39-.13.14-.22.31-.27.51l-.05.4c0,.27.07.52.2.76l.23.3c.19.19.41.31.66.39l.67.17c.2.06.4.07.6.03.2,0,.39-.07.56-.18.17-.09.32-.22.42-.39.13-.14.22-.31.27-.51l.05-.4c0-.27-.07-.52-.2-.76l-.23-.3c-.19-.19-.41-.31-.66-.39h0Z" style="fill:#fff; stroke-width:0px;"/><path d="M342.67,243.95c1.42-.12,2.83-.32,4.22-.61.35-.07.72-.38.9-.69.19-.32.27-.8.15-1.16-.26-.81-1.02-1.22-1.85-1.05-.75.16-1.51.29-2.27.39l.4-.05c-.52.07-1.03.13-1.55.17-.4.03-.77.14-1.06.44-.26.26-.46.69-.44,1.06s.14.79.44,1.06c.28.26.67.47,1.06.44h0Z" style="fill:#fff; stroke-width:0px;"/><path d="M355.57,236.43c-.48-.39-.98-.75-1.53-1.03s-1.13-.52-1.72-.68c-.38-.1-.82-.05-1.16.15-.31.18-.61.54-.69.9-.09.38-.07.81.15,1.16s.51.58.9.69c.3.08.59.18.88.3l-.36-.15c.56.24,1.09.54,1.57.91l-.3-.23s.09.07.14.11c.14.15.3.25.48.31.18.09.37.14.58.13.37,0,.81-.16,1.06-.44s.46-.66.44-1.06c-.02-.37-.14-.81-.44-1.06h0Z" style="fill:#fff; stroke-width:0px;"/><path d="M355.67,233.54c.31-.23.41-.3.62-.62.09-.14.16-.31.21-.48,0-.03.01-.05.02-.08.03-.14.05-.3.06-.45,0-.18-.03-.37-.07-.55,0-.03-.01-.05-.02-.07-.05-.13-.11-.28-.17-.41-.08-.16-.22-.32-.33-.45-.08-.1-.18-.18-.28-.26-.3-.24-.6-.47-.95-.63s-.72-.32-1.11-.39c-.2-.06-.4-.07-.6-.03-.2,0-.39.07-.56.18-.17.09-.32.22-.42.39-.13.14-.22.31-.27.51-.09.38-.07.81.15,1.16.2.31.52.62.9.69.23.04.45.11.67.2l-.36-.15c.25.11.49.25.71.41l-.3-.23c.11.09.21.18.3.28l-.23-.3c.04.05.08.11.11.17l-.15-.36s.04.1.04.15l-.05-.4s0,.1,0,.15l.05-.4s-.02.08-.03.12l.15-.36s-.04.07-.06.1l.23-.3s-.03.03-.05.05l.3-.23h-.02c-.17.11-.32.24-.42.4-.13.14-.22.31-.27.51-.06.2-.07.4-.03.6,0,.2.07.39.18.56.21.32.51.6.9.69l.4.05c.27,0,.52-.07.76-.2h0Z" style="fill:#fff; stroke-width:0px;"/><path d="M225.57,384.81c5.3,4.07,8.86,10.24,9.71,16.87.06.47.81.48.75,0-.89-6.93-4.54-13.26-10.08-17.51-.38-.29-.76.36-.38.65h0Z" style="fill:#fff; stroke-width:0px;"/><path d="M226.76,381.91c5.44,5.35,10.15,11.4,14,17.98.24.42.89.04.65-.38-3.89-6.64-8.64-12.74-14.12-18.13-.34-.34-.88.19-.53.53h0Z" style="fill:#fff; stroke-width:0px;"/><path d="M223.05,395.47c3.5-3.49,7.24-7.17,12.16-8.46.47-.12.27-.85-.2-.72-5.05,1.33-8.9,5.07-12.49,8.65-.34.34.19.87.53.53h0Z" style="fill:#fff; stroke-width:0px;"/><path d="M224.75,396.39c1.22,0,2.26-.72,3.24-1.37,1.04-.7,2.03-1.46,3.03-2.22,1.98-1.51,3.97-3.03,6.26-4.05.44-.2.06-.84-.38-.65-2.16.96-4.06,2.37-5.93,3.8-.91.7-1.82,1.4-2.76,2.06-1,.7-2.19,1.68-3.46,1.68-.48,0-.48.75,0,.75h0Z" style="fill:#fff; stroke-width:0px;"/><path d="M231.12,407.63c2.94-1.89,5.17-4.67,8.13-6.52.41-.26.03-.9-.38-.65-2.96,1.85-5.19,4.63-8.13,6.52-.4.26-.03.91.38.65h0Z" style="fill:#fff; stroke-width:0px;"/><path d="M251.16,230.28c-1.21-2.27-3.78-3.7-6.12-4.53-2.94-1.05-6.1-1.24-9.2-1.3-3.25-.06-6.47-.04-9.64.78s-6.27,1.71-9.1,3.22l.55.42c.49-1.92,1.51-3.1,3.24-4.02,1.54-.82,3.18-1.44,4.84-1.94,3.37-1.01,6.88-1.46,10.39-1.66,1.78-.1,3.57-.14,5.36-.15,1.93-.02,3.88-.28,5.53.89,2.58,1.82,4.4,4.57,5.28,7.58l.55-.42c-.9-.45-1.83-.8-2.81-1.06l.17.63c1.53-1.46,1.91-3.61,1.06-5.53-.16-.37-.68-.15-.7.19-.09,1.55-.33,3.08-.71,4.58h.72c-.43-2.06-.71-4.13-.84-6.22-.02-.4-.65-.54-.74-.1-.34,1.75-.19,3.46.03,5.22l.74-.1c-.62-2.44-1.27-4.87-1.97-7.29-.1-.34-.64-.37-.72,0-.56,2.68-1.05,5.38-.33,8.07.11.42.71.31.74-.1.16-2.55-.4-5.01-1.61-7.26-.21-.39-.76-.11-.69.29.38,2.05.76,4.1,1.13,6.16l.72-.2c-.85-2.68-1.76-5.35-2.73-7.99-.15-.41-.69-.32-.74.1-.22,2.1-.2,4.18.04,6.28l.74-.1c-.24-1.77-.74-3.44-1.48-5.06-.17-.37-.67-.14-.7.19-.11,1.47-.08,2.93.11,4.39l.74-.1c-.38-1.58-.95-3.07-1.72-4.5-.18-.34-.68-.16-.7.19-.08,1.61-.11,3.23-.07,4.84h.75c-.21-1.84-.74-3.55-1.64-5.18-.19-.34-.68-.16-.7.19l-.23,3.88.7-.19c-.69-1.53-1.57-2.93-2.64-4.22-.18-.21-.57-.1-.63.17-.25,1.23-.31,2.44-.16,3.69l.74-.1c-.19-1.05-.61-1.91-1.31-2.72-.24-.27-.61-.02-.64.27-.14,1.29-.27,2.58-.37,3.87l.74-.1c-.32-1.33-.8-2.56-1.48-3.75-.2-.35-.66-.16-.7.19-.11,1.11-.12,2.19-.04,3.3.04.48.75.49.75,0,.01-1.45-.38-2.75-1.21-3.93-.18-.26-.59-.23-.69.09-.39,1.25-.72,2.52-1.01,3.79l.69-.09c-.5-1.1-1.12-2.1-1.87-3.05-.19-.25-.54-.06-.63.17l-1.2,3.02.69-.09-1.06-2.02c-.16-.3-.59-.2-.69.09l-.76,2.28.69-.09c-.44-.82-.93-1.6-1.48-2.35-.19-.27-.57-.23-.69.09l-1.07,2.97h.72c-.12-.75-.35-1.4-.72-2.06-.14-.26-.64-.24-.69.09l-.37,2.45h.72c-.18-.63-.42-1.17-.78-1.71-.16-.24-.63-.25-.69.09l-.41,2.36.69-.09c-.29-.67-.65-1.25-1.11-1.82-.2-.25-.53-.06-.63.17l-.6,1.42h.72l-.3-1.53-.72.2.55,1.57c.08.24.43.4.63.17.82-1.01,1.57-2.06,2.27-3.16h-.65c.32.75,1.28,3.9,2.57,3.18.53-.3.77-1.24.97-1.77.38-1.01.57-2.06.64-3.13l-.74.1c.31.94,1.06,3.54,2.4,3.4.55-.06.84-.64,1.11-1.04.67-.98,1.32-1.97,1.97-2.96h-.65c.81,1.27,1.1,2.73,1.69,4.09.31.71.99,2.2,1.93,2.27s1.17-1.22,1.38-1.87c.55-1.74.98-3.51,1.32-5.3h-.72c.44,1.52.9,3.03,1.49,4.5.12.29.67.41.72,0,.24-1.7.34-3.4.28-5.13l-.74.1c.4,1.33.99,2.53,1.81,3.65.17.23.63.26.69-.09.25-1.52.16-2.98-.28-4.46-.12-.39-.79-.34-.74.1.24,1.86.67,3.65,1.31,5.42.14.4.71.33.74-.1l.34-6.22-.74.1c.58,2.31,1.42,4.52,2.52,6.64.14.27.63.23.69-.09.25-1.53.17-3.05.05-4.59l-.74.1c.46,2.21,1.15,4.33,2.04,6.4.12.29.64.22.69-.09.27-1.75.3-3.47.08-5.23l-.74.1c.45,2.13,1.31,4.08,2.59,5.84.28.39.93.01.65-.38-1.24-1.71-2.08-3.59-2.52-5.66-.09-.41-.79-.32-.74.1.21,1.69.21,3.35-.05,5.03l.69-.09c-.87-2.01-1.52-4.08-1.97-6.22-.09-.41-.77-.32-.74.1.12,1.47.21,2.93-.02,4.39l.69-.09c-1.07-2.06-1.88-4.21-2.44-6.46-.11-.42-.71-.31-.74.1l-.34,6.22.74-.1c-.61-1.7-1.05-3.43-1.28-5.22l-.74.1c.4,1.34.5,2.68.28,4.06l.69-.09c-.78-1.07-1.36-2.2-1.74-3.47-.12-.39-.75-.34-.74.1.06,1.65-.02,3.29-.25,4.93h.72c-.59-1.47-1.04-2.98-1.49-4.5-.1-.33-.65-.38-.72,0-.23,1.19-.49,2.38-.81,3.55-.16.59-.33,1.17-.51,1.75s-.37,1.47-1.08.9c-.82-.66-1.11-2.18-1.44-3.13-.3-.85-.62-1.67-1.11-2.44-.16-.25-.49-.24-.65,0-.63.94-1.2,2.14-1.97,2.96-.72.75-.89.5-1.37-.36-.33-.58-.57-1.19-.77-1.82-.13-.41-.71-.32-.74.1-.04.66-.13,1.31-.29,1.95-.14.53-.36,1.71-.79,2.03s-.65-.45-.87-.88c-.3-.57-.57-1.16-.83-1.75-.12-.27-.51-.21-.65,0-.66,1.05-1.37,2.04-2.15,3l.63.17-.55-1.57c-.16-.46-.81-.28-.72.2l.3,1.53c.08.41.6.3.72,0l.6-1.42-.63.17c.43.52.73,1.05.99,1.67.12.29.63.21.69-.09l.41-2.36-.69.09c.32.48.55.97.7,1.53.09.33.67.38.72,0l.37-2.45-.69.09c.34.61.53,1.2.64,1.88.06.4.61.31.72,0l1.07-2.97-.69.09c.55.75,1.04,1.53,1.48,2.35.16.3.59.2.69-.09l.76-2.28-.69.09,1.06,2.02c.17.31.58.19.69-.09l1.2-3.02-.63.17c.71.9,1.28,1.85,1.75,2.9.13.29.62.21.69-.09.29-1.28.62-2.54,1.01-3.79l-.69.09c.76,1.08,1.12,2.23,1.11,3.55h.75c-.09-1.11-.07-2.19.04-3.3l-.7.19c.64,1.13,1.1,2.3,1.4,3.57.1.43.7.3.74-.1.1-1.29.23-2.58.37-3.87l-.64.27c.61.71.95,1.48,1.11,2.39.07.41.78.32.74-.1-.14-1.19-.1-2.31.14-3.49l-.63.17c1.03,1.24,1.86,2.59,2.53,4.07.16.37.68.15.7-.19l.23-3.88-.7.19c.83,1.51,1.34,3.09,1.53,4.8.05.47.76.49.75,0-.04-1.62-.01-3.23.07-4.84l-.7.19c.74,1.38,1.28,2.81,1.65,4.32.1.4.79.33.74-.1-.19-1.47-.22-2.92-.11-4.39l-.7.19c.71,1.56,1.17,3.18,1.4,4.89.06.41.79.32.74-.1-.24-2.1-.25-4.18-.04-6.28l-.74.1c.97,2.64,1.87,5.31,2.73,7.99.15.47.81.27.72-.2-.38-2.05-.76-4.1-1.13-6.16l-.69.29c1.16,2.15,1.66,4.45,1.51,6.88l.74-.1c-.69-2.57-.2-5.12.33-7.67h-.72c.7,2.42,1.36,4.85,1.97,7.29.1.4.79.33.74-.1-.21-1.68-.38-3.34-.06-5.02l-.74-.1c.13,2.16.42,4.3.86,6.42.08.37.63.35.72,0,.4-1.58.64-3.16.74-4.78l-.7.19c.72,1.62.33,3.41-.94,4.62-.2.19-.1.56.17.63.92.24,1.78.56,2.63.99.28.14.65-.09.55-.42-.91-3.09-2.73-5.85-5.31-7.8-1.61-1.21-3.03-1.24-5-1.23-2.19.01-4.38.04-6.57.16-4.02.23-8.05.77-11.87,2.1-1.62.56-3.3,1.23-4.73,2.19s-2.17,2.24-2.59,3.88c-.08.32.26.58.55.42,5.31-2.84,11.47-3.99,17.43-3.92,2.86.03,5.76.12,8.54.86,2.62.7,5.73,2.1,7.07,4.61.23.43.87.05.65-.38h0Z" style="fill:#fff; stroke-width:0px;"/><path d="M227.69,239.77c2.19,2.62,6.1,2.62,9.24,2.83,3.49.23,7.21.04,10.27-1.86.84-.52,2.31-1.37,2.11-2.53s-1.32-2.25-2.25-2.9c-2.85-1.97-6.98-1.69-10.23-1.25-3.75.51-7.4,2.02-9.84,5-.3.37.22.9.53.53,2.51-3.06,6.28-4.47,10.12-4.88,3.36-.36,8.1-.6,10.34,2.5.33.46.57.81.42,1.38s-.65.88-1.13,1.22c-.74.52-1.56.93-2.41,1.24-1.74.64-3.6.87-5.45.88s-3.83-.16-5.73-.37c-2.04-.23-4.07-.68-5.45-2.32-.31-.37-.84.16-.53.53h0Z" style="fill:#fff; stroke-width:0px;"/><path d="M234.5,235.2c-1.28,2.53-.45,5.61,1.92,7.14.41.26.78-.39.38-.65-2.02-1.31-2.75-3.96-1.66-6.12.22-.43-.43-.81-.65-.38h0Z" style="fill:#fff; stroke-width:0px;"/><path d="M241.53,242c1.85-.42,3.06-2.06,3.49-3.83.2-.83.41-1.91-.17-2.63-.3-.36-.74-.57-1.14-.79-.51-.27-1.03-.53-1.54-.8-.43-.22-.81.43-.38.65.41.21.82.42,1.22.63.35.18.75.35,1.06.59.67.51.38,1.58.2,2.27-.39,1.48-1.38,2.83-2.93,3.19-.47.11-.27.83.2.72h0Z" style="fill:#fff; stroke-width:0px;"/><path d="M239.76,236.99c-.65-.4-1.55-.08-1.81.64-.16.44.07.89.46,1.1s.84.25,1.25.13c.38-.12.73-.38.86-.77s-.06-.84-.39-1.09-.76-.23-1.11-.04c-.38.21-.7.73-.45,1.15.22.38.84.63,1.23.36.29-.2.39-.58.15-.86-.2-.24-.51-.23-.79-.16-.18.05-.33.27-.26.46.09.22.26.36.51.35.2,0,.41-.08.53-.24.18-.24.11-.58-.17-.7-.19-.08-.43-.06-.61,0s-.33.26-.26.46c.06.18.26.33.46.26.03,0,.05-.02.08-.02s.08,0,.01,0c.02,0,.04,0,.06,0,.04,0,.04,0,.01,0-.07,0-.13-.05-.17-.12l-.05-.19c0-.09.05-.16.12-.21h-.02c.1-.03,0,0,0,.01-.03,0-.01,0,.04,0-.01,0-.02,0-.03,0-.03,0-.01,0,.05,0,.09.03.15.09.18.19l-.26.46s.07-.02.1-.03h-.03s.05,0,0,0h.02s-.06-.02-.08-.04l.02.02s-.06-.09-.06-.15l.03-.11s-.02.03.01-.01c-.03.05,0,0,.02-.01-.06.05.08-.03,0,0-.04,0-.03,0,.03,0-.02,0-.03,0-.05,0-.08,0,.08.03,0,0-.01,0-.07-.01-.07-.02l.04.02s-.03-.02-.05-.02c-.02,0-.03-.02-.04-.03-.07-.04.06.06,0,0-.01-.01-.07-.08-.02,0-.04-.06,0,.02,0,.05,0-.04,0-.04,0,0,0-.02,0-.04.02-.06-.02.08,0,0,.02-.02,0,0,.03-.04.03-.04l-.03.03s.02-.03.04-.04c.01-.01.04-.05.06-.05l-.03.03s.03-.02.04-.03c.02-.01.05-.03.07-.04.08-.04-.08.02,0,0,.03,0,.05-.01.08-.02.08-.02-.08,0,0,0,.03,0,.05,0,.08,0,.09,0-.08-.03,0,0,.02,0,.06,0,.07.02l-.04-.02s.03.02.05.02c0,0,.03.03.04.03l-.04-.03s.03.02.04.03c.01.01.02.02.04.04-.03-.04-.04-.05-.01-.01.01.02.03.04.04.07.04.07-.02-.08,0,0,0,.02.01.04.02.06.02.05,0-.09,0-.01,0,0,0,.08,0,.08v-.05s0,.03,0,.05v.03s-.02.03,0-.01c0,.01-.04.08-.06.09.06-.04.02-.03,0,0-.02.02-.03.03-.05.05-.06.06.06-.04-.01.01-.02.02-.05.03-.07.04s-.05.03-.07.04c-.08.04.08-.02-.02,0-.06.02-.12.04-.19.05-.1.02.07,0-.03,0-.03,0-.06,0-.1,0s-.06,0-.1,0c-.01,0-.12-.02-.03,0-.05,0-.11-.02-.16-.04-.03,0-.06-.02-.09-.03.08.03-.03-.02-.04-.02-.02-.01-.05-.03-.07-.04-.08-.04.05.05-.01,0-.01-.01-.03-.03-.04-.04-.06-.05.03.06,0,0v-.02s-.03-.03,0,.01v-.03s-.02-.04,0,0v-.03s0-.04,0,0c0-.03.02-.09.03-.12-.04.09.04-.08.06-.08l-.03.04s.02-.02.03-.04c0,0,.07-.07.07-.07,0,0-.07.05,0,0,.02-.01.04-.03.06-.04,0,0,.06-.03.07-.03-.05.02-.06.03-.02.01.02,0,.03-.01.05-.01.02,0,.05-.01.07-.02.02,0,.03,0,.05,0-.06,0-.07,0-.03,0,.05,0,.1,0,.15,0,.08,0-.09-.02,0,0,.03,0,.06.01.09.02.09.03,0,0,0,0,0,0,.08.04.09.05.17.1.42.04.51-.13s.04-.4-.13-.51h0Z" style="fill:#fff; stroke-width:0px;"/><path d="M249.86,225.32l-.52,2.53.74.1c.1-1.86.12-3.7-.85-5.36-.16-.28-.6-.22-.69.09-.32,1.14-.62,2.28-.89,3.44l.74.1c-.05-.91-.21-1.79-.56-2.64-.24-.59-.67-1.73-1.3-2.02-1.29-.6-1.8,2.44-2.06,3.21h.72c-.43-1.45-1.04-2.79-1.86-4.06-.15-.24-.64-.26-.69.09-.12.87-.18,1.73-.18,2.61l.7-.19c-.77-1.37-1.67-2.62-2.72-3.78-.22-.25-.64-.05-.64.27l-.04,3.85.7-.19c-.55-.81-1.1-1.62-1.72-2.37-.49-.6-1.27-1.67-2.05-1.91-.39-.12-.65.01-.87.34-.23.35-.27.94-.37,1.34-.17.65-.33,1.3-.5,1.95l.63-.17c-.92-1.08-1.96-2-3.13-2.8-.2-.13-.5,0-.55.22-.24,1.04-.36,2.06-.36,3.13l.7-.19c-.51-.78-1.12-1.4-1.9-1.91-.19-.12-.51-.01-.55.22-.14.89-.17,1.74-.07,2.63l.7-.19c-.42-.6-1.63-2.21-2.53-2s-.64,1.96-.66,2.54l.64-.27c-1.11-1.42-3.73-3.46-4.08-.46l.56-.32c-.37-.22-.7-.37-1.11-.48-.26-.07-.57.19-.46.46.37.96.87,1.79,1.56,2.55l.53-.53c-.62-.67-1.31-1.15-2.15-1.51-.35-.15-.82.3-.45.59.62.48,1.2.78,1.97.95.31.07.59-.26.42-.55-.24-.4-.46-.68-.83-.97l-.45.59c1.31.68,2.67,1.19,4.11,1.54.37.09.62-.35.36-.63l-1.83-1.97-.45.59c1.95,1.39,3.33,3.43,5.45,4.61.28.16.64-.1.55-.42l-.15-.53c-.13-.46-.86-.27-.72.2l.15.53.55-.42c-2.11-1.17-3.5-3.22-5.45-4.61-.36-.26-.73.29-.45.59l1.83,1.97.36-.63c-1.38-.33-2.68-.81-3.93-1.46-.36-.18-.8.31-.45.59.31.2.55.48.72.82l.42-.55c-.62-.14-1.13-.35-1.64-.75l-.45.59c.78.33,1.42.77,2,1.39.33.35.86-.18.53-.53-.61-.67-1.05-1.37-1.37-2.22l-.46.46c.34.07.65.2.93.4.27.16.53-.06.56-.32.22-1.92,2.31.37,2.8.99.21.27.63.03.64-.27,0-.31-.14-1.55.31-1.61.4-.06,1.3,1.2,1.48,1.45.19.27.74.22.7-.19-.09-.83-.08-1.61.05-2.43l-.55.22c.68.44,1.2.97,1.63,1.64.2.31.7.19.7-.19,0-.99.11-1.96.34-2.93l-.55.22c1.12.77,2.09,1.65,2.98,2.68.19.22.56.09.63-.17.17-.65.33-1.3.5-1.95.03-.11.16-1.04.28-1.08.2-.06.69.5.8.6,1,.96,1.78,2.12,2.56,3.26.2.3.69.2.7-.19l.04-3.85-.64.27c1,1.12,1.86,2.32,2.6,3.63.18.33.7.18.7-.19,0-.81.04-1.61.15-2.41l-.69.09c.79,1.21,1.38,2.49,1.79,3.88.11.36.61.35.72,0,.19-.58.34-1.3.65-1.83l.18-.45c.29-.31.49-.26.6.15.76.79.97,2.36,1.02,3.38.02.41.63.53.74.1.27-1.15.57-2.3.89-3.44l-.69.09c.89,1.53.84,3.26.75,4.98-.02.42.65.52.74.1l.52-2.53c.1-.47-.63-.67-.72-.2h0Z" style="fill:#fff; stroke-width:0px;"/><path d="M229.32,238.26c-.13.03-.21.08-.3.17-.23.21-.08.53.17.63.41.17.82-.1,1.18-.28.45-.22.9-.44,1.35-.66l-.51-.51c-.37.59-.75,1.17-1.12,1.76-.26.41.39.78.65.38.33-.5.43-1.08.51-1.66.07-.47-.55-.66-.72-.2l-.61,1.58.72.2.35-1.63-.74-.1c-.04.52-.15,1.1-.11,1.62.04.41.46.65.81.37s.59-.78.79-1.16c.24-.45.43-.92.58-1.4l-.74-.1c.1,1.02-.23,2.04.06,3.04.1.33.66.38.72,0,.17-1.01.25-2.03.22-3.05-.02-.48-.76-.48-.75,0,.01.91.04,1.82.33,2.68.1.29.53.39.69.09.3-.58.33-1.29.44-1.93.11-.7.22-1.4.33-2.1l-.74-.1c.06.75.13,1.51.19,2.26.04.48.72.49.75,0,.04-.64.14-1.27.29-1.9l-.46.26.22.06c.2.05.41-.07.46-.26.06-.21.11-.43.15-.65.07-.39-.48-.7-.69-.29-.17.34-.31.68-.43,1.04l.72.2c.06-.24.09-.48.09-.72,0-.32-.42-.51-.64-.27-.55.6-1.22,1.08-1.97,1.4l.46.26c-.04-.09-.05-.18,0-.27.08-.29-.27-.62-.55-.42-.46.32-.94.6-1.45.83l.51.51c.2-.26.43-.47.7-.66l-.45-.59c-.56.44-1.12.89-1.68,1.33l.53.53c.23-.2.44-.41.65-.63l-.59-.45c-.47.64-.94,1.28-1.41,1.91l.7.19c-.03-.31-.04-.63-.03-.94s-.43-.51-.64-.27c-.29.33-.38.69-.31,1.12.04.24.36.34.55.22.23-.14.46-.28.7-.41.19-.1.06-.08.18.02.08.06.15.18.22.26.3.33.66.6,1.05.82l.29-.69c-.46-.08-.92-.16-1.38-.24s-.66.56-.2.72c1.21.43,2.47.69,3.72.94l.1-.74-2.04-.17c-.43-.04-.5.62-.1.74l2.4.68v-.72c-.2.08-.4.13-.61.16-.42.06-.32.76.1.74.34-.02.68,0,1.01.07.31.07.6.22.91.26.5.06.97-.22.74-.77-.42-1-1.4-1.65-1.76-2.68l-.69.29c.36.63.52,1.32.69,2.02.11.47.82.27.72-.2-.13-.6-.29-1.18-.49-1.76-.14-.4-.72-.33-.74.1-.04.86.02,1.72.15,2.57.07.43.73.31.74-.1,0-.69-.13-1.36-.41-2-.14-.32-.31-.62-.52-.9-.18-.24-.39-.53-.73-.47-.62.11-.66,1.18-.53,1.64.07.26.25.52.55.53.32,0,.52-.3.72-.51l-.63-.36c-.15.45-.31.89-.46,1.34-.14.41.48.65.69.29.15-.27.32-.52.5-.77l-.69-.09c.02.07.05.21-.03.25l.29-.04c-.12-.02-.25-.18-.35-.25-.12-.09-.25-.17-.38-.24-.22-.12-.46-.23-.7-.31-.52-.18-1.1-.26-1.64-.2s-.75.53-.46,1c.25.39.83.66,1.27.44.19-.1.33-.29.32-.51-.02-.28-.25-.42-.49-.52-.41-.17-1.03-.12-.98.48.05.53.76.76,1.17.93.56.23,1.15.36,1.75.44.48.06.47-.69,0-.75s-.94-.17-1.38-.34c-.22-.08-.43-.18-.63-.29l-.11-.06c-.13-.12-.22-.04-.25.24l.11.04c.16.1.17.07.05-.08l.11-.27c-.06.08-.22-.04-.26-.09-.04-.03-.07-.07-.08-.12-.18.17-.21.24-.08.21.1.03.28-.01.39-.01.12,0,.23.01.35.03.47.07.92.23,1.32.48.32.2.69.68,1.1.42.35-.22.43-.71.33-1.07-.09-.33-.5-.34-.69-.09s-.34.5-.5.77l.69.29c.15-.45.31-.89.46-1.34.12-.36-.38-.63-.63-.36l-.19.2c-.1.11-.18.11.04.14.25.04.12-.05.11-.22,0-.08,0-.17,0-.25,0-.06.09-.23.08-.29.06-.09.02-.1-.11-.02-.17,0-.18.05-.05.14.07.15.2.29.29.44.37.64.54,1.35.54,2.09l.74-.1c-.12-.79-.16-1.58-.12-2.37l-.74.1c.2.58.37,1.16.49,1.76l.72-.2c-.18-.76-.37-1.51-.76-2.2-.21-.36-.83-.12-.69.29.19.54.51,1,.86,1.44.18.22.36.43.53.66.11.15.41.49.41.69l.11-.27c-.06.07-.89-.25-1-.28-.36-.07-.72-.09-1.09-.07l.1.74c.21-.03.41-.09.61-.16.33-.13.38-.62,0-.72l-2.4-.68-.1.74,2.04.17c.42.03.51-.65.1-.74-1.26-.25-2.51-.51-3.72-.94l-.2.72c.46.08.92.16,1.38.24.4.07.68-.46.29-.69-.27-.15-.52-.32-.74-.54-.19-.19-.34-.43-.54-.6-.51-.41-1.17.19-1.61.46l.55.22c-.02-.15.02-.28.12-.39l-.64-.27c0,.32,0,.63.03.94.04.38.47.49.7.19.47-.64.94-1.28,1.41-1.91.25-.34-.3-.76-.59-.45-.21.22-.42.43-.65.63-.37.32.16.82.53.53.56-.44,1.12-.89,1.68-1.33.33-.26-.11-.83-.45-.59-.38.26-.69.56-.97.93-.26.33.22.65.51.51.51-.23.99-.5,1.45-.83l-.55-.42c-.06.23-.06.44,0,.67.05.17.27.34.46.26.88-.37,1.65-.89,2.3-1.59l-.64-.27c0,.18-.02.35-.06.53-.12.47.58.66.72.2.1-.3.21-.58.35-.87l-.69-.29c-.04.22-.09.44-.15.65l.46-.26-.22-.06c-.19-.05-.41.07-.46.26-.17.69-.28,1.39-.32,2.1h.75c-.06-.75-.13-1.51-.19-2.26-.03-.39-.67-.55-.74-.1-.1.66-.21,1.31-.31,1.97-.09.59-.1,1.34-.38,1.88l.69.09c-.28-.8-.3-1.64-.31-2.49h-.75c.03.96-.03,1.91-.19,2.85h.72c-.27-.93.06-1.9-.03-2.84-.04-.41-.6-.52-.74-.1s-.28.79-.48,1.17c-.09.18-.19.35-.3.51-.05.08-.11.17-.16.25-.04.06-.23.21-.06.2l.27.11c.04.1.05.08.04-.07v-.13c.02-.15.03-.3.04-.45l.06-.83c.03-.42-.65-.51-.74-.1l-.35,1.63c-.1.48.55.65.72.2l.61-1.58-.72-.2c-.07.52-.15,1.04-.44,1.48l.65.38c.37-.59.75-1.17,1.12-1.76.22-.34-.2-.67-.51-.51s-.65.32-.98.48c-.22.11-.73.48-.97.38l.17.63-.03.03c.47-.11.27-.83-.2-.72h0Z" style="fill:#fff; stroke-width:0px;"/><path d="M243,240.74l-.5.27c-.31.17-.19.73.19.7.71-.06,1.4-.18,2.09-.38.47-.13.27-.81-.2-.72s-.9.15-1.36.19l.1.74,2.12-.52c.4-.1.33-.76-.1-.74-.74.04-1.48.11-2.22.2v.75c.98-.13,1.96-.3,2.93-.53.42-.1.31-.72-.1-.74-.75-.03-1.5-.01-2.25.05v.75c1.35-.18,2.7-.36,4-.78.42-.14.32-.7-.1-.74-1.17-.12-2.34-.05-3.5.18-.42.08-.32.74.1.74,1.05,0,2.08-.16,3.09-.45.33-.1.38-.66,0-.72-.52-.09-1.03-.11-1.55-.05-.47.05-.49.73,0,.75.68.03,1.36,0,2.04-.06.47-.05.49-.73,0-.75-.74-.03-1.47-.04-2.21-.02-.48,0-.48.73,0,.75.6.02,1.2,0,1.8-.06.39-.04.54-.64.1-.74l-1.16-.26v.72c.5-.1,1.01-.2,1.51-.3.44-.09.3-.71-.1-.74-.57-.04-1.14-.08-1.7-.11l.1.74c.46-.09.93-.18,1.39-.28s.29-.7-.1-.74l-1.5-.14.1.74.93-.17c.43-.08.3-.72-.1-.74l-1.15-.05v.75l1.86-.24c.48-.06.49-.7,0-.75l-1.93-.21.1.74c.34-.13.7-.23,1.07-.28.19-.02.34-.12.37-.33.02-.17-.08-.38-.27-.41-.46-.07-.92-.14-1.38-.21v.72l1.56-.28c.44-.08.3-.71-.1-.74-.69-.04-1.36-.13-2.04-.27l.09.69c.28-.16.57-.25.89-.31.44-.07.29-.71-.1-.74-.52-.04-1.03-.08-1.55-.12l.1.74c.32-.13.64-.22.98-.28.35-.07.36-.66,0-.72l-.7-.12v.72c.27-.1.55-.18.84-.22.38-.06.33-.63,0-.72-.23-.06-.47-.09-.71-.08v.75c.18-.01.38-.03.56.02.21.06.28.24.39.41.19.29.42.55.7.77s.58.41.88.59c.16.09.32.19.48.28.07.04.13.08.2.12.07.04.19.18.2.06l.11-.27c.09-.04.06-.04-.07,0-.06.02-.12.03-.17.05-.14.04-.27.08-.41.12-.43.13-.3.69.1.74.37.04.74.12,1.1.23v-.72c-.42.12-.85.24-1.27.36-.35.1-.36.63,0,.72.32.08.63.08.95,0,.43-.12.31-.7-.1-.74-.45-.04-.9-.11-1.34-.2l.22.55.02-.05c.45-.17.28-.82-.2-.72-.6.12-1.2.26-1.79.42-.44.12-.3.69.1.74.33.04.59-.13.78-.38.12-.16.03-.43-.13-.51l-.35-.18-.15-.08c-.11-.07-.13-.07-.06-.01l.04.29c-.05.08-.03.07.06-.03.06-.05.12-.1.17-.15.1-.09.2-.18.3-.27.22-.19.44-.38.65-.57.25-.22.05-.64-.27-.64-1.58.02-2.85,1.37-2.68,2.96.05.48.8.48.75,0-.12-1.18.73-2.2,1.93-2.21l-.27-.64c-.23.2-.46.41-.7.61-.19.17-.46.34-.6.55-.38.55.4.83.78,1.02l-.13-.51s-.08.03-.13.01l.1.74c.59-.16,1.19-.3,1.79-.42l-.2-.72c-.21.08-.37.19-.47.4s-.03.5.22.55c.51.11,1.02.19,1.54.23l-.1-.74c-.19.05-.36.05-.55,0v.72c.42-.12.85-.24,1.27-.36.36-.1.36-.62,0-.72-.43-.12-.86-.2-1.3-.25l.1.74c.28-.09.69-.13.93-.33.21-.18.21-.48.04-.69s-.46-.34-.69-.47c-.24-.14-.49-.28-.72-.42-.48-.3-.83-.62-1.14-1.1-.35-.55-.87-.66-1.49-.62-.48.03-.48.78,0,.75.18,0,.33,0,.51.05v-.72c-.29.04-.56.11-.84.22-.31.12-.4.66,0,.72l.7.12v-.72c-.34.06-.66.15-.98.28-.39.15-.34.7.1.74.52.04,1.03.08,1.55.12l-.1-.74c-.38.06-.73.2-1.07.38-.27.15-.23.62.09.69.74.16,1.48.26,2.24.3l-.1-.74-1.56.28c-.35.06-.36.67,0,.72.46.07.92.14,1.38.21l.1-.74c-.44.06-.85.15-1.27.3s-.33.69.1.74l1.93.21v-.75l-1.86.24c-.47.06-.5.73,0,.75l1.15.05-.1-.74-.93.17c-.44.08-.29.7.1.74l1.5.14-.1-.74c-.46.09-.93.18-1.39.28-.44.09-.3.71.1.74.57.04,1.14.08,1.7.11l-.1-.74c-.5.1-1.01.2-1.51.3-.36.07-.35.64,0,.72l1.16.26.1-.74c-.6.06-1.2.08-1.8.06v.75c.74-.01,1.47,0,2.21.02v-.75c-.68.06-1.36.08-2.04.06v.75c.45-.05.9-.05,1.35.02v-.72c-.94.28-1.9.42-2.89.43l.1.74c1.09-.22,2.2-.26,3.3-.15l-.1-.74c-1.23.4-2.52.59-3.8.76-.2.03-.37.15-.38.38,0,.19.17.39.38.38.75-.06,1.5-.08,2.25-.05l-.1-.74c-.9.21-1.81.38-2.73.5-.2.03-.37.15-.38.38,0,.18.17.4.38.38.74-.09,1.48-.16,2.22-.2l-.1-.74-2.12.52c-.4.1-.33.77.1.74.52-.05,1.04-.12,1.56-.22l-.2-.72c-.62.18-1.25.3-1.89.35l.19.7.5-.27c.42-.23.05-.88-.38-.65h0Z" style="fill:#fff; stroke-width:0px;"/><path d="M254.63,239.42c-1.2,4.9-2.78,9.69-4.72,14.35-.37.89,1.08,1.28,1.45.4,1.94-4.65,3.52-9.45,4.72-14.35.23-.94-1.22-1.34-1.45-.4h0Z" style="fill:#fff; stroke-width:0px;"/><path d="M255.98,280.3c.8.24,1.6.41,2.43.51.73.09,1.52.19,2.2-.15,1.38-.69,1.65-2.34,2.36-3.56.46-.78,1.07-1.34,1.95-1.61s1.74-.42,2.6-.6c.16-.03.94-.27,1.05-.17.29.25-.32.94-.5,1.07-.78.54-1.7,0-2.22-.64l-.36.63c.15,0,.28.06.38.16l.29-.69c-.46-.16-.89-.18-1.37-.09-.41.08-.32.78.1.74.9-.09,1.78-.05,2.67.14.47.1.67-.61.2-.72-.51-.12-.94.04-1.39.28l.45.59c.26-.28.55-.48.9-.62l-.46-.26-.07.23.59.45.53-.72-.7-.19c.04.14.02.27-.05.39-.15.41.47.65.69.29.05-.11.13-.2.24-.27l-.64-.27-.17.31.64.27c-.02-.16,0-.3.08-.44.14-.37-.38-.61-.63-.36-.04.04-.78.62-.58.64v-.75c-.19.01-.38.02-.58.04l.1.74c.63-.17,1.26-.32,1.9-.44.44-.08.3-.71-.1-.74-1.9-.13-3.68.5-5.43,1.16-.45.17-.25.89.2.72,1.69-.64,3.4-1.26,5.23-1.13l-.1-.74c-.64.12-1.27.27-1.9.44-.4.11-.33.76.1.74.19-.01.38-.02.58-.04.49-.03.47-.7,0-.75-.5-.06-.8.58-.46.95.45.49,1.21.04,1.57-.31l-.63-.36c-.09.22-.11.41-.11.64.01.34.39.48.64.27.27-.23.38-.49.39-.84s-.41-.46-.64-.27c-.15.13-.25.26-.35.43l.69.29c.07-.2.1-.38.07-.59-.04-.38-.47-.5-.7-.19l-.53.72c-.25.34.31.77.59.45.26-.3.33-.57.26-.96-.03-.19-.28-.33-.46-.26-.48.18-.88.44-1.23.81-.29.31.08.79.45.59.25-.14.5-.28.81-.21l.2-.72c-.95-.2-1.9-.26-2.87-.17l.1.74c.35-.07.64-.03.97.09.43.15.61-.45.29-.69-.18-.13-.35-.2-.56-.24-.38-.06-.61.33-.36.63.98,1.21,3.06,1.6,3.85-.05.23-.48.31-1.36-.29-1.61-.33-.14-.74,0-1.08.06-.56.11-1.12.22-1.68.35-.94.21-1.95.38-2.72,1-.72.58-1.18,1.39-1.54,2.22-.39.91-.8,2.17-1.89,2.44-.6.15-1.34,0-1.94-.1s-1.25-.25-1.86-.43c-.46-.14-.66.59-.2.72h0Z" style="fill:#fff; stroke-width:0px;"/><path d="M256.35,279.65c-1.19-.98-2.36-1.96-3.56-2.93-.5-.4-1.01-.74-1.56-1.05-.52-.29-1.05-.6-1.39-1.1l-.59.45c1.08,1.1,2.25,2.1,3.51,3l.38-.65c-.98-.57-1.69-1.47-2.36-2.36-.28-.37-.91-.04-.65.38.51.81,1.14,1.54,1.87,2.16.37.31.9-.22.53-.53-.69-.58-1.27-1.25-1.75-2.01l-.65.38c.76.99,1.54,1.99,2.63,2.63.42.25.76-.37.38-.65-1.2-.86-2.32-1.82-3.35-2.88-.29-.3-.83.09-.59.45.71,1.06,2.01,1.47,2.98,2.24,1.23.98,2.43,2,3.65,3,.37.3.9-.22.53-.53h0Z" style="fill:#fff; stroke-width:0px;"/><path d="M252.62,276.7c-2.07.82-4.08-1.16-5.21-2.76-1.27-1.79-.05-5.05.76-6.85.92-2.04,2.13-3.93,2.83-6.06.76-2.33.97-4.81,1.18-7.24.17-1.92-2.83-1.91-3,0-.26,3-.64,5.89-2,8.62-1.23,2.46-2.45,4.77-2.99,7.5-.27,1.35-.5,2.79-.07,4.14s1.33,2.29,2.27,3.21c1.92,1.88,4.27,3.43,7.02,2.34,1.77-.7,1-3.6-.8-2.89h0Z" style="fill:#fff; stroke-width:0px;"/><path d="M265.43,280.05c1.45.16,2.94.27,4.34-.23,1.29-.46,2.32-1.38,3.27-2.34,2.18-2.2,2.78-4.8,2.95-7.83.08-1.43-.09-2.82-.65-4.14-.59-1.39-1.43-2.65-1.99-4.05-1.16-2.89-1.68-5.99-2.21-9.04-.33-1.9-3.22-1.09-2.89.8.43,2.48.87,4.97,1.62,7.37.37,1.18.82,2.33,1.35,3.44s1.33,2.21,1.63,3.45c.51,2.11.15,5.44-1.26,7.14-.66.8-1.52,1.74-2.45,2.21-1.13.58-2.51.35-3.72.21-1.92-.22-1.9,2.78,0,3h0Z" style="fill:#fff; stroke-width:0px;"/><path d="M248.24,272.05c.31.45.49.97.73,1.46.23.46.52.88.84,1.28.64.78,1.45,1.41,2.35,1.85.34.17.68-.17.51-.51-.18-.38-.56-.71-.86-.99s-.66-.59-.98-.88c-.62-.56-1.26-1.16-1.58-1.95-.08-.19-.25-.32-.46-.26-.19.05-.33.27-.26.46.27.8.71,1.52,1.3,2.12l.53-.53c-.53-.53-1.08-1.06-1.53-1.66-.28-.38-.89-.05-.65.38.36.64.77,1.23,1.24,1.79.27.32.84-.11.59-.45l-.8-1.07-.65.38c1,1.34,2.14,2.57,3.41,3.66.36.31.9-.22.53-.53-1.22-1.05-2.33-2.22-3.29-3.51-.12-.16-.32-.24-.51-.13-.16.09-.26.35-.13.51l.8,1.07.59-.45c-.42-.51-.79-1.06-1.12-1.64l-.65.38c.49.65,1.06,1.24,1.65,1.81.34.34.87-.19.53-.53-.5-.51-.88-1.11-1.11-1.79l-.72.2c.35.85.94,1.52,1.61,2.13.32.3.66.58.98.88s.73.61.91,1l.51-.51c-.85-.41-1.6-1-2.2-1.73-.29-.36-.54-.75-.74-1.16-.24-.48-.42-.98-.71-1.42-.27-.4-.92-.02-.65.38h0Z" style="fill:#fff; stroke-width:0px;"/><path d="M255.28,278.97c.78.84,1.81,1.45,2.93,1.71.53.13,1.09.16,1.52-.24.16-.15.28-.34.4-.52.1-.15.21-.36.39-.43.45-.17.26-.89-.2-.72-1.14.41-2.34.4-3.53.39-.39,0-.48.5-.19.7.47.33,1.03.49,1.59.6.68.14,1.36.24,2.05.31.34.04.68.07,1.02.08.26,0,.52-.04.7-.25.37-.46.05-.99-.32-1.31s-.9.21-.53.53c.03.02.33.26.26.33.05-.05-.26-.05-.23-.05-.12,0-.24-.02-.36-.03-.47-.04-.94-.09-1.4-.16-.81-.12-1.71-.23-2.4-.7l-.19.7c1.25.02,2.53.02,3.73-.42l-.2-.72c-.39.15-.61.43-.84.77-.1.15-.19.33-.35.42-.22.12-.5.05-.72,0-1-.24-1.89-.77-2.6-1.52-.33-.35-.86.18-.53.53h0Z" style="fill:#fff; stroke-width:0px;"/><path d="M455,280c0,44.48-16.6,85.09-43.94,115.96-.18.21-.37.42-.55.62-6.14,6.88-12.82,13.26-19.96,19.09-1.7,1.38-3.42,2.73-5.17,4.04-1.28.98-2.58,1.94-3.89,2.87-9.75,6.96-20.25,12.93-31.35,17.79-1.72.76-3.46,1.49-5.22,2.19-1.2.48-2.4.94-3.61,1.39-.18.08-.36.14-.55.21-1.51.56-3.03,1.1-4.56,1.62-.12.04-.23.08-.34.11-.72.25-1.41.49-2.13.72h-.04c-11.18,3.6-22.85,6.1-34.88,7.39-.26.03-.52.06-.79.09-.3.02-.6.05-.91.08-.27.03-.54.06-.81.08-.05.01-.1.01-.16.02-.25.02-.51.04-.77.07-5.06.43-10.19.66-15.37.66-11.78,0-23.28-1.16-34.41-3.39-.97-.19-1.95-.39-2.92-.6-23.4-5.09-45.06-14.85-63.94-28.27-.19-.14-.38-.27-.57-.41,0,0-.03-.02-.04-.03-.18-.13-.37-.26-.55-.4-2.56-1.85-5.07-3.76-7.52-5.75-.19-.16-.39-.32-.59-.48-39.34-32.08-64.46-80.94-64.46-135.67,0-96.65,78.35-175,175-175s175,78.35,175,175Z" style="fill:none; stroke-width:0px;"/></svg>