<svg xmlns="http://www.w3.org/2000/svg" xmlns:xlink="http://www.w3.org/1999/xlink" width="1920" height="591" viewBox="0 0 1920 591"><defs><clipPath id="a"><rect width="1920" height="591" transform="translate(0 1563)" fill="#222"/></clipPath></defs><g transform="translate(0 -1563)" clip-path="url(#a)"><path d="M13779.364-3801.595h-178.627l-73.105-155.37h262.091l-.277-.467c166.014-6.63,227.361-92.908,227.361-229.231,0-72.083-18.862-129.789-56.587-170.871-36.6-41.086-101.027-62.1-193.091-62.1H13656.2v207.256L13485.328-4575h292.914c130.907,0,231.842,35.481,302.9,107.565,72.087,71.055,107.661,164.241,107.657,280.772q.042,67.788-16.063,125.213-15.959,57.564-47.9,104.485a13.555,13.555,0,0,1-1.025,1.4c-2.7,3.92-5.412,7.749-8.219,11.576-.559.655-1.114,1.311-1.584,1.962-2.8,3.735-5.605,7.282-8.589,10.832-1.681,2.055-3.454,4.109-5.228,6.068-1.87,2.147-3.643,4.294-5.509,6.349q-6.025,6.586-12.328,12.887c-6.253,6.257-12.884,12.139-19.7,17.833-1.025.933-2.058,1.777-3.084,2.614-6.9,5.6-13.908,11.017-21.287,16.063a1.958,1.958,0,0,1-.559.37c-7.189,4.857-14.657,9.433-22.316,13.82-1.122.655-2.24,1.307-3.458,1.962-7.841,4.387-15.871,8.5-24.179,12.232-.937.467-1.873.841-2.8,1.214-7.749,3.454-15.687,6.723-23.9,9.711-1.214.374-2.336.84-3.547,1.307-8.777,3.08-17.837,5.883-27.077,8.5-1.5.374-3.084.748-4.668,1.214-8.593,2.332-17.463,4.387-26.614,6.256-.934.185-1.87.467-2.9.652-9.711,1.869-19.795,3.458-29.973,4.857-.933.185-1.776.374-2.706.467v-.093a651.036,651.036,0,0,1-83.07,5.321Zm-597.307,0H13011L13391.957-4575l247.21,524.66H13483.65l-92.809-197.3-136.056,290.668H13434.2l73.106,155.374Z" transform="translate(-12640 6045.045)" fill="#fff"/></g></svg>