<?xml version="1.0" encoding="UTF-8"?><svg id="a" xmlns="http://www.w3.org/2000/svg" viewBox="0 0 560 560"><path d="M320.33,237.1c4.51-1.45,8.45,2.83,12.03,4.87,1.81,1.04,3.92,1.9,6.05,1.82s3.91-1.82,2.58-3.85c-.54-.83-1.5-1.23-2.35-1.66-1.25-.62-2.51-1.25-3.76-1.87-2.36-1.17-4.72-2.35-7.08-3.52-1.11-.55-2.21-1.1-3.32-1.65-1.03-.51-2.07-1.12-3.22-1.28-1.89-.28-4.06.98-3.87,3.09.21,2.36,3.38,3.24,4.55,1.09.51-.94.37-2.1-.14-3-.56-.98-1.77-1.74-1.13-3.01l-2.36.3c2.79,2.54,5.93,4.67,9.37,6.24,1.74.8,3.54,1.48,5.38,2,.86.24,1.73.45,2.6.63.47.09.95.17,1.42.25.18.03.36.06.53.09-.21-.04-.11-.43-.06.17.07.79.27,1.51.79,2.13.14.17.46.58.67.65l.17.15v-.33c-.09-.04-.53,0-.66-.03-.9-.2-1.84-.85-2.65-1.28-.87-.46-1.73-.95-2.58-1.46-3.34-2.01-6.45-4.37-9.21-7.13-2.6-2.6-5.07-6.85-9.26-6.66-1.92.09-1.93,3.09,0,3s3.22,1.47,4.38,2.78c1.42,1.6,2.85,3.17,4.44,4.6,3.18,2.87,6.75,5.33,10.52,7.36,1.7.91,3.86,2.36,5.87,1.7s2.71-2.88,1.43-4.46c-.23-.28-.62-.49-.8-.79-.21-.33-.15-.76-.23-1.14-.2-.96-.77-1.73-1.71-2.06-.84-.3-1.81-.33-2.68-.52-1.07-.23-2.14-.51-3.19-.84-4.61-1.45-8.87-3.92-12.44-7.18-.67-.61-1.9-.6-2.36.3-.9,1.79-.73,3.62.51,5.2.2.26.42.71.66.92.33.28,1.61.15,2.13.34,1,.35,1.95.95,2.9,1.42,4.13,2.05,8.26,4.1,12.39,6.16.47.23.98.59,1.48.74.14.07.28.16.4.26.38-.72.33-1.01-.15-.87-.31-.15-1.01-.05-1.38-.13-.45-.09-.9-.23-1.33-.39-1.79-.68-3.37-1.85-4.93-2.93-3.26-2.27-7.16-4.45-11.24-3.14-1.83.59-1.05,3.49.8,2.89h0Z" style="fill:#fff; stroke-width:0px;"/><path d="M337.6,243.81c-2.37,8.14-2.82,16.63-4.07,24.98s-3.55,16.89-5.9,25.16c-1.34,4.73-2.78,9.44-4.31,14.12-.22.68.17,1.3.69,1.69,1.02.76,2.17.25,2.86-.65,1.16-1.54-1.44-3.04-2.59-1.51l-.14.19.9-.69.5.08.69,1.69c2.7-8.28,5.12-16.66,7.25-25.11,1.04-4.15,2.01-8.33,2.7-12.55s1.12-8.34,1.64-12.51c.59-4.75,1.34-9.49,2.68-14.09.54-1.86-2.35-2.65-2.89-.8h0Z" style="fill:#fff; stroke-width:0px;"/><path d="M328.64,213.29c7.29,5.05,12.26,12.96,13.82,21.67.34,1.9,3.23,1.09,2.89-.8-1.7-9.48-7.29-17.99-15.2-23.46-1.59-1.1-3.09,1.5-1.51,2.59h0Z" style="fill:#fff; stroke-width:0px;"/><path d="M294.04,172.33c2.03-.56,4.22-.31,6.28-.12,2.21.2,4.4.53,6.57.98,4.03.84,8.36,1.93,11.91,4.08,3.37,2.04,4.96,5.37,6.16,8.98,1.31,3.93,2.89,7.78,4.16,11.73,1.54,4.79,1.97,9.89,1.18,14.86-.3,1.89,2.59,2.7,2.89.8.77-4.82.62-9.72-.6-14.46-1.15-4.48-3.12-8.76-4.55-13.16-1.28-3.91-2.87-7.75-6.23-10.32-3.55-2.72-8.23-4.03-12.52-5.06-2.64-.63-5.33-1.08-8.04-1.36s-5.42-.57-8.02.14c-1.86.51-1.07,3.41.8,2.89h0Z" style="fill:#fff; stroke-width:0px;"/><path d="M330.19,192.91c3.1.57,6.01,2.67,8.61,4.37s4.93,3.81,6.7,6.46,3.23,5.48,4.55,8.34,3.08,6.43,1.89,9.47c-.71,1.8,2.19,2.58,2.89.8,1.36-3.46-.26-7.33-1.63-10.53s-3.11-6.6-5.11-9.59-4.46-5.32-7.41-7.29-6.21-4.28-9.69-4.92c-1.89-.35-2.7,2.54-.8,2.89h0Z" style="fill:#fff; stroke-width:0px;"/><path d="M321.34,178.06c8.22.72,15.52,5.3,20.71,11.58,2.62,3.17,4.82,6.86,6.31,10.7,1.6,4.14,2.02,8.58,3.32,12.81.57,1.84,3.46,1.06,2.89-.8-1.43-4.65-1.9-9.49-3.81-14.01-1.7-4.03-4.03-7.79-6.85-11.14-5.7-6.75-13.7-11.37-22.57-12.14-1.92-.17-1.91,2.83,0,3h0Z" style="fill:#fff; stroke-width:0px;"/><path d="M325.02,184.84c2,.59,4,1.17,5.98,1.84.95.32,1.89.66,2.83,1.02.05.02,1.3.54.63.25.57.24,1.12.5,1.68.78,1.6.78,3.09,1.71,4.55,2.71.78.53-.43-.41.35.27.3.26.61.51.9.78.68.62,1.33,1.28,1.93,1.98.08.09.79,1.1.28.33.26.38.53.75.77,1.15.47.76.9,1.56,1.24,2.38-.34-.8.1.33.16.5.18.53.35,1.07.49,1.61.22.82.41,1.65.57,2.48.19.98.34,1.97.48,2.96.2,1.41-.11-.9.07.51.05.43.11.86.16,1.28.29,2.25.57,4.5,1,6.72s3.34,3.85,5.54,3.14c2.46-.8,3.63-3.06,3.14-5.54-.21-1.05-.36-2.11-.53-3.17-.05-.33-.04-.28.01.13-.04-.29-.07-.57-.11-.86-.06-.5-.13-1-.19-1.5-.29-2.31-.58-4.63-1.07-6.91-.93-4.31-2.78-8.23-5.66-11.58-5.78-6.73-14.61-9.53-22.83-11.94-2.26-.66-5,.8-5.54,3.14s.72,4.83,3.14,5.54h0Z" style="fill:#fff; stroke-width:0px;"/><path d="M335.59,204.62c-.35.08-.72.05-1.06-.05.59.17.11-.15-.1-.13.15-.02.48.27.62.34.92.5-.35-.37.1.04.75.67,1.4,1.38,2.08,2.11.45.48-.39-.56-.02-.03.18.25.37.5.54.76.3.43.58.86.86,1.3.62.97,1.2,1.96,1.75,2.96,1.07,1.96,2.02,3.98,2.91,6.02.11.25.21.5.32.75-.18-.42-.12-.3.02.05.21.5.41,1,.62,1.5.46,1.13.91,2.26,1.35,3.4.86,2.18,3.05,3.95,5.54,3.14,2.12-.68,4.07-3.19,3.14-5.54-2.05-5.19-4.1-10.45-6.93-15.28-2.88-4.91-7.55-11.56-14.13-10.02-2.29.53-3.87,3.29-3.14,5.54.78,2.4,3.08,3.72,5.54,3.14h0Z" style="fill:#fff; stroke-width:0px;"/><path d="M330.6,211.49c2.47,2.52,4.87,5.17,7.06,7.93.13.16.24.33.38.48-.17-.2-.49-.65-.15-.18.24.33.48.65.72.98.5.7.97,1.42,1.42,2.16s.87,1.48,1.25,2.25c.08.17.15.38.25.54-.24-.37-.29-.73-.08-.1.14.43.25.86.33,1.3.42,2.32,3.37,3.84,5.54,3.14,2.49-.81,3.59-3.05,3.14-5.54-.74-4.06-3.57-7.76-6.05-10.93-2.3-2.94-4.83-5.74-7.44-8.41-1.65-1.69-4.73-1.78-6.36,0s-1.76,4.57,0,6.36h0Z" style="fill:#fff; stroke-width:0px;"/><path d="M301.97,239.24c-1.69,1.98-4.27,2.22-6.7,2.45s-4.74.35-7.12.07c-2.12-.25-4.26-.36-6.01-1.7-.72-.55-1.58-.5-2.46-.58-.58-.05-1.15-.1-1.72-.17-.19-.02-.66-.17-.85-.12-.04.01-.16-.06-.18-.04-.22.16-.05.38.13.39.28,0,.98-.61,1.23-.76.54-.32,1.08-.64,1.61-.97.23-.14.47-.28.66-.47.27-.28.4-.65.75-.9.42-.3.95-.45,1.43-.59,1.92-.58,3.82-1.2,5.84-1.27,5.11-.18,10.7.89,14.11,5.02.31.37.84-.16.53-.53-1.92-2.33-4.6-3.8-7.49-4.55-3.15-.81-6.95-1.14-10.13-.3-1.24.33-2.59.68-3.79,1.15-.42.16-.83.36-1.17.64-.32.26-.45.64-.72.91-.53.53-1.47.89-2.11,1.28-.44.26-1.22.57-1.5,1.03-.07.11-.07.27,0,.38.21.35.77.34,1.13.39.83.11,1.66.17,2.5.25.92.09,1.36.14,2.1.67,1.04.74,2.29,1.07,3.54,1.27,3.09.49,6.14.57,9.25.29,2.76-.25,5.78-.46,7.69-2.71.31-.37-.22-.9-.53-.53h0Z" style="fill:#fff; stroke-width:0px;"/><path d="M295.04,235.58c1.09,2.15.37,4.81-1.66,6.12-.4.26-.03.91.38.65,2.38-1.54,3.2-4.62,1.92-7.14-.22-.43-.87-.05-.65.38h0Z" style="fill:#fff; stroke-width:0px;"/><path d="M288.86,241.28c-1.56-.35-2.55-1.7-2.93-3.19-.17-.66-.46-1.72.15-2.23.3-.25.7-.42,1.05-.6.43-.22.86-.44,1.29-.66s.05-.87-.38-.65c-.52.26-1.03.53-1.54.8-.41.21-.85.42-1.14.79-.59.72-.37,1.81-.17,2.63.43,1.77,1.64,3.41,3.49,3.83.47.11.67-.62.2-.72h0Z" style="fill:#fff; stroke-width:0px;"/><path d="M290.81,237.64s.04-.02.06-.04c.07-.04-.08.02,0,0,.02,0,.13-.02.14-.04h-.05s.03,0,.05,0c.02,0,.03,0,.05,0,.02,0,.05,0,.07,0,.04,0,.03,0-.03,0,.02,0,.03,0,.05,0,.01,0,.14.04.14.04,0,0-.08-.04,0,0,.01,0,.03.02.04.02.02.01.04.03.06.04.07.04-.06-.06,0,0,.02.02.04.03.05.05.01.01.02.02.03.04-.03-.04-.04-.05-.01-.02.01.02.03.05.04.07,0,.01.03.07,0,0,.01.03.02.06.03.09v.03s0-.05,0,0v.03s0-.05,0,0c-.05.09.05-.06,0,.01v.02s-.03.03,0-.01c0,.02-.04.04-.06.06-.06.06.06-.04-.01,0-.02.01-.05.03-.07.04s-.05.03-.07.04c.08-.03-.02,0-.03,0-.05.02-.1.03-.16.04-.1.02.08,0-.03,0-.04,0-.09,0-.13,0-.03,0-.06,0-.1,0-.1,0,.07.02-.03,0-.05-.01-.11-.02-.16-.04-.02,0-.12-.02-.02,0-.02,0-.05-.03-.07-.04-.02-.01-.05-.03-.07-.04-.02-.01-.03-.02-.05-.03.04.03.04.03.01,0-.02-.02-.03-.03-.05-.05-.02-.02-.06-.04,0,0-.02-.01-.03-.05-.04-.07-.05-.07.02.07,0,0,0,0-.03-.07-.02-.08v.05s0-.03,0-.05v-.03s0-.03,0,0c0,.03,0,.03,0,0,0-.02,0-.03.01-.05.02-.08-.04.07,0,0,.01-.02.03-.04.04-.07.04-.07-.06.05,0,0,0,0,.04-.05.06-.05,0,0-.06.04-.01.01,0,0,.06-.04.07-.04l-.04.02s.03-.01.05-.02c.02,0,.03,0,.05-.01-.06,0-.06,0-.02,0,.03,0,.05,0,.08,0,.09,0-.08-.02,0,0,.02,0,.03,0,.05.01.02,0,.11.02.01,0,.03,0,.12.05.14.08l-.03-.03s.03.02.04.04c.01.01.03.02.04.04.03.03.02.03,0-.01,0,0,.03.04.03.04.01.02.02.04.03.05-.02-.04-.02-.04,0,0v.03s0-.05,0,0c0-.03,0-.05.02-.07-.02.03-.02.03,0,0,0,.01-.05.06-.06.06.04-.03.05-.04.02-.02-.01,0-.02.01-.03.02-.01,0-.05.04-.07.04.05-.02.05-.02.02,0-.02,0-.03.01-.05.01-.08.03.08,0,0,0-.02,0-.03,0-.05,0,.06.01.07.01.03,0-.08-.02.06.04.01,0-.02-.01-.01,0,.03.03-.03-.03-.02-.02,0,.02v-.02c.01.05.02.11.01.16-.07.1-.08.13-.04.08-.02.02-.05.04-.08.05h.02s-.04,0,0,0c-.04,0-.04,0,0,0,.02,0,.05.01.07.02l-.26-.46c.03-.1.09-.16.18-.19h.06s-.03,0-.05,0c.06,0,.07.01.04,0-.01,0-.02,0-.03,0-.03,0-.03,0,0,0,.03.01.03.01,0,0,.08.05.12.12.12.21l-.05.19-.15.11s-.06,0-.03,0c.02,0,.06,0,.08,0-.03,0-.04,0,0,0,.03,0,.06.02.09.03.19.06.42-.07.46-.26.05-.21-.06-.39-.26-.46-.18-.06-.39-.08-.57-.03-.32.09-.41.47-.22.72.12.15.33.24.52.24.25,0,.43-.12.52-.35.07-.19-.08-.41-.26-.46-.26-.07-.55-.08-.76.12-.23.22-.22.56-.01.79.3.33.81.25,1.13,0,.19-.15.33-.36.31-.61-.01-.23-.13-.45-.3-.61-.28-.27-.72-.4-1.1-.27s-.66.5-.68.91.27.78.61.96c.37.19.83.24,1.23.11s.8-.43.81-.9c.01-.44-.3-.84-.69-1.01s-.81-.17-1.17.05c-.17.1-.25.34-.13.51s.33.24.51.13h0Z" style="fill:#fff; stroke-width:0px;"/><path d="M292.02,220.97c-.41.27-.76.57-1.1.93l.59.45.61-1.44c.18-.43-.41-.81-.65-.38l-1.02,1.86c-.22.39.27.71.59.45.89-.72,1.77-1.43,2.66-2.15l-.59-.45c-.55.72-1.1,1.44-1.65,2.17-.23.3.22.72.51.51.74-.52,1.49-1.05,2.23-1.57l-.51-.51c-.45.63-.94,1.18-1.51,1.69-.31.28.1.84.45.59.77-.55,1.57-.99,2.46-1.33l-.36-.63c-.65.61-1.34,1.16-2.08,1.66-.33.22-.14.83.29.69,1.24-.42,2.45-.91,3.64-1.47.44-.21.06-.83-.38-.65-.94.4-1.83.87-2.71,1.4-.31.19-.19.71.19.7,1.35-.05,2.63-.3,3.9-.75.46-.17.27-.79-.2-.72-.88.13-1.63.4-2.4.83-.34.19-.16.67.19.7,1,.08,1.94.03,2.92-.14l-.2-.72c-.8.15-1.46.43-2.14.88-.3.2-.2.69.19.7.93.02,1.82-.06,2.74-.24l-.2-.72c-.53.13-1.01.32-1.49.56-.34.17-.17.7.19.7.91,0,1.78-.08,2.67-.26l-.2-.72c-.69.24-1.26.56-1.83,1.02-.27.22-.03.62.27.64,1.39.08,2.72-.05,4.07-.42.47-.13.27-.82-.2-.72-.72.15-1.3.4-1.91.82-.31.22-.19.67.19.7.72.06,1.4.02,2.1-.11l-.2-.72c-.65.23-1.12.53-1.56,1.07-.22.26-.07.6.27.64,1.09.12,2.13.07,3.21-.12l-.2-.72c-.77.23-1.45.53-2.14.94-.32.19-.18.7.19.7,1.11,0,2.17-.11,3.25-.36.47-.11.27-.83-.2-.72-.52.12-.9.32-1.31.66-.26.21-.04.64.27.64,1.2,0,2.37-.11,3.55-.31l-.2-.72c-.66.26-1.31.51-1.97.77-.4.16-.33.69.1.74,1.06.12,2.11.17,3.17.15l-.1-.74c-.84.21-1.63.49-2.42.85-.29.13-.22.63.09.69,1.06.2,2.11.28,3.19.26l-.1-.74c-.71.18-1.42.35-2.13.53-.44.11-.3.7.1.74,1.08.1,2.13.1,3.2-.01v-.75c-.67.08-1.3.2-1.95.39-.43.13-.3.69.1.74.61.08,1.19.09,1.8.03l-.1-.74-1.55.46c-.33.1-.38.65,0,.72.59.11,1.17.16,1.77.15l-.1-.74c-.53.2-1.02.43-1.51.72-.25.15-.24.63.09.69.96.15,1.89.22,2.86.18l-.19-.7-.97.44c-.29.13-.22.63.09.69.62.11,1.18.12,1.81.02l-.2-.72c-.59.11-1.19.21-1.78.32-.48.09-.27.79.2.72l.53-.08-.2-.72-1.44.22.2.72,1.3-.4c.43-.13.31-.69-.1-.74-1.11-.13-2.2-.3-3.29-.53l.09.69c.52-.36,1.05-.73,1.57-1.09.32-.22.18-.65-.19-.7-2.14-.26-4.26-.57-6.38-.95l.22.55c.21-.38.49-.69.85-.93.23-.17.26-.62-.09-.69-2.13-.41-4.26-.77-6.4-1.1l.09.69c.52-.37,1.07-.5,1.69-.6.44-.07.3-.71-.1-.74-1.77-.12-3.54-.29-5.31-.5l.19.7c.56-.29.97-.42,1.57-.53.45-.08.28-.69-.1-.74-1.6-.18-3.2-.37-4.8-.55l.19.7c.38-.24.79-.36,1.24-.37.47-.04.49-.75,0-.75-1.92.02-3.83-.07-5.73-.27l.1.74c.62-.19,1.24-.31,1.89-.35.48-.03.49-.75,0-.75-1.33-.01-2.66-.1-3.98-.26l.1.74c.58-.17,1.14-.27,1.74-.3.48-.02.49-.75,0-.75l-6.28.02c-.48,0-.48.75,0,.75l6.28-.02v-.75c-.68.03-1.29.13-1.93.33-.43.13-.3.69.1.74,1.32.16,2.65.25,3.98.26v-.75c-.72.05-1.4.17-2.09.38-.43.13-.31.69.1.74,1.91.2,3.82.29,5.73.27v-.75c-.59.05-1.09.19-1.62.48-.36.19-.15.66.19.7,1.6.18,3.2.37,4.8.55l-.1-.74c-.64.11-1.18.3-1.75.6-.36.19-.15.66.19.7,1.77.21,3.53.38,5.31.5l-.1-.74c-.7.12-1.28.26-1.87.68-.23.16-.26.63.09.69,2.14.32,4.27.69,6.4,1.1l-.09-.69c-.47.34-.81.71-1.12,1.2-.12.19-.01.51.22.55,2.19.38,4.38.71,6.58.97l-.19-.7c-.52.36-1.05.73-1.57,1.09-.24.17-.25.62.09.69,1.16.24,2.32.42,3.49.55l-.1-.74-1.3.4c-.47.14-.27.79.2.72l1.44-.22c.48-.07.27-.79-.2-.72l-.53.08.2.72c.59-.11,1.19-.21,1.78-.32.48-.09.27-.8-.2-.72-.47.09-.94.09-1.41-.02l.09.69.97-.44c.34-.16.17-.71-.19-.7-.9.03-1.77-.01-2.66-.16l.09.69c.44-.26.85-.46,1.33-.65.37-.14.35-.75-.1-.74-.55.01-1.02-.02-1.57-.12v.72l1.55-.46c.39-.11.34-.78-.1-.74-.61.06-1.19.04-1.8-.03l.1.74c.59-.17,1.13-.29,1.75-.36.47-.06.48-.8,0-.75-1.08.11-2.13.12-3.2.01l.1.74c.71-.18,1.42-.35,2.13-.53.41-.1.33-.75-.1-.74-1.01.03-1.99-.04-2.99-.23l.09.69c.73-.33,1.47-.58,2.24-.77.41-.1.32-.74-.1-.74-1.06.02-2.11-.04-3.17-.15l.1.74c.66-.26,1.31-.51,1.97-.77.45-.18.28-.8-.2-.72-1.12.19-2.22.28-3.35.29l.27.64c.28-.26.61-.41.98-.46l-.2-.72c-1.01.23-2.01.34-3.05.34l.19.7c.63-.38,1.26-.66,1.96-.87.47-.14.27-.81-.2-.72-1.01.18-1.99.21-3.01.09l.27.64c.35-.42.7-.69,1.23-.87.46-.16.27-.81-.2-.72-.65.12-1.25.14-1.9.09l.19.7c.54-.38,1.08-.61,1.73-.74l-.2-.72c-1.28.34-2.55.47-3.87.39l.27.64c.49-.4.9-.62,1.5-.83.46-.16.27-.82-.2-.72-.83.17-1.63.24-2.47.24l.19.7c.45-.23.83-.37,1.31-.49s.27-.81-.2-.72c-.85.17-1.68.23-2.54.21l.19.7c.61-.41,1.24-.66,1.96-.8.48-.09.27-.8-.2-.72-.92.16-1.8.19-2.73.11l.19.7c.72-.4,1.42-.63,2.22-.75l-.2-.72c-1.21.43-2.41.67-3.7.72l.19.7c.87-.53,1.77-1,2.71-1.4l-.38-.65c-1.13.53-2.28.99-3.46,1.39l.29.69c.8-.54,1.53-1.12,2.23-1.78.26-.24,0-.76-.36-.63-.95.36-1.81.82-2.64,1.4l.45.59c.62-.56,1.15-1.16,1.63-1.84.21-.3-.21-.73-.51-.51-.74.52-1.49,1.05-2.23,1.57l.51.51c.55-.72,1.1-1.44,1.65-2.17.28-.36-.29-.7-.59-.45-.89.72-1.77,1.43-2.66,2.15l.59.45,1.02-1.86-.65-.38-.61,1.44c-.15.36.27.79.59.45.3-.32.58-.56.95-.81.4-.27.02-.92-.38-.65h0Z" style="fill:#fff; stroke-width:0px;"/><path d="M363.01,273.67c.01-.3.04-.6.08-.9l-.05.4c.12-.85.34-1.67.67-2.46l-.15.36c.13-.3.27-.59.43-.88.37-.69.19-1.67-.54-2.05s-1.65-.2-2.05.54c-.84,1.54-1.3,3.24-1.38,5-.03.78.71,1.54,1.5,1.5.84-.04,1.46-.66,1.5-1.5h0Z" style="fill:#fff; stroke-width:0px;"/><path d="M347.88,280.07c3.16-4.6,5.04-9.9,5.64-15.44.16-1.46-2.19-2.08-2.8-.76-2.95,6.43-5.57,13-7.86,19.7-.62,1.83,2.27,2.62,2.89.8,2.2-6.45,4.71-12.78,7.55-18.98l-2.8-.76c-.54,5.01-2.38,9.78-5.23,13.92-1.1,1.6,1.5,3.1,2.59,1.51h0Z" style="fill:#fff; stroke-width:0px;"/><path d="M365.13,194.68c.35.37.41,1.52.52,2.01.19.89.37,1.78.55,2.68.32,1.66.61,3.33.91,5,.63,3.46,1.31,6.9,2.39,10.25.59,1.83,3.48,1.05,2.89-.8-1.15-3.6-1.86-7.3-2.52-11.02-.32-1.8-.64-3.59-1-5.38-.32-1.58-.46-3.63-1.61-4.86-1.32-1.41-3.44.71-2.12,2.12h0Z" style="fill:#fff; stroke-width:0px;"/><path d="M334.88,270.4c.06.38.3.74.56,1.02.18.21.42.37.64.53.38.27.76.54,1.14.81.76.54,1.51,1.08,2.27,1.61.3.21.81.25,1.16.15s.73-.36.9-.69c.18-.35.28-.77.15-1.16s-.36-.66-.69-.9c-.6-.42-1.19-.85-1.79-1.27s-1.18-.81-1.74-1.24l.3.23c-.09-.08-.18-.15-.26-.25l.23.3s-.06-.09-.09-.15l.15.36c-.02-.06-.04-.11-.05-.17-.06-.35-.4-.73-.69-.9-.32-.19-.8-.27-1.16-.15s-.71.34-.9.69c-.2.38-.22.74-.15,1.16h0Z" style="fill:#fff; stroke-width:0px;"/><path d="M340.25,283.57s.1,0,.14.01l-.4-.05c.14.02.27.06.4.11l-.36-.15c.14.06.27.14.39.23l-.3-.23c.11.09.21.18.29.29l-.23-.3c.07.09.13.19.18.3.09.17.22.32.39.42.14.13.31.22.51.27.2.06.4.07.6.03.2,0,.39-.07.56-.18l.3-.23c.19-.19.31-.41.39-.66l.05-.4c0-.27-.07-.52-.2-.76-.03-.07-.07-.14-.12-.21-.11-.16-.23-.32-.36-.47-.05-.06-.11-.12-.17-.17-.15-.13-.3-.25-.47-.36-.06-.04-.13-.08-.2-.11-.18-.09-.36-.17-.55-.23-.07-.02-.14-.04-.22-.06-.2-.04-.42-.07-.62-.08-.21,0-.4.04-.58.13-.19.06-.35.16-.48.31-.15.14-.25.3-.31.48-.09.18-.14.37-.13.58l.05.4c.07.25.2.47.39.66l.3.23c.23.14.49.2.76.2h0Z" style="fill:#fff; stroke-width:0px;"/><path d="M338.7,288.8c.2.05.4.11.59.19l-.36-.15c.27.12.52.26.75.44l-.3-.23c.23.18.44.38.62.61.14.15.3.25.48.31.18.09.37.14.58.13.21,0,.4-.04.58-.13.19-.06.35-.16.48-.31.26-.29.46-.66.44-1.06l-.05-.4c-.07-.25-.2-.47-.39-.66-.13-.16-.26-.31-.41-.44-.24-.21-.49-.41-.76-.58s-.56-.29-.86-.41c-.19-.08-.39-.14-.59-.19-.39-.09-.8-.05-1.16.15-.17.09-.32.22-.42.39-.13.14-.22.31-.27.51-.09.38-.07.81.15,1.16.21.32.51.6.9.69h0Z" style="fill:#fff; stroke-width:0px;"/><path d="M335.91,294.05c.29.15.57.33.83.53l-.3-.23c.31.24.58.51.83.8.14.15.3.25.48.31.18.09.37.14.58.13.21,0,.4-.04.58-.13.19-.06.35-.16.48-.31.26-.29.46-.66.44-1.06l-.05-.4c-.07-.25-.2-.47-.39-.66-.23-.28-.49-.53-.78-.76-.38-.3-.76-.59-1.19-.81-.17-.11-.36-.17-.56-.18-.2-.04-.4-.04-.6.03-.2.05-.37.14-.51.27-.16.11-.29.25-.39.42-.18.35-.28.77-.15,1.16.12.36.34.72.69.9h0Z" style="fill:#fff; stroke-width:0px;"/><path d="M334.66,297.76c.55.5,1.12.99,1.7,1.46.14.15.3.25.48.31.18.09.37.14.58.13.21,0,.4-.04.58-.13.19-.06.35-.16.48-.31.26-.29.46-.66.44-1.06l-.05-.4c-.07-.25-.2-.47-.39-.66-.58-.47-1.15-.96-1.7-1.46-.14-.15-.3-.25-.48-.31-.18-.09-.37-.14-.58-.13-.21,0-.4.04-.58.13-.19.06-.35.16-.48.31-.26.29-.46.66-.44,1.06s.14.79.44,1.06h0Z" style="fill:#fff; stroke-width:0px;"/><path d="M332.96,299.88c.27.52.63,1,1.02,1.43.16.17.32.33.5.48.27.23.56.45.86.64.17.11.36.17.56.18.2.04.4.04.6-.03.2-.05.37-.14.51-.27.16-.11.29-.25.39-.42.18-.35.28-.77.15-1.16s-.35-.68-.69-.9c-.13-.08-.26-.17-.38-.26l.3.23c-.36-.28-.68-.59-.95-.95l.23.3c-.19-.25-.37-.52-.51-.8-.09-.17-.22-.32-.39-.42-.14-.13-.31-.22-.51-.27-.2-.06-.4-.07-.6-.03-.2,0-.39.07-.56.18-.32.21-.6.51-.69.9l-.05.4c0,.27.07.52.2.76h0Z" style="fill:#fff; stroke-width:0px;"/><path d="M325.03,322.96c-.64-4.53-1.33-9.52.75-13.8l-2.74-1.16c-1.24,5.76-1.94,11.79.64,17.31.34.73,1.4.92,2.05.54.75-.44.88-1.32.54-2.05-2.2-4.7-1.39-10.11-.34-14.99.34-1.57-1.96-2.77-2.74-1.16-2.48,5.1-1.82,10.69-1.06,16.12.11.8,1.14,1.24,1.85,1.05.86-.24,1.16-1.04,1.05-1.85h0Z" style="fill:#fff; stroke-width:0px;"/><path d="M279.87,238.4l-.35.26c-.38.28-.02.93.38.65.45-.32.85-.68,1.2-1.1.31-.36-.19-.88-.53-.53-.49.51-1.02.98-1.59,1.4l.38.65c.88-.68,1.72-1.4,2.51-2.17l-.53-.53c-.42.46-.88.88-1.4,1.22-.23.15-.46.29-.7.42-.14.08-.29.15-.44.21-.07.03-.43.13-.31.15l.26.26c-.03-.09.45-.65.52-.74.2-.26.42-.5.65-.73.34-.34-.19-.87-.53-.53-.52.52-1.12.92-1.79,1.23l.38.65c.87-.55,1.81-.96,2.8-1.24l-.29-.69c-.61.47-1.26.87-1.94,1.22-.37.19-.11.85.29.69,1.42-.57,2.87-1.17,3.9-2.36.26-.3-.09-.86-.45-.59-1.01.74-1.95,1.55-2.84,2.44-.34.34.17.85.53.53,1.01-.89,1.96-1.94,2.22-3.31.05-.24-.1-.47-.36-.47-.51-.01-.82.57-1.09.93-.39.53-.73,1.1-1.03,1.68-.14.27.09.67.42.55.53-.18.92-.53,1.31-.92.49-.49.95-1,1.4-1.53l-.59-.45c-.65,1.04-1.44,2.08-1.93,3.21-.11.25.01.57.32.56.64,0,1.21-.76,1.62-1.18.54-.56,1.02-1.16,1.47-1.8l-.65-.38c-.53.81-1.06,1.62-1.59,2.42-.24.37.28.72.59.45.99-.87,1.82-1.91,2.47-3.06.24-.42-.39-.79-.65-.38-.34.55-.64,1.13-.9,1.73-.14.32.16.72.51.51.8-.47,1.44-1.14,1.88-1.96.23-.43-.38-.78-.65-.38-.3.44-.52.92-.66,1.43-.09.34.27.56.55.42.64-.3,1.14-.79,1.45-1.42.18-.36-.28-.79-.59-.45-.2.22-.38.45-.53.71l.65.38c.18-.35.47-.83.42-1.24-.04-.33-.37-.53-.69-.4-.4.17-.76.66-1.06.97-.41.41-.81.84-1.2,1.27-.29.32.07.78.45.59.45-.22.79-.55,1.05-.97.23-.38-.28-.73-.59-.45-.57.49-1.13.99-1.68,1.48-.47.42-.94.84-1.28,1.38-.17.28.11.64.42.55.6-.16,1.06-.5,1.44-.99.25-.33-.22-.65-.51-.51-.68.31-1.36.63-2.03.94l.51.13-.03-.09c-.03-.21-.28-.3-.46-.26-.32.07-.64.15-.95.26-.45.16-.26.88.2.72.72-.24,1.45-.46,2.18-.66l-.29-.69c-.34.23-.64.49-.9.81-.19.22-.09.67.27.64.7-.07,1.35-.24,2-.53l-.38-.65c-.42.22-.8.51-1.13.86-.26.28,0,.71.36.63.46-.1.9-.26,1.32-.46.38-.18.11-.85-.29-.69-.35.15-.69.31-1.01.51-.37.23-.13.77.29.69.52-.11,1.04-.25,1.54-.42l-.29-.69-.74.55c-.29.22-.2.68.19.7.35.02.67-.03,1-.15l-.2-.72c-.29.12-.54.26-.79.45s-.05.68.27.64c.54-.07,1.07-.18,1.59-.35.45-.15.27-.86-.2-.72-.41.12-.76.32-1.07.61-.23.22-.06.65.27.64.59-.02,1.17-.08,1.75-.18l-.2-.72c-.46.19-.89.41-1.29.69-.28.19-.21.73.19.7.62-.05,1.22-.13,1.83-.26l-.2-.72c-.4.15-.77.32-1.14.54-.26.16-.24.62.09.69.53.1,1.05.14,1.59.11l-.36-.47-.06.21c-.05.19.06.41.26.46.44.11.87.15,1.32.11l-.27-.64-.24.2c-.29.24.02.74.36.63.24-.08.42-.19.61-.35.23-.2.08-.54-.17-.63-.7-.24-1.37-.53-2.03-.88v.65c.16-.12,1.06.32,1.25.4.39.15.56-.37.36-.63-.84-1.08-1.54-2.25-2.13-3.48-.15-.33-.74-.18-.7.19.1.89.1,1.77,0,2.65h.75c.02-1.29-.16-2.57-.54-3.81-.1-.32-.67-.39-.72,0-.16,1.08-.3,2.36.28,3.34.2.34.6.62,1,.43.44-.21.55-.83.53-1.26-.02-.4-.66-.54-.74-.1-.1.57-.07,1.12.13,1.67.1.27.41.36.63.17l.19-.17-.59-.08.17.29c.12.21.42.25.59.08.73-.72-.46-1.85-1.09-2.15-.78-.36-1.76.22-1.38,1.12.14.34.74.17.7-.19-.06-.51-.21-.97-.49-1.41-.14-.22-.52-.27-.65,0-.24.51-.36,1.03-.33,1.59.02.36.51.53.7.19.41-.72.48-1.55.17-2.32-.14-.33-.6-.38-.72,0-.19.6-.43,1.18-.7,1.75-.21.43.38.79.65.38.38-.58.76-1.15,1.15-1.72l-.7-.19c0,.42-.11.77-.34,1.13l.69.09c-.06-.27-.16-.52-.3-.76-.06-.1-.12-.19-.19-.27-.03-.03-.26-.34-.19-.19l-.04.29c.18-.42.65-.77.95-1.11s.52-.69.7-1.1c.08-.2-.09-.4-.26-.46-.31-.11-.59-.03-.89.05-.43.12-.87.24-1.3.36l.29.69c.59-.3,1.2-.5,1.85-.62l-.36-.63c-.2.21-.42.38-.67.53-.36.2-.11.85.29.69.86-.36,1.72-.74,2.57-1.13l-.38-.65-1.03.64c-.35.22-.13.81.29.69.51-.16,1.01-.34,1.37-.75.23-.27.02-.74-.36-.63-.91.26-1.82.53-2.72.79-.72.21-1.47.39-2.13.76-.41.23-1.26.8-1.09,1.38.21.66,1.15.28,1.56.1l-.38-.65c-1.27.81-2.83,1.07-3.9,2.18-.2.21-.1.54.17.63l.27.09c.46.15.66-.58.2-.72l-.27-.09.17.63c1.02-1.05,2.55-1.3,3.75-2.06.42-.26.06-.84-.38-.65-.04.02-.52.22-.56.19l.11.27c0-.29.69-.63.92-.74.41-.2.86-.33,1.3-.45,1.06-.31,2.12-.61,3.18-.92l-.36-.63c-.28.32-.64.44-1.03.56l.29.69,1.03-.64c.42-.26.05-.85-.38-.65-.79.37-1.59.72-2.39,1.05l.29.69c.31-.18.58-.39.82-.65.27-.29,0-.69-.36-.63-.71.13-1.39.36-2.03.69-.38.19-.12.8.29.69.31-.08.62-.17.93-.25.25-.07.6-.25.86-.16l-.26-.46c-.31.75-1.02,1.19-1.46,1.85-.14.21-.21.4-.08.63.09.16.26.27.36.42.14.2.21.41.27.65.08.32.52.35.69.09.29-.46.43-.96.44-1.51,0-.39-.5-.48-.7-.19-.39.57-.77,1.14-1.15,1.72l.65.38c.31-.62.57-1.27.78-1.93h-.72c.24.59.22,1.18-.1,1.74l.7.19c-.02-.43.04-.82.23-1.21h-.65c.21.32.34.65.39,1.03l.7-.19c-.06-.13.32-.09.4-.06.14.04.3.17.41.26.09.08.59.58.49.68l.59.08-.17-.29c-.13-.22-.41-.24-.59-.08l-.19.17.63.17c-.15-.42-.2-.83-.13-1.27l-.74-.1c0,.15,0,.3-.05.44s-.03.13-.12-.04c-.14-.29-.22-.62-.25-.94-.06-.59,0-1.19.08-1.77h-.72c.37,1.18.54,2.38.52,3.61,0,.5.69.47.75,0,.11-.89.11-1.77,0-2.65l-.7.19c.61,1.3,1.37,2.5,2.25,3.64l.36-.63c-.48-.18-1.35-.68-1.83-.32-.21.16-.27.5,0,.65.71.38,1.45.7,2.21.96l-.17-.63c-.08.08-.17.13-.28.16l.36.63.24-.2c.24-.2.05-.66-.27-.64-.39.03-.75,0-1.12-.09l.26.46.06-.21c.06-.22-.11-.49-.36-.47-.47.03-.93,0-1.39-.08l.09.69c.31-.19.62-.34.96-.47.45-.17.28-.83-.2-.72-.54.12-1.08.2-1.63.24l.19.7c.35-.24.72-.45,1.12-.62.44-.19.28-.8-.2-.72-.52.08-1.03.13-1.55.15l.27.64c.22-.21.45-.34.74-.42l-.2-.72c-.46.15-.92.27-1.39.33l.27.64c.14-.11.29-.2.46-.26.44-.18.26-.89-.2-.72-.27.1-.52.14-.8.12l.19.7.74-.55c.31-.23.15-.84-.29-.69-.5.18-1.02.32-1.54.42l.29.69c.27-.17.54-.32.83-.44l-.29-.69c-.37.17-.74.3-1.14.38l.36.63c.29-.31.6-.54.98-.74.43-.23.05-.84-.38-.65-.51.23-1.06.38-1.62.43l.27.64c.22-.26.47-.49.75-.69.34-.23.14-.8-.29-.69-.73.2-1.46.42-2.18.66l.2.72c.31-.11.63-.19.95-.26l-.46-.26c.02.11.04.17.11.27.12.18.32.22.51.13.68-.31,1.36-.63,2.03-.94l-.51-.51c-.26.33-.59.53-.99.64l.42.55c.33-.54.84-.94,1.3-1.35.51-.46,1.03-.91,1.55-1.36l-.59-.45c-.2.33-.44.54-.78.71l.45.59c.33-.36.66-.72,1.01-1.07.17-.17.35-.35.52-.52.12-.12.37-.45.53-.49l-.36-.1-.02-.07c-.03.1-.07.2-.11.3-.06.15-.14.3-.21.45-.22.43.4.8.65.38.12-.2.25-.38.41-.56l-.59-.45c-.26.53-.64.9-1.18,1.15l.55.42c.13-.45.32-.86.58-1.25l-.65-.38c-.38.71-.91,1.27-1.61,1.69l.51.51c.26-.6.56-1.17.9-1.73l-.65-.38c-.62,1.1-1.41,2.07-2.36,2.91l.59.45c.53-.81,1.06-1.62,1.59-2.42.27-.41-.37-.77-.65-.38-.36.51-.75,1-1.17,1.46-.19.21-.4.41-.6.61-.13.12-.49.54-.66.54l.32.56c.48-1.13,1.27-2.17,1.93-3.21.22-.35-.31-.78-.59-.45-.36.43-.74.85-1.13,1.26-.36.37-.74.82-1.25,1l.42.55c.21-.41.43-.81.69-1.19.13-.19.26-.38.4-.56.03-.04.33-.49.39-.49l-.36-.47c-.23,1.25-1.11,2.17-2.03,2.98l.53.53c.84-.84,1.73-1.61,2.68-2.32l-.45-.59c-.94,1.08-2.27,1.64-3.57,2.16l.29.69c.68-.35,1.33-.76,1.94-1.22.32-.24.15-.81-.29-.69-1.06.29-2.05.73-2.98,1.31-.42.26-.05.84.38.65.73-.33,1.38-.78,1.95-1.34l-.53-.53c-.48.49-1.01,1.06-1.32,1.68-.2.41.02.88.52.78.6-.13,1.23-.53,1.73-.86.57-.38,1.09-.83,1.55-1.34.32-.36-.18-.87-.53-.53-.75.73-1.54,1.41-2.36,2.05-.37.29-.01.94.38.65.62-.46,1.2-.97,1.74-1.52l-.53-.53c-.31.37-.66.7-1.05.98l.38.65.35-.26c.38-.28.01-.93-.38-.65h0Z" style="fill:#fff; stroke-width:0px;"/><path d="M305.15,319.01l-.06-.04c.18.19.58.12.63-.17,0-.11.04-.22.09-.33l-.69-.29c-.05.18-.11.33-.19.5-.12.23,0,.46.22.55.32.12.58-.04.85-.23.38-.27.76-.55,1.13-.82l-.55-.42c-.05.26-.1.52-.15.78-.07.34.36.67.63.36.22-.25.36-.5.43-.83h-.72l.16.37c.13.31.48.36.69.09l.93-1.21-.7-.19c0,.19,0,.38-.02.57-.03.41.5.45.7.19.44-.59.78-1.22,1.05-1.9l-.72-.2c-.05.28-.05.53,0,.81s.44.35.63.17c.53-.52.96-1.11,1.29-1.77l-.69-.09.09.45c.06.3.43.33.63.17.43-.35.78-.76,1.07-1.23l-.7-.19c0,.18,0,.35,0,.53-.03.41.5.46.7.19.44-.6.77-1.24,1.03-1.94l-.74-.1-.09.84c-.03.32.43.49.64.27.43-.47.58-1.13,1.03-1.57l-.63-.17c.07.36.17,1.47.83,1.09.25-.14.36-.49.48-.73.19-.37.37-.75.54-1.13l-.7-.19c0,.28,0,.56,0,.85,0,.48.75.48.75,0,0-.28,0-.56,0-.85,0-.35-.54-.54-.7-.19-.14.3-.28.61-.43.9-.07.15-.15.3-.23.45-.04.08-.23.3-.12.25h.38l-.07-.04.17.22c-.1-.26-.13-.56-.18-.84s-.44-.35-.63-.17c-.46.45-.6,1.1-1.03,1.57l.64.27.09-.84c.05-.45-.6-.47-.74-.1-.23.63-.56,1.22-.96,1.76l.7.19c.02-.18.02-.35,0-.53-.02-.37-.5-.51-.7-.19-.26.42-.57.77-.95,1.08l.63.17-.09-.45c-.06-.31-.54-.37-.69-.09-.31.61-.69,1.14-1.17,1.62l.63.17c-.03-.14-.03-.27,0-.41.09-.48-.55-.65-.72-.2-.24.62-.57,1.19-.97,1.72l.7.19c.02-.19.02-.38.02-.57,0-.4-.49-.47-.7-.19l-.93,1.21.69.09-.16-.37c-.13-.3-.64-.41-.72,0-.04.2-.1.35-.23.5l.63.36c.05-.26.1-.52.15-.78.06-.29-.26-.63-.55-.42-.26.19-.52.38-.78.56-.11.08-.5.45-.62.41l.22.55c.11-.22.2-.44.27-.67.11-.4-.5-.69-.69-.29-.08.17-.13.32-.17.51l.63-.17c-.08-.08-.16-.13-.27-.16-.47-.13-.67.6-.2.72h0Z" style="fill:#fff; stroke-width:0px;"/><path d="M315.33,310.85c.27-.38.27-.83.07-1.24-.16-.32-.58-.18-.69.09-.21.5-.4,1.01-.59,1.52l.74.1v-.93c-.14.12-.26.25-.39.38-.08,0-.12-.06.01.06.04.03.09.08.13.1.14.08.3.09.45.03.35-.16.46-.76.59-1.08h-.72c.07.21.11.5.33.62.2.11.41.03.56-.12.38-.4.48-1.13.44-1.66-.04-.48-.73-.49-.75,0-.02.38.12.71.38.98s.73,0,.63-.36c-.08-.27-.21-.45-.47-.58l-.19.7c.47.03,1.05.17,1.36-.32.25-.39.03-.83-.36-.99l-.2.72.09.02-.22-.17.05.07c.26.36.74.13.69-.29-.04-.25-.07-.51-.11-.76l-.72.2c.06.2.14.38.24.57.15.27.62.23.69-.09.03-.16.06-.32.1-.48l.03-.16c.08-.17-.02-.22-.28-.14.16.31.58.19.69-.09s.12-.55.06-.85c-.09-.48-.8-.27-.72.2.06.38.44.89.86.59.36-.25.23-.93.11-1.28-.15-.46-.86-.27-.72.2.09.32.42.49.73.36.45-.19.27-.59.34-.95h-.72c.09.27.24.47.5.6.19.1.52.03.55-.22.04-.31.11-.62.2-.92h-.72c.14.34.43.68.84.49s.37-.9.41-1.28l-.64.27c.06.07.12.15.17.22.14.18.49.13.59-.08.16-.33.29-.66.41-1h-.72c.07.28.32.46.61.42.4-.05.44-.41.7-.64l-.63-.17c.05.34.27.66.65.63.42-.03.6-.57.78-.87h-.65c.12.29.28.68.66.65.15-.01.29-.1.39-.21.05-.05.09-.12.12-.18.03-.05.05-.11.08-.16.07-.09.02-.13-.16-.12.23.42.88.05.65-.38-.13-.24-.4-.36-.67-.29-.13.04-.24.12-.33.22-.06.06-.17.37-.23.39l.29.04c.06.08.05.06-.03-.08-.04-.08-.08-.17-.12-.26-.11-.27-.52-.22-.65,0-.07.13-.2.29-.25.43l-.08.14c.23.05.32,0,.27-.15-.04-.31-.44-.32-.63-.17-.07.06-.13.12-.18.2-.17.24.03.03.11.35-.1-.38-.61-.33-.72,0-.1.28-.21.55-.34.82l.59-.08c-.06-.07-.12-.15-.17-.22-.23-.29-.61-.01-.64.27s-.05.56-.14.82l.17-.22h.2c-.13-.33-.61-.38-.72,0-.09.3-.16.61-.2.92l.55-.22c-.08-.02-.13-.07-.15-.15-.11-.32-.65-.39-.72,0-.02.09-.03.18-.03.28,0,.04,0,.08.01.12,0,.12.08.14.25.05l.17.22-.02-.08-.72.2c.04.11.07.22.08.34,0,.05-.03.26.04.18l.27-.11c.12.04.15,0,.09-.12l-.72.2c.03.17,0,.29-.06.45l.69-.09c-.15-.28-.51-.38-.78-.21-.35.23-.36.79-.44,1.16l.69-.09c-.07-.13-.12-.25-.16-.39-.14-.48-.79-.26-.72.2.04.25.07.51.11.76l.69-.29c-.11-.15-.19-.22-.36-.27-.48-.12-.63.54-.2.72-.05-.09-.11-.13-.2-.11-.08,0-.16,0-.23-.01-.12-.02-.25-.03-.37-.04-.37-.02-.52.53-.19.7l.12.13.63-.36c-.13-.14-.17-.26-.16-.45h-.75c.02.21.01.41-.03.62-.02.09-.05.18-.08.27-.02.04-.15.23-.04.2l.36.1c-.01-.08-.03-.16-.06-.23-.12-.38-.59-.33-.72,0-.05.12-.17.31-.18.44-.13.19-.04.25.27.19-.03-.03-.05-.05-.08-.08-.11-.13-.3-.22-.47-.2-.2.02-.38.16-.38.38v.93c.02.44.61.49.75.1.19-.51.39-1.02.59-1.52l-.69.09c.09.18.04.33-.07.48-.28.4.37.77.65.38h0Z" style="fill:#fff; stroke-width:0px;"/><path d="M322.02,302.83c.03.14.09.22.18.33.17.2.46.1.59-.08.17-.25.25-.52.28-.82h-.75c.02.37.19.74.52.93.31.17.7.06.81-.29.05-.17-.04-.33-.17-.42-.1-.07-.2-.14-.29-.21l-.29.69c.31.04.61.08.92.15.5.1.36-.62.5-.89l-.59.08c.4.38.81.74,1.35.89.41.11.65-.46.29-.69-.51-.31-1.06-.56-1.63-.75l-.1.74c.4.03.75.2.82.62l.63-.36c-.24-.27-.43-.56-.6-.88-.2-.39-.79-.11-.69.29.13.54.38,1.01.73,1.43.16.19.48.11.59-.08.2-.34.42-.84.34-1.24-.04-.21-.18-.35-.39-.37s-.37.12-.53.23l.38.65c.29-.2.55-.43.79-.69.21-.23.07-.64-.27-.64h-.56c-.07,0-.19-.02-.25,0-.1-.02-.14.04-.11.18-.06.07-.07.14-.04.21l.55-.42c-.22-.15-.42-.3-.61-.47l-.17.63c.63-.17,1.29.08,1.87-.3.3-.2.2-.69-.19-.7-.36,0-.72-.04-1.07-.12l.09.69,1.18-.61c.27-.14.23-.63-.09-.69-.36-.06-.71-.09-1.08-.05l.1.74,1.13-.28c.43-.11.31-.71-.1-.74l-1.49-.09.1.74c.34-.08.84-.1,1.13-.31.12-.09.2-.22.2-.37,0-.08-.03-.16-.07-.23-.12-.2-.11.2.07.12.33-.15.17-.58-.09-.69-.1-.04-.2-.08-.3-.12l.09.69c.11-.05.21-.07.33-.09.39-.06.32-.62,0-.72l-.34-.11.09.69c.27-.14.53-.3.78-.48.27-.2.22-.57-.09-.69l-.2-.08.09.69.5-.25c.25-.12.24-.53,0-.65-.06-.03-.36-.23-.42-.21-.04.32,0,.41.09.27.04-.04.07-.09.09-.14.1-.2.04-.38-.13-.51l-.04-.03.17.22-.17.25c.47-.12.27-.84-.2-.72s-.48.67-.14.93l-.13-.51c-.1.22-.28.35-.17.62s.44.36.68.48v-.65l-.5.25c-.32.16-.19.58.09.69l.2.08-.09-.69c-.25.18-.5.34-.78.48-.31.15-.19.59.09.69l.34.11v-.72c-.18.03-.34.09-.51.16-.33.15-.17.58.09.69.1.04.2.08.3.12l-.09-.69c-.43.19-.52.57-.32.95l-.04-.29v.05c.04-.07.1-.15.16-.22-.1.07-.31.08-.43.11l-.53.12c-.43.1-.31.71.1.74l1.49.09-.1-.74-1.13.28c-.4.1-.33.78.1.74.29-.03.58-.03.88.02l-.09-.69-1.18.61c-.28.14-.22.62.09.69.42.09.84.14,1.27.15l-.19-.7c-.25.16-.52.15-.81.15s-.59,0-.88.08c-.26.07-.38.44-.17.63.24.21.5.41.76.59s.66-.12.55-.42c-.11-.28-.29-.52-.61-.55-.28-.03-.55.15-.63.43-.25.86,1.04.69,1.49.68l-.27-.64c-.19.21-.4.4-.64.57-.39.28-.02.92.38.65.05-.03.1-.07.15-.1.1-.06.1-.07,0-.02l-.32-.19c-.06-.09,0-.12-.03,0-.02.08-.03.16-.05.25-.04.15-.11.28-.19.41l.59-.08c-.26-.33-.44-.7-.54-1.1l-.69.29c.19.38.43.72.72,1.03s.68-.03.63-.36c-.12-.76-.85-1.12-1.54-1.18-.44-.04-.49.61-.1.74.51.17.99.39,1.45.67l.29-.69c-.42-.11-.72-.4-1.02-.7-.16-.16-.48-.15-.59.08-.16.33-.27.82-.14,1.19.11.33.5.51.82.33s.3-.64,0-.84c-.32-.23-.87-.22-1.25-.27-.42-.06-.65.42-.29.69.1.07.2.14.29.21l-.17-.42-.02.05.17-.22c.11-.08,0-.13-.02-.27-.02-.49-.71-.48-.75,0-.02.17-.08.3-.18.44l.59-.08h.02c-.11-.47-.83-.27-.72.2h0Z" style="fill:#fff; stroke-width:0px;"/><path d="M327.13,296.8c-.19-.24-.32-.5-.42-.79l-.55.42c.38.16.75.26,1.16.3.31.03.51-.44.27-.64s-.51-.4-.78-.59l-.09.69c.37-.13.69-.32.95-.61.19-.2.12-.55-.17-.63-.23-.06-.45-.09-.68-.08l.1.74c.48-.11,1.09-.38,1.34-.84.06-.11.08-.27,0-.38-.07-.1-.13-.17-.24-.24-.03-.02-.29-.1-.29-.09l-.04.29c.09-.17.33-.31.47-.43.18-.16.36-.31.55-.47.2-.17.1-.46-.08-.59-.06-.04-.11-.07-.18-.09-.13-.03-.09-.06-.04.05l.04.29c.06-.17.18-.33.26-.48.11-.2.02-.5-.22-.55-.22-.04-.45-.08-.67-.13v.72l.79-.28c.28-.1.35-.4.17-.63-.06-.08-.38-.34-.24-.08.09.18.05.11.17.03.07-.04.11-.13.14-.19.08-.14.07-.34-.06-.45-.04-.04-.08-.07-.13-.1-.17-.1-.18,0-.03.28.08.02.29-.12.35-.16.2-.15.29-.39.2-.63-.02-.05-.04-.09-.08-.14-.07-.09-.08-.1-.02-.02.05-.12.18-.2.23-.34.11-.33-.13-.51-.36-.69v.53c.21-.17.4-.36.57-.57.11-.14.17-.39,0-.53-.13-.11-.24-.17-.4-.23-.45-.18-.64.54-.2.72l.07.04v-.53c-.17.21-.36.4-.57.57-.15.12-.15.41,0,.53.1.08.2.15.28.25l-.1-.36c-.03.12-.18.22-.23.34-.06.13-.08.26-.06.39,0,.03.06.27.12.27.13-.18.13-.24-.01-.16-.06.02-.12.05-.18.07-.19.11-.34.33-.33.56,0,.12.06.25.15.34.02.02.3.2.19.1l-.06-.45c-.06.11-.21.17-.29.27-.08.11-.12.23-.11.37.03.32.28.31.44.51l.17-.63-.79.28c-.32.11-.39.65,0,.72.22.04.45.08.67.13l-.22-.55c-.15.26-.43.59-.32.9.1.28.32.21.51.35l-.08-.59c-.24.21-.49.42-.73.63-.16.14-.36.27-.43.47-.06.18-.02.36.09.51.07.09.15.14.25.19.03.02.25.07.23.04v-.38c-.15.29-.59.43-.89.5-.41.09-.32.75.1.74.17,0,.32,0,.48.05l-.17-.63c-.18.19-.37.33-.62.42-.32.11-.35.5-.09.69.21.15.42.31.62.47l.27-.64c-.27-.03-.53-.09-.78-.2-.27-.11-.67.08-.55.42.15.41.35.77.62,1.12.3.38.82-.15.53-.53h0Z" style="fill:#fff; stroke-width:0px;"/><path d="M329.45,287.93l-.16-.07.17.63c.19-.19.38-.37.59-.53.28-.22.02-.61-.27-.64l-.82-.07.19.7c.37-.25,1.1-.66,1.03-1.19-.01-.1-.1-.19-.11-.27-.08-.06-.06-.09.06-.07l.1-.05c.24-.09.45-.26.56-.5.07-.16.06-.32-.06-.45-.05-.05-.1-.11-.17-.14-.02-.02-.05-.03-.08-.04-.1-.07-.12.01-.04.24.05.03.28-.2.32-.23.19-.22.18-.54-.02-.75-.04-.05-.12-.1-.17-.13,0,0-.21-.11-.12,0-.02.08,0,.08.06,0l.06-.07c.05-.06.1-.12.13-.19.18-.34-.16-.72.08-.97.27-.3.44-.37.45-.8,0-.16-.08-.07.01-.21.05-.08.17-.12.24-.18.12-.1.24-.21.3-.35.09-.23,0-.32-.01-.54-.01-.19.19-.36.27-.54.15-.37.09-.76-.12-1.09-.27-.4-.92-.02-.65.38s-.1.59-.23.94c-.1.28-.05.51.1.77l-.04-.29c-.03.17-.24.24-.35.34-.12.11-.23.24-.29.4-.05.14-.04.26-.02.41.01.08.02.12.03.11.03-.05-.15.08-.16.09-.24.2-.45.47-.42.81.01.12.15.29.15.4,0,.05-.15.19-.19.26-.14.21-.18.45-.05.68.06.11.15.18.26.24.02.01.17.12.19.11l-.08-.25-.08.04c-.21.05-.36.36-.35.55.02.36.29.37.49.58l-.06-.45c-.08.18-.29.21-.44.31s-.28.21-.36.37c-.16.34-.02.59.2.84l-.11-.27c.02.14-.56.47-.66.54-.32.21-.18.67.19.7l.82.07-.27-.64c-.21.17-.4.34-.59.53-.22.22-.09.52.17.63l.16.07c.45.18.64-.54.2-.72h0Z" style="fill:#fff; stroke-width:0px;"/><path d="M331.64,279.19c.14.15.22.15.26-.02.03-.06.06-.12.09-.18.06-.12.12-.22.15-.35s.01-.28-.1-.36c-.15-.12-.32-.19-.5-.27l.08.59c.4-.37,1.58-1.27.85-1.87-.13-.11-.04-.06-.09,0,.06-.08.16-.15.24-.21.16-.14.37-.28.48-.46.22-.37-.07-.64-.35-.84,0,0-.14-.07-.14-.07,0-.02.23-.21.27-.24.11-.11.24-.24.3-.4s.03-.33-.05-.48c-.05-.09-.31-.26-.32-.33,0-.08.25-.33.3-.4.09-.16.13-.33.13-.51s-.08-.36-.07-.55c.02-.26.12-.46.28-.67.29-.38-.36-.76-.65-.38-.34.44-.41.92-.35,1.45.06.49-.55.8-.33,1.34.06.14.31.53.37.23-.05.24-.5.4-.62.63-.09.19-.08.41.01.59.13.26.48.31.59.54l-.04-.29c-.06.16-.5.41-.66.59-.15.17-.23.4-.15.62.03.08.08.16.14.23.13.14.21.05.06.23-.21.26-.49.49-.74.72-.16.15-.14.49.08.59.09.04.27.09.34.15l-.1-.36c-.08.4-.52.73-.28,1.17.18.33.57.38.88.23.43-.21.05-.86-.38-.65h0Z" style="fill:#fff; stroke-width:0px;"/><path d="M333.77,270.66c-.19.01-.33,0-.51-.02-.16-.01-.13,0-.11-.07.04-.19.29-.39.41-.54.21-.27.47-.64.21-.96-.05-.06-.1-.1-.17-.14-.2-.1-.06.01-.06.02.17-.15.36-.3.48-.5.1-.16.15-.34.11-.53-.01-.08-.04-.16-.08-.23-.02-.04-.19-.22-.19-.25,0-.09.29-.27.35-.34.11-.11.22-.26.25-.42.1-.47-.36-.56-.49-.93-.08-.24.1-.48.16-.71.05-.2.05-.4,0-.6-.05-.23-.15-.44-.19-.67-.05-.31.02-.61.14-.89.18-.45-.54-.64-.72-.2-.14.35-.2.72-.16,1.1.05.43.3.82.15,1.24-.12.33-.21.63-.09.98.06.16.15.29.26.42.05.06.13.11.17.18.05.05.06.06.02,0-.03-.06-.07-.05-.11.04-.24.13-.46.46-.49.73-.02.15.02.31.09.44.11.19.15.23,0,.42-.22.27-.47.43-.42.83.02.13.06.25.15.35.05.06.13.1.19.14.04.02.13.08.11.06l-.11-.27c0,.2-.39.52-.51.7-.15.22-.29.46-.25.73.09.62.94.68,1.42.64s.48-.78,0-.75h0Z" style="fill:#fff; stroke-width:0px;"/><path d="M334.35,263.39c-.15,0-.14.13-.03.1.06-.02.21-.3.23-.34.11-.18.24-.39.3-.6.05-.17.06-.32-.03-.48-.02-.04-.15-.16-.15-.18.05.18.1.03.17-.03.28-.27.65-.8.67-1.21,0-.16-.03-.32-.11-.46-.02-.04-.16-.16-.16-.19,0-.03.18-.2.21-.23.26-.37.12-.6,0-.98-.15-.44.37-.95.53-1.37.44-1.1-.4-2.02-.22-3.14.08-.47-.65-.68-.72-.2s-.08.9.02,1.35.41.93.32,1.42c-.14.77-1.06,1.37-.64,2.21.1.21.14.2,0,.4-.09.12-.18.24-.22.39-.1.37.28.61.19.9-.19.65-1.23,1.14-.4,1.78l-.17-.22c.07.17-.32.6-.41.74-.12.18-.21.36-.17.58.07.39.46.51.82.5.48,0,.48-.76,0-.75h0Z" style="fill:#fff; stroke-width:0px;"/><path d="M335.5,253.32c-.18.1-.33.21-.49.34-.33.26.04.68.36.63.26-.04.47-.13.68-.28.17-.12.24-.32.13-.51-.06-.11.32-.62.37-.72.11-.23.22-.48.27-.73.1-.49-.22-.89-.16-1.36.05-.44.33-.83.46-1.25.06-.2.1-.42.09-.63-.01-.27-.18-.53-.16-.79.03-.39.4-.74.53-1.12.15-.46-.06-.88.1-1.32.14-.38.14-.71-.2-.98-.02-.01-.18-.09-.18-.1,0,.25.25-.1.27-.12.12-.16.23-.28.2-.5-.02-.19-.1-.29-.28-.36-.12-.05-.25-.06-.38-.08l.09.69.15-.09c.42-.24.04-.89-.38-.65l-.15.09c-.26.15-.24.64.09.69.13.02.25.03.38.08l-.28-.36c.01.09-.31.36-.36.46-.07.15-.1.31-.04.47.06.18.22.21.31.34.1.15.06.09-.02.3-.03.07-.06.15-.08.22-.05.23.04.43.07.65.04.27-.06.46-.19.69-.21.37-.42.73-.38,1.18.03.29.18.54.14.83-.04.25-.15.48-.25.71-.17.39-.33.79-.29,1.22.03.27.17.5.18.76.02.32-.16.65-.31.92-.23.41-.49.77-.24,1.24l.13-.51c-.16.12-.3.17-.5.2l.36.63c.1-.09.22-.16.34-.22.42-.23.05-.88-.38-.65h0Z" style="fill:#fff; stroke-width:0px;"/><path d="M282.18,391.78c9.29-6.38,17.51-15.02,22.3-25.31,1.23-2.63,2.2-5.37,3.28-8.07s2.44-5.41,3.97-7.96c3.22-5.36,6.82-10.51,10.26-15.73.96-1.46,1.93-2.92,2.89-4.38.84-1.28,1.74-2.6,2.1-4.11.58-2.45-.58-5.58-3.35-5.99-1.89-.28-2.7,2.61-.8,2.89,2.66.39.61,3.92-.16,5.1-1.58,2.43-3.19,4.85-4.79,7.27-3.11,4.71-6.37,9.36-9.22,14.24s-4.34,9.87-6.59,14.83c-2.12,4.67-4.98,8.98-8.31,12.87-3.83,4.48-8.24,8.44-13.1,11.77-1.58,1.09-.08,3.69,1.51,2.59h0Z" style="fill:#fff; stroke-width:0px;"/><path d="M198.93,220.43c-.69-4.83.77-9.46,1.88-14.11s1.96-8.97,3.93-13.11c1.79-3.77,4.02-7.43,6.46-10.82,2.23-3.09,5-6.03,8.61-7.48,1.77-.71,1-3.62-.8-2.89-6.34,2.56-10.25,8.24-13.67,13.89-2,3.3-3.84,6.7-5.04,10.38s-2.02,7.72-2.94,11.59c-.51,2.14-1.08,4.27-1.39,6.45-.34,2.33-.26,4.6.07,6.92.27,1.9,3.16,1.09,2.89-.8h0Z" style="fill:#fff; stroke-width:0px;"/><path d="M235.86,173.97c-3.32,3.4-6.14,7.26-8.32,11.48s-3.86,8.88-5.45,13.44c-3.29,9.48-6.62,19.1-6.92,29.22-.06,1.93,2.94,1.93,3,0,.28-9.69,3.51-18.93,6.66-27.99,1.5-4.32,3.01-8.66,5.09-12.75s4.8-7.94,8.06-11.27c1.35-1.38-.77-3.51-2.12-2.12h0Z" style="fill:#fff; stroke-width:0px;"/><path d="M225.28,316.58c0,3.44-.88,6.73-2.58,9.72-.43.75-.13,1.57.54,2.05,6.48,4.66,11.03,11.41,17.04,16.59s14,8.57,22.01,10.35c8.49,1.89,17.04,2.15,25.21-1.19,7.52-3.07,14.32-8.15,20.06-13.84,6.65-6.59,11.88-15.24,11.48-24.91-.03-.64-.45-1.29-1.1-1.45-2.74-.64-4.87.97-6.89,2.6-2.21,1.77-4.7,3.15-7.46,3.84-5.01,1.25-10.77-.26-13.67-4.76-.65-1.01-1.93-.92-2.59,0-3.9,5.4-10.94,7.36-17.3,7.52-4.08.1-8.14-.39-12.18-.87s-8.34-.6-12.44-1.26c-1.04-.17-2.36-.3-3.29-.8-.86-.46-.67-1.48-.63-2.33.12-2.33.51-4.63,1.1-6.89.35-1.31-1.05-2.28-2.2-1.69-4.06,2.08-8.43,3.41-12.95,4.03-.46.06-.97.6-1.05,1.05-.65,3.84-1.22,7.7-1.73,11.56-.11.81.77,1.49,1.5,1.5.9,0,1.39-.7,1.5-1.5.48-3.6,1.02-7.18,1.63-10.76l-1.05,1.05c4.78-.65,9.37-2.13,13.66-4.33l-2.2-1.69c-.58,2.22-.97,4.48-1.15,6.76-.15,1.94-.27,4.08,1.42,5.41s4.37,1.53,6.46,1.79c2.37.29,4.76.39,7.13.63,8.75.89,17.84,2.71,26.38-.37,4-1.45,7.49-3.81,9.99-7.27h-2.59c3.03,4.72,8.71,7.17,14.24,6.62,2.93-.29,5.74-1.26,8.28-2.74,1.29-.75,2.45-1.67,3.62-2.6,1-.8,2.3-1.9,3.67-1.58l-1.1-1.45c.34,8.18-3.78,15.59-9.25,21.4-5.24,5.56-11.6,10.52-18.53,13.77-3.51,1.64-7.31,2.8-11.18,3.13-4.34.37-8.69-.14-12.94-1.02-7.64-1.58-15.23-4.34-21.28-9.4-6.45-5.41-11.24-12.51-18.11-17.45l.54,2.05c1.96-3.44,2.98-7.27,2.99-11.23,0-1.93-3-1.93-3,0h0Z" style="fill:#fff; stroke-width:0px;"/><path d="M214.35,224.71l-4.92,1.45,1.9,1.45c.25-4.6.5-9.2.75-13.8s.36-9.29,1.33-13.84c.9-4.23,2.3-8.43,3.98-12.41,1.47-3.46,3.65-7.18,7.47-8.34,1.84-.56,1.06-3.45-.8-2.89-4.05,1.22-6.81,4.58-8.6,8.27-2.03,4.16-3.54,8.72-4.63,13.21-1.16,4.77-1.4,9.65-1.67,14.53s-.56,10.18-.83,15.27c-.05.97,1,1.71,1.9,1.45l4.92-1.45c1.85-.54,1.06-3.44-.8-2.89h0Z" style="fill:#fff; stroke-width:0px;"/><path d="M226.65,177.5c-2.09-6.65-1.46-14.04,1.9-20.17,1.77-3.22,4.24-6.07,6.9-8.57,2.95-2.76,6.39-4.27,10.21-5.45,1.84-.57,1.06-3.46-.8-2.89-4.16,1.28-7.97,2.96-11.22,5.93-2.97,2.72-5.75,5.93-7.69,9.47-3.73,6.82-4.53,15.08-2.2,22.48.58,1.84,3.47,1.05,2.89-.8h0Z" style="fill:#fff; stroke-width:0px;"/><path d="M242.66,298.37c1.67-2.68,4.41-4.56,7.53-5.12,1.82-.32,3.68-.09,5.46.33,1.4.34,2.87,1.07,4.32.59,1.69-.56,3.07-1.08,4.91-.91,2.01.19,3.91.97,5.7,1.86,3.03,1.51,5.9,3.35,9.28,3.97.47.09.67-.64.2-.72-3.94-.72-7.17-3.15-10.8-4.68-1.53-.65-3.14-1.12-4.81-1.21-.81-.04-1.63.01-2.43.18-.99.2-2.02.9-3.02.94s-2.01-.46-2.93-.69c-.82-.21-1.66-.37-2.5-.47-1.56-.18-3.14-.1-4.66.33-2.87.81-5.32,2.69-6.89,5.21-.26.41.39.79.65.38h0Z" style="fill:#fff; stroke-width:0px;"/><path d="M242.65,299.81c1.95.05,3.2,1.52,4.53,2.75.98.91,2.04,1.59,3.3,2.04,2.99,1.05,6.44,1.75,9.6,1.34,1.73-.23,3.42-.65,5.15-.82,1.62-.15,3.24-.17,4.84-.45,3.15-.56,6.02-2.07,8.81-3.54.43-.22.05-.87-.38-.65-2.81,1.48-5.68,2.99-8.85,3.51-1.73.28-3.5.25-5.24.48s-3.36.66-5.07.81c-1.8.16-3.55-.12-5.3-.51-1.56-.35-3.2-.66-4.61-1.43-2.41-1.32-3.76-4.2-6.79-4.27-.48-.01-.48.74,0,.75h0Z" style="fill:#fff; stroke-width:0px;"/><path d="M238.83,167.75c1.39-2.81,1.72-5.86,2.43-8.87.54-2.28,1.41-4.78,3.44-6.15,1.59-1.07.09-3.67-1.51-2.59-2.44,1.65-3.81,4.25-4.59,7.03-.84,3-.96,6.24-2.36,9.07-.86,1.72,1.73,3.25,2.59,1.51h0Z" style="fill:#fff; stroke-width:0px;"/><path d="M224.2,175.51c-1.58-1.67-3.59-3.67-3.64-6.13-.03-1.38.41-2.73.95-3.99.34-.81.81-1.99,1.72-2.29,1.83-.6,1.05-3.49-.8-2.89-1.6.52-2.64,1.78-3.34,3.27-.79,1.68-1.45,3.49-1.54,5.36-.17,3.56,2.21,6.36,4.52,8.79,1.33,1.4,3.45-.72,2.12-2.12h0Z" style="fill:#fff; stroke-width:0px;"/><path d="M220.35,165.64c-.94,1.74-.72,4.11-.37,5.98s1.06,3.73,1.76,5.52c.3.75,1,1.28,1.85,1.05.72-.2,1.35-1.09,1.05-1.85-.64-1.62-1.27-3.25-1.65-4.95-.17-.78-.27-1.47-.28-2.28,0-.41,0-.84.06-1.25,0,0,.04-.26.06-.33.02-.1.05-.2.08-.3-.07.11-.05.09.03-.07.38-.71.18-1.63-.54-2.05s-1.67-.18-2.05.54h0Z" style="fill:#fff; stroke-width:0px;"/><path d="M221.25,174.25c-2.8,3.08-5.39,6.65-6.07,10.85-.13.8.21,1.61,1.05,1.85.72.2,1.71-.24,1.85-1.05.61-3.73,2.8-6.77,5.3-9.52.54-.6.59-1.53,0-2.12-.55-.55-1.57-.6-2.12,0h0Z" style="fill:#fff; stroke-width:0px;"/><path d="M217.44,187.57c-3.22,2.47-5.53,6-6.27,10.02-.14.77.21,1.65,1.05,1.85.74.17,1.69-.22,1.85-1.05s.38-1.69.68-2.5c.04-.11.09-.22.13-.34.09-.23-.08.18.01-.04.09-.2.18-.39.27-.59.2-.41.42-.81.65-1.2.22-.37.46-.73.72-1.08.01-.02.18-.24.1-.14-.1.13.13-.16.15-.19.14-.17.28-.33.42-.49.29-.32.59-.63.9-.93.16-.15.32-.29.48-.43.07-.06.15-.12.22-.19,0,0,.36-.29.15-.12.62-.48,1.02-1.31.54-2.05-.39-.61-1.39-1.05-2.05-.54h0Z" style="fill:#fff; stroke-width:0px;"/><path d="M200.46,204.68c-1.03,4.79-2.22,9.53-3.48,14.25s-2.3,9.19-1.72,13.91c.23,1.89,3.24,1.91,3,0-.57-4.64.54-9.12,1.74-13.57s2.36-9.16,3.36-13.79c.4-1.88-2.49-2.69-2.89-.8h0Z" style="fill:#fff; stroke-width:0px;"/><path d="M321.32,324.72c-1.37,3.73-3.43,7.26-5.2,10.81-.73,1.47,1.11,3.1,2.36,1.82,1.42-1.46,2.77-3.01,3.95-4.67.93-1.31,1.92-3.05,1.8-4.73s-1.96-2.6-3.24-1.36c-1.46,1.41-2.64,3.3-3.9,4.89-5.26,6.65-10.4,13.41-14.87,20.64-1.02,1.65,1.58,3.16,2.59,1.51,2.73-4.43,5.72-8.69,8.84-12.85,1.53-2.04,3.1-4.06,4.68-6.07.83-1.05,1.66-2.1,2.5-3.15.39-.49.79-.99,1.18-1.48.27-.34.67-1.11,1.05-1.31l-1.16.15c-.42-.84-.65-1.01-.7-.51-.04.2-.09.4-.15.59-.09.26-.2.51-.33.76-.35.68-.8,1.31-1.27,1.92-.95,1.24-2,2.41-3.09,3.54l2.36,1.82c1.88-3.79,4.04-7.55,5.5-11.52.67-1.82-2.23-2.6-2.89-.8h0Z" style="fill:#fff; stroke-width:0px;"/><path d="M302.84,354.76c-4.68,5.54-9.12,11.29-13.28,17.23-2.01,2.87-3.97,5.79-5.44,8.98-1.23,2.66-1.89,5.86-4.2,7.83-1.47,1.26.66,3.37,2.12,2.12,2.3-1.96,3.14-4.85,4.27-7.54,1.36-3.25,3.31-6.24,5.31-9.12,4.16-6,8.63-11.79,13.34-17.37,1.24-1.47-.87-3.6-2.12-2.12h0Z" style="fill:#fff; stroke-width:0px;"/><path d="M313.68,357.35c6.72,3.49,13.55,6.77,20.47,9.83.44.19.82-.45.38-.65-6.93-3.06-13.75-6.34-20.47-9.83-.43-.22-.81.42-.38.65h0Z" style="fill:#fff; stroke-width:0px;"/><path d="M317.38,356.64c5.52,4.23,11.93,7.19,18.73,8.65.47.1.67-.62.2-.72-6.75-1.45-13.08-4.37-18.56-8.57-.38-.29-.76.36-.38.65h0Z" style="fill:#fff; stroke-width:0px;"/><path d="M323.65,342.83c5.4,4.14,10.99,8.03,16.75,11.66.41.26.79-.39.38-.65-5.76-3.63-11.34-7.53-16.75-11.66-.38-.29-.76.36-.38.65h0Z" style="fill:#fff; stroke-width:0px;"/><path d="M324.47,341.87c3.9,3.61,7.81,7.23,11.71,10.84.35.33.89-.2.53-.53-3.9-3.61-7.81-7.23-11.71-10.84-.35-.33-.89.2-.53.53h0Z" style="fill:#fff; stroke-width:0px;"/><path d="M279.29,356.11v.67c0,.1.04.2.11.27s.17.11.27.11.2-.04.27-.11.11-.16.11-.27v-.67c0-.1-.04-.2-.11-.27s-.17-.11-.27-.11-.2.04-.27.11-.11.16-.11.27h0Z" style="fill:#fff; stroke-width:0px;"/><path d="M282.3,356.22l-.11,1.11c0,.09.05.2.11.27.07.07.17.11.27.11s.2-.04.27-.11c.07-.08.1-.16.11-.27l.11-1.11c0-.09-.05-.2-.11-.27-.07-.07-.17-.11-.27-.11s-.2.04-.27.11c-.07.08-.1.16-.11.27h0Z" style="fill:#fff; stroke-width:0px;"/><path d="M285.96,355.56v1c0,.2.17.38.37.38s.37-.16.38-.38v-1c0-.2-.17-.38-.37-.38s-.37.16-.38.38h0Z" style="fill:#fff; stroke-width:0px;"/><path d="M289.21,353.68c-.07.33-.06.68.05.99.04.09.08.17.17.22.08.05.2.07.29.04s.18-.09.22-.17.07-.2.04-.29c-.04-.1-.06-.2-.08-.31v.1c0-.12,0-.24.01-.36v.1s0-.09,0-.13c.02-.1.01-.2-.04-.29-.05-.08-.13-.15-.22-.17-.1-.02-.2-.02-.29.04-.08.05-.15.13-.17.22h0Z" style="fill:#fff; stroke-width:0px;"/><path d="M290.93,352.17s0,.01-.01.02c0,0,0,0,0,.01-.01.03-.03.07-.04.1,0,0,0,.01,0,.02,0,.04-.01.08-.02.12,0,.02,0,.03,0,.05,0,.04,0,.08.02.12,0,0,0,.02,0,.03,0,.02.02.04.03.07s.02.05.03.07c.02.04.06.08.08.12.01.01.02.03.04.04.03.02.06.05.09.07,0,0,.01,0,.02.01.04.02.07.03.11.05,0,0,.02,0,.03,0,.02,0,.04,0,.06,0s.04,0,.06,0c0,0,.02,0,.03,0,.05,0,.1,0,.14-.03.05-.02.09-.04.12-.08.04-.03.06-.07.08-.12.02-.04.03-.09.03-.14v-.1c-.03-.06-.06-.12-.11-.17l-.08-.06c-.06-.03-.12-.05-.19-.05-.01,0-.03,0-.04,0h.1s-.03,0-.04,0l.09.04s-.03-.02-.05-.03l.08.06s-.03-.03-.04-.04l.06.08s-.02-.04-.03-.06l.04.09s-.01-.04-.02-.06v.1s.01-.04.01-.06v.1s0-.03,0-.04l-.04.09s.01-.03.02-.04c.03-.04.04-.09.04-.14.01-.05,0-.1,0-.15-.01-.05-.03-.09-.07-.13-.03-.04-.06-.07-.11-.1l-.09-.04c-.07-.02-.13-.02-.2,0l-.09.04c-.06.03-.1.08-.13.13h0Z" style="fill:#fff; stroke-width:0px;"/><path d="M293.85,348.89v1.44c0,.2.17.38.38.38s.38-.16.38-.38v-1.44c0-.2-.17-.38-.38-.38s-.38.16-.38.38h0Z" style="fill:#fff; stroke-width:0px;"/><path d="M297.31,347.9c-.02.08-.03.16-.04.24s0,.17.02.25c0,.05.02.1.04.15.03.08.06.15.11.22.02.04.06.08.1.11.04.03.08.06.13.07.05.02.1.02.15,0,.05,0,.1-.02.14-.04.08-.05.15-.13.17-.22s.02-.21-.04-.29c-.03-.04-.05-.08-.07-.12l.04.09c-.02-.06-.04-.11-.05-.17v.1c0-.06,0-.11.01-.17v.1s0-.06,0-.1c.03-.09.01-.21-.04-.29-.05-.08-.13-.15-.22-.17-.1-.02-.2-.02-.29.04s-.14.13-.17.22h0Z" style="fill:#fff; stroke-width:0px;"/><path d="M300.4,345.89v1.56c0,.2.17.38.38.38s.38-.16.38-.38v-1.56c0-.2-.17-.38-.38-.38s-.38.16-.38.38h0Z" style="fill:#fff; stroke-width:0px;"/><path d="M302.76,344.24c-.02.08-.03.17-.02.26s.02.17.05.26.06.16.11.23c.03.05.07.09.11.13s.09.08.13.11c.04.03.09.04.14.04.05.01.1,0,.15,0,.09-.02.18-.09.22-.17.05-.09.07-.19.04-.29l-.04-.09c-.03-.06-.08-.1-.13-.13h0s.05.03.08.05c-.03-.03-.07-.06-.09-.09l.06.08s-.06-.08-.08-.13l.04.09s-.03-.1-.04-.15v.1s0-.1.01-.15v.1s0-.02,0-.03c.02-.05.02-.1,0-.15,0-.05-.02-.1-.04-.14-.05-.08-.13-.15-.22-.17-.1-.02-.2-.02-.29.04-.08.05-.15.13-.17.22h0Z" style="fill:#fff; stroke-width:0px;"/><path d="M305.08,341.33v.66c-.02.22-.06.47.02.67.09.25.29.41.56.42.2.01.38-.07.53-.19.18-.15.26-.41.19-.63-.06-.19-.27-.33-.46-.26s-.32.26-.26.46c0,.01,0,.02,0,.04v-.1s-.01.04-.01.06v-.1s0,.04,0,.05l.04-.09s-.02.03-.02.05c-.02.03.07-.08.03-.04,0,0-.01.01-.02.02-.01.01-.04.03.01,0s.02-.02,0,0c-.02,0-.04.02-.05.03l.09-.04s-.07.02-.11.03h.1s-.06,0-.08-.01h.1s-.04,0-.07,0l.09.04s-.02-.01-.03-.02c-.04-.01.08.06.04.03-.04-.03.02-.02.03.04,0,0-.02-.03-.02-.04l.04.09s-.02-.07-.03-.1v.1c0-.18.01-.37.02-.56v-.58c.02-.2-.16-.38-.36-.38s-.37.16-.38.38h0Z" style="fill:#fff; stroke-width:0px;"/><path d="M307.13,339.14c-.05.2-.1.4-.11.61s.04.42.16.58.28.3.49.36c.19.06.43.04.6-.08.08-.06.15-.13.17-.22.02-.09.01-.21-.04-.29s-.13-.15-.22-.17-.21-.02-.29.04c-.02.01-.04.02-.06.03l.09-.04s-.06.02-.09.02h.1s-.06-.01-.09-.01h.1s-.08,0-.11-.02l.09.04s-.08-.04-.12-.07l.08.06s-.07-.06-.1-.1l.06.08s-.05-.07-.06-.11l.04.09c-.02-.05-.04-.11-.05-.17v.1c0-.09,0-.19.02-.28v.1c0-.12.04-.24.07-.36.05-.19-.06-.42-.26-.46s-.41.06-.46.26h0Z" style="fill:#fff; stroke-width:0px;"/><path d="M309.33,335.9c-.13.75.13,1.56.73,2.05.2.16.44.13.59-.08.08-.11.17-.23.25-.34.12-.16.03-.43-.13-.51-.2-.1-.39-.03-.51.13-.08.11-.17.23-.25.34l.59-.08c-.06-.05-.11-.1-.17-.15-.02-.02-.05-.05-.07-.07,0,0-.05-.07-.02-.02.03.04,0,0,0-.01-.04-.06-.08-.13-.12-.19-.02-.03-.04-.07-.05-.1,0-.01-.01-.03-.02-.05.02.03.02.06,0,0-.03-.07-.05-.13-.06-.2,0-.04-.02-.07-.02-.11,0-.02,0-.03,0-.05,0-.05,0,.08,0,.01s-.01-.14,0-.21c0-.04,0-.08,0-.11,0-.01.01-.09,0-.03s0-.02,0-.02c.03-.19-.05-.41-.26-.46-.18-.04-.43.06-.46.26h0Z" style="fill:#fff; stroke-width:0px;"/><path d="M312.24,333.81c-.22.66.2,1.42.86,1.63.19.06.42-.07.46-.26.05-.2-.06-.4-.26-.46-.03,0-.06-.02-.09-.03l.09.04c-.07-.03-.13-.07-.18-.11l.08.06c-.06-.05-.12-.11-.17-.17l.06.08c-.05-.07-.09-.14-.12-.21l.04.09c-.03-.08-.06-.16-.07-.25v.1c0-.08,0-.16.01-.24v.1c0-.05,0-.1.02-.15.06-.19-.07-.42-.26-.46-.21-.05-.39.06-.46.26h0Z" style="fill:#fff; stroke-width:0px;"/><path d="M314.67,329c.01.83.28,1.65.76,2.32.12.16.33.25.51.13.16-.1.26-.34.13-.51-.11-.15-.2-.3-.29-.46-.04-.09-.09-.17-.12-.26.03.06-.03-.07-.03-.08-.01-.04-.03-.08-.04-.12-.06-.17-.1-.35-.13-.53,0-.04-.01-.08-.02-.13.01.08,0-.07,0-.08,0-.1-.01-.19-.02-.29,0-.2-.17-.38-.38-.38s-.38.16-.38.38h0Z" style="fill:#fff; stroke-width:0px;"/><path d="M315.75,328.57c-.05.33-.05.65,0,.98.04.3.13.59.26.87.04.08.14.15.22.17.09.02.21.01.29-.04s.15-.13.17-.22c.02-.1,0-.19-.04-.29-.02-.04-.01-.03,0,.01,0-.02-.01-.03-.02-.05,0-.03-.02-.05-.03-.08-.02-.06-.04-.12-.06-.19-.03-.11-.07-.24-.07-.36,0,.1,0,0,0-.01,0-.03,0-.06,0-.1,0-.06,0-.12,0-.18,0-.07,0-.13,0-.2,0-.03,0-.06,0-.08,0-.02.02-.15,0-.04.01-.1.02-.19-.04-.29-.05-.08-.13-.15-.22-.17-.18-.04-.43.05-.46.26h0Z" style="fill:#fff; stroke-width:0px;"/><path d="M316.52,326.67l.12,1.11c.01.1.03.19.11.27.07.07.17.11.27.11s.2-.04.27-.11c.06-.07.12-.17.11-.27l-.12-1.11c-.01-.1-.03-.19-.11-.27-.07-.07-.17-.11-.27-.11s-.2.04-.27.11c-.06.07-.12.17-.11.27h0Z" style="fill:#fff; stroke-width:0px;"/><path d="M316.74,325.78l.11,1.11c.01.1.03.19.11.27.07.07.17.11.27.11s.2-.04.27-.11c.06-.07.12-.17.11-.27l-.11-1.11c-.01-.1-.03-.19-.11-.27-.07-.07-.17-.11-.27-.11s-.2.04-.27.11c-.06.07-.12.17-.11.27h0Z" style="fill:#fff; stroke-width:0px;"/><path d="M316.94,325.56c.13,1.49.04,2.99-.29,4.46-.1.47.62.67.72.2.34-1.53.45-3.1.31-4.66-.04-.48-.79-.48-.75,0h0Z" style="fill:#fff; stroke-width:0px;"/><path d="M291.97,351.44c-.01.77-.09,1.49-.23,2.23-.04.19.05.41.26.46.19.04.42-.06.46-.26.16-.8.24-1.61.26-2.43,0-.2-.18-.38-.38-.38s-.37.16-.38.38h0Z" style="fill:#fff; stroke-width:0px;"/><path d="M293.51,350.9l-.56,2.66c-.04.2.06.41.26.46.19.05.42-.06.46-.26l.56-2.66c.04-.2-.06-.41-.26-.46-.19-.05-.42.06-.46.26h0Z" style="fill:#fff; stroke-width:0px;"/><path d="M294.3,349.89c-.08.74-.1,1.48-.06,2.22.01.2.16.38.38.38.19,0,.39-.17.38-.38-.04-.74-.02-1.49.06-2.22.02-.2-.19-.38-.38-.38-.22,0-.35.17-.38.38h0Z" style="fill:#fff; stroke-width:0px;"/><path d="M294.74,350.56l-.43,1.89c-.04.19.06.41.26.46.19.04.42-.06.46-.26l.43-1.89c.04-.19-.06-.41-.26-.46-.19-.04-.42.06-.46.26h0Z" style="fill:#fff; stroke-width:0px;"/><path d="M296.29,349.89l-.11,1.78c-.01.2.18.38.38.38.21,0,.36-.16.38-.38l.11-1.78c.01-.2-.18-.38-.38-.38-.21,0-.36.16-.38.38h0Z" style="fill:#fff; stroke-width:0px;"/><path d="M297.55,348.02l-.33,2.22c-.03.19.05.41.26.46.18.04.43-.05.46-.26l.33-2.22c.03-.19-.05-.41-.26-.46-.18-.04-.43.05-.46.26h0Z" style="fill:#fff; stroke-width:0px;"/><path d="M298.07,347.33l-.27,2.56c-.04.37.54.52.7.19.05-.11.11-.22.16-.33.09-.18.05-.41-.13-.51-.16-.1-.42-.05-.51.13-.05.11-.11.22-.16.33l.7.19.27-2.56c.02-.2-.19-.38-.38-.38-.22,0-.35.17-.38.38h0Z" style="fill:#fff; stroke-width:0px;"/><path d="M301.17,344.45l-1.1,3.11c-.07.19.08.41.26.46.21.06.39-.07.46-.26l1.1-3.11c.07-.19-.08-.41-.26-.46-.21-.06-.39.07-.46.26h0Z" style="fill:#fff; stroke-width:0px;"/><path d="M301.19,343.79l-1.02,4.23c-.11.47.61.67.72.2.05-.19.09-.37.14-.56.11-.47-.61-.67-.72-.2-.05.19-.09.37-.14.56l.72.2,1.02-4.23c.11-.47-.61-.67-.72-.2h0Z" style="fill:#fff; stroke-width:0px;"/><path d="M302.41,344.01l-1.53,4.47.72.2c.03-.12.06-.24.09-.35.12-.47-.6-.67-.72-.2-.03.12-.06.24-.09.35-.13.47.57.65.72.2l1.53-4.47c.16-.46-.57-.65-.72-.2h0Z" style="fill:#fff; stroke-width:0px;"/><path d="M303.19,342.79c-.46,1.42-1,2.82-1.62,4.18-.08.18-.05.4.13.51.16.09.43.05.51-.13.15-.31.29-.62.44-.94.09-.18.05-.4-.13-.51-.16-.09-.43-.05-.51.13-.15.31-.29.62-.44.94l.65.38c.65-1.42,1.22-2.88,1.7-4.36.15-.46-.57-.66-.72-.2h0Z" style="fill:#fff; stroke-width:0px;"/><path d="M304.57,341.33c-.47,2.13-2.11,3.93-4.21,4.57-.46.14-.26.86.2.72,2.34-.71,4.2-2.7,4.73-5.09.1-.47-.62-.67-.72-.2h0Z" style="fill:#fff; stroke-width:0px;"/><path d="M275.24,355.96c-.22.27-.27.34-.44.64-.24.42.4.79.65.38.16-.27.33-.54.49-.8l-.7-.19c-.03.57-.03,1.13,0,1.7.02.36.5.52.7.19.44-.75.74-1.51.9-2.36.09-.47-.6-.67-.72-.2-.13.5-.21,1-.26,1.52-.03.36.55.53.7.19.22-.5.48-.93.82-1.36l-.64-.27c0,.56-.06,1.1-.19,1.66-.09.41.45.65.69.29.5-.78,1-1.53,1.78-2.07l-.55-.22c.13.73-.39,1.47-.39,2.21,0,.33.41.49.64.27.61-.6,1.22-1.19,1.84-1.79l-.59-.45c-.32.66-.65,1.33-.97,1.99-.21.44.37.77.65.38.62-.87,1.34-1.63,2.16-2.31l-.63-.17c.09.28.11.56.05.84-.03.29.34.46.56.32.54-.32.92-.72,1.17-1.29.2-.44-.37-.78-.65-.38-.37.53-.73,1.05-1.1,1.58l.65.38c.29-.53.5-1.05.66-1.63.11-.42-.46-.65-.69-.29l-1.53,2.44.65.38c.4-.81.86-1.56,1.41-2.27.29-.37-.22-.91-.53-.53l-1.37,1.63c-.25.3.08.86.45.59,1.05-.77,2.11-1.54,3.16-2.3l-.51-.51c-.51.69-1.01,1.39-1.52,2.08-.23.31.21.71.51.51.97-.62,1.78-1.38,2.45-2.31.25-.34-.31-.77-.59-.45-.63.72-1.22,1.47-1.78,2.25-.25.35.3.77.59.45l1.9-2.07c.33-.35-.18-.87-.53-.53l-2.33,2.3c-.3.3.09.81.45.59l4.38-2.6-.45-.59c-.69.65-1.34,1.34-1.94,2.07-.26.32.06.81.45.59,1.1-.61,1.99-1.41,2.73-2.42.22-.3-.21-.71-.51-.51-.63.42-1.17.88-1.67,1.46-.27.31.07.81.45.59,1.11-.63,2.14-1.35,3.12-2.17.37-.31-.16-.83-.53-.53-.74.61-1.36,1.3-1.89,2.1-.22.34.2.66.51.51,1.16-.55,2.07-1.35,2.78-2.42.24-.37-.29-.73-.59-.45-.61.57-1.15,1.18-1.63,1.86-.22.32.21.69.51.51,1.04-.61,1.96-1.34,2.8-2.21.34-.36-.16-.83-.53-.53-.5.4-.92.85-1.3,1.36-.23.31.21.69.51.51,1.07-.64,2-1.42,2.81-2.37.26-.3-.08-.85-.45-.59-.72.5-1.35,1.06-1.92,1.72-.25.29,0,.7.36.63.98-.19,1.85-.9,2.64-1.47.88-.64,1.72-1.33,2.53-2.07l-.59-.45c-.42.7-.84,1.4-1.25,2.1-.25.42.4.79.65.38.42-.7.84-1.4,1.25-2.1.22-.37-.28-.74-.59-.45-.76.69-1.54,1.35-2.38,1.95-.73.53-1.56,1.23-2.46,1.4l.36.63c.53-.61,1.1-1.14,1.77-1.6l-.45-.59c-.77.9-1.64,1.65-2.65,2.26l.51.51c.35-.47.73-.84,1.18-1.21l-.53-.53c-.79.83-1.66,1.52-2.65,2.1l.51.51c.45-.63.95-1.19,1.51-1.71l-.59-.45c-.64.96-1.47,1.66-2.51,2.15l.51.51c.5-.76,1.07-1.38,1.77-1.95l-.53-.53c-.93.77-1.92,1.45-2.97,2.05l.45.59c.46-.52.95-.96,1.52-1.34l-.51-.51c-.66.9-1.48,1.61-2.46,2.15l.45.59c.61-.73,1.25-1.42,1.94-2.07.31-.29-.09-.81-.45-.59-1.46.87-2.92,1.73-4.38,2.6l.45.59,2.33-2.3-.53-.53-1.9,2.07.59.45c.52-.73,1.07-1.43,1.66-2.1l-.59-.45c-.6.83-1.32,1.5-2.18,2.05l.51.51c.51-.69,1.01-1.39,1.52-2.08.22-.3-.22-.73-.51-.51-1.05.77-2.11,1.54-3.16,2.3l.45.59,1.37-1.63-.53-.53c-.59.76-1.1,1.56-1.53,2.42-.21.43.39.79.65.38l1.53-2.44-.69-.29c-.14.51-.32.98-.58,1.45-.24.43.38.77.65.38.37-.53.73-1.05,1.1-1.58l-.65-.38c-.21.46-.47.77-.91,1.02l.56.32c.04-.38,0-.68-.08-1.04-.07-.3-.42-.34-.63-.17-.87.72-1.62,1.54-2.28,2.46l.65.38c.32-.66.65-1.33.97-1.99.18-.37-.27-.76-.59-.45-.61.6-1.22,1.19-1.84,1.79l.64.27c0-.86.52-1.54.36-2.41-.04-.23-.36-.35-.55-.22-.89.62-1.47,1.44-2.05,2.34l.69.29c.14-.62.21-1.22.22-1.86,0-.3-.43-.53-.64-.27-.38.47-.69.96-.94,1.51l.7.19c.04-.47.12-.87.23-1.32l-.72-.2c-.15.79-.42,1.49-.82,2.18l.7.19c-.03-.57-.02-1.13,0-1.7.02-.38-.51-.49-.7-.19-.16.27-.33.54-.49.8l.65.38.33-.48c.3-.37-.22-.9-.53-.53h0Z" style="fill:#fff; stroke-width:0px;"/><path d="M294.86,349.81l-.5,1.1c-.2.44.37.78.65.38.38-.55.72-1.12,1.02-1.72l-.65-.38c-.5,1.05-1.1,2.34-1.95,3.17-.55.54-1.04.29-1.64.55-.37.16-.65.47-.91.77l.63.36c.11-.51.22-1.02.33-1.53l-.74-.1-.15,1.22.74-.1-.18-.5c-.1-.29-.52-.39-.69-.09l-.52.94.69.09-.37-1.25c-.1-.34-.65-.38-.72,0-.13.64-.11,1.23.09,1.86.1.33.65.38.72,0,.11-.57.11-1.08.03-1.65-.06-.46-.69-.28-.74.1-.1.87-.34,1.67-.72,2.46h.65l-.94-1.57c-.16-.27-.61-.23-.69.09l-.33,1.46h.72l-.3-.77c-.12-.31-.64-.4-.72,0-.11.51-.15,1-.11,1.53.03.48.78.48.75,0-.04-.73-.22-1.36-.58-2-.15-.26-.63-.24-.69.09l-.26,1.4.69-.09-.42-.99c-.13-.31-.61-.2-.69.09l-.3,1.18.63-.17c-.36-.4-.95-1.19-1.58-1.06-.67.14-1.29,1.2-1.68,1.7h.53c-.14-.14-.27-.28-.41-.42-.17-.17-.47-.13-.59.08l-.62,1.04.7.19c-.01-.65-.21-1.22-.94-1.32-.36-.05-.73.06-1.07.14-.27.06-1.79.21-1.88.46.12-.35-.38-.64-.63-.36-.21.24-.41.47-.62.71l.64.27c.07-.8-.7-1.24-1.37-.79l.55.42c.09-.24.18-.49.27-.73l-.72-.2c-.11.78.49,1.26,1.22.91.44-.21.06-.85-.38-.65l-.12-.07c.07-.47-.55-.66-.72-.2-.09.24-.18.49-.27.73-.11.3.29.6.55.42l.24.14c-.03.32.43.5.64.27s.41-.47.62-.71l-.63-.36c-.16.47.18.85.66.88.59.03,3.18-1.04,3.2.04,0,.37.51.51.7.19l.62-1.04-.59.08c.14.14.27.28.41.42s.41.16.53,0c.29-.37.62-.9,1-1.18.26-.19.29-.27.63-.05.2.14.41.4.57.59.19.21.56.1.63-.17l.3-1.18-.69.09.42.99c.12.29.63.21.69-.09l.26-1.4-.69.09c.3.53.45,1.02.48,1.62h.75c-.03-.45,0-.88.09-1.33h-.72l.3.77c.12.31.63.4.72,0l.33-1.46-.69.09.94,1.57c.14.22.52.26.65,0,.43-.91.7-1.84.82-2.84l-.74.1c.06.45.05.81-.03,1.25h.72c-.16-.5-.19-.94-.09-1.46h-.72l.37,1.25c.09.3.53.38.69.09l.52-.94-.69-.09.18.5c.15.42.68.31.74-.1l.15-1.22c.05-.42-.65-.51-.74-.1-.11.51-.22,1.02-.33,1.53-.07.34.37.67.63.36.24-.28.56-.62.94-.68.2-.03.41.07.61.04.47-.08.75-.38,1.04-.73.82-.97,1.47-2.12,2.01-3.27.21-.43-.43-.81-.65-.38-.3.6-.64,1.17-1.02,1.72l.65.38.5-1.1c.2-.44-.45-.82-.65-.38h0Z" style="fill:#fff; stroke-width:0px;"/><path d="M292.54,351.22c.1.31-.19.62-.29.91-.09.25-.1.46-.04.72.09.39.6.32.72,0,.1-.25.17-.5.23-.77l-.63.17c.25.28.37.68.84.49.5-.21.65-1.13.74-1.58l-.74-.1c-.06.47.04.89.27,1.3.15.27.49.21.65,0,.72-.95.97-2.1,1.13-3.27l-.74-.1c.09.68.26,1.3.54,1.92.11.25.53.24.65,0,.31-.66.48-1.34.52-2.07h-.75c.09.71.2,1.41.32,2.11.06.36.65.35.72,0,.19-.99.18-1.96-.05-2.94-.08-.35-.66-.37-.72,0-.12.74,0,1.41.42,2.03.13.19.41.26.59.08.6-.63.52-1.53,1.02-2.2l-.69-.09c.13.54.26,1.07.38,1.61.08.35.64.36.72,0l.44-1.99-.74-.1.05,1.7c.01.44.6.49.74.1.32-.9.52-1.81.61-2.76h-.75c0,.69.05,1.32.33,1.96.11.25.54.24.65,0,.33-.71.5-1.43.51-2.21,0-.5-.69-.47-.75,0-.07.58.03,1.09.26,1.62.14.32.59.18.69-.09.18-.51.24-.99.2-1.53-.03-.4-.64-.54-.74-.1-.14.63-.07,1.19.21,1.77.15.33.58.18.69-.09.23-.57.45-1.14.72-1.69.1-.22.21-.43.33-.65.07-.13.32-.73.45-.77l-.36-.1c.3.26.19.88.22,1.23.03.31.11.58.28.84.18.28.58.22.69-.09.3-.87.55-1.75.73-2.65l-.74-.1.05,1.44c.02.41.62.52.74.1l.69-2.61-.74-.1.15,1.57c.04.42.59.51.74.1.28-.79.56-1.58.84-2.37l-.74-.1c.05.61.03,1.21-.05,1.82-.06.45.59.46.74.1.28-.71.48-1.43.61-2.18l-.72-.2c-.08.51-.1,1-.05,1.52.04.38.47.5.7.19.19-.26.29-.5.34-.82.07-.47-.66-.68-.72-.2-.04.25-.11.44-.26.64l.7.19c-.04-.45-.04-.87.02-1.32.07-.47-.64-.68-.72-.2-.13.75-.33,1.47-.61,2.18l.74.1c.08-.61.1-1.21.05-1.82-.03-.42-.59-.51-.74-.1-.28.79-.56,1.58-.84,2.37l.74.1-.15-1.57c-.04-.4-.62-.53-.74-.1l-.69,2.61.74.1-.05-1.44c-.02-.4-.65-.53-.74-.1-.18.9-.42,1.78-.73,2.65l.69-.09c-.25-.39-.08-2.79-1.13-2.27-.46.23-.76,1.06-.97,1.5-.33.68-.62,1.38-.9,2.08l.69-.09c-.19-.4-.22-.77-.13-1.19l-.74-.1c.04.47-.02.89-.18,1.33l.69-.09c-.18-.41-.21-.81-.16-1.25h-.75c0,.65-.13,1.24-.41,1.83h.65c-.23-.5-.23-1.04-.23-1.58,0-.49-.7-.47-.75,0-.09.88-.29,1.73-.59,2.56l.74.1-.05-1.7c-.01-.41-.64-.53-.74-.1l-.44,1.99h.72c-.13-.54-.26-1.07-.38-1.61-.08-.35-.51-.33-.69-.09-.46.61-.38,1.5-.91,2.05l.59.08c-.3-.44-.44-.92-.35-1.46h-.72c.2.85.22,1.69.05,2.54h.72c-.11-.64-.21-1.27-.29-1.91-.06-.47-.73-.5-.75,0-.03.6-.16,1.15-.42,1.69h.65c-.22-.49-.37-1.01-.43-1.55-.05-.37-.67-.56-.74-.1-.15,1.1-.36,2.18-1.05,3.09h.65c-.17-.31-.21-.58-.17-.93.05-.42-.65-.51-.74-.1-.05.25-.36.87-.34,1.08.22.04.28-.01.15-.15-.04-.06-.09-.12-.14-.17-.18-.21-.57-.1-.63.17s-.14.52-.23.77h.72c-.07-.31.22-.63.31-.92.08-.25.09-.46.01-.71-.14-.46-.87-.26-.72.2h0Z" style="fill:#fff; stroke-width:0px;"/><path d="M305.35,340.82c-.14.54-.13,1.03.02,1.57.08.3.53.38.69.09.46-.9.8-1.84,1.13-2.8l-.74-.1c-.02.8-.04,1.6-.06,2.4,0,.35.54.54.7.19.57-1.28.92-2.6,1.04-3.99h-.75l-.06,2.3c0,.35.54.53.7.19.43-.95.71-1.91.85-2.95h-.75c-.06.87-.16,1.73-.29,2.58-.07.46.59.68.72.2l.69-2.51-.74-.1c-.05.61-.03,1.19.05,1.8.04.33.51.56.7.19.41-.81.69-1.66.83-2.56.07-.47-.64-.68-.72-.2-.1.63-.16,1.27-.17,1.91,0,.35.53.53.7.19.57-1.17.96-2.39,1.17-3.67l-.74-.1-.08,2c-.01.33.42.49.64.27.41-.42.43-1.06.53-1.61.13-.71.23-1.42.32-2.14h-.75c0,.58-.08,1.73.4,2.18.1.09.24.14.36.1.42-.13.5-.45.63-.85.22-.66.38-1.34.51-2.02l-.74-.1c-.07.63-.08,1.24-.02,1.88.04.44.57.49.74.1.5-1.22.86-2.49,1.2-3.76l-.74-.1c-.07.82-.11,1.62.02,2.44.05.31.56.37.69.09.54-1.19.96-2.42,1.25-3.69l-.72-.2c-.15.87-.25,1.74-.31,2.62-.03.45.6.47.74.1.44-1.15.66-2.33.69-3.55,0-.41-.66-.52-.74-.1-.12.67-.24,1.83.43,2.26.11.07.26.06.38,0,.44-.25.44-.72.52-1.19.1-.64.14-1.28.15-1.93,0-.42-.64-.52-.74-.1-.12.56-.15,1.08-.08,1.64.05.37.47.51.7.19.5-.69.46-1.89.59-2.7l-.74-.1c0,.73,0,1.46,0,2.19,0,.49-.04.96.25,1.37.17.24.61.25.69-.09.17-.8.23-1.59.17-2.4-.03-.48-.78-.48-.75,0,.05.75.01,1.46-.14,2.2l.69-.09c-.28-.4-.15-1.11-.15-1.58,0-.53,0-1.07,0-1.6,0-.41-.67-.53-.74-.1-.11.73-.07,1.91-.51,2.53l.7.19c-.07-.49-.06-.95.05-1.44l-.74-.1c0,.42-.02.85-.07,1.27-.02.19-.03,1.09-.23,1.2h.38c-.27-.17-.13-1.16-.09-1.41l-.74-.1c-.03,1.16-.25,2.27-.66,3.35l.74.1c.06-.81.15-1.62.29-2.42.08-.47-.62-.68-.72-.2-.27,1.21-.66,2.38-1.17,3.51l.69.09c-.12-.75-.06-1.49,0-2.24.04-.43-.63-.5-.74-.1-.34,1.27-.69,2.54-1.2,3.76l.74.1c-.06-.63-.05-1.25.02-1.88.05-.42-.66-.51-.74-.1s-.16.82-.27,1.22c-.04.15-.22,1.09-.34,1.13l.36.1c-.26-.25-.18-1.29-.18-1.65,0-.5-.69-.46-.75,0-.07.56-.15,1.11-.25,1.67-.07.41-.08,1.25-.39,1.55l.64.27.08-2c.02-.41-.67-.52-.74-.1-.2,1.22-.56,2.38-1.1,3.49l.7.19c0-.58.05-1.14.14-1.71l-.72-.2c-.13.84-.37,1.62-.75,2.38l.7.19c-.08-.6-.09-1.19-.05-1.8.03-.43-.63-.5-.74-.1l-.69,2.51.72.2c.14-.92.25-1.85.32-2.78.04-.49-.69-.46-.75,0-.12.89-.37,1.75-.74,2.57l.7.19.06-2.3c.01-.49-.71-.47-.75,0-.11,1.26-.42,2.47-.94,3.62l.7.19c.02-.8.04-1.6.06-2.4.01-.44-.6-.49-.74-.1-.3.89-.62,1.78-1.05,2.62l.69.09c-.11-.4-.12-.76-.02-1.17.12-.47-.6-.67-.72-.2h0Z" style="fill:#fff; stroke-width:0px;"/><path d="M317.18,325.44c.09.15.18.26.31.38.26.22.61.07.64-.27.05-.57-.02-1.13-.21-1.67-.16-.46-.8-.27-.72.2.1.66.26,1.29.49,1.92.1.28.53.4.69.09.35-.68.37-1.52.46-2.27.11-.9.18-1.8.23-2.7.02-.48-.72-.48-.75,0-.04.61-.07,1.21-.11,1.82-.03.43.63.51.74.1.29-1.12.43-2.27.43-3.43,0-.41-.64-.52-.74-.1-.15.68-.19,1.35-.1,2.04.04.32.53.57.7.19.5-1.11.81-2.26.93-3.47h-.75c.08.8-.1,1.61.19,2.38.11.28.52.4.69.09.46-.85.74-1.76.86-2.72.05-.42-.64-.51-.74-.1-.11.46-.16.92-.16,1.39s.58.47.74.1c.35-.85.64-1.72.89-2.6l-.74-.1-.15,1.7c-.04.48.71.48.75,0l.15-1.7c.04-.43-.63-.5-.74-.1-.25.88-.54,1.75-.89,2.6l.74.1c0-.41.04-.8.14-1.2l-.74-.1c-.1.83-.36,1.61-.76,2.34l.69.09c-.27-.7-.09-1.45-.16-2.18-.05-.48-.7-.48-.75,0-.1,1.07-.38,2.11-.82,3.09l.7.19c-.08-.62-.07-1.23.07-1.84l-.74-.1c0,1.1-.13,2.17-.4,3.23l.74.1c.04-.61.07-1.21.11-1.82h-.75c-.04.79-.1,1.57-.19,2.35-.08.7-.08,1.6-.4,2.24l.69.09c-.22-.63-.39-1.26-.49-1.92l-.72.2c.17.48.23.96.18,1.47l.64-.27c-.09-.06-.15-.13-.2-.22-.25-.41-.89-.04-.65.38h0Z" style="fill:#fff; stroke-width:0px;"/><path d="M266.79,322.52l-.05.37.72.2c.04-.17.13-.32.26-.45l-.55-.42c-.05.31-.11.62-.16.93-.06.36.34.63.63.36.42-.38.86-.74,1.32-1.08l-.55-.42c-.09.28-.16.55-.21.83-.07.38.34.61.63.36.31-.26.63-.48.97-.68l-.55-.42-.15,1c-.04.29.16.52.46.46.65-.13.95-.7,1.5-1.02l-.55-.42c-.04.27-.11.53-.08.8.02.17.1.31.28.36.36.11.56-.06.86-.27.42-.3.83-.59,1.25-.89l-.56-.32c-.03.35.05.76.43.88.18.06.33.02.5-.04.08-.03.18-.06.25-.11.18-.04.21-.07.08-.12-.11-.09-.14-.04-.1.16-.02.22.19.35.38.38.53.06,1.06-.83,1.36-1.16l-.64-.27c0,.2,0,.41-.05.61-.06.33.36.68.63.36.14-.17.62-.46.69-.61.09-.02.1-.06.03-.11-.06-.1-.07-.09-.03.03-.02.11.06.37.08.47.05.27.45.37.63.17.33-.38.68-.73,1.06-1.06l-.63-.17c.02.22,0,.43-.05.64-.09.43.43.63.69.29.29-.39.62-.73,1-1.03l-.56-.32.08.67c.04.31.39.51.64.27.07-.07.57-.64.61-.64l-.32-.19c.05.15.1.3.15.45.09.31.52.37.69.09.15-.25.26-.5.36-.77l-.63.17.03.09c.1.47.82.27.72-.2-.04-.19-.09-.28-.23-.42-.2-.23-.54-.08-.63.17-.08.22-.17.4-.29.59l.69.09c-.1-.32-.15-.81-.58-.82s-.83.6-1.1.86l.64.27-.08-.67c-.03-.24-.31-.52-.56-.32-.49.38-.9.8-1.27,1.29l.69.29c.07-.36.1-.67.05-1.04-.04-.3-.44-.33-.63-.17-.38.33-.73.68-1.06,1.06l.63.17c-.07-.41-.1-1.08-.67-1.05-.51.03-1.05.59-1.36.95l.63.36c.05-.27.07-.53.07-.81,0-.31-.42-.51-.64-.27-.1.11-.74.95-.83.94l.38.38c.03-.34.03-.8-.37-.91-.14-.04-.25,0-.38.04-.18.06-.43.33-.41.09.02-.27-.34-.48-.56-.32-.29.2-.58.41-.86.61-.11.08-.59.49-.66.47l.28.36c-.02-.2.02-.4.06-.6.05-.31-.24-.6-.55-.42-.46.26-.79.84-1.32.94l.46.46.15-1c.05-.31-.24-.6-.55-.42-.4.23-.77.5-1.12.8l.63.36c.06-.28.13-.56.21-.83.09-.29-.28-.62-.55-.42-.51.37-1,.77-1.47,1.2l.63.36c.05-.31.11-.62.16-.93.05-.28-.26-.64-.55-.42-.32.24-.47.52-.6.9-.16.46.55.64.72.2.1-.27.1-.49.05-.77-.08-.47-.81-.27-.72.2h0Z" style="fill:#fff; stroke-width:0px;"/><path d="M279.81,320.19l-.06.34c-.03.19.05.42.26.46.6.12.81-.63,1.04-1.05l-.7-.19c-.03.24-.06.49-.09.73-.04.28.34.47.56.32.53-.35.87-.99,1.24-1.49l-.7-.19c-.02.24-.05.47-.09.7-.06.32.37.69.63.36.36-.45.72-.89,1.23-1.17l-.55-.42-.12.88c-.04.32.35.69.63.36l1.34-1.58-.63-.36-.29,1.21c-.08.33.26.57.55.42.74-.37,1.26-1.37,1.76-2.01l-.69-.29c-.04.24-.07.47-.11.71-.06.4.45.67.69.29.25-.41.46-.83.64-1.27l-.69.09c.14.28.18.62.62.52.48-.12.76-1.01.96-1.38l-.69-.29c-.05.29-.08.57-.08.86,0,.45.59.47.74.1l.55-1.37-.74-.1c0,.29.03.57.08.85.05.26.45.38.63.17.27-.34.44-.68.51-1.11l-.74-.1v.39c0,.36.52.53.7.19l.37-.7-.7-.19c.03.34,0,.84.41.95.49.13.54-.45.94-.53l-.36-.1s0,.8,0,.91c.02.36.51.52.7.19.14-.24.27-.48.41-.71l-.69-.09c.09.34.21.65.39.95.13.23.52.26.65,0l.27-.55-.7-.19c-.01.56-.19,1.29.21,1.74.17.19.47.12.59-.08.11-.17.22-.35.32-.52l-.69-.09c.15.57,0,.99.51,1.38.21.16.47-.03.55-.22l.18-.46h-.72c.13.67.55,1.21,1.16,1.51.43.21.81-.44.38-.65-.46-.22-.72-.55-.81-1.06-.08-.4-.6-.31-.72,0l-.18.46.55-.22c-.16-.12-.11-.72-.16-.93-.08-.32-.52-.36-.69-.09-.11.17-.22.35-.32.52l.59-.08c-.14-.16,0-1.01.01-1.21,0-.36-.53-.53-.7-.19l-.27.55h.65c-.14-.25-.24-.49-.31-.77-.08-.31-.53-.37-.69-.09-.14.24-.27.48-.41.71l.7.19c-.02-.38.12-1.21-.26-1.47-.15-.1-.31-.09-.48-.03-.1.04-.66.43-.45.48l.26.26c-.04-.16-.07-.31-.07-.48-.03-.34-.51-.55-.7-.19l-.37.7.7.19v-.39c0-.41-.67-.53-.74-.1-.05.29-.13.54-.32.78l.63.17c-.05-.23-.06-.42-.06-.65,0-.45-.59-.47-.74-.1l-.55,1.37.74.1c0-.23.01-.44.05-.67.07-.39-.47-.69-.69-.29-.12.22-.52.72-.52.95-.11.12-.06.17.14.15.16.1.22.1.19,0,.02-.05-.08-.21-.09-.24-.16-.32-.57-.18-.69.09-.16.38-.35.74-.57,1.1l.69.29c.04-.24.07-.47.11-.71.07-.43-.42-.63-.69-.29s-.52.67-.78,1.01c-.21.27-.4.58-.71.74l.55.42.29-1.21c.08-.34-.37-.67-.63-.36l-1.34,1.58.63.36.12-.88c.04-.31-.24-.6-.55-.42-.57.32-.98.78-1.38,1.29l.63.36c.05-.3.09-.6.12-.9.04-.41-.5-.46-.7-.19-.28.38-.57.96-.97,1.22l.56.32c.03-.24.06-.49.09-.73.05-.38-.53-.49-.7-.19-.14.25-.27.62-.48.82l.36-.1-.08-.02.26.46.06-.34c.08-.47-.64-.67-.72-.2h0Z" style="fill:#fff; stroke-width:0px;"/><path d="M291.83,317.72l-.48.27.55.22c-.04-.15-.04-.3-.02-.45l-.7.19c.2.37.4.94.89,1,.45.05.82-.41,1.14-.67l-.64-.27c0,.48-.23,1.45.26,1.79.53.37.99-.43,1.28-.75l-.64-.27c.06.51,0,1.61.59,1.85.65.27,1.16-.89,1.44-1.28l-.69-.09c.05.36.06.7.05,1.06-.01.41.66.52.74.1.05-.3.15-.52.33-.77l-.69-.09c.07.45.03,1,.44,1.27.11.07.27.07.38,0,.35-.23.41-.68.75-.91l-.55-.22c.04.28.13.52.28.76s.49.23.65,0c.21-.32.24-.59.18-.96-.05-.29-.44-.35-.63-.17-.31.31-.76.66-1.22.65l.32.19c.13.23.88.2,1.11.18.22-.01.37-.08.55-.2.14-.09.26-.2.4-.27.36-.1.43-.13.2-.1-.12-.03-.16.02-.12.14-.08.21.05.45.19.6.09.1.24.13.36.1.47-.13.83-.83,1.12-1.19l-.64-.27c0,.28,0,.55.02.82.01.33.4.49.64.27.25-.24.46-.5.63-.8l-.7-.19c.05.36.14.77.54.89.48.15,1-.31,1.37-.54l-.55-.22c.05.17.11.34.16.51.09.27.42.36.63.17.27-.25.51-.53.72-.84l-.69-.09c.08.31.32.54.66.54.41,0,.62-.37.94-.54l-.45-.06c.5.6,1.32.6,1.82,0l-.63-.17c.07.2.1.28.22.45s.43.28.59.08c.15-.18.2-.26.25-.49.09-.47-.63-.67-.72-.2l-.06.16.59.08-.14-.27c-.08-.24-.43-.4-.63-.17-.25.33-.5.33-.76,0-.11-.13-.32-.13-.45-.06-.1.05-.54.31-.5.45-.09-.33-.51-.34-.69-.09s-.37.47-.6.69l.63.17c-.05-.17-.11-.34-.16-.51-.07-.23-.34-.35-.55-.22-.08.05-.75.55-.78.3-.04-.34-.49-.54-.7-.19-.14.25-.31.45-.51.65l.64.27c0-.27-.02-.55-.02-.82,0-.3-.43-.53-.64-.27-.17.21-.64.95-.79,1l.36.1c.11.12.02-.42,0-.5-.03-.11-.07-.25-.16-.34-.15-.14-.34-.14-.52-.11-.41.07-.7.42-1.09.52-.45.11-.96-.07-1.41.09s-.67.87-.11,1.07c.6.22,1.47-.48,1.85-.86l-.63-.17-.1.38h.65c-.11-.19-.17-.36-.2-.58-.04-.24-.36-.35-.55-.22-.16.1-.28.2-.39.35s-.19.44-.36.55h.38c.15.1,0-.19,0-.28l-.09-.54c-.06-.36-.52-.32-.69-.09-.21.29-.34.59-.41.94l.74.1c.01-.43-.02-.84-.08-1.26-.05-.35-.52-.32-.69-.09-.09.13-.19.27-.28.4-.04.05-.34.49-.24.44.07.07.07.05.03-.08-.01-.08-.03-.16-.04-.23-.04-.24-.07-.48-.1-.72-.03-.29-.4-.54-.64-.27-.09.1-.22.21-.28.32l-.14.16c.13.22.18.24.15.06.11-.2.01-.82.01-1.05,0-.35-.4-.46-.64-.27-.13.11-.38.41-.58.33-.09-.03-.23-.42-.27-.5-.19-.35-.67-.16-.7.19-.02.23,0,.43.05.65.05.25.35.33.55.22l.48-.27c.42-.23.04-.88-.38-.65h0Z" style="fill:#fff; stroke-width:0px;"/><path d="M455,280c0,44.48-16.6,85.09-43.94,115.96-.18.21-.37.42-.55.62-6.14,6.88-12.82,13.26-19.96,19.09-1.7,1.38-3.42,2.73-5.17,4.04-1.28.98-2.58,1.94-3.89,2.87-9.75,6.96-20.25,12.93-31.35,17.79-1.72.76-3.46,1.49-5.22,2.19-1.2.48-2.4.94-3.61,1.39-.18.08-.36.14-.55.21-1.51.56-3.03,1.1-4.56,1.62-.12.04-.23.08-.34.11-.72.25-1.41.49-2.13.72h-.04c-11.18,3.6-22.85,6.1-34.88,7.39-.26.03-.52.06-.79.09-.3.02-.6.05-.91.08-.27.03-.54.06-.81.08-.05.01-.1.01-.16.02-.25.02-.51.04-.77.07-5.06.43-10.19.66-15.37.66-11.78,0-23.28-1.16-34.41-3.39-.97-.19-1.95-.39-2.92-.6-23.4-5.09-45.06-14.85-63.94-28.27-.19-.14-.38-.27-.57-.41,0,0-.03-.02-.04-.03-.18-.13-.37-.26-.55-.4-2.56-1.85-5.07-3.76-7.52-5.75-.19-.16-.39-.32-.59-.48-39.34-32.08-64.46-80.94-64.46-135.67,0-96.65,78.35-175,175-175s175,78.35,175,175Z" style="fill:none; stroke-width:0px;"/></svg>