<?xml version="1.0" encoding="UTF-8"?><svg id="a" xmlns="http://www.w3.org/2000/svg" viewBox="0 0 560 560"><path d="M231.36,338c-.88.19-1.76.36-2.64.51-7.47,1.28-15.1,1.1-22.64,1.79-3.75.35-7.49.94-11.09,2.09-3.6,1.14-6.94,2.89-10.23,4.71-7.1,3.9-14.16,7.85-21.13,11.98-.41.24-.83.49-1.24.73h-.01c-2.6,1.53-5.22,3.11-7.23,5.36-1.98,2.22-3.23,5-4.2,7.78-.58,1.67-1.08,3.37-1.57,5.07,0,.01-.01.01-.01.02-.59,2.02-1.18,4.04-1.9,6v.02c-.77,2.1-1.7,4.14-2.93,6.04-.09.13-.19.25-.29.35-.66-.81-1.31-1.62-1.95-2.44,3.55-5.84,4.28-12.88,7.02-19.08,1.24-2.81,2.97-5.42,5.31-7.45,2.86-2.48,6.28-4.29,9.53-6.2,5.18-3.04,10.4-6.04,15.66-8.93.02-.01.03-.02.05-.03.01,0,.01-.01.02-.01.01-.01.02-.01.03-.02,1.86-1.02,3.72-2.02,5.59-3.01,3.47-1.83,7.04-3.43,10.84-4.41,3.7-.95,7.51-1.41,11.31-1.7,6.58-.5,13.24-.44,19.76-1.47,1.05-.17,2.1-.36,3.14-.59,1.89-.42,2.69,2.47.8,2.89Z" style="fill:#fff; stroke-width:0px;"/><path d="M245.32,413.41c.8-3.8,3.49-6.65,6.36-9.1,3.08-2.63,6.45-4.92,9.98-6.89,7.09-3.94,14.95-6.5,23-7.45,1.89-.22,1.92-3.23,0-3-8.74,1.03-17.21,3.74-24.88,8.06-3.74,2.11-7.29,4.59-10.52,7.41s-5.96,6.03-6.83,10.17c-.4,1.88,2.49,2.69,2.89.8h0Z" style="fill:#fff; stroke-width:0px;"/><path d="M198.58,229.08l-.02,2.68c0,.78.69,1.54,1.5,1.5,1.97-.1,2.98-1.58,3.63-3.28.78-2.02,1.2-4.15,1.49-6.29.63-4.67.65-9.4.82-14.11.3-8.49,1.07-17.62,6.35-24.66,2.77-3.68,6.39-6.6,8.88-10.52,1.04-1.64-1.56-3.14-2.59-1.51-2.07,3.26-4.99,5.82-7.47,8.75s-4.41,6.43-5.65,10.18c-2.68,8.09-2.37,16.72-2.77,25.13-.11,2.43-.25,4.88-.65,7.28-.2,1.17-.45,2.34-.79,3.48-.15.5-.58,2.53-1.24,2.56l1.5,1.5.02-2.68c.02-1.93-2.98-1.93-3,0h0Z" style="fill:#fff; stroke-width:0px;"/><path d="M365.84,237.88c-1.52,7.05-3.73,13.9-5.01,21-.31,1.73-.6,3.47-.88,5.21-.25,1.59-.81,3.42-.23,4.99,1.02,2.78,4.54,4.18,7.28,4.04,1.92-.1,1.93-3.1,0-3-1.22.06-2.37-.19-3.38-.9-.53-.38-1.07-.86-1.15-1.53s.16-1.43.26-2.09c.49-3.08,1-6.16,1.62-9.22,1.21-5.97,3.1-11.76,4.38-17.71.41-1.88-2.49-2.69-2.89-.8h0Z" style="fill:#fff; stroke-width:0px;"/><path d="M217.43,223.5c.11-2.04.28-4.07.54-6.09-.1.78.1-.67.1-.67.07-.47.15-.93.22-1.39.17-1.01.36-2.01.57-3.01.82-3.92,1.95-7.76,3.34-11.51s2.49-7.18,3.61-10.83c.13-.42.26-.83.41-1.25.1-.27.2-.55.31-.82-.14.34-.15.36-.02.07.23-.41.42-.84.66-1.24.11-.19.78-1.08.17-.33.24-.29.49-.58.76-.84.19-.19,1.01-.69.24-.25.32-.18.63-.39.96-.56-.92.48.4-.06.68-.11,2.31-.46,3.85-3.34,3.14-5.54-.8-2.46-3.06-3.63-5.54-3.14-4.72.93-7.85,4.93-9.57,9.15-.77,1.9-1.27,3.88-1.85,5.84-.62,2.08-1.39,4.11-2.15,6.15-3.19,8.5-5.11,17.31-5.59,26.38-.12,2.35,2.16,4.6,4.5,4.5,2.54-.11,4.37-1.98,4.5-4.5h0Z" style="fill:#fff; stroke-width:0px;"/><path d="M233.79,173.7s-.46-1.06-.33-.74c.15.37-.25-.66-.29-.76-.27-.73-.51-1.46-.73-2.2s-.41-1.49-.58-2.25c-.07-.3-.13-.61-.19-.92-.29-1.4.02.76-.11-.66-.06-.7-.09-1.4-.05-2.1.01-.27.16-1.03.03-.4.08-.37.16-.73.27-1.08s.22-.71.36-1.06c-.23.57.08-.14.19-.35.33-.65.71-1.28,1.11-1.9.2-.3.4-.59.61-.89.16-.22.37-.49.08-.12.45-.56.92-1.11,1.4-1.64.98-1.08,2.01-2.13,3.09-3.12.28-.25.56-.5.85-.74.61-.5-.82.51.34-.24.61-.4,1.24-.76,1.9-1.09.27-.13.56-.22.12-.06.34-.13.68-.25,1.02-.37.75-.26,1.52-.49,2.28-.72,2.25-.68,3.9-3.18,3.14-5.54s-3.12-3.87-5.54-3.14c-3.79,1.14-7.14,2.59-10.14,5.23-2.71,2.38-5.23,5.2-7.15,8.25-2.12,3.37-3.31,7.32-2.88,11.31s1.69,8.04,3.42,11.84c.98,2.15,4.26,2.84,6.16,1.61,2.22-1.43,2.66-3.86,1.61-6.16h0Z" style="fill:#fff; stroke-width:0px;"/><path d="M239.81,171.37c-.52-2.04-1.37-3.97-1.86-6.02.1.41.03.51.03.03,0-.27,0-.54,0-.81,0-.45.09-.42-.01,0,.07-.26.11-.53.18-.79.14-.53.32-1.04.51-1.55-.16.43-.13.29.03-.05.14-.29.29-.59.44-.88.47-.9.99-1.78,1.56-2.62.14-.21.29-.42.43-.63.05-.07.53-.72.22-.31s.18-.22.24-.29c.16-.2.33-.39.49-.58.67-.77,1.38-1.49,2.13-2.18.37-.34.78-.66,1.15-1,.49-.45-.55.39-.01,0,.26-.19.51-.37.77-.56,1.92-1.35,3.01-3.99,1.61-6.16-1.23-1.91-4.1-3.07-6.16-1.61-4.32,3.05-8,6.98-10.39,11.73-1.33,2.66-2.43,5.64-2.18,8.66.23,2.84,1.43,5.28,2.12,7.99.58,2.28,3.25,3.88,5.54,3.14s3.77-3.09,3.14-5.54h0Z" style="fill:#fff; stroke-width:0px;"/><path d="M329.32,193.81c.42.09.82.22,1.23.33.96.27-.33-.21.49.2.72.36,1.44.72,2.13,1.12s1.36.82,2.02,1.26c.33.22.65.46.98.68.78.55-.45-.4.35.26,1.18.97,2.31,1.98,3.37,3.09.55.57,1.08,1.17,1.59,1.78.09.1.82,1.02.52.63s.4.55.48.66c.93,1.3,1.76,2.67,2.5,4.08.4.77.77,1.55,1.13,2.34-.35-.77.19.49.21.53.16.4.3.81.45,1.22.57,1.64,1.03,3.32,1.37,5.02.09.43.17.85.24,1.28.02.1.19,1.23.11.69-.06-.45.08.76.1.91.05.5.08,1.01.12,1.51.15,2.34,1.96,4.61,4.5,4.5,2.31-.1,4.66-1.98,4.5-4.5-.5-7.98-2.94-15.95-7.68-22.46-2.19-3.01-4.67-5.73-7.6-8.03-3.12-2.44-6.77-4.95-10.7-5.81-2.29-.5-4.98.69-5.54,3.14-.52,2.27.68,5,3.14,5.54h0Z" style="fill:#fff; stroke-width:0px;"/><path d="M324.1,404.9c-2.67,8.2-5.22,16.45-7.11,24.87-.97,4.35-1.77,8.74-2.29,13.17-.25,2.03-.43,4.07-.55,6.12-.06.86-.14,1.75-.16,2.64-.24.05-.49.1-.74.14.02-.7.07-1.39.11-2.07.11-2.21.3-4.4.56-6.59.5-4.26,1.23-8.49,2.15-12.68,1.9-8.74,4.54-17.3,7.31-25.8.14-.46.87-.26.72.2Z" style="fill:#fff; stroke-width:0px;"/><path d="M335.67,402.46c-2.44,7.98-5.41,15.79-7.69,23.81-1.13,3.98-2.09,8.02-2.71,12.11-.28,1.85-.5,3.72-.63,5.59-.11,1.61-.16,3.23.72,4.65.26.41.9.03.65-.38-1.04-1.66-.68-3.8-.51-5.65.19-2.03.47-4.04.83-6.05.69-3.85,1.66-7.65,2.76-11.4,2.23-7.56,4.99-14.95,7.3-22.48.14-.46-.58-.66-.72-.2h0Z" style="fill:#fff; stroke-width:0px;"/><path d="M228.72,338.51c0-.07,0-.14-.02-.21-.12-.91-.59-1.86-1.28-2.6-.81-.88-1.93-1.46-3.14-1.31-.4.05-.79.1-1.19.16-7.67.97-15.32,2.07-22.96,3.31-1.94.32-3.89.65-5.83.98-1.81.31-3.73.5-5.47,1.08-2.65.89-4.77,2.91-6.75,4.98-.07.03-.13.07-.19.11-.65.42-1.32.85-1.97,1.28-.01.01-.02.01-.03.02-.01,0-.01.01-.02.01-.02,0-.03.02-.05.03-6.16,3.99-12.28,8.21-17.43,13.46h-.01c-.54.55-1.06,1.11-1.57,1.67-2.77,3.06-5.25,6.45-7.07,10.17-1.68,1.97-3.17,4.08-4.36,6.37,0,.01-.01.01-.01.02-.41.79-.79,1.6-1.12,2.44-.47,1.15-.75,2.36-.78,3.56v.02c-.03,1.01.11,2.02.47,3.03.13.36.27.71.43,1.05-.45,1.85-.89,3.71-1.42,5.54,1.12,1.31,2.25,2.6,3.4,3.87.46.49.91.99,1.36,1.48.26.28.52.55.78.83.42.44.84.88,1.26,1.32s.85.88,1.28,1.32c.58.59,1.16,1.18,1.76,1.77.4.4.81.8,1.22,1.2.2.19.39.38.6.57h.01c.14.16.29.3.44.44.32.31.63.61.96.91h.01c.12.13.24.24.37.36.81.76,1.63,1.51,2.46,2.26,1.4,1.26,2.82,2.5,4.26,3.71.28-.39.56-.78.85-1.16.01-.02.03-.03.03-.05.03-.03.05-.06.06-.07s.01-.02.02-.02c.01-.02.02-.03.02-.03h0v-.02s.08-.09.12-.14c.13-.16.26-.32.38-.48.16-.19.31-.38.46-.57.62-.76,1.25-1.51,1.89-2.26.19-.22.38-.44.57-.66.24-.28.49-.56.73-.84,2.06-2.37,4.16-4.71,6.13-7.14,4.3-5.3,7.7-11.1,11.21-16.91,1.7-2.81,3.47-5.56,5.4-8.2.4-.55.8-1.09,1.21-1.62.03-.03.06-.07.09-.11h0c.16-.2.36-.46.37-.47.18-.23.36-.45.55-.68,1-1.24,2.04-2.45,3.1-3.63,4.17-4.63,8.84-8.62,13.66-12.55,2.83-2.32,5.44-4.75,7.66-7.66.96-1.25,1.74-2.6,2.63-3.89.08-.12.16-.24.25-.36,0-.01.01-.01.01-.01,0,0,0-.01.01-.01.1-.1.44-.5.54-.6.05-.05.12-.11.19-.16,0-.01.01-.01.01-.01h.01c.22-.11.51-.23.6-.3-.04,0-.11.02-.22.06,1.97-.76,3.26-2.53,3.06-4.66ZM212.67,345.17c-.06-.06-.13-.12-.2-.17.14-.02.28-.04.42-.06-.06.08-.14.15-.22.23Z" style="fill:#fff; stroke-width:0px;"/><path d="M342.36,265.74l2.32.63c.38.1.82.05,1.16-.15.31-.18.61-.54.69-.9.09-.38.07-.81-.15-1.16s-.51-.59-.9-.69l-2.32-.63c-.38-.1-.82-.05-1.16.15-.31.18-.61.54-.69.9-.09.38-.07.81.15,1.16s.51.59.9.69h0Z" style="fill:#fff; stroke-width:0px;"/><path d="M347.48,259.15l-8.33-2.03c-.76-.19-1.66.24-1.85,1.05s.23,1.65,1.05,1.85l8.33,2.03c.76.19,1.66-.24,1.85-1.05s-.23-1.65-1.05-1.85h0Z" style="fill:#fff; stroke-width:0px;"/><path d="M343.43,257.2c1.35.49,2.73.78,4.15.97.35.05.82-.2,1.06-.44.26-.26.46-.69.44-1.06s-.14-.79-.44-1.06l-.3-.23c-.23-.14-.49-.2-.76-.2h-.07c.13,0,.27.03.4.04-1.26-.17-2.49-.47-3.68-.9-.35-.13-.85-.03-1.16.15s-.61.54-.69.9c-.09.38-.07.81.15,1.16s.51.55.9.69h0Z" style="fill:#fff; stroke-width:0px;"/><path d="M350.58,249.5c-.33-.25-.65-.5-1.01-.7s-.76-.36-1.16-.49c-.68-.22-1.43-.32-2.15-.3-.39.02-.78.16-1.06.44-.26.26-.46.69-.44,1.06s.14.79.44,1.06.66.45,1.06.44c.29-.01.58,0,.87.04l-.4-.05c.44.06.86.18,1.26.35l-.36-.15c.39.17.75.37,1.09.63l-.3-.23.04.03c.14.15.3.25.48.31.18.09.37.14.58.13.37,0,.81-.16,1.06-.44s.46-.66.44-1.06c-.02-.37-.13-.82-.44-1.06h0Z" style="fill:#fff; stroke-width:0px;"/><path d="M326.54,337.14c-.61,4.24-2,8.28-3.45,12.29s-3,8.41-4.42,12.64c-2.82,8.41-5.42,16.9-7.8,25.45-.13.47.59.66.72.2,2.38-8.55,4.97-17.04,7.8-25.45,1.39-4.16,2.85-8.29,4.34-12.42s2.91-8.2,3.53-12.51c.07-.47-.65-.68-.72-.2h0Z" style="fill:#fff; stroke-width:0px;"/><path d="M327.92,345.66c-2.51,8.82-6.76,16.98-10.19,25.46s-5.6,18.04-7.05,27.44c-.07.47.65.68.72.2,1.45-9.4,3.47-18.6,7.05-27.44,3.44-8.47,7.68-16.63,10.19-25.46.13-.46-.59-.66-.72-.2h0Z" style="fill:#fff; stroke-width:0px;"/><path d="M330.82,348.05c-3.87,7.73-7.74,15.46-11.39,23.29-3.45,7.4-6.78,14.9-9.28,22.69-1.44,4.5-2.58,9.09-3.28,13.77-.07.47.65.68.72.2,2.49-16.45,10.16-31.75,17.41-46.54,2.13-4.35,4.3-8.69,6.47-13.02.22-.43-.43-.81-.65-.38h0Z" style="fill:#fff; stroke-width:0px;"/><path d="M307.15,373.1c6.33,4.49,13.22,8.11,20.5,10.79.45.17.65-.56.2-.72-7.22-2.65-14.05-6.26-20.32-10.71-.39-.28-.77.37-.38.65h0Z" style="fill:#fff; stroke-width:0px;"/><path d="M309.78,369.81c6.24,3.97,12.88,7.25,19.81,9.82.45.17.65-.56.2-.72-6.87-2.55-13.44-5.82-19.63-9.75-.41-.26-.79.39-.38.65h0Z" style="fill:#fff; stroke-width:0px;"/><path d="M225.35,399.8c.49.4.97.82,1.41,1.28.22.23.44.46.64.7.1.11.19.23.29.35.05.06.1.13.16.2.13.15-.22-.3-.02-.03.76,1.02,1.4,2.12,1.91,3.29.14.32.58.6.9.69.36.1.84.05,1.16-.15s.6-.51.69-.9c.1-.42.02-.76-.15-1.16-1.07-2.47-2.76-4.7-4.85-6.39-.32-.26-.63-.44-1.06-.44-.37,0-.81.16-1.06.44-.5.55-.65,1.59,0,2.12h0Z" style="fill:#fff; stroke-width:0px;"/><path d="M208.53,236.38c.17-.04.17-.05,0-.02h.13c.33.1-.18-.07.14,0,.28.07.55.14.83.21.6.16,1.19.33,1.79.49s1.19.33,1.79.49c.28.08.57.15.85.23.1.03.2.07.3.1.29.09-.25-.14.08.04.05.02.09.05.13.08.11.08.11.08,0,0-.1-.08-.1-.07,0,.02-.12-.17-.15-.21-.1-.11.05.1.03.05-.06-.13-.03-.09-.04-.17-.01-.26.02-.12.02-.11-.02.04-.05.14-.05.16-.02.05.08-.18-.1.18-.12.22-.06.12-.12.24-.18.36-.15.32-.29.65-.41.99-.39,1.12-.53,2.36-.42,3.54l2.56-1.06c-.98-.99-2.1-1.85-3.31-2.53-.66-.37-1.36-.68-2.07-.96-.14-.05-.28-.11-.43-.16-.1-.03-.21-.12.07.04-.12-.07-.18-.14.07.12l.16.17c.11.16.14.33.11.51.05.05-.04.11.02-.04.03-.07.05-.16.09-.23-.09.15-.08.19,0,.01.05-.12.11-.23.18-.34.04-.06.22-.38.12-.21-.13.22.11-.18.16-.16.04.02-.28.16-.06.05.25-.12-.22.06-.04.01.2-.05-.33,0-.08,0,.19,0-.06-.02-.07-.01.07-.03.2.06.02-.01.08.03.17.08.24.13.32.18.63.37.94.56s.64.39.95.59c.06.04.13.08.19.12s.19.2.11.06c-.03-.05-.1-.11-.14-.17-.22-.33-.16-.77.05-1.06.03-.04.31-.26.16-.17-.14.09.12-.05.12-.05-.23.09.03,0,.1,0,.06,0,.34.08.04,0-.34-.09-.66-.23-1.01-.29-.57-.11-1.12-.12-1.64.19-.73.43-.95,1.37-.64,2.12.36.85,1.23,1.53,2.02,1.95.57.31,1.36.26,1.82-.23s.6-1.24.23-1.82c-.75-1.18-1.79-2.18-3.05-2.8-.7-.35-1.66-.21-2.05.54-.36.68-.21,1.68.54,2.05.24.12.47.25.69.39.06.04.41.31.14.09.1.08.19.16.28.24.18.16.35.34.51.52.08.09.22.29.07.08.09.13.19.27.27.41l2.05-2.05c-.12-.06-.23-.13-.34-.2-.07-.05-.14-.1-.21-.15.11.09.13.1.05.03-.09-.1-.19-.18-.28-.27-.05-.05-.09-.1-.13-.15.15.17.23.38.24.62l-.2.76.04-.07-.54.54s-.49.2-.67.11c.06.03.18.04.25.06.17.05.33.11.5.16.51.16,1.03.22,1.56.11.95-.2,1.72-.94,1.86-1.91.17-1.24-.82-1.92-1.73-2.49-.65-.41-1.3-.86-2.01-1.18-.94-.42-1.99-.46-2.86.15-.63.44-1.08,1.06-1.39,1.76-.46,1.01-.75,2.15.12,3.06.32.33.72.5,1.14.65.16.06.32.11.48.17.08.03.16.06.24.1.16.06-.19-.09.06.03.71.33,1.4.71,2.05,1.15.18.12.36.25.53.38-.05-.04-.22-.17,0,0,.08.07.17.14.25.21.32.27.62.55.91.85.43.43,1.09.54,1.64.31.5-.21.98-.79.92-1.37-.03-.32-.05-.63-.04-.95,0-.18.02-.36.03-.54.03-.33-.06.21.02-.14.07-.31.13-.62.23-.92.05-.15.11-.3.16-.45.04-.1.03-.08-.02.05.04-.08.08-.16.12-.25.39-.79.77-1.52.58-2.44-.16-.73-.66-1.31-1.29-1.69-.53-.32-1.15-.48-1.74-.65-.7-.19-1.39-.38-2.09-.57s-1.39-.38-2.09-.57c-.79-.22-1.58-.34-2.39-.12-.76.2-1.3,1.08-1.05,1.85s1.03,1.26,1.85,1.05h0Z" style="fill:#fff; stroke-width:0px;"/><path d="M201.31,234.6c-1.57,3.33-3.15,6.69-4.19,10.23-.51,1.75-.87,3.53-1.05,5.34-.16,1.59-.07,3.3.9,4.63.48.65,1.3.98,2.05.54.64-.38,1.02-1.39.54-2.05-.77-1.06-.6-2.39-.44-3.62.21-1.59.6-3.16,1.08-4.68.96-3.06,2.33-5.97,3.69-8.87.82-1.74-1.77-3.26-2.59-1.51h0Z" style="fill:#fff; stroke-width:0px;"/><path d="M203.5,235.43c-.71,4.81-1.12,9.7-1.35,14.55-.1,2.21-.07,4.4.23,6.6.33,2.41.92,4.77,1.33,7.17.71,4.17,1.06,8.35,2.38,12.4s3.2,7.57,5.99,10.61c1.31,1.43,3.42-.7,2.12-2.12-2.63-2.87-4.36-6.38-5.47-10.08s-1.46-7.72-2.13-11.61c-.37-2.16-.9-4.28-1.22-6.45s-.33-4.34-.23-6.52c.22-4.58.57-9.21,1.25-13.76.28-1.89-2.61-2.7-2.89-.8h0Z" style="fill:#fff; stroke-width:0px;"/><path d="M214.8,231.11c-.13,2.35-.07,4.71.17,7.05.08.78.63,1.54,1.5,1.5.74-.03,1.59-.66,1.5-1.5-.25-2.34-.3-4.7-.17-7.05.04-.78-.72-1.53-1.5-1.5-.85.04-1.45.66-1.5,1.5h0Z" style="fill:#fff; stroke-width:0px;"/><path d="M214.55,243.32c-1.27,3.63-1.82,7.51-1.59,11.35.05.81.66,1.5,1.5,1.5.78,0,1.55-.69,1.5-1.5-.21-3.6.3-7.15,1.49-10.55.27-.76-.3-1.64-1.05-1.85-.83-.23-1.58.28-1.85,1.05h0Z" style="fill:#fff; stroke-width:0px;"/><path d="M217.39,293.34c1.1,4.29,2.38,8.53,3.86,12.7s3.48,8.09,4.36,12.36c.39,1.89,3.28,1.09,2.89-.8-.88-4.27-2.9-8.27-4.36-12.36s-2.76-8.41-3.86-12.7c-.48-1.87-3.37-1.08-2.89.8h0Z" style="fill:#fff; stroke-width:0px;"/><path d="M258.33,284.48c-.41,1.1-.9,2.17-1.46,3.21-.49.89-1.07,1.95-.3,2.87.31.37.84-.16.53-.53s-.15-.87.03-1.24c.21-.44.47-.85.69-1.28.47-.91.88-1.86,1.24-2.82.17-.45-.56-.65-.72-.2h0Z" style="fill:#fff; stroke-width:0px;"/><path d="M209.69,398.89c-2.14,5.49-4.88,10.73-7.59,15.97-.12.23-.24.46-.36.69-.28.56-.56,1.11-.85,1.66-.12.23-.23.46-.35.69-.26.51-.52,1.02-.77,1.53-.12.23-.23.46-.34.69-2.01,4.03-3.87,8.12-5.32,12.39-.22-.13-.45-.25-.67-.38,1.44-4.19,3.27-8.22,5.25-12.18.11-.23.22-.46.34-.69.25-.51.51-1.02.77-1.53.12-.23.24-.46.35-.69.29-.56.57-1.11.86-1.67.12-.23.24-.47.36-.7,2.71-5.25,5.46-10.48,7.6-15.98.18-.44.9-.25.72.2Z" style="fill:#fff; stroke-width:0px;"/><path d="M218.72,405.49c-1.94,4.08-3.89,8.16-5.65,12.31-.11.24-.21.47-.3.7-.2.47-.4.95-.59,1.42-.1.23-.19.46-.28.7-.21.5-.4,1-.6,1.51-.09.23-.18.46-.27.7-.04.11-.08.21-.12.32-1.94,5.11-3.62,10.4-4.12,15.85-.24-.11-.48-.22-.72-.33.54-5.4,2.2-10.65,4.11-15.72.04-.1.08-.2.12-.3.08-.24.17-.47.27-.7.19-.51.39-1.02.59-1.52.1-.24.19-.47.29-.7.19-.48.39-.95.59-1.43.1-.23.2-.47.3-.7,1.8-4.21,3.77-8.36,5.73-12.49.21-.43.85-.05.65.38Z" style="fill:#fff; stroke-width:0px;"/><path d="M220.29,411.67c-1.23,2.37-2.45,4.76-3.61,7.18-.11.22-.22.45-.33.68-.21.43-.42.87-.61,1.31-.12.23-.22.45-.32.68-.23.48-.45.97-.66,1.45-.11.23-.21.47-.32.7-2.13,4.84-3.97,9.8-5.21,14.92h0c-.12.46-.22.92-.32,1.37-.07-.03-.14-.06-.21-.09-.16-.08-.32-.15-.48-.22,1.25-5.57,3.2-10.94,5.49-16.17.11-.23.21-.46.31-.69.22-.49.44-.97.66-1.46.1-.22.21-.45.32-.68h0c.2-.44.41-.89.63-1.33h0c.1-.23.21-.46.33-.68,1.18-2.48,2.43-4.92,3.69-7.35.22-.43.87-.05.64.38Z" style="fill:#fff; stroke-width:0px;"/><path d="M224,412.42c-1.35,2.47-2.69,4.93-4.04,7.4-.12.22-.24.44-.36.67-.23.4-.45.8-.66,1.21-.13.22-.25.44-.37.67-.25.45-.5.9-.74,1.36-.13.23-.26.46-.38.7-1.18,2.15-2.36,4.3-3.53,6.46-1.64,3.02-3.25,6.09-4.53,9.28-.16-.07-.32-.14-.48-.21-.07-.03-.14-.06-.21-.09.17-.42.34-.84.53-1.27h0c1.14-2.63,2.47-5.18,3.83-7.7,1.21-2.23,2.42-4.45,3.63-6.67.12-.23.25-.46.38-.69.25-.46.5-.92.75-1.38.12-.23.25-.45.37-.67.22-.41.44-.82.67-1.22.12-.23.24-.45.36-.67,1.38-2.52,2.76-5.04,4.14-7.56.23-.42.87-.05.64.38Z" style="fill:#fff; stroke-width:0px;"/><path d="M231.05,421.48c-.17.55-.35,1.11-.53,1.66-.07.24-.14.48-.22.71-.11.34-.21.68-.32,1.01-.07.24-.15.48-.22.71-.14.43-.27.86-.4,1.28-.09.26-.17.52-.24.77-1,3.15-1.97,6.31-2.91,9.47-.84,2.81-1.83,5.7-2.58,8.63-.24-.08-.47-.16-.71-.24.73-2.75,1.63-5.46,2.42-8.12.99-3.32,2.01-6.63,3.05-9.94.08-.26.16-.53.25-.79.13-.42.26-.84.4-1.27.07-.24.15-.48.23-.72.1-.34.21-.68.32-1.02.07-.24.15-.47.22-.71.17-.54.35-1.09.52-1.63.14-.46.87-.27.72.2Z" style="fill:#fff; stroke-width:0px;"/><path d="M234.16,424.66c-.05.14-.1.29-.16.43-.1.3-.21.6-.32.9-.08.24-.17.47-.25.71-.16.43-.31.86-.47,1.29-.08.25-.17.49-.26.74-1.18,3.3-2.37,6.6-3.53,9.91-.91,2.6-1.98,5.28-2.68,8.02-.24-.07-.47-.15-.71-.23.68-2.56,1.65-5.07,2.51-7.52,1.21-3.48,2.45-6.95,3.7-10.41.09-.25.18-.5.26-.75.16-.43.31-.85.47-1.28.08-.23.17-.47.25-.7.11-.3.22-.61.33-.91.04-.13.09-.27.14-.4.05-.16.17-.23.3-.24.14-.03.29.02.35.12.09.08.12.19.07.32Z" style="fill:#fff; stroke-width:0px;"/><path d="M237.31,426.42c-.05.22-.09.45-.15.67-.05.25-.1.5-.17.74-.1.49-.22.98-.35,1.46-.06.24-.12.49-.18.73-1.6,6.07-3.87,11.96-5.43,18.03h-.01c-.24-.07-.47-.14-.71-.21,1.59-6.08,3.85-11.99,5.44-18.07.07-.25.13-.5.19-.74.12-.48.24-.95.34-1.43.07-.25.12-.49.17-.74.05-.21.1-.43.14-.64.1-.47.82-.27.72.2Z" style="fill:#fff; stroke-width:0px;"/><path d="M239.17,430.26c-8.73-3.52-18.07-5.75-27.2-7.97-9.27-2.25-18.59-4.26-27.86-6.49-5.29-1.28-10.57-2.63-15.81-4.13-.46-.13-.66.59-.2.72,18.33,5.27,37.15,8.6,55.52,13.69,5.16,1.43,10.36,2.9,15.34,4.91.45.18.64-.54.2-.72h0Z" style="fill:#fff; stroke-width:0px;"/><path d="M239.61,427.88c-17.67-5.79-35.72-10.42-54.01-13.83-5.2-.97-10.42-1.84-15.65-2.61-.47-.07-.68.65-.2.72,18.4,2.72,36.61,6.65,54.49,11.77,5.09,1.46,10.14,3.02,15.17,4.66.46.15.66-.57.2-.72h0Z" style="fill:#fff; stroke-width:0px;"/><path d="M234.82,424.58c-18.19-6.19-36.79-11.18-55.64-14.89-5.34-1.05-10.7-2-16.08-2.85-.47-.07-.68.65-.2.72,18.98,3,37.76,7.25,56.17,12.76,5.22,1.56,10.4,3.22,15.55,4.98.46.16.65-.57.2-.72h0Z" style="fill:#fff; stroke-width:0px;"/><path d="M269.71,409.95c-1.43,3.14-3.25,6.01-5.2,8.85-1.78,2.59-3.58,5.21-4.76,8.15-2.67,6.69-.6,13.89-1.29,20.83-.05.48.7.48.75,0,.67-6.87-1.39-14.01,1.26-20.63,1.17-2.94,3.02-5.55,4.8-8.14,1.91-2.78,3.67-5.6,5.08-8.67.2-.44-.45-.82-.65-.38h0Z" style="fill:#fff; stroke-width:0px;"/><path d="M263.84,412.02c-1.68,6.46-6.58,11.29-9.44,17.18s-2.79,12.8.49,18.6c.24.42.89.04.65-.38-3.54-6.26-3.06-13.36.39-19.52,2.92-5.21,7.1-9.78,8.63-15.69.12-.47-.6-.67-.72-.2h0Z" style="fill:#fff; stroke-width:0px;"/><path d="M261.52,413.12c.4,3.8-1.55,7.13-3.7,10.1-1.96,2.72-3.95,5.32-5.12,8.5-1.96,5.33-3.41,12.78.1,17.78.28.39.93.02.65-.38-1.87-2.66-2.16-5.91-1.86-9.07.33-3.44,1.16-7.02,2.68-10.13,2.72-5.53,8.7-10.03,7.99-16.79-.05-.48-.8-.48-.75,0h0Z" style="fill:#fff; stroke-width:0px;"/><path d="M286.57,393.77c.1,17.98-8.99,34-16.03,50-.19.44.45.82.65.38,7.09-16.12,16.23-32.26,16.13-50.38,0-.48-.75-.48-.75,0h0Z" style="fill:#fff; stroke-width:0px;"/><path d="M291.09,393.47c-1.43,15.8-6.42,31.06-13.29,45.3-1.78,3.68-3.65,7.34-4.13,11.45-.06.48.69.47.75,0,.46-3.97,2.32-7.53,4.03-11.08s3.22-6.97,4.65-10.53c2.88-7.2,5.22-14.62,6.81-22.22.89-4.27,1.54-8.59,1.93-12.93.04-.48-.71-.48-.75,0h0Z" style="fill:#fff; stroke-width:0px;"/><path d="M285.19,395.79c-.31,4.4-1.28,8.71-2.59,12.93-2.38,7.7-5.52,15.14-7.99,22.82-.98,3.04-1.9,6.11-2.72,9.21-.24.89-.47,1.78-.69,2.67-.07.3-.15.61-.22.91-.41,1.7-.79,3.41-1.13,5.12-.31,1.54-1.03,3.6-.57,5.22-.26-.01-.53-.03-.79-.05-.23-1.21.09-2.53.32-3.73.43-2.34.94-4.66,1.5-6.97,1.98-8.17,4.66-16.16,7.56-24.05,2.88-7.81,5.99-15.69,6.57-24.08.03-.48.78-.49.75,0Z" style="fill:#fff; stroke-width:0px;"/><path d="M285.58,414.36c-5.32,10.12-10.67,20.42-12.91,31.74-.09.47.63.67.72.2,2.22-11.25,7.54-21.49,12.83-31.56.22-.43-.42-.81-.65-.38h0Z" style="fill:#fff; stroke-width:0px;"/><path d="M197.72,255.17c-.09,1.63-.17,3.27-.27,4.9-.05.78-.1,1.55-.2,2.32-.02.14-.08.56-.14.8-.04.16-.08.32-.13.47.05-.1.04-.08-.04.09-.2.3-.07.23.41-.21h.8l-.13-.05.66.39c-.4-.33-.75-.73-1.09-1.12-.37-.43-.53-.63-.84-1.07-.28-.41-.55-.83-.79-1.27-.14-.24-.26-.49-.39-.74-.05-.1-.1-.2-.14-.3,0,.01-.18-.41-.12-.25-.31-.75-.99-1.28-1.85-1.05-.7.19-1.36,1.09-1.05,1.85.64,1.54,1.44,2.94,2.47,4.25.46.59.95,1.16,1.5,1.67.5.46,1.08.75,1.77.59.58-.13,1-.53,1.3-1.03.42-.68.6-1.47.71-2.25.13-.93.22-1.87.28-2.81.11-1.72.19-3.45.29-5.18.04-.78-.72-1.53-1.5-1.5-.85.04-1.45.66-1.5,1.5h0Z" style="fill:#fff; stroke-width:0px;"/><path d="M207.42,266.57c1,.05,2.03-.07,2.99-.35.36-.1.7-.36.9-.69s.27-.8.15-1.16-.34-.71-.69-.9-.76-.26-1.16-.15c-.37.1-.74.18-1.11.23l.4-.05c-.49.07-.99.09-1.48.06-.37-.02-.8.18-1.06.44s-.46.69-.44,1.06.14.79.44,1.06.65.42,1.06.44h0Z" style="fill:#fff; stroke-width:0px;"/><path d="M207.1,261.19c.18.04.37.06.56.08.06,0,.12,0,.18,0,.25,0,.51-.04.75-.1s.47-.16.68-.26c.11-.05.22-.12.32-.19.17-.09.32-.22.42-.39.13-.14.22-.31.27-.51.06-.2.07-.4.03-.6,0-.2-.07-.39-.18-.56l-.23-.3c-.19-.19-.41-.31-.66-.39l-.4-.05c-.27,0-.52.07-.76.2-.11.09-.24.16-.37.22l.36-.15c-.14.06-.28.1-.43.12l.4-.05c-.14.02-.29.02-.43,0l.4.05s-.07-.01-.11-.02c-.2-.06-.4-.07-.6-.03-.2,0-.39.07-.56.18-.17.09-.32.22-.42.39-.13.14-.22.31-.27.51l-.05.4c0,.27.07.52.2.76l.23.3c.19.19.41.31.66.39h0Z" style="fill:#fff; stroke-width:0px;"/><path d="M210.08,255.51c.43,0,.84-.06,1.27-.12.3-.04.59-.11.88-.19.37-.11.7-.36.9-.69.11-.17.17-.36.18-.56.04-.2.04-.4-.03-.6-.12-.36-.34-.71-.69-.9s-.76-.27-1.16-.15c-.31.09-.63.16-.95.2l.4-.05c-.27.03-.53.05-.8.06-.39,0-.79.16-1.06.44-.15.14-.25.3-.31.48-.09.18-.14.37-.13.58.02.39.14.79.44,1.06s.66.44,1.06.44h0Z" style="fill:#fff; stroke-width:0px;"/><path d="M208.4,252.96c.17-.05.33-.13.5-.2.05-.02.09-.05.13-.07.15-.1.28-.2.42-.32.04-.03.08-.07.11-.11.11-.13.22-.27.32-.42.03-.04.05-.09.07-.13.06-.14.12-.28.18-.42,0-.02.02-.05.02-.08.05-.17.06-.37.08-.54,0-.21-.04-.4-.13-.58-.06-.19-.16-.35-.31-.48-.14-.15-.3-.25-.48-.31-.18-.09-.37-.14-.58-.13l-.4.05c-.25.07-.47.2-.66.39l-.23.3c-.14.23-.2.49-.2.76h0c.02-.12.04-.25.05-.39-.01.08-.04.17-.07.25l.15-.36c-.04.08-.08.16-.14.23l.23-.3c-.06.07-.12.13-.19.19l.3-.23c-.07.05-.15.1-.23.14l.36-.15s-.07.03-.1.04c-.2.05-.37.14-.51.27-.16.11-.29.25-.39.42-.11.17-.17.36-.18.56-.04.2-.04.4.03.6l.15.36c.13.23.31.4.54.54l.36.15c.27.07.53.07.8,0h0Z" style="fill:#fff; stroke-width:0px;"/><path d="M207.84,247.72l.25-.17c.17-.09.32-.22.42-.39.13-.14.22-.31.27-.51.06-.2.07-.4.03-.6,0-.2-.07-.39-.18-.56l-.23-.3c-.19-.19-.41-.31-.66-.39l-.4-.05c-.27,0-.52.07-.76.2l-.25.17c-.17.09-.32.22-.42.39-.13.14-.22.31-.27.51-.06.2-.07.4-.03.6,0,.2.07.39.18.56l.23.3c.19.19.41.31.66.39l.4.05c.27,0,.52-.07.76-.2h0Z" style="fill:#fff; stroke-width:0px;"/><path d="M232.3,412.02c.84.5,1.74.11,2.5-.37,1.08-.68,2.13-1.41,3.19-2.12,2.14-1.42,4.28-2.84,6.42-4.26.4-.27.03-.92-.38-.65-1.88,1.25-3.76,2.5-5.64,3.74-.91.6-1.82,1.21-2.72,1.81-.72.48-2.07,1.74-2.99,1.19-.42-.25-.79.4-.38.65h0Z" style="fill:#fff; stroke-width:0px;"/><path d="M422.01,382.27c-.15.21-.3.42-.44.62-2.59-1.01-5.25-1.86-7.78-3.02-.08-.04-.16-.07-.23-.12-.19-.08-.37-.16-.55-.27-1.84-.91-3.5-2.07-5.11-3.3-.4-.3-.8-.61-1.19-.93-.68-.53-1.35-1.06-2.03-1.6-1.56-1.23-3.19-2.42-4.98-3.3-1.93-.95-4-1.4-6.13-1.65-3.67-.43-7.4-.42-10.83-1.99-.44-.2-.06-.84.37-.64,3.78,1.72,8.01,1.44,12.02,2.1,3.66.59,6.68,2.31,9.58,4.55,1.17.92,2.32,1.85,3.49,2.74.38.29.75.57,1.13.84,1.57,1.15,3.21,2.19,5.03,3.01,2.5,1.12,5.11,1.96,7.65,2.96Z" style="fill:#fff; stroke-width:0px;"/><path d="M392.44,385.33c.74,6.22,1.16,12.47,1.27,18.73,0,.37.5.51.7.19.37-.61.53-1.21.52-1.91,0-.48-.76-.48-.75,0,0,.57-.12,1.04-.42,1.54l.7.19c-.11-6.26-.53-12.51-1.27-18.73-.06-.47-.81-.48-.75,0h0Z" style="fill:#fff; stroke-width:0px;"/><path d="M405.3,390.68c-.64,3.61-1.24,7.23-1.79,10.86-.15.95-.29,1.91-.43,2.86-.28.28-.57.57-.86.84.07-.58.16-1.15.24-1.72.64-4.36,1.35-8.71,2.12-13.04.08-.48.8-.27.72.2Z" style="fill:#fff; stroke-width:0px;"/><path d="M408.33,393.22c-.05,1.92-.1,3.84-.14,5.76v.15c-.25.27-.51.55-.77.82,0-.17,0-.34.01-.51.05-2.07.1-4.15.15-6.22.01-.48.76-.48.75,0Z" style="fill:#fff; stroke-width:0px;"/><path d="M412.37,392.78c-.04.61-.08,1.22-.13,1.83-.27.31-.54.63-.82.94.08-.92.14-1.85.2-2.77.03-.48.78-.48.75,0Z" style="fill:#fff; stroke-width:0px;"/><path d="M389.21,379.69c3.75-1.87,7.96-2.67,12.14-2.3s7.78,2.53,11.88,2.86c.48.04.48-.71,0-.75-2.42-.19-4.64-1.14-6.93-1.86-1.87-.59-3.81-.95-5.77-1.06-4.05-.22-8.08.66-11.7,2.46-.43.21-.05.86.38.65h0Z" style="fill:#fff; stroke-width:0px;"/><path d="M391.27,377.17c2.62-2.38,5.96-2.98,9.39-2.43,3.16.51,6.21,1.62,9.45,1.57.48,0,.48-.76,0-.75-3.64.06-7.06-1.39-10.65-1.73-3.22-.3-6.3.62-8.71,2.8-.36.33.17.85.53.53h0Z" style="fill:#fff; stroke-width:0px;"/><path d="M417.97,387.66c-.23.29-.46.58-.69.87h0c-1.06.07-2.12.01-3.19-.27-2.63-.69-5.07-2.11-7.6-3.07-5.35-2.04-11.47-3.15-16.76-.33-.43.22-.81-.42-.38-.65,4.73-2.52,10.22-2.09,15.18-.5,2.8.89,5.41,2.22,8.14,3.28,1.82.71,3.55.85,5.3.67Z" style="fill:#fff; stroke-width:0px;"/><path d="M235.62,339.55l-.25,3.44c-.01.2.18.38.38.38.22,0,.36-.17.38-.38l.25-3.44c.01-.2-.18-.38-.38-.38-.22,0-.36.17-.38.38h0Z" style="fill:#fff; stroke-width:0px;"/><path d="M236.97,342c-.06.55-.03,1.11.08,1.66.04.19.28.32.46.26.2-.07.3-.25.26-.46-.01-.06-.03-.13-.04-.19,0-.03-.01-.07-.02-.1v.04s0-.04,0-.06c-.01-.12-.02-.25-.03-.38-.01-.26,0-.51.03-.77.02-.2-.19-.38-.38-.38-.22,0-.35.17-.38.38h0Z" style="fill:#fff; stroke-width:0px;"/><path d="M238.42,343.12c-.17.84-.19,1.69-.05,2.54.03.19.28.32.46.26.21-.07.29-.25.26-.46-.11-.68-.09-1.46.05-2.14.04-.19-.06-.41-.26-.46-.19-.04-.42.06-.46.26h0Z" style="fill:#fff; stroke-width:0px;"/><path d="M239.43,344.57c-.14.71-.03,1.44.32,2.08.09.17.35.24.51.13s.24-.33.13-.51c-.03-.06-.07-.13-.1-.19-.02-.04-.02-.04,0,0,0-.02-.02-.04-.02-.06-.01-.03-.02-.06-.03-.09-.05-.14-.08-.29-.11-.43,0-.02,0-.03,0-.05,0,.05,0,.05,0,0,0-.04,0-.07,0-.11,0-.07,0-.14,0-.22s0-.14.01-.22c0-.02,0-.13,0-.04,0-.04.01-.08.02-.12.04-.19-.05-.41-.26-.46-.19-.04-.42.06-.46.26h0Z" style="fill:#fff; stroke-width:0px;"/><path d="M241.11,345.35c-.14.74-.11,1.5.11,2.22.06.19.27.33.46.26s.32-.26.26-.46c-.05-.15-.09-.31-.11-.47,0-.05-.02-.1-.02-.15,0,.07,0-.03,0-.05,0-.08-.02-.16-.02-.24,0-.16,0-.32,0-.48,0-.08.01-.16.02-.24,0-.09,0,.03,0-.05,0-.05.02-.1.03-.15.04-.19-.05-.41-.26-.46-.18-.04-.42.06-.46.26h0Z" style="fill:#fff; stroke-width:0px;"/><path d="M243.07,346.78c-.09.8.13,1.65.6,2.31.11.16.33.25.51.13.16-.1.26-.34.13-.51-.1-.14-.19-.3-.27-.46,0-.01-.06-.14-.03-.07-.02-.04-.03-.09-.05-.13-.03-.08-.06-.17-.08-.25s-.04-.17-.06-.26c0-.02,0-.05-.01-.07,0,.04,0,.04,0,0,0-.04,0-.08-.01-.12-.01-.18,0-.37.02-.55.02-.2-.19-.38-.38-.38-.22,0-.35.17-.38.38h0Z" style="fill:#fff; stroke-width:0px;"/><path d="M244.74,348.33c-.07.62.15,1.24.55,1.71.13.15.4.14.53,0,.15-.16.14-.37,0-.53-.01-.01-.02-.02-.03-.04-.02-.03-.02-.02.02.02,0,0-.05-.07-.05-.08-.03-.05-.07-.11-.1-.16-.01-.03-.03-.06-.04-.08,0-.01-.01-.03-.02-.04.02.05.03.06.01.02-.02-.06-.04-.11-.06-.17s-.03-.11-.04-.17c0-.03,0-.07-.02-.09,0,.06,0,.07,0,.03,0-.02,0-.03,0-.05-.01-.13,0-.25,0-.38,0-.09-.05-.2-.11-.27-.07-.07-.17-.11-.27-.11-.22,0-.35.17-.38.38h0Z" style="fill:#fff; stroke-width:0px;"/><path d="M246.08,349.43l.11.67c.01.09.1.18.17.22.08.05.2.07.29.04s.18-.09.22-.17l.04-.09c.02-.07.02-.13,0-.2l-.11-.67c-.01-.09-.1-.18-.17-.22-.08-.05-.2-.07-.29-.04s-.18.09-.22.17l-.04.09c-.02.07-.02.13,0,.2h0Z" style="fill:#fff; stroke-width:0px;"/><path d="M247.2,349.33c0,.65.15,1.29.46,1.86.09.17.35.24.51.13.18-.11.23-.33.13-.51-.03-.06-.07-.12-.1-.19,0-.02-.06-.13-.02-.05-.01-.03-.02-.06-.03-.08-.05-.13-.09-.26-.13-.4-.02-.07-.03-.14-.04-.21,0-.03-.01-.06-.01-.09,0-.04,0-.04,0,.01,0-.02,0-.04,0-.06-.02-.14-.02-.28-.02-.42,0-.2-.17-.38-.38-.38s-.37.16-.38.38h0Z" style="fill:#fff; stroke-width:0px;"/><path d="M248.89,350.58c-.16.58-.09,1.21.19,1.75.09.17.35.24.51.13.18-.11.23-.33.13-.51-.02-.03-.03-.06-.04-.09,0-.01-.01-.03-.02-.04.02.05.02.06.01.03-.02-.06-.04-.12-.06-.17-.02-.06-.03-.11-.04-.17,0-.02,0-.05-.01-.07,0-.04,0-.03,0,.03,0-.02,0-.03,0-.05-.01-.11-.01-.23,0-.34,0-.02.02-.08,0-.1,0,.06,0,.07,0,.03v-.02c.02-.06.03-.13.05-.19.05-.19-.06-.42-.26-.46s-.4.06-.46.26h0Z" style="fill:#fff; stroke-width:0px;"/><path d="M250.64,352c.05.34.15.67.33.96s.43.53.72.71c.17.1.42.04.51-.13.1-.18.04-.4-.13-.51-.03-.02-.06-.04-.09-.06-.01,0-.02-.02-.03-.02-.06-.04.05.04.02.02-.05-.04-.1-.08-.14-.13-.05-.05-.09-.1-.14-.15-.03-.04.01.02.02.03-.01-.01-.02-.03-.03-.04-.02-.03-.04-.06-.06-.08-.04-.05-.07-.11-.1-.17-.01-.03-.03-.05-.04-.08-.03-.06,0,0,0,.02,0-.01-.01-.03-.02-.05-.05-.12-.08-.25-.1-.38v.1s.01-.01.01-.02c-.01-.1-.03-.19-.11-.27-.07-.07-.17-.11-.27-.11s-.2.04-.27.11c-.06.07-.12.17-.11.27h0Z" style="fill:#fff; stroke-width:0px;"/><path d="M253.03,352.66c.03.06.04.13.06.19,0,.03,0,.02,0,0v.04s0,.07,0,.11c0,.14-.01.27-.03.41-.03.26-.05.52.02.77.06.23.18.47.36.63.22.2.48.27.78.22.19-.03.32-.28.26-.46-.07-.21-.25-.3-.46-.26.04,0,.06,0,0,0-.07,0,.01,0,.01,0,0,0-.04-.01-.05-.01-.06-.01.03.03.01,0,0,0-.05-.02-.05-.03,0,0,.06.06.02.01-.01-.02-.03-.03-.05-.05,0,0-.04-.06-.01-.01.03.05-.01-.02-.02-.03-.01-.02-.02-.04-.03-.06,0-.02-.02-.03-.02-.05-.02-.04.02.07,0,0-.01-.04-.03-.08-.04-.12,0-.02-.02-.05-.01-.07,0,.03,0,.06,0,0-.02-.48.15-.96-.04-1.42-.07-.18-.25-.33-.46-.26-.18.06-.34.27-.26.46h0Z" style="fill:#fff; stroke-width:0px;"/><path d="M255.32,353.9c-.07.32-.05.66.06.96.13.33.34.61.63.82.07.05.2.06.29.04s.18-.09.22-.17c.1-.19.04-.39-.13-.51-.01,0-.06-.05,0,0,.05.04.01,0,0,0-.02-.02-.04-.04-.07-.06s-.04-.04-.06-.06c-.01-.01-.02-.03-.03-.04-.04-.04.02.03.02.03-.01,0-.04-.06-.05-.07-.02-.02-.03-.05-.05-.08-.02-.03-.03-.06-.04-.09,0,0-.02-.03-.02-.04,0,0,.04.09.01.03-.02-.06-.04-.11-.05-.17,0-.03-.01-.06-.02-.09-.01-.05,0,.03,0,.04,0-.02,0-.03,0-.05,0-.06,0-.12,0-.18,0-.03,0-.06,0-.09,0,0-.01.09,0,.04,0-.02,0-.04.01-.06.04-.19-.06-.41-.26-.46-.19-.04-.42.06-.46.26h0Z" style="fill:#fff; stroke-width:0px;"/><path d="M258.07,354.17c-.24.57-.22,1.25.15,1.77s.95.8,1.56.77c.2-.01.38-.16.38-.38,0-.19-.17-.39-.38-.38-.06,0-.11,0-.17,0-.02,0-.05,0-.07,0,.08.03,0,0-.02,0-.05-.01-.11-.02-.16-.04-.02,0-.05-.02-.07-.02-.09-.03.07.04-.02,0-.04-.02-.09-.05-.13-.07-.03-.02-.05-.03-.08-.05-.06-.04.03.02,0,0-.04-.04-.08-.07-.12-.11-.02-.02-.03-.04-.05-.06,0-.01-.02-.02-.03-.03.02.03.03.04.01.02-.03-.05-.06-.09-.09-.14-.01-.02-.02-.05-.03-.07-.02-.04.02.06,0,0-.02-.05-.04-.11-.05-.16,0-.02-.01-.05-.02-.07,0-.02-.01-.11,0-.02,0-.11-.01-.22,0-.34,0,.05,0,.03,0,0,0-.03.01-.05.02-.07,0-.03.02-.06.03-.09,0-.02.04-.1,0-.03.08-.18.06-.41-.13-.51-.16-.08-.43-.06-.51.13h0Z" style="fill:#fff; stroke-width:0px;"/><path d="M260.73,355.33c.04.93.71,1.79,1.62,2.03.19.05.42-.06.46-.26s-.06-.41-.26-.46c-.05-.01-.09-.03-.14-.04-.01,0-.06-.03-.07-.03.01,0,.08.04.01,0-.08-.04-.16-.08-.24-.13-.02-.01-.03-.02-.05-.03-.07-.05.03.02,0,0-.03-.03-.07-.06-.1-.08-.07-.06-.13-.13-.19-.2-.04-.04,0-.02,0,.01,0-.02-.03-.04-.04-.06-.02-.04-.05-.07-.07-.11s-.04-.08-.06-.11c-.01-.02-.02-.04-.03-.06-.04-.08.03.08,0,0s-.06-.16-.08-.25c0-.02-.01-.05-.01-.07,0-.01,0-.02,0-.04,0-.03,0-.02,0,.04,0-.04,0-.1-.01-.14,0-.2-.17-.38-.38-.38-.2,0-.38.17-.38.38h0Z" style="fill:#fff; stroke-width:0px;"/><path d="M265.33,355.43c.2,1.01,1.2,1.79,2.23,1.75.2,0,.38-.17.38-.38,0-.2-.17-.38-.38-.38-.05,0-.11,0-.16,0-.03,0-.05,0-.08,0h-.03s-.03,0,.02,0c-.02.01-.11-.02-.14-.03-.05-.01-.09-.02-.14-.04-.02,0-.05-.02-.07-.03-.01,0-.02,0-.04-.01-.03-.01-.02,0,.03.01-.03-.03-.1-.05-.14-.07-.04-.02-.08-.05-.12-.07-.02-.01-.04-.03-.07-.04-.01,0-.02-.02-.03-.02.04.03.05.04.02.02-.08-.07-.15-.13-.22-.21-.02-.02-.04-.04-.05-.06s-.08-.07,0,0c-.03-.03-.06-.08-.08-.12-.03-.04-.05-.08-.07-.13-.01-.02-.02-.05-.04-.07,0-.01-.01-.02-.02-.04-.01-.03,0-.02.01.03,0-.04-.04-.11-.05-.15-.01-.05-.03-.1-.04-.15-.04-.19-.28-.32-.46-.26-.21.07-.3.25-.26.46h0Z" style="fill:#fff; stroke-width:0px;"/><path d="M269.57,356.3c.46.64,1.12,1.11,1.88,1.3.19.05.42-.06.46-.26s-.06-.41-.26-.46c-.08-.02-.16-.04-.24-.07-.04-.01-.07-.03-.11-.04-.02,0-.04-.02-.06-.02-.04-.02.07.03,0,0-.15-.07-.29-.15-.43-.24-.03-.02-.06-.04-.1-.07-.02-.01-.03-.03-.05-.04.02.01.05.04.01.01-.06-.05-.13-.11-.18-.16s-.12-.12-.17-.18c-.03-.03-.06-.07-.08-.1-.03-.04,0,0,.01.01,0-.02-.03-.05-.05-.06-.11-.16-.33-.25-.51-.13-.16.1-.26.34-.13.51h0Z" style="fill:#fff; stroke-width:0px;"/><path d="M274.6,356.5c-.28.52-.1,1.22.42,1.51.17.1.42.05.51-.13s.05-.41-.13-.51c-.03-.02-.06-.04-.09-.06l.08.06s-.08-.08-.12-.12l.06.08c-.04-.06-.08-.12-.1-.18l.04.09c-.03-.07-.04-.13-.05-.2v.1c0-.07,0-.14.01-.21v.1c0-.06.01-.12.04-.17l-.04.09s.02-.04.03-.06c.09-.17.05-.42-.13-.51s-.41-.05-.51.13h0Z" style="fill:#fff; stroke-width:0px;"/><path d="M276.65,356.57c-.07.48-.05.96.08,1.43.05.19.27.32.46.26s.32-.26.26-.46c-.04-.13-.07-.27-.08-.4v.1c-.02-.26-.02-.52.01-.78v.1s0-.03,0-.05c.02-.1.02-.19-.04-.29-.05-.08-.13-.15-.22-.17-.1-.02-.2-.02-.29.04-.08.05-.16.13-.17.22h0Z" style="fill:#fff; stroke-width:0px;"/><path d="M234.93,339.35c-.23,1.19-.31,2.38-.26,3.59.02.43.6.5.74.1.31-.88.36-1.73.2-2.65-.06-.35-.67-.36-.72,0-.23,1.62-.17,3.19.18,4.78.08.36.64.36.72,0,.35-1.55.45-3.09.27-4.67-.06-.48-.69-.48-.75,0-.13,1.1.05,2.09.5,3.1.13.28.64.22.69-.09.14-.9.2-1.8.19-2.71,0-.48-.75-.48-.75,0,0,1.26.13,2.49.43,3.71.11.45.69.29.74-.1.14-1.12.1-2.21-.11-3.33-.08-.44-.71-.3-.74.1-.08,1.1.18,2.1.76,3.03.17.28.59.22.69-.09.22-.7.25-1.31.13-2.03-.07-.42-.76-.32-.74.1.08,1.28.38,2.46.9,3.63.16.37.68.15.7-.19l.14-2.49-.74.1c.19,1.03.52,2,.97,2.94.14.3.61.21.69-.09.26-.97.24-1.89-.05-2.85-.13-.41-.71-.32-.74.1-.08,1.16.07,2.26.45,3.35.12.35.6.36.72,0,.29-.85.51-1.71.67-2.6h-.72c.25,1.19.51,2.36.95,3.5.13.35.6.36.72,0,.29-.86.41-1.69.36-2.59-.03-.48-.73-.49-.75,0-.04,1.07.06,2.11.31,3.16.08.34.67.38.72,0,.13-.92.13-1.81,0-2.74-.06-.42-.74-.31-.74.1.02,1.44.4,2.76,1.14,3.99.18.29.58.21.69-.09.36-.97.54-1.95.56-2.98.01-.48-.73-.48-.75,0-.04,1.06.05,2.09.27,3.13.07.36.65.36.72,0,.19-.97.16-1.87-.14-2.81-.13-.42-.7-.31-.74.1-.06.64-.06,1.27,0,1.91.05.47.78.49.75,0-.06-1.1-.29-2.14-.72-3.16-.12-.29-.65-.41-.72,0-.17,1.04-.1,2.02.27,3.01.13.35.6.36.72,0,.21-.61.41-1.22.62-1.84l-.69.09c.33.7.61,1.41.86,2.15.14.42.69.32.74-.1s.02-.78-.05-1.19-.74-.32-.74.1c.01.88.11,1.73.28,2.59.07.35.67.37.72,0,.13-.88.16-1.73.09-2.62l-.74.1c.32.81,1.03,1.95,2,2.09.92.13,1.19-.74,1.16-1.49-.02-.5-.69-.47-.75,0-.15,1.12-.12,2.22.04,3.33.05.36.66.36.72,0,.2-1.19.14-2.31-.21-3.46-.08-.27-.42-.36-.63-.17l-.79.76.63.17-.26-.83c-.13-.4-.73-.33-.74.1-.02.78.05,3.13,1.17,3.29,1.03.15,1.36-1.86,1.45-2.49l-.74-.1c-.12,1.04.06,1.97.51,2.91.12.25.53.24.65,0,.27-.54.41-1.06.45-1.67l-.74.1.26,1.11c.1.43.71.31.74-.1.03-.55,0-1.07-.11-1.62-.07-.39-.62-.32-.72,0-.17.5-.29,1-.37,1.52-.07.48.54.65.72.2.2-.5.46-.92.78-1.35l-.69-.09c.25.67.42,1.35.53,2.05.06.4.61.31.72,0,.16-.43.24-.84.27-1.3h-.75l.05,1.77c.01.4.67.54.74.1.11-.72.09-1.34-.09-2.05-.1-.4-.77-.33-.74.1.06.69.24,1.24.64,1.81.14.21.52.28.65,0,.24-.54.38-1.05.44-1.64l-.74.1.36,1.74c.09.43.72.31.74-.1s.01-.78-.03-1.19l-.74.1.36,1.46c.11.44.69.29.74-.1l.15-1.2-.74.1c.14.61.35,1.16.65,1.71.15.27.62.23.69-.09l.29-1.52-.74-.1c0,.89.14,1.7.47,2.53.12.31.64.4.72,0,.17-.83.17-1.61.01-2.44-.08-.41-.76-.32-.74.1.03.65.19,1.18.53,1.74.21.35.66.16.7-.19.07-.57.08-1.12.03-1.7-.04-.47-.78-.49-.75,0,.06.83.21,1.59.52,2.36.16.4.69.33.74-.1.05-.51.07-1,.05-1.51l-.7.19.62,1.13c.2.37.81.12.69-.29l-.31-1.05c-.14-.47-.81-.27-.72.2.12.69.35,1.3.71,1.9.16.27.6.23.69-.09.17-.66.3-1.32.39-1.99h-.72l.54,1.36c.18.44.9.25.72-.2l-.54-1.36c-.12-.29-.67-.41-.72,0-.09.68-.22,1.33-.39,1.99l.69-.09c-.33-.55-.52-1.1-.63-1.72l-.72.2.31,1.05.69-.29-.62-1.13c-.18-.32-.71-.18-.7.19.01.51,0,1-.05,1.51l.74-.1c-.28-.71-.44-1.4-.49-2.17h-.75c.05.58.05,1.13-.03,1.7l.7-.19c-.26-.44-.4-.84-.42-1.37l-.74.1c.13.71.13,1.33-.01,2.05h.72c-.3-.76-.45-1.51-.44-2.33,0-.41-.65-.52-.74-.1l-.29,1.52.69-.09c-.27-.49-.45-.98-.58-1.53-.1-.45-.69-.29-.74.1l-.15,1.2.74-.1-.36-1.46c-.1-.4-.78-.33-.74.1s.05.78.03,1.19l.74-.1-.36-1.74c-.09-.44-.7-.29-.74.1-.03.44-.14.87-.34,1.27h.65c-.31-.45-.49-.87-.53-1.43l-.74.1c.14.56.17,1.07.09,1.65l.74.1-.05-1.77c-.01-.48-.72-.48-.75,0-.02.42-.1.72-.24,1.1h.72c-.11-.71-.29-1.38-.53-2.05-.12-.32-.49-.35-.69-.09-.36.48-.63.97-.86,1.53l.72.2c.08-.52.2-1.02.37-1.52h-.72c.09.51.11.91.08,1.42l.74-.1-.26-1.11c-.1-.43-.71-.31-.74.1-.03.5-.13.84-.35,1.29h.65c-.4-.82-.51-1.63-.41-2.53.05-.42-.68-.52-.74-.1-.05.33-.1.65-.2.97s-.11.92-.48.68c-.53-.34-.47-1.72-.46-2.25l-.74.1.26.83c.09.27.42.37.63.17l.79-.76-.63-.17c.31,1.02.39,2,.21,3.06h.72c-.16-1.06-.15-2.08-.02-3.13h-.75l-.4.71c-.19-.09-.35-.21-.5-.36-.37-.33-.61-.69-.79-1.15-.14-.36-.78-.36-.74.1.07.82.06,1.6-.06,2.42h.72c-.16-.8-.25-1.58-.26-2.39l-.74.1c.07.33.08.66.02.99l.74-.1c-.27-.8-.58-1.57-.94-2.33-.15-.31-.59-.19-.69.09-.21.61-.41,1.22-.62,1.84h.72c-.32-.87-.42-1.7-.27-2.61h-.72c.4.96.63,1.91.69,2.96h.75c-.06-.64-.07-1.27,0-1.91l-.74.1c.25.81.31,1.57.14,2.41h.72c-.2-.98-.28-1.94-.24-2.93h-.75c-.03.97-.2,1.87-.54,2.78l.69-.09c-.68-1.12-1.02-2.3-1.04-3.61l-.74.1c.11.79.11,1.55,0,2.34h.72c-.24-.99-.33-1.95-.29-2.96h-.75c.05.83-.06,1.6-.33,2.39h.72c-.43-1.14-.7-2.31-.95-3.5-.07-.35-.66-.36-.72,0-.16.89-.38,1.75-.67,2.6h.72c-.36-1.04-.5-2.06-.42-3.16l-.74.1c.26.84.28,1.6.05,2.45l.69-.09c-.43-.89-.72-1.79-.9-2.76-.08-.43-.71-.3-.74.1l-.14,2.49.7-.19c-.47-1.05-.72-2.11-.8-3.25l-.74.1c.1.59.05,1.08-.13,1.63l.69-.09c-.52-.84-.73-1.66-.66-2.65l-.74.1c.2,1.06.22,2.06.08,3.13l.74-.1c-.28-1.16-.41-2.32-.4-3.51h-.75c.01.85-.04,1.67-.17,2.51l.69-.09c-.4-.89-.51-1.77-.4-2.73h-.75c.17,1.51.1,2.99-.24,4.47h.72c-.32-1.45-.39-2.91-.18-4.39h-.72c.13.78.06,1.51-.2,2.25l.74.1c-.05-1.15.02-2.26.23-3.39.09-.47-.63-.67-.72-.2h0Z" style="fill:#fff; stroke-width:0px;"/><path d="M255.76,353.63l.22,1.19c.06.31.55.37.69.09.28-.56.52-1.14.73-1.73l-.74-.1c-.03.6-.1,1.19-.19,1.78l.74.1c.07-.59.1-1.17.09-1.77,0-.49-.71-.47-.75,0-.07.7.06,1.3.36,1.94.13.26.51.22.65,0,.32-.52.56-1.05.73-1.64h-.72c.14.63.31,1.24.52,1.84.12.35.61.37.72,0,.18-.57.24-1.1.2-1.7-.03-.4-.65-.54-.74-.1-.13.71-.18,1.39-.13,2.12.03.42.6.51.74.1.22-.7.35-1.39.39-2.12l-.74.1c.1.64.38,1.88,1.16,1.99.19.03.31-.02.42-.17.32-.42.29-.9.21-1.39-.06-.36-.66-.35-.72,0-.1.52-.1.98,0,1.5.08.37.63.34.72,0,.16-.57.17-1.06.04-1.64-.1-.45-.69-.29-.74.1-.06.54-.13,1.77.61,1.94.63.14,1.12-.86,1.44-1.25l-.64-.27c.01.62.09,1.2.24,1.8.07.3.54.38.69.09.26-.52.36-.98.29-1.56-.05-.39-.63-.55-.74-.1-.14.57-.09,1.04.14,1.57.11.25.54.25.65,0,.2-.47.29-.86.28-1.37-.01-.4-.67-.53-.74-.1-.1.65-.02,1.17.3,1.74.14.25.51.24.65,0,.37-.62.53-1.23.49-1.95-.03-.48-.77-.48-.75,0,.04.77.28,2.1,1.24,2.14.13,0,.26-.07.32-.19.25-.44.29-.96.31-1.46h-.75c.06.65.25,1.19.63,1.71.15.21.51.28.65,0,.23-.46.32-.85.27-1.37-.04-.38-.67-.55-.74-.1-.08.54-.16,1.95.61,2.12.97.21.95-1.54.93-2.05l-.74.1c.15.52.5,1.49,1.17,1.49.71,0,.71-1.03.64-1.52s-.7-.48-.75,0c-.08.7.12,1.8.97,1.95,1,.18,1.36-1.08,1.27-1.83-.05-.37-.67-.56-.74-.1-.08.58.06,2.12,1,1.98.87-.13.62-1.52.4-2.04-.16-.38-.67-.13-.7.19-.05.58.23,1.93,1.08,1.72.91-.22.31-1.2-.21-1.43l-.29.69c.72.27,1.37.21,2.05-.11l-.56-.32c-.06.48-.16,1.33.47,1.47.71.15.99-.9,1.13-1.39l-.74-.1c-.02.5,0,1.93.85,1.78.7-.12.69-1.49.72-2,.02-.43-.63-.51-.74-.1-.21.82.12,1.76,1.07,1.86.74.07,1.29-.56,1.2-1.27-.05-.41-.59-.52-.74-.1-.19.54-.21,1.01-.09,1.56.07.31.54.37.69.09.23-.45.35-.88.38-1.39h-.75c-.01.42.08.76.3,1.12.17.28.59.22.69-.09.1-.34.21-.67.31-1.01l-.63.17.15.17c.33.36.86-.17.53-.53l-.15-.17c-.2-.22-.55-.09-.63.17-.1.34-.21.67-.31,1.01l.69-.09c-.17-.22-.24-.47-.2-.74.02-.48-.72-.48-.75,0,0,.36-.09.7-.28,1.01l.69.09c-.09-.43-.05-.76.09-1.16l-.74-.1-.8-.38-.74-.1c-.02.36-.06.71-.16,1.06l.13-.05c-.06-.26-.07-.52-.04-.79.02-.43-.62-.5-.74-.1l-.09.3c-.29.46-.34.6-.15.43,0,.01.11-.6.11-.61.04-.31-.34-.43-.56-.32-.54.25-.96.23-1.47.03-.39-.15-.68.51-.29.69.61.27.23-.62.26-.94l-.7.19c.43.98-.19,1.02-.03-.12l-.74-.1c.15.43-.09.63-.72.6-.06-.24-.06-.48-.02-.72h-.75c.09.69-.24.19-.35-.17-.11-.4-.75-.33-.74.1,0,.24.07.95-.03,1.03.03.17.02.11-.03-.16-.07-.24-.07-.49,0-.74l-.74-.1c.07.34.02.67-.17.99h.65c-.3-.41-.48-.82-.53-1.33-.05-.47-.74-.49-.75,0,0,.16-.02.69-.08.66-.23-.1-.28-1.01-.29-1.16h-.75c.03.59-.08,1.07-.38,1.57h.65c-.24-.35-.32-.74-.23-1.17l-.74-.1c.04.34-.02.67-.17.99h.65c-.16-.33-.18-.66-.07-1l-.74-.1c.06.44.02.78-.19,1.19l.69.09c-.13-.53-.2-1.05-.21-1.6,0-.29-.43-.53-.64-.27-.25.31-.58.94-.95,1.12h.38c-.34-.16-.23-.97-.2-1.27l-.74.1c.1.44.08.81-.04,1.24h.72c-.1-.37-.1-.73,0-1.1h-.72l-.14.81.42-.17c-.43-.06-.59-1.13-.64-1.47-.07-.44-.71-.3-.74.1-.04.67-.16,1.29-.36,1.92l.74.1c-.05-.65-.02-1.27.1-1.92l-.74-.1c.04.53-.02,1-.17,1.51h.72c-.21-.61-.38-1.22-.52-1.84-.08-.37-.62-.34-.72,0-.16.53-.37,1-.66,1.46h.65c-.25-.52-.31-1-.26-1.56h-.75c0,.59-.02,1.18-.09,1.77-.05.42.67.52.74.1.11-.66.18-1.31.22-1.98.02-.44-.6-.48-.74-.1-.18.53-.4,1.05-.65,1.55l.69.09-.22-1.19c-.09-.47-.81-.27-.72.2h0Z" style="fill:#fff; stroke-width:0px;"/><path d="M226.13,310.06c.18-.29.24-.53.21-.87-.04-.49-.7-.48-.75,0-.05.43,0,.78.14,1.19.09.27.55.41.69.09.15-.35.23-.64.25-1.02.03-.42-.67-.52-.74-.1s-.09.82-.07,1.25.58.49.74.1l.42-1.07h-.72l.31.96c.1.32.5.35.69.09s.31-.51.41-.82l-.74-.1c0,.4.02.78.07,1.18.04.35.5.54.7.19s.36-.7.49-1.09l-.74-.1c0,.45.07.86.19,1.29.08.28.55.4.69.09.15-.35.26-.68.32-1.06l-.74-.1c-.02.47-.05.95-.07,1.42-.02.36.54.53.7.19l.46-.98-.7-.19c.05.42.09.84.14,1.27.04.38.47.5.7.19.22-.29.37-.59.49-.92l-.74-.1c0,.61,0,1.21.04,1.81.02.38.49.5.7.19.24-.36.39-.7.49-1.11l-.74-.1c-.02.47-.05.94-.07,1.41-.02.44.6.48.74.1l.37-1.04-.74-.1-.09,1.21c-.03.41.5.46.7.19l.77-1.07h-.65c.11.2.2.42.26.64.1.32.5.35.69.09.21-.3.42-.6.63-.9l-.69-.09c.08.19.15.39.23.58.12.3.5.38.69.09.22-.34.39-.68.54-1.05l-.74-.1c-.02.38-.04.76-.06,1.14-.02.36.54.53.7.19l.49-1.09-.7-.19c.01.42.06.81.14,1.22.05.26.46.38.63.17.4-.5.78-1.02,1.15-1.54l-.69-.09c.07.33.14.66.21.99s.53.35.69.09c.25-.4.49-.8.74-1.2l-.69-.09c.07.21.11.3.28.44.15.12.38.16.53,0,.21-.23.36-.44.5-.72l-.69-.29c-.12.39-.13.73-.04,1.13.05.26.45.38.63.17.38-.45.76-.91,1.14-1.36l-.64-.27c0,.37.05.72.13,1.08s.51.33.69.09c.37-.49.71-.99,1.04-1.5l-.7-.19c.05.5.26,1.05.88.93.29-.06.49-.29.7-.47.07-.06.56-.56.68-.5.15.07.11.31.13.49.03.31.39.51.64.27.39-.39.7-.8.94-1.3l-.69-.29c-.06.32-.05.73.31.87.52.2.92-.56,1.17-.87l-.64-.27c0,.42.08.77.28,1.14.12.22.42.23.59.08.2-.19.31-.37.36-.64l-.74-.1c-.03.32-.02.36.03.67.05.27.45.37.63.17.15-.18.2-.25.31-.46l-.7-.19c-.01.36,0,.71.04,1.06.03.33.52.56.7.19.1-.21.13-.27.16-.5.07-.48-.55-.65-.72-.2-.26.65-.56,1.28-.9,1.89l.69.29c.04-.26.13-.51.24-.75l-.69-.29-.22,1.64c-.05.4.45.68.69.29l.57-.94-.69-.29c-.22.7-.5,1.36-.85,2.01l.65.38c.11-.27.22-.45.42-.67l-.59-.45-.85,1.7c-.15.3.18.75.51.51l.6-.44-.51-.51c-.29.66-.54,1.33-.76,2.01-.09.3.28.61.55.42.29-.2.49-.4.64-.73.19-.43-.4-.81-.65-.38-.2.35-.34.7-.45,1.09s.35.6.63.36c.22-.19.39-.37.57-.6l-.59-.45-.95,1.72c-.22.39.27.72.59.45l.68-.55-.63-.36c-.07.3-.15.59-.22.89-.06.25.18.57.46.46.21-.08.31-.12.5-.24l-.45-.59c-.41.52-.5,1.05-.6,1.69-.07.44-.23.88.11,1.23s.87-.18.53-.53c-.2-.2.39-1.74.49-1.87.25-.31-.06-.83-.45-.59l-.32.17.46.46c.07-.3.15-.59.22-.89.1-.39-.35-.59-.63-.36l-.68.55.59.45c.32-.57.63-1.14.95-1.72.2-.36-.31-.8-.59-.45-.18.22-.36.41-.57.6l.63.36c.09-.33.21-.62.37-.91l-.65-.38c-.06.2-.18.35-.37.46l.55.42c.2-.62.42-1.23.68-1.83.13-.3-.17-.76-.51-.51l-.6.44.51.51.85-1.7c.18-.36-.29-.78-.59-.45-.23.25-.41.51-.54.83-.18.43.41.82.65.38.38-.7.68-1.43.92-2.19.13-.41-.47-.65-.69-.29l-.57.94.69.29.22-1.64c.05-.37-.49-.72-.69-.29-.14.31-.24.6-.32.93-.09.4.47.67.69.29.37-.67.69-1.36.97-2.07l-.72-.2-.09.32.7.19c-.04-.36-.05-.71-.04-1.06s-.53-.52-.7-.19l-.19.3.63.17v-.47c.04-.42-.66-.51-.74-.1l-.17.31.59.08c-.15-.23-.21-.49-.18-.76,0-.3-.43-.53-.64-.27s-.42.58-.7.79l.36-.1.11.04c.08-.39-.48-.69-.69-.29-.22.44-.48.8-.83,1.14l.64.27c-.05-.46.03-1.24-.56-1.35-.25-.05-.48.09-.69.21-.18.11-.36.23-.53.36-.07.05-.59.53-.61.33-.03-.36-.49-.52-.7-.19-.33.52-.67,1.02-1.04,1.5l.69.09c-.07-.3-.1-.58-.1-.88s-.42-.52-.64-.27c-.38.45-.76.91-1.14,1.36l.63.17c-.07-.25-.06-.49.04-.73.12-.4-.5-.68-.69-.29-.08.22-.21.41-.38.57h.53l-.09-.11c-.1-.31-.51-.37-.69-.09-.25.4-.49.8-.74,1.2l.69.09c-.07-.33-.14-.66-.21-.99s-.51-.33-.69-.09c-.33.47-.68.93-1.04,1.39l.63.17c-.07-.34-.1-.68-.11-1.02s-.54-.55-.7-.19l-.49,1.09.7.19c.02-.38.04-.76.06-1.14.02-.46-.59-.46-.74-.1-.13.32-.28.58-.47.87l.69.09c-.08-.19-.15-.39-.23-.58-.12-.31-.49-.37-.69-.09-.21.3-.42.6-.63.9l.69.09c-.09-.29-.2-.55-.33-.82s-.5-.21-.65,0l-.77,1.07.7.19.09-1.21c.03-.45-.6-.48-.74-.1l-.37,1.04.74.1c.02-.47.05-.94.07-1.41.02-.42-.64-.51-.74-.1-.08.35-.21.64-.42.94l.7.19c-.03-.61-.05-1.21-.04-1.81,0-.45-.59-.48-.74-.1-.11.29-.24.5-.42.74l.7.19c-.05-.42-.09-.84-.14-1.27-.04-.33-.52-.56-.7-.19l-.46.98.7.19c.02-.47.05-.95.07-1.42.02-.41-.67-.52-.74-.1-.05.31-.12.58-.24.88l.69.09c-.1-.36-.15-.71-.16-1.09,0-.43-.6-.5-.74-.1-.11.32-.24.61-.41.91l.7.19c-.05-.39-.07-.78-.07-1.18,0-.44-.6-.49-.74-.1-.07.24-.18.45-.34.64l.69.09-.31-.96c-.12-.37-.59-.34-.72,0l-.42,1.07.74.1c-.02-.37-.01-.69.04-1.05l-.74-.1-.15.64.69.09c-.12-.34-.15-.63-.11-.99h-.75l-.11.49c-.25.42.4.79.65.38h0Z" style="fill:#fff; stroke-width:0px;"/><path d="M241.29,319.58c.03.13.02.27-.03.4l.72.2c.02-.17.09-.32.23-.44l-.63-.36-.25.92c-.1.36.37.64.63.36l.88-.92-.64-.27c-.04.37-.15.81-.07,1.17.04.16.2.27.36.28.46,0,.76-.65,1-.96l-.69-.09c.1.38-.11.71.03,1.1.09.24.43.4.63.17.28-.33.55-.67.82-1.01l-.64-.27c.06.49-.24.9-.11,1.4.07.28.42.35.63.17.31-.28.5-.6.62-1l-.74-.1-.1.91c-.03.31.44.51.64.27.26-.33.44-.66.54-1.07h-.72c.14.42.1.93.63,1.06.59.15,1.16-.52,1.57-.84l-.55-.42c-.07.42-.13.84-.19,1.26-.04.3.34.44.56.32.44-.24.74-.6,1.04-.99l-.7-.19c0,.44-.15,1.26.42,1.41.53.14,1.13-.5,1.44-.85l-.63-.17c.06.39.05,1.11.61,1.08.45-.02.79-.59.94-.94l-.7-.19c0,.39-.09,1.05.44,1.13.49.08.81-.53,1.05-.86l-.69-.09c.1.47.33.98.86,1.06.42.06.77-.16.9-.55l-.72-.2c-.1.44-.08.99.45,1.14.56.16.83-.46.94-.9h-.72c.03.25.11.46.24.67.14.24.51.25.65,0,.13-.23.25-.47.36-.71l-.69-.09c.18.5.44.92.82,1.28.35.33.88-.2.53-.53-.29-.27-.5-.58-.63-.95-.1-.27-.54-.41-.69-.09-.11.25-.22.48-.36.71h.65c-.1-.16-.14-.3-.17-.49-.05-.38-.64-.34-.72,0-.09.16-.07.21.06.16.11-.47-.57-.66-.72-.2-.07.19-.31-.52-.31-.51-.07-.35-.51-.33-.69-.09-.08.12-.17.24-.26.35-.16.1-.15.18.04.23.28.24.14-.3.14-.47,0-.34-.54-.55-.7-.19-.05.11-.23.58-.39.56l.32.19c-.08-.18-.09-.51-.12-.7-.04-.28-.45-.36-.63-.17s-.57.68-.86.64l.32.19c-.11-.17-.04-.65-.05-.86,0-.4-.49-.47-.7-.19s-.44.55-.77.72l.56.32c.05-.35.1-.7.16-1.06.05-.28-.26-.65-.55-.42-.23.18-.59.59-.87.66-.17.05-.04.13-.15-.06-.05-.09-.05-.27-.09-.38-.11-.33-.63-.38-.72,0-.07.28-.17.51-.35.74l.64.27.1-.91c.05-.43-.63-.5-.74-.1-.08.28-.21.48-.42.67l.63.17c-.1-.39.19-.8.14-1.2-.03-.28-.41-.55-.64-.27-.27.34-.54.67-.82,1.01l.63.17c-.13-.34.06-.73-.03-1.1-.09-.34-.5-.33-.69-.09-.05.06-.5.59-.35.59l.36.28c-.06-.26.07-.7.1-.97.04-.33-.43-.49-.64-.27l-.88.92.63.36.25-.92c.1-.35-.37-.64-.63-.36-.21.23-.35.46-.42.77-.11.47.6.67.72.2.05-.2.07-.38.06-.6-.04-.48-.79-.48-.75,0h0Z" style="fill:#fff; stroke-width:0px;"/><path d="M252.67,322.37c.52.21.91-.13.92-.66,0-.44-.61-.49-.74-.1-.08.23-.13.44-.17.68-.07.41.44.66.69.29s.34-.73.31-1.17c-.02-.38-.49-.5-.7-.19-.19.28-.32.56-.43.88-.1.3.29.61.55.42.2-.14.73-.67.97-.6.15.04.17.35.33.48.47.38,1.19-.3,1.58-.54l-.55-.42c-.05.19-.12.38-.21.56-.17.37.27.78.59.45.18-.19.28-.36.38-.6.16-.41-.47-.63-.69-.29s-.51,1,.03,1.22c.51.21,1.4-.41,1.84-.61l-.55-.42c-.03.19-.05.38-.08.56-.04.28.25.64.55.42.26-.19.51-.39.76-.61l-.64-.27c-.01.83.81.92,1.44.69l-.47-.36c.03.34-.11.74.31.9.39.15.83-.26,1.11-.48l-.63-.36c-.07.37-.22.92.32,1,.5.07,1.08-.64,1.39-.95l-.63-.17c.1.38.15.7.58.83.36.11.69-.04.99-.23l-.55-.42c-.05.19-.09.38-.14.58-.08.34.37.67.63.36l.37-.45-.64-.27c.03.37-.1.87.39,1.01s1.11-.54,1.46-.79l-.56-.32c.03.23.04.42,0,.65-.06.38.49.71.69.29.11-.23.22-.45.35-.67l-.59.08c.26.3.25.7.75.71s.65-.44.98-.71l-.63-.17c.04.16.09.33.13.49.09.34.5.33.69.09.13-.17-.04-.01.18.05.11.03.2.09.32.08.25,0,.39-.15.53-.34.29-.39-.36-.76-.65-.38.19,0,.22-.05.07-.14l-.08-.06c-.1-.07-.26-.09-.38-.07-.29.03-.47.27-.64.48l.69.09c-.04-.16-.09-.33-.13-.49-.08-.29-.42-.34-.63-.17-.08.06-.33.42-.41.41,0,0-.23-.37-.26-.41-.16-.18-.47-.12-.59.08-.13.22-.24.44-.35.67l.69.29c.05-.29.06-.56.02-.85-.03-.25-.3-.51-.56-.32-.22.16-.59.33-.75.54-.26.12-.25.18.03.16.02-.09.02-.18,0-.27-.03-.29-.41-.54-.64-.27l-.37.45.63.36c.05-.19.09-.38.14-.58.07-.31-.26-.6-.55-.42-.23.14-.4.11-.47-.16s-.43-.36-.63-.17c-.14.14-.29.28-.44.42-.1.09-.49.27-.34.31l.26.26c.01-.1.03-.21.05-.31.07-.38-.33-.6-.63-.36-.15.15-.33.25-.53.31l.36.1s.03-.36.03-.29c-.02-.22-.23-.45-.47-.36-.15.09-.32.1-.49.03,0-.34-.41-.47-.64-.27-.2.17-.39.33-.61.49l.55.42c.03-.19.05-.38.08-.56.05-.34-.24-.56-.55-.42-.14.06-1.13.59-1.21.53l.19.32c.01-.17.07-.32.17-.44l-.69-.29-.18.27.59.45c.12-.24.21-.48.28-.74.09-.31-.27-.59-.55-.42-.18.11-.39.2-.55.33-.16.02-.22.08-.16.18.03.1.03.09,0-.04,0,0-.14-.33-.16-.36-.09-.11-.14-.15-.29-.2-.64-.24-1.26.41-1.73.74l.55.42c.09-.27.2-.47.35-.7l-.7-.19c.02.29-.05.54-.21.79l.69.29c.04-.24.09-.45.17-.68l-.74-.1.03-.07c-.45-.18-.64.54-.2.72h0Z" style="fill:#fff; stroke-width:0px;"/><path d="M266.06,323.07c.16.11.34.2.52.24s.39.07.58.04c.1-.01.19-.03.27-.11.07-.07.11-.17.11-.27s-.04-.2-.11-.27c-.07-.06-.17-.12-.27-.11-.11.01-.22.01-.33,0h.1c-.11,0-.22-.03-.32-.07l.09.04c-.09-.04-.18-.09-.26-.15-.07-.05-.2-.06-.29-.04s-.18.09-.22.17c-.05.09-.07.19-.04.29s.09.16.17.22h0Z" style="fill:#fff; stroke-width:0px;"/><path d="M455,280c0,38.18-12.23,73.51-32.99,102.27-.15.21-.3.42-.44.62-1.18,1.61-2.37,3.19-3.6,4.76h0c-.23.3-.46.59-.69.88h0c-1.64,2.07-3.31,4.09-5.04,6.08-.27.31-.54.63-.82.94-.12.14-.24.27-.36.41-.18.21-.37.42-.55.62-.76.86-1.54,1.71-2.32,2.55-.25.27-.51.55-.77.82-1.42,1.51-2.87,2.99-4.34,4.45-.28.28-.57.57-.86.84-3.73,3.65-7.63,7.13-11.67,10.43-1.7,1.38-3.42,2.73-5.17,4.04-1.28.98-2.58,1.94-3.89,2.87-9.75,6.96-20.25,12.93-31.35,17.79-1.72.76-3.46,1.49-5.22,2.19-1.2.48-2.4.94-3.61,1.39-.18.08-.36.14-.55.21-1.51.56-3.03,1.1-4.56,1.62-.12.04-.23.08-.34.11-.72.25-1.41.49-2.13.72h-.04c-6.41,2.06-12.99,3.77-19.7,5.09-.24.05-.49.1-.74.14-4.75.92-9.57,1.64-14.44,2.16-.26.03-.52.06-.79.09-.3.02-.6.05-.91.08-.27.03-.54.06-.81.08-.05.01-.1.01-.16.02-.25.02-.51.04-.77.07-5.06.43-10.19.66-15.37.66-3.6,0-7.17-.11-10.72-.33-.26-.01-.53-.03-.79-.05-7.78-.5-15.42-1.51-22.9-3.01-.97-.19-1.95-.39-2.92-.6-3.93-.86-7.81-1.84-11.64-2.96h-.01c-.24-.07-.47-.14-.71-.21-1.28-.38-2.55-.77-3.82-1.18-.24-.07-.47-.15-.71-.23-.72-.23-1.44-.47-2.15-.71-.24-.08-.47-.16-.71-.24-4.6-1.59-9.11-3.36-13.53-5.31-.16-.07-.32-.14-.48-.21-.07-.03-.14-.06-.21-.09-.16-.08-.32-.15-.48-.22-.48-.22-.95-.43-1.43-.65-.24-.11-.48-.22-.72-.33-4.07-1.91-8.06-3.96-11.96-6.16-.22-.13-.45-.25-.67-.38-5.07-2.89-9.97-6.02-14.71-9.39-.19-.14-.38-.27-.57-.41,0,0-.03-.02-.04-.03-.18-.13-.37-.26-.55-.4-2.56-1.85-5.07-3.76-7.52-5.75-.19-.16-.39-.32-.59-.48-.79-.64-1.57-1.29-2.34-1.95-1.44-1.21-2.86-2.45-4.26-3.71-.83-.75-1.65-1.5-2.46-2.26-.13-.12-.25-.23-.37-.35h-.01c-.33-.31-.64-.61-.96-.92-.15-.14-.3-.28-.44-.43h-.01c-.21-.2-.4-.39-.6-.58-.41-.4-.82-.8-1.22-1.2-.6-.59-1.18-1.18-1.76-1.77-.43-.44-.86-.88-1.28-1.32s-.84-.88-1.26-1.32c-.26-.28-.52-.55-.78-.83-.45-.49-.9-.99-1.36-1.48-1.15-1.27-2.28-2.56-3.4-3.87-.91-1.06-1.81-2.14-2.7-3.23-.66-.81-1.31-1.62-1.95-2.44-23.37-29.74-37.3-67.25-37.3-108.01,0-96.65,78.35-175,175-175s175,78.35,175,175Z" style="fill:none; stroke-width:0px;"/></svg>