<svg xmlns="http://www.w3.org/2000/svg" xmlns:xlink="http://www.w3.org/1999/xlink" width="129.012" height="60" viewBox="0 0 129.012 60">
  <defs>
    <clipPath id="clip-path">
      <path id="Path_13973" data-name="Path 13973" d="M478.442,118.179s-1.363-10.882-1.689-12.5c-.287-1.434-3.541-13.358-3.557-13.4a4.781,4.781,0,0,0-4.317-3.36s-19.758-.77-20.842-.77h-.021c-1.084,0-20.842.77-20.842.77a4.781,4.781,0,0,0-4.317,3.36c-.016.045-3.27,11.969-3.557,13.4-.325,1.614-1.689,12.5-1.689,12.5a4.786,4.786,0,0,0,4.554,5.349s25,.655,25.861.655,25.861-.655,25.861-.655a4.786,4.786,0,0,0,4.554-5.349Z" transform="translate(-417.579 -88.15)" fill="none"/>
    </clipPath>
  </defs>
  <g id="logo" transform="translate(-473 -702)">
    <path id="Union_3" data-name="Union 3" d="M4.587,35.378A4.787,4.787,0,0,1,.034,30.029S1.4,19.147,1.722,17.533C2.009,16.1,5.263,4.174,5.278,4.129A4.781,4.781,0,0,1,9.6.769S29.355,0,30.437,0h.022C31.543,0,51.3.769,51.3.769a4.779,4.779,0,0,1,4.317,3.36c.016.045,3.27,11.969,3.557,13.4.326,1.614,1.689,12.5,1.689,12.5a4.787,4.787,0,0,1-4.554,5.349s-25,.655-25.86.655S4.587,35.378,4.587,35.378ZM25.564,2.742c-4.41.16-10.926.41-15.846.6A2.214,2.214,0,0,0,7.749,4.866c-.292,1.043-3.256,11.955-3.5,13.175C4.024,19.156,3.135,26,2.591,30.34A2.208,2.208,0,0,0,4.68,32.8c9.988.261,25.077.651,25.771.653s15.778-.392,25.766-.653A2.208,2.208,0,0,0,58.3,30.34c-.544-4.336-1.433-11.184-1.657-12.3-.245-1.22-3.209-12.132-3.5-13.175A2.219,2.219,0,0,0,51.18,3.343c-4.92-.191-11.436-.441-15.846-.6h0l-.794,2.314a1.222,1.222,0,0,1-1.189.732h-5.8a1.223,1.223,0,0,1-1.19-.732l-.794-2.314Zm4.384-.153c.251-.007.419-.011.491-.011h.019l.254,0-.254,0h-.02C30.365,2.578,30.2,2.582,29.947,2.589Z" transform="translate(507.058 709.226)" fill="#222"/>
    <g id="Group_593" data-name="Group 593" transform="translate(478.816 728.638)">
      <path id="Path_13976" data-name="Path 13976" d="M1187.652,325.95a6.572,6.572,0,0,1-6.569,6.569H1160c-.273-2.129-.613-4.717-.875-6.569Z" transform="translate(-1070.272 -325.95)" fill="#474747"/>
      <path id="Path_13977" data-name="Path 13977" d="M70.955,325.95H99.482c-.262,1.851-.6,4.437-.875,6.569H77.524A6.572,6.572,0,0,1,70.955,325.95Z" transform="translate(-70.955 -325.95)" fill="#474747"/>
    </g>
    <g id="Group_594" data-name="Group 594" transform="translate(484.633 735.969)">
      <path id="Path_13978" data-name="Path 13978" d="M1189.762,415.646a6.57,6.57,0,0,1-6.569,6.574H1167.76a6.11,6.11,0,0,0,.652-3.549c-.018-.147-.173-1.379-.384-3.025Z" transform="translate(-1084.016 -415.646)" fill="#6a6a6a"/>
      <path id="Path_13979" data-name="Path 13979" d="M163.926,422.219H148.493a6.57,6.57,0,0,1-6.569-6.573h21.734c-.211,1.648-.367,2.883-.385,3.032a6.1,6.1,0,0,0,.653,3.542Z" transform="translate(-141.924 -415.645)" fill="#6a6a6a"/>
    </g>
    <g id="Group_595" data-name="Group 595" transform="translate(473 721.302)">
      <path id="Path_13980" data-name="Path 13980" d="M1174.813,236.208a6.574,6.574,0,0,1-6.574,6.574h-27.881c-.1-.657-.177-1.161-.231-1.429-.117-.581-.678-2.726-1.322-5.145Z" transform="translate(-1045.801 -236.208)" fill="#222"/>
      <path id="Path_13981" data-name="Path 13981" d="M0,236.208H36.009c-.647,2.424-1.208,4.571-1.322,5.143-.054.268-.134.772-.231,1.431H6.574A6.574,6.574,0,0,1,0,236.208Z" transform="translate(0 -236.208)" fill="#222"/>
    </g>
    <g id="Group_596" data-name="Group 596" transform="translate(491.608 748.575)">
      <path id="Path_13982" data-name="Path 13982" d="M227.019,583.3l6.48-13.157,6.48,13.157h-2.928l-.964-1.981h-5.195l-.964,1.981Zm4.891-4.32h3.16l-1.589-3.267Z" transform="translate(-227.019 -570.145)" fill="#87c232"/>
      <path id="Path_13983" data-name="Path 13983" d="M389.709,620.891h2.7v5.141a1.642,1.642,0,1,0,3.285,0v-5.141h2.7v5.373a3.441,3.441,0,0,1-1.25,2.874,4.786,4.786,0,0,1-3.088,1,4.872,4.872,0,0,1-3.107-1,3.48,3.48,0,0,1-1.232-2.874Z" transform="translate(-376.374 -616.731)" fill="#87c232"/>
      <path id="Path_13984" data-name="Path 13984" d="M510.039,591.3v-6.587h-1.2V582.3h1.2v-3.445h2.589V582.3h1.982v2.41h-1.981V591.3Z" transform="translate(-485.833 -578.144)" fill="#87c232"/>
      <path id="Path_13985" data-name="Path 13985" d="M592.732,619.017a4.41,4.41,0,0,1,1.464,3.374,4.474,4.474,0,0,1-1.464,3.392,5.255,5.255,0,0,1-7.087,0,4.521,4.521,0,0,1-1.446-3.392,4.457,4.457,0,0,1,1.446-3.374,5.205,5.205,0,0,1,7.087,0Zm-5.2,5.052a2.371,2.371,0,0,0,3.321,0,2.332,2.332,0,0,0,.678-1.678,2.262,2.262,0,0,0-.678-1.66,2.328,2.328,0,0,0-3.321,0,2.263,2.263,0,0,0-.678,1.66A2.3,2.3,0,0,0,587.537,624.07Z" transform="translate(-555.043 -613.733)" fill="#87c232"/>
      <path id="Path_13986" data-name="Path 13986" d="M748.855,591.3V578.859h4.713a6.529,6.529,0,0,1,4.874,1.732,6.781,6.781,0,0,1,.018,9.033,6.6,6.6,0,0,1-4.874,1.678Zm2.749-2.5h1.8c2.928,0,4-1.41,4-3.7a3.929,3.929,0,0,0-.911-2.749,4.024,4.024,0,0,0-3.107-1H751.6Z" transform="translate(-706.261 -578.145)" fill="#87c232"/>
      <path id="Path_13987" data-name="Path 13987" d="M908.013,620.269v-1.178h2.66v9h-2.66V626.91c-.268.785-1.321,1.339-2.678,1.339a4.259,4.259,0,0,1-3.2-1.339,4.731,4.731,0,0,1-1.268-3.321,4.657,4.657,0,0,1,1.268-3.3,4.211,4.211,0,0,1,3.2-1.357C906.692,618.93,907.745,619.484,908.013,620.269Zm-.536,4.927a2.151,2.151,0,0,0,.7-1.607,2.085,2.085,0,0,0-.7-1.589,2.247,2.247,0,0,0-1.66-.661,2.194,2.194,0,0,0-1.625.661,2.116,2.116,0,0,0-.661,1.589,2.183,2.183,0,0,0,.661,1.607,2.25,2.25,0,0,0,1.625.643A2.3,2.3,0,0,0,907.477,625.2Z" transform="translate(-845.865 -614.931)" fill="#87c232"/>
      <path id="Path_13988" data-name="Path 13988" d="M1042,591.3V578.859h2.66v7.212l2.66-3.767h3l-3.124,4.338,3.339,4.659H1047.5l-2.838-4.017V591.3Z" transform="translate(-975.469 -578.145)" fill="#87c232"/>
      <path id="Path_13989" data-name="Path 13989" d="M1151.723,620.269v-1.178h2.66v9h-2.66V626.91c-.268.785-1.321,1.339-2.678,1.339a4.259,4.259,0,0,1-3.2-1.339,4.73,4.73,0,0,1-1.267-3.321,4.657,4.657,0,0,1,1.267-3.3,4.211,4.211,0,0,1,3.2-1.357C1150.4,618.93,1151.456,619.484,1151.723,620.269Zm-.535,4.927a2.15,2.15,0,0,0,.7-1.607,2.085,2.085,0,0,0-.7-1.589,2.247,2.247,0,0,0-1.66-.661,2.194,2.194,0,0,0-1.625.661,2.116,2.116,0,0,0-.661,1.589,2.183,2.183,0,0,0,.661,1.607,2.251,2.251,0,0,0,1.625.643,2.305,2.305,0,0,0,1.661-.643Z" transform="translate(-1069.713 -614.931)" fill="#87c232"/>
      <path id="Path_13990" data-name="Path 13990" d="M1285.71,627.691v-9h2.66v1.232a2.681,2.681,0,0,1,2.606-1.428,5.9,5.9,0,0,1,.7.054v2.5a4.573,4.573,0,0,0-.892-.089,2.17,2.17,0,0,0-2.41,2.339v4.392Z" transform="translate(-1199.273 -614.534)" fill="#87c232"/>
    </g>
    <g id="Group_597" data-name="Group 597" transform="translate(524.721 721.291)">
      <path id="Path_13991" data-name="Path 13991" d="M638.369,249.626l2.954-6.311,2.015,4.283h3.376l-5.367-11.391L633.076,253h10.775l-1.587-3.373Z" transform="translate(-633.076 -236.208)" fill="#87c232"/>
      <path id="Path_13992" data-name="Path 13992" d="M771.642,238.545a8.815,8.815,0,0,0-6.576-2.335h-6.359l3.71,7.873v-4.5h2.408c2,0,3.4.456,4.192,1.348a5.307,5.307,0,0,1,1.228,3.71c0,2.96-1.332,4.833-4.936,4.977l.006.01h-5.69L761.212,253h3.878a14.134,14.134,0,0,0,1.828-.116v0a.58.58,0,0,0,.059-.01c.221-.03.44-.065.651-.105l.063-.014c.2-.041.391-.085.578-.136.034-.01.069-.018.1-.026.2-.057.4-.118.588-.184.026-.01.051-.02.077-.028.178-.065.351-.136.519-.211.02-.008.04-.016.061-.026.18-.081.355-.17.525-.266l.075-.043c.166-.1.328-.195.485-.3l.012-.008c.16-.11.312-.227.462-.349.022-.018.045-.036.067-.057.148-.124.292-.251.428-.387q.137-.137.268-.28c.041-.045.079-.091.12-.138s.077-.087.113-.132c.065-.077.126-.154.187-.235.01-.014.022-.028.034-.043.061-.083.12-.166.178-.251a.287.287,0,0,0,.022-.03,7.616,7.616,0,0,0,1.04-2.268,10.037,10.037,0,0,0,.349-2.718A8.154,8.154,0,0,0,771.642,238.545Z" transform="translate(-748.409 -236.21)" fill="#87c232"/>
    </g>
    <g id="Group_598" data-name="Group 598" transform="translate(532.621 702)">
      <path id="Path_13993" data-name="Path 13993" d="M783.435,1a.5.5,0,1,0-.5-.5A.5.5,0,0,0,783.435,1Z" transform="translate(-778.549 0)" fill="#87c232"/>
      <path id="Path_13994" data-name="Path 13994" d="M729.747,21.645a.294.294,0,1,0-.294-.294A.294.294,0,0,0,729.747,21.645Z" transform="translate(-729.453 -19.331)" fill="#87c232"/>
      <path id="Path_13995" data-name="Path 13995" d="M841.776,21.645a.294.294,0,1,0-.294-.294A.294.294,0,0,0,841.776,21.645Z" transform="translate(-832.299 -19.331)" fill="#87c232"/>
      <path id="Path_13996" data-name="Path 13996" d="M743.568,15.341l-.757,3.871c-2-.071-3.411-.119-3.691-.119H739.1c-.28,0-1.693.047-3.691.119l-.757-3.871,1.988,1.988,2.47-3.243,2.472,3.243Z" transform="translate(-734.223 -12.931)" fill="#87c232"/>
    </g>
  </g>
</svg>
