<svg width="100" height="100" viewBox="0 0 100 100" fill="none" xmlns="http://www.w3.org/2000/svg">
<path d="M47.5955 22.7537C49.034 21.7488 50.966 21.7488 52.4045 22.7537L54.3949 24.1442C55.295 24.773 56.4148 25.0231 57.5045 24.8387L59.9143 24.431C61.656 24.1364 63.3966 24.9567 64.2471 26.4729L65.4239 28.5707C65.956 29.5194 66.854 30.2202 67.9176 30.5168L70.2695 31.1726C71.9693 31.6466 73.1739 33.1247 73.2679 34.8519L73.3979 37.2416C73.4568 38.3223 73.9551 39.3349 74.7818 40.0537L76.6101 41.6431C77.9314 42.7919 78.3613 44.6351 77.6802 46.2311L76.7378 48.4394C76.3116 49.438 76.3116 50.562 76.7378 51.5606L77.6802 53.7689C78.3613 55.3649 77.9314 57.2081 76.6101 58.3569L74.7818 59.9463C73.9551 60.6651 73.4568 61.6778 73.3979 62.7584L73.2679 65.1481C73.1739 66.8753 71.9693 68.3534 70.2695 68.8274L67.9176 69.4832C66.854 69.7798 65.956 70.4806 65.4239 71.4292L64.2471 73.5271C63.3966 75.0433 61.656 75.8636 59.9143 75.569L57.5045 75.1613C56.4148 74.9769 55.295 75.227 54.3949 75.8558L52.4045 77.2463C50.966 78.2512 49.034 78.2512 47.5955 77.2463L45.6051 75.8558C44.705 75.227 43.5852 74.9769 42.4955 75.1613L40.0857 75.569C38.344 75.8636 36.6034 75.0433 35.7529 73.5271L34.5761 71.4292C34.044 70.4806 33.146 69.7798 32.0824 69.4832L29.7305 68.8274C28.0307 68.3534 26.8261 66.8753 26.7321 65.1481L26.602 62.7584C26.5432 61.6777 26.0449 60.6651 25.2182 59.9463L23.3899 58.3569C22.0686 57.2081 21.6387 55.3649 22.3198 53.7689L23.2622 51.5606C23.6884 50.562 23.6884 49.438 23.2622 48.4394L22.3198 46.2311C21.6387 44.6351 22.0686 42.7919 23.3899 41.6431L25.2182 40.0537C26.0449 39.3349 26.5432 38.3223 26.602 37.2416L26.7321 34.8519C26.8261 33.1247 28.0307 31.6466 29.7305 31.1726L32.0824 30.5168C33.146 30.2202 34.044 29.5194 34.5761 28.5707L35.7529 26.4729C36.6034 24.9567 38.344 24.1364 40.0857 24.431L42.4955 24.8387C43.5852 25.0231 44.705 24.773 45.6051 24.1442L47.5955 22.7537Z" fill="url(#paint0_linear_407_625)" stroke="#833F00" stroke-opacity="0.25" stroke-width="4"/>
<g filter="url(#filter0_f_407_625)">
<circle cx="48" cy="44" r="19" fill="#FFCF54"/>
</g>
<path fill-rule="evenodd" clip-rule="evenodd" d="M82 56C82 68.1503 72.3513 78 60.449 78C60.4447 78 60.4404 78 60.4362 78H33.0204V77.9964C32.9119 77.9988 32.803 78 32.6939 78C24.5787 78 18 71.2843 18 63C18 54.7157 24.5787 48 32.6939 48C35.2526 48 37.6586 48.6676 39.7537 49.8416C42.3629 40.6887 50.6408 34 60.449 34C72.3513 34 82 43.8497 82 56Z" fill="url(#paint1_linear_407_625)"/>
<path d="M33.0204 78H31.0204V80H33.0204V78ZM33.0204 77.9964H35.0204V75.9514L32.9759 75.9969L33.0204 77.9964ZM39.7537 49.8416L38.7761 51.5863L40.9834 52.8231L41.6771 50.3899L39.7537 49.8416ZM60.449 80C73.4945 80 84 69.2158 84 56H80C80 67.0848 71.208 76 60.449 76V80ZM60.4362 80C60.4378 80 60.4395 80 60.4417 80C60.4437 80 60.4463 80 60.449 80V76C60.4474 76 60.4457 76 60.4435 76C60.4414 76 60.4388 76 60.4362 76V80ZM60.4362 76H33.0204V80H60.4362V76ZM35.0204 78V77.9964H31.0204V78H35.0204ZM32.6939 80C32.8179 80 32.9415 79.9986 33.0649 79.9959L32.9759 75.9969C32.8822 75.9989 32.7881 76 32.6939 76V80ZM16 63C16 72.3498 23.4354 80 32.6939 80V76C25.7219 76 20 70.2188 20 63H16ZM32.6939 46C23.4354 46 16 53.6502 16 63H20C20 55.7812 25.7219 50 32.6939 50V46ZM40.7313 48.0968C38.3466 46.7606 35.6052 46 32.6939 46V50C34.9 50 36.9705 50.5747 38.7761 51.5863L40.7313 48.0968ZM60.449 32C49.6997 32 40.6712 39.3279 37.8303 49.2933L41.6771 50.3899C44.0547 42.0494 51.5818 36 60.449 36V32ZM84 56C84 42.7842 73.4945 32 60.449 32V36C71.208 36 80 44.9152 80 56H84Z" fill="black" fill-opacity="0.07"/>
<defs>
<filter id="filter0_f_407_625" x="11" y="7" width="74" height="74" filterUnits="userSpaceOnUse" color-interpolation-filters="sRGB">
<feFlood flood-opacity="0" result="BackgroundImageFix"/>
<feBlend mode="normal" in="SourceGraphic" in2="BackgroundImageFix" result="shape"/>
<feGaussianBlur stdDeviation="9" result="effect1_foregroundBlur_407_625"/>
</filter>
<linearGradient id="paint0_linear_407_625" x1="35" y1="27" x2="63" y2="73" gradientUnits="userSpaceOnUse">
<stop offset="0.165457" stop-color="#F0AA41"/>
<stop offset="1" stop-color="#FF8A00"/>
</linearGradient>
<linearGradient id="paint1_linear_407_625" x1="40.5306" y1="50.3333" x2="64.3961" y2="68.1919" gradientUnits="userSpaceOnUse">
<stop offset="0.183865" stop-color="white"/>
<stop offset="1" stop-color="#CDCDCD"/>
</linearGradient>
</defs>
</svg>
