<svg width="100" height="100" viewBox="0 0 100 100" fill="none" xmlns="http://www.w3.org/2000/svg">
<path fill-rule="evenodd" clip-rule="evenodd" d="M78.0005 52C78.0005 64.1503 68.3518 74 56.4495 74C56.4493 74 56.4492 74 56.4491 74V74.0003H29.0205V73.9964C28.9119 73.9988 28.803 74 28.6939 74C20.5787 74 14 67.2843 14 59C14 50.7157 20.5787 44 28.6939 44C31.2528 44 33.6589 44.6677 35.7541 45.8418C38.3633 36.6888 46.6412 30 56.4495 30C68.3518 30 78.0005 39.8497 78.0005 52Z" fill="url(#paint0_linear_407_761)"/>
<path d="M56.4491 74V72H54.4491V74H56.4491ZM56.4491 74.0003V76.0003H58.4491V74.0003H56.4491ZM29.0205 74.0003H27.0205V76.0003H29.0205V74.0003ZM29.0205 73.9964H31.0205V71.9513L28.976 71.9969L29.0205 73.9964ZM35.7541 45.8418L34.7765 47.5865L36.9839 48.8234L37.6775 46.3901L35.7541 45.8418ZM56.4495 76C69.495 76 80.0005 65.2158 80.0005 52H76.0005C76.0005 63.0848 67.2085 72 56.4495 72V76ZM56.4491 76C56.4491 76 56.4491 76 56.4491 76C56.4491 76 56.4491 76 56.4491 76C56.4491 76 56.4491 76 56.4491 76C56.4491 76 56.4491 76 56.4491 76C56.4491 76 56.4491 76 56.4491 76C56.4491 76 56.4491 76 56.4491 76C56.4491 76 56.4491 76 56.4491 76C56.4491 76 56.4491 76 56.4491 76C56.4491 76 56.4491 76 56.4491 76C56.4491 76 56.4491 76 56.4491 76C56.4491 76 56.4491 76 56.4491 76C56.4491 76 56.4491 76 56.4491 76C56.4491 76 56.4491 76 56.4491 76C56.4491 76 56.4491 76 56.4491 76C56.4491 76 56.4491 76 56.4491 76C56.4491 76 56.4491 76 56.4491 76C56.4491 76 56.4491 76 56.4491 76C56.4491 76 56.4491 76 56.4491 76C56.4491 76 56.4491 76 56.4491 76C56.4491 76 56.4491 76 56.4491 76C56.4491 76 56.4491 76 56.4491 76C56.4491 76 56.4491 76 56.4491 76C56.4491 76 56.4491 76 56.4491 76C56.4491 76 56.4491 76 56.4491 76C56.4491 76 56.4491 76 56.4491 76C56.4491 76 56.4491 76 56.4491 76C56.4491 76 56.4491 76 56.4491 76C56.4491 76 56.4491 76 56.4491 76C56.4491 76 56.4491 76 56.4491 76C56.4491 76 56.4491 76 56.4491 76C56.4491 76 56.4491 76 56.4491 76C56.4491 76 56.4491 76 56.4491 76C56.4491 76 56.4491 76 56.4491 76C56.4491 76 56.4491 76 56.4491 76C56.4491 76 56.4491 76 56.4491 76C56.4491 76 56.4491 76 56.4491 76C56.4491 76 56.4491 76 56.4491 76C56.4491 76 56.4491 76 56.4491 76C56.4491 76 56.4491 76 56.4491 76C56.4491 76 56.4491 76 56.4491 76C56.4491 76 56.4491 76 56.4491 76C56.4491 76 56.4491 76 56.4491 76C56.4491 76 56.4491 76 56.4491 76C56.4491 76 56.4491 76 56.4491 76C56.4491 76 56.4491 76 56.4491 76C56.4491 76 56.4491 76 56.4491 76C56.4491 76 56.4491 76 56.4491 76C56.4491 76 56.4491 76 56.4491 76C56.4491 76 56.4491 76 56.4491 76C56.4491 76 56.4491 76 56.4491 76C56.4491 76 56.4491 76 56.4491 76C56.4491 76 56.4491 76 56.4491 76C56.4491 76 56.4491 76 56.4491 76C56.4491 76 56.4491 76 56.4491 76C56.4491 76 56.4491 76 56.4491 76C56.4491 76 56.4491 76 56.4491 76C56.4491 76 56.4491 76 56.4491 76C56.4491 76 56.4491 76 56.4491 76C56.4491 76 56.4491 76 56.4491 76C56.4491 76 56.4491 76 56.4491 76C56.4491 76 56.4491 76 56.4491 76C56.4491 76 56.4491 76 56.4491 76C56.4491 76 56.4491 76 56.4491 76C56.4491 76 56.4491 76 56.4491 76C56.4491 76 56.4491 76 56.4491 76C56.4491 76 56.4491 76 56.4491 76C56.4491 76 56.4491 76 56.4491 76C56.4491 76 56.4491 76 56.4491 76C56.4491 76 56.4491 76 56.4491 76C56.4491 76 56.4491 76 56.4491 76C56.4491 76 56.4491 76 56.4491 76C56.4491 76 56.4491 76 56.4491 76C56.4491 76 56.4491 76 56.4491 76C56.4491 76 56.4491 76 56.4491 76C56.4491 76 56.4491 76 56.4491 76C56.4491 76 56.4491 76 56.4491 76C56.4491 76 56.4491 76 56.4491 76C56.4491 76 56.4491 76 56.4491 76C56.4491 76 56.4491 76 56.4491 76C56.4491 76 56.4491 76 56.4491 76C56.4491 76 56.4491 76 56.4491 76C56.4491 76 56.4491 76 56.4491 76C56.4491 76 56.4491 76 56.4491 76C56.4491 76 56.4491 76 56.4491 76C56.4491 76 56.4491 76 56.4491 76C56.4491 76 56.4491 76 56.4491 76C56.4491 76 56.4491 76 56.4491 76C56.4491 76 56.4491 76 56.4491 76C56.4491 76 56.4491 76 56.4491 76C56.4491 76 56.4491 76 56.4491 76C56.4491 76 56.4491 76 56.4491 76C56.4491 76 56.4491 76 56.4491 76C56.4491 76 56.4491 76 56.4491 76C56.4491 76 56.4491 76 56.4491 76C56.4491 76 56.4491 76 56.4491 76C56.4491 76 56.4491 76 56.4491 76C56.4491 76 56.4491 76 56.4491 76C56.4491 76 56.4491 76 56.4491 76C56.4492 76 56.4492 76 56.4492 76C56.4492 76 56.4492 76 56.4492 76C56.4492 76 56.4492 76 56.4492 76C56.4492 76 56.4492 76 56.4492 76C56.4492 76 56.4492 76 56.4492 76C56.4492 76 56.4492 76 56.4492 76C56.4492 76 56.4492 76 56.4492 76C56.4492 76 56.4492 76 56.4492 76C56.4492 76 56.4492 76 56.4492 76C56.4492 76 56.4492 76 56.4492 76C56.4492 76 56.4492 76 56.4492 76C56.4492 76 56.4492 76 56.4492 76C56.4492 76 56.4492 76 56.4492 76C56.4492 76 56.4492 76 56.4492 76C56.4492 76 56.4492 76 56.4492 76C56.4492 76 56.4492 76 56.4492 76C56.4492 76 56.4492 76 56.4492 76C56.4492 76 56.4492 76 56.4492 76C56.4492 76 56.4492 76 56.4492 76C56.4492 76 56.4492 76 56.4492 76C56.4492 76 56.4492 76 56.4492 76C56.4492 76 56.4492 76 56.4492 76C56.4492 76 56.4492 76 56.4492 76C56.4492 76 56.4492 76 56.4492 76C56.4492 76 56.4492 76 56.4492 76C56.4492 76 56.4492 76 56.4492 76C56.4492 76 56.4492 76 56.4492 76C56.4492 76 56.4492 76 56.4492 76C56.4492 76 56.4492 76 56.4492 76C56.4492 76 56.4492 76 56.4492 76C56.4492 76 56.4492 76 56.4492 76C56.4492 76 56.4492 76 56.4492 76C56.4492 76 56.4492 76 56.4492 76C56.4492 76 56.4492 76 56.4492 76C56.4492 76 56.4492 76 56.4492 76C56.4492 76 56.4492 76 56.4492 76C56.4492 76 56.4492 76 56.4492 76C56.4492 76 56.4492 76 56.4492 76C56.4492 76 56.4492 76 56.4492 76C56.4492 76 56.4492 76 56.4492 76C56.4492 76 56.4492 76 56.4492 76C56.4492 76 56.4492 76 56.4492 76C56.4492 76 56.4492 76 56.4492 76C56.4492 76 56.4492 76 56.4492 76C56.4492 76 56.4492 76 56.4492 76C56.4492 76 56.4492 76 56.4492 76C56.4492 76 56.4492 76 56.4492 76C56.4492 76 56.4492 76 56.4492 76C56.4492 76 56.4492 76 56.4492 76C56.4492 76 56.4492 76 56.4492 76C56.4492 76 56.4492 76 56.4492 76C56.4492 76 56.4492 76 56.4492 76C56.4492 76 56.4492 76 56.4492 76C56.4492 76 56.4492 76 56.4492 76C56.4492 76 56.4492 76 56.4492 76C56.4492 76 56.4492 76 56.4492 76C56.4492 76 56.4492 76 56.4492 76C56.4492 76 56.4492 76 56.4492 76C56.4492 76 56.4492 76 56.4492 76C56.4492 76 56.4492 76 56.4492 76C56.4492 76 56.4492 76 56.4492 76C56.4492 76 56.4492 76 56.4492 76C56.4492 76 56.4492 76 56.4492 76C56.4492 76 56.4492 76 56.4492 76C56.4492 76 56.4492 76 56.4492 76C56.4492 76 56.4492 76 56.4492 76C56.4492 76 56.4492 76 56.4492 76C56.4492 76 56.4492 76 56.4492 76C56.4492 76 56.4492 76 56.4492 76C56.4492 76 56.4492 76 56.4492 76C56.4492 76 56.4492 76 56.4492 76C56.4492 76 56.4492 76 56.4492 76C56.4492 76 56.4492 76 56.4492 76C56.4492 76 56.4492 76 56.4492 76C56.4492 76 56.4492 76 56.4492 76C56.4492 76 56.4492 76 56.4492 76C56.4492 76 56.4492 76 56.4492 76C56.4492 76 56.4492 76 56.4492 76C56.4492 76 56.4492 76 56.4492 76C56.4492 76 56.4492 76 56.4492 76C56.4492 76 56.4492 76 56.4492 76C56.4492 76 56.4492 76 56.4492 76C56.4492 76 56.4492 76 56.4492 76C56.4492 76 56.4492 76 56.4492 76C56.4492 76 56.4492 76 56.4492 76C56.4492 76 56.4492 76 56.4492 76C56.4492 76 56.4492 76 56.4492 76C56.4492 76 56.4492 76 56.4492 76C56.4492 76 56.4492 76 56.4492 76C56.4492 76 56.4492 76 56.4492 76C56.4492 76 56.4492 76 56.4492 76C56.4492 76 56.4492 76 56.4492 76C56.4492 76 56.4492 76 56.4492 76C56.4492 76 56.4492 76 56.4492 76C56.4492 76 56.4492 76 56.4492 76C56.4492 76 56.4492 76 56.4492 76C56.4492 76 56.4492 76 56.4492 76C56.4492 76 56.4492 76 56.4492 76C56.4492 76 56.4492 76 56.4492 76C56.4492 76 56.4492 76 56.4492 76C56.4492 76 56.4492 76 56.4492 76C56.4492 76 56.4492 76 56.4492 76C56.4492 76 56.4492 76 56.4492 76C56.4492 76 56.4492 76 56.4492 76C56.4492 76 56.4492 76 56.4492 76C56.4492 76 56.4492 76 56.4492 76C56.4492 76 56.4492 76 56.4492 76C56.4492 76 56.4492 76 56.4492 76C56.4492 76 56.4492 76 56.4492 76C56.4492 76 56.4492 76 56.4492 76C56.4492 76 56.4492 76 56.4492 76C56.4492 76 56.4492 76 56.4492 76C56.4492 76 56.4492 76 56.4492 76C56.4492 76 56.4492 76 56.4492 76C56.4492 76 56.4492 76 56.4492 76C56.4492 76 56.4492 76 56.4492 76C56.4492 76 56.4492 76 56.4492 76C56.4492 76 56.4492 76 56.4492 76C56.4492 76 56.4492 76 56.4492 76C56.4492 76 56.4492 76 56.4492 76C56.4492 76 56.4492 76 56.4492 76C56.4492 76 56.4492 76 56.4492 76C56.4492 76 56.4492 76 56.4492 76C56.4492 76 56.4492 76 56.4492 76C56.4492 76 56.4492 76 56.4492 76C56.4492 76 56.4492 76 56.4492 76C56.4492 76 56.4492 76 56.4492 76C56.4492 76 56.4492 76 56.4492 76C56.4492 76 56.4492 76 56.4492 76C56.4492 76 56.4492 76 56.4492 76C56.4492 76 56.4492 76 56.4492 76C56.4492 76 56.4492 76 56.4492 76C56.4492 76 56.4492 76 56.4492 76C56.4492 76 56.4492 76 56.4492 76C56.4492 76 56.4492 76 56.4492 76C56.4492 76 56.4492 76 56.4493 76C56.4493 76 56.4493 76 56.4493 76C56.4493 76 56.4493 76 56.4493 76C56.4493 76 56.4493 76 56.4493 76C56.4493 76 56.4493 76 56.4493 76C56.4493 76 56.4493 76 56.4493 76C56.4493 76 56.4493 76 56.4493 76C56.4493 76 56.4493 76 56.4493 76C56.4493 76 56.4493 76 56.4493 76C56.4493 76 56.4493 76 56.4493 76C56.4493 76 56.4493 76 56.4493 76C56.4493 76 56.4493 76 56.4493 76C56.4493 76 56.4493 76 56.4493 76C56.4493 76 56.4493 76 56.4493 76C56.4493 76 56.4493 76 56.4493 76C56.4493 76 56.4493 76 56.4493 76C56.4493 76 56.4493 76 56.4493 76C56.4493 76 56.4493 76 56.4493 76C56.4493 76 56.4493 76 56.4493 76C56.4493 76 56.4493 76 56.4493 76C56.4493 76 56.4493 76 56.4493 76C56.4493 76 56.4493 76 56.4493 76C56.4493 76 56.4493 76 56.4493 76C56.4493 76 56.4493 76 56.4493 76C56.4493 76 56.4493 76 56.4493 76C56.4493 76 56.4493 76 56.4493 76C56.4493 76 56.4493 76 56.4493 76C56.4493 76 56.4493 76 56.4493 76C56.4493 76 56.4493 76 56.4493 76C56.4493 76 56.4493 76 56.4493 76C56.4493 76 56.4493 76 56.4493 76C56.4493 76 56.4493 76 56.4493 76C56.4493 76 56.4493 76 56.4493 76C56.4493 76 56.4493 76 56.4493 76C56.4493 76 56.4493 76 56.4493 76C56.4493 76 56.4493 76 56.4493 76C56.4493 76 56.4493 76 56.4493 76C56.4493 76 56.4493 76 56.4493 76C56.4493 76 56.4493 76 56.4493 76C56.4493 76 56.4493 76 56.4493 76C56.4493 76 56.4493 76 56.4493 76C56.4493 76 56.4493 76 56.4493 76C56.4493 76 56.4493 76 56.4493 76C56.4493 76 56.4493 76 56.4493 76C56.4493 76 56.4493 76 56.4493 76C56.4493 76 56.4493 76 56.4493 76C56.4493 76 56.4493 76 56.4493 76C56.4493 76 56.4493 76 56.4493 76C56.4493 76 56.4493 76 56.4493 76C56.4493 76 56.4493 76 56.4493 76C56.4493 76 56.4493 76 56.4493 76C56.4493 76 56.4493 76 56.4493 76C56.4493 76 56.4493 76 56.4493 76C56.4493 76 56.4493 76 56.4493 76C56.4493 76 56.4493 76 56.4493 76C56.4493 76 56.4493 76 56.4493 76C56.4493 76 56.4493 76 56.4493 76C56.4493 76 56.4493 76 56.4493 76C56.4493 76 56.4493 76 56.4493 76C56.4493 76 56.4493 76 56.4493 76C56.4493 76 56.4493 76 56.4493 76C56.4493 76 56.4493 76 56.4493 76C56.4493 76 56.4493 76 56.4493 76C56.4493 76 56.4493 76 56.4493 76C56.4493 76 56.4493 76 56.4493 76C56.4493 76 56.4493 76 56.4493 76C56.4493 76 56.4493 76 56.4493 76C56.4493 76 56.4493 76 56.4493 76C56.4493 76 56.4493 76 56.4493 76C56.4493 76 56.4493 76 56.4493 76C56.4493 76 56.4493 76 56.4493 76C56.4493 76 56.4493 76 56.4493 76C56.4493 76 56.4493 76 56.4493 76C56.4493 76 56.4493 76 56.4493 76C56.4493 76 56.4493 76 56.4493 76C56.4493 76 56.4493 76 56.4493 76C56.4493 76 56.4493 76 56.4493 76C56.4493 76 56.4493 76 56.4493 76C56.4493 76 56.4493 76 56.4493 76C56.4493 76 56.4493 76 56.4493 76C56.4493 76 56.4493 76 56.4493 76C56.4493 76 56.4493 76 56.4493 76C56.4493 76 56.4493 76 56.4493 76C56.4493 76 56.4493 76 56.4493 76C56.4493 76 56.4493 76 56.4493 76C56.4493 76 56.4493 76 56.4493 76C56.4493 76 56.4493 76 56.4493 76C56.4493 76 56.4493 76 56.4493 76C56.4493 76 56.4493 76 56.4493 76C56.4493 76 56.4493 76 56.4493 76C56.4493 76 56.4493 76 56.4493 76C56.4493 76 56.4493 76 56.4493 76C56.4493 76 56.4493 76 56.4493 76C56.4493 76 56.4493 76 56.4493 76C56.4493 76 56.4493 76 56.4493 76C56.4493 76 56.4493 76 56.4493 76C56.4493 76 56.4493 76 56.4493 76C56.4493 76 56.4493 76 56.4493 76C56.4493 76 56.4493 76 56.4493 76C56.4493 76 56.4493 76 56.4493 76C56.4493 76 56.4493 76 56.4493 76C56.4493 76 56.4493 76 56.4493 76C56.4493 76 56.4493 76 56.4493 76C56.4493 76 56.4493 76 56.4493 76C56.4493 76 56.4493 76 56.4493 76C56.4493 76 56.4493 76 56.4493 76C56.4493 76 56.4493 76 56.4493 76C56.4493 76 56.4493 76 56.4493 76C56.4493 76 56.4493 76 56.4493 76C56.4493 76 56.4493 76 56.4493 76C56.4493 76 56.4493 76 56.4493 76C56.4493 76 56.4493 76 56.4493 76C56.4493 76 56.4493 76 56.4493 76C56.4493 76 56.4493 76 56.4493 76C56.4493 76 56.4493 76 56.4493 76C56.4493 76 56.4493 76 56.4493 76C56.4493 76 56.4493 76 56.4493 76C56.4493 76 56.4493 76 56.4493 76C56.4493 76 56.4493 76 56.4493 76C56.4493 76 56.4493 76 56.4493 76C56.4493 76 56.4493 76 56.4493 76C56.4493 76 56.4493 76 56.4493 76C56.4493 76 56.4493 76 56.4493 76C56.4493 76 56.4493 76 56.4493 76C56.4493 76 56.4493 76 56.4493 76C56.4493 76 56.4493 76 56.4493 76C56.4493 76 56.4493 76 56.4493 76C56.4493 76 56.4493 76 56.4493 76C56.4493 76 56.4493 76 56.4493 76C56.4493 76 56.4493 76 56.4493 76C56.4493 76 56.4493 76 56.4493 76C56.4493 76 56.4493 76 56.4493 76C56.4493 76 56.4493 76 56.4493 76C56.4493 76 56.4493 76 56.4493 76C56.4493 76 56.4493 76 56.4493 76C56.4493 76 56.4493 76 56.4493 76C56.4494 76 56.4494 76 56.4494 76C56.4494 76 56.4494 76 56.4494 76C56.4494 76 56.4494 76 56.4494 76C56.4494 76 56.4494 76 56.4494 76C56.4494 76 56.4494 76 56.4494 76C56.4494 76 56.4494 76 56.4494 76C56.4494 76 56.4494 76 56.4494 76C56.4494 76 56.4494 76 56.4494 76C56.4494 76 56.4494 76 56.4494 76C56.4494 76 56.4494 76 56.4494 76C56.4494 76 56.4494 76 56.4494 76C56.4494 76 56.4494 76 56.4494 76C56.4494 76 56.4494 76 56.4494 76C56.4494 76 56.4494 76 56.4494 76C56.4494 76 56.4494 76 56.4494 76C56.4494 76 56.4494 76 56.4494 76C56.4494 76 56.4494 76 56.4494 76C56.4494 76 56.4494 76 56.4494 76C56.4494 76 56.4494 76 56.4494 76C56.4494 76 56.4494 76 56.4494 76C56.4494 76 56.4494 76 56.4494 76C56.4494 76 56.4494 76 56.4494 76C56.4494 76 56.4494 76 56.4494 76C56.4494 76 56.4494 76 56.4494 76C56.4494 76 56.4494 76 56.4494 76C56.4494 76 56.4494 76 56.4494 76C56.4494 76 56.4494 76 56.4494 76C56.4494 76 56.4494 76 56.4494 76C56.4494 76 56.4494 76 56.4494 76C56.4494 76 56.4494 76 56.4494 76C56.4494 76 56.4494 76 56.4494 76C56.4494 76 56.4494 76 56.4494 76C56.4494 76 56.4494 76 56.4494 76C56.4494 76 56.4494 76 56.4494 76C56.4494 76 56.4494 76 56.4494 76C56.4494 76 56.4494 76 56.4494 76C56.4494 76 56.4494 76 56.4494 76C56.4494 76 56.4494 76 56.4494 76C56.4494 76 56.4494 76 56.4494 76C56.4494 76 56.4494 76 56.4494 76C56.4494 76 56.4494 76 56.4494 76C56.4494 76 56.4494 76 56.4494 76C56.4494 76 56.4494 76 56.4494 76C56.4494 76 56.4494 76 56.4494 76C56.4494 76 56.4494 76 56.4494 76C56.4494 76 56.4494 76 56.4494 76C56.4494 76 56.4494 76 56.4494 76C56.4494 76 56.4494 76 56.4494 76C56.4494 76 56.4494 76 56.4494 76C56.4494 76 56.4494 76 56.4494 76C56.4494 76 56.4494 76 56.4494 76C56.4494 76 56.4494 76 56.4494 76C56.4494 76 56.4494 76 56.4494 76C56.4494 76 56.4494 76 56.4494 76C56.4494 76 56.4494 76 56.4494 76C56.4494 76 56.4494 76 56.4494 76C56.4494 76 56.4494 76 56.4494 76C56.4494 76 56.4494 76 56.4494 76C56.4494 76 56.4494 76 56.4494 76C56.4494 76 56.4494 76 56.4494 76C56.4494 76 56.4494 76 56.4494 76C56.4494 76 56.4494 76 56.4494 76C56.4494 76 56.4494 76 56.4494 76C56.4494 76 56.4494 76 56.4494 76C56.4494 76 56.4494 76 56.4494 76C56.4494 76 56.4494 76 56.4494 76C56.4494 76 56.4494 76 56.4494 76C56.4494 76 56.4494 76 56.4494 76C56.4494 76 56.4494 76 56.4494 76C56.4494 76 56.4494 76 56.4494 76C56.4494 76 56.4494 76 56.4494 76C56.4494 76 56.4494 76 56.4494 76C56.4494 76 56.4494 76 56.4494 76C56.4494 76 56.4494 76 56.4494 76C56.4494 76 56.4494 76 56.4494 76C56.4494 76 56.4494 76 56.4494 76C56.4494 76 56.4494 76 56.4494 76C56.4494 76 56.4494 76 56.4494 76C56.4494 76 56.4494 76 56.4494 76C56.4494 76 56.4494 76 56.4494 76C56.4494 76 56.4494 76 56.4494 76C56.4494 76 56.4494 76 56.4494 76C56.4494 76 56.4494 76 56.4494 76C56.4494 76 56.4494 76 56.4494 76C56.4494 76 56.4494 76 56.4494 76C56.4494 76 56.4494 76 56.4494 76C56.4494 76 56.4494 76 56.4494 76C56.4494 76 56.4494 76 56.4494 76C56.4494 76 56.4494 76 56.4494 76C56.4494 76 56.4494 76 56.4494 76C56.4494 76 56.4494 76 56.4494 76C56.4494 76 56.4494 76 56.4494 76C56.4494 76 56.4494 76 56.4494 76C56.4494 76 56.4494 76 56.4494 76C56.4494 76 56.4494 76 56.4494 76C56.4494 76 56.4494 76 56.4494 76C56.4494 76 56.4494 76 56.4494 76C56.4494 76 56.4494 76 56.4494 76C56.4494 76 56.4494 76 56.4494 76C56.4494 76 56.4494 76 56.4494 76C56.4494 76 56.4494 76 56.4494 76C56.4494 76 56.4494 76 56.4494 76C56.4494 76 56.4494 76 56.4494 76C56.4494 76 56.4494 76 56.4494 76C56.4494 76 56.4494 76 56.4494 76C56.4494 76 56.4494 76 56.4494 76C56.4494 76 56.4494 76 56.4494 76C56.4494 76 56.4494 76 56.4494 76C56.4494 76 56.4494 76 56.4494 76C56.4494 76 56.4494 76 56.4494 76C56.4494 76 56.4494 76 56.4494 76C56.4494 76 56.4494 76 56.4494 76C56.4494 76 56.4494 76 56.4494 76C56.4494 76 56.4494 76 56.4494 76C56.4494 76 56.4494 76 56.4494 76C56.4494 76 56.4494 76 56.4494 76C56.4494 76 56.4494 76 56.4494 76C56.4494 76 56.4494 76 56.4494 76C56.4494 76 56.4494 76 56.4494 76C56.4494 76 56.4494 76 56.4494 76C56.4494 76 56.4494 76 56.4494 76C56.4494 76 56.4494 76 56.4494 76C56.4494 76 56.4494 76 56.4494 76C56.4494 76 56.4494 76 56.4494 76C56.4494 76 56.4494 76 56.4494 76C56.4494 76 56.4494 76 56.4494 76C56.4494 76 56.4494 76 56.4494 76C56.4494 76 56.4494 76 56.4494 76C56.4494 76 56.4494 76 56.4494 76C56.4494 76 56.4494 76 56.4494 76C56.4494 76 56.4494 76 56.4494 76C56.4494 76 56.4494 76 56.4494 76C56.4494 76 56.4494 76 56.4494 76C56.4494 76 56.4494 76 56.4494 76C56.4494 76 56.4494 76 56.4494 76C56.4494 76 56.4494 76 56.4495 76C56.4495 76 56.4495 76 56.4495 76C56.4495 76 56.4495 76 56.4495 76C56.4495 76 56.4495 76 56.4495 76C56.4495 76 56.4495 76 56.4495 76C56.4495 76 56.4495 76 56.4495 76C56.4495 76 56.4495 76 56.4495 76C56.4495 76 56.4495 76 56.4495 76V72C56.4495 72 56.4495 72 56.4495 72C56.4495 72 56.4495 72 56.4495 72C56.4495 72 56.4495 72 56.4495 72C56.4495 72 56.4495 72 56.4495 72C56.4495 72 56.4495 72 56.4495 72C56.4495 72 56.4495 72 56.4495 72C56.4495 72 56.4495 72 56.4495 72C56.4494 72 56.4494 72 56.4494 72C56.4494 72 56.4494 72 56.4494 72C56.4494 72 56.4494 72 56.4494 72C56.4494 72 56.4494 72 56.4494 72C56.4494 72 56.4494 72 56.4494 72C56.4494 72 56.4494 72 56.4494 72C56.4494 72 56.4494 72 56.4494 72C56.4494 72 56.4494 72 56.4494 72C56.4494 72 56.4494 72 56.4494 72C56.4494 72 56.4494 72 56.4494 72C56.4494 72 56.4494 72 56.4494 72C56.4494 72 56.4494 72 56.4494 72C56.4494 72 56.4494 72 56.4494 72C56.4494 72 56.4494 72 56.4494 72C56.4494 72 56.4494 72 56.4494 72C56.4494 72 56.4494 72 56.4494 72C56.4494 72 56.4494 72 56.4494 72C56.4494 72 56.4494 72 56.4494 72C56.4494 72 56.4494 72 56.4494 72C56.4494 72 56.4494 72 56.4494 72C56.4494 72 56.4494 72 56.4494 72C56.4494 72 56.4494 72 56.4494 72C56.4494 72 56.4494 72 56.4494 72C56.4494 72 56.4494 72 56.4494 72C56.4494 72 56.4494 72 56.4494 72C56.4494 72 56.4494 72 56.4494 72C56.4494 72 56.4494 72 56.4494 72C56.4494 72 56.4494 72 56.4494 72C56.4494 72 56.4494 72 56.4494 72C56.4494 72 56.4494 72 56.4494 72C56.4494 72 56.4494 72 56.4494 72C56.4494 72 56.4494 72 56.4494 72C56.4494 72 56.4494 72 56.4494 72C56.4494 72 56.4494 72 56.4494 72C56.4494 72 56.4494 72 56.4494 72C56.4494 72 56.4494 72 56.4494 72C56.4494 72 56.4494 72 56.4494 72C56.4494 72 56.4494 72 56.4494 72C56.4494 72 56.4494 72 56.4494 72C56.4494 72 56.4494 72 56.4494 72C56.4494 72 56.4494 72 56.4494 72C56.4494 72 56.4494 72 56.4494 72C56.4494 72 56.4494 72 56.4494 72C56.4494 72 56.4494 72 56.4494 72C56.4494 72 56.4494 72 56.4494 72C56.4494 72 56.4494 72 56.4494 72C56.4494 72 56.4494 72 56.4494 72C56.4494 72 56.4494 72 56.4494 72C56.4494 72 56.4494 72 56.4494 72C56.4494 72 56.4494 72 56.4494 72C56.4494 72 56.4494 72 56.4494 72C56.4494 72 56.4494 72 56.4494 72C56.4494 72 56.4494 72 56.4494 72C56.4494 72 56.4494 72 56.4494 72C56.4494 72 56.4494 72 56.4494 72C56.4494 72 56.4494 72 56.4494 72C56.4494 72 56.4494 72 56.4494 72C56.4494 72 56.4494 72 56.4494 72C56.4494 72 56.4494 72 56.4494 72C56.4494 72 56.4494 72 56.4494 72C56.4494 72 56.4494 72 56.4494 72C56.4494 72 56.4494 72 56.4494 72C56.4494 72 56.4494 72 56.4494 72C56.4494 72 56.4494 72 56.4494 72C56.4494 72 56.4494 72 56.4494 72C56.4494 72 56.4494 72 56.4494 72C56.4494 72 56.4494 72 56.4494 72C56.4494 72 56.4494 72 56.4494 72C56.4494 72 56.4494 72 56.4494 72C56.4494 72 56.4494 72 56.4494 72C56.4494 72 56.4494 72 56.4494 72C56.4494 72 56.4494 72 56.4494 72C56.4494 72 56.4494 72 56.4494 72C56.4494 72 56.4494 72 56.4494 72C56.4494 72 56.4494 72 56.4494 72C56.4494 72 56.4494 72 56.4494 72C56.4494 72 56.4494 72 56.4494 72C56.4494 72 56.4494 72 56.4494 72C56.4494 72 56.4494 72 56.4494 72C56.4494 72 56.4494 72 56.4494 72C56.4494 72 56.4494 72 56.4494 72C56.4494 72 56.4494 72 56.4494 72C56.4494 72 56.4494 72 56.4494 72C56.4494 72 56.4494 72 56.4494 72C56.4494 72 56.4494 72 56.4494 72C56.4494 72 56.4494 72 56.4494 72C56.4494 72 56.4494 72 56.4494 72C56.4494 72 56.4494 72 56.4494 72C56.4494 72 56.4494 72 56.4494 72C56.4494 72 56.4494 72 56.4494 72C56.4494 72 56.4494 72 56.4494 72C56.4494 72 56.4494 72 56.4494 72C56.4494 72 56.4494 72 56.4494 72C56.4494 72 56.4494 72 56.4494 72C56.4494 72 56.4494 72 56.4494 72C56.4494 72 56.4494 72 56.4494 72C56.4494 72 56.4494 72 56.4494 72C56.4494 72 56.4494 72 56.4494 72C56.4494 72 56.4494 72 56.4494 72C56.4494 72 56.4494 72 56.4494 72C56.4494 72 56.4494 72 56.4494 72C56.4494 72 56.4494 72 56.4494 72C56.4494 72 56.4494 72 56.4494 72C56.4494 72 56.4494 72 56.4494 72C56.4494 72 56.4494 72 56.4494 72C56.4494 72 56.4494 72 56.4494 72C56.4494 72 56.4494 72 56.4494 72C56.4494 72 56.4494 72 56.4494 72C56.4494 72 56.4494 72 56.4494 72C56.4494 72 56.4494 72 56.4494 72C56.4494 72 56.4494 72 56.4494 72C56.4494 72 56.4494 72 56.4494 72C56.4494 72 56.4494 72 56.4494 72C56.4494 72 56.4494 72 56.4494 72C56.4494 72 56.4494 72 56.4494 72C56.4494 72 56.4494 72 56.4494 72C56.4494 72 56.4494 72 56.4494 72C56.4494 72 56.4494 72 56.4494 72C56.4494 72 56.4494 72 56.4494 72C56.4494 72 56.4494 72 56.4494 72C56.4494 72 56.4494 72 56.4494 72C56.4494 72 56.4494 72 56.4494 72C56.4494 72 56.4494 72 56.4494 72C56.4494 72 56.4494 72 56.4494 72C56.4494 72 56.4494 72 56.4494 72C56.4494 72 56.4494 72 56.4494 72C56.4494 72 56.4494 72 56.4494 72C56.4494 72 56.4494 72 56.4494 72C56.4494 72 56.4494 72 56.4494 72C56.4494 72 56.4494 72 56.4494 72C56.4494 72 56.4494 72 56.4494 72C56.4494 72 56.4494 72 56.4494 72C56.4494 72 56.4494 72 56.4494 72C56.4494 72 56.4494 72 56.4494 72C56.4494 72 56.4494 72 56.4494 72C56.4494 72 56.4494 72 56.4493 72C56.4493 72 56.4493 72 56.4493 72C56.4493 72 56.4493 72 56.4493 72C56.4493 72 56.4493 72 56.4493 72C56.4493 72 56.4493 72 56.4493 72C56.4493 72 56.4493 72 56.4493 72C56.4493 72 56.4493 72 56.4493 72C56.4493 72 56.4493 72 56.4493 72C56.4493 72 56.4493 72 56.4493 72C56.4493 72 56.4493 72 56.4493 72C56.4493 72 56.4493 72 56.4493 72C56.4493 72 56.4493 72 56.4493 72C56.4493 72 56.4493 72 56.4493 72C56.4493 72 56.4493 72 56.4493 72C56.4493 72 56.4493 72 56.4493 72C56.4493 72 56.4493 72 56.4493 72C56.4493 72 56.4493 72 56.4493 72C56.4493 72 56.4493 72 56.4493 72C56.4493 72 56.4493 72 56.4493 72C56.4493 72 56.4493 72 56.4493 72C56.4493 72 56.4493 72 56.4493 72C56.4493 72 56.4493 72 56.4493 72C56.4493 72 56.4493 72 56.4493 72C56.4493 72 56.4493 72 56.4493 72C56.4493 72 56.4493 72 56.4493 72C56.4493 72 56.4493 72 56.4493 72C56.4493 72 56.4493 72 56.4493 72C56.4493 72 56.4493 72 56.4493 72C56.4493 72 56.4493 72 56.4493 72C56.4493 72 56.4493 72 56.4493 72C56.4493 72 56.4493 72 56.4493 72C56.4493 72 56.4493 72 56.4493 72C56.4493 72 56.4493 72 56.4493 72C56.4493 72 56.4493 72 56.4493 72C56.4493 72 56.4493 72 56.4493 72C56.4493 72 56.4493 72 56.4493 72C56.4493 72 56.4493 72 56.4493 72C56.4493 72 56.4493 72 56.4493 72C56.4493 72 56.4493 72 56.4493 72C56.4493 72 56.4493 72 56.4493 72C56.4493 72 56.4493 72 56.4493 72C56.4493 72 56.4493 72 56.4493 72C56.4493 72 56.4493 72 56.4493 72C56.4493 72 56.4493 72 56.4493 72C56.4493 72 56.4493 72 56.4493 72C56.4493 72 56.4493 72 56.4493 72C56.4493 72 56.4493 72 56.4493 72C56.4493 72 56.4493 72 56.4493 72C56.4493 72 56.4493 72 56.4493 72C56.4493 72 56.4493 72 56.4493 72C56.4493 72 56.4493 72 56.4493 72C56.4493 72 56.4493 72 56.4493 72C56.4493 72 56.4493 72 56.4493 72C56.4493 72 56.4493 72 56.4493 72C56.4493 72 56.4493 72 56.4493 72C56.4493 72 56.4493 72 56.4493 72C56.4493 72 56.4493 72 56.4493 72C56.4493 72 56.4493 72 56.4493 72C56.4493 72 56.4493 72 56.4493 72C56.4493 72 56.4493 72 56.4493 72C56.4493 72 56.4493 72 56.4493 72C56.4493 72 56.4493 72 56.4493 72C56.4493 72 56.4493 72 56.4493 72C56.4493 72 56.4493 72 56.4493 72C56.4493 72 56.4493 72 56.4493 72C56.4493 72 56.4493 72 56.4493 72C56.4493 72 56.4493 72 56.4493 72C56.4493 72 56.4493 72 56.4493 72C56.4493 72 56.4493 72 56.4493 72C56.4493 72 56.4493 72 56.4493 72C56.4493 72 56.4493 72 56.4493 72C56.4493 72 56.4493 72 56.4493 72C56.4493 72 56.4493 72 56.4493 72C56.4493 72 56.4493 72 56.4493 72C56.4493 72 56.4493 72 56.4493 72C56.4493 72 56.4493 72 56.4493 72C56.4493 72 56.4493 72 56.4493 72C56.4493 72 56.4493 72 56.4493 72C56.4493 72 56.4493 72 56.4493 72C56.4493 72 56.4493 72 56.4493 72C56.4493 72 56.4493 72 56.4493 72C56.4493 72 56.4493 72 56.4493 72C56.4493 72 56.4493 72 56.4493 72C56.4493 72 56.4493 72 56.4493 72C56.4493 72 56.4493 72 56.4493 72C56.4493 72 56.4493 72 56.4493 72C56.4493 72 56.4493 72 56.4493 72C56.4493 72 56.4493 72 56.4493 72C56.4493 72 56.4493 72 56.4493 72C56.4493 72 56.4493 72 56.4493 72C56.4493 72 56.4493 72 56.4493 72C56.4493 72 56.4493 72 56.4493 72C56.4493 72 56.4493 72 56.4493 72C56.4493 72 56.4493 72 56.4493 72C56.4493 72 56.4493 72 56.4493 72C56.4493 72 56.4493 72 56.4493 72C56.4493 72 56.4493 72 56.4493 72C56.4493 72 56.4493 72 56.4493 72C56.4493 72 56.4493 72 56.4493 72C56.4493 72 56.4493 72 56.4493 72C56.4493 72 56.4493 72 56.4493 72C56.4493 72 56.4493 72 56.4493 72C56.4493 72 56.4493 72 56.4493 72C56.4493 72 56.4493 72 56.4493 72C56.4493 72 56.4493 72 56.4493 72C56.4493 72 56.4493 72 56.4493 72C56.4493 72 56.4493 72 56.4493 72C56.4493 72 56.4493 72 56.4493 72C56.4493 72 56.4493 72 56.4493 72C56.4493 72 56.4493 72 56.4493 72C56.4493 72 56.4493 72 56.4493 72C56.4493 72 56.4493 72 56.4493 72C56.4493 72 56.4493 72 56.4493 72C56.4493 72 56.4493 72 56.4493 72C56.4493 72 56.4493 72 56.4493 72C56.4493 72 56.4493 72 56.4493 72C56.4493 72 56.4493 72 56.4493 72C56.4493 72 56.4493 72 56.4493 72C56.4493 72 56.4493 72 56.4493 72C56.4493 72 56.4493 72 56.4493 72C56.4493 72 56.4493 72 56.4493 72C56.4493 72 56.4493 72 56.4493 72C56.4493 72 56.4493 72 56.4493 72C56.4493 72 56.4493 72 56.4493 72C56.4493 72 56.4493 72 56.4493 72C56.4493 72 56.4493 72 56.4493 72C56.4493 72 56.4493 72 56.4493 72C56.4493 72 56.4493 72 56.4493 72C56.4493 72 56.4493 72 56.4493 72C56.4493 72 56.4493 72 56.4493 72C56.4493 72 56.4493 72 56.4493 72C56.4493 72 56.4493 72 56.4493 72C56.4493 72 56.4493 72 56.4493 72C56.4493 72 56.4493 72 56.4493 72C56.4493 72 56.4493 72 56.4493 72C56.4493 72 56.4493 72 56.4493 72C56.4492 72 56.4492 72 56.4492 72C56.4492 72 56.4492 72 56.4492 72C56.4492 72 56.4492 72 56.4492 72C56.4492 72 56.4492 72 56.4492 72C56.4492 72 56.4492 72 56.4492 72C56.4492 72 56.4492 72 56.4492 72C56.4492 72 56.4492 72 56.4492 72C56.4492 72 56.4492 72 56.4492 72C56.4492 72 56.4492 72 56.4492 72C56.4492 72 56.4492 72 56.4492 72C56.4492 72 56.4492 72 56.4492 72C56.4492 72 56.4492 72 56.4492 72C56.4492 72 56.4492 72 56.4492 72C56.4492 72 56.4492 72 56.4492 72C56.4492 72 56.4492 72 56.4492 72C56.4492 72 56.4492 72 56.4492 72C56.4492 72 56.4492 72 56.4492 72C56.4492 72 56.4492 72 56.4492 72C56.4492 72 56.4492 72 56.4492 72C56.4492 72 56.4492 72 56.4492 72C56.4492 72 56.4492 72 56.4492 72C56.4492 72 56.4492 72 56.4492 72C56.4492 72 56.4492 72 56.4492 72C56.4492 72 56.4492 72 56.4492 72C56.4492 72 56.4492 72 56.4492 72C56.4492 72 56.4492 72 56.4492 72C56.4492 72 56.4492 72 56.4492 72C56.4492 72 56.4492 72 56.4492 72C56.4492 72 56.4492 72 56.4492 72C56.4492 72 56.4492 72 56.4492 72C56.4492 72 56.4492 72 56.4492 72C56.4492 72 56.4492 72 56.4492 72C56.4492 72 56.4492 72 56.4492 72C56.4492 72 56.4492 72 56.4492 72C56.4492 72 56.4492 72 56.4492 72C56.4492 72 56.4492 72 56.4492 72C56.4492 72 56.4492 72 56.4492 72C56.4492 72 56.4492 72 56.4492 72C56.4492 72 56.4492 72 56.4492 72C56.4492 72 56.4492 72 56.4492 72C56.4492 72 56.4492 72 56.4492 72C56.4492 72 56.4492 72 56.4492 72C56.4492 72 56.4492 72 56.4492 72C56.4492 72 56.4492 72 56.4492 72C56.4492 72 56.4492 72 56.4492 72C56.4492 72 56.4492 72 56.4492 72C56.4492 72 56.4492 72 56.4492 72C56.4492 72 56.4492 72 56.4492 72C56.4492 72 56.4492 72 56.4492 72C56.4492 72 56.4492 72 56.4492 72C56.4492 72 56.4492 72 56.4492 72C56.4492 72 56.4492 72 56.4492 72C56.4492 72 56.4492 72 56.4492 72C56.4492 72 56.4492 72 56.4492 72C56.4492 72 56.4492 72 56.4492 72C56.4492 72 56.4492 72 56.4492 72C56.4492 72 56.4492 72 56.4492 72C56.4492 72 56.4492 72 56.4492 72C56.4492 72 56.4492 72 56.4492 72C56.4492 72 56.4492 72 56.4492 72C56.4492 72 56.4492 72 56.4492 72C56.4492 72 56.4492 72 56.4492 72C56.4492 72 56.4492 72 56.4492 72C56.4492 72 56.4492 72 56.4492 72C56.4492 72 56.4492 72 56.4492 72C56.4492 72 56.4492 72 56.4492 72C56.4492 72 56.4492 72 56.4492 72C56.4492 72 56.4492 72 56.4492 72C56.4492 72 56.4492 72 56.4492 72C56.4492 72 56.4492 72 56.4492 72C56.4492 72 56.4492 72 56.4492 72C56.4492 72 56.4492 72 56.4492 72C56.4492 72 56.4492 72 56.4492 72C56.4492 72 56.4492 72 56.4492 72C56.4492 72 56.4492 72 56.4492 72C56.4492 72 56.4492 72 56.4492 72C56.4492 72 56.4492 72 56.4492 72C56.4492 72 56.4492 72 56.4492 72C56.4492 72 56.4492 72 56.4492 72C56.4492 72 56.4492 72 56.4492 72C56.4492 72 56.4492 72 56.4492 72C56.4492 72 56.4492 72 56.4492 72C56.4492 72 56.4492 72 56.4492 72C56.4492 72 56.4492 72 56.4492 72C56.4492 72 56.4492 72 56.4492 72C56.4492 72 56.4492 72 56.4492 72C56.4492 72 56.4492 72 56.4492 72C56.4492 72 56.4492 72 56.4492 72C56.4492 72 56.4492 72 56.4492 72C56.4492 72 56.4492 72 56.4492 72C56.4492 72 56.4492 72 56.4492 72C56.4492 72 56.4492 72 56.4492 72C56.4492 72 56.4492 72 56.4492 72C56.4492 72 56.4492 72 56.4492 72C56.4492 72 56.4492 72 56.4492 72C56.4492 72 56.4492 72 56.4492 72C56.4492 72 56.4492 72 56.4492 72C56.4492 72 56.4492 72 56.4492 72C56.4492 72 56.4492 72 56.4492 72C56.4492 72 56.4492 72 56.4492 72C56.4492 72 56.4492 72 56.4492 72C56.4492 72 56.4492 72 56.4492 72C56.4492 72 56.4492 72 56.4492 72C56.4492 72 56.4492 72 56.4492 72C56.4492 72 56.4492 72 56.4492 72C56.4492 72 56.4492 72 56.4492 72C56.4492 72 56.4492 72 56.4492 72C56.4492 72 56.4492 72 56.4492 72C56.4492 72 56.4492 72 56.4492 72C56.4492 72 56.4492 72 56.4492 72C56.4492 72 56.4492 72 56.4492 72C56.4492 72 56.4492 72 56.4492 72C56.4492 72 56.4492 72 56.4492 72C56.4492 72 56.4492 72 56.4492 72C56.4492 72 56.4492 72 56.4492 72C56.4492 72 56.4492 72 56.4492 72C56.4492 72 56.4492 72 56.4492 72C56.4492 72 56.4492 72 56.4492 72C56.4492 72 56.4492 72 56.4492 72C56.4492 72 56.4492 72 56.4492 72C56.4492 72 56.4492 72 56.4492 72C56.4492 72 56.4492 72 56.4492 72C56.4492 72 56.4492 72 56.4492 72C56.4492 72 56.4492 72 56.4492 72C56.4492 72 56.4492 72 56.4492 72C56.4492 72 56.4492 72 56.4492 72C56.4492 72 56.4492 72 56.4492 72C56.4492 72 56.4492 72 56.4492 72C56.4492 72 56.4492 72 56.4492 72C56.4492 72 56.4492 72 56.4492 72C56.4492 72 56.4492 72 56.4492 72C56.4492 72 56.4492 72 56.4492 72C56.4492 72 56.4492 72 56.4492 72C56.4492 72 56.4492 72 56.4492 72C56.4492 72 56.4492 72 56.4492 72C56.4492 72 56.4492 72 56.4491 72C56.4491 72 56.4491 72 56.4491 72C56.4491 72 56.4491 72 56.4491 72C56.4491 72 56.4491 72 56.4491 72C56.4491 72 56.4491 72 56.4491 72C56.4491 72 56.4491 72 56.4491 72C56.4491 72 56.4491 72 56.4491 72C56.4491 72 56.4491 72 56.4491 72C56.4491 72 56.4491 72 56.4491 72C56.4491 72 56.4491 72 56.4491 72C56.4491 72 56.4491 72 56.4491 72C56.4491 72 56.4491 72 56.4491 72C56.4491 72 56.4491 72 56.4491 72C56.4491 72 56.4491 72 56.4491 72C56.4491 72 56.4491 72 56.4491 72C56.4491 72 56.4491 72 56.4491 72C56.4491 72 56.4491 72 56.4491 72C56.4491 72 56.4491 72 56.4491 72C56.4491 72 56.4491 72 56.4491 72C56.4491 72 56.4491 72 56.4491 72C56.4491 72 56.4491 72 56.4491 72C56.4491 72 56.4491 72 56.4491 72C56.4491 72 56.4491 72 56.4491 72C56.4491 72 56.4491 72 56.4491 72C56.4491 72 56.4491 72 56.4491 72C56.4491 72 56.4491 72 56.4491 72C56.4491 72 56.4491 72 56.4491 72C56.4491 72 56.4491 72 56.4491 72C56.4491 72 56.4491 72 56.4491 72C56.4491 72 56.4491 72 56.4491 72C56.4491 72 56.4491 72 56.4491 72C56.4491 72 56.4491 72 56.4491 72C56.4491 72 56.4491 72 56.4491 72C56.4491 72 56.4491 72 56.4491 72C56.4491 72 56.4491 72 56.4491 72C56.4491 72 56.4491 72 56.4491 72C56.4491 72 56.4491 72 56.4491 72C56.4491 72 56.4491 72 56.4491 72C56.4491 72 56.4491 72 56.4491 72C56.4491 72 56.4491 72 56.4491 72C56.4491 72 56.4491 72 56.4491 72C56.4491 72 56.4491 72 56.4491 72C56.4491 72 56.4491 72 56.4491 72C56.4491 72 56.4491 72 56.4491 72C56.4491 72 56.4491 72 56.4491 72C56.4491 72 56.4491 72 56.4491 72C56.4491 72 56.4491 72 56.4491 72C56.4491 72 56.4491 72 56.4491 72C56.4491 72 56.4491 72 56.4491 72C56.4491 72 56.4491 72 56.4491 72C56.4491 72 56.4491 72 56.4491 72C56.4491 72 56.4491 72 56.4491 72C56.4491 72 56.4491 72 56.4491 72C56.4491 72 56.4491 72 56.4491 72C56.4491 72 56.4491 72 56.4491 72C56.4491 72 56.4491 72 56.4491 72C56.4491 72 56.4491 72 56.4491 72C56.4491 72 56.4491 72 56.4491 72C56.4491 72 56.4491 72 56.4491 72C56.4491 72 56.4491 72 56.4491 72C56.4491 72 56.4491 72 56.4491 72C56.4491 72 56.4491 72 56.4491 72C56.4491 72 56.4491 72 56.4491 72C56.4491 72 56.4491 72 56.4491 72C56.4491 72 56.4491 72 56.4491 72C56.4491 72 56.4491 72 56.4491 72C56.4491 72 56.4491 72 56.4491 72C56.4491 72 56.4491 72 56.4491 72C56.4491 72 56.4491 72 56.4491 72C56.4491 72 56.4491 72 56.4491 72C56.4491 72 56.4491 72 56.4491 72C56.4491 72 56.4491 72 56.4491 72C56.4491 72 56.4491 72 56.4491 72C56.4491 72 56.4491 72 56.4491 72C56.4491 72 56.4491 72 56.4491 72C56.4491 72 56.4491 72 56.4491 72C56.4491 72 56.4491 72 56.4491 72C56.4491 72 56.4491 72 56.4491 72C56.4491 72 56.4491 72 56.4491 72C56.4491 72 56.4491 72 56.4491 72C56.4491 72 56.4491 72 56.4491 72C56.4491 72 56.4491 72 56.4491 72C56.4491 72 56.4491 72 56.4491 72C56.4491 72 56.4491 72 56.4491 72C56.4491 72 56.4491 72 56.4491 72C56.4491 72 56.4491 72 56.4491 72C56.4491 72 56.4491 72 56.4491 72C56.4491 72 56.4491 72 56.4491 72C56.4491 72 56.4491 72 56.4491 72C56.4491 72 56.4491 72 56.4491 72C56.4491 72 56.4491 72 56.4491 72C56.4491 72 56.4491 72 56.4491 72C56.4491 72 56.4491 72 56.4491 72C56.4491 72 56.4491 72 56.4491 72C56.4491 72 56.4491 72 56.4491 72C56.4491 72 56.4491 72 56.4491 72C56.4491 72 56.4491 72 56.4491 72C56.4491 72 56.4491 72 56.4491 72C56.4491 72 56.4491 72 56.4491 72V76ZM54.4491 74V74.0003H58.4491V74H54.4491ZM56.4491 72.0003H29.0205V76.0003H56.4491V72.0003ZM31.0205 74.0003V73.9964H27.0205V74.0003H31.0205ZM28.6939 76C28.8179 76 28.9416 75.9986 29.065 75.9959L28.976 71.9969C28.8823 71.999 28.7882 72 28.6939 72V76ZM12 59C12 68.3498 19.4354 76 28.6939 76V72C21.7219 72 16 66.2188 16 59H12ZM28.6939 42C19.4354 42 12 49.6502 12 59H16C16 51.7812 21.7219 46 28.6939 46V42ZM36.7318 44.097C34.347 42.7607 31.6054 42 28.6939 42V46C30.9001 46 32.9708 46.5747 34.7765 47.5865L36.7318 44.097ZM56.4495 28C45.7001 28 36.6715 35.3281 33.8308 45.2935L37.6775 46.3901C40.0551 38.0495 47.5822 32 56.4495 32V28ZM80.0005 52C80.0005 38.7842 69.495 28 56.4495 28V32C67.2085 32 76.0005 40.9152 76.0005 52H80.0005Z" fill="black" fill-opacity="0.14"/>
<path fill-rule="evenodd" clip-rule="evenodd" d="M86.353 57C86.353 64.5939 80.1613 70.75 72.5234 70.75C72.5234 70.75 72.5234 70.75 72.5233 70.75V70.7504H54.9221V70.7477C54.8524 70.7492 54.7825 70.75 54.7124 70.75C49.5048 70.75 45.2832 66.5527 45.2832 61.375C45.2832 56.1973 49.5048 52 54.7124 52C56.3545 52 57.8985 52.4173 59.243 53.1511C60.9173 47.4305 66.2294 43.25 72.5234 43.25C80.1613 43.25 86.353 49.4061 86.353 57Z" fill="url(#paint1_linear_407_761)"/>
<path d="M72.5233 70.75V69.3924H71.1658V70.75H72.5233ZM72.5233 70.7504V72.108H73.8809V70.7504H72.5233ZM54.9221 70.7504H53.5645V72.108H54.9221V70.7504ZM54.9221 70.7477H56.2797V69.3604L54.8927 69.3905L54.9221 70.7477ZM59.243 53.1511L58.5927 54.3428L60.0724 55.1503L60.5459 53.5324L59.243 53.1511ZM72.5234 72.1076C80.9037 72.1076 87.7105 65.3511 87.7105 57H84.9954C84.9954 63.8368 79.4189 69.3924 72.5234 69.3924V72.1076ZM72.5233 72.1076C72.5233 72.1076 72.5233 72.1076 72.5233 72.1076C72.5233 72.1076 72.5233 72.1076 72.5233 72.1076C72.5233 72.1076 72.5233 72.1076 72.5233 72.1076C72.5233 72.1076 72.5233 72.1076 72.5233 72.1076C72.5233 72.1076 72.5233 72.1076 72.5233 72.1076C72.5233 72.1076 72.5233 72.1076 72.5233 72.1076C72.5233 72.1076 72.5233 72.1076 72.5233 72.1076C72.5233 72.1076 72.5233 72.1076 72.5233 72.1076C72.5233 72.1076 72.5233 72.1076 72.5233 72.1076C72.5233 72.1076 72.5233 72.1076 72.5233 72.1076C72.5233 72.1076 72.5233 72.1076 72.5233 72.1076C72.5233 72.1076 72.5233 72.1076 72.5233 72.1076C72.5233 72.1076 72.5233 72.1076 72.5233 72.1076C72.5233 72.1076 72.5233 72.1076 72.5233 72.1076C72.5233 72.1076 72.5233 72.1076 72.5233 72.1076C72.5233 72.1076 72.5233 72.1076 72.5233 72.1076C72.5233 72.1076 72.5233 72.1076 72.5233 72.1076C72.5233 72.1076 72.5233 72.1076 72.5233 72.1076C72.5233 72.1076 72.5233 72.1076 72.5233 72.1076C72.5233 72.1076 72.5233 72.1076 72.5233 72.1076C72.5233 72.1076 72.5233 72.1076 72.5233 72.1076C72.5233 72.1076 72.5233 72.1076 72.5233 72.1076C72.5233 72.1076 72.5233 72.1076 72.5233 72.1076C72.5233 72.1076 72.5233 72.1076 72.5233 72.1076C72.5233 72.1076 72.5233 72.1076 72.5233 72.1076C72.5233 72.1076 72.5234 72.1076 72.5234 72.1076C72.5234 72.1076 72.5234 72.1076 72.5234 72.1076C72.5234 72.1076 72.5234 72.1076 72.5234 72.1076C72.5234 72.1076 72.5234 72.1076 72.5234 72.1076C72.5234 72.1076 72.5234 72.1076 72.5234 72.1076C72.5234 72.1076 72.5234 72.1076 72.5234 72.1076C72.5234 72.1076 72.5234 72.1076 72.5234 72.1076C72.5234 72.1076 72.5234 72.1076 72.5234 72.1076C72.5234 72.1076 72.5234 72.1076 72.5234 72.1076C72.5234 72.1076 72.5234 72.1076 72.5234 72.1076C72.5234 72.1076 72.5234 72.1076 72.5234 72.1076C72.5234 72.1076 72.5234 72.1076 72.5234 72.1076C72.5234 72.1076 72.5234 72.1076 72.5234 72.1076C72.5234 72.1076 72.5234 72.1076 72.5234 72.1076C72.5234 72.1076 72.5234 72.1076 72.5234 72.1076C72.5234 72.1076 72.5234 72.1076 72.5234 72.1076C72.5234 72.1076 72.5234 72.1076 72.5234 72.1076C72.5234 72.1076 72.5234 72.1076 72.5234 72.1076C72.5234 72.1076 72.5234 72.1076 72.5234 72.1076C72.5234 72.1076 72.5234 72.1076 72.5234 72.1076C72.5234 72.1076 72.5234 72.1076 72.5234 72.1076C72.5234 72.1076 72.5234 72.1076 72.5234 72.1076C72.5234 72.1076 72.5234 72.1076 72.5234 72.1076C72.5234 72.1076 72.5234 72.1076 72.5234 72.1076C72.5234 72.1076 72.5234 72.1076 72.5234 72.1076C72.5234 72.1076 72.5234 72.1076 72.5234 72.1076C72.5234 72.1076 72.5234 72.1076 72.5234 72.1076C72.5234 72.1076 72.5234 72.1076 72.5234 72.1076C72.5234 72.1076 72.5234 72.1076 72.5234 72.1076C72.5234 72.1076 72.5234 72.1076 72.5234 72.1076C72.5234 72.1076 72.5234 72.1076 72.5234 72.1076C72.5234 72.1076 72.5234 72.1076 72.5234 72.1076C72.5234 72.1076 72.5234 72.1076 72.5234 72.1076C72.5234 72.1076 72.5234 72.1076 72.5234 72.1076C72.5234 72.1076 72.5234 72.1076 72.5234 72.1076C72.5234 72.1076 72.5234 72.1076 72.5234 72.1076C72.5234 72.1076 72.5234 72.1076 72.5234 72.1076C72.5234 72.1076 72.5234 72.1076 72.5234 72.1076C72.5234 72.1076 72.5234 72.1076 72.5234 72.1076C72.5234 72.1076 72.5234 72.1076 72.5234 72.1076C72.5234 72.1076 72.5234 72.1076 72.5234 72.1076C72.5234 72.1076 72.5234 72.1076 72.5234 72.1076C72.5234 72.1076 72.5234 72.1076 72.5234 72.1076C72.5234 72.1076 72.5234 72.1076 72.5234 72.1076C72.5234 72.1076 72.5234 72.1076 72.5234 72.1076C72.5234 72.1076 72.5234 72.1076 72.5234 72.1076C72.5234 72.1076 72.5234 72.1076 72.5234 72.1076C72.5234 72.1076 72.5234 72.1076 72.5234 72.1076C72.5234 72.1076 72.5234 72.1076 72.5234 72.1076C72.5234 72.1076 72.5234 72.1076 72.5234 72.1076C72.5234 72.1076 72.5234 72.1076 72.5234 72.1076C72.5234 72.1076 72.5234 72.1076 72.5234 72.1076C72.5234 72.1076 72.5234 72.1076 72.5234 72.1076C72.5234 72.1076 72.5234 72.1076 72.5234 72.1076C72.5234 72.1076 72.5234 72.1076 72.5234 72.1076C72.5234 72.1076 72.5234 72.1076 72.5234 72.1076C72.5234 72.1076 72.5234 72.1076 72.5234 72.1076C72.5234 72.1076 72.5234 72.1076 72.5234 72.1076C72.5234 72.1076 72.5234 72.1076 72.5234 72.1076C72.5234 72.1076 72.5234 72.1076 72.5234 72.1076C72.5234 72.1076 72.5234 72.1076 72.5234 72.1076C72.5234 72.1076 72.5234 72.1076 72.5234 72.1076C72.5234 72.1076 72.5234 72.1076 72.5234 72.1076C72.5234 72.1076 72.5234 72.1076 72.5234 72.1076C72.5234 72.1076 72.5234 72.1076 72.5234 72.1076C72.5234 72.1076 72.5234 72.1076 72.5234 72.1076C72.5234 72.1076 72.5234 72.1076 72.5234 72.1076C72.5234 72.1076 72.5234 72.1076 72.5234 72.1076C72.5234 72.1076 72.5234 72.1076 72.5234 72.1076C72.5234 72.1076 72.5234 72.1076 72.5234 72.1076C72.5234 72.1076 72.5234 72.1076 72.5234 72.1076C72.5234 72.1076 72.5234 72.1076 72.5234 72.1076C72.5234 72.1076 72.5234 72.1076 72.5234 72.1076C72.5234 72.1076 72.5234 72.1076 72.5234 72.1076C72.5234 72.1076 72.5234 72.1076 72.5234 72.1076C72.5234 72.1076 72.5234 72.1076 72.5234 72.1076C72.5234 72.1076 72.5234 72.1076 72.5234 72.1076C72.5234 72.1076 72.5234 72.1076 72.5234 72.1076C72.5234 72.1076 72.5234 72.1076 72.5234 72.1076C72.5234 72.1076 72.5234 72.1076 72.5234 72.1076C72.5234 72.1076 72.5234 72.1076 72.5234 72.1076C72.5234 72.1076 72.5234 72.1076 72.5234 72.1076C72.5234 72.1076 72.5234 72.1076 72.5234 72.1076C72.5234 72.1076 72.5234 72.1076 72.5234 72.1076C72.5234 72.1076 72.5234 72.1076 72.5234 72.1076C72.5234 72.1076 72.5234 72.1076 72.5234 72.1076C72.5234 72.1076 72.5234 72.1076 72.5234 72.1076C72.5234 72.1076 72.5234 72.1076 72.5234 72.1076C72.5234 72.1076 72.5234 72.1076 72.5234 72.1076C72.5234 72.1076 72.5234 72.1076 72.5234 72.1076C72.5234 72.1076 72.5234 72.1076 72.5234 72.1076C72.5234 72.1076 72.5234 72.1076 72.5234 72.1076C72.5234 72.1076 72.5234 72.1076 72.5234 72.1076C72.5234 72.1076 72.5234 72.1076 72.5234 72.1076C72.5234 72.1076 72.5234 72.1076 72.5234 72.1076C72.5234 72.1076 72.5234 72.1076 72.5234 72.1076C72.5234 72.1076 72.5234 72.1076 72.5234 72.1076C72.5234 72.1076 72.5234 72.1076 72.5234 72.1076C72.5234 72.1076 72.5234 72.1076 72.5234 72.1076C72.5234 72.1076 72.5234 72.1076 72.5234 72.1076C72.5234 72.1076 72.5234 72.1076 72.5234 72.1076C72.5234 72.1076 72.5234 72.1076 72.5234 72.1076C72.5234 72.1076 72.5234 72.1076 72.5234 72.1076C72.5234 72.1076 72.5234 72.1076 72.5234 72.1076C72.5234 72.1076 72.5234 72.1076 72.5234 72.1076C72.5234 72.1076 72.5234 72.1076 72.5234 72.1076C72.5234 72.1076 72.5234 72.1076 72.5234 72.1076C72.5234 72.1076 72.5234 72.1076 72.5234 72.1076C72.5234 72.1076 72.5234 72.1076 72.5234 72.1076C72.5234 72.1076 72.5234 72.1076 72.5234 72.1076C72.5234 72.1076 72.5234 72.1076 72.5234 72.1076C72.5234 72.1076 72.5234 72.1076 72.5234 72.1076C72.5234 72.1076 72.5234 72.1076 72.5234 72.1076C72.5234 72.1076 72.5234 72.1076 72.5234 72.1076C72.5234 72.1076 72.5234 72.1076 72.5234 72.1076C72.5234 72.1076 72.5234 72.1076 72.5234 72.1076C72.5234 72.1076 72.5234 72.1076 72.5234 72.1076C72.5234 72.1076 72.5234 72.1076 72.5234 72.1076C72.5234 72.1076 72.5234 72.1076 72.5234 72.1076C72.5234 72.1076 72.5234 72.1076 72.5234 72.1076C72.5234 72.1076 72.5234 72.1076 72.5234 72.1076C72.5234 72.1076 72.5234 72.1076 72.5234 72.1076C72.5234 72.1076 72.5234 72.1076 72.5234 72.1076C72.5234 72.1076 72.5234 72.1076 72.5234 72.1076C72.5234 72.1076 72.5234 72.1076 72.5234 72.1076C72.5234 72.1076 72.5234 72.1076 72.5234 72.1076C72.5234 72.1076 72.5234 72.1076 72.5234 72.1076C72.5234 72.1076 72.5234 72.1076 72.5234 72.1076C72.5234 72.1076 72.5234 72.1076 72.5234 72.1076C72.5234 72.1076 72.5234 72.1076 72.5234 72.1076C72.5234 72.1076 72.5234 72.1076 72.5234 72.1076C72.5234 72.1076 72.5234 72.1076 72.5234 72.1076C72.5234 72.1076 72.5234 72.1076 72.5234 72.1076C72.5234 72.1076 72.5234 72.1076 72.5234 72.1076C72.5234 72.1076 72.5234 72.1076 72.5234 72.1076C72.5234 72.1076 72.5234 72.1076 72.5234 72.1076C72.5234 72.1076 72.5234 72.1076 72.5234 72.1076C72.5234 72.1076 72.5234 72.1076 72.5234 72.1076C72.5234 72.1076 72.5234 72.1076 72.5234 72.1076C72.5234 72.1076 72.5234 72.1076 72.5234 72.1076C72.5234 72.1076 72.5234 72.1076 72.5234 72.1076C72.5234 72.1076 72.5234 72.1076 72.5234 72.1076C72.5234 72.1076 72.5234 72.1076 72.5234 72.1076C72.5234 72.1076 72.5234 72.1076 72.5234 72.1076C72.5234 72.1076 72.5234 72.1076 72.5234 72.1076C72.5234 72.1076 72.5234 72.1076 72.5234 72.1076C72.5234 72.1076 72.5234 72.1076 72.5234 72.1076C72.5234 72.1076 72.5234 72.1076 72.5234 72.1076C72.5234 72.1076 72.5234 72.1076 72.5234 72.1076C72.5234 72.1076 72.5234 72.1076 72.5234 72.1076C72.5234 72.1076 72.5234 72.1076 72.5234 72.1076C72.5234 72.1076 72.5234 72.1076 72.5234 72.1076C72.5234 72.1076 72.5234 72.1076 72.5234 72.1076C72.5234 72.1076 72.5234 72.1076 72.5234 72.1076C72.5234 72.1076 72.5234 72.1076 72.5234 72.1076C72.5234 72.1076 72.5234 72.1076 72.5234 72.1076C72.5234 72.1076 72.5234 72.1076 72.5234 72.1076C72.5234 72.1076 72.5234 72.1076 72.5234 72.1076C72.5234 72.1076 72.5234 72.1076 72.5234 72.1076C72.5234 72.1076 72.5234 72.1076 72.5234 72.1076C72.5234 72.1076 72.5234 72.1076 72.5234 72.1076C72.5234 72.1076 72.5234 72.1076 72.5234 72.1076C72.5234 72.1076 72.5234 72.1076 72.5234 72.1076C72.5234 72.1076 72.5234 72.1076 72.5234 72.1076C72.5234 72.1076 72.5234 72.1076 72.5234 72.1076C72.5234 72.1076 72.5234 72.1076 72.5234 72.1076C72.5234 72.1076 72.5234 72.1076 72.5234 72.1076C72.5234 72.1076 72.5234 72.1076 72.5234 72.1076C72.5234 72.1076 72.5234 72.1076 72.5234 72.1076C72.5234 72.1076 72.5234 72.1076 72.5234 72.1076C72.5234 72.1076 72.5234 72.1076 72.5234 72.1076C72.5234 72.1076 72.5234 72.1076 72.5234 72.1076C72.5234 72.1076 72.5234 72.1076 72.5234 72.1076C72.5234 72.1076 72.5234 72.1076 72.5234 72.1076C72.5234 72.1076 72.5234 72.1076 72.5234 72.1076C72.5234 72.1076 72.5234 72.1076 72.5234 72.1076C72.5234 72.1076 72.5234 72.1076 72.5234 72.1076C72.5234 72.1076 72.5234 72.1076 72.5234 72.1076C72.5234 72.1076 72.5234 72.1076 72.5234 72.1076C72.5234 72.1076 72.5234 72.1076 72.5234 72.1076C72.5234 72.1076 72.5234 72.1076 72.5234 72.1076C72.5234 72.1076 72.5234 72.1076 72.5234 72.1076C72.5234 72.1076 72.5234 72.1076 72.5234 72.1076C72.5234 72.1076 72.5234 72.1076 72.5234 72.1076C72.5234 72.1076 72.5234 72.1076 72.5234 72.1076C72.5234 72.1076 72.5234 72.1076 72.5234 72.1076C72.5234 72.1076 72.5234 72.1076 72.5234 72.1076C72.5234 72.1076 72.5234 72.1076 72.5234 72.1076C72.5234 72.1076 72.5234 72.1076 72.5234 72.1076C72.5234 72.1076 72.5234 72.1076 72.5234 72.1076C72.5234 72.1076 72.5234 72.1076 72.5234 72.1076C72.5234 72.1076 72.5234 72.1076 72.5234 72.1076C72.5234 72.1076 72.5234 72.1076 72.5234 72.1076C72.5234 72.1076 72.5234 72.1076 72.5234 72.1076C72.5234 72.1076 72.5234 72.1076 72.5234 72.1076C72.5234 72.1076 72.5234 72.1076 72.5234 72.1076C72.5234 72.1076 72.5234 72.1076 72.5234 72.1076C72.5234 72.1076 72.5234 72.1076 72.5234 72.1076C72.5234 72.1076 72.5234 72.1076 72.5234 72.1076C72.5234 72.1076 72.5234 72.1076 72.5234 72.1076C72.5234 72.1076 72.5234 72.1076 72.5234 72.1076C72.5234 72.1076 72.5234 72.1076 72.5234 72.1076C72.5234 72.1076 72.5234 72.1076 72.5234 72.1076C72.5234 72.1076 72.5234 72.1076 72.5234 72.1076C72.5234 72.1076 72.5234 72.1076 72.5234 72.1076C72.5234 72.1076 72.5234 72.1076 72.5234 72.1076C72.5234 72.1076 72.5234 72.1076 72.5234 72.1076C72.5234 72.1076 72.5234 72.1076 72.5234 72.1076C72.5234 72.1076 72.5234 72.1076 72.5234 72.1076C72.5234 72.1076 72.5234 72.1076 72.5234 72.1076C72.5234 72.1076 72.5234 72.1076 72.5234 72.1076C72.5234 72.1076 72.5234 72.1076 72.5234 72.1076C72.5234 72.1076 72.5234 72.1076 72.5234 72.1076C72.5234 72.1076 72.5234 72.1076 72.5234 72.1076C72.5234 72.1076 72.5234 72.1076 72.5234 72.1076C72.5234 72.1076 72.5234 72.1076 72.5234 72.1076C72.5234 72.1076 72.5234 72.1076 72.5234 72.1076C72.5234 72.1076 72.5234 72.1076 72.5234 72.1076C72.5234 72.1076 72.5234 72.1076 72.5234 72.1076C72.5234 72.1076 72.5234 72.1076 72.5234 72.1076C72.5234 72.1076 72.5234 72.1076 72.5234 72.1076C72.5234 72.1076 72.5234 72.1076 72.5234 72.1076C72.5234 72.1076 72.5234 72.1076 72.5234 72.1076C72.5234 72.1076 72.5234 72.1076 72.5234 72.1076C72.5234 72.1076 72.5234 72.1076 72.5234 72.1076C72.5234 72.1076 72.5234 72.1076 72.5234 72.1076C72.5234 72.1076 72.5234 72.1076 72.5234 72.1076C72.5234 72.1076 72.5234 72.1076 72.5234 72.1076C72.5234 72.1076 72.5234 72.1076 72.5234 72.1076C72.5234 72.1076 72.5234 72.1076 72.5234 72.1076C72.5234 72.1076 72.5234 72.1076 72.5234 72.1076C72.5234 72.1076 72.5234 72.1076 72.5234 72.1076C72.5234 72.1076 72.5234 72.1076 72.5234 72.1076C72.5234 72.1076 72.5234 72.1076 72.5234 72.1076C72.5234 72.1076 72.5234 72.1076 72.5234 72.1076C72.5234 72.1076 72.5234 72.1076 72.5234 72.1076C72.5234 72.1076 72.5234 72.1076 72.5234 72.1076C72.5234 72.1076 72.5234 72.1076 72.5234 72.1076C72.5234 72.1076 72.5234 72.1076 72.5234 72.1076C72.5234 72.1076 72.5234 72.1076 72.5234 72.1076C72.5234 72.1076 72.5234 72.1076 72.5234 72.1076C72.5234 72.1076 72.5234 72.1076 72.5234 72.1076C72.5234 72.1076 72.5234 72.1076 72.5234 72.1076C72.5234 72.1076 72.5234 72.1076 72.5234 72.1076C72.5234 72.1076 72.5234 72.1076 72.5234 72.1076C72.5234 72.1076 72.5234 72.1076 72.5234 72.1076C72.5234 72.1076 72.5234 72.1076 72.5234 72.1076C72.5234 72.1076 72.5234 72.1076 72.5234 72.1076C72.5234 72.1076 72.5234 72.1076 72.5234 72.1076C72.5234 72.1076 72.5234 72.1076 72.5234 72.1076C72.5234 72.1076 72.5234 72.1076 72.5234 72.1076C72.5234 72.1076 72.5234 72.1076 72.5234 72.1076C72.5234 72.1076 72.5234 72.1076 72.5234 72.1076C72.5234 72.1076 72.5234 72.1076 72.5234 72.1076C72.5234 72.1076 72.5234 72.1076 72.5234 72.1076C72.5234 72.1076 72.5234 72.1076 72.5234 72.1076C72.5234 72.1076 72.5234 72.1076 72.5234 72.1076C72.5234 72.1076 72.5234 72.1076 72.5234 72.1076C72.5234 72.1076 72.5234 72.1076 72.5234 72.1076C72.5234 72.1076 72.5234 72.1076 72.5234 72.1076C72.5234 72.1076 72.5234 72.1076 72.5234 72.1076C72.5234 72.1076 72.5234 72.1076 72.5234 72.1076C72.5234 72.1076 72.5234 72.1076 72.5234 72.1076C72.5234 72.1076 72.5234 72.1076 72.5234 72.1076C72.5234 72.1076 72.5234 72.1076 72.5234 72.1076C72.5234 72.1076 72.5234 72.1076 72.5234 72.1076C72.5234 72.1076 72.5234 72.1076 72.5234 72.1076C72.5234 72.1076 72.5234 72.1076 72.5234 72.1076C72.5234 72.1076 72.5234 72.1076 72.5234 72.1076C72.5234 72.1076 72.5234 72.1076 72.5234 72.1076C72.5234 72.1076 72.5234 72.1076 72.5234 72.1076C72.5234 72.1076 72.5234 72.1076 72.5234 72.1076C72.5234 72.1076 72.5234 72.1076 72.5234 72.1076C72.5234 72.1076 72.5234 72.1076 72.5234 72.1076C72.5234 72.1076 72.5234 72.1076 72.5234 72.1076C72.5234 72.1076 72.5234 72.1076 72.5234 72.1076C72.5234 72.1076 72.5234 72.1076 72.5234 72.1076C72.5234 72.1076 72.5234 72.1076 72.5234 72.1076C72.5234 72.1076 72.5234 72.1076 72.5234 72.1076C72.5234 72.1076 72.5234 72.1076 72.5234 72.1076C72.5234 72.1076 72.5234 72.1076 72.5234 72.1076C72.5234 72.1076 72.5234 72.1076 72.5234 72.1076C72.5234 72.1076 72.5234 72.1076 72.5234 72.1076C72.5234 72.1076 72.5234 72.1076 72.5234 72.1076C72.5234 72.1076 72.5234 72.1076 72.5234 72.1076C72.5234 72.1076 72.5234 72.1076 72.5234 72.1076C72.5234 72.1076 72.5234 72.1076 72.5234 72.1076C72.5234 72.1076 72.5234 72.1076 72.5234 72.1076C72.5234 72.1076 72.5234 72.1076 72.5234 72.1076C72.5234 72.1076 72.5234 72.1076 72.5234 72.1076C72.5234 72.1076 72.5234 72.1076 72.5234 72.1076C72.5234 72.1076 72.5234 72.1076 72.5234 72.1076C72.5234 72.1076 72.5234 72.1076 72.5234 72.1076C72.5234 72.1076 72.5234 72.1076 72.5234 72.1076C72.5234 72.1076 72.5234 72.1076 72.5234 72.1076C72.5234 72.1076 72.5234 72.1076 72.5234 72.1076C72.5234 72.1076 72.5234 72.1076 72.5234 72.1076C72.5234 72.1076 72.5234 72.1076 72.5234 72.1076C72.5234 72.1076 72.5234 72.1076 72.5234 72.1076C72.5234 72.1076 72.5234 72.1076 72.5234 72.1076C72.5234 72.1076 72.5234 72.1076 72.5234 72.1076C72.5234 72.1076 72.5234 72.1076 72.5234 72.1076C72.5234 72.1076 72.5234 72.1076 72.5234 72.1076C72.5234 72.1076 72.5234 72.1076 72.5234 72.1076C72.5234 72.1076 72.5234 72.1076 72.5234 72.1076C72.5234 72.1076 72.5234 72.1076 72.5234 72.1076C72.5234 72.1076 72.5234 72.1076 72.5234 72.1076C72.5234 72.1076 72.5234 72.1076 72.5234 72.1076C72.5234 72.1076 72.5234 72.1076 72.5234 72.1076C72.5234 72.1076 72.5234 72.1076 72.5234 72.1076C72.5234 72.1076 72.5234 72.1076 72.5234 72.1076C72.5234 72.1076 72.5234 72.1076 72.5234 72.1076C72.5234 72.1076 72.5234 72.1076 72.5234 72.1076C72.5234 72.1076 72.5234 72.1076 72.5234 72.1076C72.5234 72.1076 72.5234 72.1076 72.5234 72.1076C72.5234 72.1076 72.5234 72.1076 72.5234 72.1076C72.5234 72.1076 72.5234 72.1076 72.5234 72.1076C72.5234 72.1076 72.5234 72.1076 72.5234 72.1076C72.5234 72.1076 72.5234 72.1076 72.5234 72.1076C72.5234 72.1076 72.5234 72.1076 72.5234 72.1076C72.5234 72.1076 72.5234 72.1076 72.5234 72.1076C72.5234 72.1076 72.5234 72.1076 72.5234 72.1076C72.5234 72.1076 72.5234 72.1076 72.5234 72.1076C72.5234 72.1076 72.5234 72.1076 72.5234 72.1076C72.5234 72.1076 72.5234 72.1076 72.5234 72.1076C72.5234 72.1076 72.5234 72.1076 72.5234 72.1076C72.5234 72.1076 72.5234 72.1076 72.5234 72.1076C72.5234 72.1076 72.5234 72.1076 72.5234 72.1076C72.5234 72.1076 72.5234 72.1076 72.5234 72.1076C72.5234 72.1076 72.5234 72.1076 72.5234 72.1076C72.5234 72.1076 72.5234 72.1076 72.5234 72.1076C72.5234 72.1076 72.5234 72.1076 72.5234 72.1076C72.5234 72.1076 72.5234 72.1076 72.5234 72.1076C72.5234 72.1076 72.5234 72.1076 72.5234 72.1076C72.5234 72.1076 72.5234 72.1076 72.5234 72.1076C72.5234 72.1076 72.5234 72.1076 72.5234 72.1076C72.5234 72.1076 72.5234 72.1076 72.5234 72.1076C72.5234 72.1076 72.5234 72.1076 72.5234 72.1076C72.5234 72.1076 72.5234 72.1076 72.5234 72.1076C72.5234 72.1076 72.5234 72.1076 72.5234 72.1076C72.5234 72.1076 72.5234 72.1076 72.5234 72.1076C72.5234 72.1076 72.5234 72.1076 72.5234 72.1076C72.5234 72.1076 72.5234 72.1076 72.5234 72.1076C72.5234 72.1076 72.5234 72.1076 72.5234 72.1076C72.5234 72.1076 72.5234 72.1076 72.5234 72.1076C72.5234 72.1076 72.5234 72.1076 72.5234 72.1076C72.5234 72.1076 72.5234 72.1076 72.5234 72.1076C72.5234 72.1076 72.5234 72.1076 72.5234 72.1076C72.5234 72.1076 72.5234 72.1076 72.5234 72.1076C72.5234 72.1076 72.5234 72.1076 72.5234 72.1076C72.5234 72.1076 72.5234 72.1076 72.5234 72.1076C72.5234 72.1076 72.5234 72.1076 72.5234 72.1076C72.5234 72.1076 72.5234 72.1076 72.5234 72.1076C72.5234 72.1076 72.5234 72.1076 72.5234 72.1076C72.5234 72.1076 72.5234 72.1076 72.5234 72.1076C72.5234 72.1076 72.5234 72.1076 72.5234 72.1076C72.5234 72.1076 72.5234 72.1076 72.5234 72.1076C72.5234 72.1076 72.5234 72.1076 72.5234 72.1076C72.5234 72.1076 72.5234 72.1076 72.5234 72.1076C72.5234 72.1076 72.5234 72.1076 72.5234 72.1076C72.5234 72.1076 72.5234 72.1076 72.5234 72.1076C72.5234 72.1076 72.5234 72.1076 72.5234 72.1076C72.5234 72.1076 72.5234 72.1076 72.5234 72.1076C72.5234 72.1076 72.5234 72.1076 72.5234 72.1076C72.5234 72.1076 72.5234 72.1076 72.5234 72.1076C72.5234 72.1076 72.5234 72.1076 72.5234 72.1076C72.5234 72.1076 72.5234 72.1076 72.5234 72.1076C72.5234 72.1076 72.5234 72.1076 72.5234 72.1076C72.5234 72.1076 72.5234 72.1076 72.5234 72.1076C72.5234 72.1076 72.5234 72.1076 72.5234 72.1076C72.5234 72.1076 72.5234 72.1076 72.5234 72.1076C72.5234 72.1076 72.5234 72.1076 72.5234 72.1076C72.5234 72.1076 72.5234 72.1076 72.5234 72.1076C72.5234 72.1076 72.5234 72.1076 72.5234 72.1076C72.5234 72.1076 72.5234 72.1076 72.5234 72.1076C72.5234 72.1076 72.5234 72.1076 72.5234 72.1076C72.5234 72.1076 72.5234 72.1076 72.5234 72.1076C72.5234 72.1076 72.5234 72.1076 72.5234 72.1076C72.5234 72.1076 72.5234 72.1076 72.5234 72.1076C72.5234 72.1076 72.5234 72.1076 72.5234 72.1076C72.5234 72.1076 72.5234 72.1076 72.5234 72.1076C72.5234 72.1076 72.5234 72.1076 72.5234 72.1076C72.5234 72.1076 72.5234 72.1076 72.5234 72.1076C72.5234 72.1076 72.5234 72.1076 72.5234 72.1076C72.5234 72.1076 72.5234 72.1076 72.5234 72.1076C72.5234 72.1076 72.5234 72.1076 72.5234 72.1076C72.5234 72.1076 72.5234 72.1076 72.5234 72.1076C72.5234 72.1076 72.5234 72.1076 72.5234 72.1076C72.5234 72.1076 72.5234 72.1076 72.5234 72.1076C72.5234 72.1076 72.5234 72.1076 72.5234 72.1076C72.5234 72.1076 72.5234 72.1076 72.5234 72.1076C72.5234 72.1076 72.5234 72.1076 72.5234 72.1076C72.5234 72.1076 72.5234 72.1076 72.5234 72.1076C72.5234 72.1076 72.5234 72.1076 72.5234 72.1076C72.5234 72.1076 72.5234 72.1076 72.5234 72.1076C72.5234 72.1076 72.5234 72.1076 72.5234 72.1076C72.5234 72.1076 72.5234 72.1076 72.5234 72.1076C72.5234 72.1076 72.5234 72.1076 72.5234 72.1076C72.5234 72.1076 72.5234 72.1076 72.5234 72.1076C72.5234 72.1076 72.5234 72.1076 72.5234 72.1076C72.5234 72.1076 72.5234 72.1076 72.5234 72.1076C72.5234 72.1076 72.5234 72.1076 72.5234 72.1076C72.5234 72.1076 72.5234 72.1076 72.5234 72.1076C72.5234 72.1076 72.5234 72.1076 72.5234 72.1076C72.5234 72.1076 72.5234 72.1076 72.5234 72.1076C72.5234 72.1076 72.5234 72.1076 72.5234 72.1076C72.5234 72.1076 72.5234 72.1076 72.5234 72.1076C72.5234 72.1076 72.5234 72.1076 72.5234 72.1076C72.5234 72.1076 72.5234 72.1076 72.5234 72.1076C72.5234 72.1076 72.5234 72.1076 72.5234 72.1076C72.5234 72.1076 72.5234 72.1076 72.5234 72.1076C72.5234 72.1076 72.5234 72.1076 72.5234 72.1076C72.5234 72.1076 72.5234 72.1076 72.5234 72.1076C72.5234 72.1076 72.5234 72.1076 72.5234 72.1076C72.5234 72.1076 72.5234 72.1076 72.5234 72.1076C72.5234 72.1076 72.5234 72.1076 72.5234 72.1076C72.5234 72.1076 72.5234 72.1076 72.5234 72.1076C72.5234 72.1076 72.5234 72.1076 72.5234 72.1076C72.5234 72.1076 72.5234 72.1076 72.5234 72.1076C72.5234 72.1076 72.5234 72.1076 72.5234 72.1076C72.5234 72.1076 72.5234 72.1076 72.5234 72.1076C72.5234 72.1076 72.5234 72.1076 72.5234 72.1076C72.5234 72.1076 72.5234 72.1076 72.5234 72.1076C72.5234 72.1076 72.5234 72.1076 72.5234 72.1076C72.5234 72.1076 72.5234 72.1076 72.5234 72.1076C72.5234 72.1076 72.5234 72.1076 72.5234 72.1076C72.5234 72.1076 72.5234 72.1076 72.5234 72.1076C72.5234 72.1076 72.5234 72.1076 72.5234 72.1076C72.5234 72.1076 72.5234 72.1076 72.5234 72.1076C72.5234 72.1076 72.5234 72.1076 72.5234 72.1076C72.5234 72.1076 72.5234 72.1076 72.5234 72.1076C72.5234 72.1076 72.5234 72.1076 72.5234 72.1076C72.5234 72.1076 72.5234 72.1076 72.5234 72.1076C72.5234 72.1076 72.5234 72.1076 72.5234 72.1076C72.5234 72.1076 72.5234 72.1076 72.5234 72.1076C72.5234 72.1076 72.5234 72.1076 72.5234 72.1076C72.5234 72.1076 72.5234 72.1076 72.5234 72.1076C72.5234 72.1076 72.5234 72.1076 72.5234 72.1076C72.5234 72.1076 72.5234 72.1076 72.5234 72.1076C72.5234 72.1076 72.5234 72.1076 72.5234 72.1076C72.5234 72.1076 72.5234 72.1076 72.5234 72.1076C72.5234 72.1076 72.5234 72.1076 72.5234 72.1076C72.5234 72.1076 72.5234 72.1076 72.5234 72.1076C72.5234 72.1076 72.5234 72.1076 72.5234 72.1076C72.5234 72.1076 72.5234 72.1076 72.5234 72.1076C72.5234 72.1076 72.5234 72.1076 72.5234 72.1076C72.5234 72.1076 72.5234 72.1076 72.5234 72.1076C72.5234 72.1076 72.5234 72.1076 72.5234 72.1076C72.5234 72.1076 72.5234 72.1076 72.5234 72.1076C72.5234 72.1076 72.5234 72.1076 72.5234 72.1076C72.5234 72.1076 72.5234 72.1076 72.5234 72.1076C72.5234 72.1076 72.5234 72.1076 72.5234 72.1076C72.5234 72.1076 72.5234 72.1076 72.5234 72.1076C72.5234 72.1076 72.5234 72.1076 72.5234 72.1076C72.5234 72.1076 72.5234 72.1076 72.5234 72.1076C72.5234 72.1076 72.5234 72.1076 72.5234 72.1076C72.5234 72.1076 72.5234 72.1076 72.5234 72.1076C72.5234 72.1076 72.5234 72.1076 72.5234 72.1076C72.5234 72.1076 72.5234 72.1076 72.5234 72.1076C72.5234 72.1076 72.5234 72.1076 72.5234 72.1076C72.5234 72.1076 72.5234 72.1076 72.5234 72.1076C72.5234 72.1076 72.5234 72.1076 72.5234 72.1076C72.5234 72.1076 72.5234 72.1076 72.5234 72.1076C72.5234 72.1076 72.5234 72.1076 72.5234 72.1076C72.5234 72.1076 72.5234 72.1076 72.5234 72.1076C72.5234 72.1076 72.5234 72.1076 72.5234 72.1076C72.5234 72.1076 72.5234 72.1076 72.5234 72.1076C72.5234 72.1076 72.5234 72.1076 72.5234 72.1076C72.5234 72.1076 72.5234 72.1076 72.5234 72.1076C72.5234 72.1076 72.5234 72.1076 72.5234 72.1076C72.5234 72.1076 72.5234 72.1076 72.5234 72.1076C72.5234 72.1076 72.5234 72.1076 72.5234 72.1076C72.5234 72.1076 72.5234 72.1076 72.5234 72.1076C72.5234 72.1076 72.5234 72.1076 72.5234 72.1076C72.5234 72.1076 72.5234 72.1076 72.5234 72.1076C72.5234 72.1076 72.5234 72.1076 72.5234 72.1076C72.5234 72.1076 72.5234 72.1076 72.5234 72.1076C72.5234 72.1076 72.5234 72.1076 72.5234 72.1076C72.5234 72.1076 72.5234 72.1076 72.5234 72.1076C72.5234 72.1076 72.5234 72.1076 72.5234 72.1076C72.5234 72.1076 72.5234 72.1076 72.5234 72.1076C72.5234 72.1076 72.5234 72.1076 72.5234 72.1076C72.5234 72.1076 72.5234 72.1076 72.5234 72.1076C72.5234 72.1076 72.5234 72.1076 72.5234 72.1076C72.5234 72.1076 72.5234 72.1076 72.5234 72.1076C72.5234 72.1076 72.5234 72.1076 72.5234 72.1076C72.5234 72.1076 72.5234 72.1076 72.5234 72.1076V69.3924C72.5234 69.3924 72.5234 69.3924 72.5234 69.3924C72.5234 69.3924 72.5234 69.3924 72.5234 69.3924C72.5234 69.3924 72.5234 69.3924 72.5234 69.3924C72.5234 69.3924 72.5234 69.3924 72.5234 69.3924C72.5234 69.3924 72.5234 69.3924 72.5234 69.3924C72.5234 69.3924 72.5234 69.3924 72.5234 69.3924C72.5234 69.3924 72.5234 69.3924 72.5234 69.3924C72.5234 69.3924 72.5234 69.3924 72.5234 69.3924C72.5234 69.3924 72.5234 69.3924 72.5234 69.3924C72.5234 69.3924 72.5234 69.3924 72.5234 69.3924C72.5234 69.3924 72.5234 69.3924 72.5234 69.3924C72.5234 69.3924 72.5234 69.3924 72.5234 69.3924C72.5234 69.3924 72.5234 69.3924 72.5234 69.3924C72.5234 69.3924 72.5234 69.3924 72.5234 69.3924C72.5234 69.3924 72.5234 69.3924 72.5234 69.3924C72.5234 69.3924 72.5234 69.3924 72.5234 69.3924C72.5234 69.3924 72.5234 69.3924 72.5234 69.3924C72.5234 69.3924 72.5234 69.3924 72.5234 69.3924C72.5234 69.3924 72.5234 69.3924 72.5234 69.3924C72.5234 69.3924 72.5234 69.3924 72.5234 69.3924C72.5234 69.3924 72.5234 69.3924 72.5234 69.3924C72.5234 69.3924 72.5234 69.3924 72.5234 69.3924C72.5234 69.3924 72.5234 69.3924 72.5234 69.3924C72.5234 69.3924 72.5234 69.3924 72.5234 69.3924C72.5234 69.3924 72.5234 69.3924 72.5234 69.3924C72.5234 69.3924 72.5234 69.3924 72.5234 69.3924C72.5234 69.3924 72.5234 69.3924 72.5234 69.3924C72.5234 69.3924 72.5234 69.3924 72.5234 69.3924C72.5234 69.3924 72.5234 69.3924 72.5234 69.3924C72.5234 69.3924 72.5234 69.3924 72.5234 69.3924C72.5234 69.3924 72.5234 69.3924 72.5234 69.3924C72.5234 69.3924 72.5234 69.3924 72.5234 69.3924C72.5234 69.3924 72.5234 69.3924 72.5234 69.3924C72.5234 69.3924 72.5234 69.3924 72.5234 69.3924C72.5234 69.3924 72.5234 69.3924 72.5234 69.3924C72.5234 69.3924 72.5234 69.3924 72.5234 69.3924C72.5234 69.3924 72.5234 69.3924 72.5234 69.3924C72.5234 69.3924 72.5234 69.3924 72.5234 69.3924C72.5234 69.3924 72.5234 69.3924 72.5234 69.3924C72.5234 69.3924 72.5234 69.3924 72.5234 69.3924C72.5234 69.3924 72.5234 69.3924 72.5234 69.3924C72.5234 69.3924 72.5234 69.3924 72.5234 69.3924C72.5234 69.3924 72.5234 69.3924 72.5234 69.3924C72.5234 69.3924 72.5234 69.3924 72.5234 69.3924C72.5234 69.3924 72.5234 69.3924 72.5234 69.3924C72.5234 69.3924 72.5234 69.3924 72.5234 69.3924C72.5234 69.3924 72.5234 69.3924 72.5234 69.3924C72.5234 69.3924 72.5234 69.3924 72.5234 69.3924C72.5234 69.3924 72.5234 69.3924 72.5234 69.3924C72.5234 69.3924 72.5234 69.3924 72.5234 69.3924C72.5234 69.3924 72.5234 69.3924 72.5234 69.3924C72.5234 69.3924 72.5234 69.3924 72.5234 69.3924C72.5234 69.3924 72.5234 69.3924 72.5234 69.3924C72.5234 69.3924 72.5234 69.3924 72.5234 69.3924C72.5234 69.3924 72.5234 69.3924 72.5234 69.3924C72.5234 69.3924 72.5234 69.3924 72.5234 69.3924C72.5234 69.3924 72.5234 69.3924 72.5234 69.3924C72.5234 69.3924 72.5234 69.3924 72.5234 69.3924C72.5234 69.3924 72.5234 69.3924 72.5234 69.3924C72.5234 69.3924 72.5234 69.3924 72.5234 69.3924C72.5234 69.3924 72.5234 69.3924 72.5234 69.3924C72.5234 69.3924 72.5234 69.3924 72.5234 69.3924C72.5234 69.3924 72.5234 69.3924 72.5234 69.3924C72.5234 69.3924 72.5234 69.3924 72.5234 69.3924C72.5234 69.3924 72.5234 69.3924 72.5234 69.3924C72.5234 69.3924 72.5234 69.3924 72.5234 69.3924C72.5234 69.3924 72.5234 69.3924 72.5234 69.3924C72.5234 69.3924 72.5234 69.3924 72.5234 69.3924C72.5234 69.3924 72.5234 69.3924 72.5234 69.3924C72.5234 69.3924 72.5234 69.3924 72.5234 69.3924C72.5234 69.3924 72.5234 69.3924 72.5234 69.3924C72.5234 69.3924 72.5234 69.3924 72.5234 69.3924C72.5234 69.3924 72.5234 69.3924 72.5234 69.3924C72.5234 69.3924 72.5234 69.3924 72.5234 69.3924C72.5234 69.3924 72.5234 69.3924 72.5234 69.3924C72.5234 69.3924 72.5234 69.3924 72.5234 69.3924C72.5234 69.3924 72.5234 69.3924 72.5234 69.3924C72.5234 69.3924 72.5234 69.3924 72.5234 69.3924C72.5234 69.3924 72.5234 69.3924 72.5234 69.3924C72.5234 69.3924 72.5234 69.3924 72.5234 69.3924C72.5234 69.3924 72.5234 69.3924 72.5234 69.3924C72.5234 69.3924 72.5234 69.3924 72.5234 69.3924C72.5234 69.3924 72.5234 69.3924 72.5234 69.3924C72.5234 69.3924 72.5234 69.3924 72.5234 69.3924C72.5234 69.3924 72.5234 69.3924 72.5234 69.3924C72.5234 69.3924 72.5234 69.3924 72.5234 69.3924C72.5234 69.3924 72.5234 69.3924 72.5234 69.3924C72.5234 69.3924 72.5234 69.3924 72.5234 69.3924C72.5234 69.3924 72.5234 69.3924 72.5234 69.3924C72.5234 69.3924 72.5234 69.3924 72.5234 69.3924C72.5234 69.3924 72.5234 69.3924 72.5234 69.3924C72.5234 69.3924 72.5234 69.3924 72.5234 69.3924C72.5234 69.3924 72.5234 69.3924 72.5234 69.3924C72.5234 69.3924 72.5234 69.3924 72.5234 69.3924C72.5234 69.3924 72.5234 69.3924 72.5234 69.3924C72.5234 69.3924 72.5234 69.3924 72.5234 69.3924C72.5234 69.3924 72.5234 69.3924 72.5234 69.3924C72.5234 69.3924 72.5234 69.3924 72.5234 69.3924C72.5234 69.3924 72.5234 69.3924 72.5234 69.3924C72.5234 69.3924 72.5234 69.3924 72.5234 69.3924C72.5234 69.3924 72.5234 69.3924 72.5234 69.3924C72.5234 69.3924 72.5234 69.3924 72.5234 69.3924C72.5234 69.3924 72.5234 69.3924 72.5234 69.3924C72.5234 69.3924 72.5234 69.3924 72.5234 69.3924C72.5234 69.3924 72.5234 69.3924 72.5234 69.3924C72.5234 69.3924 72.5234 69.3924 72.5234 69.3924C72.5234 69.3924 72.5234 69.3924 72.5234 69.3924C72.5234 69.3924 72.5234 69.3924 72.5234 69.3924C72.5234 69.3924 72.5234 69.3924 72.5234 69.3924C72.5234 69.3924 72.5234 69.3924 72.5234 69.3924C72.5234 69.3924 72.5234 69.3924 72.5234 69.3924C72.5234 69.3924 72.5234 69.3924 72.5234 69.3924C72.5234 69.3924 72.5234 69.3924 72.5234 69.3924C72.5234 69.3924 72.5234 69.3924 72.5234 69.3924C72.5234 69.3924 72.5234 69.3924 72.5234 69.3924C72.5234 69.3924 72.5234 69.3924 72.5234 69.3924C72.5234 69.3924 72.5234 69.3924 72.5234 69.3924C72.5234 69.3924 72.5234 69.3924 72.5234 69.3924C72.5234 69.3924 72.5234 69.3924 72.5234 69.3924C72.5234 69.3924 72.5234 69.3924 72.5234 69.3924C72.5234 69.3924 72.5234 69.3924 72.5234 69.3924C72.5234 69.3924 72.5234 69.3924 72.5234 69.3924C72.5234 69.3924 72.5234 69.3924 72.5234 69.3924C72.5234 69.3924 72.5234 69.3924 72.5234 69.3924C72.5234 69.3924 72.5234 69.3924 72.5234 69.3924C72.5234 69.3924 72.5234 69.3924 72.5234 69.3924C72.5234 69.3924 72.5234 69.3924 72.5234 69.3924C72.5234 69.3924 72.5234 69.3924 72.5234 69.3924C72.5234 69.3924 72.5234 69.3924 72.5234 69.3924C72.5234 69.3924 72.5234 69.3924 72.5234 69.3924C72.5234 69.3924 72.5234 69.3924 72.5234 69.3924C72.5234 69.3924 72.5234 69.3924 72.5234 69.3924C72.5234 69.3924 72.5234 69.3924 72.5234 69.3924C72.5234 69.3924 72.5234 69.3924 72.5234 69.3924C72.5234 69.3924 72.5234 69.3924 72.5234 69.3924C72.5234 69.3924 72.5234 69.3924 72.5234 69.3924C72.5234 69.3924 72.5234 69.3924 72.5234 69.3924C72.5234 69.3924 72.5234 69.3924 72.5234 69.3924C72.5234 69.3924 72.5234 69.3924 72.5234 69.3924C72.5234 69.3924 72.5234 69.3924 72.5234 69.3924C72.5234 69.3924 72.5234 69.3924 72.5234 69.3924C72.5234 69.3924 72.5234 69.3924 72.5234 69.3924C72.5234 69.3924 72.5234 69.3924 72.5234 69.3924C72.5234 69.3924 72.5234 69.3924 72.5234 69.3924C72.5234 69.3924 72.5234 69.3924 72.5234 69.3924C72.5234 69.3924 72.5234 69.3924 72.5234 69.3924C72.5234 69.3924 72.5234 69.3924 72.5234 69.3924C72.5234 69.3924 72.5234 69.3924 72.5234 69.3924C72.5234 69.3924 72.5234 69.3924 72.5234 69.3924C72.5234 69.3924 72.5234 69.3924 72.5234 69.3924C72.5234 69.3924 72.5234 69.3924 72.5234 69.3924C72.5234 69.3924 72.5234 69.3924 72.5234 69.3924C72.5234 69.3924 72.5234 69.3924 72.5234 69.3924C72.5234 69.3924 72.5234 69.3924 72.5234 69.3924C72.5234 69.3924 72.5234 69.3924 72.5234 69.3924C72.5234 69.3924 72.5234 69.3924 72.5234 69.3924C72.5234 69.3924 72.5234 69.3924 72.5234 69.3924C72.5234 69.3924 72.5234 69.3924 72.5234 69.3924C72.5234 69.3924 72.5234 69.3924 72.5234 69.3924C72.5234 69.3924 72.5234 69.3924 72.5234 69.3924C72.5234 69.3924 72.5234 69.3924 72.5234 69.3924C72.5234 69.3924 72.5234 69.3924 72.5234 69.3924C72.5234 69.3924 72.5234 69.3924 72.5234 69.3924C72.5234 69.3924 72.5234 69.3924 72.5234 69.3924C72.5234 69.3924 72.5234 69.3924 72.5234 69.3924C72.5234 69.3924 72.5234 69.3924 72.5234 69.3924C72.5234 69.3924 72.5234 69.3924 72.5234 69.3924C72.5234 69.3924 72.5234 69.3924 72.5234 69.3924C72.5234 69.3924 72.5234 69.3924 72.5234 69.3924C72.5234 69.3924 72.5234 69.3924 72.5234 69.3924C72.5234 69.3924 72.5234 69.3924 72.5234 69.3924C72.5234 69.3924 72.5234 69.3924 72.5234 69.3924C72.5234 69.3924 72.5234 69.3924 72.5234 69.3924C72.5234 69.3924 72.5234 69.3924 72.5234 69.3924C72.5234 69.3924 72.5234 69.3924 72.5234 69.3924C72.5234 69.3924 72.5234 69.3924 72.5234 69.3924C72.5234 69.3924 72.5234 69.3924 72.5234 69.3924C72.5234 69.3924 72.5234 69.3924 72.5234 69.3924C72.5234 69.3924 72.5234 69.3924 72.5234 69.3924C72.5234 69.3924 72.5234 69.3924 72.5234 69.3924C72.5234 69.3924 72.5234 69.3924 72.5234 69.3924C72.5234 69.3924 72.5234 69.3924 72.5234 69.3924C72.5234 69.3924 72.5234 69.3924 72.5234 69.3924C72.5234 69.3924 72.5234 69.3924 72.5234 69.3924C72.5234 69.3924 72.5234 69.3924 72.5234 69.3924C72.5234 69.3924 72.5234 69.3924 72.5234 69.3924C72.5234 69.3924 72.5234 69.3924 72.5234 69.3924C72.5234 69.3924 72.5234 69.3924 72.5234 69.3924C72.5234 69.3924 72.5234 69.3924 72.5234 69.3924C72.5234 69.3924 72.5234 69.3924 72.5234 69.3924C72.5234 69.3924 72.5234 69.3924 72.5234 69.3924C72.5234 69.3924 72.5234 69.3924 72.5234 69.3924C72.5234 69.3924 72.5234 69.3924 72.5234 69.3924C72.5234 69.3924 72.5234 69.3924 72.5234 69.3924C72.5234 69.3924 72.5234 69.3924 72.5234 69.3924C72.5234 69.3924 72.5234 69.3924 72.5234 69.3924C72.5234 69.3924 72.5234 69.3924 72.5234 69.3924C72.5234 69.3924 72.5234 69.3924 72.5234 69.3924C72.5234 69.3924 72.5234 69.3924 72.5234 69.3924C72.5234 69.3924 72.5234 69.3924 72.5234 69.3924C72.5234 69.3924 72.5234 69.3924 72.5234 69.3924C72.5234 69.3924 72.5234 69.3924 72.5234 69.3924C72.5234 69.3924 72.5234 69.3924 72.5234 69.3924C72.5234 69.3924 72.5234 69.3924 72.5234 69.3924C72.5234 69.3924 72.5234 69.3924 72.5234 69.3924C72.5234 69.3924 72.5234 69.3924 72.5234 69.3924C72.5234 69.3924 72.5234 69.3924 72.5234 69.3924C72.5234 69.3924 72.5234 69.3924 72.5234 69.3924C72.5234 69.3924 72.5234 69.3924 72.5234 69.3924C72.5234 69.3924 72.5234 69.3924 72.5234 69.3924C72.5234 69.3924 72.5234 69.3924 72.5234 69.3924C72.5234 69.3924 72.5234 69.3924 72.5234 69.3924C72.5234 69.3924 72.5234 69.3924 72.5234 69.3924C72.5234 69.3924 72.5234 69.3924 72.5234 69.3924C72.5234 69.3924 72.5234 69.3924 72.5234 69.3924C72.5234 69.3924 72.5234 69.3924 72.5234 69.3924C72.5234 69.3924 72.5234 69.3924 72.5234 69.3924C72.5234 69.3924 72.5234 69.3924 72.5234 69.3924C72.5234 69.3924 72.5234 69.3924 72.5234 69.3924C72.5234 69.3924 72.5234 69.3924 72.5234 69.3924C72.5234 69.3924 72.5234 69.3924 72.5234 69.3924C72.5234 69.3924 72.5234 69.3924 72.5234 69.3924C72.5234 69.3924 72.5234 69.3924 72.5234 69.3924C72.5234 69.3924 72.5234 69.3924 72.5234 69.3924C72.5234 69.3924 72.5234 69.3924 72.5234 69.3924C72.5234 69.3924 72.5234 69.3924 72.5234 69.3924C72.5234 69.3924 72.5234 69.3924 72.5234 69.3924C72.5234 69.3924 72.5234 69.3924 72.5234 69.3924C72.5234 69.3924 72.5234 69.3924 72.5234 69.3924C72.5234 69.3924 72.5234 69.3924 72.5234 69.3924C72.5234 69.3924 72.5234 69.3924 72.5234 69.3924C72.5234 69.3924 72.5234 69.3924 72.5234 69.3924C72.5234 69.3924 72.5234 69.3924 72.5234 69.3924C72.5234 69.3924 72.5234 69.3924 72.5234 69.3924C72.5234 69.3924 72.5234 69.3924 72.5234 69.3924C72.5234 69.3924 72.5234 69.3924 72.5234 69.3924C72.5234 69.3924 72.5234 69.3924 72.5234 69.3924C72.5234 69.3924 72.5234 69.3924 72.5234 69.3924C72.5234 69.3924 72.5234 69.3924 72.5234 69.3924C72.5234 69.3924 72.5234 69.3924 72.5234 69.3924C72.5234 69.3924 72.5234 69.3924 72.5234 69.3924C72.5234 69.3924 72.5234 69.3924 72.5234 69.3924C72.5234 69.3924 72.5234 69.3924 72.5234 69.3924C72.5234 69.3924 72.5234 69.3924 72.5234 69.3924C72.5234 69.3924 72.5234 69.3924 72.5234 69.3924C72.5234 69.3924 72.5234 69.3924 72.5234 69.3924C72.5234 69.3924 72.5234 69.3924 72.5234 69.3924C72.5234 69.3924 72.5234 69.3924 72.5234 69.3924C72.5234 69.3924 72.5234 69.3924 72.5234 69.3924C72.5234 69.3924 72.5234 69.3924 72.5234 69.3924C72.5234 69.3924 72.5234 69.3924 72.5234 69.3924C72.5234 69.3924 72.5234 69.3924 72.5234 69.3924C72.5234 69.3924 72.5234 69.3924 72.5234 69.3924C72.5234 69.3924 72.5234 69.3924 72.5234 69.3924C72.5234 69.3924 72.5234 69.3924 72.5234 69.3924C72.5234 69.3924 72.5234 69.3924 72.5234 69.3924C72.5234 69.3924 72.5234 69.3924 72.5234 69.3924C72.5234 69.3924 72.5234 69.3924 72.5234 69.3924C72.5234 69.3924 72.5234 69.3924 72.5234 69.3924C72.5234 69.3924 72.5234 69.3924 72.5234 69.3924C72.5234 69.3924 72.5234 69.3924 72.5234 69.3924C72.5234 69.3924 72.5234 69.3924 72.5234 69.3924C72.5234 69.3924 72.5234 69.3924 72.5234 69.3924C72.5234 69.3924 72.5234 69.3924 72.5234 69.3924C72.5234 69.3924 72.5234 69.3924 72.5234 69.3924C72.5234 69.3924 72.5234 69.3924 72.5234 69.3924C72.5234 69.3924 72.5234 69.3924 72.5234 69.3924C72.5234 69.3924 72.5234 69.3924 72.5234 69.3924C72.5234 69.3924 72.5234 69.3924 72.5234 69.3924C72.5234 69.3924 72.5234 69.3924 72.5234 69.3924C72.5234 69.3924 72.5234 69.3924 72.5234 69.3924C72.5234 69.3924 72.5234 69.3924 72.5234 69.3924C72.5234 69.3924 72.5234 69.3924 72.5234 69.3924C72.5234 69.3924 72.5234 69.3924 72.5234 69.3924C72.5234 69.3924 72.5234 69.3924 72.5234 69.3924C72.5234 69.3924 72.5234 69.3924 72.5234 69.3924C72.5234 69.3924 72.5234 69.3924 72.5234 69.3924C72.5234 69.3924 72.5234 69.3924 72.5234 69.3924C72.5234 69.3924 72.5234 69.3924 72.5234 69.3924C72.5234 69.3924 72.5234 69.3924 72.5234 69.3924C72.5234 69.3924 72.5234 69.3924 72.5234 69.3924C72.5234 69.3924 72.5234 69.3924 72.5234 69.3924C72.5234 69.3924 72.5234 69.3924 72.5234 69.3924C72.5234 69.3924 72.5234 69.3924 72.5234 69.3924C72.5234 69.3924 72.5234 69.3924 72.5234 69.3924C72.5234 69.3924 72.5234 69.3924 72.5234 69.3924C72.5234 69.3924 72.5234 69.3924 72.5234 69.3924C72.5234 69.3924 72.5234 69.3924 72.5234 69.3924C72.5234 69.3924 72.5234 69.3924 72.5234 69.3924C72.5234 69.3924 72.5234 69.3924 72.5234 69.3924C72.5234 69.3924 72.5234 69.3924 72.5234 69.3924C72.5234 69.3924 72.5234 69.3924 72.5234 69.3924C72.5234 69.3924 72.5234 69.3924 72.5234 69.3924C72.5234 69.3924 72.5234 69.3924 72.5234 69.3924C72.5234 69.3924 72.5234 69.3924 72.5234 69.3924C72.5234 69.3924 72.5234 69.3924 72.5234 69.3924C72.5234 69.3924 72.5234 69.3924 72.5234 69.3924C72.5234 69.3924 72.5234 69.3924 72.5234 69.3924C72.5234 69.3924 72.5234 69.3924 72.5234 69.3924C72.5234 69.3924 72.5234 69.3924 72.5234 69.3924C72.5234 69.3924 72.5234 69.3924 72.5234 69.3924C72.5234 69.3924 72.5234 69.3924 72.5234 69.3924C72.5234 69.3924 72.5234 69.3924 72.5234 69.3924C72.5234 69.3924 72.5234 69.3924 72.5234 69.3924C72.5234 69.3924 72.5234 69.3924 72.5234 69.3924C72.5234 69.3924 72.5234 69.3924 72.5234 69.3924C72.5234 69.3924 72.5234 69.3924 72.5234 69.3924C72.5234 69.3924 72.5234 69.3924 72.5234 69.3924C72.5234 69.3924 72.5234 69.3924 72.5234 69.3924C72.5234 69.3924 72.5234 69.3924 72.5234 69.3924C72.5234 69.3924 72.5234 69.3924 72.5234 69.3924C72.5234 69.3924 72.5234 69.3924 72.5234 69.3924C72.5234 69.3924 72.5234 69.3924 72.5234 69.3924C72.5234 69.3924 72.5234 69.3924 72.5234 69.3924C72.5234 69.3924 72.5234 69.3924 72.5234 69.3924C72.5234 69.3924 72.5234 69.3924 72.5234 69.3924C72.5234 69.3924 72.5234 69.3924 72.5234 69.3924C72.5234 69.3924 72.5234 69.3924 72.5234 69.3924C72.5234 69.3924 72.5234 69.3924 72.5234 69.3924C72.5234 69.3924 72.5234 69.3924 72.5234 69.3924C72.5234 69.3924 72.5234 69.3924 72.5234 69.3924C72.5234 69.3924 72.5234 69.3924 72.5234 69.3924C72.5234 69.3924 72.5234 69.3924 72.5234 69.3924C72.5234 69.3924 72.5234 69.3924 72.5234 69.3924C72.5234 69.3924 72.5234 69.3924 72.5234 69.3924C72.5234 69.3924 72.5234 69.3924 72.5234 69.3924C72.5234 69.3924 72.5234 69.3924 72.5234 69.3924C72.5234 69.3924 72.5234 69.3924 72.5234 69.3924C72.5234 69.3924 72.5234 69.3924 72.5234 69.3924C72.5234 69.3924 72.5234 69.3924 72.5234 69.3924C72.5234 69.3924 72.5234 69.3924 72.5234 69.3924C72.5234 69.3924 72.5234 69.3924 72.5234 69.3924C72.5234 69.3924 72.5234 69.3924 72.5234 69.3924C72.5234 69.3924 72.5234 69.3924 72.5234 69.3924C72.5234 69.3924 72.5234 69.3924 72.5234 69.3924C72.5234 69.3924 72.5234 69.3924 72.5234 69.3924C72.5234 69.3924 72.5234 69.3924 72.5234 69.3924C72.5234 69.3924 72.5234 69.3924 72.5234 69.3924C72.5234 69.3924 72.5234 69.3924 72.5234 69.3924C72.5234 69.3924 72.5234 69.3924 72.5234 69.3924C72.5234 69.3924 72.5234 69.3924 72.5234 69.3924C72.5234 69.3924 72.5234 69.3924 72.5234 69.3924C72.5234 69.3924 72.5234 69.3924 72.5234 69.3924C72.5234 69.3924 72.5234 69.3924 72.5234 69.3924C72.5234 69.3924 72.5234 69.3924 72.5234 69.3924C72.5234 69.3924 72.5234 69.3924 72.5234 69.3924C72.5234 69.3924 72.5234 69.3924 72.5234 69.3924C72.5234 69.3924 72.5234 69.3924 72.5234 69.3924C72.5234 69.3924 72.5234 69.3924 72.5234 69.3924C72.5234 69.3924 72.5234 69.3924 72.5234 69.3924C72.5234 69.3924 72.5234 69.3924 72.5234 69.3924C72.5234 69.3924 72.5234 69.3924 72.5234 69.3924C72.5234 69.3924 72.5234 69.3924 72.5234 69.3924C72.5234 69.3924 72.5234 69.3924 72.5234 69.3924C72.5234 69.3924 72.5234 69.3924 72.5234 69.3924C72.5234 69.3924 72.5234 69.3924 72.5234 69.3924C72.5234 69.3924 72.5234 69.3924 72.5234 69.3924C72.5234 69.3924 72.5234 69.3924 72.5234 69.3924C72.5234 69.3924 72.5234 69.3924 72.5234 69.3924C72.5234 69.3924 72.5234 69.3924 72.5234 69.3924C72.5234 69.3924 72.5234 69.3924 72.5234 69.3924C72.5234 69.3924 72.5234 69.3924 72.5234 69.3924C72.5234 69.3924 72.5234 69.3924 72.5234 69.3924C72.5234 69.3924 72.5234 69.3924 72.5234 69.3924C72.5234 69.3924 72.5234 69.3924 72.5234 69.3924C72.5234 69.3924 72.5234 69.3924 72.5234 69.3924C72.5234 69.3924 72.5234 69.3924 72.5234 69.3924C72.5234 69.3924 72.5234 69.3924 72.5234 69.3924C72.5234 69.3924 72.5234 69.3924 72.5234 69.3924C72.5234 69.3924 72.5234 69.3924 72.5234 69.3924C72.5234 69.3924 72.5234 69.3924 72.5234 69.3924C72.5234 69.3924 72.5234 69.3924 72.5234 69.3924C72.5234 69.3924 72.5234 69.3924 72.5234 69.3924C72.5234 69.3924 72.5234 69.3924 72.5234 69.3924C72.5234 69.3924 72.5234 69.3924 72.5234 69.3924C72.5234 69.3924 72.5234 69.3924 72.5234 69.3924C72.5234 69.3924 72.5234 69.3924 72.5234 69.3924C72.5234 69.3924 72.5234 69.3924 72.5234 69.3924C72.5234 69.3924 72.5234 69.3924 72.5234 69.3924C72.5234 69.3924 72.5234 69.3924 72.5234 69.3924C72.5234 69.3924 72.5234 69.3924 72.5234 69.3924C72.5234 69.3924 72.5234 69.3924 72.5234 69.3924C72.5234 69.3924 72.5234 69.3924 72.5234 69.3924C72.5234 69.3924 72.5234 69.3924 72.5234 69.3924C72.5234 69.3924 72.5234 69.3924 72.5234 69.3924C72.5234 69.3924 72.5234 69.3924 72.5234 69.3924C72.5234 69.3924 72.5234 69.3924 72.5234 69.3924C72.5234 69.3924 72.5234 69.3924 72.5234 69.3924C72.5234 69.3924 72.5234 69.3924 72.5234 69.3924C72.5234 69.3924 72.5234 69.3924 72.5234 69.3924C72.5234 69.3924 72.5234 69.3924 72.5234 69.3924C72.5234 69.3924 72.5234 69.3924 72.5234 69.3924C72.5234 69.3924 72.5234 69.3924 72.5234 69.3924C72.5234 69.3924 72.5234 69.3924 72.5234 69.3924C72.5234 69.3924 72.5234 69.3924 72.5234 69.3924C72.5234 69.3924 72.5234 69.3924 72.5234 69.3924C72.5234 69.3924 72.5234 69.3924 72.5234 69.3924C72.5234 69.3924 72.5234 69.3924 72.5234 69.3924C72.5234 69.3924 72.5234 69.3924 72.5234 69.3924C72.5234 69.3924 72.5234 69.3924 72.5234 69.3924C72.5234 69.3924 72.5234 69.3924 72.5234 69.3924C72.5234 69.3924 72.5234 69.3924 72.5234 69.3924C72.5234 69.3924 72.5234 69.3924 72.5234 69.3924C72.5234 69.3924 72.5234 69.3924 72.5234 69.3924C72.5234 69.3924 72.5234 69.3924 72.5234 69.3924C72.5234 69.3924 72.5234 69.3924 72.5234 69.3924C72.5234 69.3924 72.5234 69.3924 72.5234 69.3924C72.5234 69.3924 72.5234 69.3924 72.5234 69.3924C72.5234 69.3924 72.5234 69.3924 72.5234 69.3924C72.5234 69.3924 72.5234 69.3924 72.5234 69.3924C72.5234 69.3924 72.5234 69.3924 72.5234 69.3924C72.5234 69.3924 72.5234 69.3924 72.5234 69.3924C72.5234 69.3924 72.5234 69.3924 72.5234 69.3924C72.5234 69.3924 72.5234 69.3924 72.5234 69.3924C72.5234 69.3924 72.5234 69.3924 72.5234 69.3924C72.5234 69.3924 72.5234 69.3924 72.5234 69.3924C72.5234 69.3924 72.5234 69.3924 72.5234 69.3924C72.5234 69.3924 72.5234 69.3924 72.5234 69.3924C72.5234 69.3924 72.5234 69.3924 72.5234 69.3924C72.5234 69.3924 72.5234 69.3924 72.5234 69.3924C72.5234 69.3924 72.5234 69.3924 72.5234 69.3924C72.5234 69.3924 72.5234 69.3924 72.5234 69.3924C72.5234 69.3924 72.5234 69.3924 72.5234 69.3924C72.5234 69.3924 72.5234 69.3924 72.5234 69.3924C72.5234 69.3924 72.5234 69.3924 72.5234 69.3924C72.5234 69.3924 72.5234 69.3924 72.5234 69.3924C72.5234 69.3924 72.5234 69.3924 72.5234 69.3924C72.5234 69.3924 72.5234 69.3924 72.5234 69.3924C72.5234 69.3924 72.5234 69.3924 72.5234 69.3924C72.5234 69.3924 72.5234 69.3924 72.5234 69.3924C72.5234 69.3924 72.5234 69.3924 72.5234 69.3924C72.5234 69.3924 72.5234 69.3924 72.5234 69.3924C72.5234 69.3924 72.5234 69.3924 72.5234 69.3924C72.5234 69.3924 72.5234 69.3924 72.5234 69.3924C72.5234 69.3924 72.5234 69.3924 72.5234 69.3924C72.5234 69.3924 72.5234 69.3924 72.5234 69.3924C72.5234 69.3924 72.5234 69.3924 72.5234 69.3924C72.5234 69.3924 72.5234 69.3924 72.5234 69.3924C72.5234 69.3924 72.5234 69.3924 72.5234 69.3924C72.5234 69.3924 72.5234 69.3924 72.5234 69.3924C72.5234 69.3924 72.5234 69.3924 72.5234 69.3924C72.5234 69.3924 72.5234 69.3924 72.5234 69.3924C72.5234 69.3924 72.5234 69.3924 72.5234 69.3924C72.5234 69.3924 72.5234 69.3924 72.5234 69.3924C72.5234 69.3924 72.5234 69.3924 72.5234 69.3924C72.5234 69.3924 72.5234 69.3924 72.5234 69.3924C72.5234 69.3924 72.5234 69.3924 72.5234 69.3924C72.5234 69.3924 72.5234 69.3924 72.5234 69.3924C72.5234 69.3924 72.5234 69.3924 72.5234 69.3924C72.5234 69.3924 72.5234 69.3924 72.5234 69.3924C72.5234 69.3924 72.5234 69.3924 72.5234 69.3924C72.5234 69.3924 72.5234 69.3924 72.5234 69.3924C72.5234 69.3924 72.5234 69.3924 72.5234 69.3924C72.5234 69.3924 72.5234 69.3924 72.5234 69.3924C72.5234 69.3924 72.5234 69.3924 72.5234 69.3924C72.5234 69.3924 72.5234 69.3924 72.5234 69.3924C72.5234 69.3924 72.5234 69.3924 72.5234 69.3924C72.5234 69.3924 72.5234 69.3924 72.5234 69.3924C72.5234 69.3924 72.5234 69.3924 72.5234 69.3924C72.5234 69.3924 72.5234 69.3924 72.5234 69.3924C72.5234 69.3924 72.5234 69.3924 72.5234 69.3924C72.5234 69.3924 72.5234 69.3924 72.5234 69.3924C72.5234 69.3924 72.5234 69.3924 72.5234 69.3924C72.5234 69.3924 72.5234 69.3924 72.5234 69.3924C72.5234 69.3924 72.5234 69.3924 72.5234 69.3924C72.5234 69.3924 72.5234 69.3924 72.5234 69.3924C72.5234 69.3924 72.5234 69.3924 72.5234 69.3924C72.5234 69.3924 72.5234 69.3924 72.5234 69.3924C72.5234 69.3924 72.5234 69.3924 72.5234 69.3924C72.5234 69.3924 72.5234 69.3924 72.5234 69.3924C72.5234 69.3924 72.5234 69.3924 72.5234 69.3924C72.5234 69.3924 72.5234 69.3924 72.5234 69.3924C72.5234 69.3924 72.5234 69.3924 72.5234 69.3924C72.5234 69.3924 72.5234 69.3924 72.5234 69.3924C72.5234 69.3924 72.5234 69.3924 72.5234 69.3924C72.5234 69.3924 72.5234 69.3924 72.5234 69.3924C72.5234 69.3924 72.5234 69.3924 72.5234 69.3924C72.5234 69.3924 72.5234 69.3924 72.5234 69.3924C72.5234 69.3924 72.5234 69.3924 72.5234 69.3924C72.5234 69.3924 72.5234 69.3924 72.5234 69.3924C72.5234 69.3924 72.5234 69.3924 72.5234 69.3924C72.5234 69.3924 72.5234 69.3924 72.5234 69.3924C72.5234 69.3924 72.5234 69.3924 72.5234 69.3924C72.5234 69.3924 72.5234 69.3924 72.5234 69.3924C72.5234 69.3924 72.5234 69.3924 72.5234 69.3924C72.5234 69.3924 72.5234 69.3924 72.5234 69.3924C72.5234 69.3924 72.5233 69.3924 72.5233 69.3924C72.5233 69.3924 72.5233 69.3924 72.5233 69.3924C72.5233 69.3924 72.5233 69.3924 72.5233 69.3924C72.5233 69.3924 72.5233 69.3924 72.5233 69.3924C72.5233 69.3924 72.5233 69.3924 72.5233 69.3924C72.5233 69.3924 72.5233 69.3924 72.5233 69.3924C72.5233 69.3924 72.5233 69.3924 72.5233 69.3924C72.5233 69.3924 72.5233 69.3924 72.5233 69.3924C72.5233 69.3924 72.5233 69.3924 72.5233 69.3924C72.5233 69.3924 72.5233 69.3924 72.5233 69.3924C72.5233 69.3924 72.5233 69.3924 72.5233 69.3924C72.5233 69.3924 72.5233 69.3924 72.5233 69.3924C72.5233 69.3924 72.5233 69.3924 72.5233 69.3924C72.5233 69.3924 72.5233 69.3924 72.5233 69.3924C72.5233 69.3924 72.5233 69.3924 72.5233 69.3924C72.5233 69.3924 72.5233 69.3924 72.5233 69.3924C72.5233 69.3924 72.5233 69.3924 72.5233 69.3924C72.5233 69.3924 72.5233 69.3924 72.5233 69.3924C72.5233 69.3924 72.5233 69.3924 72.5233 69.3924C72.5233 69.3924 72.5233 69.3924 72.5233 69.3924C72.5233 69.3924 72.5233 69.3924 72.5233 69.3924C72.5233 69.3924 72.5233 69.3924 72.5233 69.3924C72.5233 69.3924 72.5233 69.3924 72.5233 69.3924C72.5233 69.3924 72.5233 69.3924 72.5233 69.3924C72.5233 69.3924 72.5233 69.3924 72.5233 69.3924C72.5233 69.3924 72.5233 69.3924 72.5233 69.3924V72.1076ZM71.1658 70.75V70.7504H73.8809V70.75H71.1658ZM72.5233 69.3928H54.9221V72.108H72.5233V69.3928ZM56.2797 70.7504V70.7477H53.5645V70.7504H56.2797ZM54.7124 72.1076C54.7923 72.1076 54.872 72.1067 54.9516 72.105L54.8927 69.3905C54.8328 69.3918 54.7727 69.3924 54.7124 69.3924V72.1076ZM43.9256 61.375C43.9256 67.3098 48.7624 72.1076 54.7124 72.1076V69.3924C50.2472 69.3924 46.6408 65.7955 46.6408 61.375H43.9256ZM54.7124 50.6424C48.7624 50.6424 43.9256 55.4402 43.9256 61.375H46.6408C46.6408 56.9545 50.2472 53.3576 54.7124 53.3576V50.6424ZM59.8934 51.9594C58.3541 51.1194 56.5871 50.6424 54.7124 50.6424V53.3576C56.1219 53.3576 57.4429 53.7152 58.5927 54.3428L59.8934 51.9594ZM72.5234 41.8924C65.6148 41.8924 59.7805 46.4818 57.9401 52.7698L60.5459 53.5324C62.0542 48.3792 66.8439 44.6076 72.5234 44.6076V41.8924ZM87.7105 57C87.7105 48.6489 80.9037 41.8924 72.5234 41.8924V44.6076C79.4189 44.6076 84.9954 50.1632 84.9954 57H87.7105Z" fill="black" fill-opacity="0.14"/>
<defs>
<linearGradient id="paint0_linear_407_761" x1="36.5308" y1="46.3335" x2="60.3964" y2="64.1921" gradientUnits="userSpaceOnUse">
<stop offset="0.183865" stop-color="#AEADAD"/>
<stop offset="1" stop-color="#9D9D9D"/>
</linearGradient>
<linearGradient id="paint1_linear_407_761" x1="59.7415" y1="53.4584" x2="74.7641" y2="65.0004" gradientUnits="userSpaceOnUse">
<stop offset="0.183865" stop-color="#AEADAD"/>
<stop offset="1" stop-color="#9D9D9D"/>
</linearGradient>
</defs>
</svg>
