<svg width="100" height="100" viewBox="0 0 100 100" fill="none" xmlns="http://www.w3.org/2000/svg">
<path fill-rule="evenodd" clip-rule="evenodd" d="M82 40C82 52.1503 72.3513 62 60.449 62H33.0204V61.9964C32.9119 61.9988 32.803 62 32.6939 62C24.5787 62 18 55.2843 18 47C18 38.7157 24.5787 32 32.6939 32C35.2526 32 37.6586 32.6676 39.7537 33.8416C42.3629 24.6887 50.6408 18 60.449 18C72.3513 18 82 27.8497 82 40Z" fill="url(#paint0_linear_407_628)"/>
<path d="M33.0204 62H31.0204V64H33.0204V62ZM33.0204 61.9964H35.0204V59.9514L32.9759 59.9969L33.0204 61.9964ZM39.7537 33.8416L38.7761 35.5863L40.9834 36.8231L41.6771 34.3899L39.7537 33.8416ZM60.449 64C73.4945 64 84 53.2158 84 40H80C80 51.0848 71.208 60 60.449 60V64ZM60.449 60H33.0204V64H60.449V60ZM35.0204 62V61.9964H31.0204V62H35.0204ZM32.6939 64C32.8179 64 32.9415 63.9986 33.0649 63.9959L32.9759 59.9969C32.8822 59.9989 32.7881 60 32.6939 60V64ZM16 47C16 56.3498 23.4354 64 32.6939 64V60C25.7219 60 20 54.2188 20 47H16ZM32.6939 30C23.4354 30 16 37.6502 16 47H20C20 39.7812 25.7219 34 32.6939 34V30ZM40.7313 32.0968C38.3466 30.7606 35.6052 30 32.6939 30V34C34.9 34 36.9705 34.5747 38.7761 35.5863L40.7313 32.0968ZM60.449 16C49.6997 16 40.6712 23.3279 37.8303 33.2933L41.6771 34.3899C44.0547 26.0494 51.5818 20 60.449 20V16ZM84 40C84 26.7842 73.4945 16 60.449 16V20C71.208 20 80 28.9152 80 40H84Z" fill="black" fill-opacity="0.14"/>
<mask id="path-3-outside-1_407_628" maskUnits="userSpaceOnUse" x="26" y="69" width="48" height="14" fill="black">
<rect fill="white" x="26" y="69" width="48" height="14"/>
<path fill-rule="evenodd" clip-rule="evenodd" d="M27 72.3333C27 71.0447 28.0447 70 29.3333 70H52.2667C53.5553 70 54.6 71.0447 54.6 72.3333C54.6 73.622 53.5553 74.6667 52.2667 74.6667H29.3333C28.0447 74.6667 27 73.622 27 72.3333ZM59.2 72.3333C59.2 71.0447 60.2447 70 61.5333 70H70.6667C71.9553 70 73 71.0447 73 72.3333C73 73.622 71.9553 74.6667 70.6667 74.6667H61.5333C60.2447 74.6667 59.2 73.622 59.2 72.3333ZM70.6667 82C71.9553 82 73 80.9553 73 79.6667C73 78.378 71.9553 77.3333 70.6667 77.3333L66.1333 77.3333C64.8447 77.3333 63.8 78.378 63.8 79.6667C63.8 80.9553 64.8447 82 66.1333 82L70.6667 82ZM36.2 79.6667C36.2 80.9553 35.1553 82 33.8667 82L29.3333 82C28.0447 82 27 80.9553 27 79.6667C27 78.378 28.0447 77.3333 29.3333 77.3333L33.8667 77.3333C35.1553 77.3333 36.2 78.378 36.2 79.6667ZM56.8667 82C58.1553 82 59.2 80.9553 59.2 79.6667C59.2 78.378 58.1553 77.3333 56.8667 77.3333L43.1333 77.3333C41.8447 77.3333 40.8 78.378 40.8 79.6667C40.8 80.9553 41.8447 82 43.1333 82L56.8667 82Z"/>
</mask>
<path fill-rule="evenodd" clip-rule="evenodd" d="M27 72.3333C27 71.0447 28.0447 70 29.3333 70H52.2667C53.5553 70 54.6 71.0447 54.6 72.3333C54.6 73.622 53.5553 74.6667 52.2667 74.6667H29.3333C28.0447 74.6667 27 73.622 27 72.3333ZM59.2 72.3333C59.2 71.0447 60.2447 70 61.5333 70H70.6667C71.9553 70 73 71.0447 73 72.3333C73 73.622 71.9553 74.6667 70.6667 74.6667H61.5333C60.2447 74.6667 59.2 73.622 59.2 72.3333ZM70.6667 82C71.9553 82 73 80.9553 73 79.6667C73 78.378 71.9553 77.3333 70.6667 77.3333L66.1333 77.3333C64.8447 77.3333 63.8 78.378 63.8 79.6667C63.8 80.9553 64.8447 82 66.1333 82L70.6667 82ZM36.2 79.6667C36.2 80.9553 35.1553 82 33.8667 82L29.3333 82C28.0447 82 27 80.9553 27 79.6667C27 78.378 28.0447 77.3333 29.3333 77.3333L33.8667 77.3333C35.1553 77.3333 36.2 78.378 36.2 79.6667ZM56.8667 82C58.1553 82 59.2 80.9553 59.2 79.6667C59.2 78.378 58.1553 77.3333 56.8667 77.3333L43.1333 77.3333C41.8447 77.3333 40.8 78.378 40.8 79.6667C40.8 80.9553 41.8447 82 43.1333 82L56.8667 82Z" fill="url(#paint1_linear_407_628)"/>
<path d="M70.6667 82V83V82ZM70.6667 77.3333V78.3333V77.3333ZM66.1333 77.3333V78.3333V77.3333ZM66.1333 82V81V82ZM33.8667 82V83V82ZM29.3333 82L29.3333 81H29.3333V82ZM29.3333 77.3333L29.3333 78.3333H29.3333V77.3333ZM33.8667 77.3333V78.3333V77.3333ZM56.8667 82V83V82ZM56.8667 77.3333V78.3333V77.3333ZM43.1333 77.3333V76.3333V77.3333ZM43.1333 82V83V82ZM29.3333 69C27.4924 69 26 70.4924 26 72.3333H28C28 71.597 28.597 71 29.3333 71V69ZM52.2667 69H29.3333V71H52.2667V69ZM55.6 72.3333C55.6 70.4924 54.1076 69 52.2667 69V71C53.003 71 53.6 71.597 53.6 72.3333H55.6ZM52.2667 75.6667C54.1076 75.6667 55.6 74.1743 55.6 72.3333H53.6C53.6 73.0697 53.003 73.6667 52.2667 73.6667V75.6667ZM29.3333 75.6667H52.2667V73.6667H29.3333V75.6667ZM26 72.3333C26 74.1743 27.4924 75.6667 29.3333 75.6667V73.6667C28.597 73.6667 28 73.0697 28 72.3333H26ZM61.5333 69C59.6924 69 58.2 70.4924 58.2 72.3333H60.2C60.2 71.597 60.797 71 61.5333 71V69ZM70.6667 69H61.5333V71H70.6667V69ZM74 72.3333C74 70.4924 72.5076 69 70.6667 69V71C71.403 71 72 71.597 72 72.3333H74ZM70.6667 75.6667C72.5076 75.6667 74 74.1743 74 72.3333H72C72 73.0697 71.403 73.6667 70.6667 73.6667V75.6667ZM61.5333 75.6667H70.6667V73.6667H61.5333V75.6667ZM58.2 72.3333C58.2 74.1743 59.6924 75.6667 61.5333 75.6667V73.6667C60.797 73.6667 60.2 73.0697 60.2 72.3333H58.2ZM72 79.6667C72 80.403 71.403 81 70.6667 81V83C72.5076 83 74 81.5076 74 79.6667H72ZM70.6667 78.3333C71.403 78.3333 72 78.9303 72 79.6667H74C74 77.8257 72.5076 76.3333 70.6667 76.3333V78.3333ZM66.1333 78.3333H70.6667V76.3333L66.1333 76.3333V78.3333ZM64.8 79.6667C64.8 78.9303 65.397 78.3333 66.1333 78.3333V76.3333C64.2924 76.3333 62.8 77.8257 62.8 79.6667H64.8ZM66.1333 81C65.3969 81 64.8 80.403 64.8 79.6667H62.8C62.8 81.5076 64.2924 83 66.1333 83V81ZM70.6667 81L66.1333 81V83L70.6667 83V81ZM33.8667 83C35.7076 83 37.2 81.5076 37.2 79.6667H35.2C35.2 80.403 34.603 81 33.8667 81V83ZM29.3333 83L33.8667 83V81L29.3333 81L29.3333 83ZM26 79.6667C26 81.5076 27.4924 83 29.3333 83V81C28.597 81 28 80.403 28 79.6667H26ZM29.3333 76.3333C27.4924 76.3333 26 77.8257 26 79.6667H28C28 78.9303 28.597 78.3333 29.3333 78.3333L29.3333 76.3333ZM33.8667 76.3333L29.3333 76.3333V78.3333H33.8667V76.3333ZM37.2 79.6667C37.2 77.8257 35.7076 76.3333 33.8667 76.3333V78.3333C34.603 78.3333 35.2 78.9303 35.2 79.6667H37.2ZM58.2 79.6667C58.2 80.403 57.603 81 56.8667 81V83C58.7076 83 60.2 81.5076 60.2 79.6667H58.2ZM56.8667 78.3333C57.603 78.3333 58.2 78.9303 58.2 79.6667H60.2C60.2 77.8257 58.7076 76.3333 56.8667 76.3333V78.3333ZM43.1333 78.3333L56.8667 78.3333V76.3333L43.1333 76.3333V78.3333ZM41.8 79.6667C41.8 78.9303 42.397 78.3333 43.1333 78.3333V76.3333C41.2924 76.3333 39.8 77.8257 39.8 79.6667H41.8ZM43.1333 81C42.397 81 41.8 80.403 41.8 79.6667H39.8C39.8 81.5076 41.2924 83 43.1333 83V81ZM56.8667 81L43.1333 81V83L56.8667 83V81Z" fill="black" fill-opacity="0.05" mask="url(#path-3-outside-1_407_628)"/>
<defs>
<linearGradient id="paint0_linear_407_628" x1="40.5306" y1="34.3333" x2="64.3961" y2="52.1919" gradientUnits="userSpaceOnUse">
<stop offset="0.183865" stop-color="#AEADAD"/>
<stop offset="1" stop-color="#9D9D9D"/>
</linearGradient>
<linearGradient id="paint1_linear_407_628" x1="43.1939" y1="74.4545" x2="48.6669" y2="85.2479" gradientUnits="userSpaceOnUse">
<stop offset="0.183865" stop-color="white"/>
<stop offset="1" stop-color="#CDCDCD"/>
</linearGradient>
</defs>
</svg>
