<svg width="100" height="100" viewBox="0 0 100 100" fill="none" xmlns="http://www.w3.org/2000/svg">
<path fill-rule="evenodd" clip-rule="evenodd" d="M84.0005 42C84.0005 54.1503 74.3518 64 62.4495 64C62.4493 64 62.4492 64 62.4491 64V64.0003H35.0205V63.9964C34.9119 63.9988 34.803 64 34.6939 64C26.5787 64 20 57.2843 20 49C20 40.7157 26.5787 34 34.6939 34C37.2528 34 39.6589 34.6677 41.7541 35.8418C44.3633 26.6888 52.6412 20 62.4495 20C74.3518 20 84.0005 29.8497 84.0005 42Z" fill="url(#paint0_linear_407_628)"/>
<path d="M62.4491 64V62H60.4491V64H62.4491ZM62.4491 64.0003V66.0003H64.4491V64.0003H62.4491ZM35.0205 64.0003H33.0205V66.0003H35.0205V64.0003ZM35.0205 63.9964H37.0205V61.9513L34.976 61.9969L35.0205 63.9964ZM41.7541 35.8418L40.7765 37.5865L42.9839 38.8234L43.6775 36.3901L41.7541 35.8418ZM62.4495 66C75.495 66 86.0005 55.2158 86.0005 42H82.0005C82.0005 53.0848 73.2085 62 62.4495 62V66ZM62.4491 66C62.4491 66 62.4491 66 62.4491 66C62.4491 66 62.4491 66 62.4491 66C62.4491 66 62.4491 66 62.4491 66C62.4491 66 62.4491 66 62.4491 66C62.4491 66 62.4491 66 62.4491 66C62.4491 66 62.4491 66 62.4491 66C62.4491 66 62.4491 66 62.4491 66C62.4491 66 62.4491 66 62.4491 66C62.4491 66 62.4491 66 62.4491 66C62.4491 66 62.4491 66 62.4491 66C62.4491 66 62.4491 66 62.4491 66C62.4491 66 62.4491 66 62.4491 66C62.4491 66 62.4491 66 62.4491 66C62.4491 66 62.4491 66 62.4491 66C62.4491 66 62.4491 66 62.4491 66C62.4491 66 62.4491 66 62.4491 66C62.4491 66 62.4491 66 62.4491 66C62.4491 66 62.4491 66 62.4491 66C62.4491 66 62.4491 66 62.4491 66C62.4491 66 62.4491 66 62.4491 66C62.4491 66 62.4491 66 62.4491 66C62.4491 66 62.4491 66 62.4491 66C62.4491 66 62.4491 66 62.4491 66C62.4491 66 62.4491 66 62.4491 66C62.4491 66 62.4491 66 62.4491 66C62.4491 66 62.4491 66 62.4491 66C62.4491 66 62.4491 66 62.4491 66C62.4491 66 62.4491 66 62.4491 66C62.4491 66 62.4491 66 62.4491 66C62.4491 66 62.4491 66 62.4491 66C62.4491 66 62.4491 66 62.4491 66C62.4491 66 62.4491 66 62.4491 66C62.4491 66 62.4491 66 62.4491 66C62.4491 66 62.4491 66 62.4491 66C62.4491 66 62.4491 66 62.4491 66C62.4491 66 62.4491 66 62.4491 66C62.4491 66 62.4491 66 62.4491 66C62.4491 66 62.4491 66 62.4491 66C62.4491 66 62.4491 66 62.4491 66C62.4491 66 62.4491 66 62.4491 66C62.4491 66 62.4491 66 62.4491 66C62.4491 66 62.4491 66 62.4491 66C62.4491 66 62.4491 66 62.4491 66C62.4491 66 62.4491 66 62.4491 66C62.4491 66 62.4491 66 62.4491 66C62.4491 66 62.4491 66 62.4491 66C62.4491 66 62.4491 66 62.4491 66C62.4491 66 62.4491 66 62.4491 66C62.4491 66 62.4491 66 62.4491 66C62.4491 66 62.4491 66 62.4491 66C62.4491 66 62.4491 66 62.4491 66C62.4491 66 62.4491 66 62.4491 66C62.4491 66 62.4491 66 62.4491 66C62.4491 66 62.4491 66 62.4491 66C62.4491 66 62.4491 66 62.4491 66C62.4491 66 62.4491 66 62.4491 66C62.4491 66 62.4491 66 62.4491 66C62.4491 66 62.4491 66 62.4491 66C62.4491 66 62.4491 66 62.4491 66C62.4491 66 62.4491 66 62.4491 66C62.4491 66 62.4491 66 62.4491 66C62.4491 66 62.4491 66 62.4491 66C62.4491 66 62.4491 66 62.4491 66C62.4491 66 62.4491 66 62.4491 66C62.4491 66 62.4491 66 62.4491 66C62.4491 66 62.4491 66 62.4491 66C62.4491 66 62.4491 66 62.4491 66C62.4491 66 62.4491 66 62.4491 66C62.4491 66 62.4491 66 62.4491 66C62.4491 66 62.4491 66 62.4491 66C62.4491 66 62.4491 66 62.4491 66C62.4491 66 62.4491 66 62.4491 66C62.4491 66 62.4491 66 62.4491 66C62.4491 66 62.4491 66 62.4491 66C62.4491 66 62.4491 66 62.4491 66C62.4491 66 62.4491 66 62.4491 66C62.4491 66 62.4491 66 62.4491 66C62.4491 66 62.4491 66 62.4491 66C62.4491 66 62.4491 66 62.4491 66C62.4491 66 62.4491 66 62.4491 66C62.4491 66 62.4491 66 62.4491 66C62.4491 66 62.4491 66 62.4491 66C62.4491 66 62.4491 66 62.4491 66C62.4491 66 62.4491 66 62.4491 66C62.4491 66 62.4491 66 62.4491 66C62.4491 66 62.4491 66 62.4491 66C62.4491 66 62.4491 66 62.4491 66C62.4491 66 62.4491 66 62.4491 66C62.4491 66 62.4491 66 62.4491 66C62.4491 66 62.4491 66 62.4491 66C62.4491 66 62.4491 66 62.4491 66C62.4491 66 62.4491 66 62.4491 66C62.4491 66 62.4491 66 62.4491 66C62.4491 66 62.4491 66 62.4491 66C62.4491 66 62.4491 66 62.4491 66C62.4491 66 62.4491 66 62.4491 66C62.4491 66 62.4491 66 62.4491 66C62.4491 66 62.4491 66 62.4491 66C62.4492 66 62.4492 66 62.4492 66C62.4492 66 62.4492 66 62.4492 66C62.4492 66 62.4492 66 62.4492 66C62.4492 66 62.4492 66 62.4492 66C62.4492 66 62.4492 66 62.4492 66C62.4492 66 62.4492 66 62.4492 66C62.4492 66 62.4492 66 62.4492 66C62.4492 66 62.4492 66 62.4492 66C62.4492 66 62.4492 66 62.4492 66C62.4492 66 62.4492 66 62.4492 66C62.4492 66 62.4492 66 62.4492 66C62.4492 66 62.4492 66 62.4492 66C62.4492 66 62.4492 66 62.4492 66C62.4492 66 62.4492 66 62.4492 66C62.4492 66 62.4492 66 62.4492 66C62.4492 66 62.4492 66 62.4492 66C62.4492 66 62.4492 66 62.4492 66C62.4492 66 62.4492 66 62.4492 66C62.4492 66 62.4492 66 62.4492 66C62.4492 66 62.4492 66 62.4492 66C62.4492 66 62.4492 66 62.4492 66C62.4492 66 62.4492 66 62.4492 66C62.4492 66 62.4492 66 62.4492 66C62.4492 66 62.4492 66 62.4492 66C62.4492 66 62.4492 66 62.4492 66C62.4492 66 62.4492 66 62.4492 66C62.4492 66 62.4492 66 62.4492 66C62.4492 66 62.4492 66 62.4492 66C62.4492 66 62.4492 66 62.4492 66C62.4492 66 62.4492 66 62.4492 66C62.4492 66 62.4492 66 62.4492 66C62.4492 66 62.4492 66 62.4492 66C62.4492 66 62.4492 66 62.4492 66C62.4492 66 62.4492 66 62.4492 66C62.4492 66 62.4492 66 62.4492 66C62.4492 66 62.4492 66 62.4492 66C62.4492 66 62.4492 66 62.4492 66C62.4492 66 62.4492 66 62.4492 66C62.4492 66 62.4492 66 62.4492 66C62.4492 66 62.4492 66 62.4492 66C62.4492 66 62.4492 66 62.4492 66C62.4492 66 62.4492 66 62.4492 66C62.4492 66 62.4492 66 62.4492 66C62.4492 66 62.4492 66 62.4492 66C62.4492 66 62.4492 66 62.4492 66C62.4492 66 62.4492 66 62.4492 66C62.4492 66 62.4492 66 62.4492 66C62.4492 66 62.4492 66 62.4492 66C62.4492 66 62.4492 66 62.4492 66C62.4492 66 62.4492 66 62.4492 66C62.4492 66 62.4492 66 62.4492 66C62.4492 66 62.4492 66 62.4492 66C62.4492 66 62.4492 66 62.4492 66C62.4492 66 62.4492 66 62.4492 66C62.4492 66 62.4492 66 62.4492 66C62.4492 66 62.4492 66 62.4492 66C62.4492 66 62.4492 66 62.4492 66C62.4492 66 62.4492 66 62.4492 66C62.4492 66 62.4492 66 62.4492 66C62.4492 66 62.4492 66 62.4492 66C62.4492 66 62.4492 66 62.4492 66C62.4492 66 62.4492 66 62.4492 66C62.4492 66 62.4492 66 62.4492 66C62.4492 66 62.4492 66 62.4492 66C62.4492 66 62.4492 66 62.4492 66C62.4492 66 62.4492 66 62.4492 66C62.4492 66 62.4492 66 62.4492 66C62.4492 66 62.4492 66 62.4492 66C62.4492 66 62.4492 66 62.4492 66C62.4492 66 62.4492 66 62.4492 66C62.4492 66 62.4492 66 62.4492 66C62.4492 66 62.4492 66 62.4492 66C62.4492 66 62.4492 66 62.4492 66C62.4492 66 62.4492 66 62.4492 66C62.4492 66 62.4492 66 62.4492 66C62.4492 66 62.4492 66 62.4492 66C62.4492 66 62.4492 66 62.4492 66C62.4492 66 62.4492 66 62.4492 66C62.4492 66 62.4492 66 62.4492 66C62.4492 66 62.4492 66 62.4492 66C62.4492 66 62.4492 66 62.4492 66C62.4492 66 62.4492 66 62.4492 66C62.4492 66 62.4492 66 62.4492 66C62.4492 66 62.4492 66 62.4492 66C62.4492 66 62.4492 66 62.4492 66C62.4492 66 62.4492 66 62.4492 66C62.4492 66 62.4492 66 62.4492 66C62.4492 66 62.4492 66 62.4492 66C62.4492 66 62.4492 66 62.4492 66C62.4492 66 62.4492 66 62.4492 66C62.4492 66 62.4492 66 62.4492 66C62.4492 66 62.4492 66 62.4492 66C62.4492 66 62.4492 66 62.4492 66C62.4492 66 62.4492 66 62.4492 66C62.4492 66 62.4492 66 62.4492 66C62.4492 66 62.4492 66 62.4492 66C62.4492 66 62.4492 66 62.4492 66C62.4492 66 62.4492 66 62.4492 66C62.4492 66 62.4492 66 62.4492 66C62.4492 66 62.4492 66 62.4492 66C62.4492 66 62.4492 66 62.4492 66C62.4492 66 62.4492 66 62.4492 66C62.4492 66 62.4492 66 62.4492 66C62.4492 66 62.4492 66 62.4492 66C62.4492 66 62.4492 66 62.4492 66C62.4492 66 62.4492 66 62.4492 66C62.4492 66 62.4492 66 62.4492 66C62.4492 66 62.4492 66 62.4492 66C62.4492 66 62.4492 66 62.4492 66C62.4492 66 62.4492 66 62.4492 66C62.4492 66 62.4492 66 62.4492 66C62.4492 66 62.4492 66 62.4492 66C62.4492 66 62.4492 66 62.4492 66C62.4492 66 62.4492 66 62.4492 66C62.4492 66 62.4492 66 62.4492 66C62.4492 66 62.4492 66 62.4492 66C62.4492 66 62.4492 66 62.4492 66C62.4492 66 62.4492 66 62.4492 66C62.4492 66 62.4492 66 62.4492 66C62.4492 66 62.4492 66 62.4492 66C62.4492 66 62.4492 66 62.4492 66C62.4492 66 62.4492 66 62.4492 66C62.4492 66 62.4492 66 62.4492 66C62.4492 66 62.4492 66 62.4492 66C62.4492 66 62.4492 66 62.4492 66C62.4492 66 62.4492 66 62.4492 66C62.4492 66 62.4492 66 62.4492 66C62.4492 66 62.4492 66 62.4492 66C62.4492 66 62.4492 66 62.4492 66C62.4492 66 62.4492 66 62.4492 66C62.4492 66 62.4492 66 62.4492 66C62.4492 66 62.4492 66 62.4492 66C62.4492 66 62.4492 66 62.4492 66C62.4492 66 62.4492 66 62.4492 66C62.4492 66 62.4492 66 62.4492 66C62.4492 66 62.4492 66 62.4493 66C62.4493 66 62.4493 66 62.4493 66C62.4493 66 62.4493 66 62.4493 66C62.4493 66 62.4493 66 62.4493 66C62.4493 66 62.4493 66 62.4493 66C62.4493 66 62.4493 66 62.4493 66C62.4493 66 62.4493 66 62.4493 66C62.4493 66 62.4493 66 62.4493 66C62.4493 66 62.4493 66 62.4493 66C62.4493 66 62.4493 66 62.4493 66C62.4493 66 62.4493 66 62.4493 66C62.4493 66 62.4493 66 62.4493 66C62.4493 66 62.4493 66 62.4493 66C62.4493 66 62.4493 66 62.4493 66C62.4493 66 62.4493 66 62.4493 66C62.4493 66 62.4493 66 62.4493 66C62.4493 66 62.4493 66 62.4493 66C62.4493 66 62.4493 66 62.4493 66C62.4493 66 62.4493 66 62.4493 66C62.4493 66 62.4493 66 62.4493 66C62.4493 66 62.4493 66 62.4493 66C62.4493 66 62.4493 66 62.4493 66C62.4493 66 62.4493 66 62.4493 66C62.4493 66 62.4493 66 62.4493 66C62.4493 66 62.4493 66 62.4493 66C62.4493 66 62.4493 66 62.4493 66C62.4493 66 62.4493 66 62.4493 66C62.4493 66 62.4493 66 62.4493 66C62.4493 66 62.4493 66 62.4493 66C62.4493 66 62.4493 66 62.4493 66C62.4493 66 62.4493 66 62.4493 66C62.4493 66 62.4493 66 62.4493 66C62.4493 66 62.4493 66 62.4493 66C62.4493 66 62.4493 66 62.4493 66C62.4493 66 62.4493 66 62.4493 66C62.4493 66 62.4493 66 62.4493 66C62.4493 66 62.4493 66 62.4493 66C62.4493 66 62.4493 66 62.4493 66C62.4493 66 62.4493 66 62.4493 66C62.4493 66 62.4493 66 62.4493 66C62.4493 66 62.4493 66 62.4493 66C62.4493 66 62.4493 66 62.4493 66C62.4493 66 62.4493 66 62.4493 66C62.4493 66 62.4493 66 62.4493 66C62.4493 66 62.4493 66 62.4493 66C62.4493 66 62.4493 66 62.4493 66C62.4493 66 62.4493 66 62.4493 66C62.4493 66 62.4493 66 62.4493 66C62.4493 66 62.4493 66 62.4493 66C62.4493 66 62.4493 66 62.4493 66C62.4493 66 62.4493 66 62.4493 66C62.4493 66 62.4493 66 62.4493 66C62.4493 66 62.4493 66 62.4493 66C62.4493 66 62.4493 66 62.4493 66C62.4493 66 62.4493 66 62.4493 66C62.4493 66 62.4493 66 62.4493 66C62.4493 66 62.4493 66 62.4493 66C62.4493 66 62.4493 66 62.4493 66C62.4493 66 62.4493 66 62.4493 66C62.4493 66 62.4493 66 62.4493 66C62.4493 66 62.4493 66 62.4493 66C62.4493 66 62.4493 66 62.4493 66C62.4493 66 62.4493 66 62.4493 66C62.4493 66 62.4493 66 62.4493 66C62.4493 66 62.4493 66 62.4493 66C62.4493 66 62.4493 66 62.4493 66C62.4493 66 62.4493 66 62.4493 66C62.4493 66 62.4493 66 62.4493 66C62.4493 66 62.4493 66 62.4493 66C62.4493 66 62.4493 66 62.4493 66C62.4493 66 62.4493 66 62.4493 66C62.4493 66 62.4493 66 62.4493 66C62.4493 66 62.4493 66 62.4493 66C62.4493 66 62.4493 66 62.4493 66C62.4493 66 62.4493 66 62.4493 66C62.4493 66 62.4493 66 62.4493 66C62.4493 66 62.4493 66 62.4493 66C62.4493 66 62.4493 66 62.4493 66C62.4493 66 62.4493 66 62.4493 66C62.4493 66 62.4493 66 62.4493 66C62.4493 66 62.4493 66 62.4493 66C62.4493 66 62.4493 66 62.4493 66C62.4493 66 62.4493 66 62.4493 66C62.4493 66 62.4493 66 62.4493 66C62.4493 66 62.4493 66 62.4493 66C62.4493 66 62.4493 66 62.4493 66C62.4493 66 62.4493 66 62.4493 66C62.4493 66 62.4493 66 62.4493 66C62.4493 66 62.4493 66 62.4493 66C62.4493 66 62.4493 66 62.4493 66C62.4493 66 62.4493 66 62.4493 66C62.4493 66 62.4493 66 62.4493 66C62.4493 66 62.4493 66 62.4493 66C62.4493 66 62.4493 66 62.4493 66C62.4493 66 62.4493 66 62.4493 66C62.4493 66 62.4493 66 62.4493 66C62.4493 66 62.4493 66 62.4493 66C62.4493 66 62.4493 66 62.4493 66C62.4493 66 62.4493 66 62.4493 66C62.4493 66 62.4493 66 62.4493 66C62.4493 66 62.4493 66 62.4493 66C62.4493 66 62.4493 66 62.4493 66C62.4493 66 62.4493 66 62.4493 66C62.4493 66 62.4493 66 62.4493 66C62.4493 66 62.4493 66 62.4493 66C62.4493 66 62.4493 66 62.4493 66C62.4493 66 62.4493 66 62.4493 66C62.4493 66 62.4493 66 62.4493 66C62.4493 66 62.4493 66 62.4493 66C62.4493 66 62.4493 66 62.4493 66C62.4493 66 62.4493 66 62.4493 66C62.4493 66 62.4493 66 62.4493 66C62.4493 66 62.4493 66 62.4493 66C62.4493 66 62.4493 66 62.4493 66C62.4493 66 62.4493 66 62.4493 66C62.4493 66 62.4493 66 62.4493 66C62.4493 66 62.4493 66 62.4493 66C62.4493 66 62.4493 66 62.4493 66C62.4493 66 62.4493 66 62.4493 66C62.4493 66 62.4493 66 62.4493 66C62.4493 66 62.4493 66 62.4493 66C62.4493 66 62.4493 66 62.4493 66C62.4493 66 62.4493 66 62.4493 66C62.4493 66 62.4493 66 62.4493 66C62.4493 66 62.4493 66 62.4493 66C62.4493 66 62.4493 66 62.4493 66C62.4493 66 62.4493 66 62.4493 66C62.4493 66 62.4493 66 62.4493 66C62.4493 66 62.4493 66 62.4493 66C62.4493 66 62.4493 66 62.4493 66C62.4493 66 62.4493 66 62.4493 66C62.4493 66 62.4493 66 62.4493 66C62.4493 66 62.4493 66 62.4493 66C62.4493 66 62.4493 66 62.4493 66C62.4493 66 62.4493 66 62.4493 66C62.4493 66 62.4493 66 62.4493 66C62.4494 66 62.4494 66 62.4494 66C62.4494 66 62.4494 66 62.4494 66C62.4494 66 62.4494 66 62.4494 66C62.4494 66 62.4494 66 62.4494 66C62.4494 66 62.4494 66 62.4494 66C62.4494 66 62.4494 66 62.4494 66C62.4494 66 62.4494 66 62.4494 66C62.4494 66 62.4494 66 62.4494 66C62.4494 66 62.4494 66 62.4494 66C62.4494 66 62.4494 66 62.4494 66C62.4494 66 62.4494 66 62.4494 66C62.4494 66 62.4494 66 62.4494 66C62.4494 66 62.4494 66 62.4494 66C62.4494 66 62.4494 66 62.4494 66C62.4494 66 62.4494 66 62.4494 66C62.4494 66 62.4494 66 62.4494 66C62.4494 66 62.4494 66 62.4494 66C62.4494 66 62.4494 66 62.4494 66C62.4494 66 62.4494 66 62.4494 66C62.4494 66 62.4494 66 62.4494 66C62.4494 66 62.4494 66 62.4494 66C62.4494 66 62.4494 66 62.4494 66C62.4494 66 62.4494 66 62.4494 66C62.4494 66 62.4494 66 62.4494 66C62.4494 66 62.4494 66 62.4494 66C62.4494 66 62.4494 66 62.4494 66C62.4494 66 62.4494 66 62.4494 66C62.4494 66 62.4494 66 62.4494 66C62.4494 66 62.4494 66 62.4494 66C62.4494 66 62.4494 66 62.4494 66C62.4494 66 62.4494 66 62.4494 66C62.4494 66 62.4494 66 62.4494 66C62.4494 66 62.4494 66 62.4494 66C62.4494 66 62.4494 66 62.4494 66C62.4494 66 62.4494 66 62.4494 66C62.4494 66 62.4494 66 62.4494 66C62.4494 66 62.4494 66 62.4494 66C62.4494 66 62.4494 66 62.4494 66C62.4494 66 62.4494 66 62.4494 66C62.4494 66 62.4494 66 62.4494 66C62.4494 66 62.4494 66 62.4494 66C62.4494 66 62.4494 66 62.4494 66C62.4494 66 62.4494 66 62.4494 66C62.4494 66 62.4494 66 62.4494 66C62.4494 66 62.4494 66 62.4494 66C62.4494 66 62.4494 66 62.4494 66C62.4494 66 62.4494 66 62.4494 66C62.4494 66 62.4494 66 62.4494 66C62.4494 66 62.4494 66 62.4494 66C62.4494 66 62.4494 66 62.4494 66C62.4494 66 62.4494 66 62.4494 66C62.4494 66 62.4494 66 62.4494 66C62.4494 66 62.4494 66 62.4494 66C62.4494 66 62.4494 66 62.4494 66C62.4494 66 62.4494 66 62.4494 66C62.4494 66 62.4494 66 62.4494 66C62.4494 66 62.4494 66 62.4494 66C62.4494 66 62.4494 66 62.4494 66C62.4494 66 62.4494 66 62.4494 66C62.4494 66 62.4494 66 62.4494 66C62.4494 66 62.4494 66 62.4494 66C62.4494 66 62.4494 66 62.4494 66C62.4494 66 62.4494 66 62.4494 66C62.4494 66 62.4494 66 62.4494 66C62.4494 66 62.4494 66 62.4494 66C62.4494 66 62.4494 66 62.4494 66C62.4494 66 62.4494 66 62.4494 66C62.4494 66 62.4494 66 62.4494 66C62.4494 66 62.4494 66 62.4494 66C62.4494 66 62.4494 66 62.4494 66C62.4494 66 62.4494 66 62.4494 66C62.4494 66 62.4494 66 62.4494 66C62.4494 66 62.4494 66 62.4494 66C62.4494 66 62.4494 66 62.4494 66C62.4494 66 62.4494 66 62.4494 66C62.4494 66 62.4494 66 62.4494 66C62.4494 66 62.4494 66 62.4494 66C62.4494 66 62.4494 66 62.4494 66C62.4494 66 62.4494 66 62.4494 66C62.4494 66 62.4494 66 62.4494 66C62.4494 66 62.4494 66 62.4494 66C62.4494 66 62.4494 66 62.4494 66C62.4494 66 62.4494 66 62.4494 66C62.4494 66 62.4494 66 62.4494 66C62.4494 66 62.4494 66 62.4494 66C62.4494 66 62.4494 66 62.4494 66C62.4494 66 62.4494 66 62.4494 66C62.4494 66 62.4494 66 62.4494 66C62.4494 66 62.4494 66 62.4494 66C62.4494 66 62.4494 66 62.4494 66C62.4494 66 62.4494 66 62.4494 66C62.4494 66 62.4494 66 62.4494 66C62.4494 66 62.4494 66 62.4494 66C62.4494 66 62.4494 66 62.4494 66C62.4494 66 62.4494 66 62.4494 66C62.4494 66 62.4494 66 62.4494 66C62.4494 66 62.4494 66 62.4494 66C62.4494 66 62.4494 66 62.4494 66C62.4494 66 62.4494 66 62.4494 66C62.4494 66 62.4494 66 62.4494 66C62.4494 66 62.4494 66 62.4494 66C62.4494 66 62.4494 66 62.4494 66C62.4494 66 62.4494 66 62.4494 66C62.4494 66 62.4494 66 62.4494 66C62.4494 66 62.4494 66 62.4494 66C62.4494 66 62.4494 66 62.4494 66C62.4494 66 62.4494 66 62.4494 66C62.4494 66 62.4494 66 62.4494 66C62.4494 66 62.4494 66 62.4494 66C62.4494 66 62.4494 66 62.4494 66C62.4494 66 62.4494 66 62.4494 66C62.4494 66 62.4494 66 62.4494 66C62.4494 66 62.4494 66 62.4494 66C62.4494 66 62.4494 66 62.4494 66C62.4494 66 62.4494 66 62.4494 66C62.4494 66 62.4494 66 62.4494 66C62.4494 66 62.4494 66 62.4494 66C62.4494 66 62.4494 66 62.4494 66C62.4494 66 62.4494 66 62.4494 66C62.4494 66 62.4494 66 62.4494 66C62.4494 66 62.4494 66 62.4494 66C62.4494 66 62.4494 66 62.4494 66C62.4494 66 62.4494 66 62.4494 66C62.4494 66 62.4494 66 62.4494 66C62.4494 66 62.4494 66 62.4494 66C62.4494 66 62.4494 66 62.4494 66C62.4494 66 62.4494 66 62.4494 66C62.4494 66 62.4494 66 62.4494 66C62.4494 66 62.4494 66 62.4494 66C62.4494 66 62.4494 66 62.4494 66C62.4494 66 62.4494 66 62.4494 66C62.4494 66 62.4494 66 62.4494 66C62.4494 66 62.4494 66 62.4494 66C62.4494 66 62.4494 66 62.4494 66C62.4494 66 62.4494 66 62.4494 66C62.4494 66 62.4494 66 62.4495 66C62.4495 66 62.4495 66 62.4495 66C62.4495 66 62.4495 66 62.4495 66C62.4495 66 62.4495 66 62.4495 66C62.4495 66 62.4495 66 62.4495 66C62.4495 66 62.4495 66 62.4495 66C62.4495 66 62.4495 66 62.4495 66C62.4495 66 62.4495 66 62.4495 66V62C62.4495 62 62.4495 62 62.4495 62C62.4495 62 62.4495 62 62.4495 62C62.4495 62 62.4495 62 62.4495 62C62.4495 62 62.4495 62 62.4495 62C62.4495 62 62.4495 62 62.4495 62C62.4495 62 62.4495 62 62.4495 62C62.4495 62 62.4495 62 62.4495 62C62.4494 62 62.4494 62 62.4494 62C62.4494 62 62.4494 62 62.4494 62C62.4494 62 62.4494 62 62.4494 62C62.4494 62 62.4494 62 62.4494 62C62.4494 62 62.4494 62 62.4494 62C62.4494 62 62.4494 62 62.4494 62C62.4494 62 62.4494 62 62.4494 62C62.4494 62 62.4494 62 62.4494 62C62.4494 62 62.4494 62 62.4494 62C62.4494 62 62.4494 62 62.4494 62C62.4494 62 62.4494 62 62.4494 62C62.4494 62 62.4494 62 62.4494 62C62.4494 62 62.4494 62 62.4494 62C62.4494 62 62.4494 62 62.4494 62C62.4494 62 62.4494 62 62.4494 62C62.4494 62 62.4494 62 62.4494 62C62.4494 62 62.4494 62 62.4494 62C62.4494 62 62.4494 62 62.4494 62C62.4494 62 62.4494 62 62.4494 62C62.4494 62 62.4494 62 62.4494 62C62.4494 62 62.4494 62 62.4494 62C62.4494 62 62.4494 62 62.4494 62C62.4494 62 62.4494 62 62.4494 62C62.4494 62 62.4494 62 62.4494 62C62.4494 62 62.4494 62 62.4494 62C62.4494 62 62.4494 62 62.4494 62C62.4494 62 62.4494 62 62.4494 62C62.4494 62 62.4494 62 62.4494 62C62.4494 62 62.4494 62 62.4494 62C62.4494 62 62.4494 62 62.4494 62C62.4494 62 62.4494 62 62.4494 62C62.4494 62 62.4494 62 62.4494 62C62.4494 62 62.4494 62 62.4494 62C62.4494 62 62.4494 62 62.4494 62C62.4494 62 62.4494 62 62.4494 62C62.4494 62 62.4494 62 62.4494 62C62.4494 62 62.4494 62 62.4494 62C62.4494 62 62.4494 62 62.4494 62C62.4494 62 62.4494 62 62.4494 62C62.4494 62 62.4494 62 62.4494 62C62.4494 62 62.4494 62 62.4494 62C62.4494 62 62.4494 62 62.4494 62C62.4494 62 62.4494 62 62.4494 62C62.4494 62 62.4494 62 62.4494 62C62.4494 62 62.4494 62 62.4494 62C62.4494 62 62.4494 62 62.4494 62C62.4494 62 62.4494 62 62.4494 62C62.4494 62 62.4494 62 62.4494 62C62.4494 62 62.4494 62 62.4494 62C62.4494 62 62.4494 62 62.4494 62C62.4494 62 62.4494 62 62.4494 62C62.4494 62 62.4494 62 62.4494 62C62.4494 62 62.4494 62 62.4494 62C62.4494 62 62.4494 62 62.4494 62C62.4494 62 62.4494 62 62.4494 62C62.4494 62 62.4494 62 62.4494 62C62.4494 62 62.4494 62 62.4494 62C62.4494 62 62.4494 62 62.4494 62C62.4494 62 62.4494 62 62.4494 62C62.4494 62 62.4494 62 62.4494 62C62.4494 62 62.4494 62 62.4494 62C62.4494 62 62.4494 62 62.4494 62C62.4494 62 62.4494 62 62.4494 62C62.4494 62 62.4494 62 62.4494 62C62.4494 62 62.4494 62 62.4494 62C62.4494 62 62.4494 62 62.4494 62C62.4494 62 62.4494 62 62.4494 62C62.4494 62 62.4494 62 62.4494 62C62.4494 62 62.4494 62 62.4494 62C62.4494 62 62.4494 62 62.4494 62C62.4494 62 62.4494 62 62.4494 62C62.4494 62 62.4494 62 62.4494 62C62.4494 62 62.4494 62 62.4494 62C62.4494 62 62.4494 62 62.4494 62C62.4494 62 62.4494 62 62.4494 62C62.4494 62 62.4494 62 62.4494 62C62.4494 62 62.4494 62 62.4494 62C62.4494 62 62.4494 62 62.4494 62C62.4494 62 62.4494 62 62.4494 62C62.4494 62 62.4494 62 62.4494 62C62.4494 62 62.4494 62 62.4494 62C62.4494 62 62.4494 62 62.4494 62C62.4494 62 62.4494 62 62.4494 62C62.4494 62 62.4494 62 62.4494 62C62.4494 62 62.4494 62 62.4494 62C62.4494 62 62.4494 62 62.4494 62C62.4494 62 62.4494 62 62.4494 62C62.4494 62 62.4494 62 62.4494 62C62.4494 62 62.4494 62 62.4494 62C62.4494 62 62.4494 62 62.4494 62C62.4494 62 62.4494 62 62.4494 62C62.4494 62 62.4494 62 62.4494 62C62.4494 62 62.4494 62 62.4494 62C62.4494 62 62.4494 62 62.4494 62C62.4494 62 62.4494 62 62.4494 62C62.4494 62 62.4494 62 62.4494 62C62.4494 62 62.4494 62 62.4494 62C62.4494 62 62.4494 62 62.4494 62C62.4494 62 62.4494 62 62.4494 62C62.4494 62 62.4494 62 62.4494 62C62.4494 62 62.4494 62 62.4494 62C62.4494 62 62.4494 62 62.4494 62C62.4494 62 62.4494 62 62.4494 62C62.4494 62 62.4494 62 62.4494 62C62.4494 62 62.4494 62 62.4494 62C62.4494 62 62.4494 62 62.4494 62C62.4494 62 62.4494 62 62.4494 62C62.4494 62 62.4494 62 62.4494 62C62.4494 62 62.4494 62 62.4494 62C62.4494 62 62.4494 62 62.4494 62C62.4494 62 62.4494 62 62.4494 62C62.4494 62 62.4494 62 62.4494 62C62.4494 62 62.4494 62 62.4494 62C62.4494 62 62.4494 62 62.4494 62C62.4494 62 62.4494 62 62.4494 62C62.4494 62 62.4494 62 62.4494 62C62.4494 62 62.4494 62 62.4494 62C62.4494 62 62.4494 62 62.4494 62C62.4494 62 62.4494 62 62.4494 62C62.4494 62 62.4494 62 62.4494 62C62.4494 62 62.4494 62 62.4494 62C62.4494 62 62.4494 62 62.4494 62C62.4494 62 62.4494 62 62.4494 62C62.4494 62 62.4494 62 62.4494 62C62.4494 62 62.4494 62 62.4494 62C62.4494 62 62.4494 62 62.4494 62C62.4494 62 62.4494 62 62.4494 62C62.4494 62 62.4494 62 62.4494 62C62.4494 62 62.4494 62 62.4494 62C62.4494 62 62.4494 62 62.4494 62C62.4494 62 62.4494 62 62.4494 62C62.4494 62 62.4494 62 62.4494 62C62.4494 62 62.4494 62 62.4494 62C62.4494 62 62.4494 62 62.4494 62C62.4494 62 62.4494 62 62.4494 62C62.4494 62 62.4494 62 62.4493 62C62.4493 62 62.4493 62 62.4493 62C62.4493 62 62.4493 62 62.4493 62C62.4493 62 62.4493 62 62.4493 62C62.4493 62 62.4493 62 62.4493 62C62.4493 62 62.4493 62 62.4493 62C62.4493 62 62.4493 62 62.4493 62C62.4493 62 62.4493 62 62.4493 62C62.4493 62 62.4493 62 62.4493 62C62.4493 62 62.4493 62 62.4493 62C62.4493 62 62.4493 62 62.4493 62C62.4493 62 62.4493 62 62.4493 62C62.4493 62 62.4493 62 62.4493 62C62.4493 62 62.4493 62 62.4493 62C62.4493 62 62.4493 62 62.4493 62C62.4493 62 62.4493 62 62.4493 62C62.4493 62 62.4493 62 62.4493 62C62.4493 62 62.4493 62 62.4493 62C62.4493 62 62.4493 62 62.4493 62C62.4493 62 62.4493 62 62.4493 62C62.4493 62 62.4493 62 62.4493 62C62.4493 62 62.4493 62 62.4493 62C62.4493 62 62.4493 62 62.4493 62C62.4493 62 62.4493 62 62.4493 62C62.4493 62 62.4493 62 62.4493 62C62.4493 62 62.4493 62 62.4493 62C62.4493 62 62.4493 62 62.4493 62C62.4493 62 62.4493 62 62.4493 62C62.4493 62 62.4493 62 62.4493 62C62.4493 62 62.4493 62 62.4493 62C62.4493 62 62.4493 62 62.4493 62C62.4493 62 62.4493 62 62.4493 62C62.4493 62 62.4493 62 62.4493 62C62.4493 62 62.4493 62 62.4493 62C62.4493 62 62.4493 62 62.4493 62C62.4493 62 62.4493 62 62.4493 62C62.4493 62 62.4493 62 62.4493 62C62.4493 62 62.4493 62 62.4493 62C62.4493 62 62.4493 62 62.4493 62C62.4493 62 62.4493 62 62.4493 62C62.4493 62 62.4493 62 62.4493 62C62.4493 62 62.4493 62 62.4493 62C62.4493 62 62.4493 62 62.4493 62C62.4493 62 62.4493 62 62.4493 62C62.4493 62 62.4493 62 62.4493 62C62.4493 62 62.4493 62 62.4493 62C62.4493 62 62.4493 62 62.4493 62C62.4493 62 62.4493 62 62.4493 62C62.4493 62 62.4493 62 62.4493 62C62.4493 62 62.4493 62 62.4493 62C62.4493 62 62.4493 62 62.4493 62C62.4493 62 62.4493 62 62.4493 62C62.4493 62 62.4493 62 62.4493 62C62.4493 62 62.4493 62 62.4493 62C62.4493 62 62.4493 62 62.4493 62C62.4493 62 62.4493 62 62.4493 62C62.4493 62 62.4493 62 62.4493 62C62.4493 62 62.4493 62 62.4493 62C62.4493 62 62.4493 62 62.4493 62C62.4493 62 62.4493 62 62.4493 62C62.4493 62 62.4493 62 62.4493 62C62.4493 62 62.4493 62 62.4493 62C62.4493 62 62.4493 62 62.4493 62C62.4493 62 62.4493 62 62.4493 62C62.4493 62 62.4493 62 62.4493 62C62.4493 62 62.4493 62 62.4493 62C62.4493 62 62.4493 62 62.4493 62C62.4493 62 62.4493 62 62.4493 62C62.4493 62 62.4493 62 62.4493 62C62.4493 62 62.4493 62 62.4493 62C62.4493 62 62.4493 62 62.4493 62C62.4493 62 62.4493 62 62.4493 62C62.4493 62 62.4493 62 62.4493 62C62.4493 62 62.4493 62 62.4493 62C62.4493 62 62.4493 62 62.4493 62C62.4493 62 62.4493 62 62.4493 62C62.4493 62 62.4493 62 62.4493 62C62.4493 62 62.4493 62 62.4493 62C62.4493 62 62.4493 62 62.4493 62C62.4493 62 62.4493 62 62.4493 62C62.4493 62 62.4493 62 62.4493 62C62.4493 62 62.4493 62 62.4493 62C62.4493 62 62.4493 62 62.4493 62C62.4493 62 62.4493 62 62.4493 62C62.4493 62 62.4493 62 62.4493 62C62.4493 62 62.4493 62 62.4493 62C62.4493 62 62.4493 62 62.4493 62C62.4493 62 62.4493 62 62.4493 62C62.4493 62 62.4493 62 62.4493 62C62.4493 62 62.4493 62 62.4493 62C62.4493 62 62.4493 62 62.4493 62C62.4493 62 62.4493 62 62.4493 62C62.4493 62 62.4493 62 62.4493 62C62.4493 62 62.4493 62 62.4493 62C62.4493 62 62.4493 62 62.4493 62C62.4493 62 62.4493 62 62.4493 62C62.4493 62 62.4493 62 62.4493 62C62.4493 62 62.4493 62 62.4493 62C62.4493 62 62.4493 62 62.4493 62C62.4493 62 62.4493 62 62.4493 62C62.4493 62 62.4493 62 62.4493 62C62.4493 62 62.4493 62 62.4493 62C62.4493 62 62.4493 62 62.4493 62C62.4493 62 62.4493 62 62.4493 62C62.4493 62 62.4493 62 62.4493 62C62.4493 62 62.4493 62 62.4493 62C62.4493 62 62.4493 62 62.4493 62C62.4493 62 62.4493 62 62.4493 62C62.4493 62 62.4493 62 62.4493 62C62.4493 62 62.4493 62 62.4493 62C62.4493 62 62.4493 62 62.4493 62C62.4493 62 62.4493 62 62.4493 62C62.4493 62 62.4493 62 62.4493 62C62.4493 62 62.4493 62 62.4493 62C62.4493 62 62.4493 62 62.4493 62C62.4493 62 62.4493 62 62.4493 62C62.4493 62 62.4493 62 62.4493 62C62.4493 62 62.4493 62 62.4493 62C62.4493 62 62.4493 62 62.4493 62C62.4493 62 62.4493 62 62.4493 62C62.4493 62 62.4493 62 62.4493 62C62.4493 62 62.4493 62 62.4493 62C62.4493 62 62.4493 62 62.4493 62C62.4493 62 62.4493 62 62.4493 62C62.4493 62 62.4493 62 62.4493 62C62.4493 62 62.4493 62 62.4493 62C62.4493 62 62.4493 62 62.4493 62C62.4493 62 62.4493 62 62.4493 62C62.4493 62 62.4493 62 62.4493 62C62.4493 62 62.4493 62 62.4493 62C62.4493 62 62.4493 62 62.4493 62C62.4493 62 62.4493 62 62.4493 62C62.4493 62 62.4493 62 62.4493 62C62.4493 62 62.4493 62 62.4493 62C62.4493 62 62.4493 62 62.4493 62C62.4493 62 62.4493 62 62.4493 62C62.4492 62 62.4492 62 62.4492 62C62.4492 62 62.4492 62 62.4492 62C62.4492 62 62.4492 62 62.4492 62C62.4492 62 62.4492 62 62.4492 62C62.4492 62 62.4492 62 62.4492 62C62.4492 62 62.4492 62 62.4492 62C62.4492 62 62.4492 62 62.4492 62C62.4492 62 62.4492 62 62.4492 62C62.4492 62 62.4492 62 62.4492 62C62.4492 62 62.4492 62 62.4492 62C62.4492 62 62.4492 62 62.4492 62C62.4492 62 62.4492 62 62.4492 62C62.4492 62 62.4492 62 62.4492 62C62.4492 62 62.4492 62 62.4492 62C62.4492 62 62.4492 62 62.4492 62C62.4492 62 62.4492 62 62.4492 62C62.4492 62 62.4492 62 62.4492 62C62.4492 62 62.4492 62 62.4492 62C62.4492 62 62.4492 62 62.4492 62C62.4492 62 62.4492 62 62.4492 62C62.4492 62 62.4492 62 62.4492 62C62.4492 62 62.4492 62 62.4492 62C62.4492 62 62.4492 62 62.4492 62C62.4492 62 62.4492 62 62.4492 62C62.4492 62 62.4492 62 62.4492 62C62.4492 62 62.4492 62 62.4492 62C62.4492 62 62.4492 62 62.4492 62C62.4492 62 62.4492 62 62.4492 62C62.4492 62 62.4492 62 62.4492 62C62.4492 62 62.4492 62 62.4492 62C62.4492 62 62.4492 62 62.4492 62C62.4492 62 62.4492 62 62.4492 62C62.4492 62 62.4492 62 62.4492 62C62.4492 62 62.4492 62 62.4492 62C62.4492 62 62.4492 62 62.4492 62C62.4492 62 62.4492 62 62.4492 62C62.4492 62 62.4492 62 62.4492 62C62.4492 62 62.4492 62 62.4492 62C62.4492 62 62.4492 62 62.4492 62C62.4492 62 62.4492 62 62.4492 62C62.4492 62 62.4492 62 62.4492 62C62.4492 62 62.4492 62 62.4492 62C62.4492 62 62.4492 62 62.4492 62C62.4492 62 62.4492 62 62.4492 62C62.4492 62 62.4492 62 62.4492 62C62.4492 62 62.4492 62 62.4492 62C62.4492 62 62.4492 62 62.4492 62C62.4492 62 62.4492 62 62.4492 62C62.4492 62 62.4492 62 62.4492 62C62.4492 62 62.4492 62 62.4492 62C62.4492 62 62.4492 62 62.4492 62C62.4492 62 62.4492 62 62.4492 62C62.4492 62 62.4492 62 62.4492 62C62.4492 62 62.4492 62 62.4492 62C62.4492 62 62.4492 62 62.4492 62C62.4492 62 62.4492 62 62.4492 62C62.4492 62 62.4492 62 62.4492 62C62.4492 62 62.4492 62 62.4492 62C62.4492 62 62.4492 62 62.4492 62C62.4492 62 62.4492 62 62.4492 62C62.4492 62 62.4492 62 62.4492 62C62.4492 62 62.4492 62 62.4492 62C62.4492 62 62.4492 62 62.4492 62C62.4492 62 62.4492 62 62.4492 62C62.4492 62 62.4492 62 62.4492 62C62.4492 62 62.4492 62 62.4492 62C62.4492 62 62.4492 62 62.4492 62C62.4492 62 62.4492 62 62.4492 62C62.4492 62 62.4492 62 62.4492 62C62.4492 62 62.4492 62 62.4492 62C62.4492 62 62.4492 62 62.4492 62C62.4492 62 62.4492 62 62.4492 62C62.4492 62 62.4492 62 62.4492 62C62.4492 62 62.4492 62 62.4492 62C62.4492 62 62.4492 62 62.4492 62C62.4492 62 62.4492 62 62.4492 62C62.4492 62 62.4492 62 62.4492 62C62.4492 62 62.4492 62 62.4492 62C62.4492 62 62.4492 62 62.4492 62C62.4492 62 62.4492 62 62.4492 62C62.4492 62 62.4492 62 62.4492 62C62.4492 62 62.4492 62 62.4492 62C62.4492 62 62.4492 62 62.4492 62C62.4492 62 62.4492 62 62.4492 62C62.4492 62 62.4492 62 62.4492 62C62.4492 62 62.4492 62 62.4492 62C62.4492 62 62.4492 62 62.4492 62C62.4492 62 62.4492 62 62.4492 62C62.4492 62 62.4492 62 62.4492 62C62.4492 62 62.4492 62 62.4492 62C62.4492 62 62.4492 62 62.4492 62C62.4492 62 62.4492 62 62.4492 62C62.4492 62 62.4492 62 62.4492 62C62.4492 62 62.4492 62 62.4492 62C62.4492 62 62.4492 62 62.4492 62C62.4492 62 62.4492 62 62.4492 62C62.4492 62 62.4492 62 62.4492 62C62.4492 62 62.4492 62 62.4492 62C62.4492 62 62.4492 62 62.4492 62C62.4492 62 62.4492 62 62.4492 62C62.4492 62 62.4492 62 62.4492 62C62.4492 62 62.4492 62 62.4492 62C62.4492 62 62.4492 62 62.4492 62C62.4492 62 62.4492 62 62.4492 62C62.4492 62 62.4492 62 62.4492 62C62.4492 62 62.4492 62 62.4492 62C62.4492 62 62.4492 62 62.4492 62C62.4492 62 62.4492 62 62.4492 62C62.4492 62 62.4492 62 62.4492 62C62.4492 62 62.4492 62 62.4492 62C62.4492 62 62.4492 62 62.4492 62C62.4492 62 62.4492 62 62.4492 62C62.4492 62 62.4492 62 62.4492 62C62.4492 62 62.4492 62 62.4492 62C62.4492 62 62.4492 62 62.4492 62C62.4492 62 62.4492 62 62.4492 62C62.4492 62 62.4492 62 62.4492 62C62.4492 62 62.4492 62 62.4492 62C62.4492 62 62.4492 62 62.4492 62C62.4492 62 62.4492 62 62.4492 62C62.4492 62 62.4492 62 62.4492 62C62.4492 62 62.4492 62 62.4492 62C62.4492 62 62.4492 62 62.4492 62C62.4492 62 62.4492 62 62.4492 62C62.4492 62 62.4492 62 62.4492 62C62.4492 62 62.4492 62 62.4492 62C62.4492 62 62.4492 62 62.4492 62C62.4492 62 62.4492 62 62.4492 62C62.4492 62 62.4492 62 62.4492 62C62.4492 62 62.4492 62 62.4492 62C62.4492 62 62.4492 62 62.4492 62C62.4492 62 62.4492 62 62.4492 62C62.4492 62 62.4492 62 62.4492 62C62.4492 62 62.4492 62 62.4492 62C62.4492 62 62.4492 62 62.4492 62C62.4492 62 62.4492 62 62.4491 62C62.4491 62 62.4491 62 62.4491 62C62.4491 62 62.4491 62 62.4491 62C62.4491 62 62.4491 62 62.4491 62C62.4491 62 62.4491 62 62.4491 62C62.4491 62 62.4491 62 62.4491 62C62.4491 62 62.4491 62 62.4491 62C62.4491 62 62.4491 62 62.4491 62C62.4491 62 62.4491 62 62.4491 62C62.4491 62 62.4491 62 62.4491 62C62.4491 62 62.4491 62 62.4491 62C62.4491 62 62.4491 62 62.4491 62C62.4491 62 62.4491 62 62.4491 62C62.4491 62 62.4491 62 62.4491 62C62.4491 62 62.4491 62 62.4491 62C62.4491 62 62.4491 62 62.4491 62C62.4491 62 62.4491 62 62.4491 62C62.4491 62 62.4491 62 62.4491 62C62.4491 62 62.4491 62 62.4491 62C62.4491 62 62.4491 62 62.4491 62C62.4491 62 62.4491 62 62.4491 62C62.4491 62 62.4491 62 62.4491 62C62.4491 62 62.4491 62 62.4491 62C62.4491 62 62.4491 62 62.4491 62C62.4491 62 62.4491 62 62.4491 62C62.4491 62 62.4491 62 62.4491 62C62.4491 62 62.4491 62 62.4491 62C62.4491 62 62.4491 62 62.4491 62C62.4491 62 62.4491 62 62.4491 62C62.4491 62 62.4491 62 62.4491 62C62.4491 62 62.4491 62 62.4491 62C62.4491 62 62.4491 62 62.4491 62C62.4491 62 62.4491 62 62.4491 62C62.4491 62 62.4491 62 62.4491 62C62.4491 62 62.4491 62 62.4491 62C62.4491 62 62.4491 62 62.4491 62C62.4491 62 62.4491 62 62.4491 62C62.4491 62 62.4491 62 62.4491 62C62.4491 62 62.4491 62 62.4491 62C62.4491 62 62.4491 62 62.4491 62C62.4491 62 62.4491 62 62.4491 62C62.4491 62 62.4491 62 62.4491 62C62.4491 62 62.4491 62 62.4491 62C62.4491 62 62.4491 62 62.4491 62C62.4491 62 62.4491 62 62.4491 62C62.4491 62 62.4491 62 62.4491 62C62.4491 62 62.4491 62 62.4491 62C62.4491 62 62.4491 62 62.4491 62C62.4491 62 62.4491 62 62.4491 62C62.4491 62 62.4491 62 62.4491 62C62.4491 62 62.4491 62 62.4491 62C62.4491 62 62.4491 62 62.4491 62C62.4491 62 62.4491 62 62.4491 62C62.4491 62 62.4491 62 62.4491 62C62.4491 62 62.4491 62 62.4491 62C62.4491 62 62.4491 62 62.4491 62C62.4491 62 62.4491 62 62.4491 62C62.4491 62 62.4491 62 62.4491 62C62.4491 62 62.4491 62 62.4491 62C62.4491 62 62.4491 62 62.4491 62C62.4491 62 62.4491 62 62.4491 62C62.4491 62 62.4491 62 62.4491 62C62.4491 62 62.4491 62 62.4491 62C62.4491 62 62.4491 62 62.4491 62C62.4491 62 62.4491 62 62.4491 62C62.4491 62 62.4491 62 62.4491 62C62.4491 62 62.4491 62 62.4491 62C62.4491 62 62.4491 62 62.4491 62C62.4491 62 62.4491 62 62.4491 62C62.4491 62 62.4491 62 62.4491 62C62.4491 62 62.4491 62 62.4491 62C62.4491 62 62.4491 62 62.4491 62C62.4491 62 62.4491 62 62.4491 62C62.4491 62 62.4491 62 62.4491 62C62.4491 62 62.4491 62 62.4491 62C62.4491 62 62.4491 62 62.4491 62C62.4491 62 62.4491 62 62.4491 62C62.4491 62 62.4491 62 62.4491 62C62.4491 62 62.4491 62 62.4491 62C62.4491 62 62.4491 62 62.4491 62C62.4491 62 62.4491 62 62.4491 62C62.4491 62 62.4491 62 62.4491 62C62.4491 62 62.4491 62 62.4491 62C62.4491 62 62.4491 62 62.4491 62C62.4491 62 62.4491 62 62.4491 62C62.4491 62 62.4491 62 62.4491 62C62.4491 62 62.4491 62 62.4491 62C62.4491 62 62.4491 62 62.4491 62C62.4491 62 62.4491 62 62.4491 62C62.4491 62 62.4491 62 62.4491 62C62.4491 62 62.4491 62 62.4491 62C62.4491 62 62.4491 62 62.4491 62C62.4491 62 62.4491 62 62.4491 62C62.4491 62 62.4491 62 62.4491 62C62.4491 62 62.4491 62 62.4491 62C62.4491 62 62.4491 62 62.4491 62C62.4491 62 62.4491 62 62.4491 62C62.4491 62 62.4491 62 62.4491 62C62.4491 62 62.4491 62 62.4491 62V66ZM60.4491 64V64.0003H64.4491V64H60.4491ZM62.4491 62.0003H35.0205V66.0003H62.4491V62.0003ZM37.0205 64.0003V63.9964H33.0205V64.0003H37.0205ZM34.6939 66C34.8179 66 34.9416 65.9986 35.065 65.9959L34.976 61.9969C34.8823 61.999 34.7882 62 34.6939 62V66ZM18 49C18 58.3498 25.4354 66 34.6939 66V62C27.7219 62 22 56.2188 22 49H18ZM34.6939 32C25.4354 32 18 39.6502 18 49H22C22 41.7812 27.7219 36 34.6939 36V32ZM42.7318 34.097C40.347 32.7607 37.6054 32 34.6939 32V36C36.9001 36 38.9708 36.5747 40.7765 37.5865L42.7318 34.097ZM62.4495 18C51.7001 18 42.6715 25.3281 39.8308 35.2935L43.6775 36.3901C46.0551 28.0495 53.5822 22 62.4495 22V18ZM86.0005 42C86.0005 28.7842 75.495 18 62.4495 18V22C73.2085 22 82.0005 30.9152 82.0005 42H86.0005Z" fill="black" fill-opacity="0.14"/>
<mask id="path-3-outside-1_407_628" maskUnits="userSpaceOnUse" x="26" y="69" width="48" height="14" fill="black">
<rect fill="white" x="26" y="69" width="48" height="14"/>
<path fill-rule="evenodd" clip-rule="evenodd" d="M27 72.3333C27 71.0447 28.0447 70 29.3333 70H52.2667C53.5553 70 54.6 71.0447 54.6 72.3333C54.6 73.622 53.5553 74.6667 52.2667 74.6667H29.3333C28.0447 74.6667 27 73.622 27 72.3333ZM59.2 72.3333C59.2 71.0447 60.2447 70 61.5333 70H70.6667C71.9553 70 73 71.0447 73 72.3333C73 73.622 71.9553 74.6667 70.6667 74.6667H61.5333C60.2447 74.6667 59.2 73.622 59.2 72.3333ZM70.6667 82C71.9553 82 73 80.9553 73 79.6667C73 78.378 71.9553 77.3333 70.6667 77.3333L66.1333 77.3333C64.8447 77.3333 63.8 78.378 63.8 79.6667C63.8 80.9553 64.8447 82 66.1333 82L70.6667 82ZM36.2 79.6667C36.2 80.9553 35.1553 82 33.8667 82L29.3333 82C28.0447 82 27 80.9553 27 79.6667C27 78.378 28.0447 77.3333 29.3333 77.3333L33.8667 77.3333C35.1553 77.3333 36.2 78.378 36.2 79.6667ZM56.8667 82C58.1553 82 59.2 80.9553 59.2 79.6667C59.2 78.378 58.1553 77.3333 56.8667 77.3333L43.1333 77.3333C41.8447 77.3333 40.8 78.378 40.8 79.6667C40.8 80.9553 41.8447 82 43.1333 82L56.8667 82Z"/>
</mask>
<path fill-rule="evenodd" clip-rule="evenodd" d="M27 72.3333C27 71.0447 28.0447 70 29.3333 70H52.2667C53.5553 70 54.6 71.0447 54.6 72.3333C54.6 73.622 53.5553 74.6667 52.2667 74.6667H29.3333C28.0447 74.6667 27 73.622 27 72.3333ZM59.2 72.3333C59.2 71.0447 60.2447 70 61.5333 70H70.6667C71.9553 70 73 71.0447 73 72.3333C73 73.622 71.9553 74.6667 70.6667 74.6667H61.5333C60.2447 74.6667 59.2 73.622 59.2 72.3333ZM70.6667 82C71.9553 82 73 80.9553 73 79.6667C73 78.378 71.9553 77.3333 70.6667 77.3333L66.1333 77.3333C64.8447 77.3333 63.8 78.378 63.8 79.6667C63.8 80.9553 64.8447 82 66.1333 82L70.6667 82ZM36.2 79.6667C36.2 80.9553 35.1553 82 33.8667 82L29.3333 82C28.0447 82 27 80.9553 27 79.6667C27 78.378 28.0447 77.3333 29.3333 77.3333L33.8667 77.3333C35.1553 77.3333 36.2 78.378 36.2 79.6667ZM56.8667 82C58.1553 82 59.2 80.9553 59.2 79.6667C59.2 78.378 58.1553 77.3333 56.8667 77.3333L43.1333 77.3333C41.8447 77.3333 40.8 78.378 40.8 79.6667C40.8 80.9553 41.8447 82 43.1333 82L56.8667 82Z" fill="url(#paint1_linear_407_628)"/>
<path d="M70.6667 82V83V82ZM70.6667 77.3333V78.3333V77.3333ZM66.1333 77.3333V78.3333V77.3333ZM66.1333 82V81V82ZM33.8667 82V83V82ZM29.3333 82L29.3333 81H29.3333V82ZM29.3333 77.3333L29.3333 78.3333H29.3333V77.3333ZM33.8667 77.3333V78.3333V77.3333ZM56.8667 82V83V82ZM56.8667 77.3333V78.3333V77.3333ZM43.1333 77.3333V76.3333V77.3333ZM43.1333 82V83V82ZM29.3333 69C27.4924 69 26 70.4924 26 72.3333H28C28 71.597 28.597 71 29.3333 71V69ZM52.2667 69H29.3333V71H52.2667V69ZM55.6 72.3333C55.6 70.4924 54.1076 69 52.2667 69V71C53.003 71 53.6 71.597 53.6 72.3333H55.6ZM52.2667 75.6667C54.1076 75.6667 55.6 74.1743 55.6 72.3333H53.6C53.6 73.0697 53.003 73.6667 52.2667 73.6667V75.6667ZM29.3333 75.6667H52.2667V73.6667H29.3333V75.6667ZM26 72.3333C26 74.1743 27.4924 75.6667 29.3333 75.6667V73.6667C28.597 73.6667 28 73.0697 28 72.3333H26ZM61.5333 69C59.6924 69 58.2 70.4924 58.2 72.3333H60.2C60.2 71.597 60.797 71 61.5333 71V69ZM70.6667 69H61.5333V71H70.6667V69ZM74 72.3333C74 70.4924 72.5076 69 70.6667 69V71C71.403 71 72 71.597 72 72.3333H74ZM70.6667 75.6667C72.5076 75.6667 74 74.1743 74 72.3333H72C72 73.0697 71.403 73.6667 70.6667 73.6667V75.6667ZM61.5333 75.6667H70.6667V73.6667H61.5333V75.6667ZM58.2 72.3333C58.2 74.1743 59.6924 75.6667 61.5333 75.6667V73.6667C60.797 73.6667 60.2 73.0697 60.2 72.3333H58.2ZM72 79.6667C72 80.403 71.403 81 70.6667 81V83C72.5076 83 74 81.5076 74 79.6667H72ZM70.6667 78.3333C71.403 78.3333 72 78.9303 72 79.6667H74C74 77.8257 72.5076 76.3333 70.6667 76.3333V78.3333ZM66.1333 78.3333H70.6667V76.3333L66.1333 76.3333V78.3333ZM64.8 79.6667C64.8 78.9303 65.397 78.3333 66.1333 78.3333V76.3333C64.2924 76.3333 62.8 77.8257 62.8 79.6667H64.8ZM66.1333 81C65.3969 81 64.8 80.403 64.8 79.6667H62.8C62.8 81.5076 64.2924 83 66.1333 83V81ZM70.6667 81L66.1333 81V83L70.6667 83V81ZM33.8667 83C35.7076 83 37.2 81.5076 37.2 79.6667H35.2C35.2 80.403 34.603 81 33.8667 81V83ZM29.3333 83L33.8667 83V81L29.3333 81L29.3333 83ZM26 79.6667C26 81.5076 27.4924 83 29.3333 83V81C28.597 81 28 80.403 28 79.6667H26ZM29.3333 76.3333C27.4924 76.3333 26 77.8257 26 79.6667H28C28 78.9303 28.597 78.3333 29.3333 78.3333L29.3333 76.3333ZM33.8667 76.3333L29.3333 76.3333V78.3333H33.8667V76.3333ZM37.2 79.6667C37.2 77.8257 35.7076 76.3333 33.8667 76.3333V78.3333C34.603 78.3333 35.2 78.9303 35.2 79.6667H37.2ZM58.2 79.6667C58.2 80.403 57.603 81 56.8667 81V83C58.7076 83 60.2 81.5076 60.2 79.6667H58.2ZM56.8667 78.3333C57.603 78.3333 58.2 78.9303 58.2 79.6667H60.2C60.2 77.8257 58.7076 76.3333 56.8667 76.3333V78.3333ZM43.1333 78.3333L56.8667 78.3333V76.3333L43.1333 76.3333V78.3333ZM41.8 79.6667C41.8 78.9303 42.397 78.3333 43.1333 78.3333V76.3333C41.2924 76.3333 39.8 77.8257 39.8 79.6667H41.8ZM43.1333 81C42.397 81 41.8 80.403 41.8 79.6667H39.8C39.8 81.5076 41.2924 83 43.1333 83V81ZM56.8667 81L43.1333 81V83L56.8667 83V81Z" fill="black" fill-opacity="0.05" mask="url(#path-3-outside-1_407_628)"/>
<defs>
<linearGradient id="paint0_linear_407_628" x1="42.5308" y1="36.3335" x2="66.3964" y2="54.1921" gradientUnits="userSpaceOnUse">
<stop offset="0.183865" stop-color="#AEADAD"/>
<stop offset="1" stop-color="#9D9D9D"/>
</linearGradient>
<linearGradient id="paint1_linear_407_628" x1="43.1939" y1="74.4545" x2="48.6669" y2="85.2479" gradientUnits="userSpaceOnUse">
<stop offset="0.183865" stop-color="white"/>
<stop offset="1" stop-color="#CDCDCD"/>
</linearGradient>
</defs>
</svg>
