<svg width="100" height="100" viewBox="0 0 100 100" fill="none" xmlns="http://www.w3.org/2000/svg">
<path fill-rule="evenodd" clip-rule="evenodd" d="M56.9925 33.7607C57.0443 33.5577 56.8162 33.3991 56.6323 33.504C53.9918 35.0106 50.776 35.5452 47.5826 34.7554C41.0729 33.1453 37.1208 26.642 38.7553 20.2297C39.5572 17.0838 41.5547 14.5443 44.1504 12.9635C44.3306 12.8538 44.2965 12.5817 44.0911 12.5309C34.577 10.1778 24.9278 15.8675 22.5389 25.2393C20.1501 34.6111 25.9263 44.116 35.4404 46.4691C44.9545 48.8222 54.6037 43.1325 56.9925 33.7607Z" fill="url(#paint0_linear_407_773)" stroke="#1C2047" stroke-opacity="0.15" stroke-width="4"/>
<circle cx="44.5195" cy="40.1445" r="1.875" fill="#1C2047" fill-opacity="0.15"/>
<circle cx="37.0195" cy="39.5195" r="1.25" fill="#1C2047" fill-opacity="0.15"/>
<circle cx="33.2695" cy="21.3945" r="1.25" fill="#1C2047" fill-opacity="0.15"/>
<circle cx="30.1445" cy="31.3945" r="3.125" fill="#1C2047" fill-opacity="0.15"/>
<path fill-rule="evenodd" clip-rule="evenodd" d="M82 46C82 58.1503 72.3513 68 60.449 68H33.0204V67.9964C32.9119 67.9988 32.803 68 32.6939 68C24.5787 68 18 61.2843 18 53C18 44.7157 24.5787 38 32.6939 38C35.2526 38 37.6586 38.6676 39.7537 39.8416C42.3629 30.6887 50.6408 24 60.449 24C72.3513 24 82 33.8497 82 46Z" fill="url(#paint1_linear_407_773)"/>
<path d="M33.0204 68H31.0204V70H33.0204V68ZM33.0204 67.9964H35.0204V65.9514L32.9759 65.9969L33.0204 67.9964ZM39.7537 39.8416L38.7761 41.5863L40.9834 42.8231L41.6771 40.3899L39.7537 39.8416ZM60.449 70C73.4945 70 84 59.2158 84 46H80C80 57.0848 71.208 66 60.449 66V70ZM60.449 66H33.0204V70H60.449V66ZM35.0204 68V67.9964H31.0204V68H35.0204ZM32.6939 70C32.8179 70 32.9415 69.9986 33.0649 69.9959L32.9759 65.9969C32.8822 65.9989 32.7881 66 32.6939 66V70ZM16 53C16 62.3498 23.4354 70 32.6939 70V66C25.7219 66 20 60.2188 20 53H16ZM32.6939 36C23.4354 36 16 43.6502 16 53H20C20 45.7812 25.7219 40 32.6939 40V36ZM40.7313 38.0968C38.3466 36.7606 35.6052 36 32.6939 36V40C34.9 40 36.9705 40.5747 38.7761 41.5863L40.7313 38.0968ZM60.449 22C49.6997 22 40.6712 29.3279 37.8303 39.2933L41.6771 40.3899C44.0547 32.0494 51.5818 26 60.449 26V22ZM84 46C84 32.7842 73.4945 22 60.449 22V26C71.208 26 80 34.9152 80 46H84Z" fill="black" fill-opacity="0.07"/>
<path d="M42.9969 75L46.5344 78.5158C47.234 79.2106 47.7105 80.096 47.9037 81.0601C48.0969 82.0241 47.9981 83.0234 47.6197 83.9316C47.2414 84.8398 46.6005 85.6161 45.7782 86.1623C44.9559 86.7085 43.989 87 43 87C42.011 87 41.0441 86.7085 40.2218 86.1623C39.3995 85.6161 38.7586 84.8398 38.3803 83.9316C38.0019 83.0234 37.9031 82.0241 38.0963 81.0601C38.2895 80.096 38.766 79.2106 39.4656 78.5158L42.9969 75Z" fill="url(#paint2_linear_407_773)" stroke="#21204D" stroke-opacity="0.25" stroke-width="2"/>
<mask id="path-9-outside-1_407_773" maskUnits="userSpaceOnUse" x="50" y="74" width="14" height="14" fill="black">
<rect fill="white" x="50" y="74" width="14" height="14"/>
<path fill-rule="evenodd" clip-rule="evenodd" d="M54.841 75.7775C54.681 75.6498 54.6596 75.4145 54.794 75.26C54.9206 75.1146 55.1392 75.0948 55.2898 75.215L55.8826 75.6879C56.1355 75.8897 56.5095 75.7096 56.5095 75.3861C56.5095 75.1729 56.6823 75 56.8956 75H57.1044C57.3176 75 57.4905 75.1729 57.4905 75.3861C57.4905 75.7096 57.8645 75.8897 58.1174 75.6879L58.7102 75.215C58.8608 75.0948 59.0794 75.1146 59.206 75.26C59.3404 75.4145 59.319 75.6498 59.159 75.7775L58.0016 76.7009C57.6786 76.9586 57.4905 77.3493 57.4905 77.7625V77.8013C57.4905 78.8349 58.6139 79.477 59.5046 78.9525C59.8544 78.7464 60.0916 78.3924 60.1491 77.9905L60.3648 76.4829C60.3938 76.2799 60.5878 76.1433 60.7888 76.1843C60.9735 76.2221 61.0968 76.3972 61.0701 76.5838L60.9559 77.3822C60.9109 77.6972 61.25 77.9244 61.5242 77.763C61.707 77.6553 61.9425 77.7184 62.047 77.903L62.1531 78.0905C62.2585 78.2766 62.1952 78.5128 62.0109 78.6213C61.7311 78.7861 61.7615 79.2001 62.0623 79.3223L62.774 79.6114C62.9509 79.6833 63.0418 79.8802 62.9818 80.0615C62.9159 80.2607 62.6952 80.3625 62.5009 80.2836L61.1634 79.7402C60.7709 79.5808 60.3266 79.6134 59.9616 79.8284C59.0686 80.3543 59.0686 81.6458 59.9616 82.1717C60.3266 82.3867 60.7709 82.4193 61.1634 82.2598L62.5009 81.7165C62.6952 81.6375 62.9159 81.7394 62.9818 81.9385C63.0418 82.1199 62.9509 82.3167 62.774 82.3886L62.0623 82.6777C61.7615 82.8 61.7311 83.2139 62.0109 83.3787C62.1952 83.4872 62.2585 83.7234 62.1531 83.9096L62.047 84.097C61.9425 84.2817 61.707 84.3448 61.5242 84.2371C61.25 84.0756 60.9109 84.3029 60.9559 84.6178L61.0701 85.4162C61.0968 85.6028 60.9735 85.778 60.7888 85.8157C60.5878 85.8568 60.3938 85.7201 60.3648 85.5171L60.1491 84.0096C60.0916 83.6076 59.8544 83.2537 59.5046 83.0476C58.6139 82.523 57.4905 83.1652 57.4905 84.1988V84.2375C57.4905 84.6507 57.6786 85.0414 58.0016 85.2991L59.159 86.2225C59.319 86.3502 59.3404 86.5855 59.206 86.74C59.0794 86.8854 58.8608 86.9052 58.7102 86.785L58.1174 86.3121C57.8645 86.1103 57.4905 86.2904 57.4905 86.6139C57.4905 86.8271 57.3176 87 57.1044 87H56.8956C56.6823 87 56.5095 86.8271 56.5095 86.6139C56.5095 86.2904 56.1355 86.1103 55.8826 86.3121L55.2898 86.785C55.1392 86.9052 54.9206 86.8854 54.794 86.74C54.6596 86.5855 54.681 86.3502 54.841 86.2225L55.9984 85.2991C56.3214 85.0414 56.5095 84.6507 56.5095 84.2375V84.1987C56.5095 83.1652 55.3862 82.5231 54.4956 83.0476C54.1458 83.2537 53.9087 83.6076 53.8512 84.0095L53.6355 85.5171C53.6064 85.7201 53.4124 85.8568 53.2115 85.8157C53.0268 85.778 52.9034 85.6028 52.9301 85.4162L53.0443 84.6178C53.0894 84.3029 52.7502 84.0756 52.4761 84.2371C52.2933 84.3448 52.0577 84.2817 51.9532 84.097L51.8471 83.9096C51.7418 83.7234 51.8051 83.4872 51.9894 83.3787C52.2691 83.2139 52.2388 82.7999 51.938 82.6777L51.2263 82.3886C51.0493 82.3167 50.9584 82.1199 51.0185 81.9385C51.0844 81.7394 51.305 81.6375 51.4994 81.7165L52.8368 82.2598C53.2293 82.4193 53.6737 82.3867 54.0387 82.1717C54.9316 81.6458 54.9316 80.3543 54.0387 79.8284C53.6737 79.6134 53.2293 79.5808 52.8368 79.7402L51.4994 80.2836C51.305 80.3625 51.0844 80.2607 51.0185 80.0615C50.9584 79.8802 51.0493 79.6833 51.2263 79.6114L51.938 79.3223C52.2388 79.2001 52.2691 78.7861 51.9894 78.6213C51.8051 78.5128 51.7418 78.2766 51.8471 78.0905L51.9532 77.903C52.0577 77.7184 52.2933 77.6553 52.4761 77.763C52.7502 77.9244 53.0894 77.6971 53.0443 77.3822L52.9301 76.5838C52.9034 76.3972 53.0268 76.2221 53.2115 76.1843C53.4124 76.1433 53.6064 76.2799 53.6355 76.4829L53.8512 77.9905C53.9087 78.3924 54.1458 78.7464 54.4956 78.9524C55.3862 79.4769 56.5095 78.8349 56.5095 77.8013V77.7625C56.5095 77.3493 56.3214 76.9586 55.9984 76.7009L54.841 75.7775Z"/>
</mask>
<path fill-rule="evenodd" clip-rule="evenodd" d="M54.841 75.7775C54.681 75.6498 54.6596 75.4145 54.794 75.26C54.9206 75.1146 55.1392 75.0948 55.2898 75.215L55.8826 75.6879C56.1355 75.8897 56.5095 75.7096 56.5095 75.3861C56.5095 75.1729 56.6823 75 56.8956 75H57.1044C57.3176 75 57.4905 75.1729 57.4905 75.3861C57.4905 75.7096 57.8645 75.8897 58.1174 75.6879L58.7102 75.215C58.8608 75.0948 59.0794 75.1146 59.206 75.26C59.3404 75.4145 59.319 75.6498 59.159 75.7775L58.0016 76.7009C57.6786 76.9586 57.4905 77.3493 57.4905 77.7625V77.8013C57.4905 78.8349 58.6139 79.477 59.5046 78.9525C59.8544 78.7464 60.0916 78.3924 60.1491 77.9905L60.3648 76.4829C60.3938 76.2799 60.5878 76.1433 60.7888 76.1843C60.9735 76.2221 61.0968 76.3972 61.0701 76.5838L60.9559 77.3822C60.9109 77.6972 61.25 77.9244 61.5242 77.763C61.707 77.6553 61.9425 77.7184 62.047 77.903L62.1531 78.0905C62.2585 78.2766 62.1952 78.5128 62.0109 78.6213C61.7311 78.7861 61.7615 79.2001 62.0623 79.3223L62.774 79.6114C62.9509 79.6833 63.0418 79.8802 62.9818 80.0615C62.9159 80.2607 62.6952 80.3625 62.5009 80.2836L61.1634 79.7402C60.7709 79.5808 60.3266 79.6134 59.9616 79.8284C59.0686 80.3543 59.0686 81.6458 59.9616 82.1717C60.3266 82.3867 60.7709 82.4193 61.1634 82.2598L62.5009 81.7165C62.6952 81.6375 62.9159 81.7394 62.9818 81.9385C63.0418 82.1199 62.9509 82.3167 62.774 82.3886L62.0623 82.6777C61.7615 82.8 61.7311 83.2139 62.0109 83.3787C62.1952 83.4872 62.2585 83.7234 62.1531 83.9096L62.047 84.097C61.9425 84.2817 61.707 84.3448 61.5242 84.2371C61.25 84.0756 60.9109 84.3029 60.9559 84.6178L61.0701 85.4162C61.0968 85.6028 60.9735 85.778 60.7888 85.8157C60.5878 85.8568 60.3938 85.7201 60.3648 85.5171L60.1491 84.0096C60.0916 83.6076 59.8544 83.2537 59.5046 83.0476C58.6139 82.523 57.4905 83.1652 57.4905 84.1988V84.2375C57.4905 84.6507 57.6786 85.0414 58.0016 85.2991L59.159 86.2225C59.319 86.3502 59.3404 86.5855 59.206 86.74C59.0794 86.8854 58.8608 86.9052 58.7102 86.785L58.1174 86.3121C57.8645 86.1103 57.4905 86.2904 57.4905 86.6139C57.4905 86.8271 57.3176 87 57.1044 87H56.8956C56.6823 87 56.5095 86.8271 56.5095 86.6139C56.5095 86.2904 56.1355 86.1103 55.8826 86.3121L55.2898 86.785C55.1392 86.9052 54.9206 86.8854 54.794 86.74C54.6596 86.5855 54.681 86.3502 54.841 86.2225L55.9984 85.2991C56.3214 85.0414 56.5095 84.6507 56.5095 84.2375V84.1987C56.5095 83.1652 55.3862 82.5231 54.4956 83.0476C54.1458 83.2537 53.9087 83.6076 53.8512 84.0095L53.6355 85.5171C53.6064 85.7201 53.4124 85.8568 53.2115 85.8157C53.0268 85.778 52.9034 85.6028 52.9301 85.4162L53.0443 84.6178C53.0894 84.3029 52.7502 84.0756 52.4761 84.2371C52.2933 84.3448 52.0577 84.2817 51.9532 84.097L51.8471 83.9096C51.7418 83.7234 51.8051 83.4872 51.9894 83.3787C52.2691 83.2139 52.2388 82.7999 51.938 82.6777L51.2263 82.3886C51.0493 82.3167 50.9584 82.1199 51.0185 81.9385C51.0844 81.7394 51.305 81.6375 51.4994 81.7165L52.8368 82.2598C53.2293 82.4193 53.6737 82.3867 54.0387 82.1717C54.9316 81.6458 54.9316 80.3543 54.0387 79.8284C53.6737 79.6134 53.2293 79.5808 52.8368 79.7402L51.4994 80.2836C51.305 80.3625 51.0844 80.2607 51.0185 80.0615C50.9584 79.8802 51.0493 79.6833 51.2263 79.6114L51.938 79.3223C52.2388 79.2001 52.2691 78.7861 51.9894 78.6213C51.8051 78.5128 51.7418 78.2766 51.8471 78.0905L51.9532 77.903C52.0577 77.7184 52.2933 77.6553 52.4761 77.763C52.7502 77.9244 53.0894 77.6971 53.0443 77.3822L52.9301 76.5838C52.9034 76.3972 53.0268 76.2221 53.2115 76.1843C53.4124 76.1433 53.6064 76.2799 53.6355 76.4829L53.8512 77.9905C53.9087 78.3924 54.1458 78.7464 54.4956 78.9524C55.3862 79.4769 56.5095 78.8349 56.5095 77.8013V77.7625C56.5095 77.3493 56.3214 76.9586 55.9984 76.7009L54.841 75.7775Z" fill="url(#paint3_linear_407_773)"/>
<path d="M55.9984 76.7009L55.6242 77.1699L55.9984 76.7009ZM53.8512 77.9905L53.2572 78.0755L53.8512 77.9905ZM53.0443 77.3822L53.6383 77.2972L53.0443 77.3822ZM51.9532 77.903L51.4311 77.6075L51.9532 77.903ZM51.8471 78.0905L51.325 77.795L51.8471 78.0905ZM51.938 79.3223L51.7121 78.7664L51.938 79.3223ZM51.2263 79.6114L51.4521 80.1673L51.2263 79.6114ZM51.4994 80.2836L51.7252 80.8395L51.4994 80.2836ZM52.8368 79.7402L52.611 79.1843L52.8368 79.7402ZM52.8368 82.2598L53.0627 81.7039L52.8368 82.2598ZM51.4994 81.7165L51.2735 82.2724L51.4994 81.7165ZM51.2263 82.3886L51.0005 82.9445L51.2263 82.3886ZM51.938 82.6777L51.7121 83.2336L51.938 82.6777ZM51.8471 83.9096L52.3693 83.614L51.8471 83.9096ZM51.9532 84.097L51.4311 84.3925L51.9532 84.097ZM53.0443 84.6178L53.6383 84.7028L53.0443 84.6178ZM52.9301 85.4162L52.3362 85.3312L52.9301 85.4162ZM53.6355 85.5171L53.0415 85.4321L53.6355 85.5171ZM55.9984 85.2991L56.3726 85.7681L55.9984 85.2991ZM54.841 86.2225L55.2152 86.6915L54.841 86.2225ZM55.2898 86.785L55.664 87.254L55.2898 86.785ZM55.8826 86.3121L56.2568 86.7811L55.8826 86.3121ZM58.1174 86.3121L57.7432 86.7811L58.1174 86.3121ZM58.7102 86.785L58.336 87.254L58.7102 86.785ZM59.159 86.2225L58.7848 86.6915L59.159 86.2225ZM60.1491 84.0096L60.743 83.9246L60.1491 84.0096ZM60.3648 85.5171L60.9587 85.4321L60.3648 85.5171ZM61.0701 85.4162L60.4762 85.5012L61.0701 85.4162ZM62.047 84.097L61.5249 83.8015L62.047 84.097ZM62.1531 83.9096L62.6753 84.2051L62.1531 83.9096ZM62.0623 82.6777L61.8365 82.1219L62.0623 82.6777ZM62.774 82.3886L62.9998 82.9445L62.774 82.3886ZM62.5009 81.7165L62.2751 81.1606L62.5009 81.7165ZM61.1634 82.2598L60.9376 81.7039L61.1634 82.2598ZM61.1634 79.7402L60.9376 80.2961L61.1634 79.7402ZM62.5009 80.2836L62.7267 79.7277L62.5009 80.2836ZM62.774 79.6114L62.9998 79.0555L62.774 79.6114ZM62.0623 79.3223L61.8365 79.8782L62.0623 79.3223ZM62.1531 78.0905L62.6753 77.795L62.1531 78.0905ZM62.047 77.903L61.5249 78.1986L62.047 77.903ZM60.9559 77.3822L60.362 77.2972L60.9559 77.3822ZM61.0701 76.5838L61.6641 76.6688L61.0701 76.5838ZM60.3648 76.4829L60.9587 76.5679L60.3648 76.4829ZM60.1491 77.9905L59.5551 77.9055L60.1491 77.9905ZM59.159 75.7775L59.5332 76.2465L59.159 75.7775ZM58.7102 75.215L58.336 74.746L58.7102 75.215ZM58.1174 75.6879L58.4916 76.1569L58.1174 75.6879ZM55.8826 75.6879L56.2568 75.2189L55.8826 75.6879ZM55.2898 75.215L55.664 74.746L55.2898 75.215ZM56.2568 75.2189L55.664 74.746L54.9156 75.684L55.5084 76.1569L56.2568 75.2189ZM57.1044 74.4H56.8956V75.6H57.1044V74.4ZM58.336 74.746L57.7432 75.2189L58.4916 76.1569L59.0844 75.684L58.336 74.746ZM58.3758 77.1699L59.5332 76.2465L58.7848 75.3085L57.6274 76.2318L58.3758 77.1699ZM58.0905 77.8013V77.7625H56.8905V77.8013H58.0905ZM59.7708 76.398L59.5551 77.9055L60.7431 78.0754L60.9587 76.5679L59.7708 76.398ZM61.5499 77.4672L61.6641 76.6688L60.4762 76.4989L60.362 77.2972L61.5499 77.4672ZM62.6753 77.795L62.5692 77.6075L61.5249 78.1986L61.631 78.386L62.6753 77.795ZM62.9998 79.0555L62.2881 78.7664L61.8365 79.8782L62.5481 80.1673L62.9998 79.0555ZM60.9376 80.2961L62.2751 80.8395L62.7267 79.7277L61.3892 79.1843L60.9376 80.2961ZM61.3892 82.8157L62.7267 82.2724L62.2751 81.1606L60.9376 81.7039L61.3892 82.8157ZM62.5481 81.8328L61.8365 82.1219L62.2881 83.2336L62.9998 82.9445L62.5481 81.8328ZM61.631 83.614L61.5249 83.8015L62.5692 84.3925L62.6753 84.2051L61.631 83.614ZM60.362 84.7028L60.4762 85.5012L61.6641 85.3312L61.5499 84.5329L60.362 84.7028ZM60.9587 85.4321L60.743 83.9246L59.5551 84.0946L59.7708 85.6021L60.9587 85.4321ZM58.0905 84.2375V84.1988H56.8905V84.2375H58.0905ZM59.5332 85.7535L58.3758 84.8301L57.6274 85.7681L58.7848 86.6915L59.5332 85.7535ZM57.7432 86.7811L58.336 87.254L59.0844 86.316L58.4916 85.8431L57.7432 86.7811ZM56.8956 87.6H57.1044V86.4H56.8956V87.6ZM55.664 87.254L56.2568 86.7811L55.5084 85.8431L54.9156 86.316L55.664 87.254ZM55.6242 84.8301L54.4668 85.7535L55.2152 86.6915L56.3726 85.7681L55.6242 84.8301ZM55.9095 84.1987V84.2375H57.1095V84.1987H55.9095ZM54.2294 85.6021L54.4451 84.0945L53.2572 83.9245L53.0415 85.4321L54.2294 85.6021ZM52.4504 84.5329L52.3362 85.3312L53.5241 85.5012L53.6383 84.7028L52.4504 84.5329ZM51.325 84.2051L51.4311 84.3925L52.4754 83.8015L52.3693 83.614L51.325 84.2051ZM51.0005 82.9445L51.7121 83.2336L52.1638 82.1219L51.4521 81.8328L51.0005 82.9445ZM53.0627 81.7039L51.7252 81.1606L51.2735 82.2724L52.611 82.8157L53.0627 81.7039ZM52.611 79.1843L51.2735 79.7277L51.7252 80.8395L53.0627 80.2961L52.611 79.1843ZM51.4521 80.1673L52.1638 79.8782L51.7121 78.7664L51.0005 79.0555L51.4521 80.1673ZM52.3693 78.386L52.4754 78.1986L51.4311 77.6075L51.325 77.795L52.3693 78.386ZM53.6383 77.2972L53.5241 76.4989L52.3362 76.6688L52.4504 77.4672L53.6383 77.2972ZM53.0415 76.5679L53.2572 78.0755L54.4451 77.9056L54.2294 76.398L53.0415 76.5679ZM55.9095 77.7625V77.8013H57.1095V77.7625H55.9095ZM54.4668 76.2465L55.6242 77.1699L56.3726 76.2319L55.2152 75.3085L54.4668 76.2465ZM57.1095 77.7625C57.1095 77.1668 56.8383 76.6034 56.3726 76.2319L55.6242 77.1699C55.8045 77.3138 55.9095 77.5319 55.9095 77.7625H57.1095ZM54.1911 79.4694C55.4817 80.2295 57.1095 79.2991 57.1095 77.8013H55.9095C55.9095 78.3707 55.2907 78.7244 54.8001 78.4354L54.1911 79.4694ZM53.2572 78.0755C53.3405 78.6579 53.6842 79.1708 54.1911 79.4694L54.8001 78.4354C54.6074 78.3219 54.4768 78.127 54.4451 77.9056L53.2572 78.0755ZM53.3316 76.7722C53.1941 76.8003 53.0614 76.7068 53.0415 76.5679L54.2294 76.398C54.1515 75.853 53.6307 75.4863 53.0914 75.5965L53.3316 76.7722ZM53.5241 76.4989C53.5423 76.6266 53.458 76.7464 53.3316 76.7722L53.0914 75.5965C52.5955 75.6978 52.2645 76.1679 52.3362 76.6688L53.5241 76.4989ZM52.1716 78.2799C52.8791 78.6967 53.7546 78.1101 53.6383 77.2972L52.4504 77.4672C52.4242 77.2842 52.6213 77.1521 52.7806 77.246L52.1716 78.2799ZM52.4754 78.1986C52.4147 78.3058 52.2778 78.3425 52.1716 78.2799L52.7806 77.246C52.3088 76.9681 51.7008 77.131 51.4311 77.6075L52.4754 78.1986ZM52.2938 78.1044C52.3916 78.1619 52.4252 78.2873 52.3693 78.386L51.325 77.795C51.0584 78.266 51.2185 78.8637 51.6849 79.1383L52.2938 78.1044ZM52.1638 79.8782C52.925 79.5689 53.0018 78.5213 52.2938 78.1044L51.6849 79.1383C51.5364 79.0509 51.5525 78.8313 51.7121 78.7664L52.1638 79.8782ZM51.5881 79.8729C51.6273 79.9915 51.5679 80.1203 51.4521 80.1673L51.0005 79.0555C50.5307 79.2464 50.2895 79.7688 50.4489 80.2501L51.5881 79.8729ZM51.2735 79.7277C51.4006 79.6761 51.5449 79.7427 51.5881 79.8729L50.4489 80.2501C50.6239 80.7786 51.2094 81.049 51.7252 80.8395L51.2735 79.7277ZM54.3432 79.3114C53.8171 79.0015 53.1767 78.9546 52.611 79.1843L53.0627 80.2961C53.282 80.207 53.5302 80.2252 53.7342 80.3454L54.3432 79.3114ZM54.3432 82.6887C55.6301 81.9307 55.6301 80.0693 54.3432 79.3114L53.7342 80.3454C54.2331 80.6392 54.2331 81.3608 53.7342 81.6547L54.3432 82.6887ZM52.611 82.8157C53.1767 83.0455 53.8171 82.9985 54.3432 82.6887L53.7342 81.6547C53.5302 81.7748 53.282 81.793 53.0627 81.7039L52.611 82.8157ZM51.5881 82.1271C51.5449 82.2574 51.4006 82.324 51.2735 82.2724L51.7252 81.1606C51.2094 80.951 50.6239 81.2214 50.4489 81.7499L51.5881 82.1271ZM51.4521 81.8328C51.5679 81.8798 51.6273 82.0085 51.5881 82.1271L50.4489 81.7499C50.2895 82.2313 50.5307 82.7537 51.0005 82.9445L51.4521 81.8328ZM52.2938 83.8957C53.0018 83.4787 52.925 82.4311 52.1638 82.1219L51.7121 83.2336C51.5525 83.1688 51.5364 82.9491 51.6849 82.8617L52.2938 83.8957ZM52.3693 83.614C52.4252 83.7128 52.3916 83.8381 52.2938 83.8957L51.6849 82.8617C51.2185 83.1364 51.0584 83.7341 51.325 84.2051L52.3693 83.614ZM52.1716 83.7201C52.2778 83.6575 52.4147 83.6942 52.4754 83.8015L51.4311 84.3925C51.7008 84.8691 52.3088 85.032 52.7806 84.7541L52.1716 83.7201ZM53.6383 84.7028C53.7546 83.8899 52.8791 83.3034 52.1716 83.7201L52.7806 84.7541C52.6213 84.8479 52.4242 84.7159 52.4504 84.5329L53.6383 84.7028ZM53.3316 85.2279C53.458 85.2537 53.5423 85.3735 53.5241 85.5012L52.3362 85.3312C52.2645 85.8322 52.5955 86.3023 53.0914 86.4036L53.3316 85.2279ZM53.0415 85.4321C53.0614 85.2933 53.1941 85.1998 53.3316 85.2279L53.0914 86.4036C53.6307 86.5138 54.1515 86.147 54.2294 85.6021L53.0415 85.4321ZM54.1911 82.5306C53.6842 82.8292 53.3405 83.3421 53.2572 83.9245L54.4451 84.0945C54.4768 83.8731 54.6074 83.6781 54.8001 83.5646L54.1911 82.5306ZM57.1095 84.1987C57.1095 82.701 55.4817 81.7706 54.1911 82.5306L54.8001 83.5646C55.2907 83.2757 55.9095 83.6294 55.9095 84.1987H57.1095ZM56.3726 85.7681C56.8383 85.3966 57.1095 84.8333 57.1095 84.2375H55.9095C55.9095 84.4681 55.8045 84.6862 55.6242 84.8301L56.3726 85.7681ZM55.2466 86.346C55.3363 86.4491 55.3221 86.6063 55.2152 86.6915L54.4668 85.7535C54.0399 86.0941 53.9828 86.7219 54.3415 87.1339L55.2466 86.346ZM54.9156 86.316C55.0162 86.2358 55.1621 86.249 55.2466 86.346L54.3415 87.1339C54.679 87.5217 55.2621 87.5747 55.664 87.254L54.9156 86.316ZM57.1095 86.6139C57.1095 85.7877 56.1543 85.3278 55.5084 85.8431L56.2568 86.7811C56.1167 86.8929 55.9095 86.7931 55.9095 86.6139H57.1095ZM56.8956 86.4C57.0137 86.4 57.1095 86.4958 57.1095 86.6139H55.9095C55.9095 87.1585 56.351 87.6 56.8956 87.6V86.4ZM56.8905 86.6139C56.8905 86.4958 56.9863 86.4 57.1044 86.4V87.6C57.649 87.6 58.0905 87.1585 58.0905 86.6139H56.8905ZM58.4916 85.8431C57.8457 85.3278 56.8905 85.7877 56.8905 86.6139H58.0905C58.0905 86.7931 57.8833 86.8929 57.7432 86.7811L58.4916 85.8431ZM58.7534 86.346C58.8379 86.249 58.9838 86.2358 59.0844 86.316L58.336 87.254C58.7378 87.5747 59.321 87.5217 59.6585 87.1339L58.7534 86.346ZM58.7848 86.6915C58.6779 86.6063 58.6637 86.4491 58.7534 86.346L59.6585 87.1339C60.0172 86.7219 59.9601 86.0941 59.5332 85.7535L58.7848 86.6915ZM56.8905 84.2375C56.8905 84.8332 57.1617 85.3966 57.6274 85.7681L58.3758 84.8301C58.1955 84.6863 58.0905 84.4681 58.0905 84.2375H56.8905ZM59.8091 82.5306C58.5184 81.7705 56.8905 82.701 56.8905 84.1988H58.0905C58.0905 83.6294 58.7094 83.2756 59.2001 83.5646L59.8091 82.5306ZM60.743 83.9246C60.6597 83.3422 60.316 82.8292 59.8091 82.5306L59.2001 83.5646C59.3928 83.6781 59.5235 83.8731 59.5551 84.0946L60.743 83.9246ZM60.6687 85.2279C60.8061 85.1998 60.9389 85.2933 60.9587 85.4321L59.7708 85.6021C59.8488 86.147 60.3696 86.5138 60.9089 86.4036L60.6687 85.2279ZM60.4762 85.5012C60.4579 85.3735 60.5423 85.2537 60.6687 85.2279L60.9089 86.4036C61.4047 86.3023 61.7358 85.8322 61.6641 85.3312L60.4762 85.5012ZM61.8287 83.7201C61.1211 83.3034 60.2457 83.8899 60.362 84.7028L61.5499 84.5329C61.5761 84.7159 61.379 84.8479 61.2197 84.7541L61.8287 83.7201ZM61.5249 83.8015C61.5856 83.6942 61.7224 83.6575 61.8287 83.7201L61.2197 84.7541C61.6915 85.032 62.2995 84.8691 62.5692 84.3925L61.5249 83.8015ZM61.7064 83.8957C61.6086 83.8381 61.5751 83.7128 61.631 83.614L62.6753 84.2051C62.9419 83.7341 62.7817 83.1364 62.3154 82.8617L61.7064 83.8957ZM61.8365 82.1219C61.0753 82.4311 60.9984 83.4787 61.7064 83.8957L62.3154 82.8617C62.4638 82.9491 62.4477 83.1688 62.2881 83.2336L61.8365 82.1219ZM62.4122 82.1271C62.3729 82.0085 62.4324 81.8798 62.5481 81.8328L62.9998 82.9445C63.4695 82.7537 63.7108 82.2313 63.5514 81.7499L62.4122 82.1271ZM62.7267 82.2724C62.5996 82.324 62.4553 82.2574 62.4122 82.1271L63.5514 81.7499C63.3764 81.2214 62.7909 80.951 62.2751 81.1606L62.7267 82.2724ZM59.6571 82.6887C60.1831 82.9985 60.8236 83.0455 61.3892 82.8157L60.9376 81.7039C60.7183 81.793 60.47 81.7748 60.2661 81.6547L59.6571 82.6887ZM59.6571 79.3114C58.3701 80.0693 58.3701 81.9307 59.6571 82.6887L60.2661 81.6547C59.7671 81.3608 59.7671 80.6392 60.2661 80.3454L59.6571 79.3114ZM61.3892 79.1843C60.8236 78.9546 60.1831 79.0015 59.6571 79.3114L60.2661 80.3454C60.47 80.2252 60.7183 80.207 60.9376 80.2961L61.3892 79.1843ZM62.4122 79.8729C62.4553 79.7427 62.5996 79.6761 62.7267 79.7277L62.2751 80.8395C62.7909 81.049 63.3764 80.7786 63.5514 80.2501L62.4122 79.8729ZM62.5481 80.1673C62.4324 80.1203 62.3729 79.9915 62.4122 79.8729L63.5514 80.2501C63.7108 79.7688 63.4695 79.2464 62.9998 79.0555L62.5481 80.1673ZM61.7064 78.1044C60.9984 78.5213 61.0753 79.5689 61.8365 79.8782L62.2881 78.7664C62.4477 78.8313 62.4638 79.0509 62.3154 79.1383L61.7064 78.1044ZM61.631 78.386C61.5751 78.2873 61.6086 78.1619 61.7064 78.1044L62.3154 79.1383C62.7817 78.8637 62.9419 78.266 62.6753 77.795L61.631 78.386ZM61.8287 78.2799C61.7224 78.3425 61.5856 78.3058 61.5249 78.1986L62.5692 77.6075C62.2995 77.131 61.6915 76.9681 61.2197 77.246L61.8287 78.2799ZM60.362 77.2972C60.2457 78.1101 61.1211 78.6967 61.8287 78.2799L61.2197 77.246C61.379 77.1521 61.5761 77.2842 61.5499 77.4672L60.362 77.2972ZM60.6687 76.7722C60.5423 76.7464 60.4579 76.6266 60.4762 76.4989L61.6641 76.6688C61.7358 76.1679 61.4047 75.6978 60.9089 75.5965L60.6687 76.7722ZM60.9587 76.5679C60.9389 76.7068 60.8061 76.8003 60.6687 76.7722L60.9089 75.5965C60.3696 75.4863 59.8488 75.853 59.7708 76.398L60.9587 76.5679ZM59.8091 79.4694C60.316 79.1708 60.6597 78.6579 60.7431 78.0754L59.5551 77.9055C59.5235 78.1269 59.3928 78.3219 59.2001 78.4355L59.8091 79.4694ZM56.8905 77.8013C56.8905 79.2991 58.5184 80.2296 59.8091 79.4694L59.2001 78.4355C58.7094 78.7244 58.0905 78.3707 58.0905 77.8013H56.8905ZM57.6274 76.2318C57.1617 76.6034 56.8905 77.1668 56.8905 77.7625H58.0905C58.0905 77.5319 58.1955 77.3137 58.3758 77.1699L57.6274 76.2318ZM58.7534 75.654C58.6637 75.5508 58.6779 75.3937 58.7848 75.3085L59.5332 76.2465C59.9601 75.9059 60.0172 75.2781 59.6585 74.8661L58.7534 75.654ZM59.0844 75.684C58.9838 75.7642 58.8379 75.751 58.7534 75.654L59.6585 74.8661C59.321 74.4783 58.7378 74.4253 58.336 74.746L59.0844 75.684ZM56.8905 75.3861C56.8905 76.2123 57.8457 76.6722 58.4916 76.1569L57.7432 75.2189C57.8833 75.1071 58.0905 75.2069 58.0905 75.3861H56.8905ZM57.1044 75.6C56.9863 75.6 56.8905 75.5042 56.8905 75.3861H58.0905C58.0905 74.8415 57.649 74.4 57.1044 74.4V75.6ZM57.1095 75.3861C57.1095 75.5042 57.0137 75.6 56.8956 75.6V74.4C56.351 74.4 55.9095 74.8415 55.9095 75.3861H57.1095ZM55.5084 76.1569C56.1543 76.6722 57.1095 76.2123 57.1095 75.3861H55.9095C55.9095 75.2069 56.1167 75.1071 56.2568 75.2189L55.5084 76.1569ZM54.3415 74.8661C53.9828 75.2781 54.0399 75.9059 54.4668 76.2465L55.2152 75.3085C55.3221 75.3937 55.3363 75.5509 55.2466 75.654L54.3415 74.8661ZM55.2466 75.654C55.1621 75.751 55.0162 75.7642 54.9156 75.684L55.664 74.746C55.2621 74.4253 54.679 74.4783 54.3415 74.8661L55.2466 75.654Z" fill="#36426F" fill-opacity="0.15" mask="url(#path-9-outside-1_407_773)"/>
<defs>
<linearGradient id="paint0_linear_407_773" x1="24.9829" y1="19.4344" x2="46.282" y2="45.2882" gradientUnits="userSpaceOnUse">
<stop offset="0.10284" stop-color="#9BA4B9"/>
<stop offset="0.859806" stop-color="#A9B4C4"/>
</linearGradient>
<linearGradient id="paint1_linear_407_773" x1="40.5306" y1="40.3333" x2="64.3961" y2="58.1919" gradientUnits="userSpaceOnUse">
<stop offset="0.183865" stop-color="#ECECEC"/>
<stop offset="1" stop-color="#C4C4C4"/>
</linearGradient>
<linearGradient id="paint2_linear_407_773" x1="43" y1="75" x2="48.1933" y2="83.5861" gradientUnits="userSpaceOnUse">
<stop offset="0.085" stop-color="#C2D8E5"/>
<stop offset="1" stop-color="#8FCCED"/>
</linearGradient>
<linearGradient id="paint3_linear_407_773" x1="56.4547" y1="78.1579" x2="62.4732" y2="83.0495" gradientUnits="userSpaceOnUse">
<stop offset="0.183865" stop-color="#F5FCFF"/>
<stop offset="1" stop-color="#E0E9F4"/>
</linearGradient>
</defs>
</svg>
