<svg width="100" height="100" viewBox="0 0 100 100" fill="none" xmlns="http://www.w3.org/2000/svg">
<path fill-rule="evenodd" clip-rule="evenodd" d="M82 44C82 56.1503 72.3513 66 60.449 66H33.0204V65.9964C32.9119 65.9988 32.803 66 32.6939 66C24.5787 66 18 59.2843 18 51C18 42.7157 24.5787 36 32.6939 36C35.2526 36 37.6586 36.6676 39.7537 37.8416C42.3629 28.6887 50.6408 22 60.449 22C72.3513 22 82 31.8497 82 44Z" fill="url(#paint0_linear_407_636)"/>
<path d="M33.0204 66H31.0204V68H33.0204V66ZM33.0204 65.9964H35.0204V63.9514L32.9759 63.9969L33.0204 65.9964ZM39.7537 37.8416L38.7761 39.5863L40.9834 40.8231L41.6771 38.3899L39.7537 37.8416ZM60.449 68C73.4945 68 84 57.2158 84 44H80C80 55.0848 71.208 64 60.449 64V68ZM60.449 64H33.0204V68H60.449V64ZM35.0204 66V65.9964H31.0204V66H35.0204ZM32.6939 68C32.8179 68 32.9415 67.9986 33.0649 67.9959L32.9759 63.9969C32.8822 63.9989 32.7881 64 32.6939 64V68ZM16 51C16 60.3498 23.4354 68 32.6939 68V64C25.7219 64 20 58.2188 20 51H16ZM32.6939 34C23.4354 34 16 41.6502 16 51H20C20 43.7812 25.7219 38 32.6939 38V34ZM40.7313 36.0968C38.3466 34.7606 35.6052 34 32.6939 34V38C34.9 38 36.9705 38.5747 38.7761 39.5863L40.7313 36.0968ZM60.449 20C49.6997 20 40.6712 27.3279 37.8303 37.2933L41.6771 38.3899C44.0547 30.0494 51.5818 24 60.449 24V20ZM84 44C84 30.7842 73.4945 20 60.449 20V24C71.208 24 80 32.9152 80 44H84Z" fill="black" fill-opacity="0.14"/>
<path fill-rule="evenodd" clip-rule="evenodd" d="M46.8571 76.8947C46.8571 75.8483 46.0088 75 44.9624 75H30.2105C28.9897 75 28 75.9897 28 77.2105V77.2105C28 78.4314 28.9897 79.4211 30.2105 79.4211H39.3055C40.3519 79.4211 41.2002 80.2694 41.2002 81.3158V81.3158C41.2002 82.3622 42.0485 83.2105 43.0949 83.2105L49.9912 83.2105C51.0376 83.2105 51.8859 84.0588 51.8859 85.1053V85.1053C51.8859 86.1517 52.7342 87 53.7807 87L69.7897 87C71.0105 87 72.0002 86.0103 72.0002 84.7895V84.7895C72.0002 83.5686 71.0105 82.5789 69.7897 82.5789L60.0664 82.5789C59.0199 82.5789 58.1716 81.7261 58.1716 80.6797V80.6797C58.1716 79.6382 57.3274 78.7895 56.2859 78.7895V78.7895C55.2445 78.7895 54.4002 77.9407 54.4002 76.8993V76.8993C54.4002 75.8528 53.5519 75 52.5055 75H51.8949C50.8485 75 50.0002 75.8483 50.0002 76.8947V77.2179C50.0002 78.0859 49.2966 78.7895 48.4287 78.7895V78.7895C47.5607 78.7895 46.8571 78.0859 46.8571 77.2179V76.8947ZM58.8002 77.2105C58.8002 75.9897 59.7899 75 61.0107 75H69.7897C71.0105 75 72.0002 75.9897 72.0002 77.2105V77.2105C72.0002 78.4314 71.0105 79.4211 69.7897 79.4211H61.0107C59.7899 79.4211 58.8002 78.4314 58.8002 77.2105V77.2105ZM40.5716 84.7895C40.5716 86.0103 39.5819 87 38.3611 87L30.2107 87C28.9899 87 28.0002 86.0103 28.0002 84.7895V84.7895C28.0002 83.5686 28.9899 82.5789 30.2107 82.5789L38.3611 82.5789C39.5819 82.5789 40.5716 83.5686 40.5716 84.7895V84.7895Z" fill="url(#paint1_linear_407_636)"/>
<path d="M38.3611 82.5789L38.3611 83.5789L38.3611 82.5789ZM30.2107 87L30.2107 88L30.2107 87ZM69.7897 87L69.7897 88L69.7897 87ZM49.9912 83.2105L49.9912 84.2105L49.9912 83.2105ZM30.2105 76H44.9624V74H30.2105V76ZM39.3055 78.4211H30.2105V80.4211H39.3055V78.4211ZM49.9912 82.2105L43.0949 82.2105L43.0949 84.2105L49.9912 84.2105L49.9912 82.2105ZM69.7897 86L53.7807 86L53.7807 88L69.7897 88L69.7897 86ZM60.0664 83.5789L69.7897 83.5789L69.7897 81.5789L60.0664 81.5789L60.0664 83.5789ZM51.8949 76H52.5055V74H51.8949V76ZM51.0002 77.2179V76.8947H49.0002V77.2179H51.0002ZM45.8571 76.8947V77.2179H47.8571V76.8947H45.8571ZM69.7897 74H61.0107V76H69.7897V74ZM61.0107 80.4211H69.7897V78.4211H61.0107V80.4211ZM30.2107 88L38.3611 88L38.3611 86L30.2107 86L30.2107 88ZM38.3611 81.5789L30.2107 81.5789L30.2107 83.5789L38.3611 83.5789L38.3611 81.5789ZM38.3611 83.5789C39.0297 83.5789 39.5716 84.1209 39.5716 84.7895H41.5716C41.5716 83.0163 40.1342 81.5789 38.3611 81.5789L38.3611 83.5789ZM29.0002 84.7895C29.0002 84.1209 29.5422 83.5789 30.2107 83.5789L30.2107 81.5789C28.4376 81.5789 27.0002 83.0164 27.0002 84.7895L29.0002 84.7895ZM38.3611 88C40.1342 88 41.5716 86.5626 41.5716 84.7895H39.5716C39.5716 85.458 39.0297 86 38.3611 86L38.3611 88ZM30.2107 86C29.5422 86 29.0002 85.458 29.0002 84.7895L27.0002 84.7895C27.0002 86.5626 28.4376 88 30.2107 88L30.2107 86ZM61.0107 78.4211C60.3422 78.4211 59.8002 77.8791 59.8002 77.2105H57.8002C57.8002 78.9837 59.2376 80.4211 61.0107 80.4211V78.4211ZM71.0002 77.2105C71.0002 77.8791 70.4582 78.4211 69.7897 78.4211V80.4211C71.5628 80.4211 73.0002 78.9836 73.0002 77.2105H71.0002ZM61.0107 74C59.2376 74 57.8002 75.4374 57.8002 77.2105H59.8002C59.8002 76.542 60.3422 76 61.0107 76V74ZM69.7897 76C70.4582 76 71.0002 76.542 71.0002 77.2105H73.0002C73.0002 75.4374 71.5628 74 69.7897 74V76ZM48.4287 77.7895C48.113 77.7895 47.8571 77.5336 47.8571 77.2179H45.8571C45.8571 78.6382 47.0085 79.7895 48.4287 79.7895L48.4287 77.7895ZM49.0002 77.2179C49.0002 77.5336 48.7443 77.7895 48.4287 77.7895L48.4287 79.7895C49.8489 79.7895 51.0002 78.6382 51.0002 77.2179H49.0002ZM51.8949 74C50.2962 74 49.0002 75.296 49.0002 76.8947H51.0002C51.0002 76.4006 51.4008 76 51.8949 76V74ZM55.4002 76.8993C55.4002 75.3036 54.1073 74 52.5055 74V76C52.9965 76 53.4002 76.402 53.4002 76.8993H55.4002ZM56.2859 77.7895C55.7999 77.7895 55.4002 77.3915 55.4002 76.8993H53.4002C53.4002 78.4899 54.6891 79.7895 56.2859 79.7895L56.2859 77.7895ZM59.1716 80.6797C59.1716 79.0891 57.8828 77.7895 56.2859 77.7895L56.2859 79.7895C56.772 79.7895 57.1716 80.1874 57.1716 80.6797H59.1716ZM60.0664 81.5789C59.5753 81.5789 59.1716 81.1769 59.1716 80.6797H57.1716C57.1716 82.2753 58.4646 83.5789 60.0664 83.5789L60.0664 81.5789ZM73.0002 84.7895C73.0002 83.0164 71.5628 81.5789 69.7897 81.5789L69.7897 83.5789C70.4582 83.5789 71.0002 84.1209 71.0002 84.7895H73.0002ZM69.7897 88C71.5628 88 73.0002 86.5626 73.0002 84.7895H71.0002C71.0002 85.458 70.4582 86 69.7897 86L69.7897 88ZM50.8859 85.1053C50.8859 86.704 52.1819 88 53.7807 88L53.7807 86C53.2865 86 52.8859 85.5994 52.8859 85.1053H50.8859ZM49.9912 84.2105C50.4853 84.2105 50.8859 84.6111 50.8859 85.1053H52.8859C52.8859 83.5065 51.5899 82.2105 49.9912 82.2105L49.9912 84.2105ZM40.2002 81.3158C40.2002 82.9145 41.4962 84.2105 43.0949 84.2105L43.0949 82.2105C42.6008 82.2105 42.2002 81.8099 42.2002 81.3158H40.2002ZM39.3055 80.4211C39.7996 80.4211 40.2002 80.8216 40.2002 81.3158H42.2002C42.2002 79.7171 40.9042 78.4211 39.3055 78.4211V80.4211ZM27 77.2105C27 78.9837 28.4374 80.4211 30.2105 80.4211V78.4211C29.542 78.4211 29 77.8791 29 77.2105H27ZM44.9624 76C45.4566 76 45.8571 76.4006 45.8571 76.8947H47.8571C47.8571 75.296 46.5611 74 44.9624 74V76ZM30.2105 74C28.4374 74 27 75.4374 27 77.2105H29C29 76.542 29.542 76 30.2105 76V74Z" fill="black" fill-opacity="0.05"/>
<defs>
<linearGradient id="paint0_linear_407_636" x1="40.5306" y1="38.3333" x2="64.3961" y2="56.1919" gradientUnits="userSpaceOnUse">
<stop offset="0.183865" stop-color="#AEADAD"/>
<stop offset="1" stop-color="#9D9D9D"/>
</linearGradient>
<linearGradient id="paint1_linear_407_636" x1="43.4898" y1="79.4545" x2="49.1049" y2="90.0464" gradientUnits="userSpaceOnUse">
<stop offset="0.183865" stop-color="#BABABA"/>
<stop offset="1" stop-color="#919090"/>
</linearGradient>
</defs>
</svg>
