<svg width="100" height="100" viewBox="0 0 100 100" fill="none" xmlns="http://www.w3.org/2000/svg">
<path fill-rule="evenodd" clip-rule="evenodd" d="M82 46C82 58.1503 72.3513 68 60.449 68H33.0204V67.9964C32.9119 67.9988 32.803 68 32.6939 68C24.5787 68 18 61.2843 18 53C18 44.7157 24.5787 38 32.6939 38C35.2526 38 37.6586 38.6676 39.7537 39.8416C42.3629 30.6887 50.6408 24 60.449 24C72.3513 24 82 33.8497 82 46Z" fill="url(#paint0_linear_407_637)"/>
<path d="M33.0204 68H31.0204V70H33.0204V68ZM33.0204 67.9964H35.0204V65.9514L32.9759 65.9969L33.0204 67.9964ZM39.7537 39.8416L38.7761 41.5863L40.9834 42.8231L41.6771 40.3899L39.7537 39.8416ZM60.449 70C73.4945 70 84 59.2158 84 46H80C80 57.0848 71.208 66 60.449 66V70ZM60.449 66H33.0204V70H60.449V66ZM35.0204 68V67.9964H31.0204V68H35.0204ZM32.6939 70C32.8179 70 32.9415 69.9986 33.0649 69.9959L32.9759 65.9969C32.8822 65.9989 32.7881 66 32.6939 66V70ZM16 53C16 62.3498 23.4354 70 32.6939 70V66C25.7219 66 20 60.2188 20 53H16ZM32.6939 36C23.4354 36 16 43.6502 16 53H20C20 45.7812 25.7219 40 32.6939 40V36ZM40.7313 38.0968C38.3466 36.7606 35.6052 36 32.6939 36V40C34.9 40 36.9705 40.5747 38.7761 41.5863L40.7313 38.0968ZM60.449 22C49.6997 22 40.6712 29.3279 37.8303 39.2933L41.6771 40.3899C44.0547 32.0494 51.5818 26 60.449 26V22ZM84 46C84 32.7842 73.4945 22 60.449 22V26C71.208 26 80 34.9152 80 46H84Z" fill="black" fill-opacity="0.14"/>
<path fill-rule="evenodd" clip-rule="evenodd" d="M72.6351 75C73.9411 75 74.9999 75.9897 74.9999 77.2105C74.9999 78.4314 73.9411 79.4211 72.6351 79.4211H63.1757C61.8696 79.4211 60.8108 78.4314 60.8108 77.2105C60.8108 75.9897 61.8696 75 63.1757 75H72.6351Z" fill="url(#paint1_linear_407_637)"/>
<path fill-rule="evenodd" clip-rule="evenodd" d="M72.6648 86.9998L55.0673 87C53.9569 86.9902 53.3784 86.1456 53.3784 85.1053C53.3784 84.0588 52.4709 83.2105 51.3514 83.2105H43.919C39.5817 83.2105 43.0091 75 45.946 75C47.0655 75 47.973 75.8483 47.973 76.8947V77.2105C47.973 78.0826 48.7293 78.7895 49.6622 78.7895C50.5951 78.7895 51.3514 78.0826 51.3514 77.2105V76.8947C51.3514 75.8483 52.2589 75 53.3784 75H54.0541C55.1736 75 56.0811 75.8483 56.0811 76.8947C56.0811 77.9412 56.9886 78.7895 58.1081 78.7895C59.2276 78.7895 60.1351 79.6378 60.1351 80.6842C60.1351 81.7306 61.0427 82.5789 62.1622 82.5789L72.6351 82.5789C73.9411 82.5789 74.9999 83.5686 74.9999 84.7895C74.9999 86.001 73.9572 86.985 72.6648 86.9998ZM74.9999 77.2105C74.9999 75.9897 73.9411 75 72.6351 75H63.1757C61.8696 75 60.8108 75.9897 60.8108 77.2105C60.8108 78.4314 61.8696 79.4211 63.1757 79.4211H72.6351C73.9411 79.4211 74.9999 78.4314 74.9999 77.2105Z" fill="url(#paint2_linear_407_637)"/>
<path d="M71.2835 87C71.9591 87 72.6648 86.9998 72.6648 86.9998M72.6648 86.9998L55.0673 87C53.9569 86.9902 53.3784 86.1456 53.3784 85.1053C53.3784 84.0588 52.4709 83.2105 51.3514 83.2105H43.919C39.5817 83.2105 43.0091 75 45.946 75C47.0655 75 47.973 75.8483 47.973 76.8947V77.2105C47.973 78.0826 48.7293 78.7895 49.6622 78.7895C50.5951 78.7895 51.3514 78.0826 51.3514 77.2105V76.8947C51.3514 75.8483 52.2589 75 53.3784 75H54.0541C55.1736 75 56.0811 75.8483 56.0811 76.8947C56.0811 77.9412 56.9886 78.7895 58.1081 78.7895C59.2276 78.7895 60.1351 79.6378 60.1351 80.6842C60.1351 81.7306 61.0427 82.5789 62.1622 82.5789L72.6351 82.5789C73.9411 82.5789 74.9999 83.5686 74.9999 84.7895C74.9999 86.001 73.9572 86.985 72.6648 86.9998ZM72.6351 79.4211H63.1757C61.8696 79.4211 60.8108 78.4314 60.8108 77.2105C60.8108 75.9897 61.8696 75 63.1757 75H72.6351C73.9411 75 74.9999 75.9897 74.9999 77.2105C74.9999 78.4314 73.9411 79.4211 72.6351 79.4211Z" stroke="black" stroke-opacity="0.05" stroke-width="2"/>
<path d="M32.4323 86.0771L25.5716 75.0002L39.293 75.0002L32.4323 86.0771Z" fill="url(#paint3_linear_407_637)" stroke="#2D2C3E" stroke-opacity="0.05" stroke-width="2"/>
<defs>
<linearGradient id="paint0_linear_407_637" x1="40.5306" y1="40.3333" x2="64.3961" y2="58.1919" gradientUnits="userSpaceOnUse">
<stop offset="0.183865" stop-color="#AEADAD"/>
<stop offset="1" stop-color="#9D9D9D"/>
</linearGradient>
<linearGradient id="paint1_linear_407_637" x1="53.3637" y1="79.4545" x2="59.7337" y2="88.5734" gradientUnits="userSpaceOnUse">
<stop offset="0.183865" stop-color="#BABABA"/>
<stop offset="1" stop-color="#919090"/>
</linearGradient>
<linearGradient id="paint2_linear_407_637" x1="53.3637" y1="79.4545" x2="59.7337" y2="88.5734" gradientUnits="userSpaceOnUse">
<stop offset="0.183865" stop-color="#BABABA"/>
<stop offset="1" stop-color="#919090"/>
</linearGradient>
<linearGradient id="paint3_linear_407_637" x1="32.4323" y1="86.0771" x2="28.6532" y2="76.7897" gradientUnits="userSpaceOnUse">
<stop offset="0.085" stop-color="#F0F0F0"/>
<stop offset="1" stop-color="#D5D5D5"/>
</linearGradient>
</defs>
</svg>
