<svg width="100" height="100" viewBox="0 0 100 100" fill="none" xmlns="http://www.w3.org/2000/svg">
<path fill-rule="evenodd" clip-rule="evenodd" d="M82 46C82 58.1503 72.3513 68 60.449 68H33.0204V67.9964C32.9119 67.9988 32.803 68 32.6939 68C24.5787 68 18 61.2843 18 53C18 44.7157 24.5787 38 32.6939 38C35.2526 38 37.6586 38.6676 39.7537 39.8416C42.3629 30.6887 50.6408 24 60.449 24C72.3513 24 82 33.8497 82 46Z" fill="url(#paint0_linear_407_815)"/>
<path d="M33.0204 68H31.0204V70H33.0204V68ZM33.0204 67.9964H35.0204V65.9514L32.9759 65.9969L33.0204 67.9964ZM39.7537 39.8416L38.7761 41.5863L40.9834 42.8231L41.6771 40.3899L39.7537 39.8416ZM60.449 70C73.4945 70 84 59.2158 84 46H80C80 57.0848 71.208 66 60.449 66V70ZM60.449 66H33.0204V70H60.449V66ZM35.0204 68V67.9964H31.0204V68H35.0204ZM32.6939 70C32.8179 70 32.9415 69.9986 33.0649 69.9959L32.9759 65.9969C32.8822 65.9989 32.7881 66 32.6939 66V70ZM16 53C16 62.3498 23.4354 70 32.6939 70V66C25.7219 66 20 60.2188 20 53H16ZM32.6939 36C23.4354 36 16 43.6502 16 53H20C20 45.7812 25.7219 40 32.6939 40V36ZM40.7313 38.0968C38.3466 36.7606 35.6052 36 32.6939 36V40C34.9 40 36.9705 40.5747 38.7761 41.5863L40.7313 38.0968ZM60.449 22C49.6997 22 40.6712 29.3279 37.8303 39.2933L41.6771 40.3899C44.0547 32.0494 51.5818 26 60.449 26V22ZM84 46C84 32.7842 73.4945 22 60.449 22V26C71.208 26 80 34.9152 80 46H84Z" fill="black" fill-opacity="0.07"/>
<path d="M30.9969 75L34.5344 78.5158C35.234 79.2106 35.7105 80.096 35.9037 81.0601C36.0969 82.0241 35.9981 83.0234 35.6197 83.9316C35.2414 84.8398 34.6005 85.6161 33.7782 86.1623C32.9559 86.7085 31.989 87 31 87C30.011 87 29.0441 86.7085 28.2218 86.1623C27.3995 85.6161 26.7586 84.8398 26.3803 83.9316C26.0019 83.0234 25.9031 82.0241 26.0963 81.0601C26.2895 80.096 26.766 79.2106 27.4656 78.5158L30.9969 75Z" fill="url(#paint1_linear_407_815)" stroke="#21204D" stroke-opacity="0.25" stroke-width="2"/>
<path d="M43.9969 75L47.5344 78.5158C48.234 79.2106 48.7105 80.096 48.9037 81.0601C49.0969 82.0241 48.9981 83.0234 48.6197 83.9316C48.2414 84.8398 47.6005 85.6161 46.7782 86.1623C45.9559 86.7085 44.989 87 44 87C43.011 87 42.0441 86.7085 41.2218 86.1623C40.3995 85.6161 39.7586 84.8398 39.3803 83.9316C39.0019 83.0234 38.9031 82.0241 39.0963 81.0601C39.2895 80.096 39.766 79.2106 40.4656 78.5158L43.9969 75Z" fill="url(#paint2_linear_407_815)" stroke="#21204D" stroke-opacity="0.25" stroke-width="2"/>
<path d="M56.9969 75L60.5344 78.5158C61.234 79.2106 61.7105 80.096 61.9037 81.0601C62.0969 82.0241 61.9981 83.0234 61.6197 83.9316C61.2414 84.8398 60.6005 85.6161 59.7782 86.1623C58.9559 86.7085 57.989 87 57 87C56.011 87 55.0441 86.7085 54.2218 86.1623C53.3995 85.6161 52.7586 84.8398 52.3803 83.9316C52.0019 83.0234 51.9031 82.0241 52.0963 81.0601C52.2895 80.096 52.766 79.2106 53.4656 78.5158L56.9969 75Z" fill="url(#paint3_linear_407_815)" stroke="#21204D" stroke-opacity="0.25" stroke-width="2"/>
<path d="M69.9969 75L73.5344 78.5158C74.234 79.2106 74.7105 80.096 74.9037 81.0601C75.0969 82.0241 74.9981 83.0234 74.6197 83.9316C74.2414 84.8398 73.6005 85.6161 72.7782 86.1623C71.9559 86.7085 70.989 87 70 87C69.011 87 68.0441 86.7085 67.2218 86.1623C66.3995 85.6161 65.7586 84.8398 65.3803 83.9316C65.0019 83.0234 64.9031 82.0241 65.0963 81.0601C65.2895 80.096 65.766 79.2106 66.4656 78.5158L69.9969 75Z" fill="url(#paint4_linear_407_815)" stroke="#21204D" stroke-opacity="0.25" stroke-width="2"/>
<defs>
<linearGradient id="paint0_linear_407_815" x1="40.5306" y1="40.3333" x2="64.3961" y2="58.1919" gradientUnits="userSpaceOnUse">
<stop offset="0.183865" stop-color="#ECECEC"/>
<stop offset="1" stop-color="#C4C4C4"/>
</linearGradient>
<linearGradient id="paint1_linear_407_815" x1="31" y1="75" x2="36.1933" y2="83.5861" gradientUnits="userSpaceOnUse">
<stop offset="0.085" stop-color="#C2D8E5"/>
<stop offset="1" stop-color="#8FCCED"/>
</linearGradient>
<linearGradient id="paint2_linear_407_815" x1="44" y1="75" x2="49.1933" y2="83.5861" gradientUnits="userSpaceOnUse">
<stop offset="0.085" stop-color="#C2D8E5"/>
<stop offset="1" stop-color="#8FCCED"/>
</linearGradient>
<linearGradient id="paint3_linear_407_815" x1="57" y1="75" x2="62.1933" y2="83.5861" gradientUnits="userSpaceOnUse">
<stop offset="0.085" stop-color="#C2D8E5"/>
<stop offset="1" stop-color="#8FCCED"/>
</linearGradient>
<linearGradient id="paint4_linear_407_815" x1="70" y1="75" x2="75.1933" y2="83.5861" gradientUnits="userSpaceOnUse">
<stop offset="0.085" stop-color="#C2D8E5"/>
<stop offset="1" stop-color="#8FCCED"/>
</linearGradient>
</defs>
</svg>
