<svg width="100" height="100" viewBox="0 0 100 100" fill="none" xmlns="http://www.w3.org/2000/svg">
<path fill-rule="evenodd" clip-rule="evenodd" d="M82 46C82 58.1503 72.3513 68 60.449 68H33.0204V67.9964C32.9119 67.9988 32.803 68 32.6939 68C24.5787 68 18 61.2843 18 53C18 44.7157 24.5787 38 32.6939 38C35.2526 38 37.6586 38.6676 39.7537 39.8416C42.3629 30.6887 50.6408 24 60.449 24C72.3513 24 82 33.8497 82 46Z" fill="url(#paint0_linear_407_762)"/>
<path d="M33.0204 68H31.0204V70H33.0204V68ZM33.0204 67.9964H35.0204V65.9514L32.9759 65.9969L33.0204 67.9964ZM39.7537 39.8416L38.7761 41.5863L40.9834 42.8231L41.6771 40.3899L39.7537 39.8416ZM60.449 70C73.4945 70 84 59.2158 84 46H80C80 57.0848 71.208 66 60.449 66V70ZM60.449 66H33.0204V70H60.449V66ZM35.0204 68V67.9964H31.0204V68H35.0204ZM32.6939 70C32.8179 70 32.9415 69.9986 33.0649 69.9959L32.9759 65.9969C32.8822 65.9989 32.7881 66 32.6939 66V70ZM16 53C16 62.3498 23.4354 70 32.6939 70V66C25.7219 66 20 60.2188 20 53H16ZM32.6939 36C23.4354 36 16 43.6502 16 53H20C20 45.7812 25.7219 40 32.6939 40V36ZM40.7313 38.0968C38.3466 36.7606 35.6052 36 32.6939 36V40C34.9 40 36.9705 40.5747 38.7761 41.5863L40.7313 38.0968ZM60.449 22C49.6997 22 40.6712 29.3279 37.8303 39.2933L41.6771 40.3899C44.0547 32.0494 51.5818 26 60.449 26V22ZM84 46C84 32.7842 73.4945 22 60.449 22V26C71.208 26 80 34.9152 80 46H84Z" fill="black" fill-opacity="0.07"/>
<path d="M43.9969 76L47.5344 79.5158C48.234 80.2106 48.7105 81.096 48.9037 82.0601C49.0969 83.0241 48.9981 84.0234 48.6197 84.9316C48.2414 85.8398 47.6005 86.6161 46.7782 87.1623C45.9559 87.7085 44.989 88 44 88C43.011 88 42.0441 87.7085 41.2218 87.1623C40.3995 86.6161 39.7586 85.8398 39.3803 84.9316C39.0019 84.0234 38.9031 83.0241 39.0963 82.0601C39.2895 81.096 39.766 80.2106 40.4656 79.5158L43.9969 76Z" fill="url(#paint1_linear_407_762)" stroke="#21204D" stroke-opacity="0.25" stroke-width="2"/>
<path d="M56.9969 76L60.5344 79.5158C61.234 80.2106 61.7105 81.096 61.9037 82.0601C62.0969 83.0241 61.9981 84.0234 61.6197 84.9316C61.2414 85.8398 60.6005 86.6161 59.7782 87.1623C58.9559 87.7085 57.989 88 57 88C56.011 88 55.0441 87.7085 54.2218 87.1623C53.3995 86.6161 52.7586 85.8398 52.3803 84.9316C52.0019 84.0234 51.9031 83.0241 52.0963 82.0601C52.2895 81.096 52.766 80.2106 53.4656 79.5158L56.9969 76Z" fill="url(#paint2_linear_407_762)" stroke="#21204D" stroke-opacity="0.25" stroke-width="2"/>
<defs>
<linearGradient id="paint0_linear_407_762" x1="40.5306" y1="40.3333" x2="64.3961" y2="58.1919" gradientUnits="userSpaceOnUse">
<stop offset="0.183865" stop-color="#ECECEC"/>
<stop offset="1" stop-color="#C4C4C4"/>
</linearGradient>
<linearGradient id="paint1_linear_407_762" x1="44" y1="76" x2="49.1933" y2="84.5861" gradientUnits="userSpaceOnUse">
<stop offset="0.085" stop-color="#C2D8E5"/>
<stop offset="1" stop-color="#8FCCED"/>
</linearGradient>
<linearGradient id="paint2_linear_407_762" x1="57" y1="76" x2="62.1933" y2="84.5861" gradientUnits="userSpaceOnUse">
<stop offset="0.085" stop-color="#C2D8E5"/>
<stop offset="1" stop-color="#8FCCED"/>
</linearGradient>
</defs>
</svg>
