<svg width="100" height="100" viewBox="0 0 100 100" fill="none" xmlns="http://www.w3.org/2000/svg">
<g clip-path="url(#clip0_407_654)">
<path d="M47.5955 12.7537C49.034 11.7488 50.966 11.7488 52.4045 12.7537L54.3949 14.1442C55.295 14.773 56.4148 15.0231 57.5045 14.8387L59.9143 14.431C61.656 14.1364 63.3966 14.9567 64.2471 16.4729L65.4239 18.5707C65.956 19.5194 66.854 20.2202 67.9176 20.5168L70.2695 21.1726C71.9693 21.6466 73.1739 23.1247 73.2679 24.8519L73.3979 27.2416C73.4568 28.3223 73.9551 29.3349 74.7818 30.0537L76.6101 31.6431C77.9314 32.7919 78.3613 34.6351 77.6802 36.2311L76.7378 38.4394C76.3116 39.438 76.3116 40.562 76.7378 41.5606L77.6802 43.7689C78.3613 45.3649 77.9314 47.2081 76.6101 48.3569L74.7818 49.9463C73.9551 50.6651 73.4568 51.6778 73.3979 52.7584L73.2679 55.1481C73.1739 56.8753 71.9693 58.3534 70.2695 58.8274L67.9176 59.4832C66.854 59.7798 65.956 60.4806 65.4239 61.4292L64.2471 63.5271C63.3966 65.0433 61.656 65.8636 59.9143 65.569L57.5045 65.1613C56.4148 64.9769 55.295 65.227 54.3949 65.8558L52.4045 67.2463C50.966 68.2512 49.034 68.2512 47.5955 67.2463L45.6051 65.8558C44.705 65.227 43.5852 64.9769 42.4955 65.1613L40.0857 65.569C38.344 65.8636 36.6034 65.0433 35.7529 63.5271L34.5761 61.4292C34.044 60.4806 33.146 59.7798 32.0824 59.4832L29.7305 58.8274C28.0307 58.3534 26.8261 56.8753 26.7321 55.1481L26.602 52.7584C26.5432 51.6777 26.0449 50.6651 25.2182 49.9463L23.3899 48.3569C22.0686 47.2081 21.6387 45.3649 22.3198 43.7689L23.2622 41.5606C23.6884 40.562 23.6884 39.438 23.2622 38.4394L22.3198 36.2311C21.6387 34.6351 22.0686 32.7919 23.3899 31.6431L25.2182 30.0537C26.0449 29.3349 26.5432 28.3223 26.602 27.2416L26.7321 24.8519C26.8261 23.1247 28.0307 21.6466 29.7305 21.1726L32.0824 20.5168C33.146 20.2202 34.044 19.5194 34.5761 18.5707L35.7529 16.4729C36.6034 14.9567 38.344 14.1364 40.0857 14.431L42.4955 14.8387C43.5852 15.0231 44.705 14.773 45.6051 14.1442L47.5955 12.7537Z" fill="url(#paint0_linear_407_654)" stroke="#833F00" stroke-opacity="0.25" stroke-width="4"/>
<g filter="url(#filter0_f_407_654)">
<circle cx="48" cy="34" r="19" fill="#FFCF54"/>
</g>
<path fill-rule="evenodd" clip-rule="evenodd" d="M82 46C82 58.1503 72.3513 68 60.449 68H33.0204V67.9964C32.9119 67.9988 32.803 68 32.6939 68C24.5787 68 18 61.2843 18 53C18 44.7157 24.5787 38 32.6939 38C35.2526 38 37.6586 38.6676 39.7537 39.8416C42.3629 30.6887 50.6408 24 60.449 24C72.3513 24 82 33.8497 82 46Z" fill="url(#paint1_linear_407_654)"/>
<path d="M33.0204 68H31.0204V70H33.0204V68ZM33.0204 67.9964H35.0204V65.9514L32.9759 65.9969L33.0204 67.9964ZM39.7537 39.8416L38.7761 41.5863L40.9834 42.8231L41.6771 40.3899L39.7537 39.8416ZM60.449 70C73.4945 70 84 59.2158 84 46H80C80 57.0848 71.208 66 60.449 66V70ZM60.449 66H33.0204V70H60.449V66ZM35.0204 68V67.9964H31.0204V68H35.0204ZM32.6939 70C32.8179 70 32.9415 69.9986 33.0649 69.9959L32.9759 65.9969C32.8822 65.9989 32.7881 66 32.6939 66V70ZM16 53C16 62.3498 23.4354 70 32.6939 70V66C25.7219 66 20 60.2188 20 53H16ZM32.6939 36C23.4354 36 16 43.6502 16 53H20C20 45.7812 25.7219 40 32.6939 40V36ZM40.7313 38.0968C38.3466 36.7606 35.6052 36 32.6939 36V40C34.9 40 36.9705 40.5747 38.7761 41.5863L40.7313 38.0968ZM60.449 22C49.6997 22 40.6712 29.3279 37.8303 39.2933L41.6771 40.3899C44.0547 32.0494 51.5818 26 60.449 26V22ZM84 46C84 32.7842 73.4945 22 60.449 22V26C71.208 26 80 34.9152 80 46H84Z" fill="black" fill-opacity="0.07"/>
<mask id="path-5-outside-1_407_654" maskUnits="userSpaceOnUse" x="43" y="75" width="14" height="14" fill="black">
<rect fill="white" x="43" y="75" width="14" height="14"/>
<path fill-rule="evenodd" clip-rule="evenodd" d="M47.841 76.7775C47.681 76.6498 47.6596 76.4145 47.794 76.26C47.9206 76.1146 48.1392 76.0948 48.2898 76.215L48.8826 76.6879C49.1355 76.8897 49.5095 76.7096 49.5095 76.3861C49.5095 76.1729 49.6823 76 49.8956 76H50.1044C50.3176 76 50.4905 76.1729 50.4905 76.3861C50.4905 76.7096 50.8645 76.8897 51.1174 76.6879L51.7102 76.215C51.8608 76.0948 52.0794 76.1146 52.206 76.26C52.3404 76.4145 52.319 76.6498 52.159 76.7775L51.0016 77.7009C50.6786 77.9586 50.4905 78.3493 50.4905 78.7625V78.8013C50.4905 79.8349 51.6139 80.477 52.5046 79.9525C52.8544 79.7464 53.0916 79.3924 53.1491 78.9905L53.3648 77.4829C53.3938 77.2799 53.5878 77.1433 53.7888 77.1843C53.9735 77.2221 54.0968 77.3972 54.0701 77.5838L53.9559 78.3822C53.9109 78.6972 54.25 78.9244 54.5242 78.763C54.707 78.6553 54.9425 78.7184 55.047 78.903L55.1531 79.0905C55.2585 79.2766 55.1952 79.5128 55.0109 79.6213C54.7311 79.7861 54.7615 80.2001 55.0623 80.3223L55.774 80.6114C55.9509 80.6833 56.0418 80.8802 55.9818 81.0615C55.9159 81.2607 55.6952 81.3625 55.5009 81.2836L54.1634 80.7402C53.7709 80.5808 53.3266 80.6134 52.9616 80.8284C52.0686 81.3543 52.0686 82.6458 52.9616 83.1717C53.3266 83.3867 53.7709 83.4193 54.1634 83.2598L55.5009 82.7165C55.6952 82.6375 55.9159 82.7394 55.9818 82.9385C56.0418 83.1199 55.9509 83.3167 55.774 83.3886L55.0623 83.6777C54.7615 83.8 54.7311 84.2139 55.0109 84.3787C55.1952 84.4872 55.2585 84.7234 55.1531 84.9096L55.047 85.097C54.9425 85.2817 54.707 85.3448 54.5242 85.2371C54.25 85.0756 53.9109 85.3029 53.9559 85.6178L54.0701 86.4162C54.0968 86.6028 53.9735 86.778 53.7888 86.8157C53.5878 86.8568 53.3938 86.7201 53.3648 86.5171L53.1491 85.0096C53.0916 84.6076 52.8544 84.2537 52.5046 84.0476C51.6139 83.523 50.4905 84.1652 50.4905 85.1988V85.2375C50.4905 85.6507 50.6786 86.0414 51.0016 86.2991L52.159 87.2225C52.319 87.3502 52.3404 87.5855 52.206 87.74C52.0794 87.8854 51.8608 87.9052 51.7102 87.785L51.1174 87.3121C50.8645 87.1103 50.4905 87.2904 50.4905 87.6139C50.4905 87.8271 50.3176 88 50.1044 88H49.8956C49.6823 88 49.5095 87.8271 49.5095 87.6139C49.5095 87.2904 49.1355 87.1103 48.8826 87.3121L48.2898 87.785C48.1392 87.9052 47.9206 87.8854 47.794 87.74C47.6596 87.5855 47.681 87.3502 47.841 87.2225L48.9984 86.2991C49.3214 86.0414 49.5095 85.6507 49.5095 85.2375V85.1987C49.5095 84.1652 48.3862 83.5231 47.4956 84.0476C47.1458 84.2537 46.9087 84.6076 46.8512 85.0095L46.6355 86.5171C46.6064 86.7201 46.4124 86.8568 46.2115 86.8157C46.0268 86.778 45.9034 86.6028 45.9301 86.4162L46.0443 85.6178C46.0894 85.3029 45.7502 85.0756 45.4761 85.2371C45.2933 85.3448 45.0577 85.2817 44.9532 85.097L44.8471 84.9096C44.7418 84.7234 44.8051 84.4872 44.9894 84.3787C45.2691 84.2139 45.2388 83.7999 44.938 83.6777L44.2263 83.3886C44.0493 83.3167 43.9584 83.1199 44.0185 82.9385C44.0844 82.7394 44.305 82.6375 44.4994 82.7165L45.8368 83.2598C46.2293 83.4193 46.6737 83.3867 47.0387 83.1717C47.9316 82.6458 47.9316 81.3543 47.0387 80.8284C46.6737 80.6134 46.2293 80.5808 45.8368 80.7402L44.4994 81.2836C44.305 81.3625 44.0844 81.2607 44.0185 81.0615C43.9584 80.8802 44.0493 80.6833 44.2263 80.6114L44.938 80.3223C45.2388 80.2001 45.2691 79.7861 44.9894 79.6213C44.8051 79.5128 44.7418 79.2766 44.8471 79.0905L44.9532 78.903C45.0577 78.7184 45.2933 78.6553 45.4761 78.763C45.7502 78.9244 46.0894 78.6971 46.0443 78.3822L45.9301 77.5838C45.9034 77.3972 46.0268 77.2221 46.2115 77.1843C46.4124 77.1433 46.6064 77.2799 46.6355 77.4829L46.8512 78.9905C46.9087 79.3924 47.1458 79.7464 47.4956 79.9524C48.3862 80.4769 49.5095 79.8349 49.5095 78.8013V78.7625C49.5095 78.3493 49.3214 77.9586 48.9984 77.7009L47.841 76.7775Z"/>
</mask>
<path fill-rule="evenodd" clip-rule="evenodd" d="M47.841 76.7775C47.681 76.6498 47.6596 76.4145 47.794 76.26C47.9206 76.1146 48.1392 76.0948 48.2898 76.215L48.8826 76.6879C49.1355 76.8897 49.5095 76.7096 49.5095 76.3861C49.5095 76.1729 49.6823 76 49.8956 76H50.1044C50.3176 76 50.4905 76.1729 50.4905 76.3861C50.4905 76.7096 50.8645 76.8897 51.1174 76.6879L51.7102 76.215C51.8608 76.0948 52.0794 76.1146 52.206 76.26C52.3404 76.4145 52.319 76.6498 52.159 76.7775L51.0016 77.7009C50.6786 77.9586 50.4905 78.3493 50.4905 78.7625V78.8013C50.4905 79.8349 51.6139 80.477 52.5046 79.9525C52.8544 79.7464 53.0916 79.3924 53.1491 78.9905L53.3648 77.4829C53.3938 77.2799 53.5878 77.1433 53.7888 77.1843C53.9735 77.2221 54.0968 77.3972 54.0701 77.5838L53.9559 78.3822C53.9109 78.6972 54.25 78.9244 54.5242 78.763C54.707 78.6553 54.9425 78.7184 55.047 78.903L55.1531 79.0905C55.2585 79.2766 55.1952 79.5128 55.0109 79.6213C54.7311 79.7861 54.7615 80.2001 55.0623 80.3223L55.774 80.6114C55.9509 80.6833 56.0418 80.8802 55.9818 81.0615C55.9159 81.2607 55.6952 81.3625 55.5009 81.2836L54.1634 80.7402C53.7709 80.5808 53.3266 80.6134 52.9616 80.8284C52.0686 81.3543 52.0686 82.6458 52.9616 83.1717C53.3266 83.3867 53.7709 83.4193 54.1634 83.2598L55.5009 82.7165C55.6952 82.6375 55.9159 82.7394 55.9818 82.9385C56.0418 83.1199 55.9509 83.3167 55.774 83.3886L55.0623 83.6777C54.7615 83.8 54.7311 84.2139 55.0109 84.3787C55.1952 84.4872 55.2585 84.7234 55.1531 84.9096L55.047 85.097C54.9425 85.2817 54.707 85.3448 54.5242 85.2371C54.25 85.0756 53.9109 85.3029 53.9559 85.6178L54.0701 86.4162C54.0968 86.6028 53.9735 86.778 53.7888 86.8157C53.5878 86.8568 53.3938 86.7201 53.3648 86.5171L53.1491 85.0096C53.0916 84.6076 52.8544 84.2537 52.5046 84.0476C51.6139 83.523 50.4905 84.1652 50.4905 85.1988V85.2375C50.4905 85.6507 50.6786 86.0414 51.0016 86.2991L52.159 87.2225C52.319 87.3502 52.3404 87.5855 52.206 87.74C52.0794 87.8854 51.8608 87.9052 51.7102 87.785L51.1174 87.3121C50.8645 87.1103 50.4905 87.2904 50.4905 87.6139C50.4905 87.8271 50.3176 88 50.1044 88H49.8956C49.6823 88 49.5095 87.8271 49.5095 87.6139C49.5095 87.2904 49.1355 87.1103 48.8826 87.3121L48.2898 87.785C48.1392 87.9052 47.9206 87.8854 47.794 87.74C47.6596 87.5855 47.681 87.3502 47.841 87.2225L48.9984 86.2991C49.3214 86.0414 49.5095 85.6507 49.5095 85.2375V85.1987C49.5095 84.1652 48.3862 83.5231 47.4956 84.0476C47.1458 84.2537 46.9087 84.6076 46.8512 85.0095L46.6355 86.5171C46.6064 86.7201 46.4124 86.8568 46.2115 86.8157C46.0268 86.778 45.9034 86.6028 45.9301 86.4162L46.0443 85.6178C46.0894 85.3029 45.7502 85.0756 45.4761 85.2371C45.2933 85.3448 45.0577 85.2817 44.9532 85.097L44.8471 84.9096C44.7418 84.7234 44.8051 84.4872 44.9894 84.3787C45.2691 84.2139 45.2388 83.7999 44.938 83.6777L44.2263 83.3886C44.0493 83.3167 43.9584 83.1199 44.0185 82.9385C44.0844 82.7394 44.305 82.6375 44.4994 82.7165L45.8368 83.2598C46.2293 83.4193 46.6737 83.3867 47.0387 83.1717C47.9316 82.6458 47.9316 81.3543 47.0387 80.8284C46.6737 80.6134 46.2293 80.5808 45.8368 80.7402L44.4994 81.2836C44.305 81.3625 44.0844 81.2607 44.0185 81.0615C43.9584 80.8802 44.0493 80.6833 44.2263 80.6114L44.938 80.3223C45.2388 80.2001 45.2691 79.7861 44.9894 79.6213C44.8051 79.5128 44.7418 79.2766 44.8471 79.0905L44.9532 78.903C45.0577 78.7184 45.2933 78.6553 45.4761 78.763C45.7502 78.9244 46.0894 78.6971 46.0443 78.3822L45.9301 77.5838C45.9034 77.3972 46.0268 77.2221 46.2115 77.1843C46.4124 77.1433 46.6064 77.2799 46.6355 77.4829L46.8512 78.9905C46.9087 79.3924 47.1458 79.7464 47.4956 79.9524C48.3862 80.4769 49.5095 79.8349 49.5095 78.8013V78.7625C49.5095 78.3493 49.3214 77.9586 48.9984 77.7009L47.841 76.7775Z" fill="url(#paint2_linear_407_654)"/>
<path d="M48.9984 77.7009L48.6242 78.1699L48.9984 77.7009ZM46.8512 78.9905L46.2572 79.0755L46.8512 78.9905ZM46.0443 78.3822L46.6383 78.2972L46.0443 78.3822ZM44.9532 78.903L44.4311 78.6075L44.9532 78.903ZM44.8471 79.0905L44.325 78.795L44.8471 79.0905ZM44.938 80.3223L44.7121 79.7664L44.938 80.3223ZM44.2263 80.6114L44.4521 81.1673L44.2263 80.6114ZM44.4994 81.2836L44.7252 81.8395L44.4994 81.2836ZM45.8368 80.7402L45.611 80.1843L45.8368 80.7402ZM45.8368 83.2598L46.0627 82.7039L45.8368 83.2598ZM44.4994 82.7165L44.2735 83.2724L44.4994 82.7165ZM44.2263 83.3886L44.0005 83.9445L44.2263 83.3886ZM44.938 83.6777L44.7121 84.2336L44.938 83.6777ZM44.8471 84.9096L45.3693 84.614L44.8471 84.9096ZM44.9532 85.097L44.4311 85.3925L44.9532 85.097ZM46.0443 85.6178L46.6383 85.7028L46.0443 85.6178ZM45.9301 86.4162L45.3362 86.3312L45.9301 86.4162ZM46.6355 86.5171L46.0415 86.4321L46.6355 86.5171ZM48.9984 86.2991L49.3726 86.7681L48.9984 86.2991ZM47.841 87.2225L48.2152 87.6915L47.841 87.2225ZM48.2898 87.785L48.664 88.254L48.2898 87.785ZM48.8826 87.3121L49.2568 87.7811L48.8826 87.3121ZM51.1174 87.3121L50.7432 87.7811L51.1174 87.3121ZM51.7102 87.785L51.336 88.254L51.7102 87.785ZM52.159 87.2225L51.7848 87.6915L52.159 87.2225ZM53.1491 85.0096L53.743 84.9246L53.1491 85.0096ZM53.3648 86.5171L53.9587 86.4321L53.3648 86.5171ZM54.0701 86.4162L53.4762 86.5012L54.0701 86.4162ZM55.047 85.097L54.5249 84.8015L55.047 85.097ZM55.1531 84.9096L55.6753 85.2051L55.1531 84.9096ZM55.0623 83.6777L54.8365 83.1219L55.0623 83.6777ZM55.774 83.3886L55.9998 83.9445L55.774 83.3886ZM55.5009 82.7165L55.2751 82.1606L55.5009 82.7165ZM54.1634 83.2598L53.9376 82.7039L54.1634 83.2598ZM54.1634 80.7402L53.9376 81.2961L54.1634 80.7402ZM55.5009 81.2836L55.7267 80.7277L55.5009 81.2836ZM55.774 80.6114L55.9998 80.0555L55.774 80.6114ZM55.0623 80.3223L54.8365 80.8782L55.0623 80.3223ZM55.1531 79.0905L55.6753 78.795L55.1531 79.0905ZM55.047 78.903L54.5249 79.1986L55.047 78.903ZM53.9559 78.3822L53.362 78.2972L53.9559 78.3822ZM54.0701 77.5838L54.6641 77.6688L54.0701 77.5838ZM53.3648 77.4829L53.9587 77.5679L53.3648 77.4829ZM53.1491 78.9905L52.5551 78.9055L53.1491 78.9905ZM52.159 76.7775L52.5332 77.2465L52.159 76.7775ZM51.7102 76.215L51.336 75.746L51.7102 76.215ZM51.1174 76.6879L51.4916 77.1569L51.1174 76.6879ZM48.8826 76.6879L49.2568 76.2189L48.8826 76.6879ZM48.2898 76.215L48.664 75.746L48.2898 76.215ZM49.2568 76.2189L48.664 75.746L47.9156 76.684L48.5084 77.1569L49.2568 76.2189ZM50.1044 75.4H49.8956V76.6H50.1044V75.4ZM51.336 75.746L50.7432 76.2189L51.4916 77.1569L52.0844 76.684L51.336 75.746ZM51.3758 78.1699L52.5332 77.2465L51.7848 76.3085L50.6274 77.2318L51.3758 78.1699ZM51.0905 78.8013V78.7625H49.8905V78.8013H51.0905ZM52.7708 77.398L52.5551 78.9055L53.7431 79.0754L53.9587 77.5679L52.7708 77.398ZM54.5499 78.4672L54.6641 77.6688L53.4762 77.4989L53.362 78.2972L54.5499 78.4672ZM55.6753 78.795L55.5692 78.6075L54.5249 79.1986L54.631 79.386L55.6753 78.795ZM55.9998 80.0555L55.2881 79.7664L54.8365 80.8782L55.5481 81.1673L55.9998 80.0555ZM53.9376 81.2961L55.2751 81.8395L55.7267 80.7277L54.3892 80.1843L53.9376 81.2961ZM54.3892 83.8157L55.7267 83.2724L55.2751 82.1606L53.9376 82.7039L54.3892 83.8157ZM55.5481 82.8328L54.8365 83.1219L55.2881 84.2336L55.9998 83.9445L55.5481 82.8328ZM54.631 84.614L54.5249 84.8015L55.5692 85.3925L55.6753 85.2051L54.631 84.614ZM53.362 85.7028L53.4762 86.5012L54.6641 86.3312L54.5499 85.5329L53.362 85.7028ZM53.9587 86.4321L53.743 84.9246L52.5551 85.0946L52.7708 86.6021L53.9587 86.4321ZM51.0905 85.2375V85.1988H49.8905V85.2375H51.0905ZM52.5332 86.7535L51.3758 85.8301L50.6274 86.7681L51.7848 87.6915L52.5332 86.7535ZM50.7432 87.7811L51.336 88.254L52.0844 87.316L51.4916 86.8431L50.7432 87.7811ZM49.8956 88.6H50.1044V87.4H49.8956V88.6ZM48.664 88.254L49.2568 87.7811L48.5084 86.8431L47.9156 87.316L48.664 88.254ZM48.6242 85.8301L47.4668 86.7535L48.2152 87.6915L49.3726 86.7681L48.6242 85.8301ZM48.9095 85.1987V85.2375H50.1095V85.1987H48.9095ZM47.2294 86.6021L47.4451 85.0945L46.2572 84.9245L46.0415 86.4321L47.2294 86.6021ZM45.4504 85.5329L45.3362 86.3312L46.5241 86.5012L46.6383 85.7028L45.4504 85.5329ZM44.325 85.2051L44.4311 85.3925L45.4754 84.8015L45.3693 84.614L44.325 85.2051ZM44.0005 83.9445L44.7121 84.2336L45.1638 83.1219L44.4521 82.8328L44.0005 83.9445ZM46.0627 82.7039L44.7252 82.1606L44.2735 83.2724L45.611 83.8157L46.0627 82.7039ZM45.611 80.1843L44.2735 80.7277L44.7252 81.8395L46.0627 81.2961L45.611 80.1843ZM44.4521 81.1673L45.1638 80.8782L44.7121 79.7664L44.0005 80.0555L44.4521 81.1673ZM45.3693 79.386L45.4754 79.1986L44.4311 78.6075L44.325 78.795L45.3693 79.386ZM46.6383 78.2972L46.5241 77.4989L45.3362 77.6688L45.4504 78.4672L46.6383 78.2972ZM46.0415 77.5679L46.2572 79.0755L47.4451 78.9056L47.2294 77.398L46.0415 77.5679ZM48.9095 78.7625V78.8013H50.1095V78.7625H48.9095ZM47.4668 77.2465L48.6242 78.1699L49.3726 77.2319L48.2152 76.3085L47.4668 77.2465ZM50.1095 78.7625C50.1095 78.1668 49.8383 77.6034 49.3726 77.2319L48.6242 78.1699C48.8045 78.3138 48.9095 78.5319 48.9095 78.7625H50.1095ZM47.1911 80.4694C48.4817 81.2295 50.1095 80.2991 50.1095 78.8013H48.9095C48.9095 79.3707 48.2907 79.7244 47.8001 79.4354L47.1911 80.4694ZM46.2572 79.0755C46.3405 79.6579 46.6842 80.1708 47.1911 80.4694L47.8001 79.4354C47.6074 79.3219 47.4768 79.127 47.4451 78.9056L46.2572 79.0755ZM46.3316 77.7722C46.1941 77.8003 46.0614 77.7068 46.0415 77.5679L47.2294 77.398C47.1515 76.853 46.6307 76.4863 46.0914 76.5965L46.3316 77.7722ZM46.5241 77.4989C46.5423 77.6266 46.458 77.7464 46.3316 77.7722L46.0914 76.5965C45.5955 76.6978 45.2645 77.1679 45.3362 77.6688L46.5241 77.4989ZM45.1716 79.2799C45.8791 79.6967 46.7546 79.1101 46.6383 78.2972L45.4504 78.4672C45.4242 78.2842 45.6213 78.1521 45.7806 78.246L45.1716 79.2799ZM45.4754 79.1986C45.4147 79.3058 45.2778 79.3425 45.1716 79.2799L45.7806 78.246C45.3088 77.9681 44.7008 78.131 44.4311 78.6075L45.4754 79.1986ZM45.2938 79.1044C45.3916 79.1619 45.4252 79.2873 45.3693 79.386L44.325 78.795C44.0584 79.266 44.2185 79.8637 44.6849 80.1383L45.2938 79.1044ZM45.1638 80.8782C45.925 80.5689 46.0018 79.5213 45.2938 79.1044L44.6849 80.1383C44.5364 80.0509 44.5525 79.8313 44.7121 79.7664L45.1638 80.8782ZM44.5881 80.8729C44.6273 80.9915 44.5679 81.1203 44.4521 81.1673L44.0005 80.0555C43.5307 80.2464 43.2895 80.7688 43.4489 81.2501L44.5881 80.8729ZM44.2735 80.7277C44.4006 80.6761 44.5449 80.7427 44.5881 80.8729L43.4489 81.2501C43.6239 81.7786 44.2094 82.049 44.7252 81.8395L44.2735 80.7277ZM47.3432 80.3114C46.8171 80.0015 46.1767 79.9546 45.611 80.1843L46.0627 81.2961C46.282 81.207 46.5302 81.2252 46.7342 81.3454L47.3432 80.3114ZM47.3432 83.6887C48.6301 82.9307 48.6301 81.0693 47.3432 80.3114L46.7342 81.3454C47.2331 81.6392 47.2331 82.3608 46.7342 82.6547L47.3432 83.6887ZM45.611 83.8157C46.1767 84.0455 46.8171 83.9985 47.3432 83.6887L46.7342 82.6547C46.5302 82.7748 46.282 82.793 46.0627 82.7039L45.611 83.8157ZM44.5881 83.1271C44.5449 83.2574 44.4006 83.324 44.2735 83.2724L44.7252 82.1606C44.2094 81.951 43.6239 82.2214 43.4489 82.7499L44.5881 83.1271ZM44.4521 82.8328C44.5679 82.8798 44.6273 83.0085 44.5881 83.1271L43.4489 82.7499C43.2895 83.2313 43.5307 83.7537 44.0005 83.9445L44.4521 82.8328ZM45.2938 84.8957C46.0018 84.4787 45.925 83.4311 45.1638 83.1219L44.7121 84.2336C44.5525 84.1688 44.5364 83.9491 44.6849 83.8617L45.2938 84.8957ZM45.3693 84.614C45.4252 84.7128 45.3916 84.8381 45.2938 84.8957L44.6849 83.8617C44.2185 84.1364 44.0584 84.7341 44.325 85.2051L45.3693 84.614ZM45.1716 84.7201C45.2778 84.6575 45.4147 84.6942 45.4754 84.8015L44.4311 85.3925C44.7008 85.8691 45.3088 86.032 45.7806 85.7541L45.1716 84.7201ZM46.6383 85.7028C46.7546 84.8899 45.8791 84.3034 45.1716 84.7201L45.7806 85.7541C45.6213 85.8479 45.4242 85.7159 45.4504 85.5329L46.6383 85.7028ZM46.3316 86.2279C46.458 86.2537 46.5423 86.3735 46.5241 86.5012L45.3362 86.3312C45.2645 86.8322 45.5955 87.3023 46.0914 87.4036L46.3316 86.2279ZM46.0415 86.4321C46.0614 86.2933 46.1941 86.1998 46.3316 86.2279L46.0914 87.4036C46.6307 87.5138 47.1515 87.147 47.2294 86.6021L46.0415 86.4321ZM47.1911 83.5306C46.6842 83.8292 46.3405 84.3421 46.2572 84.9245L47.4451 85.0945C47.4768 84.8731 47.6074 84.6781 47.8001 84.5646L47.1911 83.5306ZM50.1095 85.1987C50.1095 83.701 48.4817 82.7706 47.1911 83.5306L47.8001 84.5646C48.2907 84.2757 48.9095 84.6294 48.9095 85.1987H50.1095ZM49.3726 86.7681C49.8383 86.3966 50.1095 85.8333 50.1095 85.2375H48.9095C48.9095 85.4681 48.8045 85.6862 48.6242 85.8301L49.3726 86.7681ZM48.2466 87.346C48.3363 87.4491 48.3221 87.6063 48.2152 87.6915L47.4668 86.7535C47.0399 87.0941 46.9828 87.7219 47.3415 88.1339L48.2466 87.346ZM47.9156 87.316C48.0162 87.2358 48.1621 87.249 48.2466 87.346L47.3415 88.1339C47.679 88.5217 48.2621 88.5747 48.664 88.254L47.9156 87.316ZM50.1095 87.6139C50.1095 86.7877 49.1543 86.3278 48.5084 86.8431L49.2568 87.7811C49.1167 87.8929 48.9095 87.7931 48.9095 87.6139H50.1095ZM49.8956 87.4C50.0137 87.4 50.1095 87.4958 50.1095 87.6139H48.9095C48.9095 88.1585 49.351 88.6 49.8956 88.6V87.4ZM49.8905 87.6139C49.8905 87.4958 49.9863 87.4 50.1044 87.4V88.6C50.649 88.6 51.0905 88.1585 51.0905 87.6139H49.8905ZM51.4916 86.8431C50.8457 86.3278 49.8905 86.7877 49.8905 87.6139H51.0905C51.0905 87.7931 50.8833 87.8929 50.7432 87.7811L51.4916 86.8431ZM51.7534 87.346C51.8379 87.249 51.9838 87.2358 52.0844 87.316L51.336 88.254C51.7378 88.5747 52.321 88.5217 52.6585 88.1339L51.7534 87.346ZM51.7848 87.6915C51.6779 87.6063 51.6637 87.4491 51.7534 87.346L52.6585 88.1339C53.0172 87.7219 52.9601 87.0941 52.5332 86.7535L51.7848 87.6915ZM49.8905 85.2375C49.8905 85.8332 50.1617 86.3966 50.6274 86.7681L51.3758 85.8301C51.1955 85.6863 51.0905 85.4681 51.0905 85.2375H49.8905ZM52.8091 83.5306C51.5184 82.7705 49.8905 83.701 49.8905 85.1988H51.0905C51.0905 84.6294 51.7094 84.2756 52.2001 84.5646L52.8091 83.5306ZM53.743 84.9246C53.6597 84.3422 53.316 83.8292 52.8091 83.5306L52.2001 84.5646C52.3928 84.6781 52.5235 84.8731 52.5551 85.0946L53.743 84.9246ZM53.6687 86.2279C53.8061 86.1998 53.9389 86.2933 53.9587 86.4321L52.7708 86.6021C52.8488 87.147 53.3696 87.5138 53.9089 87.4036L53.6687 86.2279ZM53.4762 86.5012C53.4579 86.3735 53.5423 86.2537 53.6687 86.2279L53.9089 87.4036C54.4047 87.3023 54.7358 86.8322 54.6641 86.3312L53.4762 86.5012ZM54.8287 84.7201C54.1211 84.3034 53.2457 84.8899 53.362 85.7028L54.5499 85.5329C54.5761 85.7159 54.379 85.8479 54.2197 85.7541L54.8287 84.7201ZM54.5249 84.8015C54.5856 84.6942 54.7224 84.6575 54.8287 84.7201L54.2197 85.7541C54.6915 86.032 55.2995 85.8691 55.5692 85.3925L54.5249 84.8015ZM54.7064 84.8957C54.6086 84.8381 54.5751 84.7128 54.631 84.614L55.6753 85.2051C55.9419 84.7341 55.7817 84.1364 55.3154 83.8617L54.7064 84.8957ZM54.8365 83.1219C54.0753 83.4311 53.9984 84.4787 54.7064 84.8957L55.3154 83.8617C55.4638 83.9491 55.4477 84.1688 55.2881 84.2336L54.8365 83.1219ZM55.4122 83.1271C55.3729 83.0085 55.4324 82.8798 55.5481 82.8328L55.9998 83.9445C56.4695 83.7537 56.7108 83.2313 56.5514 82.7499L55.4122 83.1271ZM55.7267 83.2724C55.5996 83.324 55.4553 83.2574 55.4122 83.1271L56.5514 82.7499C56.3764 82.2214 55.7909 81.951 55.2751 82.1606L55.7267 83.2724ZM52.6571 83.6887C53.1831 83.9985 53.8236 84.0455 54.3892 83.8157L53.9376 82.7039C53.7183 82.793 53.47 82.7748 53.2661 82.6547L52.6571 83.6887ZM52.6571 80.3114C51.3701 81.0693 51.3701 82.9307 52.6571 83.6887L53.2661 82.6547C52.7671 82.3608 52.7671 81.6392 53.2661 81.3454L52.6571 80.3114ZM54.3892 80.1843C53.8236 79.9546 53.1831 80.0015 52.6571 80.3114L53.2661 81.3454C53.47 81.2252 53.7183 81.207 53.9376 81.2961L54.3892 80.1843ZM55.4122 80.8729C55.4553 80.7427 55.5996 80.6761 55.7267 80.7277L55.2751 81.8395C55.7909 82.049 56.3764 81.7786 56.5514 81.2501L55.4122 80.8729ZM55.5481 81.1673C55.4324 81.1203 55.3729 80.9915 55.4122 80.8729L56.5514 81.2501C56.7108 80.7688 56.4695 80.2464 55.9998 80.0555L55.5481 81.1673ZM54.7064 79.1044C53.9984 79.5213 54.0753 80.5689 54.8365 80.8782L55.2881 79.7664C55.4477 79.8313 55.4638 80.0509 55.3154 80.1383L54.7064 79.1044ZM54.631 79.386C54.5751 79.2873 54.6086 79.1619 54.7064 79.1044L55.3154 80.1383C55.7817 79.8637 55.9419 79.266 55.6753 78.795L54.631 79.386ZM54.8287 79.2799C54.7224 79.3425 54.5856 79.3058 54.5249 79.1986L55.5692 78.6075C55.2995 78.131 54.6915 77.9681 54.2197 78.246L54.8287 79.2799ZM53.362 78.2972C53.2457 79.1101 54.1211 79.6967 54.8287 79.2799L54.2197 78.246C54.379 78.1521 54.5761 78.2842 54.5499 78.4672L53.362 78.2972ZM53.6687 77.7722C53.5423 77.7464 53.4579 77.6266 53.4762 77.4989L54.6641 77.6688C54.7358 77.1679 54.4047 76.6978 53.9089 76.5965L53.6687 77.7722ZM53.9587 77.5679C53.9389 77.7068 53.8061 77.8003 53.6687 77.7722L53.9089 76.5965C53.3696 76.4863 52.8488 76.853 52.7708 77.398L53.9587 77.5679ZM52.8091 80.4694C53.316 80.1708 53.6597 79.6579 53.7431 79.0754L52.5551 78.9055C52.5235 79.1269 52.3928 79.3219 52.2001 79.4355L52.8091 80.4694ZM49.8905 78.8013C49.8905 80.2991 51.5184 81.2296 52.8091 80.4694L52.2001 79.4355C51.7094 79.7244 51.0905 79.3707 51.0905 78.8013H49.8905ZM50.6274 77.2318C50.1617 77.6034 49.8905 78.1668 49.8905 78.7625H51.0905C51.0905 78.5319 51.1955 78.3137 51.3758 78.1699L50.6274 77.2318ZM51.7534 76.654C51.6637 76.5508 51.6779 76.3937 51.7848 76.3085L52.5332 77.2465C52.9601 76.9059 53.0172 76.2781 52.6585 75.8661L51.7534 76.654ZM52.0844 76.684C51.9838 76.7642 51.8379 76.751 51.7534 76.654L52.6585 75.8661C52.321 75.4783 51.7378 75.4253 51.336 75.746L52.0844 76.684ZM49.8905 76.3861C49.8905 77.2123 50.8457 77.6722 51.4916 77.1569L50.7432 76.2189C50.8833 76.1071 51.0905 76.2069 51.0905 76.3861H49.8905ZM50.1044 76.6C49.9863 76.6 49.8905 76.5042 49.8905 76.3861H51.0905C51.0905 75.8415 50.649 75.4 50.1044 75.4V76.6ZM50.1095 76.3861C50.1095 76.5042 50.0137 76.6 49.8956 76.6V75.4C49.351 75.4 48.9095 75.8415 48.9095 76.3861H50.1095ZM48.5084 77.1569C49.1543 77.6722 50.1095 77.2123 50.1095 76.3861H48.9095C48.9095 76.2069 49.1167 76.1071 49.2568 76.2189L48.5084 77.1569ZM47.3415 75.8661C46.9828 76.2781 47.0399 76.9059 47.4668 77.2465L48.2152 76.3085C48.3221 76.3937 48.3363 76.5509 48.2466 76.654L47.3415 75.8661ZM48.2466 76.654C48.1621 76.751 48.0162 76.7642 47.9156 76.684L48.664 75.746C48.2621 75.4253 47.679 75.4783 47.3415 75.8661L48.2466 76.654Z" fill="#36426F" fill-opacity="0.15" mask="url(#path-5-outside-1_407_654)"/>
</g>
<defs>
<filter id="filter0_f_407_654" x="11" y="-3" width="74" height="74" filterUnits="userSpaceOnUse" color-interpolation-filters="sRGB">
<feFlood flood-opacity="0" result="BackgroundImageFix"/>
<feBlend mode="normal" in="SourceGraphic" in2="BackgroundImageFix" result="shape"/>
<feGaussianBlur stdDeviation="9" result="effect1_foregroundBlur_407_654"/>
</filter>
<linearGradient id="paint0_linear_407_654" x1="35" y1="17" x2="63" y2="63" gradientUnits="userSpaceOnUse">
<stop offset="0.165457" stop-color="#F0AA41"/>
<stop offset="1" stop-color="#FF8A00"/>
</linearGradient>
<linearGradient id="paint1_linear_407_654" x1="40.5306" y1="40.3333" x2="64.3961" y2="58.1919" gradientUnits="userSpaceOnUse">
<stop offset="0.183865" stop-color="#ECECEC"/>
<stop offset="1" stop-color="#C4C4C4"/>
</linearGradient>
<linearGradient id="paint2_linear_407_654" x1="49.4547" y1="79.1579" x2="55.4732" y2="84.0495" gradientUnits="userSpaceOnUse">
<stop offset="0.183865" stop-color="#F5FCFF"/>
<stop offset="1" stop-color="#E0E9F4"/>
</linearGradient>
<clipPath id="clip0_407_654">
<rect width="100" height="100" fill="white"/>
</clipPath>
</defs>
</svg>
