<svg width="100" height="100" viewBox="0 0 100 100" fill="none" xmlns="http://www.w3.org/2000/svg">
<path fill-rule="evenodd" clip-rule="evenodd" d="M82 46C82 58.1503 72.3513 68 60.449 68H33.0204V67.9964C32.9119 67.9988 32.803 68 32.6939 68C24.5787 68 18 61.2843 18 53C18 44.7157 24.5787 38 32.6939 38C35.2526 38 37.6586 38.6676 39.7537 39.8416C42.3629 30.6887 50.6408 24 60.449 24C72.3513 24 82 33.8497 82 46Z" fill="url(#paint0_linear_407_657)"/>
<path d="M33.0204 68H31.0204V70H33.0204V68ZM33.0204 67.9964H35.0204V65.9514L32.9759 65.9969L33.0204 67.9964ZM39.7537 39.8416L38.7761 41.5863L40.9834 42.8231L41.6771 40.3899L39.7537 39.8416ZM60.449 70C73.4945 70 84 59.2158 84 46H80C80 57.0848 71.208 66 60.449 66V70ZM60.449 66H33.0204V70H60.449V66ZM35.0204 68V67.9964H31.0204V68H35.0204ZM32.6939 70C32.8179 70 32.9415 69.9986 33.0649 69.9959L32.9759 65.9969C32.8822 65.9989 32.7881 66 32.6939 66V70ZM16 53C16 62.3498 23.4354 70 32.6939 70V66C25.7219 66 20 60.2188 20 53H16ZM32.6939 36C23.4354 36 16 43.6502 16 53H20C20 45.7812 25.7219 40 32.6939 40V36ZM40.7313 38.0968C38.3466 36.7606 35.6052 36 32.6939 36V40C34.9 40 36.9705 40.5747 38.7761 41.5863L40.7313 38.0968ZM60.449 22C49.6997 22 40.6712 29.3279 37.8303 39.2933L41.6771 40.3899C44.0547 32.0494 51.5818 26 60.449 26V22ZM84 46C84 32.7842 73.4945 22 60.449 22V26C71.208 26 80 34.9152 80 46H84Z" fill="black" fill-opacity="0.07"/>
<mask id="path-3-outside-1_407_657" maskUnits="userSpaceOnUse" x="36" y="75" width="14" height="14" fill="black">
<rect fill="white" x="36" y="75" width="14" height="14"/>
<path fill-rule="evenodd" clip-rule="evenodd" d="M40.841 76.7775C40.681 76.6498 40.6596 76.4145 40.794 76.26C40.9206 76.1146 41.1392 76.0948 41.2898 76.215L41.8826 76.6879C42.1355 76.8897 42.5095 76.7096 42.5095 76.3861C42.5095 76.1729 42.6823 76 42.8956 76H43.1044C43.3176 76 43.4905 76.1729 43.4905 76.3861C43.4905 76.7096 43.8645 76.8897 44.1174 76.6879L44.7102 76.215C44.8608 76.0948 45.0794 76.1146 45.206 76.26C45.3404 76.4145 45.319 76.6498 45.159 76.7775L44.0016 77.7009C43.6786 77.9586 43.4905 78.3493 43.4905 78.7625V78.8013C43.4905 79.8349 44.6139 80.477 45.5046 79.9525C45.8544 79.7464 46.0916 79.3924 46.1491 78.9905L46.3648 77.4829C46.3938 77.2799 46.5878 77.1433 46.7888 77.1843C46.9735 77.2221 47.0968 77.3972 47.0701 77.5838L46.9559 78.3822C46.9109 78.6972 47.25 78.9244 47.5242 78.763C47.707 78.6553 47.9425 78.7184 48.047 78.903L48.1531 79.0905C48.2585 79.2766 48.1952 79.5128 48.0109 79.6213C47.7311 79.7861 47.7615 80.2001 48.0623 80.3223L48.774 80.6114C48.9509 80.6833 49.0418 80.8802 48.9818 81.0615C48.9159 81.2607 48.6952 81.3625 48.5009 81.2836L47.1634 80.7402C46.7709 80.5808 46.3266 80.6134 45.9616 80.8284C45.0686 81.3543 45.0686 82.6458 45.9616 83.1717C46.3266 83.3867 46.7709 83.4193 47.1634 83.2598L48.5009 82.7165C48.6952 82.6375 48.9159 82.7394 48.9818 82.9385C49.0418 83.1199 48.9509 83.3167 48.774 83.3886L48.0623 83.6777C47.7615 83.8 47.7311 84.2139 48.0109 84.3787C48.1952 84.4872 48.2585 84.7234 48.1531 84.9096L48.047 85.097C47.9425 85.2817 47.707 85.3448 47.5242 85.2371C47.25 85.0756 46.9109 85.3029 46.9559 85.6178L47.0701 86.4162C47.0968 86.6028 46.9735 86.778 46.7888 86.8157C46.5878 86.8568 46.3938 86.7201 46.3648 86.5171L46.1491 85.0096C46.0916 84.6076 45.8544 84.2537 45.5046 84.0476C44.6139 83.523 43.4905 84.1652 43.4905 85.1988V85.2375C43.4905 85.6507 43.6786 86.0414 44.0016 86.2991L45.159 87.2225C45.319 87.3502 45.3404 87.5855 45.206 87.74C45.0794 87.8854 44.8608 87.9052 44.7102 87.785L44.1174 87.3121C43.8645 87.1103 43.4905 87.2904 43.4905 87.6139C43.4905 87.8271 43.3176 88 43.1044 88H42.8956C42.6823 88 42.5095 87.8271 42.5095 87.6139C42.5095 87.2904 42.1355 87.1103 41.8826 87.3121L41.2898 87.785C41.1392 87.9052 40.9206 87.8854 40.794 87.74C40.6596 87.5855 40.681 87.3502 40.841 87.2225L41.9984 86.2991C42.3214 86.0414 42.5095 85.6507 42.5095 85.2375V85.1987C42.5095 84.1652 41.3862 83.5231 40.4956 84.0476C40.1458 84.2537 39.9087 84.6076 39.8512 85.0095L39.6355 86.5171C39.6064 86.7201 39.4124 86.8568 39.2115 86.8157C39.0268 86.778 38.9034 86.6028 38.9301 86.4162L39.0443 85.6178C39.0894 85.3029 38.7502 85.0756 38.4761 85.2371C38.2933 85.3448 38.0577 85.2817 37.9532 85.097L37.8471 84.9096C37.7418 84.7234 37.8051 84.4872 37.9894 84.3787C38.2691 84.2139 38.2388 83.7999 37.938 83.6777L37.2263 83.3886C37.0493 83.3167 36.9584 83.1199 37.0185 82.9385C37.0844 82.7394 37.305 82.6375 37.4994 82.7165L38.8368 83.2598C39.2293 83.4193 39.6737 83.3867 40.0387 83.1717C40.9316 82.6458 40.9316 81.3543 40.0387 80.8284C39.6737 80.6134 39.2293 80.5808 38.8368 80.7402L37.4994 81.2836C37.305 81.3625 37.0844 81.2607 37.0185 81.0615C36.9584 80.8802 37.0493 80.6833 37.2263 80.6114L37.938 80.3223C38.2388 80.2001 38.2691 79.7861 37.9894 79.6213C37.8051 79.5128 37.7418 79.2766 37.8471 79.0905L37.9532 78.903C38.0577 78.7184 38.2933 78.6553 38.4761 78.763C38.7502 78.9244 39.0894 78.6971 39.0443 78.3822L38.9301 77.5838C38.9034 77.3972 39.0268 77.2221 39.2115 77.1843C39.4124 77.1433 39.6064 77.2799 39.6355 77.4829L39.8512 78.9905C39.9087 79.3924 40.1458 79.7464 40.4956 79.9524C41.3862 80.4769 42.5095 79.8349 42.5095 78.8013V78.7625C42.5095 78.3493 42.3214 77.9586 41.9984 77.7009L40.841 76.7775Z"/>
</mask>
<path fill-rule="evenodd" clip-rule="evenodd" d="M40.841 76.7775C40.681 76.6498 40.6596 76.4145 40.794 76.26C40.9206 76.1146 41.1392 76.0948 41.2898 76.215L41.8826 76.6879C42.1355 76.8897 42.5095 76.7096 42.5095 76.3861C42.5095 76.1729 42.6823 76 42.8956 76H43.1044C43.3176 76 43.4905 76.1729 43.4905 76.3861C43.4905 76.7096 43.8645 76.8897 44.1174 76.6879L44.7102 76.215C44.8608 76.0948 45.0794 76.1146 45.206 76.26C45.3404 76.4145 45.319 76.6498 45.159 76.7775L44.0016 77.7009C43.6786 77.9586 43.4905 78.3493 43.4905 78.7625V78.8013C43.4905 79.8349 44.6139 80.477 45.5046 79.9525C45.8544 79.7464 46.0916 79.3924 46.1491 78.9905L46.3648 77.4829C46.3938 77.2799 46.5878 77.1433 46.7888 77.1843C46.9735 77.2221 47.0968 77.3972 47.0701 77.5838L46.9559 78.3822C46.9109 78.6972 47.25 78.9244 47.5242 78.763C47.707 78.6553 47.9425 78.7184 48.047 78.903L48.1531 79.0905C48.2585 79.2766 48.1952 79.5128 48.0109 79.6213C47.7311 79.7861 47.7615 80.2001 48.0623 80.3223L48.774 80.6114C48.9509 80.6833 49.0418 80.8802 48.9818 81.0615C48.9159 81.2607 48.6952 81.3625 48.5009 81.2836L47.1634 80.7402C46.7709 80.5808 46.3266 80.6134 45.9616 80.8284C45.0686 81.3543 45.0686 82.6458 45.9616 83.1717C46.3266 83.3867 46.7709 83.4193 47.1634 83.2598L48.5009 82.7165C48.6952 82.6375 48.9159 82.7394 48.9818 82.9385C49.0418 83.1199 48.9509 83.3167 48.774 83.3886L48.0623 83.6777C47.7615 83.8 47.7311 84.2139 48.0109 84.3787C48.1952 84.4872 48.2585 84.7234 48.1531 84.9096L48.047 85.097C47.9425 85.2817 47.707 85.3448 47.5242 85.2371C47.25 85.0756 46.9109 85.3029 46.9559 85.6178L47.0701 86.4162C47.0968 86.6028 46.9735 86.778 46.7888 86.8157C46.5878 86.8568 46.3938 86.7201 46.3648 86.5171L46.1491 85.0096C46.0916 84.6076 45.8544 84.2537 45.5046 84.0476C44.6139 83.523 43.4905 84.1652 43.4905 85.1988V85.2375C43.4905 85.6507 43.6786 86.0414 44.0016 86.2991L45.159 87.2225C45.319 87.3502 45.3404 87.5855 45.206 87.74C45.0794 87.8854 44.8608 87.9052 44.7102 87.785L44.1174 87.3121C43.8645 87.1103 43.4905 87.2904 43.4905 87.6139C43.4905 87.8271 43.3176 88 43.1044 88H42.8956C42.6823 88 42.5095 87.8271 42.5095 87.6139C42.5095 87.2904 42.1355 87.1103 41.8826 87.3121L41.2898 87.785C41.1392 87.9052 40.9206 87.8854 40.794 87.74C40.6596 87.5855 40.681 87.3502 40.841 87.2225L41.9984 86.2991C42.3214 86.0414 42.5095 85.6507 42.5095 85.2375V85.1987C42.5095 84.1652 41.3862 83.5231 40.4956 84.0476C40.1458 84.2537 39.9087 84.6076 39.8512 85.0095L39.6355 86.5171C39.6064 86.7201 39.4124 86.8568 39.2115 86.8157C39.0268 86.778 38.9034 86.6028 38.9301 86.4162L39.0443 85.6178C39.0894 85.3029 38.7502 85.0756 38.4761 85.2371C38.2933 85.3448 38.0577 85.2817 37.9532 85.097L37.8471 84.9096C37.7418 84.7234 37.8051 84.4872 37.9894 84.3787C38.2691 84.2139 38.2388 83.7999 37.938 83.6777L37.2263 83.3886C37.0493 83.3167 36.9584 83.1199 37.0185 82.9385C37.0844 82.7394 37.305 82.6375 37.4994 82.7165L38.8368 83.2598C39.2293 83.4193 39.6737 83.3867 40.0387 83.1717C40.9316 82.6458 40.9316 81.3543 40.0387 80.8284C39.6737 80.6134 39.2293 80.5808 38.8368 80.7402L37.4994 81.2836C37.305 81.3625 37.0844 81.2607 37.0185 81.0615C36.9584 80.8802 37.0493 80.6833 37.2263 80.6114L37.938 80.3223C38.2388 80.2001 38.2691 79.7861 37.9894 79.6213C37.8051 79.5128 37.7418 79.2766 37.8471 79.0905L37.9532 78.903C38.0577 78.7184 38.2933 78.6553 38.4761 78.763C38.7502 78.9244 39.0894 78.6971 39.0443 78.3822L38.9301 77.5838C38.9034 77.3972 39.0268 77.2221 39.2115 77.1843C39.4124 77.1433 39.6064 77.2799 39.6355 77.4829L39.8512 78.9905C39.9087 79.3924 40.1458 79.7464 40.4956 79.9524C41.3862 80.4769 42.5095 79.8349 42.5095 78.8013V78.7625C42.5095 78.3493 42.3214 77.9586 41.9984 77.7009L40.841 76.7775Z" fill="url(#paint1_linear_407_657)"/>
<path d="M41.9984 77.7009L41.6242 78.1699L41.9984 77.7009ZM39.8512 78.9905L39.2572 79.0755L39.8512 78.9905ZM39.0443 78.3822L39.6383 78.2972L39.0443 78.3822ZM37.9532 78.903L37.4311 78.6075L37.9532 78.903ZM37.8471 79.0905L37.325 78.795L37.8471 79.0905ZM37.938 80.3223L37.7121 79.7664L37.938 80.3223ZM37.2263 80.6114L37.4521 81.1673L37.2263 80.6114ZM37.4994 81.2836L37.7252 81.8395L37.4994 81.2836ZM38.8368 80.7402L38.611 80.1843L38.8368 80.7402ZM38.8368 83.2598L39.0627 82.7039L38.8368 83.2598ZM37.4994 82.7165L37.2735 83.2724L37.4994 82.7165ZM37.2263 83.3886L37.0005 83.9445L37.2263 83.3886ZM37.938 83.6777L37.7121 84.2336L37.938 83.6777ZM37.8471 84.9096L38.3693 84.614L37.8471 84.9096ZM37.9532 85.097L37.4311 85.3925L37.9532 85.097ZM39.0443 85.6178L39.6383 85.7028L39.0443 85.6178ZM38.9301 86.4162L38.3362 86.3312L38.9301 86.4162ZM39.6355 86.5171L39.0415 86.4321L39.6355 86.5171ZM41.9984 86.2991L42.3726 86.7681L41.9984 86.2991ZM40.841 87.2225L41.2152 87.6915L40.841 87.2225ZM41.2898 87.785L41.664 88.254L41.2898 87.785ZM41.8826 87.3121L42.2568 87.7811L41.8826 87.3121ZM44.1174 87.3121L43.7432 87.7811L44.1174 87.3121ZM44.7102 87.785L44.336 88.254L44.7102 87.785ZM45.159 87.2225L44.7848 87.6915L45.159 87.2225ZM46.1491 85.0096L46.743 84.9246L46.1491 85.0096ZM46.3648 86.5171L46.9587 86.4321L46.3648 86.5171ZM47.0701 86.4162L46.4762 86.5012L47.0701 86.4162ZM48.047 85.097L47.5249 84.8015L48.047 85.097ZM48.1531 84.9096L48.6753 85.2051L48.1531 84.9096ZM48.0623 83.6777L47.8365 83.1219L48.0623 83.6777ZM48.774 83.3886L48.9998 83.9445L48.774 83.3886ZM48.5009 82.7165L48.2751 82.1606L48.5009 82.7165ZM47.1634 83.2598L46.9376 82.7039L47.1634 83.2598ZM47.1634 80.7402L46.9376 81.2961L47.1634 80.7402ZM48.5009 81.2836L48.7267 80.7277L48.5009 81.2836ZM48.774 80.6114L48.9998 80.0555L48.774 80.6114ZM48.0623 80.3223L47.8365 80.8782L48.0623 80.3223ZM48.1531 79.0905L48.6753 78.795L48.1531 79.0905ZM48.047 78.903L47.5249 79.1986L48.047 78.903ZM46.9559 78.3822L46.362 78.2972L46.9559 78.3822ZM47.0701 77.5838L47.6641 77.6688L47.0701 77.5838ZM46.3648 77.4829L46.9587 77.5679L46.3648 77.4829ZM46.1491 78.9905L45.5551 78.9055L46.1491 78.9905ZM45.159 76.7775L45.5332 77.2465L45.159 76.7775ZM44.7102 76.215L44.336 75.746L44.7102 76.215ZM44.1174 76.6879L44.4916 77.1569L44.1174 76.6879ZM41.8826 76.6879L42.2568 76.2189L41.8826 76.6879ZM41.2898 76.215L41.664 75.746L41.2898 76.215ZM42.2568 76.2189L41.664 75.746L40.9156 76.684L41.5084 77.1569L42.2568 76.2189ZM43.1044 75.4H42.8956V76.6H43.1044V75.4ZM44.336 75.746L43.7432 76.2189L44.4916 77.1569L45.0844 76.684L44.336 75.746ZM44.3758 78.1699L45.5332 77.2465L44.7848 76.3085L43.6274 77.2318L44.3758 78.1699ZM44.0905 78.8013V78.7625H42.8905V78.8013H44.0905ZM45.7708 77.398L45.5551 78.9055L46.7431 79.0754L46.9587 77.5679L45.7708 77.398ZM47.5499 78.4672L47.6641 77.6688L46.4762 77.4989L46.362 78.2972L47.5499 78.4672ZM48.6753 78.795L48.5692 78.6075L47.5249 79.1986L47.631 79.386L48.6753 78.795ZM48.9998 80.0555L48.2881 79.7664L47.8365 80.8782L48.5481 81.1673L48.9998 80.0555ZM46.9376 81.2961L48.2751 81.8395L48.7267 80.7277L47.3892 80.1843L46.9376 81.2961ZM47.3892 83.8157L48.7267 83.2724L48.2751 82.1606L46.9376 82.7039L47.3892 83.8157ZM48.5481 82.8328L47.8365 83.1219L48.2881 84.2336L48.9998 83.9445L48.5481 82.8328ZM47.631 84.614L47.5249 84.8015L48.5692 85.3925L48.6753 85.2051L47.631 84.614ZM46.362 85.7028L46.4762 86.5012L47.6641 86.3312L47.5499 85.5329L46.362 85.7028ZM46.9587 86.4321L46.743 84.9246L45.5551 85.0946L45.7708 86.6021L46.9587 86.4321ZM44.0905 85.2375V85.1988H42.8905V85.2375H44.0905ZM45.5332 86.7535L44.3758 85.8301L43.6274 86.7681L44.7848 87.6915L45.5332 86.7535ZM43.7432 87.7811L44.336 88.254L45.0844 87.316L44.4916 86.8431L43.7432 87.7811ZM42.8956 88.6H43.1044V87.4H42.8956V88.6ZM41.664 88.254L42.2568 87.7811L41.5084 86.8431L40.9156 87.316L41.664 88.254ZM41.6242 85.8301L40.4668 86.7535L41.2152 87.6915L42.3726 86.7681L41.6242 85.8301ZM41.9095 85.1987V85.2375H43.1095V85.1987H41.9095ZM40.2294 86.6021L40.4451 85.0945L39.2572 84.9245L39.0415 86.4321L40.2294 86.6021ZM38.4504 85.5329L38.3362 86.3312L39.5241 86.5012L39.6383 85.7028L38.4504 85.5329ZM37.325 85.2051L37.4311 85.3925L38.4754 84.8015L38.3693 84.614L37.325 85.2051ZM37.0005 83.9445L37.7121 84.2336L38.1638 83.1219L37.4521 82.8328L37.0005 83.9445ZM39.0627 82.7039L37.7252 82.1606L37.2735 83.2724L38.611 83.8157L39.0627 82.7039ZM38.611 80.1843L37.2735 80.7277L37.7252 81.8395L39.0627 81.2961L38.611 80.1843ZM37.4521 81.1673L38.1638 80.8782L37.7121 79.7664L37.0005 80.0555L37.4521 81.1673ZM38.3693 79.386L38.4754 79.1986L37.4311 78.6075L37.325 78.795L38.3693 79.386ZM39.6383 78.2972L39.5241 77.4989L38.3362 77.6688L38.4504 78.4672L39.6383 78.2972ZM39.0415 77.5679L39.2572 79.0755L40.4451 78.9056L40.2294 77.398L39.0415 77.5679ZM41.9095 78.7625V78.8013H43.1095V78.7625H41.9095ZM40.4668 77.2465L41.6242 78.1699L42.3726 77.2319L41.2152 76.3085L40.4668 77.2465ZM43.1095 78.7625C43.1095 78.1668 42.8383 77.6034 42.3726 77.2319L41.6242 78.1699C41.8045 78.3138 41.9095 78.5319 41.9095 78.7625H43.1095ZM40.1911 80.4694C41.4817 81.2295 43.1095 80.2991 43.1095 78.8013H41.9095C41.9095 79.3707 41.2907 79.7244 40.8001 79.4354L40.1911 80.4694ZM39.2572 79.0755C39.3405 79.6579 39.6842 80.1708 40.1911 80.4694L40.8001 79.4354C40.6074 79.3219 40.4768 79.127 40.4451 78.9056L39.2572 79.0755ZM39.3316 77.7722C39.1941 77.8003 39.0614 77.7068 39.0415 77.5679L40.2294 77.398C40.1515 76.853 39.6307 76.4863 39.0914 76.5965L39.3316 77.7722ZM39.5241 77.4989C39.5423 77.6266 39.458 77.7464 39.3316 77.7722L39.0914 76.5965C38.5955 76.6978 38.2645 77.1679 38.3362 77.6688L39.5241 77.4989ZM38.1716 79.2799C38.8791 79.6967 39.7546 79.1101 39.6383 78.2972L38.4504 78.4672C38.4242 78.2842 38.6213 78.1521 38.7806 78.246L38.1716 79.2799ZM38.4754 79.1986C38.4147 79.3058 38.2778 79.3425 38.1716 79.2799L38.7806 78.246C38.3088 77.9681 37.7008 78.131 37.4311 78.6075L38.4754 79.1986ZM38.2938 79.1044C38.3916 79.1619 38.4252 79.2873 38.3693 79.386L37.325 78.795C37.0584 79.266 37.2185 79.8637 37.6849 80.1383L38.2938 79.1044ZM38.1638 80.8782C38.925 80.5689 39.0018 79.5213 38.2938 79.1044L37.6849 80.1383C37.5364 80.0509 37.5525 79.8313 37.7121 79.7664L38.1638 80.8782ZM37.5881 80.8729C37.6273 80.9915 37.5679 81.1203 37.4521 81.1673L37.0005 80.0555C36.5307 80.2464 36.2895 80.7688 36.4489 81.2501L37.5881 80.8729ZM37.2735 80.7277C37.4006 80.6761 37.5449 80.7427 37.5881 80.8729L36.4489 81.2501C36.6239 81.7786 37.2094 82.049 37.7252 81.8395L37.2735 80.7277ZM40.3432 80.3114C39.8171 80.0015 39.1767 79.9546 38.611 80.1843L39.0627 81.2961C39.282 81.207 39.5302 81.2252 39.7342 81.3454L40.3432 80.3114ZM40.3432 83.6887C41.6301 82.9307 41.6301 81.0693 40.3432 80.3114L39.7342 81.3454C40.2331 81.6392 40.2331 82.3608 39.7342 82.6547L40.3432 83.6887ZM38.611 83.8157C39.1767 84.0455 39.8171 83.9985 40.3432 83.6887L39.7342 82.6547C39.5302 82.7748 39.282 82.793 39.0627 82.7039L38.611 83.8157ZM37.5881 83.1271C37.5449 83.2574 37.4006 83.324 37.2735 83.2724L37.7252 82.1606C37.2094 81.951 36.6239 82.2214 36.4489 82.7499L37.5881 83.1271ZM37.4521 82.8328C37.5679 82.8798 37.6273 83.0085 37.5881 83.1271L36.4489 82.7499C36.2895 83.2313 36.5307 83.7537 37.0005 83.9445L37.4521 82.8328ZM38.2938 84.8957C39.0018 84.4787 38.925 83.4311 38.1638 83.1219L37.7121 84.2336C37.5525 84.1688 37.5364 83.9491 37.6849 83.8617L38.2938 84.8957ZM38.3693 84.614C38.4252 84.7128 38.3916 84.8381 38.2938 84.8957L37.6849 83.8617C37.2185 84.1364 37.0584 84.7341 37.325 85.2051L38.3693 84.614ZM38.1716 84.7201C38.2778 84.6575 38.4147 84.6942 38.4754 84.8015L37.4311 85.3925C37.7008 85.8691 38.3088 86.032 38.7806 85.7541L38.1716 84.7201ZM39.6383 85.7028C39.7546 84.8899 38.8791 84.3034 38.1716 84.7201L38.7806 85.7541C38.6213 85.8479 38.4242 85.7159 38.4504 85.5329L39.6383 85.7028ZM39.3316 86.2279C39.458 86.2537 39.5423 86.3735 39.5241 86.5012L38.3362 86.3312C38.2645 86.8322 38.5955 87.3023 39.0914 87.4036L39.3316 86.2279ZM39.0415 86.4321C39.0614 86.2933 39.1941 86.1998 39.3316 86.2279L39.0914 87.4036C39.6307 87.5138 40.1515 87.147 40.2294 86.6021L39.0415 86.4321ZM40.1911 83.5306C39.6842 83.8292 39.3405 84.3421 39.2572 84.9245L40.4451 85.0945C40.4768 84.8731 40.6074 84.6781 40.8001 84.5646L40.1911 83.5306ZM43.1095 85.1987C43.1095 83.701 41.4817 82.7706 40.1911 83.5306L40.8001 84.5646C41.2907 84.2757 41.9095 84.6294 41.9095 85.1987H43.1095ZM42.3726 86.7681C42.8383 86.3966 43.1095 85.8333 43.1095 85.2375H41.9095C41.9095 85.4681 41.8045 85.6862 41.6242 85.8301L42.3726 86.7681ZM41.2466 87.346C41.3363 87.4491 41.3221 87.6063 41.2152 87.6915L40.4668 86.7535C40.0399 87.0941 39.9828 87.7219 40.3415 88.1339L41.2466 87.346ZM40.9156 87.316C41.0162 87.2358 41.1621 87.249 41.2466 87.346L40.3415 88.1339C40.679 88.5217 41.2621 88.5747 41.664 88.254L40.9156 87.316ZM43.1095 87.6139C43.1095 86.7877 42.1543 86.3278 41.5084 86.8431L42.2568 87.7811C42.1167 87.8929 41.9095 87.7931 41.9095 87.6139H43.1095ZM42.8956 87.4C43.0137 87.4 43.1095 87.4958 43.1095 87.6139H41.9095C41.9095 88.1585 42.351 88.6 42.8956 88.6V87.4ZM42.8905 87.6139C42.8905 87.4958 42.9863 87.4 43.1044 87.4V88.6C43.649 88.6 44.0905 88.1585 44.0905 87.6139H42.8905ZM44.4916 86.8431C43.8457 86.3278 42.8905 86.7877 42.8905 87.6139H44.0905C44.0905 87.7931 43.8833 87.8929 43.7432 87.7811L44.4916 86.8431ZM44.7534 87.346C44.8379 87.249 44.9838 87.2358 45.0844 87.316L44.336 88.254C44.7378 88.5747 45.321 88.5217 45.6585 88.1339L44.7534 87.346ZM44.7848 87.6915C44.6779 87.6063 44.6637 87.4491 44.7534 87.346L45.6585 88.1339C46.0172 87.7219 45.9601 87.0941 45.5332 86.7535L44.7848 87.6915ZM42.8905 85.2375C42.8905 85.8332 43.1617 86.3966 43.6274 86.7681L44.3758 85.8301C44.1955 85.6863 44.0905 85.4681 44.0905 85.2375H42.8905ZM45.8091 83.5306C44.5184 82.7705 42.8905 83.701 42.8905 85.1988H44.0905C44.0905 84.6294 44.7094 84.2756 45.2001 84.5646L45.8091 83.5306ZM46.743 84.9246C46.6597 84.3422 46.316 83.8292 45.8091 83.5306L45.2001 84.5646C45.3928 84.6781 45.5235 84.8731 45.5551 85.0946L46.743 84.9246ZM46.6687 86.2279C46.8061 86.1998 46.9389 86.2933 46.9587 86.4321L45.7708 86.6021C45.8488 87.147 46.3696 87.5138 46.9089 87.4036L46.6687 86.2279ZM46.4762 86.5012C46.4579 86.3735 46.5423 86.2537 46.6687 86.2279L46.9089 87.4036C47.4047 87.3023 47.7358 86.8322 47.6641 86.3312L46.4762 86.5012ZM47.8287 84.7201C47.1211 84.3034 46.2457 84.8899 46.362 85.7028L47.5499 85.5329C47.5761 85.7159 47.379 85.8479 47.2197 85.7541L47.8287 84.7201ZM47.5249 84.8015C47.5856 84.6942 47.7224 84.6575 47.8287 84.7201L47.2197 85.7541C47.6915 86.032 48.2995 85.8691 48.5692 85.3925L47.5249 84.8015ZM47.7064 84.8957C47.6086 84.8381 47.5751 84.7128 47.631 84.614L48.6753 85.2051C48.9419 84.7341 48.7817 84.1364 48.3154 83.8617L47.7064 84.8957ZM47.8365 83.1219C47.0753 83.4311 46.9984 84.4787 47.7064 84.8957L48.3154 83.8617C48.4638 83.9491 48.4477 84.1688 48.2881 84.2336L47.8365 83.1219ZM48.4122 83.1271C48.3729 83.0085 48.4324 82.8798 48.5481 82.8328L48.9998 83.9445C49.4695 83.7537 49.7108 83.2313 49.5514 82.7499L48.4122 83.1271ZM48.7267 83.2724C48.5996 83.324 48.4553 83.2574 48.4122 83.1271L49.5514 82.7499C49.3764 82.2214 48.7909 81.951 48.2751 82.1606L48.7267 83.2724ZM45.6571 83.6887C46.1831 83.9985 46.8236 84.0455 47.3892 83.8157L46.9376 82.7039C46.7183 82.793 46.47 82.7748 46.2661 82.6547L45.6571 83.6887ZM45.6571 80.3114C44.3701 81.0693 44.3701 82.9307 45.6571 83.6887L46.2661 82.6547C45.7671 82.3608 45.7671 81.6392 46.2661 81.3454L45.6571 80.3114ZM47.3892 80.1843C46.8236 79.9546 46.1831 80.0015 45.6571 80.3114L46.2661 81.3454C46.47 81.2252 46.7183 81.207 46.9376 81.2961L47.3892 80.1843ZM48.4122 80.8729C48.4553 80.7427 48.5996 80.6761 48.7267 80.7277L48.2751 81.8395C48.7909 82.049 49.3764 81.7786 49.5514 81.2501L48.4122 80.8729ZM48.5481 81.1673C48.4324 81.1203 48.3729 80.9915 48.4122 80.8729L49.5514 81.2501C49.7108 80.7688 49.4695 80.2464 48.9998 80.0555L48.5481 81.1673ZM47.7064 79.1044C46.9984 79.5213 47.0753 80.5689 47.8365 80.8782L48.2881 79.7664C48.4477 79.8313 48.4638 80.0509 48.3154 80.1383L47.7064 79.1044ZM47.631 79.386C47.5751 79.2873 47.6086 79.1619 47.7064 79.1044L48.3154 80.1383C48.7817 79.8637 48.9419 79.266 48.6753 78.795L47.631 79.386ZM47.8287 79.2799C47.7224 79.3425 47.5856 79.3058 47.5249 79.1986L48.5692 78.6075C48.2995 78.131 47.6915 77.9681 47.2197 78.246L47.8287 79.2799ZM46.362 78.2972C46.2457 79.1101 47.1211 79.6967 47.8287 79.2799L47.2197 78.246C47.379 78.1521 47.5761 78.2842 47.5499 78.4672L46.362 78.2972ZM46.6687 77.7722C46.5423 77.7464 46.4579 77.6266 46.4762 77.4989L47.6641 77.6688C47.7358 77.1679 47.4047 76.6978 46.9089 76.5965L46.6687 77.7722ZM46.9587 77.5679C46.9389 77.7068 46.8061 77.8003 46.6687 77.7722L46.9089 76.5965C46.3696 76.4863 45.8488 76.853 45.7708 77.398L46.9587 77.5679ZM45.8091 80.4694C46.316 80.1708 46.6597 79.6579 46.7431 79.0754L45.5551 78.9055C45.5235 79.1269 45.3928 79.3219 45.2001 79.4355L45.8091 80.4694ZM42.8905 78.8013C42.8905 80.2991 44.5184 81.2296 45.8091 80.4694L45.2001 79.4355C44.7094 79.7244 44.0905 79.3707 44.0905 78.8013H42.8905ZM43.6274 77.2318C43.1617 77.6034 42.8905 78.1668 42.8905 78.7625H44.0905C44.0905 78.5319 44.1955 78.3137 44.3758 78.1699L43.6274 77.2318ZM44.7534 76.654C44.6637 76.5508 44.6779 76.3937 44.7848 76.3085L45.5332 77.2465C45.9601 76.9059 46.0172 76.2781 45.6585 75.8661L44.7534 76.654ZM45.0844 76.684C44.9838 76.7642 44.8379 76.751 44.7534 76.654L45.6585 75.8661C45.321 75.4783 44.7378 75.4253 44.336 75.746L45.0844 76.684ZM42.8905 76.3861C42.8905 77.2123 43.8457 77.6722 44.4916 77.1569L43.7432 76.2189C43.8833 76.1071 44.0905 76.2069 44.0905 76.3861H42.8905ZM43.1044 76.6C42.9863 76.6 42.8905 76.5042 42.8905 76.3861H44.0905C44.0905 75.8415 43.649 75.4 43.1044 75.4V76.6ZM43.1095 76.3861C43.1095 76.5042 43.0137 76.6 42.8956 76.6V75.4C42.351 75.4 41.9095 75.8415 41.9095 76.3861H43.1095ZM41.5084 77.1569C42.1543 77.6722 43.1095 77.2123 43.1095 76.3861H41.9095C41.9095 76.2069 42.1167 76.1071 42.2568 76.2189L41.5084 77.1569ZM40.3415 75.8661C39.9828 76.2781 40.0399 76.9059 40.4668 77.2465L41.2152 76.3085C41.3221 76.3937 41.3363 76.5509 41.2466 76.654L40.3415 75.8661ZM41.2466 76.654C41.1621 76.751 41.0162 76.7642 40.9156 76.684L41.664 75.746C41.2621 75.4253 40.679 75.4783 40.3415 75.8661L41.2466 76.654Z" fill="#36426F" fill-opacity="0.15" mask="url(#path-3-outside-1_407_657)"/>
<mask id="path-5-outside-2_407_657" maskUnits="userSpaceOnUse" x="50" y="75" width="14" height="14" fill="black">
<rect fill="white" x="50" y="75" width="14" height="14"/>
<path fill-rule="evenodd" clip-rule="evenodd" d="M54.841 76.7775C54.681 76.6498 54.6596 76.4145 54.794 76.26C54.9206 76.1146 55.1392 76.0948 55.2898 76.215L55.8826 76.6879C56.1355 76.8897 56.5095 76.7096 56.5095 76.3861C56.5095 76.1729 56.6823 76 56.8956 76H57.1044C57.3176 76 57.4905 76.1729 57.4905 76.3861C57.4905 76.7096 57.8645 76.8897 58.1174 76.6879L58.7102 76.215C58.8608 76.0948 59.0794 76.1146 59.206 76.26C59.3404 76.4145 59.319 76.6498 59.159 76.7775L58.0016 77.7009C57.6786 77.9586 57.4905 78.3493 57.4905 78.7625V78.8013C57.4905 79.8349 58.6139 80.477 59.5046 79.9525C59.8544 79.7464 60.0916 79.3924 60.1491 78.9905L60.3648 77.4829C60.3938 77.2799 60.5878 77.1433 60.7888 77.1843C60.9735 77.2221 61.0968 77.3972 61.0701 77.5838L60.9559 78.3822C60.9109 78.6972 61.25 78.9244 61.5242 78.763C61.707 78.6553 61.9425 78.7184 62.047 78.903L62.1531 79.0905C62.2585 79.2766 62.1952 79.5128 62.0109 79.6213C61.7311 79.7861 61.7615 80.2001 62.0623 80.3223L62.774 80.6114C62.9509 80.6833 63.0418 80.8802 62.9818 81.0615C62.9159 81.2607 62.6952 81.3625 62.5009 81.2836L61.1634 80.7402C60.7709 80.5808 60.3266 80.6134 59.9616 80.8284C59.0686 81.3543 59.0686 82.6458 59.9616 83.1717C60.3266 83.3867 60.7709 83.4193 61.1634 83.2598L62.5009 82.7165C62.6952 82.6375 62.9159 82.7394 62.9818 82.9385C63.0418 83.1199 62.9509 83.3167 62.774 83.3886L62.0623 83.6777C61.7615 83.8 61.7311 84.2139 62.0109 84.3787C62.1952 84.4872 62.2585 84.7234 62.1531 84.9096L62.047 85.097C61.9425 85.2817 61.707 85.3448 61.5242 85.2371C61.25 85.0756 60.9109 85.3029 60.9559 85.6178L61.0701 86.4162C61.0968 86.6028 60.9735 86.778 60.7888 86.8157C60.5878 86.8568 60.3938 86.7201 60.3648 86.5171L60.1491 85.0096C60.0916 84.6076 59.8544 84.2537 59.5046 84.0476C58.6139 83.523 57.4905 84.1652 57.4905 85.1988V85.2375C57.4905 85.6507 57.6786 86.0414 58.0016 86.2991L59.159 87.2225C59.319 87.3502 59.3404 87.5855 59.206 87.74C59.0794 87.8854 58.8608 87.9052 58.7102 87.785L58.1174 87.3121C57.8645 87.1103 57.4905 87.2904 57.4905 87.6139C57.4905 87.8271 57.3176 88 57.1044 88H56.8956C56.6823 88 56.5095 87.8271 56.5095 87.6139C56.5095 87.2904 56.1355 87.1103 55.8826 87.3121L55.2898 87.785C55.1392 87.9052 54.9206 87.8854 54.794 87.74C54.6596 87.5855 54.681 87.3502 54.841 87.2225L55.9984 86.2991C56.3214 86.0414 56.5095 85.6507 56.5095 85.2375V85.1987C56.5095 84.1652 55.3862 83.5231 54.4956 84.0476C54.1458 84.2537 53.9087 84.6076 53.8512 85.0095L53.6355 86.5171C53.6064 86.7201 53.4124 86.8568 53.2115 86.8157C53.0268 86.778 52.9034 86.6028 52.9301 86.4162L53.0443 85.6178C53.0894 85.3029 52.7502 85.0756 52.4761 85.2371C52.2933 85.3448 52.0577 85.2817 51.9532 85.097L51.8471 84.9096C51.7418 84.7234 51.8051 84.4872 51.9894 84.3787C52.2691 84.2139 52.2388 83.7999 51.938 83.6777L51.2263 83.3886C51.0493 83.3167 50.9584 83.1199 51.0185 82.9385C51.0844 82.7394 51.305 82.6375 51.4994 82.7165L52.8368 83.2598C53.2293 83.4193 53.6737 83.3867 54.0387 83.1717C54.9316 82.6458 54.9316 81.3543 54.0387 80.8284C53.6737 80.6134 53.2293 80.5808 52.8368 80.7402L51.4994 81.2836C51.305 81.3625 51.0844 81.2607 51.0185 81.0615C50.9584 80.8802 51.0493 80.6833 51.2263 80.6114L51.938 80.3223C52.2388 80.2001 52.2691 79.7861 51.9894 79.6213C51.8051 79.5128 51.7418 79.2766 51.8471 79.0905L51.9532 78.903C52.0577 78.7184 52.2933 78.6553 52.4761 78.763C52.7502 78.9244 53.0894 78.6971 53.0443 78.3822L52.9301 77.5838C52.9034 77.3972 53.0268 77.2221 53.2115 77.1843C53.4124 77.1433 53.6064 77.2799 53.6355 77.4829L53.8512 78.9905C53.9087 79.3924 54.1458 79.7464 54.4956 79.9524C55.3862 80.4769 56.5095 79.8349 56.5095 78.8013V78.7625C56.5095 78.3493 56.3214 77.9586 55.9984 77.7009L54.841 76.7775Z"/>
</mask>
<path fill-rule="evenodd" clip-rule="evenodd" d="M54.841 76.7775C54.681 76.6498 54.6596 76.4145 54.794 76.26C54.9206 76.1146 55.1392 76.0948 55.2898 76.215L55.8826 76.6879C56.1355 76.8897 56.5095 76.7096 56.5095 76.3861C56.5095 76.1729 56.6823 76 56.8956 76H57.1044C57.3176 76 57.4905 76.1729 57.4905 76.3861C57.4905 76.7096 57.8645 76.8897 58.1174 76.6879L58.7102 76.215C58.8608 76.0948 59.0794 76.1146 59.206 76.26C59.3404 76.4145 59.319 76.6498 59.159 76.7775L58.0016 77.7009C57.6786 77.9586 57.4905 78.3493 57.4905 78.7625V78.8013C57.4905 79.8349 58.6139 80.477 59.5046 79.9525C59.8544 79.7464 60.0916 79.3924 60.1491 78.9905L60.3648 77.4829C60.3938 77.2799 60.5878 77.1433 60.7888 77.1843C60.9735 77.2221 61.0968 77.3972 61.0701 77.5838L60.9559 78.3822C60.9109 78.6972 61.25 78.9244 61.5242 78.763C61.707 78.6553 61.9425 78.7184 62.047 78.903L62.1531 79.0905C62.2585 79.2766 62.1952 79.5128 62.0109 79.6213C61.7311 79.7861 61.7615 80.2001 62.0623 80.3223L62.774 80.6114C62.9509 80.6833 63.0418 80.8802 62.9818 81.0615C62.9159 81.2607 62.6952 81.3625 62.5009 81.2836L61.1634 80.7402C60.7709 80.5808 60.3266 80.6134 59.9616 80.8284C59.0686 81.3543 59.0686 82.6458 59.9616 83.1717C60.3266 83.3867 60.7709 83.4193 61.1634 83.2598L62.5009 82.7165C62.6952 82.6375 62.9159 82.7394 62.9818 82.9385C63.0418 83.1199 62.9509 83.3167 62.774 83.3886L62.0623 83.6777C61.7615 83.8 61.7311 84.2139 62.0109 84.3787C62.1952 84.4872 62.2585 84.7234 62.1531 84.9096L62.047 85.097C61.9425 85.2817 61.707 85.3448 61.5242 85.2371C61.25 85.0756 60.9109 85.3029 60.9559 85.6178L61.0701 86.4162C61.0968 86.6028 60.9735 86.778 60.7888 86.8157C60.5878 86.8568 60.3938 86.7201 60.3648 86.5171L60.1491 85.0096C60.0916 84.6076 59.8544 84.2537 59.5046 84.0476C58.6139 83.523 57.4905 84.1652 57.4905 85.1988V85.2375C57.4905 85.6507 57.6786 86.0414 58.0016 86.2991L59.159 87.2225C59.319 87.3502 59.3404 87.5855 59.206 87.74C59.0794 87.8854 58.8608 87.9052 58.7102 87.785L58.1174 87.3121C57.8645 87.1103 57.4905 87.2904 57.4905 87.6139C57.4905 87.8271 57.3176 88 57.1044 88H56.8956C56.6823 88 56.5095 87.8271 56.5095 87.6139C56.5095 87.2904 56.1355 87.1103 55.8826 87.3121L55.2898 87.785C55.1392 87.9052 54.9206 87.8854 54.794 87.74C54.6596 87.5855 54.681 87.3502 54.841 87.2225L55.9984 86.2991C56.3214 86.0414 56.5095 85.6507 56.5095 85.2375V85.1987C56.5095 84.1652 55.3862 83.5231 54.4956 84.0476C54.1458 84.2537 53.9087 84.6076 53.8512 85.0095L53.6355 86.5171C53.6064 86.7201 53.4124 86.8568 53.2115 86.8157C53.0268 86.778 52.9034 86.6028 52.9301 86.4162L53.0443 85.6178C53.0894 85.3029 52.7502 85.0756 52.4761 85.2371C52.2933 85.3448 52.0577 85.2817 51.9532 85.097L51.8471 84.9096C51.7418 84.7234 51.8051 84.4872 51.9894 84.3787C52.2691 84.2139 52.2388 83.7999 51.938 83.6777L51.2263 83.3886C51.0493 83.3167 50.9584 83.1199 51.0185 82.9385C51.0844 82.7394 51.305 82.6375 51.4994 82.7165L52.8368 83.2598C53.2293 83.4193 53.6737 83.3867 54.0387 83.1717C54.9316 82.6458 54.9316 81.3543 54.0387 80.8284C53.6737 80.6134 53.2293 80.5808 52.8368 80.7402L51.4994 81.2836C51.305 81.3625 51.0844 81.2607 51.0185 81.0615C50.9584 80.8802 51.0493 80.6833 51.2263 80.6114L51.938 80.3223C52.2388 80.2001 52.2691 79.7861 51.9894 79.6213C51.8051 79.5128 51.7418 79.2766 51.8471 79.0905L51.9532 78.903C52.0577 78.7184 52.2933 78.6553 52.4761 78.763C52.7502 78.9244 53.0894 78.6971 53.0443 78.3822L52.9301 77.5838C52.9034 77.3972 53.0268 77.2221 53.2115 77.1843C53.4124 77.1433 53.6064 77.2799 53.6355 77.4829L53.8512 78.9905C53.9087 79.3924 54.1458 79.7464 54.4956 79.9524C55.3862 80.4769 56.5095 79.8349 56.5095 78.8013V78.7625C56.5095 78.3493 56.3214 77.9586 55.9984 77.7009L54.841 76.7775Z" fill="url(#paint2_linear_407_657)"/>
<path d="M55.9984 77.7009L55.6242 78.1699L55.9984 77.7009ZM53.8512 78.9905L53.2572 79.0755L53.8512 78.9905ZM53.0443 78.3822L53.6383 78.2972L53.0443 78.3822ZM51.9532 78.903L51.4311 78.6075L51.9532 78.903ZM51.8471 79.0905L51.325 78.795L51.8471 79.0905ZM51.938 80.3223L51.7121 79.7664L51.938 80.3223ZM51.2263 80.6114L51.4521 81.1673L51.2263 80.6114ZM51.4994 81.2836L51.7252 81.8395L51.4994 81.2836ZM52.8368 80.7402L52.611 80.1843L52.8368 80.7402ZM52.8368 83.2598L53.0627 82.7039L52.8368 83.2598ZM51.4994 82.7165L51.2735 83.2724L51.4994 82.7165ZM51.2263 83.3886L51.0005 83.9445L51.2263 83.3886ZM51.938 83.6777L51.7121 84.2336L51.938 83.6777ZM51.8471 84.9096L52.3693 84.614L51.8471 84.9096ZM51.9532 85.097L51.4311 85.3925L51.9532 85.097ZM53.0443 85.6178L53.6383 85.7028L53.0443 85.6178ZM52.9301 86.4162L52.3362 86.3312L52.9301 86.4162ZM53.6355 86.5171L53.0415 86.4321L53.6355 86.5171ZM55.9984 86.2991L56.3726 86.7681L55.9984 86.2991ZM54.841 87.2225L55.2152 87.6915L54.841 87.2225ZM55.2898 87.785L55.664 88.254L55.2898 87.785ZM55.8826 87.3121L56.2568 87.7811L55.8826 87.3121ZM58.1174 87.3121L57.7432 87.7811L58.1174 87.3121ZM58.7102 87.785L58.336 88.254L58.7102 87.785ZM59.159 87.2225L58.7848 87.6915L59.159 87.2225ZM60.1491 85.0096L60.743 84.9246L60.1491 85.0096ZM60.3648 86.5171L60.9587 86.4321L60.3648 86.5171ZM61.0701 86.4162L60.4762 86.5012L61.0701 86.4162ZM62.047 85.097L61.5249 84.8015L62.047 85.097ZM62.1531 84.9096L62.6753 85.2051L62.1531 84.9096ZM62.0623 83.6777L61.8365 83.1219L62.0623 83.6777ZM62.774 83.3886L62.9998 83.9445L62.774 83.3886ZM62.5009 82.7165L62.2751 82.1606L62.5009 82.7165ZM61.1634 83.2598L60.9376 82.7039L61.1634 83.2598ZM61.1634 80.7402L60.9376 81.2961L61.1634 80.7402ZM62.5009 81.2836L62.7267 80.7277L62.5009 81.2836ZM62.774 80.6114L62.9998 80.0555L62.774 80.6114ZM62.0623 80.3223L61.8365 80.8782L62.0623 80.3223ZM62.1531 79.0905L62.6753 78.795L62.1531 79.0905ZM62.047 78.903L61.5249 79.1986L62.047 78.903ZM60.9559 78.3822L60.362 78.2972L60.9559 78.3822ZM61.0701 77.5838L61.6641 77.6688L61.0701 77.5838ZM60.3648 77.4829L60.9587 77.5679L60.3648 77.4829ZM60.1491 78.9905L59.5551 78.9055L60.1491 78.9905ZM59.159 76.7775L59.5332 77.2465L59.159 76.7775ZM58.7102 76.215L58.336 75.746L58.7102 76.215ZM58.1174 76.6879L58.4916 77.1569L58.1174 76.6879ZM55.8826 76.6879L56.2568 76.2189L55.8826 76.6879ZM55.2898 76.215L55.664 75.746L55.2898 76.215ZM56.2568 76.2189L55.664 75.746L54.9156 76.684L55.5084 77.1569L56.2568 76.2189ZM57.1044 75.4H56.8956V76.6H57.1044V75.4ZM58.336 75.746L57.7432 76.2189L58.4916 77.1569L59.0844 76.684L58.336 75.746ZM58.3758 78.1699L59.5332 77.2465L58.7848 76.3085L57.6274 77.2318L58.3758 78.1699ZM58.0905 78.8013V78.7625H56.8905V78.8013H58.0905ZM59.7708 77.398L59.5551 78.9055L60.7431 79.0754L60.9587 77.5679L59.7708 77.398ZM61.5499 78.4672L61.6641 77.6688L60.4762 77.4989L60.362 78.2972L61.5499 78.4672ZM62.6753 78.795L62.5692 78.6075L61.5249 79.1986L61.631 79.386L62.6753 78.795ZM62.9998 80.0555L62.2881 79.7664L61.8365 80.8782L62.5481 81.1673L62.9998 80.0555ZM60.9376 81.2961L62.2751 81.8395L62.7267 80.7277L61.3892 80.1843L60.9376 81.2961ZM61.3892 83.8157L62.7267 83.2724L62.2751 82.1606L60.9376 82.7039L61.3892 83.8157ZM62.5481 82.8328L61.8365 83.1219L62.2881 84.2336L62.9998 83.9445L62.5481 82.8328ZM61.631 84.614L61.5249 84.8015L62.5692 85.3925L62.6753 85.2051L61.631 84.614ZM60.362 85.7028L60.4762 86.5012L61.6641 86.3312L61.5499 85.5329L60.362 85.7028ZM60.9587 86.4321L60.743 84.9246L59.5551 85.0946L59.7708 86.6021L60.9587 86.4321ZM58.0905 85.2375V85.1988H56.8905V85.2375H58.0905ZM59.5332 86.7535L58.3758 85.8301L57.6274 86.7681L58.7848 87.6915L59.5332 86.7535ZM57.7432 87.7811L58.336 88.254L59.0844 87.316L58.4916 86.8431L57.7432 87.7811ZM56.8956 88.6H57.1044V87.4H56.8956V88.6ZM55.664 88.254L56.2568 87.7811L55.5084 86.8431L54.9156 87.316L55.664 88.254ZM55.6242 85.8301L54.4668 86.7535L55.2152 87.6915L56.3726 86.7681L55.6242 85.8301ZM55.9095 85.1987V85.2375H57.1095V85.1987H55.9095ZM54.2294 86.6021L54.4451 85.0945L53.2572 84.9245L53.0415 86.4321L54.2294 86.6021ZM52.4504 85.5329L52.3362 86.3312L53.5241 86.5012L53.6383 85.7028L52.4504 85.5329ZM51.325 85.2051L51.4311 85.3925L52.4754 84.8015L52.3693 84.614L51.325 85.2051ZM51.0005 83.9445L51.7121 84.2336L52.1638 83.1219L51.4521 82.8328L51.0005 83.9445ZM53.0627 82.7039L51.7252 82.1606L51.2735 83.2724L52.611 83.8157L53.0627 82.7039ZM52.611 80.1843L51.2735 80.7277L51.7252 81.8395L53.0627 81.2961L52.611 80.1843ZM51.4521 81.1673L52.1638 80.8782L51.7121 79.7664L51.0005 80.0555L51.4521 81.1673ZM52.3693 79.386L52.4754 79.1986L51.4311 78.6075L51.325 78.795L52.3693 79.386ZM53.6383 78.2972L53.5241 77.4989L52.3362 77.6688L52.4504 78.4672L53.6383 78.2972ZM53.0415 77.5679L53.2572 79.0755L54.4451 78.9056L54.2294 77.398L53.0415 77.5679ZM55.9095 78.7625V78.8013H57.1095V78.7625H55.9095ZM54.4668 77.2465L55.6242 78.1699L56.3726 77.2319L55.2152 76.3085L54.4668 77.2465ZM57.1095 78.7625C57.1095 78.1668 56.8383 77.6034 56.3726 77.2319L55.6242 78.1699C55.8045 78.3138 55.9095 78.5319 55.9095 78.7625H57.1095ZM54.1911 80.4694C55.4817 81.2295 57.1095 80.2991 57.1095 78.8013H55.9095C55.9095 79.3707 55.2907 79.7244 54.8001 79.4354L54.1911 80.4694ZM53.2572 79.0755C53.3405 79.6579 53.6842 80.1708 54.1911 80.4694L54.8001 79.4354C54.6074 79.3219 54.4768 79.127 54.4451 78.9056L53.2572 79.0755ZM53.3316 77.7722C53.1941 77.8003 53.0614 77.7068 53.0415 77.5679L54.2294 77.398C54.1515 76.853 53.6307 76.4863 53.0914 76.5965L53.3316 77.7722ZM53.5241 77.4989C53.5423 77.6266 53.458 77.7464 53.3316 77.7722L53.0914 76.5965C52.5955 76.6978 52.2645 77.1679 52.3362 77.6688L53.5241 77.4989ZM52.1716 79.2799C52.8791 79.6967 53.7546 79.1101 53.6383 78.2972L52.4504 78.4672C52.4242 78.2842 52.6213 78.1521 52.7806 78.246L52.1716 79.2799ZM52.4754 79.1986C52.4147 79.3058 52.2778 79.3425 52.1716 79.2799L52.7806 78.246C52.3088 77.9681 51.7008 78.131 51.4311 78.6075L52.4754 79.1986ZM52.2938 79.1044C52.3916 79.1619 52.4252 79.2873 52.3693 79.386L51.325 78.795C51.0584 79.266 51.2185 79.8637 51.6849 80.1383L52.2938 79.1044ZM52.1638 80.8782C52.925 80.5689 53.0018 79.5213 52.2938 79.1044L51.6849 80.1383C51.5364 80.0509 51.5525 79.8313 51.7121 79.7664L52.1638 80.8782ZM51.5881 80.8729C51.6273 80.9915 51.5679 81.1203 51.4521 81.1673L51.0005 80.0555C50.5307 80.2464 50.2895 80.7688 50.4489 81.2501L51.5881 80.8729ZM51.2735 80.7277C51.4006 80.6761 51.5449 80.7427 51.5881 80.8729L50.4489 81.2501C50.6239 81.7786 51.2094 82.049 51.7252 81.8395L51.2735 80.7277ZM54.3432 80.3114C53.8171 80.0015 53.1767 79.9546 52.611 80.1843L53.0627 81.2961C53.282 81.207 53.5302 81.2252 53.7342 81.3454L54.3432 80.3114ZM54.3432 83.6887C55.6301 82.9307 55.6301 81.0693 54.3432 80.3114L53.7342 81.3454C54.2331 81.6392 54.2331 82.3608 53.7342 82.6547L54.3432 83.6887ZM52.611 83.8157C53.1767 84.0455 53.8171 83.9985 54.3432 83.6887L53.7342 82.6547C53.5302 82.7748 53.282 82.793 53.0627 82.7039L52.611 83.8157ZM51.5881 83.1271C51.5449 83.2574 51.4006 83.324 51.2735 83.2724L51.7252 82.1606C51.2094 81.951 50.6239 82.2214 50.4489 82.7499L51.5881 83.1271ZM51.4521 82.8328C51.5679 82.8798 51.6273 83.0085 51.5881 83.1271L50.4489 82.7499C50.2895 83.2313 50.5307 83.7537 51.0005 83.9445L51.4521 82.8328ZM52.2938 84.8957C53.0018 84.4787 52.925 83.4311 52.1638 83.1219L51.7121 84.2336C51.5525 84.1688 51.5364 83.9491 51.6849 83.8617L52.2938 84.8957ZM52.3693 84.614C52.4252 84.7128 52.3916 84.8381 52.2938 84.8957L51.6849 83.8617C51.2185 84.1364 51.0584 84.7341 51.325 85.2051L52.3693 84.614ZM52.1716 84.7201C52.2778 84.6575 52.4147 84.6942 52.4754 84.8015L51.4311 85.3925C51.7008 85.8691 52.3088 86.032 52.7806 85.7541L52.1716 84.7201ZM53.6383 85.7028C53.7546 84.8899 52.8791 84.3034 52.1716 84.7201L52.7806 85.7541C52.6213 85.8479 52.4242 85.7159 52.4504 85.5329L53.6383 85.7028ZM53.3316 86.2279C53.458 86.2537 53.5423 86.3735 53.5241 86.5012L52.3362 86.3312C52.2645 86.8322 52.5955 87.3023 53.0914 87.4036L53.3316 86.2279ZM53.0415 86.4321C53.0614 86.2933 53.1941 86.1998 53.3316 86.2279L53.0914 87.4036C53.6307 87.5138 54.1515 87.147 54.2294 86.6021L53.0415 86.4321ZM54.1911 83.5306C53.6842 83.8292 53.3405 84.3421 53.2572 84.9245L54.4451 85.0945C54.4768 84.8731 54.6074 84.6781 54.8001 84.5646L54.1911 83.5306ZM57.1095 85.1987C57.1095 83.701 55.4817 82.7706 54.1911 83.5306L54.8001 84.5646C55.2907 84.2757 55.9095 84.6294 55.9095 85.1987H57.1095ZM56.3726 86.7681C56.8383 86.3966 57.1095 85.8333 57.1095 85.2375H55.9095C55.9095 85.4681 55.8045 85.6862 55.6242 85.8301L56.3726 86.7681ZM55.2466 87.346C55.3363 87.4491 55.3221 87.6063 55.2152 87.6915L54.4668 86.7535C54.0399 87.0941 53.9828 87.7219 54.3415 88.1339L55.2466 87.346ZM54.9156 87.316C55.0162 87.2358 55.1621 87.249 55.2466 87.346L54.3415 88.1339C54.679 88.5217 55.2621 88.5747 55.664 88.254L54.9156 87.316ZM57.1095 87.6139C57.1095 86.7877 56.1543 86.3278 55.5084 86.8431L56.2568 87.7811C56.1167 87.8929 55.9095 87.7931 55.9095 87.6139H57.1095ZM56.8956 87.4C57.0137 87.4 57.1095 87.4958 57.1095 87.6139H55.9095C55.9095 88.1585 56.351 88.6 56.8956 88.6V87.4ZM56.8905 87.6139C56.8905 87.4958 56.9863 87.4 57.1044 87.4V88.6C57.649 88.6 58.0905 88.1585 58.0905 87.6139H56.8905ZM58.4916 86.8431C57.8457 86.3278 56.8905 86.7877 56.8905 87.6139H58.0905C58.0905 87.7931 57.8833 87.8929 57.7432 87.7811L58.4916 86.8431ZM58.7534 87.346C58.8379 87.249 58.9838 87.2358 59.0844 87.316L58.336 88.254C58.7378 88.5747 59.321 88.5217 59.6585 88.1339L58.7534 87.346ZM58.7848 87.6915C58.6779 87.6063 58.6637 87.4491 58.7534 87.346L59.6585 88.1339C60.0172 87.7219 59.9601 87.0941 59.5332 86.7535L58.7848 87.6915ZM56.8905 85.2375C56.8905 85.8332 57.1617 86.3966 57.6274 86.7681L58.3758 85.8301C58.1955 85.6863 58.0905 85.4681 58.0905 85.2375H56.8905ZM59.8091 83.5306C58.5184 82.7705 56.8905 83.701 56.8905 85.1988H58.0905C58.0905 84.6294 58.7094 84.2756 59.2001 84.5646L59.8091 83.5306ZM60.743 84.9246C60.6597 84.3422 60.316 83.8292 59.8091 83.5306L59.2001 84.5646C59.3928 84.6781 59.5235 84.8731 59.5551 85.0946L60.743 84.9246ZM60.6687 86.2279C60.8061 86.1998 60.9389 86.2933 60.9587 86.4321L59.7708 86.6021C59.8488 87.147 60.3696 87.5138 60.9089 87.4036L60.6687 86.2279ZM60.4762 86.5012C60.4579 86.3735 60.5423 86.2537 60.6687 86.2279L60.9089 87.4036C61.4047 87.3023 61.7358 86.8322 61.6641 86.3312L60.4762 86.5012ZM61.8287 84.7201C61.1211 84.3034 60.2457 84.8899 60.362 85.7028L61.5499 85.5329C61.5761 85.7159 61.379 85.8479 61.2197 85.7541L61.8287 84.7201ZM61.5249 84.8015C61.5856 84.6942 61.7224 84.6575 61.8287 84.7201L61.2197 85.7541C61.6915 86.032 62.2995 85.8691 62.5692 85.3925L61.5249 84.8015ZM61.7064 84.8957C61.6086 84.8381 61.5751 84.7128 61.631 84.614L62.6753 85.2051C62.9419 84.7341 62.7817 84.1364 62.3154 83.8617L61.7064 84.8957ZM61.8365 83.1219C61.0753 83.4311 60.9984 84.4787 61.7064 84.8957L62.3154 83.8617C62.4638 83.9491 62.4477 84.1688 62.2881 84.2336L61.8365 83.1219ZM62.4122 83.1271C62.3729 83.0085 62.4324 82.8798 62.5481 82.8328L62.9998 83.9445C63.4695 83.7537 63.7108 83.2313 63.5514 82.7499L62.4122 83.1271ZM62.7267 83.2724C62.5996 83.324 62.4553 83.2574 62.4122 83.1271L63.5514 82.7499C63.3764 82.2214 62.7909 81.951 62.2751 82.1606L62.7267 83.2724ZM59.6571 83.6887C60.1831 83.9985 60.8236 84.0455 61.3892 83.8157L60.9376 82.7039C60.7183 82.793 60.47 82.7748 60.2661 82.6547L59.6571 83.6887ZM59.6571 80.3114C58.3701 81.0693 58.3701 82.9307 59.6571 83.6887L60.2661 82.6547C59.7671 82.3608 59.7671 81.6392 60.2661 81.3454L59.6571 80.3114ZM61.3892 80.1843C60.8236 79.9546 60.1831 80.0015 59.6571 80.3114L60.2661 81.3454C60.47 81.2252 60.7183 81.207 60.9376 81.2961L61.3892 80.1843ZM62.4122 80.8729C62.4553 80.7427 62.5996 80.6761 62.7267 80.7277L62.2751 81.8395C62.7909 82.049 63.3764 81.7786 63.5514 81.2501L62.4122 80.8729ZM62.5481 81.1673C62.4324 81.1203 62.3729 80.9915 62.4122 80.8729L63.5514 81.2501C63.7108 80.7688 63.4695 80.2464 62.9998 80.0555L62.5481 81.1673ZM61.7064 79.1044C60.9984 79.5213 61.0753 80.5689 61.8365 80.8782L62.2881 79.7664C62.4477 79.8313 62.4638 80.0509 62.3154 80.1383L61.7064 79.1044ZM61.631 79.386C61.5751 79.2873 61.6086 79.1619 61.7064 79.1044L62.3154 80.1383C62.7817 79.8637 62.9419 79.266 62.6753 78.795L61.631 79.386ZM61.8287 79.2799C61.7224 79.3425 61.5856 79.3058 61.5249 79.1986L62.5692 78.6075C62.2995 78.131 61.6915 77.9681 61.2197 78.246L61.8287 79.2799ZM60.362 78.2972C60.2457 79.1101 61.1211 79.6967 61.8287 79.2799L61.2197 78.246C61.379 78.1521 61.5761 78.2842 61.5499 78.4672L60.362 78.2972ZM60.6687 77.7722C60.5423 77.7464 60.4579 77.6266 60.4762 77.4989L61.6641 77.6688C61.7358 77.1679 61.4047 76.6978 60.9089 76.5965L60.6687 77.7722ZM60.9587 77.5679C60.9389 77.7068 60.8061 77.8003 60.6687 77.7722L60.9089 76.5965C60.3696 76.4863 59.8488 76.853 59.7708 77.398L60.9587 77.5679ZM59.8091 80.4694C60.316 80.1708 60.6597 79.6579 60.7431 79.0754L59.5551 78.9055C59.5235 79.1269 59.3928 79.3219 59.2001 79.4355L59.8091 80.4694ZM56.8905 78.8013C56.8905 80.2991 58.5184 81.2296 59.8091 80.4694L59.2001 79.4355C58.7094 79.7244 58.0905 79.3707 58.0905 78.8013H56.8905ZM57.6274 77.2318C57.1617 77.6034 56.8905 78.1668 56.8905 78.7625H58.0905C58.0905 78.5319 58.1955 78.3137 58.3758 78.1699L57.6274 77.2318ZM58.7534 76.654C58.6637 76.5508 58.6779 76.3937 58.7848 76.3085L59.5332 77.2465C59.9601 76.9059 60.0172 76.2781 59.6585 75.8661L58.7534 76.654ZM59.0844 76.684C58.9838 76.7642 58.8379 76.751 58.7534 76.654L59.6585 75.8661C59.321 75.4783 58.7378 75.4253 58.336 75.746L59.0844 76.684ZM56.8905 76.3861C56.8905 77.2123 57.8457 77.6722 58.4916 77.1569L57.7432 76.2189C57.8833 76.1071 58.0905 76.2069 58.0905 76.3861H56.8905ZM57.1044 76.6C56.9863 76.6 56.8905 76.5042 56.8905 76.3861H58.0905C58.0905 75.8415 57.649 75.4 57.1044 75.4V76.6ZM57.1095 76.3861C57.1095 76.5042 57.0137 76.6 56.8956 76.6V75.4C56.351 75.4 55.9095 75.8415 55.9095 76.3861H57.1095ZM55.5084 77.1569C56.1543 77.6722 57.1095 77.2123 57.1095 76.3861H55.9095C55.9095 76.2069 56.1167 76.1071 56.2568 76.2189L55.5084 77.1569ZM54.3415 75.8661C53.9828 76.2781 54.0399 76.9059 54.4668 77.2465L55.2152 76.3085C55.3221 76.3937 55.3363 76.5509 55.2466 76.654L54.3415 75.8661ZM55.2466 76.654C55.1621 76.751 55.0162 76.7642 54.9156 76.684L55.664 75.746C55.2621 75.4253 54.679 75.4783 54.3415 75.8661L55.2466 76.654Z" fill="#36426F" fill-opacity="0.15" mask="url(#path-5-outside-2_407_657)"/>
<defs>
<linearGradient id="paint0_linear_407_657" x1="40.5306" y1="40.3333" x2="64.3961" y2="58.1919" gradientUnits="userSpaceOnUse">
<stop offset="0.183865" stop-color="#ECECEC"/>
<stop offset="1" stop-color="#C4C4C4"/>
</linearGradient>
<linearGradient id="paint1_linear_407_657" x1="42.4547" y1="79.1579" x2="48.4732" y2="84.0495" gradientUnits="userSpaceOnUse">
<stop offset="0.183865" stop-color="#F5FCFF"/>
<stop offset="1" stop-color="#E0E9F4"/>
</linearGradient>
<linearGradient id="paint2_linear_407_657" x1="56.4547" y1="79.1579" x2="62.4732" y2="84.0495" gradientUnits="userSpaceOnUse">
<stop offset="0.183865" stop-color="#F5FCFF"/>
<stop offset="1" stop-color="#E0E9F4"/>
</linearGradient>
</defs>
</svg>
