<svg width="100" height="100" viewBox="0 0 100 100" fill="none" xmlns="http://www.w3.org/2000/svg">
<g clip-path="url(#clip0_407_663)">
<path d="M47.5955 12.7537C49.034 11.7488 50.966 11.7488 52.4045 12.7537L54.3949 14.1442C55.295 14.773 56.4148 15.0231 57.5045 14.8387L59.9143 14.431C61.656 14.1364 63.3966 14.9567 64.2471 16.4729L65.4239 18.5707C65.956 19.5194 66.854 20.2202 67.9176 20.5168L70.2695 21.1726C71.9693 21.6466 73.1739 23.1247 73.2679 24.8519L73.3979 27.2416C73.4568 28.3223 73.9551 29.3349 74.7818 30.0537L76.6101 31.6431C77.9314 32.7919 78.3613 34.6351 77.6802 36.2311L76.7378 38.4394C76.3116 39.438 76.3116 40.562 76.7378 41.5606L77.6802 43.7689C78.3613 45.3649 77.9314 47.2081 76.6101 48.3569L74.7818 49.9463C73.9551 50.6651 73.4568 51.6778 73.3979 52.7584L73.2679 55.1481C73.1739 56.8753 71.9693 58.3534 70.2695 58.8274L67.9176 59.4832C66.854 59.7798 65.956 60.4806 65.4239 61.4292L64.2471 63.5271C63.3966 65.0433 61.656 65.8636 59.9143 65.569L57.5045 65.1613C56.4148 64.9769 55.295 65.227 54.3949 65.8558L52.4045 67.2463C50.966 68.2512 49.034 68.2512 47.5955 67.2463L45.6051 65.8558C44.705 65.227 43.5852 64.9769 42.4955 65.1613L40.0857 65.569C38.344 65.8636 36.6034 65.0433 35.7529 63.5271L34.5761 61.4292C34.044 60.4806 33.146 59.7798 32.0824 59.4832L29.7305 58.8274C28.0307 58.3534 26.8261 56.8753 26.7321 55.1481L26.602 52.7584C26.5432 51.6777 26.0449 50.6651 25.2182 49.9463L23.3899 48.3569C22.0686 47.2081 21.6387 45.3649 22.3198 43.7689L23.2622 41.5606C23.6884 40.562 23.6884 39.438 23.2622 38.4394L22.3198 36.2311C21.6387 34.6351 22.0686 32.7919 23.3899 31.6431L25.2182 30.0537C26.0449 29.3349 26.5432 28.3223 26.602 27.2416L26.7321 24.8519C26.8261 23.1247 28.0307 21.6466 29.7305 21.1726L32.0824 20.5168C33.146 20.2202 34.044 19.5194 34.5761 18.5707L35.7529 16.4729C36.6034 14.9567 38.344 14.1364 40.0857 14.431L42.4955 14.8387C43.5852 15.0231 44.705 14.773 45.6051 14.1442L47.5955 12.7537Z" fill="url(#paint0_linear_407_663)" stroke="#833F00" stroke-opacity="0.25" stroke-width="4"/>
<g filter="url(#filter0_f_407_663)">
<circle cx="48" cy="34" r="19" fill="#FFCF54"/>
</g>
<g clip-path="url(#clip1_407_663)">
<path fill-rule="evenodd" clip-rule="evenodd" d="M82 46C82 58.1503 72.3513 68 60.449 68H33.0204V67.9964C32.9119 67.9988 32.803 68 32.6939 68C24.5787 68 18 61.2843 18 53C18 44.7157 24.5787 38 32.6939 38C35.2526 38 37.6586 38.6676 39.7537 39.8416C42.3629 30.6887 50.6408 24 60.449 24C72.3513 24 82 33.8497 82 46Z" fill="url(#paint1_linear_407_663)"/>
<path d="M33.0204 68H31.0204V70H33.0204V68ZM33.0204 67.9964H35.0204V65.9514L32.9759 65.9969L33.0204 67.9964ZM39.7537 39.8416L38.7761 41.5863L40.9834 42.8231L41.6771 40.3899L39.7537 39.8416ZM60.449 70C73.4945 70 84 59.2158 84 46H80C80 57.0848 71.208 66 60.449 66V70ZM60.449 66H33.0204V70H60.449V66ZM35.0204 68V67.9964H31.0204V68H35.0204ZM32.6939 70C32.8179 70 32.9415 69.9986 33.0649 69.9959L32.9759 65.9969C32.8822 65.9989 32.7881 66 32.6939 66V70ZM16 53C16 62.3498 23.4354 70 32.6939 70V66C25.7219 66 20 60.2188 20 53H16ZM32.6939 36C23.4354 36 16 43.6502 16 53H20C20 45.7812 25.7219 40 32.6939 40V36ZM40.7313 38.0968C38.3466 36.7606 35.6052 36 32.6939 36V40C34.9 40 36.9705 40.5747 38.7761 41.5863L40.7313 38.0968ZM60.449 22C49.6997 22 40.6712 29.3279 37.8303 39.2933L41.6771 40.3899C44.0547 32.0494 51.5818 26 60.449 26V22ZM84 46C84 32.7842 73.4945 22 60.449 22V26C71.208 26 80 34.9152 80 46H84Z" fill="black" fill-opacity="0.07"/>
</g>
<path d="M28.9969 76L32.5344 79.5158C33.234 80.2106 33.7105 81.096 33.9037 82.0601C34.0969 83.0241 33.9981 84.0234 33.6197 84.9316C33.2414 85.8398 32.6005 86.6161 31.7782 87.1623C30.9559 87.7085 29.989 88 29 88C28.011 88 27.0441 87.7085 26.2218 87.1623C25.3995 86.6161 24.7586 85.8398 24.3803 84.9316C24.0019 84.0234 23.9031 83.0241 24.0963 82.0601C24.2895 81.096 24.766 80.2106 25.4656 79.5158L28.9969 76Z" fill="url(#paint2_linear_407_663)" stroke="#21204D" stroke-opacity="0.25" stroke-width="2"/>
<path d="M41.9969 76L45.5344 79.5158C46.234 80.2106 46.7105 81.096 46.9037 82.0601C47.0969 83.0241 46.9981 84.0234 46.6197 84.9316C46.2414 85.8398 45.6005 86.6161 44.7782 87.1623C43.9559 87.7085 42.989 88 42 88C41.011 88 40.0441 87.7085 39.2218 87.1623C38.3995 86.6161 37.7586 85.8398 37.3803 84.9316C37.0019 84.0234 36.9031 83.0241 37.0963 82.0601C37.2895 81.096 37.766 80.2106 38.4656 79.5158L41.9969 76Z" fill="url(#paint3_linear_407_663)" stroke="#21204D" stroke-opacity="0.25" stroke-width="2"/>
<mask id="path-7-outside-1_407_663" maskUnits="userSpaceOnUse" x="49" y="75" width="14" height="14" fill="black">
<rect fill="white" x="49" y="75" width="14" height="14"/>
<path fill-rule="evenodd" clip-rule="evenodd" d="M53.841 76.7775C53.681 76.6498 53.6596 76.4145 53.794 76.26C53.9206 76.1146 54.1392 76.0948 54.2898 76.215L54.8826 76.6879C55.1355 76.8897 55.5095 76.7096 55.5095 76.3861C55.5095 76.1729 55.6823 76 55.8956 76H56.1044C56.3176 76 56.4905 76.1729 56.4905 76.3861C56.4905 76.7096 56.8645 76.8897 57.1174 76.6879L57.7102 76.215C57.8608 76.0948 58.0794 76.1146 58.206 76.26C58.3404 76.4145 58.319 76.6498 58.159 76.7775L57.0016 77.7009C56.6786 77.9586 56.4905 78.3493 56.4905 78.7625V78.8013C56.4905 79.8349 57.6139 80.477 58.5046 79.9525C58.8544 79.7464 59.0916 79.3924 59.1491 78.9905L59.3648 77.4829C59.3938 77.2799 59.5878 77.1433 59.7888 77.1843C59.9735 77.2221 60.0968 77.3972 60.0701 77.5838L59.9559 78.3822C59.9109 78.6972 60.25 78.9244 60.5242 78.763C60.707 78.6553 60.9425 78.7184 61.047 78.903L61.1531 79.0905C61.2585 79.2766 61.1952 79.5128 61.0109 79.6213C60.7311 79.7861 60.7615 80.2001 61.0623 80.3223L61.774 80.6114C61.9509 80.6833 62.0418 80.8802 61.9818 81.0615C61.9159 81.2607 61.6952 81.3625 61.5009 81.2836L60.1634 80.7402C59.7709 80.5808 59.3266 80.6134 58.9616 80.8284C58.0686 81.3543 58.0686 82.6458 58.9616 83.1717C59.3266 83.3867 59.7709 83.4193 60.1634 83.2598L61.5009 82.7165C61.6952 82.6375 61.9159 82.7394 61.9818 82.9385C62.0418 83.1199 61.9509 83.3167 61.774 83.3886L61.0623 83.6777C60.7615 83.8 60.7311 84.2139 61.0109 84.3787C61.1952 84.4872 61.2585 84.7234 61.1531 84.9096L61.047 85.097C60.9425 85.2817 60.707 85.3448 60.5242 85.2371C60.25 85.0756 59.9109 85.3029 59.9559 85.6178L60.0701 86.4162C60.0968 86.6028 59.9735 86.778 59.7888 86.8157C59.5878 86.8568 59.3938 86.7201 59.3648 86.5171L59.1491 85.0096C59.0916 84.6076 58.8544 84.2537 58.5046 84.0476C57.6139 83.523 56.4905 84.1652 56.4905 85.1988V85.2375C56.4905 85.6507 56.6786 86.0414 57.0016 86.2991L58.159 87.2225C58.319 87.3502 58.3404 87.5855 58.206 87.74C58.0794 87.8854 57.8608 87.9052 57.7102 87.785L57.1174 87.3121C56.8645 87.1103 56.4905 87.2904 56.4905 87.6139C56.4905 87.8271 56.3176 88 56.1044 88H55.8956C55.6823 88 55.5095 87.8271 55.5095 87.6139C55.5095 87.2904 55.1355 87.1103 54.8826 87.3121L54.2898 87.785C54.1392 87.9052 53.9206 87.8854 53.794 87.74C53.6596 87.5855 53.681 87.3502 53.841 87.2225L54.9984 86.2991C55.3214 86.0414 55.5095 85.6507 55.5095 85.2375V85.1987C55.5095 84.1652 54.3862 83.5231 53.4956 84.0476C53.1458 84.2537 52.9087 84.6076 52.8512 85.0095L52.6355 86.5171C52.6064 86.7201 52.4124 86.8568 52.2115 86.8157C52.0268 86.778 51.9034 86.6028 51.9301 86.4162L52.0443 85.6178C52.0894 85.3029 51.7502 85.0756 51.4761 85.2371C51.2933 85.3448 51.0577 85.2817 50.9532 85.097L50.8471 84.9096C50.7418 84.7234 50.8051 84.4872 50.9894 84.3787C51.2691 84.2139 51.2388 83.7999 50.938 83.6777L50.2263 83.3886C50.0493 83.3167 49.9584 83.1199 50.0185 82.9385C50.0844 82.7394 50.305 82.6375 50.4994 82.7165L51.8368 83.2598C52.2293 83.4193 52.6737 83.3867 53.0387 83.1717C53.9316 82.6458 53.9316 81.3543 53.0387 80.8284C52.6737 80.6134 52.2293 80.5808 51.8368 80.7402L50.4994 81.2836C50.305 81.3625 50.0844 81.2607 50.0185 81.0615C49.9584 80.8802 50.0493 80.6833 50.2263 80.6114L50.938 80.3223C51.2388 80.2001 51.2691 79.7861 50.9894 79.6213C50.8051 79.5128 50.7418 79.2766 50.8471 79.0905L50.9532 78.903C51.0577 78.7184 51.2933 78.6553 51.4761 78.763C51.7502 78.9244 52.0894 78.6971 52.0443 78.3822L51.9301 77.5838C51.9034 77.3972 52.0268 77.2221 52.2115 77.1843C52.4124 77.1433 52.6064 77.2799 52.6355 77.4829L52.8512 78.9905C52.9087 79.3924 53.1458 79.7464 53.4956 79.9524C54.3862 80.4769 55.5095 79.8349 55.5095 78.8013V78.7625C55.5095 78.3493 55.3214 77.9586 54.9984 77.7009L53.841 76.7775Z"/>
</mask>
<path fill-rule="evenodd" clip-rule="evenodd" d="M53.841 76.7775C53.681 76.6498 53.6596 76.4145 53.794 76.26C53.9206 76.1146 54.1392 76.0948 54.2898 76.215L54.8826 76.6879C55.1355 76.8897 55.5095 76.7096 55.5095 76.3861C55.5095 76.1729 55.6823 76 55.8956 76H56.1044C56.3176 76 56.4905 76.1729 56.4905 76.3861C56.4905 76.7096 56.8645 76.8897 57.1174 76.6879L57.7102 76.215C57.8608 76.0948 58.0794 76.1146 58.206 76.26C58.3404 76.4145 58.319 76.6498 58.159 76.7775L57.0016 77.7009C56.6786 77.9586 56.4905 78.3493 56.4905 78.7625V78.8013C56.4905 79.8349 57.6139 80.477 58.5046 79.9525C58.8544 79.7464 59.0916 79.3924 59.1491 78.9905L59.3648 77.4829C59.3938 77.2799 59.5878 77.1433 59.7888 77.1843C59.9735 77.2221 60.0968 77.3972 60.0701 77.5838L59.9559 78.3822C59.9109 78.6972 60.25 78.9244 60.5242 78.763C60.707 78.6553 60.9425 78.7184 61.047 78.903L61.1531 79.0905C61.2585 79.2766 61.1952 79.5128 61.0109 79.6213C60.7311 79.7861 60.7615 80.2001 61.0623 80.3223L61.774 80.6114C61.9509 80.6833 62.0418 80.8802 61.9818 81.0615C61.9159 81.2607 61.6952 81.3625 61.5009 81.2836L60.1634 80.7402C59.7709 80.5808 59.3266 80.6134 58.9616 80.8284C58.0686 81.3543 58.0686 82.6458 58.9616 83.1717C59.3266 83.3867 59.7709 83.4193 60.1634 83.2598L61.5009 82.7165C61.6952 82.6375 61.9159 82.7394 61.9818 82.9385C62.0418 83.1199 61.9509 83.3167 61.774 83.3886L61.0623 83.6777C60.7615 83.8 60.7311 84.2139 61.0109 84.3787C61.1952 84.4872 61.2585 84.7234 61.1531 84.9096L61.047 85.097C60.9425 85.2817 60.707 85.3448 60.5242 85.2371C60.25 85.0756 59.9109 85.3029 59.9559 85.6178L60.0701 86.4162C60.0968 86.6028 59.9735 86.778 59.7888 86.8157C59.5878 86.8568 59.3938 86.7201 59.3648 86.5171L59.1491 85.0096C59.0916 84.6076 58.8544 84.2537 58.5046 84.0476C57.6139 83.523 56.4905 84.1652 56.4905 85.1988V85.2375C56.4905 85.6507 56.6786 86.0414 57.0016 86.2991L58.159 87.2225C58.319 87.3502 58.3404 87.5855 58.206 87.74C58.0794 87.8854 57.8608 87.9052 57.7102 87.785L57.1174 87.3121C56.8645 87.1103 56.4905 87.2904 56.4905 87.6139C56.4905 87.8271 56.3176 88 56.1044 88H55.8956C55.6823 88 55.5095 87.8271 55.5095 87.6139C55.5095 87.2904 55.1355 87.1103 54.8826 87.3121L54.2898 87.785C54.1392 87.9052 53.9206 87.8854 53.794 87.74C53.6596 87.5855 53.681 87.3502 53.841 87.2225L54.9984 86.2991C55.3214 86.0414 55.5095 85.6507 55.5095 85.2375V85.1987C55.5095 84.1652 54.3862 83.5231 53.4956 84.0476C53.1458 84.2537 52.9087 84.6076 52.8512 85.0095L52.6355 86.5171C52.6064 86.7201 52.4124 86.8568 52.2115 86.8157C52.0268 86.778 51.9034 86.6028 51.9301 86.4162L52.0443 85.6178C52.0894 85.3029 51.7502 85.0756 51.4761 85.2371C51.2933 85.3448 51.0577 85.2817 50.9532 85.097L50.8471 84.9096C50.7418 84.7234 50.8051 84.4872 50.9894 84.3787C51.2691 84.2139 51.2388 83.7999 50.938 83.6777L50.2263 83.3886C50.0493 83.3167 49.9584 83.1199 50.0185 82.9385C50.0844 82.7394 50.305 82.6375 50.4994 82.7165L51.8368 83.2598C52.2293 83.4193 52.6737 83.3867 53.0387 83.1717C53.9316 82.6458 53.9316 81.3543 53.0387 80.8284C52.6737 80.6134 52.2293 80.5808 51.8368 80.7402L50.4994 81.2836C50.305 81.3625 50.0844 81.2607 50.0185 81.0615C49.9584 80.8802 50.0493 80.6833 50.2263 80.6114L50.938 80.3223C51.2388 80.2001 51.2691 79.7861 50.9894 79.6213C50.8051 79.5128 50.7418 79.2766 50.8471 79.0905L50.9532 78.903C51.0577 78.7184 51.2933 78.6553 51.4761 78.763C51.7502 78.9244 52.0894 78.6971 52.0443 78.3822L51.9301 77.5838C51.9034 77.3972 52.0268 77.2221 52.2115 77.1843C52.4124 77.1433 52.6064 77.2799 52.6355 77.4829L52.8512 78.9905C52.9087 79.3924 53.1458 79.7464 53.4956 79.9524C54.3862 80.4769 55.5095 79.8349 55.5095 78.8013V78.7625C55.5095 78.3493 55.3214 77.9586 54.9984 77.7009L53.841 76.7775Z" fill="url(#paint4_linear_407_663)"/>
<path d="M54.9984 77.7009L54.6242 78.1699L54.9984 77.7009ZM52.8512 78.9905L52.2572 79.0755L52.8512 78.9905ZM52.0443 78.3822L52.6383 78.2972L52.0443 78.3822ZM50.9532 78.903L50.4311 78.6075L50.9532 78.903ZM50.8471 79.0905L50.325 78.795L50.8471 79.0905ZM50.938 80.3223L50.7121 79.7664L50.938 80.3223ZM50.2263 80.6114L50.4521 81.1673L50.2263 80.6114ZM50.4994 81.2836L50.7252 81.8395L50.4994 81.2836ZM51.8368 80.7402L51.611 80.1843L51.8368 80.7402ZM51.8368 83.2598L52.0627 82.7039L51.8368 83.2598ZM50.4994 82.7165L50.2735 83.2724L50.4994 82.7165ZM50.2263 83.3886L50.0005 83.9445L50.2263 83.3886ZM50.938 83.6777L50.7121 84.2336L50.938 83.6777ZM50.8471 84.9096L51.3693 84.614L50.8471 84.9096ZM50.9532 85.097L50.4311 85.3925L50.9532 85.097ZM52.0443 85.6178L52.6383 85.7028L52.0443 85.6178ZM51.9301 86.4162L51.3362 86.3312L51.9301 86.4162ZM52.6355 86.5171L52.0415 86.4321L52.6355 86.5171ZM54.9984 86.2991L55.3726 86.7681L54.9984 86.2991ZM53.841 87.2225L54.2152 87.6915L53.841 87.2225ZM54.2898 87.785L54.664 88.254L54.2898 87.785ZM54.8826 87.3121L55.2568 87.7811L54.8826 87.3121ZM57.1174 87.3121L56.7432 87.7811L57.1174 87.3121ZM57.7102 87.785L57.336 88.254L57.7102 87.785ZM58.159 87.2225L57.7848 87.6915L58.159 87.2225ZM59.1491 85.0096L59.743 84.9246L59.1491 85.0096ZM59.3648 86.5171L59.9587 86.4321L59.3648 86.5171ZM60.0701 86.4162L59.4762 86.5012L60.0701 86.4162ZM61.047 85.097L60.5249 84.8015L61.047 85.097ZM61.1531 84.9096L61.6753 85.2051L61.1531 84.9096ZM61.0623 83.6777L60.8365 83.1219L61.0623 83.6777ZM61.774 83.3886L61.9998 83.9445L61.774 83.3886ZM61.5009 82.7165L61.2751 82.1606L61.5009 82.7165ZM60.1634 83.2598L59.9376 82.7039L60.1634 83.2598ZM60.1634 80.7402L59.9376 81.2961L60.1634 80.7402ZM61.5009 81.2836L61.7267 80.7277L61.5009 81.2836ZM61.774 80.6114L61.9998 80.0555L61.774 80.6114ZM61.0623 80.3223L60.8365 80.8782L61.0623 80.3223ZM61.1531 79.0905L61.6753 78.795L61.1531 79.0905ZM61.047 78.903L60.5249 79.1986L61.047 78.903ZM59.9559 78.3822L59.362 78.2972L59.9559 78.3822ZM60.0701 77.5838L60.6641 77.6688L60.0701 77.5838ZM59.3648 77.4829L59.9587 77.5679L59.3648 77.4829ZM59.1491 78.9905L58.5551 78.9055L59.1491 78.9905ZM58.159 76.7775L58.5332 77.2465L58.159 76.7775ZM57.7102 76.215L57.336 75.746L57.7102 76.215ZM57.1174 76.6879L57.4916 77.1569L57.1174 76.6879ZM54.8826 76.6879L55.2568 76.2189L54.8826 76.6879ZM54.2898 76.215L54.664 75.746L54.2898 76.215ZM55.2568 76.2189L54.664 75.746L53.9156 76.684L54.5084 77.1569L55.2568 76.2189ZM56.1044 75.4H55.8956V76.6H56.1044V75.4ZM57.336 75.746L56.7432 76.2189L57.4916 77.1569L58.0844 76.684L57.336 75.746ZM57.3758 78.1699L58.5332 77.2465L57.7848 76.3085L56.6274 77.2318L57.3758 78.1699ZM57.0905 78.8013V78.7625H55.8905V78.8013H57.0905ZM58.7708 77.398L58.5551 78.9055L59.7431 79.0754L59.9587 77.5679L58.7708 77.398ZM60.5499 78.4672L60.6641 77.6688L59.4762 77.4989L59.362 78.2972L60.5499 78.4672ZM61.6753 78.795L61.5692 78.6075L60.5249 79.1986L60.631 79.386L61.6753 78.795ZM61.9998 80.0555L61.2881 79.7664L60.8365 80.8782L61.5481 81.1673L61.9998 80.0555ZM59.9376 81.2961L61.2751 81.8395L61.7267 80.7277L60.3892 80.1843L59.9376 81.2961ZM60.3892 83.8157L61.7267 83.2724L61.2751 82.1606L59.9376 82.7039L60.3892 83.8157ZM61.5481 82.8328L60.8365 83.1219L61.2881 84.2336L61.9998 83.9445L61.5481 82.8328ZM60.631 84.614L60.5249 84.8015L61.5692 85.3925L61.6753 85.2051L60.631 84.614ZM59.362 85.7028L59.4762 86.5012L60.6641 86.3312L60.5499 85.5329L59.362 85.7028ZM59.9587 86.4321L59.743 84.9246L58.5551 85.0946L58.7708 86.6021L59.9587 86.4321ZM57.0905 85.2375V85.1988H55.8905V85.2375H57.0905ZM58.5332 86.7535L57.3758 85.8301L56.6274 86.7681L57.7848 87.6915L58.5332 86.7535ZM56.7432 87.7811L57.336 88.254L58.0844 87.316L57.4916 86.8431L56.7432 87.7811ZM55.8956 88.6H56.1044V87.4H55.8956V88.6ZM54.664 88.254L55.2568 87.7811L54.5084 86.8431L53.9156 87.316L54.664 88.254ZM54.6242 85.8301L53.4668 86.7535L54.2152 87.6915L55.3726 86.7681L54.6242 85.8301ZM54.9095 85.1987V85.2375H56.1095V85.1987H54.9095ZM53.2294 86.6021L53.4451 85.0945L52.2572 84.9245L52.0415 86.4321L53.2294 86.6021ZM51.4504 85.5329L51.3362 86.3312L52.5241 86.5012L52.6383 85.7028L51.4504 85.5329ZM50.325 85.2051L50.4311 85.3925L51.4754 84.8015L51.3693 84.614L50.325 85.2051ZM50.0005 83.9445L50.7121 84.2336L51.1638 83.1219L50.4521 82.8328L50.0005 83.9445ZM52.0627 82.7039L50.7252 82.1606L50.2735 83.2724L51.611 83.8157L52.0627 82.7039ZM51.611 80.1843L50.2735 80.7277L50.7252 81.8395L52.0627 81.2961L51.611 80.1843ZM50.4521 81.1673L51.1638 80.8782L50.7121 79.7664L50.0005 80.0555L50.4521 81.1673ZM51.3693 79.386L51.4754 79.1986L50.4311 78.6075L50.325 78.795L51.3693 79.386ZM52.6383 78.2972L52.5241 77.4989L51.3362 77.6688L51.4504 78.4672L52.6383 78.2972ZM52.0415 77.5679L52.2572 79.0755L53.4451 78.9056L53.2294 77.398L52.0415 77.5679ZM54.9095 78.7625V78.8013H56.1095V78.7625H54.9095ZM53.4668 77.2465L54.6242 78.1699L55.3726 77.2319L54.2152 76.3085L53.4668 77.2465ZM56.1095 78.7625C56.1095 78.1668 55.8383 77.6034 55.3726 77.2319L54.6242 78.1699C54.8045 78.3138 54.9095 78.5319 54.9095 78.7625H56.1095ZM53.1911 80.4694C54.4817 81.2295 56.1095 80.2991 56.1095 78.8013H54.9095C54.9095 79.3707 54.2907 79.7244 53.8001 79.4354L53.1911 80.4694ZM52.2572 79.0755C52.3405 79.6579 52.6842 80.1708 53.1911 80.4694L53.8001 79.4354C53.6074 79.3219 53.4768 79.127 53.4451 78.9056L52.2572 79.0755ZM52.3316 77.7722C52.1941 77.8003 52.0614 77.7068 52.0415 77.5679L53.2294 77.398C53.1515 76.853 52.6307 76.4863 52.0914 76.5965L52.3316 77.7722ZM52.5241 77.4989C52.5423 77.6266 52.458 77.7464 52.3316 77.7722L52.0914 76.5965C51.5955 76.6978 51.2645 77.1679 51.3362 77.6688L52.5241 77.4989ZM51.1716 79.2799C51.8791 79.6967 52.7546 79.1101 52.6383 78.2972L51.4504 78.4672C51.4242 78.2842 51.6213 78.1521 51.7806 78.246L51.1716 79.2799ZM51.4754 79.1986C51.4147 79.3058 51.2778 79.3425 51.1716 79.2799L51.7806 78.246C51.3088 77.9681 50.7008 78.131 50.4311 78.6075L51.4754 79.1986ZM51.2938 79.1044C51.3916 79.1619 51.4252 79.2873 51.3693 79.386L50.325 78.795C50.0584 79.266 50.2185 79.8637 50.6849 80.1383L51.2938 79.1044ZM51.1638 80.8782C51.925 80.5689 52.0018 79.5213 51.2938 79.1044L50.6849 80.1383C50.5364 80.0509 50.5525 79.8313 50.7121 79.7664L51.1638 80.8782ZM50.5881 80.8729C50.6273 80.9915 50.5679 81.1203 50.4521 81.1673L50.0005 80.0555C49.5307 80.2464 49.2895 80.7688 49.4489 81.2501L50.5881 80.8729ZM50.2735 80.7277C50.4006 80.6761 50.5449 80.7427 50.5881 80.8729L49.4489 81.2501C49.6239 81.7786 50.2094 82.049 50.7252 81.8395L50.2735 80.7277ZM53.3432 80.3114C52.8171 80.0015 52.1767 79.9546 51.611 80.1843L52.0627 81.2961C52.282 81.207 52.5302 81.2252 52.7342 81.3454L53.3432 80.3114ZM53.3432 83.6887C54.6301 82.9307 54.6301 81.0693 53.3432 80.3114L52.7342 81.3454C53.2331 81.6392 53.2331 82.3608 52.7342 82.6547L53.3432 83.6887ZM51.611 83.8157C52.1767 84.0455 52.8171 83.9985 53.3432 83.6887L52.7342 82.6547C52.5302 82.7748 52.282 82.793 52.0627 82.7039L51.611 83.8157ZM50.5881 83.1271C50.5449 83.2574 50.4006 83.324 50.2735 83.2724L50.7252 82.1606C50.2094 81.951 49.6239 82.2214 49.4489 82.7499L50.5881 83.1271ZM50.4521 82.8328C50.5679 82.8798 50.6273 83.0085 50.5881 83.1271L49.4489 82.7499C49.2895 83.2313 49.5307 83.7537 50.0005 83.9445L50.4521 82.8328ZM51.2938 84.8957C52.0018 84.4787 51.925 83.4311 51.1638 83.1219L50.7121 84.2336C50.5525 84.1688 50.5364 83.9491 50.6849 83.8617L51.2938 84.8957ZM51.3693 84.614C51.4252 84.7128 51.3916 84.8381 51.2938 84.8957L50.6849 83.8617C50.2185 84.1364 50.0584 84.7341 50.325 85.2051L51.3693 84.614ZM51.1716 84.7201C51.2778 84.6575 51.4147 84.6942 51.4754 84.8015L50.4311 85.3925C50.7008 85.8691 51.3088 86.032 51.7806 85.7541L51.1716 84.7201ZM52.6383 85.7028C52.7546 84.8899 51.8791 84.3034 51.1716 84.7201L51.7806 85.7541C51.6213 85.8479 51.4242 85.7159 51.4504 85.5329L52.6383 85.7028ZM52.3316 86.2279C52.458 86.2537 52.5423 86.3735 52.5241 86.5012L51.3362 86.3312C51.2645 86.8322 51.5955 87.3023 52.0914 87.4036L52.3316 86.2279ZM52.0415 86.4321C52.0614 86.2933 52.1941 86.1998 52.3316 86.2279L52.0914 87.4036C52.6307 87.5138 53.1515 87.147 53.2294 86.6021L52.0415 86.4321ZM53.1911 83.5306C52.6842 83.8292 52.3405 84.3421 52.2572 84.9245L53.4451 85.0945C53.4768 84.8731 53.6074 84.6781 53.8001 84.5646L53.1911 83.5306ZM56.1095 85.1987C56.1095 83.701 54.4817 82.7706 53.1911 83.5306L53.8001 84.5646C54.2907 84.2757 54.9095 84.6294 54.9095 85.1987H56.1095ZM55.3726 86.7681C55.8383 86.3966 56.1095 85.8333 56.1095 85.2375H54.9095C54.9095 85.4681 54.8045 85.6862 54.6242 85.8301L55.3726 86.7681ZM54.2466 87.346C54.3363 87.4491 54.3221 87.6063 54.2152 87.6915L53.4668 86.7535C53.0399 87.0941 52.9828 87.7219 53.3415 88.1339L54.2466 87.346ZM53.9156 87.316C54.0162 87.2358 54.1621 87.249 54.2466 87.346L53.3415 88.1339C53.679 88.5217 54.2621 88.5747 54.664 88.254L53.9156 87.316ZM56.1095 87.6139C56.1095 86.7877 55.1543 86.3278 54.5084 86.8431L55.2568 87.7811C55.1167 87.8929 54.9095 87.7931 54.9095 87.6139H56.1095ZM55.8956 87.4C56.0137 87.4 56.1095 87.4958 56.1095 87.6139H54.9095C54.9095 88.1585 55.351 88.6 55.8956 88.6V87.4ZM55.8905 87.6139C55.8905 87.4958 55.9863 87.4 56.1044 87.4V88.6C56.649 88.6 57.0905 88.1585 57.0905 87.6139H55.8905ZM57.4916 86.8431C56.8457 86.3278 55.8905 86.7877 55.8905 87.6139H57.0905C57.0905 87.7931 56.8833 87.8929 56.7432 87.7811L57.4916 86.8431ZM57.7534 87.346C57.8379 87.249 57.9838 87.2358 58.0844 87.316L57.336 88.254C57.7378 88.5747 58.321 88.5217 58.6585 88.1339L57.7534 87.346ZM57.7848 87.6915C57.6779 87.6063 57.6637 87.4491 57.7534 87.346L58.6585 88.1339C59.0172 87.7219 58.9601 87.0941 58.5332 86.7535L57.7848 87.6915ZM55.8905 85.2375C55.8905 85.8332 56.1617 86.3966 56.6274 86.7681L57.3758 85.8301C57.1955 85.6863 57.0905 85.4681 57.0905 85.2375H55.8905ZM58.8091 83.5306C57.5184 82.7705 55.8905 83.701 55.8905 85.1988H57.0905C57.0905 84.6294 57.7094 84.2756 58.2001 84.5646L58.8091 83.5306ZM59.743 84.9246C59.6597 84.3422 59.316 83.8292 58.8091 83.5306L58.2001 84.5646C58.3928 84.6781 58.5235 84.8731 58.5551 85.0946L59.743 84.9246ZM59.6687 86.2279C59.8061 86.1998 59.9389 86.2933 59.9587 86.4321L58.7708 86.6021C58.8488 87.147 59.3696 87.5138 59.9089 87.4036L59.6687 86.2279ZM59.4762 86.5012C59.4579 86.3735 59.5423 86.2537 59.6687 86.2279L59.9089 87.4036C60.4047 87.3023 60.7358 86.8322 60.6641 86.3312L59.4762 86.5012ZM60.8287 84.7201C60.1211 84.3034 59.2457 84.8899 59.362 85.7028L60.5499 85.5329C60.5761 85.7159 60.379 85.8479 60.2197 85.7541L60.8287 84.7201ZM60.5249 84.8015C60.5856 84.6942 60.7224 84.6575 60.8287 84.7201L60.2197 85.7541C60.6915 86.032 61.2995 85.8691 61.5692 85.3925L60.5249 84.8015ZM60.7064 84.8957C60.6086 84.8381 60.5751 84.7128 60.631 84.614L61.6753 85.2051C61.9419 84.7341 61.7817 84.1364 61.3154 83.8617L60.7064 84.8957ZM60.8365 83.1219C60.0753 83.4311 59.9984 84.4787 60.7064 84.8957L61.3154 83.8617C61.4638 83.9491 61.4477 84.1688 61.2881 84.2336L60.8365 83.1219ZM61.4122 83.1271C61.3729 83.0085 61.4324 82.8798 61.5481 82.8328L61.9998 83.9445C62.4695 83.7537 62.7108 83.2313 62.5514 82.7499L61.4122 83.1271ZM61.7267 83.2724C61.5996 83.324 61.4553 83.2574 61.4122 83.1271L62.5514 82.7499C62.3764 82.2214 61.7909 81.951 61.2751 82.1606L61.7267 83.2724ZM58.6571 83.6887C59.1831 83.9985 59.8236 84.0455 60.3892 83.8157L59.9376 82.7039C59.7183 82.793 59.47 82.7748 59.2661 82.6547L58.6571 83.6887ZM58.6571 80.3114C57.3701 81.0693 57.3701 82.9307 58.6571 83.6887L59.2661 82.6547C58.7671 82.3608 58.7671 81.6392 59.2661 81.3454L58.6571 80.3114ZM60.3892 80.1843C59.8236 79.9546 59.1831 80.0015 58.6571 80.3114L59.2661 81.3454C59.47 81.2252 59.7183 81.207 59.9376 81.2961L60.3892 80.1843ZM61.4122 80.8729C61.4553 80.7427 61.5996 80.6761 61.7267 80.7277L61.2751 81.8395C61.7909 82.049 62.3764 81.7786 62.5514 81.2501L61.4122 80.8729ZM61.5481 81.1673C61.4324 81.1203 61.3729 80.9915 61.4122 80.8729L62.5514 81.2501C62.7108 80.7688 62.4695 80.2464 61.9998 80.0555L61.5481 81.1673ZM60.7064 79.1044C59.9984 79.5213 60.0753 80.5689 60.8365 80.8782L61.2881 79.7664C61.4477 79.8313 61.4638 80.0509 61.3154 80.1383L60.7064 79.1044ZM60.631 79.386C60.5751 79.2873 60.6086 79.1619 60.7064 79.1044L61.3154 80.1383C61.7817 79.8637 61.9419 79.266 61.6753 78.795L60.631 79.386ZM60.8287 79.2799C60.7224 79.3425 60.5856 79.3058 60.5249 79.1986L61.5692 78.6075C61.2995 78.131 60.6915 77.9681 60.2197 78.246L60.8287 79.2799ZM59.362 78.2972C59.2457 79.1101 60.1211 79.6967 60.8287 79.2799L60.2197 78.246C60.379 78.1521 60.5761 78.2842 60.5499 78.4672L59.362 78.2972ZM59.6687 77.7722C59.5423 77.7464 59.4579 77.6266 59.4762 77.4989L60.6641 77.6688C60.7358 77.1679 60.4047 76.6978 59.9089 76.5965L59.6687 77.7722ZM59.9587 77.5679C59.9389 77.7068 59.8061 77.8003 59.6687 77.7722L59.9089 76.5965C59.3696 76.4863 58.8488 76.853 58.7708 77.398L59.9587 77.5679ZM58.8091 80.4694C59.316 80.1708 59.6597 79.6579 59.7431 79.0754L58.5551 78.9055C58.5235 79.1269 58.3928 79.3219 58.2001 79.4355L58.8091 80.4694ZM55.8905 78.8013C55.8905 80.2991 57.5184 81.2296 58.8091 80.4694L58.2001 79.4355C57.7094 79.7244 57.0905 79.3707 57.0905 78.8013H55.8905ZM56.6274 77.2318C56.1617 77.6034 55.8905 78.1668 55.8905 78.7625H57.0905C57.0905 78.5319 57.1955 78.3137 57.3758 78.1699L56.6274 77.2318ZM57.7534 76.654C57.6637 76.5508 57.6779 76.3937 57.7848 76.3085L58.5332 77.2465C58.9601 76.9059 59.0172 76.2781 58.6585 75.8661L57.7534 76.654ZM58.0844 76.684C57.9838 76.7642 57.8379 76.751 57.7534 76.654L58.6585 75.8661C58.321 75.4783 57.7378 75.4253 57.336 75.746L58.0844 76.684ZM55.8905 76.3861C55.8905 77.2123 56.8457 77.6722 57.4916 77.1569L56.7432 76.2189C56.8833 76.1071 57.0905 76.2069 57.0905 76.3861H55.8905ZM56.1044 76.6C55.9863 76.6 55.8905 76.5042 55.8905 76.3861H57.0905C57.0905 75.8415 56.649 75.4 56.1044 75.4V76.6ZM56.1095 76.3861C56.1095 76.5042 56.0137 76.6 55.8956 76.6V75.4C55.351 75.4 54.9095 75.8415 54.9095 76.3861H56.1095ZM54.5084 77.1569C55.1543 77.6722 56.1095 77.2123 56.1095 76.3861H54.9095C54.9095 76.2069 55.1167 76.1071 55.2568 76.2189L54.5084 77.1569ZM53.3415 75.8661C52.9828 76.2781 53.0399 76.9059 53.4668 77.2465L54.2152 76.3085C54.3221 76.3937 54.3363 76.5509 54.2466 76.654L53.3415 75.8661ZM54.2466 76.654C54.1621 76.751 54.0162 76.7642 53.9156 76.684L54.664 75.746C54.2621 75.4253 53.679 75.4783 53.3415 75.8661L54.2466 76.654Z" fill="#36426F" fill-opacity="0.15" mask="url(#path-7-outside-1_407_663)"/>
<mask id="path-9-outside-2_407_663" maskUnits="userSpaceOnUse" x="63" y="75" width="14" height="14" fill="black">
<rect fill="white" x="63" y="75" width="14" height="14"/>
<path fill-rule="evenodd" clip-rule="evenodd" d="M67.841 76.7775C67.681 76.6498 67.6596 76.4145 67.794 76.26C67.9206 76.1146 68.1392 76.0948 68.2898 76.215L68.8826 76.6879C69.1355 76.8897 69.5095 76.7096 69.5095 76.3861C69.5095 76.1729 69.6823 76 69.8956 76H70.1044C70.3176 76 70.4905 76.1729 70.4905 76.3861C70.4905 76.7096 70.8645 76.8897 71.1174 76.6879L71.7102 76.215C71.8608 76.0948 72.0794 76.1146 72.206 76.26C72.3404 76.4145 72.319 76.6498 72.159 76.7775L71.0016 77.7009C70.6786 77.9586 70.4905 78.3493 70.4905 78.7625V78.8013C70.4905 79.8349 71.6139 80.477 72.5046 79.9525C72.8544 79.7464 73.0916 79.3924 73.1491 78.9905L73.3648 77.4829C73.3938 77.2799 73.5878 77.1433 73.7888 77.1843C73.9735 77.2221 74.0968 77.3972 74.0701 77.5838L73.9559 78.3822C73.9109 78.6972 74.25 78.9244 74.5242 78.763C74.707 78.6553 74.9425 78.7184 75.047 78.903L75.1531 79.0905C75.2585 79.2766 75.1952 79.5128 75.0109 79.6213C74.7311 79.7861 74.7615 80.2001 75.0623 80.3223L75.774 80.6114C75.9509 80.6833 76.0418 80.8802 75.9818 81.0615C75.9159 81.2607 75.6952 81.3625 75.5009 81.2836L74.1634 80.7402C73.7709 80.5808 73.3266 80.6134 72.9616 80.8284C72.0686 81.3543 72.0686 82.6458 72.9616 83.1717C73.3266 83.3867 73.7709 83.4193 74.1634 83.2598L75.5009 82.7165C75.6952 82.6375 75.9159 82.7394 75.9818 82.9385C76.0418 83.1199 75.9509 83.3167 75.774 83.3886L75.0623 83.6777C74.7615 83.8 74.7311 84.2139 75.0109 84.3787C75.1952 84.4872 75.2585 84.7234 75.1531 84.9096L75.047 85.097C74.9425 85.2817 74.707 85.3448 74.5242 85.2371C74.25 85.0756 73.9109 85.3029 73.9559 85.6178L74.0701 86.4162C74.0968 86.6028 73.9735 86.778 73.7888 86.8157C73.5878 86.8568 73.3938 86.7201 73.3648 86.5171L73.1491 85.0096C73.0916 84.6076 72.8544 84.2537 72.5046 84.0476C71.6139 83.523 70.4905 84.1652 70.4905 85.1988V85.2375C70.4905 85.6507 70.6786 86.0414 71.0016 86.2991L72.159 87.2225C72.319 87.3502 72.3404 87.5855 72.206 87.74C72.0794 87.8854 71.8608 87.9052 71.7102 87.785L71.1174 87.3121C70.8645 87.1103 70.4905 87.2904 70.4905 87.6139C70.4905 87.8271 70.3176 88 70.1044 88H69.8956C69.6823 88 69.5095 87.8271 69.5095 87.6139C69.5095 87.2904 69.1355 87.1103 68.8826 87.3121L68.2898 87.785C68.1392 87.9052 67.9206 87.8854 67.794 87.74C67.6596 87.5855 67.681 87.3502 67.841 87.2225L68.9984 86.2991C69.3214 86.0414 69.5095 85.6507 69.5095 85.2375V85.1987C69.5095 84.1652 68.3862 83.5231 67.4956 84.0476C67.1458 84.2537 66.9087 84.6076 66.8512 85.0095L66.6355 86.5171C66.6064 86.7201 66.4124 86.8568 66.2115 86.8157C66.0268 86.778 65.9034 86.6028 65.9301 86.4162L66.0443 85.6178C66.0894 85.3029 65.7502 85.0756 65.4761 85.2371C65.2933 85.3448 65.0577 85.2817 64.9532 85.097L64.8471 84.9096C64.7418 84.7234 64.8051 84.4872 64.9894 84.3787C65.2691 84.2139 65.2388 83.7999 64.938 83.6777L64.2263 83.3886C64.0493 83.3167 63.9584 83.1199 64.0185 82.9385C64.0844 82.7394 64.305 82.6375 64.4994 82.7165L65.8368 83.2598C66.2293 83.4193 66.6737 83.3867 67.0387 83.1717C67.9316 82.6458 67.9316 81.3543 67.0387 80.8284C66.6737 80.6134 66.2293 80.5808 65.8368 80.7402L64.4994 81.2836C64.305 81.3625 64.0844 81.2607 64.0185 81.0615C63.9584 80.8802 64.0493 80.6833 64.2263 80.6114L64.938 80.3223C65.2388 80.2001 65.2691 79.7861 64.9894 79.6213C64.8051 79.5128 64.7418 79.2766 64.8471 79.0905L64.9532 78.903C65.0577 78.7184 65.2933 78.6553 65.4761 78.763C65.7502 78.9244 66.0894 78.6971 66.0443 78.3822L65.9301 77.5838C65.9034 77.3972 66.0268 77.2221 66.2115 77.1843C66.4124 77.1433 66.6064 77.2799 66.6355 77.4829L66.8512 78.9905C66.9087 79.3924 67.1458 79.7464 67.4956 79.9524C68.3862 80.4769 69.5095 79.8349 69.5095 78.8013V78.7625C69.5095 78.3493 69.3214 77.9586 68.9984 77.7009L67.841 76.7775Z"/>
</mask>
<path fill-rule="evenodd" clip-rule="evenodd" d="M67.841 76.7775C67.681 76.6498 67.6596 76.4145 67.794 76.26C67.9206 76.1146 68.1392 76.0948 68.2898 76.215L68.8826 76.6879C69.1355 76.8897 69.5095 76.7096 69.5095 76.3861C69.5095 76.1729 69.6823 76 69.8956 76H70.1044C70.3176 76 70.4905 76.1729 70.4905 76.3861C70.4905 76.7096 70.8645 76.8897 71.1174 76.6879L71.7102 76.215C71.8608 76.0948 72.0794 76.1146 72.206 76.26C72.3404 76.4145 72.319 76.6498 72.159 76.7775L71.0016 77.7009C70.6786 77.9586 70.4905 78.3493 70.4905 78.7625V78.8013C70.4905 79.8349 71.6139 80.477 72.5046 79.9525C72.8544 79.7464 73.0916 79.3924 73.1491 78.9905L73.3648 77.4829C73.3938 77.2799 73.5878 77.1433 73.7888 77.1843C73.9735 77.2221 74.0968 77.3972 74.0701 77.5838L73.9559 78.3822C73.9109 78.6972 74.25 78.9244 74.5242 78.763C74.707 78.6553 74.9425 78.7184 75.047 78.903L75.1531 79.0905C75.2585 79.2766 75.1952 79.5128 75.0109 79.6213C74.7311 79.7861 74.7615 80.2001 75.0623 80.3223L75.774 80.6114C75.9509 80.6833 76.0418 80.8802 75.9818 81.0615C75.9159 81.2607 75.6952 81.3625 75.5009 81.2836L74.1634 80.7402C73.7709 80.5808 73.3266 80.6134 72.9616 80.8284C72.0686 81.3543 72.0686 82.6458 72.9616 83.1717C73.3266 83.3867 73.7709 83.4193 74.1634 83.2598L75.5009 82.7165C75.6952 82.6375 75.9159 82.7394 75.9818 82.9385C76.0418 83.1199 75.9509 83.3167 75.774 83.3886L75.0623 83.6777C74.7615 83.8 74.7311 84.2139 75.0109 84.3787C75.1952 84.4872 75.2585 84.7234 75.1531 84.9096L75.047 85.097C74.9425 85.2817 74.707 85.3448 74.5242 85.2371C74.25 85.0756 73.9109 85.3029 73.9559 85.6178L74.0701 86.4162C74.0968 86.6028 73.9735 86.778 73.7888 86.8157C73.5878 86.8568 73.3938 86.7201 73.3648 86.5171L73.1491 85.0096C73.0916 84.6076 72.8544 84.2537 72.5046 84.0476C71.6139 83.523 70.4905 84.1652 70.4905 85.1988V85.2375C70.4905 85.6507 70.6786 86.0414 71.0016 86.2991L72.159 87.2225C72.319 87.3502 72.3404 87.5855 72.206 87.74C72.0794 87.8854 71.8608 87.9052 71.7102 87.785L71.1174 87.3121C70.8645 87.1103 70.4905 87.2904 70.4905 87.6139C70.4905 87.8271 70.3176 88 70.1044 88H69.8956C69.6823 88 69.5095 87.8271 69.5095 87.6139C69.5095 87.2904 69.1355 87.1103 68.8826 87.3121L68.2898 87.785C68.1392 87.9052 67.9206 87.8854 67.794 87.74C67.6596 87.5855 67.681 87.3502 67.841 87.2225L68.9984 86.2991C69.3214 86.0414 69.5095 85.6507 69.5095 85.2375V85.1987C69.5095 84.1652 68.3862 83.5231 67.4956 84.0476C67.1458 84.2537 66.9087 84.6076 66.8512 85.0095L66.6355 86.5171C66.6064 86.7201 66.4124 86.8568 66.2115 86.8157C66.0268 86.778 65.9034 86.6028 65.9301 86.4162L66.0443 85.6178C66.0894 85.3029 65.7502 85.0756 65.4761 85.2371C65.2933 85.3448 65.0577 85.2817 64.9532 85.097L64.8471 84.9096C64.7418 84.7234 64.8051 84.4872 64.9894 84.3787C65.2691 84.2139 65.2388 83.7999 64.938 83.6777L64.2263 83.3886C64.0493 83.3167 63.9584 83.1199 64.0185 82.9385C64.0844 82.7394 64.305 82.6375 64.4994 82.7165L65.8368 83.2598C66.2293 83.4193 66.6737 83.3867 67.0387 83.1717C67.9316 82.6458 67.9316 81.3543 67.0387 80.8284C66.6737 80.6134 66.2293 80.5808 65.8368 80.7402L64.4994 81.2836C64.305 81.3625 64.0844 81.2607 64.0185 81.0615C63.9584 80.8802 64.0493 80.6833 64.2263 80.6114L64.938 80.3223C65.2388 80.2001 65.2691 79.7861 64.9894 79.6213C64.8051 79.5128 64.7418 79.2766 64.8471 79.0905L64.9532 78.903C65.0577 78.7184 65.2933 78.6553 65.4761 78.763C65.7502 78.9244 66.0894 78.6971 66.0443 78.3822L65.9301 77.5838C65.9034 77.3972 66.0268 77.2221 66.2115 77.1843C66.4124 77.1433 66.6064 77.2799 66.6355 77.4829L66.8512 78.9905C66.9087 79.3924 67.1458 79.7464 67.4956 79.9524C68.3862 80.4769 69.5095 79.8349 69.5095 78.8013V78.7625C69.5095 78.3493 69.3214 77.9586 68.9984 77.7009L67.841 76.7775Z" fill="url(#paint5_linear_407_663)"/>
<path d="M68.9984 77.7009L68.6242 78.1699L68.9984 77.7009ZM66.8512 78.9905L66.2572 79.0755L66.8512 78.9905ZM66.0443 78.3822L66.6383 78.2972L66.0443 78.3822ZM64.9532 78.903L64.4311 78.6075L64.9532 78.903ZM64.8471 79.0905L64.325 78.795L64.8471 79.0905ZM64.938 80.3223L64.7121 79.7664L64.938 80.3223ZM64.2263 80.6114L64.4521 81.1673L64.2263 80.6114ZM64.4994 81.2836L64.7252 81.8395L64.4994 81.2836ZM65.8368 80.7402L65.611 80.1843L65.8368 80.7402ZM65.8368 83.2598L66.0627 82.7039L65.8368 83.2598ZM64.4994 82.7165L64.2735 83.2724L64.4994 82.7165ZM64.2263 83.3886L64.0005 83.9445L64.2263 83.3886ZM64.938 83.6777L64.7121 84.2336L64.938 83.6777ZM64.8471 84.9096L65.3693 84.614L64.8471 84.9096ZM64.9532 85.097L64.4311 85.3925L64.9532 85.097ZM66.0443 85.6178L66.6383 85.7028L66.0443 85.6178ZM65.9301 86.4162L65.3362 86.3312L65.9301 86.4162ZM66.6355 86.5171L66.0415 86.4321L66.6355 86.5171ZM68.9984 86.2991L69.3726 86.7681L68.9984 86.2991ZM67.841 87.2225L68.2152 87.6915L67.841 87.2225ZM68.2898 87.785L68.664 88.254L68.2898 87.785ZM68.8826 87.3121L69.2568 87.7811L68.8826 87.3121ZM71.1174 87.3121L70.7432 87.7811L71.1174 87.3121ZM71.7102 87.785L71.336 88.254L71.7102 87.785ZM72.159 87.2225L71.7848 87.6915L72.159 87.2225ZM73.1491 85.0096L73.743 84.9246L73.1491 85.0096ZM73.3648 86.5171L73.9587 86.4321L73.3648 86.5171ZM74.0701 86.4162L73.4762 86.5012L74.0701 86.4162ZM75.047 85.097L74.5249 84.8015L75.047 85.097ZM75.1531 84.9096L75.6753 85.2051L75.1531 84.9096ZM75.0623 83.6777L74.8365 83.1219L75.0623 83.6777ZM75.774 83.3886L75.9998 83.9445L75.774 83.3886ZM75.5009 82.7165L75.2751 82.1606L75.5009 82.7165ZM74.1634 83.2598L73.9376 82.7039L74.1634 83.2598ZM74.1634 80.7402L73.9376 81.2961L74.1634 80.7402ZM75.5009 81.2836L75.7267 80.7277L75.5009 81.2836ZM75.774 80.6114L75.9998 80.0555L75.774 80.6114ZM75.0623 80.3223L74.8365 80.8782L75.0623 80.3223ZM75.1531 79.0905L75.6753 78.795L75.1531 79.0905ZM75.047 78.903L74.5249 79.1986L75.047 78.903ZM73.9559 78.3822L73.362 78.2972L73.9559 78.3822ZM74.0701 77.5838L74.6641 77.6688L74.0701 77.5838ZM73.3648 77.4829L73.9587 77.5679L73.3648 77.4829ZM73.1491 78.9905L72.5551 78.9055L73.1491 78.9905ZM72.159 76.7775L72.5332 77.2465L72.159 76.7775ZM71.7102 76.215L71.336 75.746L71.7102 76.215ZM71.1174 76.6879L71.4916 77.1569L71.1174 76.6879ZM68.8826 76.6879L69.2568 76.2189L68.8826 76.6879ZM68.2898 76.215L68.664 75.746L68.2898 76.215ZM69.2568 76.2189L68.664 75.746L67.9156 76.684L68.5084 77.1569L69.2568 76.2189ZM70.1044 75.4H69.8956V76.6H70.1044V75.4ZM71.336 75.746L70.7432 76.2189L71.4916 77.1569L72.0844 76.684L71.336 75.746ZM71.3758 78.1699L72.5332 77.2465L71.7848 76.3085L70.6274 77.2318L71.3758 78.1699ZM71.0905 78.8013V78.7625H69.8905V78.8013H71.0905ZM72.7708 77.398L72.5551 78.9055L73.7431 79.0754L73.9587 77.5679L72.7708 77.398ZM74.5499 78.4672L74.6641 77.6688L73.4762 77.4989L73.362 78.2972L74.5499 78.4672ZM75.6753 78.795L75.5692 78.6075L74.5249 79.1986L74.631 79.386L75.6753 78.795ZM75.9998 80.0555L75.2881 79.7664L74.8365 80.8782L75.5481 81.1673L75.9998 80.0555ZM73.9376 81.2961L75.2751 81.8395L75.7267 80.7277L74.3892 80.1843L73.9376 81.2961ZM74.3892 83.8157L75.7267 83.2724L75.2751 82.1606L73.9376 82.7039L74.3892 83.8157ZM75.5481 82.8328L74.8365 83.1219L75.2881 84.2336L75.9998 83.9445L75.5481 82.8328ZM74.631 84.614L74.5249 84.8015L75.5692 85.3925L75.6753 85.2051L74.631 84.614ZM73.362 85.7028L73.4762 86.5012L74.6641 86.3312L74.5499 85.5329L73.362 85.7028ZM73.9587 86.4321L73.743 84.9246L72.5551 85.0946L72.7708 86.6021L73.9587 86.4321ZM71.0905 85.2375V85.1988H69.8905V85.2375H71.0905ZM72.5332 86.7535L71.3758 85.8301L70.6274 86.7681L71.7848 87.6915L72.5332 86.7535ZM70.7432 87.7811L71.336 88.254L72.0844 87.316L71.4916 86.8431L70.7432 87.7811ZM69.8956 88.6H70.1044V87.4H69.8956V88.6ZM68.664 88.254L69.2568 87.7811L68.5084 86.8431L67.9156 87.316L68.664 88.254ZM68.6242 85.8301L67.4668 86.7535L68.2152 87.6915L69.3726 86.7681L68.6242 85.8301ZM68.9095 85.1987V85.2375H70.1095V85.1987H68.9095ZM67.2294 86.6021L67.4451 85.0945L66.2572 84.9245L66.0415 86.4321L67.2294 86.6021ZM65.4504 85.5329L65.3362 86.3312L66.5241 86.5012L66.6383 85.7028L65.4504 85.5329ZM64.325 85.2051L64.4311 85.3925L65.4754 84.8015L65.3693 84.614L64.325 85.2051ZM64.0005 83.9445L64.7121 84.2336L65.1638 83.1219L64.4521 82.8328L64.0005 83.9445ZM66.0627 82.7039L64.7252 82.1606L64.2735 83.2724L65.611 83.8157L66.0627 82.7039ZM65.611 80.1843L64.2735 80.7277L64.7252 81.8395L66.0627 81.2961L65.611 80.1843ZM64.4521 81.1673L65.1638 80.8782L64.7121 79.7664L64.0005 80.0555L64.4521 81.1673ZM65.3693 79.386L65.4754 79.1986L64.4311 78.6075L64.325 78.795L65.3693 79.386ZM66.6383 78.2972L66.5241 77.4989L65.3362 77.6688L65.4504 78.4672L66.6383 78.2972ZM66.0415 77.5679L66.2572 79.0755L67.4451 78.9056L67.2294 77.398L66.0415 77.5679ZM68.9095 78.7625V78.8013H70.1095V78.7625H68.9095ZM67.4668 77.2465L68.6242 78.1699L69.3726 77.2319L68.2152 76.3085L67.4668 77.2465ZM70.1095 78.7625C70.1095 78.1668 69.8383 77.6034 69.3726 77.2319L68.6242 78.1699C68.8045 78.3138 68.9095 78.5319 68.9095 78.7625H70.1095ZM67.1911 80.4694C68.4817 81.2295 70.1095 80.2991 70.1095 78.8013H68.9095C68.9095 79.3707 68.2907 79.7244 67.8001 79.4354L67.1911 80.4694ZM66.2572 79.0755C66.3405 79.6579 66.6842 80.1708 67.1911 80.4694L67.8001 79.4354C67.6074 79.3219 67.4768 79.127 67.4451 78.9056L66.2572 79.0755ZM66.3316 77.7722C66.1941 77.8003 66.0614 77.7068 66.0415 77.5679L67.2294 77.398C67.1515 76.853 66.6307 76.4863 66.0914 76.5965L66.3316 77.7722ZM66.5241 77.4989C66.5423 77.6266 66.458 77.7464 66.3316 77.7722L66.0914 76.5965C65.5955 76.6978 65.2645 77.1679 65.3362 77.6688L66.5241 77.4989ZM65.1716 79.2799C65.8791 79.6967 66.7546 79.1101 66.6383 78.2972L65.4504 78.4672C65.4242 78.2842 65.6213 78.1521 65.7806 78.246L65.1716 79.2799ZM65.4754 79.1986C65.4147 79.3058 65.2778 79.3425 65.1716 79.2799L65.7806 78.246C65.3088 77.9681 64.7008 78.131 64.4311 78.6075L65.4754 79.1986ZM65.2938 79.1044C65.3916 79.1619 65.4252 79.2873 65.3693 79.386L64.325 78.795C64.0584 79.266 64.2185 79.8637 64.6849 80.1383L65.2938 79.1044ZM65.1638 80.8782C65.925 80.5689 66.0018 79.5213 65.2938 79.1044L64.6849 80.1383C64.5364 80.0509 64.5525 79.8313 64.7121 79.7664L65.1638 80.8782ZM64.5881 80.8729C64.6273 80.9915 64.5679 81.1203 64.4521 81.1673L64.0005 80.0555C63.5307 80.2464 63.2895 80.7688 63.4489 81.2501L64.5881 80.8729ZM64.2735 80.7277C64.4006 80.6761 64.5449 80.7427 64.5881 80.8729L63.4489 81.2501C63.6239 81.7786 64.2094 82.049 64.7252 81.8395L64.2735 80.7277ZM67.3432 80.3114C66.8171 80.0015 66.1767 79.9546 65.611 80.1843L66.0627 81.2961C66.282 81.207 66.5302 81.2252 66.7342 81.3454L67.3432 80.3114ZM67.3432 83.6887C68.6301 82.9307 68.6301 81.0693 67.3432 80.3114L66.7342 81.3454C67.2331 81.6392 67.2331 82.3608 66.7342 82.6547L67.3432 83.6887ZM65.611 83.8157C66.1767 84.0455 66.8171 83.9985 67.3432 83.6887L66.7342 82.6547C66.5302 82.7748 66.282 82.793 66.0627 82.7039L65.611 83.8157ZM64.5881 83.1271C64.5449 83.2574 64.4006 83.324 64.2735 83.2724L64.7252 82.1606C64.2094 81.951 63.6239 82.2214 63.4489 82.7499L64.5881 83.1271ZM64.4521 82.8328C64.5679 82.8798 64.6273 83.0085 64.5881 83.1271L63.4489 82.7499C63.2895 83.2313 63.5307 83.7537 64.0005 83.9445L64.4521 82.8328ZM65.2938 84.8957C66.0018 84.4787 65.925 83.4311 65.1638 83.1219L64.7121 84.2336C64.5525 84.1688 64.5364 83.9491 64.6849 83.8617L65.2938 84.8957ZM65.3693 84.614C65.4252 84.7128 65.3916 84.8381 65.2938 84.8957L64.6849 83.8617C64.2185 84.1364 64.0584 84.7341 64.325 85.2051L65.3693 84.614ZM65.1716 84.7201C65.2778 84.6575 65.4147 84.6942 65.4754 84.8015L64.4311 85.3925C64.7008 85.8691 65.3088 86.032 65.7806 85.7541L65.1716 84.7201ZM66.6383 85.7028C66.7546 84.8899 65.8791 84.3034 65.1716 84.7201L65.7806 85.7541C65.6213 85.8479 65.4242 85.7159 65.4504 85.5329L66.6383 85.7028ZM66.3316 86.2279C66.458 86.2537 66.5423 86.3735 66.5241 86.5012L65.3362 86.3312C65.2645 86.8322 65.5955 87.3023 66.0914 87.4036L66.3316 86.2279ZM66.0415 86.4321C66.0614 86.2933 66.1941 86.1998 66.3316 86.2279L66.0914 87.4036C66.6307 87.5138 67.1515 87.147 67.2294 86.6021L66.0415 86.4321ZM67.1911 83.5306C66.6842 83.8292 66.3405 84.3421 66.2572 84.9245L67.4451 85.0945C67.4768 84.8731 67.6074 84.6781 67.8001 84.5646L67.1911 83.5306ZM70.1095 85.1987C70.1095 83.701 68.4817 82.7706 67.1911 83.5306L67.8001 84.5646C68.2907 84.2757 68.9095 84.6294 68.9095 85.1987H70.1095ZM69.3726 86.7681C69.8383 86.3966 70.1095 85.8333 70.1095 85.2375H68.9095C68.9095 85.4681 68.8045 85.6862 68.6242 85.8301L69.3726 86.7681ZM68.2466 87.346C68.3363 87.4491 68.3221 87.6063 68.2152 87.6915L67.4668 86.7535C67.0399 87.0941 66.9828 87.7219 67.3415 88.1339L68.2466 87.346ZM67.9156 87.316C68.0162 87.2358 68.1621 87.249 68.2466 87.346L67.3415 88.1339C67.679 88.5217 68.2621 88.5747 68.664 88.254L67.9156 87.316ZM70.1095 87.6139C70.1095 86.7877 69.1543 86.3278 68.5084 86.8431L69.2568 87.7811C69.1167 87.8929 68.9095 87.7931 68.9095 87.6139H70.1095ZM69.8956 87.4C70.0137 87.4 70.1095 87.4958 70.1095 87.6139H68.9095C68.9095 88.1585 69.351 88.6 69.8956 88.6V87.4ZM69.8905 87.6139C69.8905 87.4958 69.9863 87.4 70.1044 87.4V88.6C70.649 88.6 71.0905 88.1585 71.0905 87.6139H69.8905ZM71.4916 86.8431C70.8457 86.3278 69.8905 86.7877 69.8905 87.6139H71.0905C71.0905 87.7931 70.8833 87.8929 70.7432 87.7811L71.4916 86.8431ZM71.7534 87.346C71.8379 87.249 71.9838 87.2358 72.0844 87.316L71.336 88.254C71.7378 88.5747 72.321 88.5217 72.6585 88.1339L71.7534 87.346ZM71.7848 87.6915C71.6779 87.6063 71.6637 87.4491 71.7534 87.346L72.6585 88.1339C73.0172 87.7219 72.9601 87.0941 72.5332 86.7535L71.7848 87.6915ZM69.8905 85.2375C69.8905 85.8332 70.1617 86.3966 70.6274 86.7681L71.3758 85.8301C71.1955 85.6863 71.0905 85.4681 71.0905 85.2375H69.8905ZM72.8091 83.5306C71.5184 82.7705 69.8905 83.701 69.8905 85.1988H71.0905C71.0905 84.6294 71.7094 84.2756 72.2001 84.5646L72.8091 83.5306ZM73.743 84.9246C73.6597 84.3422 73.316 83.8292 72.8091 83.5306L72.2001 84.5646C72.3928 84.6781 72.5235 84.8731 72.5551 85.0946L73.743 84.9246ZM73.6687 86.2279C73.8061 86.1998 73.9389 86.2933 73.9587 86.4321L72.7708 86.6021C72.8488 87.147 73.3696 87.5138 73.9089 87.4036L73.6687 86.2279ZM73.4762 86.5012C73.4579 86.3735 73.5423 86.2537 73.6687 86.2279L73.9089 87.4036C74.4047 87.3023 74.7358 86.8322 74.6641 86.3312L73.4762 86.5012ZM74.8287 84.7201C74.1211 84.3034 73.2457 84.8899 73.362 85.7028L74.5499 85.5329C74.5761 85.7159 74.379 85.8479 74.2197 85.7541L74.8287 84.7201ZM74.5249 84.8015C74.5856 84.6942 74.7224 84.6575 74.8287 84.7201L74.2197 85.7541C74.6915 86.032 75.2995 85.8691 75.5692 85.3925L74.5249 84.8015ZM74.7064 84.8957C74.6086 84.8381 74.5751 84.7128 74.631 84.614L75.6753 85.2051C75.9419 84.7341 75.7817 84.1364 75.3154 83.8617L74.7064 84.8957ZM74.8365 83.1219C74.0753 83.4311 73.9984 84.4787 74.7064 84.8957L75.3154 83.8617C75.4638 83.9491 75.4477 84.1688 75.2881 84.2336L74.8365 83.1219ZM75.4122 83.1271C75.3729 83.0085 75.4324 82.8798 75.5481 82.8328L75.9998 83.9445C76.4695 83.7537 76.7108 83.2313 76.5514 82.7499L75.4122 83.1271ZM75.7267 83.2724C75.5996 83.324 75.4553 83.2574 75.4122 83.1271L76.5514 82.7499C76.3764 82.2214 75.7909 81.951 75.2751 82.1606L75.7267 83.2724ZM72.6571 83.6887C73.1831 83.9985 73.8236 84.0455 74.3892 83.8157L73.9376 82.7039C73.7183 82.793 73.47 82.7748 73.2661 82.6547L72.6571 83.6887ZM72.6571 80.3114C71.3701 81.0693 71.3701 82.9307 72.6571 83.6887L73.2661 82.6547C72.7671 82.3608 72.7671 81.6392 73.2661 81.3454L72.6571 80.3114ZM74.3892 80.1843C73.8236 79.9546 73.1831 80.0015 72.6571 80.3114L73.2661 81.3454C73.47 81.2252 73.7183 81.207 73.9376 81.2961L74.3892 80.1843ZM75.4122 80.8729C75.4553 80.7427 75.5996 80.6761 75.7267 80.7277L75.2751 81.8395C75.7909 82.049 76.3764 81.7786 76.5514 81.2501L75.4122 80.8729ZM75.5481 81.1673C75.4324 81.1203 75.3729 80.9915 75.4122 80.8729L76.5514 81.2501C76.7108 80.7688 76.4695 80.2464 75.9998 80.0555L75.5481 81.1673ZM74.7064 79.1044C73.9984 79.5213 74.0753 80.5689 74.8365 80.8782L75.2881 79.7664C75.4477 79.8313 75.4638 80.0509 75.3154 80.1383L74.7064 79.1044ZM74.631 79.386C74.5751 79.2873 74.6086 79.1619 74.7064 79.1044L75.3154 80.1383C75.7817 79.8637 75.9419 79.266 75.6753 78.795L74.631 79.386ZM74.8287 79.2799C74.7224 79.3425 74.5856 79.3058 74.5249 79.1986L75.5692 78.6075C75.2995 78.131 74.6915 77.9681 74.2197 78.246L74.8287 79.2799ZM73.362 78.2972C73.2457 79.1101 74.1211 79.6967 74.8287 79.2799L74.2197 78.246C74.379 78.1521 74.5761 78.2842 74.5499 78.4672L73.362 78.2972ZM73.6687 77.7722C73.5423 77.7464 73.4579 77.6266 73.4762 77.4989L74.6641 77.6688C74.7358 77.1679 74.4047 76.6978 73.9089 76.5965L73.6687 77.7722ZM73.9587 77.5679C73.9389 77.7068 73.8061 77.8003 73.6687 77.7722L73.9089 76.5965C73.3696 76.4863 72.8488 76.853 72.7708 77.398L73.9587 77.5679ZM72.8091 80.4694C73.316 80.1708 73.6597 79.6579 73.7431 79.0754L72.5551 78.9055C72.5235 79.1269 72.3928 79.3219 72.2001 79.4355L72.8091 80.4694ZM69.8905 78.8013C69.8905 80.2991 71.5184 81.2296 72.8091 80.4694L72.2001 79.4355C71.7094 79.7244 71.0905 79.3707 71.0905 78.8013H69.8905ZM70.6274 77.2318C70.1617 77.6034 69.8905 78.1668 69.8905 78.7625H71.0905C71.0905 78.5319 71.1955 78.3137 71.3758 78.1699L70.6274 77.2318ZM71.7534 76.654C71.6637 76.5508 71.6779 76.3937 71.7848 76.3085L72.5332 77.2465C72.9601 76.9059 73.0172 76.2781 72.6585 75.8661L71.7534 76.654ZM72.0844 76.684C71.9838 76.7642 71.8379 76.751 71.7534 76.654L72.6585 75.8661C72.321 75.4783 71.7378 75.4253 71.336 75.746L72.0844 76.684ZM69.8905 76.3861C69.8905 77.2123 70.8457 77.6722 71.4916 77.1569L70.7432 76.2189C70.8833 76.1071 71.0905 76.2069 71.0905 76.3861H69.8905ZM70.1044 76.6C69.9863 76.6 69.8905 76.5042 69.8905 76.3861H71.0905C71.0905 75.8415 70.649 75.4 70.1044 75.4V76.6ZM70.1095 76.3861C70.1095 76.5042 70.0137 76.6 69.8956 76.6V75.4C69.351 75.4 68.9095 75.8415 68.9095 76.3861H70.1095ZM68.5084 77.1569C69.1543 77.6722 70.1095 77.2123 70.1095 76.3861H68.9095C68.9095 76.2069 69.1167 76.1071 69.2568 76.2189L68.5084 77.1569ZM67.3415 75.8661C66.9828 76.2781 67.0399 76.9059 67.4668 77.2465L68.2152 76.3085C68.3221 76.3937 68.3363 76.5509 68.2466 76.654L67.3415 75.8661ZM68.2466 76.654C68.1621 76.751 68.0162 76.7642 67.9156 76.684L68.664 75.746C68.2621 75.4253 67.679 75.4783 67.3415 75.8661L68.2466 76.654Z" fill="#36426F" fill-opacity="0.15" mask="url(#path-9-outside-2_407_663)"/>
</g>
<defs>
<filter id="filter0_f_407_663" x="11" y="-3" width="74" height="74" filterUnits="userSpaceOnUse" color-interpolation-filters="sRGB">
<feFlood flood-opacity="0" result="BackgroundImageFix"/>
<feBlend mode="normal" in="SourceGraphic" in2="BackgroundImageFix" result="shape"/>
<feGaussianBlur stdDeviation="9" result="effect1_foregroundBlur_407_663"/>
</filter>
<linearGradient id="paint0_linear_407_663" x1="35" y1="17" x2="63" y2="63" gradientUnits="userSpaceOnUse">
<stop offset="0.165457" stop-color="#F0AA41"/>
<stop offset="1" stop-color="#FF8A00"/>
</linearGradient>
<linearGradient id="paint1_linear_407_663" x1="40.5306" y1="40.3333" x2="64.3961" y2="58.1919" gradientUnits="userSpaceOnUse">
<stop offset="0.183865" stop-color="#ECECEC"/>
<stop offset="1" stop-color="#C4C4C4"/>
</linearGradient>
<linearGradient id="paint2_linear_407_663" x1="29" y1="76" x2="34.1933" y2="84.5861" gradientUnits="userSpaceOnUse">
<stop offset="0.085" stop-color="#C2D8E5"/>
<stop offset="1" stop-color="#8FCCED"/>
</linearGradient>
<linearGradient id="paint3_linear_407_663" x1="42" y1="76" x2="47.1933" y2="84.5861" gradientUnits="userSpaceOnUse">
<stop offset="0.085" stop-color="#C2D8E5"/>
<stop offset="1" stop-color="#8FCCED"/>
</linearGradient>
<linearGradient id="paint4_linear_407_663" x1="55.4547" y1="79.1579" x2="61.4732" y2="84.0495" gradientUnits="userSpaceOnUse">
<stop offset="0.183865" stop-color="#F5FCFF"/>
<stop offset="1" stop-color="#E0E9F4"/>
</linearGradient>
<linearGradient id="paint5_linear_407_663" x1="69.4547" y1="79.1579" x2="75.4732" y2="84.0495" gradientUnits="userSpaceOnUse">
<stop offset="0.183865" stop-color="#F5FCFF"/>
<stop offset="1" stop-color="#E0E9F4"/>
</linearGradient>
<clipPath id="clip0_407_663">
<rect width="100" height="100" fill="white"/>
</clipPath>
<clipPath id="clip1_407_663">
<rect width="64" height="44" fill="white" transform="translate(18 24)"/>
</clipPath>
</defs>
</svg>
