<svg width="100" height="100" viewBox="0 0 100 100" fill="none" xmlns="http://www.w3.org/2000/svg">
<g clip-path="url(#clip0_407_669)">
<path fill-rule="evenodd" clip-rule="evenodd" d="M82 46C82 58.1503 72.3513 68 60.449 68H33.0204V67.9964C32.9119 67.9988 32.803 68 32.6939 68C24.5787 68 18 61.2843 18 53C18 44.7157 24.5787 38 32.6939 38C35.2526 38 37.6586 38.6676 39.7537 39.8416C42.3629 30.6887 50.6408 24 60.449 24C72.3513 24 82 33.8497 82 46Z" fill="url(#paint0_linear_407_669)"/>
<path d="M33.0204 68H31.0204V70H33.0204V68ZM33.0204 67.9964H35.0204V65.9514L32.9759 65.9969L33.0204 67.9964ZM39.7537 39.8416L38.7761 41.5863L40.9834 42.8231L41.6771 40.3899L39.7537 39.8416ZM60.449 70C73.4945 70 84 59.2158 84 46H80C80 57.0848 71.208 66 60.449 66V70ZM60.449 66H33.0204V70H60.449V66ZM35.0204 68V67.9964H31.0204V68H35.0204ZM32.6939 70C32.8179 70 32.9415 69.9986 33.0649 69.9959L32.9759 65.9969C32.8822 65.9989 32.7881 66 32.6939 66V70ZM16 53C16 62.3498 23.4354 70 32.6939 70V66C25.7219 66 20 60.2188 20 53H16ZM32.6939 36C23.4354 36 16 43.6502 16 53H20C20 45.7812 25.7219 40 32.6939 40V36ZM40.7313 38.0968C38.3466 36.7606 35.6052 36 32.6939 36V40C34.9 40 36.9705 40.5747 38.7761 41.5863L40.7313 38.0968ZM60.449 22C49.6997 22 40.6712 29.3279 37.8303 39.2933L41.6771 40.3899C44.0547 32.0494 51.5818 26 60.449 26V22ZM84 46C84 32.7842 73.4945 22 60.449 22V26C71.208 26 80 34.9152 80 46H84Z" fill="black" fill-opacity="0.21"/>
</g>
<g clip-path="url(#clip1_407_669)">
<path d="M47 86.2V72.025H43V61H57L53 68.875H57L47 86.2Z" fill="url(#paint1_linear_407_669)" stroke="#B44100" stroke-opacity="0.25" stroke-width="2" stroke-miterlimit="16"/>
</g>
<defs>
<linearGradient id="paint0_linear_407_669" x1="40.5306" y1="40.3333" x2="64.3961" y2="58.1919" gradientUnits="userSpaceOnUse">
<stop offset="0.06" stop-color="#757575"/>
<stop offset="1" stop-color="#656565"/>
</linearGradient>
<linearGradient id="paint1_linear_407_669" x1="46.25" y1="63.25" x2="60.3758" y2="76.1426" gradientUnits="userSpaceOnUse">
<stop offset="0.165457" stop-color="#F0AA41"/>
<stop offset="1" stop-color="#FF8A00"/>
</linearGradient>
<clipPath id="clip0_407_669">
<rect width="64" height="44" fill="white" transform="translate(18 24)"/>
</clipPath>
<clipPath id="clip1_407_669">
<rect width="14" height="28" fill="white" transform="translate(43 61)"/>
</clipPath>
</defs>
</svg>
