<svg width="100" height="100" viewBox="0 0 100 100" fill="none" xmlns="http://www.w3.org/2000/svg">
<path fill-rule="evenodd" clip-rule="evenodd" d="M56.9925 33.7607C57.0443 33.5577 56.8162 33.3991 56.6323 33.504C53.9918 35.0106 50.776 35.5452 47.5826 34.7554C41.0729 33.1453 37.1208 26.642 38.7553 20.2297C39.5572 17.0838 41.5547 14.5443 44.1504 12.9635C44.3306 12.8538 44.2965 12.5817 44.0911 12.5309C34.577 10.1778 24.9278 15.8675 22.5389 25.2393C20.1501 34.6111 25.9263 44.116 35.4404 46.4691C44.9545 48.8222 54.6037 43.1325 56.9925 33.7607Z" fill="url(#paint0_linear_407_817)" stroke="#1C2047" stroke-opacity="0.15" stroke-width="4"/>
<circle cx="44.5195" cy="40.1445" r="1.875" fill="#1C2047" fill-opacity="0.15"/>
<circle cx="37.0195" cy="39.5195" r="1.25" fill="#1C2047" fill-opacity="0.15"/>
<circle cx="33.2695" cy="21.3945" r="1.25" fill="#1C2047" fill-opacity="0.15"/>
<circle cx="30.1445" cy="31.3945" r="3.125" fill="#1C2047" fill-opacity="0.15"/>
<g clip-path="url(#clip0_407_817)">
<path fill-rule="evenodd" clip-rule="evenodd" d="M84.0005 48C84.0005 60.1503 74.3518 70 62.4495 70C62.4493 70 62.4492 70 62.4491 70V70.0003H35.0205V69.9964C34.9119 69.9988 34.803 70 34.6939 70C26.5787 70 20 63.2843 20 55C20 46.7157 26.5787 40 34.6939 40C37.2528 40 39.6589 40.6677 41.7541 41.8418C44.3633 32.6888 52.6412 26 62.4495 26C74.3518 26 84.0005 35.8497 84.0005 48Z" fill="url(#paint1_linear_407_817)"/>
<path d="M62.4491 70V68H60.4491V70H62.4491ZM62.4491 70.0003V72.0003H64.4491V70.0003H62.4491ZM35.0205 70.0003H33.0205V72.0003H35.0205V70.0003ZM35.0205 69.9964H37.0205V67.9513L34.976 67.9969L35.0205 69.9964ZM41.7541 41.8418L40.7765 43.5865L42.9839 44.8234L43.6775 42.3901L41.7541 41.8418ZM62.4495 72C75.495 72 86.0005 61.2158 86.0005 48H82.0005C82.0005 59.0848 73.2085 68 62.4495 68V72ZM62.4491 72C62.4491 72 62.4491 72 62.4491 72C62.4491 72 62.4491 72 62.4491 72C62.4491 72 62.4491 72 62.4491 72C62.4491 72 62.4491 72 62.4491 72C62.4491 72 62.4491 72 62.4491 72C62.4491 72 62.4491 72 62.4491 72C62.4491 72 62.4491 72 62.4491 72C62.4491 72 62.4491 72 62.4491 72C62.4491 72 62.4491 72 62.4491 72C62.4491 72 62.4491 72 62.4491 72C62.4491 72 62.4491 72 62.4491 72C62.4491 72 62.4491 72 62.4491 72C62.4491 72 62.4491 72 62.4491 72C62.4491 72 62.4491 72 62.4491 72C62.4491 72 62.4491 72 62.4491 72C62.4491 72 62.4491 72 62.4491 72C62.4491 72 62.4491 72 62.4491 72C62.4491 72 62.4491 72 62.4491 72C62.4491 72 62.4491 72 62.4491 72C62.4491 72 62.4491 72 62.4491 72C62.4491 72 62.4491 72 62.4491 72C62.4491 72 62.4491 72 62.4491 72C62.4491 72 62.4491 72 62.4491 72C62.4491 72 62.4491 72 62.4491 72C62.4491 72 62.4491 72 62.4491 72C62.4491 72 62.4491 72 62.4491 72C62.4491 72 62.4491 72 62.4491 72C62.4491 72 62.4491 72 62.4491 72C62.4491 72 62.4491 72 62.4491 72C62.4491 72 62.4491 72 62.4491 72C62.4491 72 62.4491 72 62.4491 72C62.4491 72 62.4491 72 62.4491 72C62.4491 72 62.4491 72 62.4491 72C62.4491 72 62.4491 72 62.4491 72C62.4491 72 62.4491 72 62.4491 72C62.4491 72 62.4491 72 62.4491 72C62.4491 72 62.4491 72 62.4491 72C62.4491 72 62.4491 72 62.4491 72C62.4491 72 62.4491 72 62.4491 72C62.4491 72 62.4491 72 62.4491 72C62.4491 72 62.4491 72 62.4491 72C62.4491 72 62.4491 72 62.4491 72C62.4491 72 62.4491 72 62.4491 72C62.4491 72 62.4491 72 62.4491 72C62.4491 72 62.4491 72 62.4491 72C62.4491 72 62.4491 72 62.4491 72C62.4491 72 62.4491 72 62.4491 72C62.4491 72 62.4491 72 62.4491 72C62.4491 72 62.4491 72 62.4491 72C62.4491 72 62.4491 72 62.4491 72C62.4491 72 62.4491 72 62.4491 72C62.4491 72 62.4491 72 62.4491 72C62.4491 72 62.4491 72 62.4491 72C62.4491 72 62.4491 72 62.4491 72C62.4491 72 62.4491 72 62.4491 72C62.4491 72 62.4491 72 62.4491 72C62.4491 72 62.4491 72 62.4491 72C62.4491 72 62.4491 72 62.4491 72C62.4491 72 62.4491 72 62.4491 72C62.4491 72 62.4491 72 62.4491 72C62.4491 72 62.4491 72 62.4491 72C62.4491 72 62.4491 72 62.4491 72C62.4491 72 62.4491 72 62.4491 72C62.4491 72 62.4491 72 62.4491 72C62.4491 72 62.4491 72 62.4491 72C62.4491 72 62.4491 72 62.4491 72C62.4491 72 62.4491 72 62.4491 72C62.4491 72 62.4491 72 62.4491 72C62.4491 72 62.4491 72 62.4491 72C62.4491 72 62.4491 72 62.4491 72C62.4491 72 62.4491 72 62.4491 72C62.4491 72 62.4491 72 62.4491 72C62.4491 72 62.4491 72 62.4491 72C62.4491 72 62.4491 72 62.4491 72C62.4491 72 62.4491 72 62.4491 72C62.4491 72 62.4491 72 62.4491 72C62.4491 72 62.4491 72 62.4491 72C62.4491 72 62.4491 72 62.4491 72C62.4491 72 62.4491 72 62.4491 72C62.4491 72 62.4491 72 62.4491 72C62.4491 72 62.4491 72 62.4491 72C62.4491 72 62.4491 72 62.4491 72C62.4491 72 62.4491 72 62.4491 72C62.4491 72 62.4491 72 62.4491 72C62.4491 72 62.4491 72 62.4491 72C62.4491 72 62.4491 72 62.4491 72C62.4491 72 62.4491 72 62.4491 72C62.4491 72 62.4491 72 62.4491 72C62.4491 72 62.4491 72 62.4491 72C62.4491 72 62.4491 72 62.4491 72C62.4491 72 62.4491 72 62.4491 72C62.4491 72 62.4491 72 62.4491 72C62.4491 72 62.4491 72 62.4491 72C62.4491 72 62.4491 72 62.4491 72C62.4491 72 62.4491 72 62.4491 72C62.4491 72 62.4491 72 62.4491 72C62.4491 72 62.4491 72 62.4491 72C62.4491 72 62.4491 72 62.4491 72C62.4492 72 62.4492 72 62.4492 72C62.4492 72 62.4492 72 62.4492 72C62.4492 72 62.4492 72 62.4492 72C62.4492 72 62.4492 72 62.4492 72C62.4492 72 62.4492 72 62.4492 72C62.4492 72 62.4492 72 62.4492 72C62.4492 72 62.4492 72 62.4492 72C62.4492 72 62.4492 72 62.4492 72C62.4492 72 62.4492 72 62.4492 72C62.4492 72 62.4492 72 62.4492 72C62.4492 72 62.4492 72 62.4492 72C62.4492 72 62.4492 72 62.4492 72C62.4492 72 62.4492 72 62.4492 72C62.4492 72 62.4492 72 62.4492 72C62.4492 72 62.4492 72 62.4492 72C62.4492 72 62.4492 72 62.4492 72C62.4492 72 62.4492 72 62.4492 72C62.4492 72 62.4492 72 62.4492 72C62.4492 72 62.4492 72 62.4492 72C62.4492 72 62.4492 72 62.4492 72C62.4492 72 62.4492 72 62.4492 72C62.4492 72 62.4492 72 62.4492 72C62.4492 72 62.4492 72 62.4492 72C62.4492 72 62.4492 72 62.4492 72C62.4492 72 62.4492 72 62.4492 72C62.4492 72 62.4492 72 62.4492 72C62.4492 72 62.4492 72 62.4492 72C62.4492 72 62.4492 72 62.4492 72C62.4492 72 62.4492 72 62.4492 72C62.4492 72 62.4492 72 62.4492 72C62.4492 72 62.4492 72 62.4492 72C62.4492 72 62.4492 72 62.4492 72C62.4492 72 62.4492 72 62.4492 72C62.4492 72 62.4492 72 62.4492 72C62.4492 72 62.4492 72 62.4492 72C62.4492 72 62.4492 72 62.4492 72C62.4492 72 62.4492 72 62.4492 72C62.4492 72 62.4492 72 62.4492 72C62.4492 72 62.4492 72 62.4492 72C62.4492 72 62.4492 72 62.4492 72C62.4492 72 62.4492 72 62.4492 72C62.4492 72 62.4492 72 62.4492 72C62.4492 72 62.4492 72 62.4492 72C62.4492 72 62.4492 72 62.4492 72C62.4492 72 62.4492 72 62.4492 72C62.4492 72 62.4492 72 62.4492 72C62.4492 72 62.4492 72 62.4492 72C62.4492 72 62.4492 72 62.4492 72C62.4492 72 62.4492 72 62.4492 72C62.4492 72 62.4492 72 62.4492 72C62.4492 72 62.4492 72 62.4492 72C62.4492 72 62.4492 72 62.4492 72C62.4492 72 62.4492 72 62.4492 72C62.4492 72 62.4492 72 62.4492 72C62.4492 72 62.4492 72 62.4492 72C62.4492 72 62.4492 72 62.4492 72C62.4492 72 62.4492 72 62.4492 72C62.4492 72 62.4492 72 62.4492 72C62.4492 72 62.4492 72 62.4492 72C62.4492 72 62.4492 72 62.4492 72C62.4492 72 62.4492 72 62.4492 72C62.4492 72 62.4492 72 62.4492 72C62.4492 72 62.4492 72 62.4492 72C62.4492 72 62.4492 72 62.4492 72C62.4492 72 62.4492 72 62.4492 72C62.4492 72 62.4492 72 62.4492 72C62.4492 72 62.4492 72 62.4492 72C62.4492 72 62.4492 72 62.4492 72C62.4492 72 62.4492 72 62.4492 72C62.4492 72 62.4492 72 62.4492 72C62.4492 72 62.4492 72 62.4492 72C62.4492 72 62.4492 72 62.4492 72C62.4492 72 62.4492 72 62.4492 72C62.4492 72 62.4492 72 62.4492 72C62.4492 72 62.4492 72 62.4492 72C62.4492 72 62.4492 72 62.4492 72C62.4492 72 62.4492 72 62.4492 72C62.4492 72 62.4492 72 62.4492 72C62.4492 72 62.4492 72 62.4492 72C62.4492 72 62.4492 72 62.4492 72C62.4492 72 62.4492 72 62.4492 72C62.4492 72 62.4492 72 62.4492 72C62.4492 72 62.4492 72 62.4492 72C62.4492 72 62.4492 72 62.4492 72C62.4492 72 62.4492 72 62.4492 72C62.4492 72 62.4492 72 62.4492 72C62.4492 72 62.4492 72 62.4492 72C62.4492 72 62.4492 72 62.4492 72C62.4492 72 62.4492 72 62.4492 72C62.4492 72 62.4492 72 62.4492 72C62.4492 72 62.4492 72 62.4492 72C62.4492 72 62.4492 72 62.4492 72C62.4492 72 62.4492 72 62.4492 72C62.4492 72 62.4492 72 62.4492 72C62.4492 72 62.4492 72 62.4492 72C62.4492 72 62.4492 72 62.4492 72C62.4492 72 62.4492 72 62.4492 72C62.4492 72 62.4492 72 62.4492 72C62.4492 72 62.4492 72 62.4492 72C62.4492 72 62.4492 72 62.4492 72C62.4492 72 62.4492 72 62.4492 72C62.4492 72 62.4492 72 62.4492 72C62.4492 72 62.4492 72 62.4492 72C62.4492 72 62.4492 72 62.4492 72C62.4492 72 62.4492 72 62.4492 72C62.4492 72 62.4492 72 62.4492 72C62.4492 72 62.4492 72 62.4492 72C62.4492 72 62.4492 72 62.4492 72C62.4492 72 62.4492 72 62.4492 72C62.4492 72 62.4492 72 62.4492 72C62.4492 72 62.4492 72 62.4492 72C62.4492 72 62.4492 72 62.4492 72C62.4492 72 62.4492 72 62.4492 72C62.4492 72 62.4492 72 62.4492 72C62.4492 72 62.4492 72 62.4492 72C62.4492 72 62.4492 72 62.4492 72C62.4492 72 62.4492 72 62.4492 72C62.4492 72 62.4492 72 62.4492 72C62.4492 72 62.4492 72 62.4492 72C62.4492 72 62.4492 72 62.4492 72C62.4492 72 62.4492 72 62.4492 72C62.4492 72 62.4492 72 62.4492 72C62.4492 72 62.4492 72 62.4492 72C62.4492 72 62.4492 72 62.4492 72C62.4492 72 62.4492 72 62.4492 72C62.4492 72 62.4492 72 62.4492 72C62.4492 72 62.4492 72 62.4492 72C62.4492 72 62.4492 72 62.4492 72C62.4492 72 62.4492 72 62.4492 72C62.4492 72 62.4492 72 62.4492 72C62.4492 72 62.4492 72 62.4492 72C62.4492 72 62.4492 72 62.4492 72C62.4492 72 62.4492 72 62.4492 72C62.4492 72 62.4492 72 62.4492 72C62.4492 72 62.4492 72 62.4492 72C62.4492 72 62.4492 72 62.4493 72C62.4493 72 62.4493 72 62.4493 72C62.4493 72 62.4493 72 62.4493 72C62.4493 72 62.4493 72 62.4493 72C62.4493 72 62.4493 72 62.4493 72C62.4493 72 62.4493 72 62.4493 72C62.4493 72 62.4493 72 62.4493 72C62.4493 72 62.4493 72 62.4493 72C62.4493 72 62.4493 72 62.4493 72C62.4493 72 62.4493 72 62.4493 72C62.4493 72 62.4493 72 62.4493 72C62.4493 72 62.4493 72 62.4493 72C62.4493 72 62.4493 72 62.4493 72C62.4493 72 62.4493 72 62.4493 72C62.4493 72 62.4493 72 62.4493 72C62.4493 72 62.4493 72 62.4493 72C62.4493 72 62.4493 72 62.4493 72C62.4493 72 62.4493 72 62.4493 72C62.4493 72 62.4493 72 62.4493 72C62.4493 72 62.4493 72 62.4493 72C62.4493 72 62.4493 72 62.4493 72C62.4493 72 62.4493 72 62.4493 72C62.4493 72 62.4493 72 62.4493 72C62.4493 72 62.4493 72 62.4493 72C62.4493 72 62.4493 72 62.4493 72C62.4493 72 62.4493 72 62.4493 72C62.4493 72 62.4493 72 62.4493 72C62.4493 72 62.4493 72 62.4493 72C62.4493 72 62.4493 72 62.4493 72C62.4493 72 62.4493 72 62.4493 72C62.4493 72 62.4493 72 62.4493 72C62.4493 72 62.4493 72 62.4493 72C62.4493 72 62.4493 72 62.4493 72C62.4493 72 62.4493 72 62.4493 72C62.4493 72 62.4493 72 62.4493 72C62.4493 72 62.4493 72 62.4493 72C62.4493 72 62.4493 72 62.4493 72C62.4493 72 62.4493 72 62.4493 72C62.4493 72 62.4493 72 62.4493 72C62.4493 72 62.4493 72 62.4493 72C62.4493 72 62.4493 72 62.4493 72C62.4493 72 62.4493 72 62.4493 72C62.4493 72 62.4493 72 62.4493 72C62.4493 72 62.4493 72 62.4493 72C62.4493 72 62.4493 72 62.4493 72C62.4493 72 62.4493 72 62.4493 72C62.4493 72 62.4493 72 62.4493 72C62.4493 72 62.4493 72 62.4493 72C62.4493 72 62.4493 72 62.4493 72C62.4493 72 62.4493 72 62.4493 72C62.4493 72 62.4493 72 62.4493 72C62.4493 72 62.4493 72 62.4493 72C62.4493 72 62.4493 72 62.4493 72C62.4493 72 62.4493 72 62.4493 72C62.4493 72 62.4493 72 62.4493 72C62.4493 72 62.4493 72 62.4493 72C62.4493 72 62.4493 72 62.4493 72C62.4493 72 62.4493 72 62.4493 72C62.4493 72 62.4493 72 62.4493 72C62.4493 72 62.4493 72 62.4493 72C62.4493 72 62.4493 72 62.4493 72C62.4493 72 62.4493 72 62.4493 72C62.4493 72 62.4493 72 62.4493 72C62.4493 72 62.4493 72 62.4493 72C62.4493 72 62.4493 72 62.4493 72C62.4493 72 62.4493 72 62.4493 72C62.4493 72 62.4493 72 62.4493 72C62.4493 72 62.4493 72 62.4493 72C62.4493 72 62.4493 72 62.4493 72C62.4493 72 62.4493 72 62.4493 72C62.4493 72 62.4493 72 62.4493 72C62.4493 72 62.4493 72 62.4493 72C62.4493 72 62.4493 72 62.4493 72C62.4493 72 62.4493 72 62.4493 72C62.4493 72 62.4493 72 62.4493 72C62.4493 72 62.4493 72 62.4493 72C62.4493 72 62.4493 72 62.4493 72C62.4493 72 62.4493 72 62.4493 72C62.4493 72 62.4493 72 62.4493 72C62.4493 72 62.4493 72 62.4493 72C62.4493 72 62.4493 72 62.4493 72C62.4493 72 62.4493 72 62.4493 72C62.4493 72 62.4493 72 62.4493 72C62.4493 72 62.4493 72 62.4493 72C62.4493 72 62.4493 72 62.4493 72C62.4493 72 62.4493 72 62.4493 72C62.4493 72 62.4493 72 62.4493 72C62.4493 72 62.4493 72 62.4493 72C62.4493 72 62.4493 72 62.4493 72C62.4493 72 62.4493 72 62.4493 72C62.4493 72 62.4493 72 62.4493 72C62.4493 72 62.4493 72 62.4493 72C62.4493 72 62.4493 72 62.4493 72C62.4493 72 62.4493 72 62.4493 72C62.4493 72 62.4493 72 62.4493 72C62.4493 72 62.4493 72 62.4493 72C62.4493 72 62.4493 72 62.4493 72C62.4493 72 62.4493 72 62.4493 72C62.4493 72 62.4493 72 62.4493 72C62.4493 72 62.4493 72 62.4493 72C62.4493 72 62.4493 72 62.4493 72C62.4493 72 62.4493 72 62.4493 72C62.4493 72 62.4493 72 62.4493 72C62.4493 72 62.4493 72 62.4493 72C62.4493 72 62.4493 72 62.4493 72C62.4493 72 62.4493 72 62.4493 72C62.4493 72 62.4493 72 62.4493 72C62.4493 72 62.4493 72 62.4493 72C62.4493 72 62.4493 72 62.4493 72C62.4493 72 62.4493 72 62.4493 72C62.4493 72 62.4493 72 62.4493 72C62.4493 72 62.4493 72 62.4493 72C62.4493 72 62.4493 72 62.4493 72C62.4493 72 62.4493 72 62.4493 72C62.4493 72 62.4493 72 62.4493 72C62.4493 72 62.4493 72 62.4493 72C62.4493 72 62.4493 72 62.4493 72C62.4493 72 62.4493 72 62.4493 72C62.4493 72 62.4493 72 62.4493 72C62.4493 72 62.4493 72 62.4493 72C62.4493 72 62.4493 72 62.4493 72C62.4493 72 62.4493 72 62.4493 72C62.4493 72 62.4493 72 62.4493 72C62.4493 72 62.4493 72 62.4493 72C62.4493 72 62.4493 72 62.4493 72C62.4493 72 62.4493 72 62.4493 72C62.4493 72 62.4493 72 62.4493 72C62.4493 72 62.4493 72 62.4493 72C62.4493 72 62.4493 72 62.4493 72C62.4493 72 62.4493 72 62.4493 72C62.4493 72 62.4493 72 62.4493 72C62.4493 72 62.4493 72 62.4493 72C62.4493 72 62.4493 72 62.4493 72C62.4493 72 62.4493 72 62.4493 72C62.4493 72 62.4493 72 62.4493 72C62.4493 72 62.4493 72 62.4493 72C62.4494 72 62.4494 72 62.4494 72C62.4494 72 62.4494 72 62.4494 72C62.4494 72 62.4494 72 62.4494 72C62.4494 72 62.4494 72 62.4494 72C62.4494 72 62.4494 72 62.4494 72C62.4494 72 62.4494 72 62.4494 72C62.4494 72 62.4494 72 62.4494 72C62.4494 72 62.4494 72 62.4494 72C62.4494 72 62.4494 72 62.4494 72C62.4494 72 62.4494 72 62.4494 72C62.4494 72 62.4494 72 62.4494 72C62.4494 72 62.4494 72 62.4494 72C62.4494 72 62.4494 72 62.4494 72C62.4494 72 62.4494 72 62.4494 72C62.4494 72 62.4494 72 62.4494 72C62.4494 72 62.4494 72 62.4494 72C62.4494 72 62.4494 72 62.4494 72C62.4494 72 62.4494 72 62.4494 72C62.4494 72 62.4494 72 62.4494 72C62.4494 72 62.4494 72 62.4494 72C62.4494 72 62.4494 72 62.4494 72C62.4494 72 62.4494 72 62.4494 72C62.4494 72 62.4494 72 62.4494 72C62.4494 72 62.4494 72 62.4494 72C62.4494 72 62.4494 72 62.4494 72C62.4494 72 62.4494 72 62.4494 72C62.4494 72 62.4494 72 62.4494 72C62.4494 72 62.4494 72 62.4494 72C62.4494 72 62.4494 72 62.4494 72C62.4494 72 62.4494 72 62.4494 72C62.4494 72 62.4494 72 62.4494 72C62.4494 72 62.4494 72 62.4494 72C62.4494 72 62.4494 72 62.4494 72C62.4494 72 62.4494 72 62.4494 72C62.4494 72 62.4494 72 62.4494 72C62.4494 72 62.4494 72 62.4494 72C62.4494 72 62.4494 72 62.4494 72C62.4494 72 62.4494 72 62.4494 72C62.4494 72 62.4494 72 62.4494 72C62.4494 72 62.4494 72 62.4494 72C62.4494 72 62.4494 72 62.4494 72C62.4494 72 62.4494 72 62.4494 72C62.4494 72 62.4494 72 62.4494 72C62.4494 72 62.4494 72 62.4494 72C62.4494 72 62.4494 72 62.4494 72C62.4494 72 62.4494 72 62.4494 72C62.4494 72 62.4494 72 62.4494 72C62.4494 72 62.4494 72 62.4494 72C62.4494 72 62.4494 72 62.4494 72C62.4494 72 62.4494 72 62.4494 72C62.4494 72 62.4494 72 62.4494 72C62.4494 72 62.4494 72 62.4494 72C62.4494 72 62.4494 72 62.4494 72C62.4494 72 62.4494 72 62.4494 72C62.4494 72 62.4494 72 62.4494 72C62.4494 72 62.4494 72 62.4494 72C62.4494 72 62.4494 72 62.4494 72C62.4494 72 62.4494 72 62.4494 72C62.4494 72 62.4494 72 62.4494 72C62.4494 72 62.4494 72 62.4494 72C62.4494 72 62.4494 72 62.4494 72C62.4494 72 62.4494 72 62.4494 72C62.4494 72 62.4494 72 62.4494 72C62.4494 72 62.4494 72 62.4494 72C62.4494 72 62.4494 72 62.4494 72C62.4494 72 62.4494 72 62.4494 72C62.4494 72 62.4494 72 62.4494 72C62.4494 72 62.4494 72 62.4494 72C62.4494 72 62.4494 72 62.4494 72C62.4494 72 62.4494 72 62.4494 72C62.4494 72 62.4494 72 62.4494 72C62.4494 72 62.4494 72 62.4494 72C62.4494 72 62.4494 72 62.4494 72C62.4494 72 62.4494 72 62.4494 72C62.4494 72 62.4494 72 62.4494 72C62.4494 72 62.4494 72 62.4494 72C62.4494 72 62.4494 72 62.4494 72C62.4494 72 62.4494 72 62.4494 72C62.4494 72 62.4494 72 62.4494 72C62.4494 72 62.4494 72 62.4494 72C62.4494 72 62.4494 72 62.4494 72C62.4494 72 62.4494 72 62.4494 72C62.4494 72 62.4494 72 62.4494 72C62.4494 72 62.4494 72 62.4494 72C62.4494 72 62.4494 72 62.4494 72C62.4494 72 62.4494 72 62.4494 72C62.4494 72 62.4494 72 62.4494 72C62.4494 72 62.4494 72 62.4494 72C62.4494 72 62.4494 72 62.4494 72C62.4494 72 62.4494 72 62.4494 72C62.4494 72 62.4494 72 62.4494 72C62.4494 72 62.4494 72 62.4494 72C62.4494 72 62.4494 72 62.4494 72C62.4494 72 62.4494 72 62.4494 72C62.4494 72 62.4494 72 62.4494 72C62.4494 72 62.4494 72 62.4494 72C62.4494 72 62.4494 72 62.4494 72C62.4494 72 62.4494 72 62.4494 72C62.4494 72 62.4494 72 62.4494 72C62.4494 72 62.4494 72 62.4494 72C62.4494 72 62.4494 72 62.4494 72C62.4494 72 62.4494 72 62.4494 72C62.4494 72 62.4494 72 62.4494 72C62.4494 72 62.4494 72 62.4494 72C62.4494 72 62.4494 72 62.4494 72C62.4494 72 62.4494 72 62.4494 72C62.4494 72 62.4494 72 62.4494 72C62.4494 72 62.4494 72 62.4494 72C62.4494 72 62.4494 72 62.4494 72C62.4494 72 62.4494 72 62.4494 72C62.4494 72 62.4494 72 62.4494 72C62.4494 72 62.4494 72 62.4494 72C62.4494 72 62.4494 72 62.4494 72C62.4494 72 62.4494 72 62.4494 72C62.4494 72 62.4494 72 62.4494 72C62.4494 72 62.4494 72 62.4494 72C62.4494 72 62.4494 72 62.4494 72C62.4494 72 62.4494 72 62.4494 72C62.4494 72 62.4494 72 62.4494 72C62.4494 72 62.4494 72 62.4494 72C62.4494 72 62.4494 72 62.4494 72C62.4494 72 62.4494 72 62.4494 72C62.4494 72 62.4494 72 62.4494 72C62.4494 72 62.4494 72 62.4494 72C62.4494 72 62.4494 72 62.4494 72C62.4494 72 62.4494 72 62.4494 72C62.4494 72 62.4494 72 62.4494 72C62.4494 72 62.4494 72 62.4494 72C62.4494 72 62.4494 72 62.4494 72C62.4494 72 62.4494 72 62.4494 72C62.4494 72 62.4494 72 62.4494 72C62.4494 72 62.4494 72 62.4494 72C62.4494 72 62.4494 72 62.4494 72C62.4494 72 62.4494 72 62.4494 72C62.4494 72 62.4494 72 62.4494 72C62.4494 72 62.4494 72 62.4495 72C62.4495 72 62.4495 72 62.4495 72C62.4495 72 62.4495 72 62.4495 72C62.4495 72 62.4495 72 62.4495 72C62.4495 72 62.4495 72 62.4495 72C62.4495 72 62.4495 72 62.4495 72C62.4495 72 62.4495 72 62.4495 72C62.4495 72 62.4495 72 62.4495 72V68C62.4495 68 62.4495 68 62.4495 68C62.4495 68 62.4495 68 62.4495 68C62.4495 68 62.4495 68 62.4495 68C62.4495 68 62.4495 68 62.4495 68C62.4495 68 62.4495 68 62.4495 68C62.4495 68 62.4495 68 62.4495 68C62.4495 68 62.4495 68 62.4495 68C62.4494 68 62.4494 68 62.4494 68C62.4494 68 62.4494 68 62.4494 68C62.4494 68 62.4494 68 62.4494 68C62.4494 68 62.4494 68 62.4494 68C62.4494 68 62.4494 68 62.4494 68C62.4494 68 62.4494 68 62.4494 68C62.4494 68 62.4494 68 62.4494 68C62.4494 68 62.4494 68 62.4494 68C62.4494 68 62.4494 68 62.4494 68C62.4494 68 62.4494 68 62.4494 68C62.4494 68 62.4494 68 62.4494 68C62.4494 68 62.4494 68 62.4494 68C62.4494 68 62.4494 68 62.4494 68C62.4494 68 62.4494 68 62.4494 68C62.4494 68 62.4494 68 62.4494 68C62.4494 68 62.4494 68 62.4494 68C62.4494 68 62.4494 68 62.4494 68C62.4494 68 62.4494 68 62.4494 68C62.4494 68 62.4494 68 62.4494 68C62.4494 68 62.4494 68 62.4494 68C62.4494 68 62.4494 68 62.4494 68C62.4494 68 62.4494 68 62.4494 68C62.4494 68 62.4494 68 62.4494 68C62.4494 68 62.4494 68 62.4494 68C62.4494 68 62.4494 68 62.4494 68C62.4494 68 62.4494 68 62.4494 68C62.4494 68 62.4494 68 62.4494 68C62.4494 68 62.4494 68 62.4494 68C62.4494 68 62.4494 68 62.4494 68C62.4494 68 62.4494 68 62.4494 68C62.4494 68 62.4494 68 62.4494 68C62.4494 68 62.4494 68 62.4494 68C62.4494 68 62.4494 68 62.4494 68C62.4494 68 62.4494 68 62.4494 68C62.4494 68 62.4494 68 62.4494 68C62.4494 68 62.4494 68 62.4494 68C62.4494 68 62.4494 68 62.4494 68C62.4494 68 62.4494 68 62.4494 68C62.4494 68 62.4494 68 62.4494 68C62.4494 68 62.4494 68 62.4494 68C62.4494 68 62.4494 68 62.4494 68C62.4494 68 62.4494 68 62.4494 68C62.4494 68 62.4494 68 62.4494 68C62.4494 68 62.4494 68 62.4494 68C62.4494 68 62.4494 68 62.4494 68C62.4494 68 62.4494 68 62.4494 68C62.4494 68 62.4494 68 62.4494 68C62.4494 68 62.4494 68 62.4494 68C62.4494 68 62.4494 68 62.4494 68C62.4494 68 62.4494 68 62.4494 68C62.4494 68 62.4494 68 62.4494 68C62.4494 68 62.4494 68 62.4494 68C62.4494 68 62.4494 68 62.4494 68C62.4494 68 62.4494 68 62.4494 68C62.4494 68 62.4494 68 62.4494 68C62.4494 68 62.4494 68 62.4494 68C62.4494 68 62.4494 68 62.4494 68C62.4494 68 62.4494 68 62.4494 68C62.4494 68 62.4494 68 62.4494 68C62.4494 68 62.4494 68 62.4494 68C62.4494 68 62.4494 68 62.4494 68C62.4494 68 62.4494 68 62.4494 68C62.4494 68 62.4494 68 62.4494 68C62.4494 68 62.4494 68 62.4494 68C62.4494 68 62.4494 68 62.4494 68C62.4494 68 62.4494 68 62.4494 68C62.4494 68 62.4494 68 62.4494 68C62.4494 68 62.4494 68 62.4494 68C62.4494 68 62.4494 68 62.4494 68C62.4494 68 62.4494 68 62.4494 68C62.4494 68 62.4494 68 62.4494 68C62.4494 68 62.4494 68 62.4494 68C62.4494 68 62.4494 68 62.4494 68C62.4494 68 62.4494 68 62.4494 68C62.4494 68 62.4494 68 62.4494 68C62.4494 68 62.4494 68 62.4494 68C62.4494 68 62.4494 68 62.4494 68C62.4494 68 62.4494 68 62.4494 68C62.4494 68 62.4494 68 62.4494 68C62.4494 68 62.4494 68 62.4494 68C62.4494 68 62.4494 68 62.4494 68C62.4494 68 62.4494 68 62.4494 68C62.4494 68 62.4494 68 62.4494 68C62.4494 68 62.4494 68 62.4494 68C62.4494 68 62.4494 68 62.4494 68C62.4494 68 62.4494 68 62.4494 68C62.4494 68 62.4494 68 62.4494 68C62.4494 68 62.4494 68 62.4494 68C62.4494 68 62.4494 68 62.4494 68C62.4494 68 62.4494 68 62.4494 68C62.4494 68 62.4494 68 62.4494 68C62.4494 68 62.4494 68 62.4494 68C62.4494 68 62.4494 68 62.4494 68C62.4494 68 62.4494 68 62.4494 68C62.4494 68 62.4494 68 62.4494 68C62.4494 68 62.4494 68 62.4494 68C62.4494 68 62.4494 68 62.4494 68C62.4494 68 62.4494 68 62.4494 68C62.4494 68 62.4494 68 62.4494 68C62.4494 68 62.4494 68 62.4494 68C62.4494 68 62.4494 68 62.4494 68C62.4494 68 62.4494 68 62.4494 68C62.4494 68 62.4494 68 62.4494 68C62.4494 68 62.4494 68 62.4494 68C62.4494 68 62.4494 68 62.4494 68C62.4494 68 62.4494 68 62.4494 68C62.4494 68 62.4494 68 62.4494 68C62.4494 68 62.4494 68 62.4494 68C62.4494 68 62.4494 68 62.4494 68C62.4494 68 62.4494 68 62.4494 68C62.4494 68 62.4494 68 62.4494 68C62.4494 68 62.4494 68 62.4494 68C62.4494 68 62.4494 68 62.4494 68C62.4494 68 62.4494 68 62.4494 68C62.4494 68 62.4494 68 62.4494 68C62.4494 68 62.4494 68 62.4494 68C62.4494 68 62.4494 68 62.4494 68C62.4494 68 62.4494 68 62.4494 68C62.4494 68 62.4494 68 62.4494 68C62.4494 68 62.4494 68 62.4494 68C62.4494 68 62.4494 68 62.4494 68C62.4494 68 62.4494 68 62.4494 68C62.4494 68 62.4494 68 62.4494 68C62.4494 68 62.4494 68 62.4494 68C62.4494 68 62.4494 68 62.4494 68C62.4494 68 62.4494 68 62.4494 68C62.4494 68 62.4494 68 62.4494 68C62.4494 68 62.4494 68 62.4494 68C62.4494 68 62.4494 68 62.4494 68C62.4494 68 62.4494 68 62.4494 68C62.4494 68 62.4494 68 62.4494 68C62.4494 68 62.4494 68 62.4494 68C62.4494 68 62.4494 68 62.4494 68C62.4494 68 62.4494 68 62.4494 68C62.4494 68 62.4494 68 62.4494 68C62.4494 68 62.4494 68 62.4493 68C62.4493 68 62.4493 68 62.4493 68C62.4493 68 62.4493 68 62.4493 68C62.4493 68 62.4493 68 62.4493 68C62.4493 68 62.4493 68 62.4493 68C62.4493 68 62.4493 68 62.4493 68C62.4493 68 62.4493 68 62.4493 68C62.4493 68 62.4493 68 62.4493 68C62.4493 68 62.4493 68 62.4493 68C62.4493 68 62.4493 68 62.4493 68C62.4493 68 62.4493 68 62.4493 68C62.4493 68 62.4493 68 62.4493 68C62.4493 68 62.4493 68 62.4493 68C62.4493 68 62.4493 68 62.4493 68C62.4493 68 62.4493 68 62.4493 68C62.4493 68 62.4493 68 62.4493 68C62.4493 68 62.4493 68 62.4493 68C62.4493 68 62.4493 68 62.4493 68C62.4493 68 62.4493 68 62.4493 68C62.4493 68 62.4493 68 62.4493 68C62.4493 68 62.4493 68 62.4493 68C62.4493 68 62.4493 68 62.4493 68C62.4493 68 62.4493 68 62.4493 68C62.4493 68 62.4493 68 62.4493 68C62.4493 68 62.4493 68 62.4493 68C62.4493 68 62.4493 68 62.4493 68C62.4493 68 62.4493 68 62.4493 68C62.4493 68 62.4493 68 62.4493 68C62.4493 68 62.4493 68 62.4493 68C62.4493 68 62.4493 68 62.4493 68C62.4493 68 62.4493 68 62.4493 68C62.4493 68 62.4493 68 62.4493 68C62.4493 68 62.4493 68 62.4493 68C62.4493 68 62.4493 68 62.4493 68C62.4493 68 62.4493 68 62.4493 68C62.4493 68 62.4493 68 62.4493 68C62.4493 68 62.4493 68 62.4493 68C62.4493 68 62.4493 68 62.4493 68C62.4493 68 62.4493 68 62.4493 68C62.4493 68 62.4493 68 62.4493 68C62.4493 68 62.4493 68 62.4493 68C62.4493 68 62.4493 68 62.4493 68C62.4493 68 62.4493 68 62.4493 68C62.4493 68 62.4493 68 62.4493 68C62.4493 68 62.4493 68 62.4493 68C62.4493 68 62.4493 68 62.4493 68C62.4493 68 62.4493 68 62.4493 68C62.4493 68 62.4493 68 62.4493 68C62.4493 68 62.4493 68 62.4493 68C62.4493 68 62.4493 68 62.4493 68C62.4493 68 62.4493 68 62.4493 68C62.4493 68 62.4493 68 62.4493 68C62.4493 68 62.4493 68 62.4493 68C62.4493 68 62.4493 68 62.4493 68C62.4493 68 62.4493 68 62.4493 68C62.4493 68 62.4493 68 62.4493 68C62.4493 68 62.4493 68 62.4493 68C62.4493 68 62.4493 68 62.4493 68C62.4493 68 62.4493 68 62.4493 68C62.4493 68 62.4493 68 62.4493 68C62.4493 68 62.4493 68 62.4493 68C62.4493 68 62.4493 68 62.4493 68C62.4493 68 62.4493 68 62.4493 68C62.4493 68 62.4493 68 62.4493 68C62.4493 68 62.4493 68 62.4493 68C62.4493 68 62.4493 68 62.4493 68C62.4493 68 62.4493 68 62.4493 68C62.4493 68 62.4493 68 62.4493 68C62.4493 68 62.4493 68 62.4493 68C62.4493 68 62.4493 68 62.4493 68C62.4493 68 62.4493 68 62.4493 68C62.4493 68 62.4493 68 62.4493 68C62.4493 68 62.4493 68 62.4493 68C62.4493 68 62.4493 68 62.4493 68C62.4493 68 62.4493 68 62.4493 68C62.4493 68 62.4493 68 62.4493 68C62.4493 68 62.4493 68 62.4493 68C62.4493 68 62.4493 68 62.4493 68C62.4493 68 62.4493 68 62.4493 68C62.4493 68 62.4493 68 62.4493 68C62.4493 68 62.4493 68 62.4493 68C62.4493 68 62.4493 68 62.4493 68C62.4493 68 62.4493 68 62.4493 68C62.4493 68 62.4493 68 62.4493 68C62.4493 68 62.4493 68 62.4493 68C62.4493 68 62.4493 68 62.4493 68C62.4493 68 62.4493 68 62.4493 68C62.4493 68 62.4493 68 62.4493 68C62.4493 68 62.4493 68 62.4493 68C62.4493 68 62.4493 68 62.4493 68C62.4493 68 62.4493 68 62.4493 68C62.4493 68 62.4493 68 62.4493 68C62.4493 68 62.4493 68 62.4493 68C62.4493 68 62.4493 68 62.4493 68C62.4493 68 62.4493 68 62.4493 68C62.4493 68 62.4493 68 62.4493 68C62.4493 68 62.4493 68 62.4493 68C62.4493 68 62.4493 68 62.4493 68C62.4493 68 62.4493 68 62.4493 68C62.4493 68 62.4493 68 62.4493 68C62.4493 68 62.4493 68 62.4493 68C62.4493 68 62.4493 68 62.4493 68C62.4493 68 62.4493 68 62.4493 68C62.4493 68 62.4493 68 62.4493 68C62.4493 68 62.4493 68 62.4493 68C62.4493 68 62.4493 68 62.4493 68C62.4493 68 62.4493 68 62.4493 68C62.4493 68 62.4493 68 62.4493 68C62.4493 68 62.4493 68 62.4493 68C62.4493 68 62.4493 68 62.4493 68C62.4493 68 62.4493 68 62.4493 68C62.4493 68 62.4493 68 62.4493 68C62.4493 68 62.4493 68 62.4493 68C62.4493 68 62.4493 68 62.4493 68C62.4493 68 62.4493 68 62.4493 68C62.4493 68 62.4493 68 62.4493 68C62.4493 68 62.4493 68 62.4493 68C62.4493 68 62.4493 68 62.4493 68C62.4493 68 62.4493 68 62.4493 68C62.4493 68 62.4493 68 62.4493 68C62.4493 68 62.4493 68 62.4493 68C62.4493 68 62.4493 68 62.4493 68C62.4493 68 62.4493 68 62.4493 68C62.4493 68 62.4493 68 62.4493 68C62.4493 68 62.4493 68 62.4493 68C62.4493 68 62.4493 68 62.4493 68C62.4493 68 62.4493 68 62.4493 68C62.4493 68 62.4493 68 62.4493 68C62.4493 68 62.4493 68 62.4493 68C62.4493 68 62.4493 68 62.4493 68C62.4493 68 62.4493 68 62.4493 68C62.4493 68 62.4493 68 62.4493 68C62.4493 68 62.4493 68 62.4493 68C62.4493 68 62.4493 68 62.4493 68C62.4493 68 62.4493 68 62.4493 68C62.4493 68 62.4493 68 62.4493 68C62.4492 68 62.4492 68 62.4492 68C62.4492 68 62.4492 68 62.4492 68C62.4492 68 62.4492 68 62.4492 68C62.4492 68 62.4492 68 62.4492 68C62.4492 68 62.4492 68 62.4492 68C62.4492 68 62.4492 68 62.4492 68C62.4492 68 62.4492 68 62.4492 68C62.4492 68 62.4492 68 62.4492 68C62.4492 68 62.4492 68 62.4492 68C62.4492 68 62.4492 68 62.4492 68C62.4492 68 62.4492 68 62.4492 68C62.4492 68 62.4492 68 62.4492 68C62.4492 68 62.4492 68 62.4492 68C62.4492 68 62.4492 68 62.4492 68C62.4492 68 62.4492 68 62.4492 68C62.4492 68 62.4492 68 62.4492 68C62.4492 68 62.4492 68 62.4492 68C62.4492 68 62.4492 68 62.4492 68C62.4492 68 62.4492 68 62.4492 68C62.4492 68 62.4492 68 62.4492 68C62.4492 68 62.4492 68 62.4492 68C62.4492 68 62.4492 68 62.4492 68C62.4492 68 62.4492 68 62.4492 68C62.4492 68 62.4492 68 62.4492 68C62.4492 68 62.4492 68 62.4492 68C62.4492 68 62.4492 68 62.4492 68C62.4492 68 62.4492 68 62.4492 68C62.4492 68 62.4492 68 62.4492 68C62.4492 68 62.4492 68 62.4492 68C62.4492 68 62.4492 68 62.4492 68C62.4492 68 62.4492 68 62.4492 68C62.4492 68 62.4492 68 62.4492 68C62.4492 68 62.4492 68 62.4492 68C62.4492 68 62.4492 68 62.4492 68C62.4492 68 62.4492 68 62.4492 68C62.4492 68 62.4492 68 62.4492 68C62.4492 68 62.4492 68 62.4492 68C62.4492 68 62.4492 68 62.4492 68C62.4492 68 62.4492 68 62.4492 68C62.4492 68 62.4492 68 62.4492 68C62.4492 68 62.4492 68 62.4492 68C62.4492 68 62.4492 68 62.4492 68C62.4492 68 62.4492 68 62.4492 68C62.4492 68 62.4492 68 62.4492 68C62.4492 68 62.4492 68 62.4492 68C62.4492 68 62.4492 68 62.4492 68C62.4492 68 62.4492 68 62.4492 68C62.4492 68 62.4492 68 62.4492 68C62.4492 68 62.4492 68 62.4492 68C62.4492 68 62.4492 68 62.4492 68C62.4492 68 62.4492 68 62.4492 68C62.4492 68 62.4492 68 62.4492 68C62.4492 68 62.4492 68 62.4492 68C62.4492 68 62.4492 68 62.4492 68C62.4492 68 62.4492 68 62.4492 68C62.4492 68 62.4492 68 62.4492 68C62.4492 68 62.4492 68 62.4492 68C62.4492 68 62.4492 68 62.4492 68C62.4492 68 62.4492 68 62.4492 68C62.4492 68 62.4492 68 62.4492 68C62.4492 68 62.4492 68 62.4492 68C62.4492 68 62.4492 68 62.4492 68C62.4492 68 62.4492 68 62.4492 68C62.4492 68 62.4492 68 62.4492 68C62.4492 68 62.4492 68 62.4492 68C62.4492 68 62.4492 68 62.4492 68C62.4492 68 62.4492 68 62.4492 68C62.4492 68 62.4492 68 62.4492 68C62.4492 68 62.4492 68 62.4492 68C62.4492 68 62.4492 68 62.4492 68C62.4492 68 62.4492 68 62.4492 68C62.4492 68 62.4492 68 62.4492 68C62.4492 68 62.4492 68 62.4492 68C62.4492 68 62.4492 68 62.4492 68C62.4492 68 62.4492 68 62.4492 68C62.4492 68 62.4492 68 62.4492 68C62.4492 68 62.4492 68 62.4492 68C62.4492 68 62.4492 68 62.4492 68C62.4492 68 62.4492 68 62.4492 68C62.4492 68 62.4492 68 62.4492 68C62.4492 68 62.4492 68 62.4492 68C62.4492 68 62.4492 68 62.4492 68C62.4492 68 62.4492 68 62.4492 68C62.4492 68 62.4492 68 62.4492 68C62.4492 68 62.4492 68 62.4492 68C62.4492 68 62.4492 68 62.4492 68C62.4492 68 62.4492 68 62.4492 68C62.4492 68 62.4492 68 62.4492 68C62.4492 68 62.4492 68 62.4492 68C62.4492 68 62.4492 68 62.4492 68C62.4492 68 62.4492 68 62.4492 68C62.4492 68 62.4492 68 62.4492 68C62.4492 68 62.4492 68 62.4492 68C62.4492 68 62.4492 68 62.4492 68C62.4492 68 62.4492 68 62.4492 68C62.4492 68 62.4492 68 62.4492 68C62.4492 68 62.4492 68 62.4492 68C62.4492 68 62.4492 68 62.4492 68C62.4492 68 62.4492 68 62.4492 68C62.4492 68 62.4492 68 62.4492 68C62.4492 68 62.4492 68 62.4492 68C62.4492 68 62.4492 68 62.4492 68C62.4492 68 62.4492 68 62.4492 68C62.4492 68 62.4492 68 62.4492 68C62.4492 68 62.4492 68 62.4492 68C62.4492 68 62.4492 68 62.4492 68C62.4492 68 62.4492 68 62.4492 68C62.4492 68 62.4492 68 62.4492 68C62.4492 68 62.4492 68 62.4492 68C62.4492 68 62.4492 68 62.4492 68C62.4492 68 62.4492 68 62.4492 68C62.4492 68 62.4492 68 62.4492 68C62.4492 68 62.4492 68 62.4492 68C62.4492 68 62.4492 68 62.4492 68C62.4492 68 62.4492 68 62.4492 68C62.4492 68 62.4492 68 62.4492 68C62.4492 68 62.4492 68 62.4492 68C62.4492 68 62.4492 68 62.4492 68C62.4492 68 62.4492 68 62.4492 68C62.4492 68 62.4492 68 62.4492 68C62.4492 68 62.4492 68 62.4492 68C62.4492 68 62.4492 68 62.4492 68C62.4492 68 62.4492 68 62.4492 68C62.4492 68 62.4492 68 62.4492 68C62.4492 68 62.4492 68 62.4492 68C62.4492 68 62.4492 68 62.4492 68C62.4492 68 62.4492 68 62.4492 68C62.4492 68 62.4492 68 62.4492 68C62.4492 68 62.4492 68 62.4492 68C62.4492 68 62.4492 68 62.4492 68C62.4492 68 62.4492 68 62.4492 68C62.4492 68 62.4492 68 62.4492 68C62.4492 68 62.4492 68 62.4492 68C62.4492 68 62.4492 68 62.4492 68C62.4492 68 62.4492 68 62.4492 68C62.4492 68 62.4492 68 62.4491 68C62.4491 68 62.4491 68 62.4491 68C62.4491 68 62.4491 68 62.4491 68C62.4491 68 62.4491 68 62.4491 68C62.4491 68 62.4491 68 62.4491 68C62.4491 68 62.4491 68 62.4491 68C62.4491 68 62.4491 68 62.4491 68C62.4491 68 62.4491 68 62.4491 68C62.4491 68 62.4491 68 62.4491 68C62.4491 68 62.4491 68 62.4491 68C62.4491 68 62.4491 68 62.4491 68C62.4491 68 62.4491 68 62.4491 68C62.4491 68 62.4491 68 62.4491 68C62.4491 68 62.4491 68 62.4491 68C62.4491 68 62.4491 68 62.4491 68C62.4491 68 62.4491 68 62.4491 68C62.4491 68 62.4491 68 62.4491 68C62.4491 68 62.4491 68 62.4491 68C62.4491 68 62.4491 68 62.4491 68C62.4491 68 62.4491 68 62.4491 68C62.4491 68 62.4491 68 62.4491 68C62.4491 68 62.4491 68 62.4491 68C62.4491 68 62.4491 68 62.4491 68C62.4491 68 62.4491 68 62.4491 68C62.4491 68 62.4491 68 62.4491 68C62.4491 68 62.4491 68 62.4491 68C62.4491 68 62.4491 68 62.4491 68C62.4491 68 62.4491 68 62.4491 68C62.4491 68 62.4491 68 62.4491 68C62.4491 68 62.4491 68 62.4491 68C62.4491 68 62.4491 68 62.4491 68C62.4491 68 62.4491 68 62.4491 68C62.4491 68 62.4491 68 62.4491 68C62.4491 68 62.4491 68 62.4491 68C62.4491 68 62.4491 68 62.4491 68C62.4491 68 62.4491 68 62.4491 68C62.4491 68 62.4491 68 62.4491 68C62.4491 68 62.4491 68 62.4491 68C62.4491 68 62.4491 68 62.4491 68C62.4491 68 62.4491 68 62.4491 68C62.4491 68 62.4491 68 62.4491 68C62.4491 68 62.4491 68 62.4491 68C62.4491 68 62.4491 68 62.4491 68C62.4491 68 62.4491 68 62.4491 68C62.4491 68 62.4491 68 62.4491 68C62.4491 68 62.4491 68 62.4491 68C62.4491 68 62.4491 68 62.4491 68C62.4491 68 62.4491 68 62.4491 68C62.4491 68 62.4491 68 62.4491 68C62.4491 68 62.4491 68 62.4491 68C62.4491 68 62.4491 68 62.4491 68C62.4491 68 62.4491 68 62.4491 68C62.4491 68 62.4491 68 62.4491 68C62.4491 68 62.4491 68 62.4491 68C62.4491 68 62.4491 68 62.4491 68C62.4491 68 62.4491 68 62.4491 68C62.4491 68 62.4491 68 62.4491 68C62.4491 68 62.4491 68 62.4491 68C62.4491 68 62.4491 68 62.4491 68C62.4491 68 62.4491 68 62.4491 68C62.4491 68 62.4491 68 62.4491 68C62.4491 68 62.4491 68 62.4491 68C62.4491 68 62.4491 68 62.4491 68C62.4491 68 62.4491 68 62.4491 68C62.4491 68 62.4491 68 62.4491 68C62.4491 68 62.4491 68 62.4491 68C62.4491 68 62.4491 68 62.4491 68C62.4491 68 62.4491 68 62.4491 68C62.4491 68 62.4491 68 62.4491 68C62.4491 68 62.4491 68 62.4491 68C62.4491 68 62.4491 68 62.4491 68C62.4491 68 62.4491 68 62.4491 68C62.4491 68 62.4491 68 62.4491 68C62.4491 68 62.4491 68 62.4491 68C62.4491 68 62.4491 68 62.4491 68C62.4491 68 62.4491 68 62.4491 68C62.4491 68 62.4491 68 62.4491 68C62.4491 68 62.4491 68 62.4491 68C62.4491 68 62.4491 68 62.4491 68C62.4491 68 62.4491 68 62.4491 68C62.4491 68 62.4491 68 62.4491 68C62.4491 68 62.4491 68 62.4491 68C62.4491 68 62.4491 68 62.4491 68C62.4491 68 62.4491 68 62.4491 68C62.4491 68 62.4491 68 62.4491 68C62.4491 68 62.4491 68 62.4491 68C62.4491 68 62.4491 68 62.4491 68C62.4491 68 62.4491 68 62.4491 68C62.4491 68 62.4491 68 62.4491 68C62.4491 68 62.4491 68 62.4491 68C62.4491 68 62.4491 68 62.4491 68C62.4491 68 62.4491 68 62.4491 68C62.4491 68 62.4491 68 62.4491 68C62.4491 68 62.4491 68 62.4491 68C62.4491 68 62.4491 68 62.4491 68C62.4491 68 62.4491 68 62.4491 68C62.4491 68 62.4491 68 62.4491 68C62.4491 68 62.4491 68 62.4491 68C62.4491 68 62.4491 68 62.4491 68V72ZM60.4491 70V70.0003H64.4491V70H60.4491ZM62.4491 68.0003H35.0205V72.0003H62.4491V68.0003ZM37.0205 70.0003V69.9964H33.0205V70.0003H37.0205ZM34.6939 72C34.8179 72 34.9416 71.9986 35.065 71.9959L34.976 67.9969C34.8823 67.999 34.7882 68 34.6939 68V72ZM18 55C18 64.3498 25.4354 72 34.6939 72V68C27.7219 68 22 62.2188 22 55H18ZM34.6939 38C25.4354 38 18 45.6502 18 55H22C22 47.7812 27.7219 42 34.6939 42V38ZM42.7318 40.097C40.347 38.7607 37.6054 38 34.6939 38V42C36.9001 42 38.9708 42.5747 40.7765 43.5865L42.7318 40.097ZM62.4495 24C51.7001 24 42.6715 31.3281 39.8308 41.2935L43.6775 42.3901C46.0551 34.0495 53.5822 28 62.4495 28V24ZM86.0005 48C86.0005 34.7842 75.495 24 62.4495 24V28C73.2085 28 82.0005 36.9152 82.0005 48H86.0005Z" fill="black" fill-opacity="0.21"/>
</g>
<g clip-path="url(#clip1_407_817)">
<mask id="path-8-outside-1_407_817" maskUnits="userSpaceOnUse" x="35" y="75" width="14" height="14" fill="black">
<rect fill="white" x="35" y="75" width="14" height="14"/>
<path fill-rule="evenodd" clip-rule="evenodd" d="M39.841 76.7775C39.681 76.6498 39.6596 76.4145 39.794 76.26C39.9206 76.1146 40.1392 76.0948 40.2898 76.215L40.8826 76.6879C41.1355 76.8897 41.5095 76.7096 41.5095 76.3861C41.5095 76.1729 41.6823 76 41.8956 76H42.1044C42.3176 76 42.4905 76.1729 42.4905 76.3861C42.4905 76.7096 42.8645 76.8897 43.1174 76.6879L43.7102 76.215C43.8608 76.0948 44.0794 76.1146 44.206 76.26C44.3404 76.4145 44.319 76.6498 44.159 76.7775L43.0016 77.7009C42.6786 77.9586 42.4905 78.3493 42.4905 78.7625V78.8013C42.4905 79.8349 43.6139 80.477 44.5046 79.9525C44.8544 79.7464 45.0916 79.3924 45.1491 78.9905L45.3648 77.4829C45.3938 77.2799 45.5878 77.1433 45.7888 77.1843C45.9735 77.2221 46.0968 77.3972 46.0701 77.5838L45.9559 78.3822C45.9109 78.6972 46.25 78.9244 46.5242 78.763C46.707 78.6553 46.9425 78.7184 47.047 78.903L47.1531 79.0905C47.2585 79.2766 47.1952 79.5128 47.0109 79.6213C46.7311 79.7861 46.7615 80.2001 47.0623 80.3223L47.774 80.6114C47.9509 80.6833 48.0418 80.8802 47.9818 81.0615C47.9159 81.2607 47.6952 81.3625 47.5009 81.2836L46.1634 80.7402C45.7709 80.5808 45.3266 80.6134 44.9616 80.8284C44.0686 81.3543 44.0686 82.6458 44.9616 83.1717C45.3266 83.3867 45.7709 83.4193 46.1634 83.2598L47.5009 82.7165C47.6952 82.6375 47.9159 82.7394 47.9818 82.9385C48.0418 83.1199 47.9509 83.3167 47.774 83.3886L47.0623 83.6777C46.7615 83.8 46.7311 84.2139 47.0109 84.3787C47.1952 84.4872 47.2585 84.7234 47.1531 84.9096L47.047 85.097C46.9425 85.2817 46.707 85.3448 46.5242 85.2371C46.25 85.0756 45.9109 85.3029 45.9559 85.6178L46.0701 86.4162C46.0968 86.6028 45.9735 86.778 45.7888 86.8157C45.5878 86.8568 45.3938 86.7201 45.3648 86.5171L45.1491 85.0096C45.0916 84.6076 44.8544 84.2537 44.5046 84.0476C43.6139 83.523 42.4905 84.1652 42.4905 85.1988V85.2375C42.4905 85.6507 42.6786 86.0414 43.0016 86.2991L44.159 87.2225C44.319 87.3502 44.3404 87.5855 44.206 87.74C44.0794 87.8854 43.8608 87.9052 43.7102 87.785L43.1174 87.3121C42.8645 87.1103 42.4905 87.2904 42.4905 87.6139C42.4905 87.8271 42.3176 88 42.1044 88H41.8956C41.6823 88 41.5095 87.8271 41.5095 87.6139C41.5095 87.2904 41.1355 87.1103 40.8826 87.3121L40.2898 87.785C40.1392 87.9052 39.9206 87.8854 39.794 87.74C39.6596 87.5855 39.681 87.3502 39.841 87.2225L40.9984 86.2991C41.3214 86.0414 41.5095 85.6507 41.5095 85.2375V85.1987C41.5095 84.1652 40.3862 83.5231 39.4956 84.0476C39.1458 84.2537 38.9087 84.6076 38.8512 85.0095L38.6355 86.5171C38.6064 86.7201 38.4124 86.8568 38.2115 86.8157C38.0268 86.778 37.9034 86.6028 37.9301 86.4162L38.0443 85.6178C38.0894 85.3029 37.7502 85.0756 37.4761 85.2371C37.2933 85.3448 37.0577 85.2817 36.9532 85.097L36.8471 84.9096C36.7418 84.7234 36.8051 84.4872 36.9894 84.3787C37.2691 84.2139 37.2388 83.7999 36.938 83.6777L36.2263 83.3886C36.0493 83.3167 35.9584 83.1199 36.0185 82.9385C36.0844 82.7394 36.305 82.6375 36.4994 82.7165L37.8368 83.2598C38.2293 83.4193 38.6737 83.3867 39.0387 83.1717C39.9316 82.6458 39.9316 81.3543 39.0387 80.8284C38.6737 80.6134 38.2293 80.5808 37.8368 80.7402L36.4994 81.2836C36.305 81.3625 36.0844 81.2607 36.0185 81.0615C35.9584 80.8802 36.0493 80.6833 36.2263 80.6114L36.938 80.3223C37.2388 80.2001 37.2691 79.7861 36.9894 79.6213C36.8051 79.5128 36.7418 79.2766 36.8471 79.0905L36.9532 78.903C37.0577 78.7184 37.2933 78.6553 37.4761 78.763C37.7502 78.9244 38.0894 78.6971 38.0443 78.3822L37.9301 77.5838C37.9034 77.3972 38.0268 77.2221 38.2115 77.1843C38.4124 77.1433 38.6064 77.2799 38.6355 77.4829L38.8512 78.9905C38.9087 79.3924 39.1458 79.7464 39.4956 79.9524C40.3862 80.4769 41.5095 79.8349 41.5095 78.8013V78.7625C41.5095 78.3493 41.3214 77.9586 40.9984 77.7009L39.841 76.7775Z"/>
</mask>
<path fill-rule="evenodd" clip-rule="evenodd" d="M39.841 76.7775C39.681 76.6498 39.6596 76.4145 39.794 76.26C39.9206 76.1146 40.1392 76.0948 40.2898 76.215L40.8826 76.6879C41.1355 76.8897 41.5095 76.7096 41.5095 76.3861C41.5095 76.1729 41.6823 76 41.8956 76H42.1044C42.3176 76 42.4905 76.1729 42.4905 76.3861C42.4905 76.7096 42.8645 76.8897 43.1174 76.6879L43.7102 76.215C43.8608 76.0948 44.0794 76.1146 44.206 76.26C44.3404 76.4145 44.319 76.6498 44.159 76.7775L43.0016 77.7009C42.6786 77.9586 42.4905 78.3493 42.4905 78.7625V78.8013C42.4905 79.8349 43.6139 80.477 44.5046 79.9525C44.8544 79.7464 45.0916 79.3924 45.1491 78.9905L45.3648 77.4829C45.3938 77.2799 45.5878 77.1433 45.7888 77.1843C45.9735 77.2221 46.0968 77.3972 46.0701 77.5838L45.9559 78.3822C45.9109 78.6972 46.25 78.9244 46.5242 78.763C46.707 78.6553 46.9425 78.7184 47.047 78.903L47.1531 79.0905C47.2585 79.2766 47.1952 79.5128 47.0109 79.6213C46.7311 79.7861 46.7615 80.2001 47.0623 80.3223L47.774 80.6114C47.9509 80.6833 48.0418 80.8802 47.9818 81.0615C47.9159 81.2607 47.6952 81.3625 47.5009 81.2836L46.1634 80.7402C45.7709 80.5808 45.3266 80.6134 44.9616 80.8284C44.0686 81.3543 44.0686 82.6458 44.9616 83.1717C45.3266 83.3867 45.7709 83.4193 46.1634 83.2598L47.5009 82.7165C47.6952 82.6375 47.9159 82.7394 47.9818 82.9385C48.0418 83.1199 47.9509 83.3167 47.774 83.3886L47.0623 83.6777C46.7615 83.8 46.7311 84.2139 47.0109 84.3787C47.1952 84.4872 47.2585 84.7234 47.1531 84.9096L47.047 85.097C46.9425 85.2817 46.707 85.3448 46.5242 85.2371C46.25 85.0756 45.9109 85.3029 45.9559 85.6178L46.0701 86.4162C46.0968 86.6028 45.9735 86.778 45.7888 86.8157C45.5878 86.8568 45.3938 86.7201 45.3648 86.5171L45.1491 85.0096C45.0916 84.6076 44.8544 84.2537 44.5046 84.0476C43.6139 83.523 42.4905 84.1652 42.4905 85.1988V85.2375C42.4905 85.6507 42.6786 86.0414 43.0016 86.2991L44.159 87.2225C44.319 87.3502 44.3404 87.5855 44.206 87.74C44.0794 87.8854 43.8608 87.9052 43.7102 87.785L43.1174 87.3121C42.8645 87.1103 42.4905 87.2904 42.4905 87.6139C42.4905 87.8271 42.3176 88 42.1044 88H41.8956C41.6823 88 41.5095 87.8271 41.5095 87.6139C41.5095 87.2904 41.1355 87.1103 40.8826 87.3121L40.2898 87.785C40.1392 87.9052 39.9206 87.8854 39.794 87.74C39.6596 87.5855 39.681 87.3502 39.841 87.2225L40.9984 86.2991C41.3214 86.0414 41.5095 85.6507 41.5095 85.2375V85.1987C41.5095 84.1652 40.3862 83.5231 39.4956 84.0476C39.1458 84.2537 38.9087 84.6076 38.8512 85.0095L38.6355 86.5171C38.6064 86.7201 38.4124 86.8568 38.2115 86.8157C38.0268 86.778 37.9034 86.6028 37.9301 86.4162L38.0443 85.6178C38.0894 85.3029 37.7502 85.0756 37.4761 85.2371C37.2933 85.3448 37.0577 85.2817 36.9532 85.097L36.8471 84.9096C36.7418 84.7234 36.8051 84.4872 36.9894 84.3787C37.2691 84.2139 37.2388 83.7999 36.938 83.6777L36.2263 83.3886C36.0493 83.3167 35.9584 83.1199 36.0185 82.9385C36.0844 82.7394 36.305 82.6375 36.4994 82.7165L37.8368 83.2598C38.2293 83.4193 38.6737 83.3867 39.0387 83.1717C39.9316 82.6458 39.9316 81.3543 39.0387 80.8284C38.6737 80.6134 38.2293 80.5808 37.8368 80.7402L36.4994 81.2836C36.305 81.3625 36.0844 81.2607 36.0185 81.0615C35.9584 80.8802 36.0493 80.6833 36.2263 80.6114L36.938 80.3223C37.2388 80.2001 37.2691 79.7861 36.9894 79.6213C36.8051 79.5128 36.7418 79.2766 36.8471 79.0905L36.9532 78.903C37.0577 78.7184 37.2933 78.6553 37.4761 78.763C37.7502 78.9244 38.0894 78.6971 38.0443 78.3822L37.9301 77.5838C37.9034 77.3972 38.0268 77.2221 38.2115 77.1843C38.4124 77.1433 38.6064 77.2799 38.6355 77.4829L38.8512 78.9905C38.9087 79.3924 39.1458 79.7464 39.4956 79.9524C40.3862 80.4769 41.5095 79.8349 41.5095 78.8013V78.7625C41.5095 78.3493 41.3214 77.9586 40.9984 77.7009L39.841 76.7775Z" fill="url(#paint2_linear_407_817)"/>
<path d="M40.9984 77.7009L40.6242 78.1699L40.9984 77.7009ZM38.8512 78.9905L38.2572 79.0755L38.8512 78.9905ZM38.0443 78.3822L38.6383 78.2972L38.0443 78.3822ZM36.9532 78.903L36.4311 78.6075L36.9532 78.903ZM36.8471 79.0905L36.325 78.795L36.8471 79.0905ZM36.938 80.3223L36.7121 79.7664L36.938 80.3223ZM36.2263 80.6114L36.4521 81.1673L36.2263 80.6114ZM36.4994 81.2836L36.7252 81.8395L36.4994 81.2836ZM37.8368 80.7402L37.611 80.1843L37.8368 80.7402ZM37.8368 83.2598L38.0627 82.7039L37.8368 83.2598ZM36.4994 82.7165L36.2735 83.2724L36.4994 82.7165ZM36.2263 83.3886L36.0005 83.9445L36.2263 83.3886ZM36.938 83.6777L36.7121 84.2336L36.938 83.6777ZM36.8471 84.9096L37.3693 84.614L36.8471 84.9096ZM36.9532 85.097L36.4311 85.3925L36.9532 85.097ZM38.0443 85.6178L38.6383 85.7028L38.0443 85.6178ZM37.9301 86.4162L37.3362 86.3312L37.9301 86.4162ZM38.6355 86.5171L38.0415 86.4321L38.6355 86.5171ZM40.9984 86.2991L41.3726 86.7681L40.9984 86.2991ZM39.841 87.2225L40.2152 87.6915L39.841 87.2225ZM40.2898 87.785L40.664 88.254L40.2898 87.785ZM40.8826 87.3121L41.2568 87.7811L40.8826 87.3121ZM43.1174 87.3121L42.7432 87.7811L43.1174 87.3121ZM43.7102 87.785L43.336 88.254L43.7102 87.785ZM44.159 87.2225L43.7848 87.6915L44.159 87.2225ZM45.1491 85.0096L45.743 84.9246L45.1491 85.0096ZM45.3648 86.5171L45.9587 86.4321L45.3648 86.5171ZM46.0701 86.4162L45.4762 86.5012L46.0701 86.4162ZM47.047 85.097L46.5249 84.8015L47.047 85.097ZM47.1531 84.9096L47.6753 85.2051L47.1531 84.9096ZM47.0623 83.6777L46.8365 83.1219L47.0623 83.6777ZM47.774 83.3886L47.9998 83.9445L47.774 83.3886ZM47.5009 82.7165L47.2751 82.1606L47.5009 82.7165ZM46.1634 83.2598L45.9376 82.7039L46.1634 83.2598ZM46.1634 80.7402L45.9376 81.2961L46.1634 80.7402ZM47.5009 81.2836L47.7267 80.7277L47.5009 81.2836ZM47.774 80.6114L47.9998 80.0555L47.774 80.6114ZM47.0623 80.3223L46.8365 80.8782L47.0623 80.3223ZM47.1531 79.0905L47.6753 78.795L47.1531 79.0905ZM47.047 78.903L46.5249 79.1986L47.047 78.903ZM45.9559 78.3822L45.362 78.2972L45.9559 78.3822ZM46.0701 77.5838L46.6641 77.6688L46.0701 77.5838ZM45.3648 77.4829L45.9587 77.5679L45.3648 77.4829ZM45.1491 78.9905L44.5551 78.9055L45.1491 78.9905ZM44.159 76.7775L44.5332 77.2465L44.159 76.7775ZM43.7102 76.215L43.336 75.746L43.7102 76.215ZM43.1174 76.6879L43.4916 77.1569L43.1174 76.6879ZM40.8826 76.6879L41.2568 76.2189L40.8826 76.6879ZM40.2898 76.215L40.664 75.746L40.2898 76.215ZM41.2568 76.2189L40.664 75.746L39.9156 76.684L40.5084 77.1569L41.2568 76.2189ZM42.1044 75.4H41.8956V76.6H42.1044V75.4ZM43.336 75.746L42.7432 76.2189L43.4916 77.1569L44.0844 76.684L43.336 75.746ZM43.3758 78.1699L44.5332 77.2465L43.7848 76.3085L42.6274 77.2318L43.3758 78.1699ZM43.0905 78.8013V78.7625H41.8905V78.8013H43.0905ZM44.7708 77.398L44.5551 78.9055L45.7431 79.0754L45.9587 77.5679L44.7708 77.398ZM46.5499 78.4672L46.6641 77.6688L45.4762 77.4989L45.362 78.2972L46.5499 78.4672ZM47.6753 78.795L47.5692 78.6075L46.5249 79.1986L46.631 79.386L47.6753 78.795ZM47.9998 80.0555L47.2881 79.7664L46.8365 80.8782L47.5481 81.1673L47.9998 80.0555ZM45.9376 81.2961L47.2751 81.8395L47.7267 80.7277L46.3892 80.1843L45.9376 81.2961ZM46.3892 83.8157L47.7267 83.2724L47.2751 82.1606L45.9376 82.7039L46.3892 83.8157ZM47.5481 82.8328L46.8365 83.1219L47.2881 84.2336L47.9998 83.9445L47.5481 82.8328ZM46.631 84.614L46.5249 84.8015L47.5692 85.3925L47.6753 85.2051L46.631 84.614ZM45.362 85.7028L45.4762 86.5012L46.6641 86.3312L46.5499 85.5329L45.362 85.7028ZM45.9587 86.4321L45.743 84.9246L44.5551 85.0946L44.7708 86.6021L45.9587 86.4321ZM43.0905 85.2375V85.1988H41.8905V85.2375H43.0905ZM44.5332 86.7535L43.3758 85.8301L42.6274 86.7681L43.7848 87.6915L44.5332 86.7535ZM42.7432 87.7811L43.336 88.254L44.0844 87.316L43.4916 86.8431L42.7432 87.7811ZM41.8956 88.6H42.1044V87.4H41.8956V88.6ZM40.664 88.254L41.2568 87.7811L40.5084 86.8431L39.9156 87.316L40.664 88.254ZM40.6242 85.8301L39.4668 86.7535L40.2152 87.6915L41.3726 86.7681L40.6242 85.8301ZM40.9095 85.1987V85.2375H42.1095V85.1987H40.9095ZM39.2294 86.6021L39.4451 85.0945L38.2572 84.9245L38.0415 86.4321L39.2294 86.6021ZM37.4504 85.5329L37.3362 86.3312L38.5241 86.5012L38.6383 85.7028L37.4504 85.5329ZM36.325 85.2051L36.4311 85.3925L37.4754 84.8015L37.3693 84.614L36.325 85.2051ZM36.0005 83.9445L36.7121 84.2336L37.1638 83.1219L36.4521 82.8328L36.0005 83.9445ZM38.0627 82.7039L36.7252 82.1606L36.2735 83.2724L37.611 83.8157L38.0627 82.7039ZM37.611 80.1843L36.2735 80.7277L36.7252 81.8395L38.0627 81.2961L37.611 80.1843ZM36.4521 81.1673L37.1638 80.8782L36.7121 79.7664L36.0005 80.0555L36.4521 81.1673ZM37.3693 79.386L37.4754 79.1986L36.4311 78.6075L36.325 78.795L37.3693 79.386ZM38.6383 78.2972L38.5241 77.4989L37.3362 77.6688L37.4504 78.4672L38.6383 78.2972ZM38.0415 77.5679L38.2572 79.0755L39.4451 78.9056L39.2294 77.398L38.0415 77.5679ZM40.9095 78.7625V78.8013H42.1095V78.7625H40.9095ZM39.4668 77.2465L40.6242 78.1699L41.3726 77.2319L40.2152 76.3085L39.4668 77.2465ZM42.1095 78.7625C42.1095 78.1668 41.8383 77.6034 41.3726 77.2319L40.6242 78.1699C40.8045 78.3138 40.9095 78.5319 40.9095 78.7625H42.1095ZM39.1911 80.4694C40.4817 81.2295 42.1095 80.2991 42.1095 78.8013H40.9095C40.9095 79.3707 40.2907 79.7244 39.8001 79.4354L39.1911 80.4694ZM38.2572 79.0755C38.3405 79.6579 38.6842 80.1708 39.1911 80.4694L39.8001 79.4354C39.6074 79.3219 39.4768 79.127 39.4451 78.9056L38.2572 79.0755ZM38.3316 77.7722C38.1941 77.8003 38.0614 77.7068 38.0415 77.5679L39.2294 77.398C39.1515 76.853 38.6307 76.4863 38.0914 76.5965L38.3316 77.7722ZM38.5241 77.4989C38.5423 77.6266 38.458 77.7464 38.3316 77.7722L38.0914 76.5965C37.5955 76.6978 37.2645 77.1679 37.3362 77.6688L38.5241 77.4989ZM37.1716 79.2799C37.8791 79.6967 38.7546 79.1101 38.6383 78.2972L37.4504 78.4672C37.4242 78.2842 37.6213 78.1521 37.7806 78.246L37.1716 79.2799ZM37.4754 79.1986C37.4147 79.3058 37.2778 79.3425 37.1716 79.2799L37.7806 78.246C37.3088 77.9681 36.7008 78.131 36.4311 78.6075L37.4754 79.1986ZM37.2938 79.1044C37.3916 79.1619 37.4252 79.2873 37.3693 79.386L36.325 78.795C36.0584 79.266 36.2185 79.8637 36.6849 80.1383L37.2938 79.1044ZM37.1638 80.8782C37.925 80.5689 38.0018 79.5213 37.2938 79.1044L36.6849 80.1383C36.5364 80.0509 36.5525 79.8313 36.7121 79.7664L37.1638 80.8782ZM36.5881 80.8729C36.6273 80.9915 36.5679 81.1203 36.4521 81.1673L36.0005 80.0555C35.5307 80.2464 35.2895 80.7688 35.4489 81.2501L36.5881 80.8729ZM36.2735 80.7277C36.4006 80.6761 36.5449 80.7427 36.5881 80.8729L35.4489 81.2501C35.6239 81.7786 36.2094 82.049 36.7252 81.8395L36.2735 80.7277ZM39.3432 80.3114C38.8171 80.0015 38.1767 79.9546 37.611 80.1843L38.0627 81.2961C38.282 81.207 38.5302 81.2252 38.7342 81.3454L39.3432 80.3114ZM39.3432 83.6887C40.6301 82.9307 40.6301 81.0693 39.3432 80.3114L38.7342 81.3454C39.2331 81.6392 39.2331 82.3608 38.7342 82.6547L39.3432 83.6887ZM37.611 83.8157C38.1767 84.0455 38.8171 83.9985 39.3432 83.6887L38.7342 82.6547C38.5302 82.7748 38.282 82.793 38.0627 82.7039L37.611 83.8157ZM36.5881 83.1271C36.5449 83.2574 36.4006 83.324 36.2735 83.2724L36.7252 82.1606C36.2094 81.951 35.6239 82.2214 35.4489 82.7499L36.5881 83.1271ZM36.4521 82.8328C36.5679 82.8798 36.6273 83.0085 36.5881 83.1271L35.4489 82.7499C35.2895 83.2313 35.5307 83.7537 36.0005 83.9445L36.4521 82.8328ZM37.2938 84.8957C38.0018 84.4787 37.925 83.4311 37.1638 83.1219L36.7121 84.2336C36.5525 84.1688 36.5364 83.9491 36.6849 83.8617L37.2938 84.8957ZM37.3693 84.614C37.4252 84.7128 37.3916 84.8381 37.2938 84.8957L36.6849 83.8617C36.2185 84.1364 36.0584 84.7341 36.325 85.2051L37.3693 84.614ZM37.1716 84.7201C37.2778 84.6575 37.4147 84.6942 37.4754 84.8015L36.4311 85.3925C36.7008 85.8691 37.3088 86.032 37.7806 85.7541L37.1716 84.7201ZM38.6383 85.7028C38.7546 84.8899 37.8791 84.3034 37.1716 84.7201L37.7806 85.7541C37.6213 85.8479 37.4242 85.7159 37.4504 85.5329L38.6383 85.7028ZM38.3316 86.2279C38.458 86.2537 38.5423 86.3735 38.5241 86.5012L37.3362 86.3312C37.2645 86.8322 37.5955 87.3023 38.0914 87.4036L38.3316 86.2279ZM38.0415 86.4321C38.0614 86.2933 38.1941 86.1998 38.3316 86.2279L38.0914 87.4036C38.6307 87.5138 39.1515 87.147 39.2294 86.6021L38.0415 86.4321ZM39.1911 83.5306C38.6842 83.8292 38.3405 84.3421 38.2572 84.9245L39.4451 85.0945C39.4768 84.8731 39.6074 84.6781 39.8001 84.5646L39.1911 83.5306ZM42.1095 85.1987C42.1095 83.701 40.4817 82.7706 39.1911 83.5306L39.8001 84.5646C40.2907 84.2757 40.9095 84.6294 40.9095 85.1987H42.1095ZM41.3726 86.7681C41.8383 86.3966 42.1095 85.8333 42.1095 85.2375H40.9095C40.9095 85.4681 40.8045 85.6862 40.6242 85.8301L41.3726 86.7681ZM40.2466 87.346C40.3363 87.4491 40.3221 87.6063 40.2152 87.6915L39.4668 86.7535C39.0399 87.0941 38.9828 87.7219 39.3415 88.1339L40.2466 87.346ZM39.9156 87.316C40.0162 87.2358 40.1621 87.249 40.2466 87.346L39.3415 88.1339C39.679 88.5217 40.2621 88.5747 40.664 88.254L39.9156 87.316ZM42.1095 87.6139C42.1095 86.7877 41.1543 86.3278 40.5084 86.8431L41.2568 87.7811C41.1167 87.8929 40.9095 87.7931 40.9095 87.6139H42.1095ZM41.8956 87.4C42.0137 87.4 42.1095 87.4958 42.1095 87.6139H40.9095C40.9095 88.1585 41.351 88.6 41.8956 88.6V87.4ZM41.8905 87.6139C41.8905 87.4958 41.9863 87.4 42.1044 87.4V88.6C42.649 88.6 43.0905 88.1585 43.0905 87.6139H41.8905ZM43.4916 86.8431C42.8457 86.3278 41.8905 86.7877 41.8905 87.6139H43.0905C43.0905 87.7931 42.8833 87.8929 42.7432 87.7811L43.4916 86.8431ZM43.7534 87.346C43.8379 87.249 43.9838 87.2358 44.0844 87.316L43.336 88.254C43.7378 88.5747 44.321 88.5217 44.6585 88.1339L43.7534 87.346ZM43.7848 87.6915C43.6779 87.6063 43.6637 87.4491 43.7534 87.346L44.6585 88.1339C45.0172 87.7219 44.9601 87.0941 44.5332 86.7535L43.7848 87.6915ZM41.8905 85.2375C41.8905 85.8332 42.1617 86.3966 42.6274 86.7681L43.3758 85.8301C43.1955 85.6863 43.0905 85.4681 43.0905 85.2375H41.8905ZM44.8091 83.5306C43.5184 82.7705 41.8905 83.701 41.8905 85.1988H43.0905C43.0905 84.6294 43.7094 84.2756 44.2001 84.5646L44.8091 83.5306ZM45.743 84.9246C45.6597 84.3422 45.316 83.8292 44.8091 83.5306L44.2001 84.5646C44.3928 84.6781 44.5235 84.8731 44.5551 85.0946L45.743 84.9246ZM45.6687 86.2279C45.8061 86.1998 45.9389 86.2933 45.9587 86.4321L44.7708 86.6021C44.8488 87.147 45.3696 87.5138 45.9089 87.4036L45.6687 86.2279ZM45.4762 86.5012C45.4579 86.3735 45.5423 86.2537 45.6687 86.2279L45.9089 87.4036C46.4047 87.3023 46.7358 86.8322 46.6641 86.3312L45.4762 86.5012ZM46.8287 84.7201C46.1211 84.3034 45.2457 84.8899 45.362 85.7028L46.5499 85.5329C46.5761 85.7159 46.379 85.8479 46.2197 85.7541L46.8287 84.7201ZM46.5249 84.8015C46.5856 84.6942 46.7224 84.6575 46.8287 84.7201L46.2197 85.7541C46.6915 86.032 47.2995 85.8691 47.5692 85.3925L46.5249 84.8015ZM46.7064 84.8957C46.6086 84.8381 46.5751 84.7128 46.631 84.614L47.6753 85.2051C47.9419 84.7341 47.7817 84.1364 47.3154 83.8617L46.7064 84.8957ZM46.8365 83.1219C46.0753 83.4311 45.9984 84.4787 46.7064 84.8957L47.3154 83.8617C47.4638 83.9491 47.4477 84.1688 47.2881 84.2336L46.8365 83.1219ZM47.4122 83.1271C47.3729 83.0085 47.4324 82.8798 47.5481 82.8328L47.9998 83.9445C48.4695 83.7537 48.7108 83.2313 48.5514 82.7499L47.4122 83.1271ZM47.7267 83.2724C47.5996 83.324 47.4553 83.2574 47.4122 83.1271L48.5514 82.7499C48.3764 82.2214 47.7909 81.951 47.2751 82.1606L47.7267 83.2724ZM44.6571 83.6887C45.1831 83.9985 45.8236 84.0455 46.3892 83.8157L45.9376 82.7039C45.7183 82.793 45.47 82.7748 45.2661 82.6547L44.6571 83.6887ZM44.6571 80.3114C43.3701 81.0693 43.3701 82.9307 44.6571 83.6887L45.2661 82.6547C44.7671 82.3608 44.7671 81.6392 45.2661 81.3454L44.6571 80.3114ZM46.3892 80.1843C45.8236 79.9546 45.1831 80.0015 44.6571 80.3114L45.2661 81.3454C45.47 81.2252 45.7183 81.207 45.9376 81.2961L46.3892 80.1843ZM47.4122 80.8729C47.4553 80.7427 47.5996 80.6761 47.7267 80.7277L47.2751 81.8395C47.7909 82.049 48.3764 81.7786 48.5514 81.2501L47.4122 80.8729ZM47.5481 81.1673C47.4324 81.1203 47.3729 80.9915 47.4122 80.8729L48.5514 81.2501C48.7108 80.7688 48.4695 80.2464 47.9998 80.0555L47.5481 81.1673ZM46.7064 79.1044C45.9984 79.5213 46.0753 80.5689 46.8365 80.8782L47.2881 79.7664C47.4477 79.8313 47.4638 80.0509 47.3154 80.1383L46.7064 79.1044ZM46.631 79.386C46.5751 79.2873 46.6086 79.1619 46.7064 79.1044L47.3154 80.1383C47.7817 79.8637 47.9419 79.266 47.6753 78.795L46.631 79.386ZM46.8287 79.2799C46.7224 79.3425 46.5856 79.3058 46.5249 79.1986L47.5692 78.6075C47.2995 78.131 46.6915 77.9681 46.2197 78.246L46.8287 79.2799ZM45.362 78.2972C45.2457 79.1101 46.1211 79.6967 46.8287 79.2799L46.2197 78.246C46.379 78.1521 46.5761 78.2842 46.5499 78.4672L45.362 78.2972ZM45.6687 77.7722C45.5423 77.7464 45.4579 77.6266 45.4762 77.4989L46.6641 77.6688C46.7358 77.1679 46.4047 76.6978 45.9089 76.5965L45.6687 77.7722ZM45.9587 77.5679C45.9389 77.7068 45.8061 77.8003 45.6687 77.7722L45.9089 76.5965C45.3696 76.4863 44.8488 76.853 44.7708 77.398L45.9587 77.5679ZM44.8091 80.4694C45.316 80.1708 45.6597 79.6579 45.7431 79.0754L44.5551 78.9055C44.5235 79.1269 44.3928 79.3219 44.2001 79.4355L44.8091 80.4694ZM41.8905 78.8013C41.8905 80.2991 43.5184 81.2296 44.8091 80.4694L44.2001 79.4355C43.7094 79.7244 43.0905 79.3707 43.0905 78.8013H41.8905ZM42.6274 77.2318C42.1617 77.6034 41.8905 78.1668 41.8905 78.7625H43.0905C43.0905 78.5319 43.1955 78.3137 43.3758 78.1699L42.6274 77.2318ZM43.7534 76.654C43.6637 76.5508 43.6779 76.3937 43.7848 76.3085L44.5332 77.2465C44.9601 76.9059 45.0172 76.2781 44.6585 75.8661L43.7534 76.654ZM44.0844 76.684C43.9838 76.7642 43.8379 76.751 43.7534 76.654L44.6585 75.8661C44.321 75.4783 43.7378 75.4253 43.336 75.746L44.0844 76.684ZM41.8905 76.3861C41.8905 77.2123 42.8457 77.6722 43.4916 77.1569L42.7432 76.2189C42.8833 76.1071 43.0905 76.2069 43.0905 76.3861H41.8905ZM42.1044 76.6C41.9863 76.6 41.8905 76.5042 41.8905 76.3861H43.0905C43.0905 75.8415 42.649 75.4 42.1044 75.4V76.6ZM42.1095 76.3861C42.1095 76.5042 42.0137 76.6 41.8956 76.6V75.4C41.351 75.4 40.9095 75.8415 40.9095 76.3861H42.1095ZM40.5084 77.1569C41.1543 77.6722 42.1095 77.2123 42.1095 76.3861H40.9095C40.9095 76.2069 41.1167 76.1071 41.2568 76.2189L40.5084 77.1569ZM39.3415 75.8661C38.9828 76.2781 39.0399 76.9059 39.4668 77.2465L40.2152 76.3085C40.3221 76.3937 40.3363 76.5509 40.2466 76.654L39.3415 75.8661ZM40.2466 76.654C40.1621 76.751 40.0162 76.7642 39.9156 76.684L40.664 75.746C40.2621 75.4253 39.679 75.4783 39.3415 75.8661L40.2466 76.654Z" fill="#36426F" fill-opacity="0.15" mask="url(#path-8-outside-1_407_817)"/>
</g>
<g clip-path="url(#clip2_407_817)">
<path d="M55 85.2V71.025H51V60H65L61 67.875H65L55 85.2Z" fill="url(#paint3_linear_407_817)" stroke="#B44100" stroke-opacity="0.25" stroke-width="2" stroke-miterlimit="16"/>
</g>
<defs>
<linearGradient id="paint0_linear_407_817" x1="24.9829" y1="19.4344" x2="46.282" y2="45.2882" gradientUnits="userSpaceOnUse">
<stop offset="0.10284" stop-color="#9BA4B9"/>
<stop offset="0.859806" stop-color="#A9B4C4"/>
</linearGradient>
<linearGradient id="paint1_linear_407_817" x1="42.5308" y1="42.3335" x2="66.3964" y2="60.1921" gradientUnits="userSpaceOnUse">
<stop offset="0.06" stop-color="#757575"/>
<stop offset="1" stop-color="#656565"/>
</linearGradient>
<linearGradient id="paint2_linear_407_817" x1="41.4547" y1="79.1579" x2="47.4732" y2="84.0495" gradientUnits="userSpaceOnUse">
<stop offset="0.183865" stop-color="#F5FCFF"/>
<stop offset="1" stop-color="#E0E9F4"/>
</linearGradient>
<linearGradient id="paint3_linear_407_817" x1="54.25" y1="62.25" x2="68.3758" y2="75.1426" gradientUnits="userSpaceOnUse">
<stop offset="0.165457" stop-color="#F0AA41"/>
<stop offset="1" stop-color="#FF8A00"/>
</linearGradient>
<clipPath id="clip0_407_817">
<rect width="68" height="48" fill="white" transform="translate(18 24)"/>
</clipPath>
<clipPath id="clip1_407_817">
<rect width="12" height="12" fill="white" transform="translate(36 76)"/>
</clipPath>
<clipPath id="clip2_407_817">
<rect width="14" height="28" fill="white" transform="translate(51 60)"/>
</clipPath>
</defs>
</svg>
