<svg width="100" height="100" viewBox="0 0 100 100" fill="none" xmlns="http://www.w3.org/2000/svg">
<path fill-rule="evenodd" clip-rule="evenodd" d="M56.9925 43.7607C57.0443 43.5577 56.8162 43.3991 56.6323 43.504C53.9918 45.0106 50.776 45.5452 47.5826 44.7554C41.0729 43.1453 37.1208 36.642 38.7553 30.2297C39.5572 27.0838 41.5547 24.5443 44.1504 22.9635C44.3306 22.8538 44.2965 22.5817 44.0911 22.5309C34.577 20.1778 24.9278 25.8675 22.5389 35.2393C20.1501 44.6111 25.9263 54.116 35.4404 56.4691C44.9545 58.8222 54.6037 53.1325 56.9925 43.7607Z" fill="url(#paint0_linear_407_755)" stroke="#1C2047" stroke-opacity="0.15" stroke-width="4"/>
<circle cx="44.5195" cy="50.1445" r="1.875" fill="#1C2047" fill-opacity="0.15"/>
<circle cx="37.0195" cy="49.5195" r="1.25" fill="#1C2047" fill-opacity="0.15"/>
<circle cx="33.2695" cy="31.3945" r="1.25" fill="#1C2047" fill-opacity="0.15"/>
<circle cx="30.1445" cy="41.3945" r="3.125" fill="#1C2047" fill-opacity="0.15"/>
<path fill-rule="evenodd" clip-rule="evenodd" d="M82 56C82 68.1503 72.3513 78 60.449 78C60.4447 78 60.4404 78 60.4362 78H33.0204V77.9964C32.9119 77.9988 32.803 78 32.6939 78C24.5787 78 18 71.2843 18 63C18 54.7157 24.5787 48 32.6939 48C35.2526 48 37.6586 48.6676 39.7537 49.8416C42.3629 40.6887 50.6408 34 60.449 34C72.3513 34 82 43.8497 82 56Z" fill="url(#paint1_linear_407_755)"/>
<path d="M33.0204 78H31.0204V80H33.0204V78ZM33.0204 77.9964H35.0204V75.9514L32.9759 75.9969L33.0204 77.9964ZM39.7537 49.8416L38.7761 51.5863L40.9834 52.8231L41.6771 50.3899L39.7537 49.8416ZM60.449 80C73.4945 80 84 69.2158 84 56H80C80 67.0848 71.208 76 60.449 76V80ZM60.4362 80C60.4378 80 60.4395 80 60.4417 80C60.4437 80 60.4463 80 60.449 80V76C60.4474 76 60.4457 76 60.4435 76C60.4414 76 60.4388 76 60.4362 76V80ZM60.4362 76H33.0204V80H60.4362V76ZM35.0204 78V77.9964H31.0204V78H35.0204ZM32.6939 80C32.8179 80 32.9415 79.9986 33.0649 79.9959L32.9759 75.9969C32.8822 75.9989 32.7881 76 32.6939 76V80ZM16 63C16 72.3498 23.4354 80 32.6939 80V76C25.7219 76 20 70.2188 20 63H16ZM32.6939 46C23.4354 46 16 53.6502 16 63H20C20 55.7812 25.7219 50 32.6939 50V46ZM40.7313 48.0968C38.3466 46.7606 35.6052 46 32.6939 46V50C34.9 50 36.9705 50.5747 38.7761 51.5863L40.7313 48.0968ZM60.449 32C49.6997 32 40.6712 39.3279 37.8303 49.2933L41.6771 50.3899C44.0547 42.0494 51.5818 36 60.449 36V32ZM84 56C84 42.7842 73.4945 32 60.449 32V36C71.208 36 80 44.9152 80 56H84Z" fill="black" fill-opacity="0.07"/>
<defs>
<linearGradient id="paint0_linear_407_755" x1="24.9829" y1="29.4344" x2="46.282" y2="55.2882" gradientUnits="userSpaceOnUse">
<stop offset="0.10284" stop-color="#9BA4B9"/>
<stop offset="0.859806" stop-color="#A9B4C4"/>
</linearGradient>
<linearGradient id="paint1_linear_407_755" x1="40.5306" y1="50.3333" x2="64.3961" y2="68.1919" gradientUnits="userSpaceOnUse">
<stop offset="0.183865" stop-color="white"/>
<stop offset="1" stop-color="#CDCDCD"/>
</linearGradient>
</defs>
</svg>
