<svg width="100" height="100" viewBox="0 0 100 100" fill="none" xmlns="http://www.w3.org/2000/svg">
<path fill-rule="evenodd" clip-rule="evenodd" d="M50.9925 43.7607C51.0443 43.5577 50.8162 43.3991 50.6323 43.504C47.9918 45.0106 44.776 45.5452 41.5826 44.7554C35.0729 43.1453 31.1208 36.642 32.7553 30.2297C33.5572 27.0838 35.5547 24.5443 38.1504 22.9635C38.3306 22.8538 38.2965 22.5817 38.0911 22.5309C28.577 20.1778 18.9278 25.8675 16.5389 35.2393C14.1501 44.6111 19.9263 54.116 29.4404 56.4691C38.9545 58.8222 48.6037 53.1325 50.9925 43.7607Z" fill="url(#paint0_linear_407_758)" stroke="#1C2047" stroke-opacity="0.15" stroke-width="4"/>
<circle cx="38.5195" cy="50.1445" r="1.875" fill="#1C2047" fill-opacity="0.15"/>
<circle cx="31.0195" cy="49.5195" r="1.25" fill="#1C2047" fill-opacity="0.15"/>
<circle cx="27.2695" cy="31.3945" r="1.25" fill="#1C2047" fill-opacity="0.15"/>
<circle cx="24.1445" cy="41.3945" r="3.125" fill="#1C2047" fill-opacity="0.15"/>
<path fill-rule="evenodd" clip-rule="evenodd" d="M76 50C76 62.1503 66.3513 72 54.449 72H27.0204V71.9964C26.9119 71.9988 26.803 72 26.6939 72C18.5787 72 12 65.2843 12 57C12 48.7157 18.5787 42 26.6939 42C29.2526 42 31.6586 42.6676 33.7537 43.8416C36.3629 34.6887 44.6408 28 54.449 28C66.3513 28 76 37.8497 76 50Z" fill="url(#paint1_linear_407_758)"/>
<path d="M27.0204 72H25.0204V74H27.0204V72ZM27.0204 71.9964H29.0204V69.9514L26.9759 69.9969L27.0204 71.9964ZM33.7537 43.8416L32.7761 45.5863L34.9834 46.8231L35.6771 44.3899L33.7537 43.8416ZM54.449 74C67.4945 74 78 63.2158 78 50H74C74 61.0848 65.208 70 54.449 70V74ZM54.449 70H27.0204V74H54.449V70ZM29.0204 72V71.9964H25.0204V72H29.0204ZM26.6939 74C26.8179 74 26.9415 73.9986 27.0649 73.9959L26.9759 69.9969C26.8822 69.9989 26.7881 70 26.6939 70V74ZM10 57C10 66.3498 17.4354 74 26.6939 74V70C19.7219 70 14 64.2188 14 57H10ZM26.6939 40C17.4354 40 10 47.6502 10 57H14C14 49.7812 19.7219 44 26.6939 44V40ZM34.7313 42.0968C32.3466 40.7606 29.6052 40 26.6939 40V44C28.9 44 30.9705 44.5747 32.7761 45.5863L34.7313 42.0968ZM54.449 26C43.6997 26 34.6712 33.3279 31.8303 43.2933L35.6771 44.3899C38.0547 36.0494 45.5818 30 54.449 30V26ZM78 50C78 36.7842 67.4945 26 54.449 26V30C65.208 30 74 38.9152 74 50H78Z" fill="black" fill-opacity="0.07"/>
<path fill-rule="evenodd" clip-rule="evenodd" d="M87.6363 57C87.6363 65.2843 81.0577 72 72.9425 72C72.9176 72 72.8928 71.9999 72.8679 71.9998H54.2415V71.9975C54.1674 71.9992 54.0931 72 54.0186 72C48.4855 72 44 67.4211 44 61.7727C44 56.1244 48.4855 51.5455 54.0186 51.5455C55.7631 51.5455 57.4035 52.0007 58.8321 52.8011C60.6111 46.5605 66.2551 42 72.9425 42C81.0577 42 87.6363 48.7157 87.6363 57Z" fill="url(#paint2_linear_407_758)"/>
<path d="M72.8679 71.9998L72.8748 70.6422H72.8679V71.9998ZM54.2415 71.9998H52.8839V73.3574H54.2415V71.9998ZM54.2415 71.9975H55.5991V70.6093L54.2112 70.6403L54.2415 71.9975ZM58.8321 52.8011L58.1685 53.9854L59.6668 54.8249L60.1376 53.1732L58.8321 52.8011ZM72.9425 73.3576C81.8337 73.3576 88.9939 66.0075 88.9939 57H86.2788C86.2788 64.561 80.2816 70.6424 72.9425 70.6424V73.3576ZM72.8611 73.3574C72.8882 73.3575 72.9153 73.3576 72.9425 73.3576V70.6424C72.9199 70.6424 72.8973 70.6424 72.8748 70.6423L72.8611 73.3574ZM72.8679 70.6422H54.2415V73.3574H72.8679V70.6422ZM55.5991 71.9998V71.9975H52.8839V71.9998H55.5991ZM54.0186 73.3576C54.1031 73.3576 54.1875 73.3566 54.2717 73.3548L54.2112 70.6403C54.1472 70.6417 54.083 70.6424 54.0186 70.6424V73.3576ZM42.6424 61.7727C42.6424 68.1443 47.7094 73.3576 54.0186 73.3576V70.6424C49.2615 70.6424 45.3576 66.6978 45.3576 61.7727H42.6424ZM54.0186 50.1879C47.7094 50.1879 42.6424 55.4011 42.6424 61.7727H45.3576C45.3576 56.8476 49.2615 52.903 54.0186 52.903V50.1879ZM59.4956 51.6167C57.8706 50.7062 56.0025 50.1879 54.0186 50.1879V52.903C55.5238 52.903 56.9365 53.2951 58.1685 53.9854L59.4956 51.6167ZM72.9425 40.6424C65.6163 40.6424 59.4627 45.6368 57.5265 52.4289L60.1376 53.1732C61.7594 47.4841 66.8938 43.3576 72.9425 43.3576V40.6424ZM88.9939 57C88.9939 47.9925 81.8337 40.6424 72.9425 40.6424V43.3576C80.2816 43.3576 86.2788 49.439 86.2788 57H88.9939Z" fill="black" fill-opacity="0.07"/>
<defs>
<linearGradient id="paint0_linear_407_758" x1="18.9829" y1="29.4344" x2="40.282" y2="55.2882" gradientUnits="userSpaceOnUse">
<stop offset="0.10284" stop-color="#9BA4B9"/>
<stop offset="0.859806" stop-color="#A9B4C4"/>
</linearGradient>
<linearGradient id="paint1_linear_407_758" x1="34.5306" y1="44.3333" x2="58.3961" y2="62.1919" gradientUnits="userSpaceOnUse">
<stop offset="0.183865" stop-color="#ECECEC"/>
<stop offset="1" stop-color="#C4C4C4"/>
</linearGradient>
<linearGradient id="paint2_linear_407_758" x1="59.3618" y1="53.1364" x2="75.6337" y2="65.3126" gradientUnits="userSpaceOnUse">
<stop offset="0.183865" stop-color="#ECECEC"/>
<stop offset="1" stop-color="#C4C4C4"/>
</linearGradient>
</defs>
</svg>
