<svg width="100" height="100" viewBox="0 0 100 100" fill="none" xmlns="http://www.w3.org/2000/svg">
<g clip-path="url(#clip0_407_630)">
<path d="M47.5955 12.7537C49.034 11.7488 50.966 11.7488 52.4045 12.7537L54.3949 14.1442C55.295 14.773 56.4148 15.0231 57.5045 14.8387L59.9143 14.431C61.656 14.1364 63.3966 14.9567 64.2471 16.4729L65.4239 18.5707C65.956 19.5194 66.854 20.2202 67.9176 20.5168L70.2695 21.1726C71.9693 21.6466 73.1739 23.1247 73.2679 24.8519L73.3979 27.2416C73.4568 28.3223 73.9551 29.3349 74.7818 30.0537L76.6101 31.6431C77.9314 32.7919 78.3613 34.6351 77.6802 36.2311L76.7378 38.4394C76.3116 39.438 76.3116 40.562 76.7378 41.5606L77.6802 43.7689C78.3613 45.3649 77.9314 47.2081 76.6101 48.3569L74.7818 49.9463C73.9551 50.6651 73.4568 51.6778 73.3979 52.7584L73.2679 55.1481C73.1739 56.8753 71.9693 58.3534 70.2695 58.8274L67.9176 59.4832C66.854 59.7798 65.956 60.4806 65.4239 61.4292L64.2471 63.5271C63.3966 65.0433 61.656 65.8636 59.9143 65.569L57.5045 65.1613C56.4148 64.9769 55.295 65.227 54.3949 65.8558L52.4045 67.2463C50.966 68.2512 49.034 68.2512 47.5955 67.2463L45.6051 65.8558C44.705 65.227 43.5852 64.9769 42.4955 65.1613L40.0857 65.569C38.344 65.8636 36.6034 65.0433 35.7529 63.5271L34.5761 61.4292C34.044 60.4806 33.146 59.7798 32.0824 59.4832L29.7305 58.8274C28.0307 58.3534 26.8261 56.8753 26.7321 55.1481L26.602 52.7584C26.5432 51.6777 26.0449 50.6651 25.2182 49.9463L23.3899 48.3569C22.0686 47.2081 21.6387 45.3649 22.3198 43.7689L23.2622 41.5606C23.6884 40.562 23.6884 39.438 23.2622 38.4394L22.3198 36.2311C21.6387 34.6351 22.0686 32.7919 23.3899 31.6431L25.2182 30.0537C26.0449 29.3349 26.5432 28.3223 26.602 27.2416L26.7321 24.8519C26.8261 23.1247 28.0307 21.6466 29.7305 21.1726L32.0824 20.5168C33.146 20.2202 34.044 19.5194 34.5761 18.5707L35.7529 16.4729C36.6034 14.9567 38.344 14.1364 40.0857 14.431L42.4955 14.8387C43.5852 15.0231 44.705 14.773 45.6051 14.1442L47.5955 12.7537Z" fill="url(#paint0_linear_407_630)" stroke="#833F00" stroke-opacity="0.25" stroke-width="4"/>
<g filter="url(#filter0_f_407_630)">
<circle cx="48" cy="34" r="19" fill="#FFCF54"/>
</g>
<path fill-rule="evenodd" clip-rule="evenodd" d="M82 46C82 58.1503 72.3513 68 60.449 68H33.0204V67.9964C32.9119 67.9988 32.803 68 32.6939 68C24.5787 68 18 61.2843 18 53C18 44.7157 24.5787 38 32.6939 38C35.2526 38 37.6586 38.6676 39.7537 39.8416C42.3629 30.6887 50.6408 24 60.449 24C72.3513 24 82 33.8497 82 46Z" fill="url(#paint1_linear_407_630)"/>
<path d="M33.0204 68H31.0204V70H33.0204V68ZM33.0204 67.9964H35.0204V65.9514L32.9759 65.9969L33.0204 67.9964ZM39.7537 39.8416L38.7761 41.5863L40.9834 42.8231L41.6771 40.3899L39.7537 39.8416ZM60.449 70C73.4945 70 84 59.2158 84 46H80C80 57.0848 71.208 66 60.449 66V70ZM60.449 66H33.0204V70H60.449V66ZM35.0204 68V67.9964H31.0204V68H35.0204ZM32.6939 70C32.8179 70 32.9415 69.9986 33.0649 69.9959L32.9759 65.9969C32.8822 65.9989 32.7881 66 32.6939 66V70ZM16 53C16 62.3498 23.4354 70 32.6939 70V66C25.7219 66 20 60.2188 20 53H16ZM32.6939 36C23.4354 36 16 43.6502 16 53H20C20 45.7812 25.7219 40 32.6939 40V36ZM40.7313 38.0968C38.3466 36.7606 35.6052 36 32.6939 36V40C34.9 40 36.9705 40.5747 38.7761 41.5863L40.7313 38.0968ZM60.449 22C49.6997 22 40.6712 29.3279 37.8303 39.2933L41.6771 40.3899C44.0547 32.0494 51.5818 26 60.449 26V22ZM84 46C84 32.7842 73.4945 22 60.449 22V26C71.208 26 80 34.9152 80 46H84Z" fill="black" fill-opacity="0.07"/>
<mask id="path-5-outside-1_407_630" maskUnits="userSpaceOnUse" x="43" y="74" width="14" height="14" fill="black">
<rect fill="white" x="43" y="74" width="14" height="14"/>
<path fill-rule="evenodd" clip-rule="evenodd" d="M47.841 75.7775C47.681 75.6498 47.6596 75.4145 47.794 75.26C47.9206 75.1146 48.1392 75.0948 48.2898 75.215L48.8826 75.6879C49.1355 75.8897 49.5095 75.7096 49.5095 75.3861C49.5095 75.1729 49.6823 75 49.8956 75H50.1044C50.3176 75 50.4905 75.1729 50.4905 75.3861C50.4905 75.7096 50.8645 75.8897 51.1174 75.6879L51.7102 75.215C51.8608 75.0948 52.0794 75.1146 52.206 75.26C52.3404 75.4145 52.319 75.6498 52.159 75.7775L51.0016 76.7009C50.6786 76.9586 50.4905 77.3493 50.4905 77.7625V77.8013C50.4905 78.8349 51.6139 79.477 52.5046 78.9525C52.8544 78.7464 53.0916 78.3924 53.1491 77.9905L53.3648 76.4829C53.3938 76.2799 53.5878 76.1433 53.7888 76.1843C53.9735 76.2221 54.0968 76.3972 54.0701 76.5838L53.9559 77.3822C53.9109 77.6972 54.25 77.9244 54.5242 77.763C54.707 77.6553 54.9425 77.7184 55.047 77.903L55.1531 78.0905C55.2585 78.2766 55.1952 78.5128 55.0109 78.6213C54.7311 78.7861 54.7615 79.2001 55.0623 79.3223L55.774 79.6114C55.9509 79.6833 56.0418 79.8802 55.9818 80.0615C55.9159 80.2607 55.6952 80.3625 55.5009 80.2836L54.1634 79.7402C53.7709 79.5808 53.3266 79.6134 52.9616 79.8284C52.0686 80.3543 52.0686 81.6458 52.9616 82.1717C53.3266 82.3867 53.7709 82.4193 54.1634 82.2598L55.5009 81.7165C55.6952 81.6375 55.9159 81.7394 55.9818 81.9385C56.0418 82.1199 55.9509 82.3167 55.774 82.3886L55.0623 82.6777C54.7615 82.8 54.7311 83.2139 55.0109 83.3787C55.1952 83.4872 55.2585 83.7234 55.1531 83.9096L55.047 84.097C54.9425 84.2817 54.707 84.3448 54.5242 84.2371C54.25 84.0756 53.9109 84.3029 53.9559 84.6178L54.0701 85.4162C54.0968 85.6028 53.9735 85.778 53.7888 85.8157C53.5878 85.8568 53.3938 85.7201 53.3648 85.5171L53.1491 84.0096C53.0916 83.6076 52.8544 83.2537 52.5046 83.0476C51.6139 82.523 50.4905 83.1652 50.4905 84.1988V84.2375C50.4905 84.6507 50.6786 85.0414 51.0016 85.2991L52.159 86.2225C52.319 86.3502 52.3404 86.5855 52.206 86.74C52.0794 86.8854 51.8608 86.9052 51.7102 86.785L51.1174 86.3121C50.8645 86.1103 50.4905 86.2904 50.4905 86.6139C50.4905 86.8271 50.3176 87 50.1044 87H49.8956C49.6823 87 49.5095 86.8271 49.5095 86.6139C49.5095 86.2904 49.1355 86.1103 48.8826 86.3121L48.2898 86.785C48.1392 86.9052 47.9206 86.8854 47.794 86.74C47.6596 86.5855 47.681 86.3502 47.841 86.2225L48.9984 85.2991C49.3214 85.0414 49.5095 84.6507 49.5095 84.2375V84.1987C49.5095 83.1652 48.3862 82.5231 47.4956 83.0476C47.1458 83.2537 46.9087 83.6076 46.8512 84.0095L46.6355 85.5171C46.6064 85.7201 46.4124 85.8568 46.2115 85.8157C46.0268 85.778 45.9034 85.6028 45.9301 85.4162L46.0443 84.6178C46.0894 84.3029 45.7502 84.0756 45.4761 84.2371C45.2933 84.3448 45.0577 84.2817 44.9532 84.097L44.8471 83.9096C44.7418 83.7234 44.8051 83.4872 44.9894 83.3787C45.2691 83.2139 45.2388 82.7999 44.938 82.6777L44.2263 82.3886C44.0493 82.3167 43.9584 82.1199 44.0185 81.9385C44.0844 81.7394 44.305 81.6375 44.4994 81.7165L45.8368 82.2598C46.2293 82.4193 46.6737 82.3867 47.0387 82.1717C47.9316 81.6458 47.9316 80.3543 47.0387 79.8284C46.6737 79.6134 46.2293 79.5808 45.8368 79.7402L44.4994 80.2836C44.305 80.3625 44.0844 80.2607 44.0185 80.0615C43.9584 79.8802 44.0493 79.6833 44.2263 79.6114L44.938 79.3223C45.2388 79.2001 45.2691 78.7861 44.9894 78.6213C44.8051 78.5128 44.7418 78.2766 44.8471 78.0905L44.9532 77.903C45.0577 77.7184 45.2933 77.6553 45.4761 77.763C45.7502 77.9244 46.0894 77.6971 46.0443 77.3822L45.9301 76.5838C45.9034 76.3972 46.0268 76.2221 46.2115 76.1843C46.4124 76.1433 46.6064 76.2799 46.6355 76.4829L46.8512 77.9905C46.9087 78.3924 47.1458 78.7464 47.4956 78.9524C48.3862 79.4769 49.5095 78.8349 49.5095 77.8013V77.7625C49.5095 77.3493 49.3214 76.9586 48.9984 76.7009L47.841 75.7775Z"/>
</mask>
<path fill-rule="evenodd" clip-rule="evenodd" d="M47.841 75.7775C47.681 75.6498 47.6596 75.4145 47.794 75.26C47.9206 75.1146 48.1392 75.0948 48.2898 75.215L48.8826 75.6879C49.1355 75.8897 49.5095 75.7096 49.5095 75.3861C49.5095 75.1729 49.6823 75 49.8956 75H50.1044C50.3176 75 50.4905 75.1729 50.4905 75.3861C50.4905 75.7096 50.8645 75.8897 51.1174 75.6879L51.7102 75.215C51.8608 75.0948 52.0794 75.1146 52.206 75.26C52.3404 75.4145 52.319 75.6498 52.159 75.7775L51.0016 76.7009C50.6786 76.9586 50.4905 77.3493 50.4905 77.7625V77.8013C50.4905 78.8349 51.6139 79.477 52.5046 78.9525C52.8544 78.7464 53.0916 78.3924 53.1491 77.9905L53.3648 76.4829C53.3938 76.2799 53.5878 76.1433 53.7888 76.1843C53.9735 76.2221 54.0968 76.3972 54.0701 76.5838L53.9559 77.3822C53.9109 77.6972 54.25 77.9244 54.5242 77.763C54.707 77.6553 54.9425 77.7184 55.047 77.903L55.1531 78.0905C55.2585 78.2766 55.1952 78.5128 55.0109 78.6213C54.7311 78.7861 54.7615 79.2001 55.0623 79.3223L55.774 79.6114C55.9509 79.6833 56.0418 79.8802 55.9818 80.0615C55.9159 80.2607 55.6952 80.3625 55.5009 80.2836L54.1634 79.7402C53.7709 79.5808 53.3266 79.6134 52.9616 79.8284C52.0686 80.3543 52.0686 81.6458 52.9616 82.1717C53.3266 82.3867 53.7709 82.4193 54.1634 82.2598L55.5009 81.7165C55.6952 81.6375 55.9159 81.7394 55.9818 81.9385C56.0418 82.1199 55.9509 82.3167 55.774 82.3886L55.0623 82.6777C54.7615 82.8 54.7311 83.2139 55.0109 83.3787C55.1952 83.4872 55.2585 83.7234 55.1531 83.9096L55.047 84.097C54.9425 84.2817 54.707 84.3448 54.5242 84.2371C54.25 84.0756 53.9109 84.3029 53.9559 84.6178L54.0701 85.4162C54.0968 85.6028 53.9735 85.778 53.7888 85.8157C53.5878 85.8568 53.3938 85.7201 53.3648 85.5171L53.1491 84.0096C53.0916 83.6076 52.8544 83.2537 52.5046 83.0476C51.6139 82.523 50.4905 83.1652 50.4905 84.1988V84.2375C50.4905 84.6507 50.6786 85.0414 51.0016 85.2991L52.159 86.2225C52.319 86.3502 52.3404 86.5855 52.206 86.74C52.0794 86.8854 51.8608 86.9052 51.7102 86.785L51.1174 86.3121C50.8645 86.1103 50.4905 86.2904 50.4905 86.6139C50.4905 86.8271 50.3176 87 50.1044 87H49.8956C49.6823 87 49.5095 86.8271 49.5095 86.6139C49.5095 86.2904 49.1355 86.1103 48.8826 86.3121L48.2898 86.785C48.1392 86.9052 47.9206 86.8854 47.794 86.74C47.6596 86.5855 47.681 86.3502 47.841 86.2225L48.9984 85.2991C49.3214 85.0414 49.5095 84.6507 49.5095 84.2375V84.1987C49.5095 83.1652 48.3862 82.5231 47.4956 83.0476C47.1458 83.2537 46.9087 83.6076 46.8512 84.0095L46.6355 85.5171C46.6064 85.7201 46.4124 85.8568 46.2115 85.8157C46.0268 85.778 45.9034 85.6028 45.9301 85.4162L46.0443 84.6178C46.0894 84.3029 45.7502 84.0756 45.4761 84.2371C45.2933 84.3448 45.0577 84.2817 44.9532 84.097L44.8471 83.9096C44.7418 83.7234 44.8051 83.4872 44.9894 83.3787C45.2691 83.2139 45.2388 82.7999 44.938 82.6777L44.2263 82.3886C44.0493 82.3167 43.9584 82.1199 44.0185 81.9385C44.0844 81.7394 44.305 81.6375 44.4994 81.7165L45.8368 82.2598C46.2293 82.4193 46.6737 82.3867 47.0387 82.1717C47.9316 81.6458 47.9316 80.3543 47.0387 79.8284C46.6737 79.6134 46.2293 79.5808 45.8368 79.7402L44.4994 80.2836C44.305 80.3625 44.0844 80.2607 44.0185 80.0615C43.9584 79.8802 44.0493 79.6833 44.2263 79.6114L44.938 79.3223C45.2388 79.2001 45.2691 78.7861 44.9894 78.6213C44.8051 78.5128 44.7418 78.2766 44.8471 78.0905L44.9532 77.903C45.0577 77.7184 45.2933 77.6553 45.4761 77.763C45.7502 77.9244 46.0894 77.6971 46.0443 77.3822L45.9301 76.5838C45.9034 76.3972 46.0268 76.2221 46.2115 76.1843C46.4124 76.1433 46.6064 76.2799 46.6355 76.4829L46.8512 77.9905C46.9087 78.3924 47.1458 78.7464 47.4956 78.9524C48.3862 79.4769 49.5095 78.8349 49.5095 77.8013V77.7625C49.5095 77.3493 49.3214 76.9586 48.9984 76.7009L47.841 75.7775Z" fill="url(#paint2_linear_407_630)"/>
<path d="M48.9984 76.7009L48.6242 77.1699L48.9984 76.7009ZM46.8512 77.9905L46.2572 78.0755L46.8512 77.9905ZM46.0443 77.3822L46.6383 77.2972L46.0443 77.3822ZM44.9532 77.903L44.4311 77.6075L44.9532 77.903ZM44.8471 78.0905L44.325 77.795L44.8471 78.0905ZM44.938 79.3223L44.7121 78.7664L44.938 79.3223ZM44.2263 79.6114L44.4521 80.1673L44.2263 79.6114ZM44.4994 80.2836L44.7252 80.8395L44.4994 80.2836ZM45.8368 79.7402L45.611 79.1843L45.8368 79.7402ZM45.8368 82.2598L46.0627 81.7039L45.8368 82.2598ZM44.4994 81.7165L44.2735 82.2724L44.4994 81.7165ZM44.2263 82.3886L44.0005 82.9445L44.2263 82.3886ZM44.938 82.6777L44.7121 83.2336L44.938 82.6777ZM44.8471 83.9096L45.3693 83.614L44.8471 83.9096ZM44.9532 84.097L44.4311 84.3925L44.9532 84.097ZM46.0443 84.6178L46.6383 84.7028L46.0443 84.6178ZM45.9301 85.4162L45.3362 85.3312L45.9301 85.4162ZM46.6355 85.5171L46.0415 85.4321L46.6355 85.5171ZM48.9984 85.2991L49.3726 85.7681L48.9984 85.2991ZM47.841 86.2225L48.2152 86.6915L47.841 86.2225ZM48.2898 86.785L48.664 87.254L48.2898 86.785ZM48.8826 86.3121L49.2568 86.7811L48.8826 86.3121ZM51.1174 86.3121L50.7432 86.7811L51.1174 86.3121ZM51.7102 86.785L51.336 87.254L51.7102 86.785ZM52.159 86.2225L51.7848 86.6915L52.159 86.2225ZM53.1491 84.0096L53.743 83.9246L53.1491 84.0096ZM53.3648 85.5171L53.9587 85.4321L53.3648 85.5171ZM54.0701 85.4162L53.4762 85.5012L54.0701 85.4162ZM55.047 84.097L54.5249 83.8015L55.047 84.097ZM55.1531 83.9096L55.6753 84.2051L55.1531 83.9096ZM55.0623 82.6777L54.8365 82.1219L55.0623 82.6777ZM55.774 82.3886L55.9998 82.9445L55.774 82.3886ZM55.5009 81.7165L55.2751 81.1606L55.5009 81.7165ZM54.1634 82.2598L53.9376 81.7039L54.1634 82.2598ZM54.1634 79.7402L53.9376 80.2961L54.1634 79.7402ZM55.5009 80.2836L55.7267 79.7277L55.5009 80.2836ZM55.774 79.6114L55.9998 79.0555L55.774 79.6114ZM55.0623 79.3223L54.8365 79.8782L55.0623 79.3223ZM55.1531 78.0905L55.6753 77.795L55.1531 78.0905ZM55.047 77.903L54.5249 78.1986L55.047 77.903ZM53.9559 77.3822L53.362 77.2972L53.9559 77.3822ZM54.0701 76.5838L54.6641 76.6688L54.0701 76.5838ZM53.3648 76.4829L53.9587 76.5679L53.3648 76.4829ZM53.1491 77.9905L52.5551 77.9055L53.1491 77.9905ZM52.159 75.7775L52.5332 76.2465L52.159 75.7775ZM51.7102 75.215L51.336 74.746L51.7102 75.215ZM51.1174 75.6879L51.4916 76.1569L51.1174 75.6879ZM48.8826 75.6879L49.2568 75.2189L48.8826 75.6879ZM48.2898 75.215L48.664 74.746L48.2898 75.215ZM49.2568 75.2189L48.664 74.746L47.9156 75.684L48.5084 76.1569L49.2568 75.2189ZM50.1044 74.4H49.8956V75.6H50.1044V74.4ZM51.336 74.746L50.7432 75.2189L51.4916 76.1569L52.0844 75.684L51.336 74.746ZM51.3758 77.1699L52.5332 76.2465L51.7848 75.3085L50.6274 76.2318L51.3758 77.1699ZM51.0905 77.8013V77.7625H49.8905V77.8013H51.0905ZM52.7708 76.398L52.5551 77.9055L53.7431 78.0754L53.9587 76.5679L52.7708 76.398ZM54.5499 77.4672L54.6641 76.6688L53.4762 76.4989L53.362 77.2972L54.5499 77.4672ZM55.6753 77.795L55.5692 77.6075L54.5249 78.1986L54.631 78.386L55.6753 77.795ZM55.9998 79.0555L55.2881 78.7664L54.8365 79.8782L55.5481 80.1673L55.9998 79.0555ZM53.9376 80.2961L55.2751 80.8395L55.7267 79.7277L54.3892 79.1843L53.9376 80.2961ZM54.3892 82.8157L55.7267 82.2724L55.2751 81.1606L53.9376 81.7039L54.3892 82.8157ZM55.5481 81.8328L54.8365 82.1219L55.2881 83.2336L55.9998 82.9445L55.5481 81.8328ZM54.631 83.614L54.5249 83.8015L55.5692 84.3925L55.6753 84.2051L54.631 83.614ZM53.362 84.7028L53.4762 85.5012L54.6641 85.3312L54.5499 84.5329L53.362 84.7028ZM53.9587 85.4321L53.743 83.9246L52.5551 84.0946L52.7708 85.6021L53.9587 85.4321ZM51.0905 84.2375V84.1988H49.8905V84.2375H51.0905ZM52.5332 85.7535L51.3758 84.8301L50.6274 85.7681L51.7848 86.6915L52.5332 85.7535ZM50.7432 86.7811L51.336 87.254L52.0844 86.316L51.4916 85.8431L50.7432 86.7811ZM49.8956 87.6H50.1044V86.4H49.8956V87.6ZM48.664 87.254L49.2568 86.7811L48.5084 85.8431L47.9156 86.316L48.664 87.254ZM48.6242 84.8301L47.4668 85.7535L48.2152 86.6915L49.3726 85.7681L48.6242 84.8301ZM48.9095 84.1987V84.2375H50.1095V84.1987H48.9095ZM47.2294 85.6021L47.4451 84.0945L46.2572 83.9245L46.0415 85.4321L47.2294 85.6021ZM45.4504 84.5329L45.3362 85.3312L46.5241 85.5012L46.6383 84.7028L45.4504 84.5329ZM44.325 84.2051L44.4311 84.3925L45.4754 83.8015L45.3693 83.614L44.325 84.2051ZM44.0005 82.9445L44.7121 83.2336L45.1638 82.1219L44.4521 81.8328L44.0005 82.9445ZM46.0627 81.7039L44.7252 81.1606L44.2735 82.2724L45.611 82.8157L46.0627 81.7039ZM45.611 79.1843L44.2735 79.7277L44.7252 80.8395L46.0627 80.2961L45.611 79.1843ZM44.4521 80.1673L45.1638 79.8782L44.7121 78.7664L44.0005 79.0555L44.4521 80.1673ZM45.3693 78.386L45.4754 78.1986L44.4311 77.6075L44.325 77.795L45.3693 78.386ZM46.6383 77.2972L46.5241 76.4989L45.3362 76.6688L45.4504 77.4672L46.6383 77.2972ZM46.0415 76.5679L46.2572 78.0755L47.4451 77.9056L47.2294 76.398L46.0415 76.5679ZM48.9095 77.7625V77.8013H50.1095V77.7625H48.9095ZM47.4668 76.2465L48.6242 77.1699L49.3726 76.2319L48.2152 75.3085L47.4668 76.2465ZM50.1095 77.7625C50.1095 77.1668 49.8383 76.6034 49.3726 76.2319L48.6242 77.1699C48.8045 77.3138 48.9095 77.5319 48.9095 77.7625H50.1095ZM47.1911 79.4694C48.4817 80.2295 50.1095 79.2991 50.1095 77.8013H48.9095C48.9095 78.3707 48.2907 78.7244 47.8001 78.4354L47.1911 79.4694ZM46.2572 78.0755C46.3405 78.6579 46.6842 79.1708 47.1911 79.4694L47.8001 78.4354C47.6074 78.3219 47.4768 78.127 47.4451 77.9056L46.2572 78.0755ZM46.3316 76.7722C46.1941 76.8003 46.0614 76.7068 46.0415 76.5679L47.2294 76.398C47.1515 75.853 46.6307 75.4863 46.0914 75.5965L46.3316 76.7722ZM46.5241 76.4989C46.5423 76.6266 46.458 76.7464 46.3316 76.7722L46.0914 75.5965C45.5955 75.6978 45.2645 76.1679 45.3362 76.6688L46.5241 76.4989ZM45.1716 78.2799C45.8791 78.6967 46.7546 78.1101 46.6383 77.2972L45.4504 77.4672C45.4242 77.2842 45.6213 77.1521 45.7806 77.246L45.1716 78.2799ZM45.4754 78.1986C45.4147 78.3058 45.2778 78.3425 45.1716 78.2799L45.7806 77.246C45.3088 76.9681 44.7008 77.131 44.4311 77.6075L45.4754 78.1986ZM45.2938 78.1044C45.3916 78.1619 45.4252 78.2873 45.3693 78.386L44.325 77.795C44.0584 78.266 44.2185 78.8637 44.6849 79.1383L45.2938 78.1044ZM45.1638 79.8782C45.925 79.5689 46.0018 78.5213 45.2938 78.1044L44.6849 79.1383C44.5364 79.0509 44.5525 78.8313 44.7121 78.7664L45.1638 79.8782ZM44.5881 79.8729C44.6273 79.9915 44.5679 80.1203 44.4521 80.1673L44.0005 79.0555C43.5307 79.2464 43.2895 79.7688 43.4489 80.2501L44.5881 79.8729ZM44.2735 79.7277C44.4006 79.6761 44.5449 79.7427 44.5881 79.8729L43.4489 80.2501C43.6239 80.7786 44.2094 81.049 44.7252 80.8395L44.2735 79.7277ZM47.3432 79.3114C46.8171 79.0015 46.1767 78.9546 45.611 79.1843L46.0627 80.2961C46.282 80.207 46.5302 80.2252 46.7342 80.3454L47.3432 79.3114ZM47.3432 82.6887C48.6301 81.9307 48.6301 80.0693 47.3432 79.3114L46.7342 80.3454C47.2331 80.6392 47.2331 81.3608 46.7342 81.6547L47.3432 82.6887ZM45.611 82.8157C46.1767 83.0455 46.8171 82.9985 47.3432 82.6887L46.7342 81.6547C46.5302 81.7748 46.282 81.793 46.0627 81.7039L45.611 82.8157ZM44.5881 82.1271C44.5449 82.2574 44.4006 82.324 44.2735 82.2724L44.7252 81.1606C44.2094 80.951 43.6239 81.2214 43.4489 81.7499L44.5881 82.1271ZM44.4521 81.8328C44.5679 81.8798 44.6273 82.0085 44.5881 82.1271L43.4489 81.7499C43.2895 82.2313 43.5307 82.7537 44.0005 82.9445L44.4521 81.8328ZM45.2938 83.8957C46.0018 83.4787 45.925 82.4311 45.1638 82.1219L44.7121 83.2336C44.5525 83.1688 44.5364 82.9491 44.6849 82.8617L45.2938 83.8957ZM45.3693 83.614C45.4252 83.7128 45.3916 83.8381 45.2938 83.8957L44.6849 82.8617C44.2185 83.1364 44.0584 83.7341 44.325 84.2051L45.3693 83.614ZM45.1716 83.7201C45.2778 83.6575 45.4147 83.6942 45.4754 83.8015L44.4311 84.3925C44.7008 84.8691 45.3088 85.032 45.7806 84.7541L45.1716 83.7201ZM46.6383 84.7028C46.7546 83.8899 45.8791 83.3034 45.1716 83.7201L45.7806 84.7541C45.6213 84.8479 45.4242 84.7159 45.4504 84.5329L46.6383 84.7028ZM46.3316 85.2279C46.458 85.2537 46.5423 85.3735 46.5241 85.5012L45.3362 85.3312C45.2645 85.8322 45.5955 86.3023 46.0914 86.4036L46.3316 85.2279ZM46.0415 85.4321C46.0614 85.2933 46.1941 85.1998 46.3316 85.2279L46.0914 86.4036C46.6307 86.5138 47.1515 86.147 47.2294 85.6021L46.0415 85.4321ZM47.1911 82.5306C46.6842 82.8292 46.3405 83.3421 46.2572 83.9245L47.4451 84.0945C47.4768 83.8731 47.6074 83.6781 47.8001 83.5646L47.1911 82.5306ZM50.1095 84.1987C50.1095 82.701 48.4817 81.7706 47.1911 82.5306L47.8001 83.5646C48.2907 83.2757 48.9095 83.6294 48.9095 84.1987H50.1095ZM49.3726 85.7681C49.8383 85.3966 50.1095 84.8333 50.1095 84.2375H48.9095C48.9095 84.4681 48.8045 84.6862 48.6242 84.8301L49.3726 85.7681ZM48.2466 86.346C48.3363 86.4491 48.3221 86.6063 48.2152 86.6915L47.4668 85.7535C47.0399 86.0941 46.9828 86.7219 47.3415 87.1339L48.2466 86.346ZM47.9156 86.316C48.0162 86.2358 48.1621 86.249 48.2466 86.346L47.3415 87.1339C47.679 87.5217 48.2621 87.5747 48.664 87.254L47.9156 86.316ZM50.1095 86.6139C50.1095 85.7877 49.1543 85.3278 48.5084 85.8431L49.2568 86.7811C49.1167 86.8929 48.9095 86.7931 48.9095 86.6139H50.1095ZM49.8956 86.4C50.0137 86.4 50.1095 86.4958 50.1095 86.6139H48.9095C48.9095 87.1585 49.351 87.6 49.8956 87.6V86.4ZM49.8905 86.6139C49.8905 86.4958 49.9863 86.4 50.1044 86.4V87.6C50.649 87.6 51.0905 87.1585 51.0905 86.6139H49.8905ZM51.4916 85.8431C50.8457 85.3278 49.8905 85.7877 49.8905 86.6139H51.0905C51.0905 86.7931 50.8833 86.8929 50.7432 86.7811L51.4916 85.8431ZM51.7534 86.346C51.8379 86.249 51.9838 86.2358 52.0844 86.316L51.336 87.254C51.7378 87.5747 52.321 87.5217 52.6585 87.1339L51.7534 86.346ZM51.7848 86.6915C51.6779 86.6063 51.6637 86.4491 51.7534 86.346L52.6585 87.1339C53.0172 86.7219 52.9601 86.0941 52.5332 85.7535L51.7848 86.6915ZM49.8905 84.2375C49.8905 84.8332 50.1617 85.3966 50.6274 85.7681L51.3758 84.8301C51.1955 84.6863 51.0905 84.4681 51.0905 84.2375H49.8905ZM52.8091 82.5306C51.5184 81.7705 49.8905 82.701 49.8905 84.1988H51.0905C51.0905 83.6294 51.7094 83.2756 52.2001 83.5646L52.8091 82.5306ZM53.743 83.9246C53.6597 83.3422 53.316 82.8292 52.8091 82.5306L52.2001 83.5646C52.3928 83.6781 52.5235 83.8731 52.5551 84.0946L53.743 83.9246ZM53.6687 85.2279C53.8061 85.1998 53.9389 85.2933 53.9587 85.4321L52.7708 85.6021C52.8488 86.147 53.3696 86.5138 53.9089 86.4036L53.6687 85.2279ZM53.4762 85.5012C53.4579 85.3735 53.5423 85.2537 53.6687 85.2279L53.9089 86.4036C54.4047 86.3023 54.7358 85.8322 54.6641 85.3312L53.4762 85.5012ZM54.8287 83.7201C54.1211 83.3034 53.2457 83.8899 53.362 84.7028L54.5499 84.5329C54.5761 84.7159 54.379 84.8479 54.2197 84.7541L54.8287 83.7201ZM54.5249 83.8015C54.5856 83.6942 54.7224 83.6575 54.8287 83.7201L54.2197 84.7541C54.6915 85.032 55.2995 84.8691 55.5692 84.3925L54.5249 83.8015ZM54.7064 83.8957C54.6086 83.8381 54.5751 83.7128 54.631 83.614L55.6753 84.2051C55.9419 83.7341 55.7817 83.1364 55.3154 82.8617L54.7064 83.8957ZM54.8365 82.1219C54.0753 82.4311 53.9984 83.4787 54.7064 83.8957L55.3154 82.8617C55.4638 82.9491 55.4477 83.1688 55.2881 83.2336L54.8365 82.1219ZM55.4122 82.1271C55.3729 82.0085 55.4324 81.8798 55.5481 81.8328L55.9998 82.9445C56.4695 82.7537 56.7108 82.2313 56.5514 81.7499L55.4122 82.1271ZM55.7267 82.2724C55.5996 82.324 55.4553 82.2574 55.4122 82.1271L56.5514 81.7499C56.3764 81.2214 55.7909 80.951 55.2751 81.1606L55.7267 82.2724ZM52.6571 82.6887C53.1831 82.9985 53.8236 83.0455 54.3892 82.8157L53.9376 81.7039C53.7183 81.793 53.47 81.7748 53.2661 81.6547L52.6571 82.6887ZM52.6571 79.3114C51.3701 80.0693 51.3701 81.9307 52.6571 82.6887L53.2661 81.6547C52.7671 81.3608 52.7671 80.6392 53.2661 80.3454L52.6571 79.3114ZM54.3892 79.1843C53.8236 78.9546 53.1831 79.0015 52.6571 79.3114L53.2661 80.3454C53.47 80.2252 53.7183 80.207 53.9376 80.2961L54.3892 79.1843ZM55.4122 79.8729C55.4553 79.7427 55.5996 79.6761 55.7267 79.7277L55.2751 80.8395C55.7909 81.049 56.3764 80.7786 56.5514 80.2501L55.4122 79.8729ZM55.5481 80.1673C55.4324 80.1203 55.3729 79.9915 55.4122 79.8729L56.5514 80.2501C56.7108 79.7688 56.4695 79.2464 55.9998 79.0555L55.5481 80.1673ZM54.7064 78.1044C53.9984 78.5213 54.0753 79.5689 54.8365 79.8782L55.2881 78.7664C55.4477 78.8313 55.4638 79.0509 55.3154 79.1383L54.7064 78.1044ZM54.631 78.386C54.5751 78.2873 54.6086 78.1619 54.7064 78.1044L55.3154 79.1383C55.7817 78.8637 55.9419 78.266 55.6753 77.795L54.631 78.386ZM54.8287 78.2799C54.7224 78.3425 54.5856 78.3058 54.5249 78.1986L55.5692 77.6075C55.2995 77.131 54.6915 76.9681 54.2197 77.246L54.8287 78.2799ZM53.362 77.2972C53.2457 78.1101 54.1211 78.6967 54.8287 78.2799L54.2197 77.246C54.379 77.1521 54.5761 77.2842 54.5499 77.4672L53.362 77.2972ZM53.6687 76.7722C53.5423 76.7464 53.4579 76.6266 53.4762 76.4989L54.6641 76.6688C54.7358 76.1679 54.4047 75.6978 53.9089 75.5965L53.6687 76.7722ZM53.9587 76.5679C53.9389 76.7068 53.8061 76.8003 53.6687 76.7722L53.9089 75.5965C53.3696 75.4863 52.8488 75.853 52.7708 76.398L53.9587 76.5679ZM52.8091 79.4694C53.316 79.1708 53.6597 78.6579 53.7431 78.0754L52.5551 77.9055C52.5235 78.1269 52.3928 78.3219 52.2001 78.4355L52.8091 79.4694ZM49.8905 77.8013C49.8905 79.2991 51.5184 80.2296 52.8091 79.4694L52.2001 78.4355C51.7094 78.7244 51.0905 78.3707 51.0905 77.8013H49.8905ZM50.6274 76.2318C50.1617 76.6034 49.8905 77.1668 49.8905 77.7625H51.0905C51.0905 77.5319 51.1955 77.3137 51.3758 77.1699L50.6274 76.2318ZM51.7534 75.654C51.6637 75.5508 51.6779 75.3937 51.7848 75.3085L52.5332 76.2465C52.9601 75.9059 53.0172 75.2781 52.6585 74.8661L51.7534 75.654ZM52.0844 75.684C51.9838 75.7642 51.8379 75.751 51.7534 75.654L52.6585 74.8661C52.321 74.4783 51.7378 74.4253 51.336 74.746L52.0844 75.684ZM49.8905 75.3861C49.8905 76.2123 50.8457 76.6722 51.4916 76.1569L50.7432 75.2189C50.8833 75.1071 51.0905 75.2069 51.0905 75.3861H49.8905ZM50.1044 75.6C49.9863 75.6 49.8905 75.5042 49.8905 75.3861H51.0905C51.0905 74.8415 50.649 74.4 50.1044 74.4V75.6ZM50.1095 75.3861C50.1095 75.5042 50.0137 75.6 49.8956 75.6V74.4C49.351 74.4 48.9095 74.8415 48.9095 75.3861H50.1095ZM48.5084 76.1569C49.1543 76.6722 50.1095 76.2123 50.1095 75.3861H48.9095C48.9095 75.2069 49.1167 75.1071 49.2568 75.2189L48.5084 76.1569ZM47.3415 74.8661C46.9828 75.2781 47.0399 75.9059 47.4668 76.2465L48.2152 75.3085C48.3221 75.3937 48.3363 75.5509 48.2466 75.654L47.3415 74.8661ZM48.2466 75.654C48.1621 75.751 48.0162 75.7642 47.9156 75.684L48.664 74.746C48.2621 74.4253 47.679 74.4783 47.3415 74.8661L48.2466 75.654Z" fill="#36426F" fill-opacity="0.15" mask="url(#path-5-outside-1_407_630)"/>
</g>
<defs>
<filter id="filter0_f_407_630" x="11" y="-3" width="74" height="74" filterUnits="userSpaceOnUse" color-interpolation-filters="sRGB">
<feFlood flood-opacity="0" result="BackgroundImageFix"/>
<feBlend mode="normal" in="SourceGraphic" in2="BackgroundImageFix" result="shape"/>
<feGaussianBlur stdDeviation="9" result="effect1_foregroundBlur_407_630"/>
</filter>
<linearGradient id="paint0_linear_407_630" x1="35" y1="17" x2="63" y2="63" gradientUnits="userSpaceOnUse">
<stop offset="0.165457" stop-color="#F0AA41"/>
<stop offset="1" stop-color="#FF8A00"/>
</linearGradient>
<linearGradient id="paint1_linear_407_630" x1="40.5306" y1="40.3333" x2="64.3961" y2="58.1919" gradientUnits="userSpaceOnUse">
<stop offset="0.183865" stop-color="#ECECEC"/>
<stop offset="1" stop-color="#C4C4C4"/>
</linearGradient>
<linearGradient id="paint2_linear_407_630" x1="49.4547" y1="78.1579" x2="55.4732" y2="83.0495" gradientUnits="userSpaceOnUse">
<stop offset="0.183865" stop-color="#F5FCFF"/>
<stop offset="1" stop-color="#E0E9F4"/>
</linearGradient>
<clipPath id="clip0_407_630">
<rect width="100" height="100" fill="white"/>
</clipPath>
</defs>
</svg>
