<svg width="100" height="100" viewBox="0 0 100 100" fill="none" xmlns="http://www.w3.org/2000/svg">
<g clip-path="url(#clip0_407_633)">
<path d="M47.5955 12.7537C49.034 11.7488 50.966 11.7488 52.4045 12.7537L54.3949 14.1442C55.295 14.773 56.4148 15.0231 57.5045 14.8387L59.9143 14.431C61.656 14.1364 63.3966 14.9567 64.2471 16.4729L65.4239 18.5707C65.956 19.5194 66.854 20.2202 67.9176 20.5168L70.2695 21.1726C71.9693 21.6466 73.1739 23.1247 73.2679 24.8519L73.3979 27.2416C73.4568 28.3223 73.9551 29.3349 74.7818 30.0537L76.6101 31.6431C77.9314 32.7919 78.3613 34.6351 77.6802 36.2311L76.7378 38.4394C76.3116 39.438 76.3116 40.562 76.7378 41.5606L77.6802 43.7689C78.3613 45.3649 77.9314 47.2081 76.6101 48.3569L74.7818 49.9463C73.9551 50.6651 73.4568 51.6778 73.3979 52.7584L73.2679 55.1481C73.1739 56.8753 71.9693 58.3534 70.2695 58.8274L67.9176 59.4832C66.854 59.7798 65.956 60.4806 65.4239 61.4292L64.2471 63.5271C63.3966 65.0433 61.656 65.8636 59.9143 65.569L57.5045 65.1613C56.4148 64.9769 55.295 65.227 54.3949 65.8558L52.4045 67.2463C50.966 68.2512 49.034 68.2512 47.5955 67.2463L45.6051 65.8558C44.705 65.227 43.5852 64.9769 42.4955 65.1613L40.0857 65.569C38.344 65.8636 36.6034 65.0433 35.7529 63.5271L34.5761 61.4292C34.044 60.4806 33.146 59.7798 32.0824 59.4832L29.7305 58.8274C28.0307 58.3534 26.8261 56.8753 26.7321 55.1481L26.602 52.7584C26.5432 51.6777 26.0449 50.6651 25.2182 49.9463L23.3899 48.3569C22.0686 47.2081 21.6387 45.3649 22.3198 43.7689L23.2622 41.5606C23.6884 40.562 23.6884 39.438 23.2622 38.4394L22.3198 36.2311C21.6387 34.6351 22.0686 32.7919 23.3899 31.6431L25.2182 30.0537C26.0449 29.3349 26.5432 28.3223 26.602 27.2416L26.7321 24.8519C26.8261 23.1247 28.0307 21.6466 29.7305 21.1726L32.0824 20.5168C33.146 20.2202 34.044 19.5194 34.5761 18.5707L35.7529 16.4729C36.6034 14.9567 38.344 14.1364 40.0857 14.431L42.4955 14.8387C43.5852 15.0231 44.705 14.773 45.6051 14.1442L47.5955 12.7537Z" fill="url(#paint0_linear_407_633)" stroke="#833F00" stroke-opacity="0.25" stroke-width="4"/>
<g filter="url(#filter0_f_407_633)">
<circle cx="48" cy="34" r="19" fill="#FFCF54"/>
</g>
<path fill-rule="evenodd" clip-rule="evenodd" d="M84.0005 48C84.0005 60.1503 74.3518 70 62.4495 70C62.4493 70 62.4492 70 62.4491 70V70.0003H35.0205V69.9964C34.9119 69.9988 34.803 70 34.6939 70C26.5787 70 20 63.2843 20 55C20 46.7157 26.5787 40 34.6939 40C37.2528 40 39.6589 40.6677 41.7541 41.8418C44.3633 32.6888 52.6412 26 62.4495 26C74.3518 26 84.0005 35.8497 84.0005 48Z" fill="url(#paint1_linear_407_633)"/>
<path d="M62.4491 70V68H60.4491V70H62.4491ZM62.4491 70.0003V72.0003H64.4491V70.0003H62.4491ZM35.0205 70.0003H33.0205V72.0003H35.0205V70.0003ZM35.0205 69.9964H37.0205V67.9513L34.976 67.9969L35.0205 69.9964ZM41.7541 41.8418L40.7765 43.5865L42.9839 44.8234L43.6775 42.3901L41.7541 41.8418ZM62.4495 72C75.495 72 86.0005 61.2158 86.0005 48H82.0005C82.0005 59.0848 73.2085 68 62.4495 68V72ZM62.4491 72C62.4491 72 62.4491 72 62.4491 72C62.4491 72 62.4491 72 62.4491 72C62.4491 72 62.4491 72 62.4491 72C62.4491 72 62.4491 72 62.4491 72C62.4491 72 62.4491 72 62.4491 72C62.4491 72 62.4491 72 62.4491 72C62.4491 72 62.4491 72 62.4491 72C62.4491 72 62.4491 72 62.4491 72C62.4491 72 62.4491 72 62.4491 72C62.4491 72 62.4491 72 62.4491 72C62.4491 72 62.4491 72 62.4491 72C62.4491 72 62.4491 72 62.4491 72C62.4491 72 62.4491 72 62.4491 72C62.4491 72 62.4491 72 62.4491 72C62.4491 72 62.4491 72 62.4491 72C62.4491 72 62.4491 72 62.4491 72C62.4491 72 62.4491 72 62.4491 72C62.4491 72 62.4491 72 62.4491 72C62.4491 72 62.4491 72 62.4491 72C62.4491 72 62.4491 72 62.4491 72C62.4491 72 62.4491 72 62.4491 72C62.4491 72 62.4491 72 62.4491 72C62.4491 72 62.4491 72 62.4491 72C62.4491 72 62.4491 72 62.4491 72C62.4491 72 62.4491 72 62.4491 72C62.4491 72 62.4491 72 62.4491 72C62.4491 72 62.4491 72 62.4491 72C62.4491 72 62.4491 72 62.4491 72C62.4491 72 62.4491 72 62.4491 72C62.4491 72 62.4491 72 62.4491 72C62.4491 72 62.4491 72 62.4491 72C62.4491 72 62.4491 72 62.4491 72C62.4491 72 62.4491 72 62.4491 72C62.4491 72 62.4491 72 62.4491 72C62.4491 72 62.4491 72 62.4491 72C62.4491 72 62.4491 72 62.4491 72C62.4491 72 62.4491 72 62.4491 72C62.4491 72 62.4491 72 62.4491 72C62.4491 72 62.4491 72 62.4491 72C62.4491 72 62.4491 72 62.4491 72C62.4491 72 62.4491 72 62.4491 72C62.4491 72 62.4491 72 62.4491 72C62.4491 72 62.4491 72 62.4491 72C62.4491 72 62.4491 72 62.4491 72C62.4491 72 62.4491 72 62.4491 72C62.4491 72 62.4491 72 62.4491 72C62.4491 72 62.4491 72 62.4491 72C62.4491 72 62.4491 72 62.4491 72C62.4491 72 62.4491 72 62.4491 72C62.4491 72 62.4491 72 62.4491 72C62.4491 72 62.4491 72 62.4491 72C62.4491 72 62.4491 72 62.4491 72C62.4491 72 62.4491 72 62.4491 72C62.4491 72 62.4491 72 62.4491 72C62.4491 72 62.4491 72 62.4491 72C62.4491 72 62.4491 72 62.4491 72C62.4491 72 62.4491 72 62.4491 72C62.4491 72 62.4491 72 62.4491 72C62.4491 72 62.4491 72 62.4491 72C62.4491 72 62.4491 72 62.4491 72C62.4491 72 62.4491 72 62.4491 72C62.4491 72 62.4491 72 62.4491 72C62.4491 72 62.4491 72 62.4491 72C62.4491 72 62.4491 72 62.4491 72C62.4491 72 62.4491 72 62.4491 72C62.4491 72 62.4491 72 62.4491 72C62.4491 72 62.4491 72 62.4491 72C62.4491 72 62.4491 72 62.4491 72C62.4491 72 62.4491 72 62.4491 72C62.4491 72 62.4491 72 62.4491 72C62.4491 72 62.4491 72 62.4491 72C62.4491 72 62.4491 72 62.4491 72C62.4491 72 62.4491 72 62.4491 72C62.4491 72 62.4491 72 62.4491 72C62.4491 72 62.4491 72 62.4491 72C62.4491 72 62.4491 72 62.4491 72C62.4491 72 62.4491 72 62.4491 72C62.4491 72 62.4491 72 62.4491 72C62.4491 72 62.4491 72 62.4491 72C62.4491 72 62.4491 72 62.4491 72C62.4491 72 62.4491 72 62.4491 72C62.4491 72 62.4491 72 62.4491 72C62.4491 72 62.4491 72 62.4491 72C62.4491 72 62.4491 72 62.4491 72C62.4491 72 62.4491 72 62.4491 72C62.4491 72 62.4491 72 62.4491 72C62.4491 72 62.4491 72 62.4491 72C62.4491 72 62.4491 72 62.4491 72C62.4491 72 62.4491 72 62.4491 72C62.4491 72 62.4491 72 62.4491 72C62.4491 72 62.4491 72 62.4491 72C62.4491 72 62.4491 72 62.4491 72C62.4491 72 62.4491 72 62.4491 72C62.4491 72 62.4491 72 62.4491 72C62.4491 72 62.4491 72 62.4491 72C62.4491 72 62.4491 72 62.4491 72C62.4491 72 62.4491 72 62.4491 72C62.4491 72 62.4491 72 62.4491 72C62.4492 72 62.4492 72 62.4492 72C62.4492 72 62.4492 72 62.4492 72C62.4492 72 62.4492 72 62.4492 72C62.4492 72 62.4492 72 62.4492 72C62.4492 72 62.4492 72 62.4492 72C62.4492 72 62.4492 72 62.4492 72C62.4492 72 62.4492 72 62.4492 72C62.4492 72 62.4492 72 62.4492 72C62.4492 72 62.4492 72 62.4492 72C62.4492 72 62.4492 72 62.4492 72C62.4492 72 62.4492 72 62.4492 72C62.4492 72 62.4492 72 62.4492 72C62.4492 72 62.4492 72 62.4492 72C62.4492 72 62.4492 72 62.4492 72C62.4492 72 62.4492 72 62.4492 72C62.4492 72 62.4492 72 62.4492 72C62.4492 72 62.4492 72 62.4492 72C62.4492 72 62.4492 72 62.4492 72C62.4492 72 62.4492 72 62.4492 72C62.4492 72 62.4492 72 62.4492 72C62.4492 72 62.4492 72 62.4492 72C62.4492 72 62.4492 72 62.4492 72C62.4492 72 62.4492 72 62.4492 72C62.4492 72 62.4492 72 62.4492 72C62.4492 72 62.4492 72 62.4492 72C62.4492 72 62.4492 72 62.4492 72C62.4492 72 62.4492 72 62.4492 72C62.4492 72 62.4492 72 62.4492 72C62.4492 72 62.4492 72 62.4492 72C62.4492 72 62.4492 72 62.4492 72C62.4492 72 62.4492 72 62.4492 72C62.4492 72 62.4492 72 62.4492 72C62.4492 72 62.4492 72 62.4492 72C62.4492 72 62.4492 72 62.4492 72C62.4492 72 62.4492 72 62.4492 72C62.4492 72 62.4492 72 62.4492 72C62.4492 72 62.4492 72 62.4492 72C62.4492 72 62.4492 72 62.4492 72C62.4492 72 62.4492 72 62.4492 72C62.4492 72 62.4492 72 62.4492 72C62.4492 72 62.4492 72 62.4492 72C62.4492 72 62.4492 72 62.4492 72C62.4492 72 62.4492 72 62.4492 72C62.4492 72 62.4492 72 62.4492 72C62.4492 72 62.4492 72 62.4492 72C62.4492 72 62.4492 72 62.4492 72C62.4492 72 62.4492 72 62.4492 72C62.4492 72 62.4492 72 62.4492 72C62.4492 72 62.4492 72 62.4492 72C62.4492 72 62.4492 72 62.4492 72C62.4492 72 62.4492 72 62.4492 72C62.4492 72 62.4492 72 62.4492 72C62.4492 72 62.4492 72 62.4492 72C62.4492 72 62.4492 72 62.4492 72C62.4492 72 62.4492 72 62.4492 72C62.4492 72 62.4492 72 62.4492 72C62.4492 72 62.4492 72 62.4492 72C62.4492 72 62.4492 72 62.4492 72C62.4492 72 62.4492 72 62.4492 72C62.4492 72 62.4492 72 62.4492 72C62.4492 72 62.4492 72 62.4492 72C62.4492 72 62.4492 72 62.4492 72C62.4492 72 62.4492 72 62.4492 72C62.4492 72 62.4492 72 62.4492 72C62.4492 72 62.4492 72 62.4492 72C62.4492 72 62.4492 72 62.4492 72C62.4492 72 62.4492 72 62.4492 72C62.4492 72 62.4492 72 62.4492 72C62.4492 72 62.4492 72 62.4492 72C62.4492 72 62.4492 72 62.4492 72C62.4492 72 62.4492 72 62.4492 72C62.4492 72 62.4492 72 62.4492 72C62.4492 72 62.4492 72 62.4492 72C62.4492 72 62.4492 72 62.4492 72C62.4492 72 62.4492 72 62.4492 72C62.4492 72 62.4492 72 62.4492 72C62.4492 72 62.4492 72 62.4492 72C62.4492 72 62.4492 72 62.4492 72C62.4492 72 62.4492 72 62.4492 72C62.4492 72 62.4492 72 62.4492 72C62.4492 72 62.4492 72 62.4492 72C62.4492 72 62.4492 72 62.4492 72C62.4492 72 62.4492 72 62.4492 72C62.4492 72 62.4492 72 62.4492 72C62.4492 72 62.4492 72 62.4492 72C62.4492 72 62.4492 72 62.4492 72C62.4492 72 62.4492 72 62.4492 72C62.4492 72 62.4492 72 62.4492 72C62.4492 72 62.4492 72 62.4492 72C62.4492 72 62.4492 72 62.4492 72C62.4492 72 62.4492 72 62.4492 72C62.4492 72 62.4492 72 62.4492 72C62.4492 72 62.4492 72 62.4492 72C62.4492 72 62.4492 72 62.4492 72C62.4492 72 62.4492 72 62.4492 72C62.4492 72 62.4492 72 62.4492 72C62.4492 72 62.4492 72 62.4492 72C62.4492 72 62.4492 72 62.4492 72C62.4492 72 62.4492 72 62.4492 72C62.4492 72 62.4492 72 62.4492 72C62.4492 72 62.4492 72 62.4492 72C62.4492 72 62.4492 72 62.4492 72C62.4492 72 62.4492 72 62.4492 72C62.4492 72 62.4492 72 62.4492 72C62.4492 72 62.4492 72 62.4492 72C62.4492 72 62.4492 72 62.4492 72C62.4492 72 62.4492 72 62.4492 72C62.4492 72 62.4492 72 62.4492 72C62.4492 72 62.4492 72 62.4492 72C62.4492 72 62.4492 72 62.4492 72C62.4492 72 62.4492 72 62.4492 72C62.4492 72 62.4492 72 62.4492 72C62.4492 72 62.4492 72 62.4492 72C62.4492 72 62.4492 72 62.4492 72C62.4492 72 62.4492 72 62.4492 72C62.4492 72 62.4492 72 62.4492 72C62.4492 72 62.4492 72 62.4492 72C62.4492 72 62.4492 72 62.4492 72C62.4492 72 62.4492 72 62.4492 72C62.4492 72 62.4492 72 62.4492 72C62.4492 72 62.4492 72 62.4492 72C62.4492 72 62.4492 72 62.4492 72C62.4492 72 62.4492 72 62.4492 72C62.4492 72 62.4492 72 62.4492 72C62.4492 72 62.4492 72 62.4492 72C62.4492 72 62.4492 72 62.4492 72C62.4492 72 62.4492 72 62.4492 72C62.4492 72 62.4492 72 62.4492 72C62.4492 72 62.4492 72 62.4492 72C62.4492 72 62.4492 72 62.4492 72C62.4492 72 62.4492 72 62.4492 72C62.4492 72 62.4492 72 62.4492 72C62.4492 72 62.4492 72 62.4492 72C62.4492 72 62.4492 72 62.4492 72C62.4492 72 62.4492 72 62.4492 72C62.4492 72 62.4492 72 62.4493 72C62.4493 72 62.4493 72 62.4493 72C62.4493 72 62.4493 72 62.4493 72C62.4493 72 62.4493 72 62.4493 72C62.4493 72 62.4493 72 62.4493 72C62.4493 72 62.4493 72 62.4493 72C62.4493 72 62.4493 72 62.4493 72C62.4493 72 62.4493 72 62.4493 72C62.4493 72 62.4493 72 62.4493 72C62.4493 72 62.4493 72 62.4493 72C62.4493 72 62.4493 72 62.4493 72C62.4493 72 62.4493 72 62.4493 72C62.4493 72 62.4493 72 62.4493 72C62.4493 72 62.4493 72 62.4493 72C62.4493 72 62.4493 72 62.4493 72C62.4493 72 62.4493 72 62.4493 72C62.4493 72 62.4493 72 62.4493 72C62.4493 72 62.4493 72 62.4493 72C62.4493 72 62.4493 72 62.4493 72C62.4493 72 62.4493 72 62.4493 72C62.4493 72 62.4493 72 62.4493 72C62.4493 72 62.4493 72 62.4493 72C62.4493 72 62.4493 72 62.4493 72C62.4493 72 62.4493 72 62.4493 72C62.4493 72 62.4493 72 62.4493 72C62.4493 72 62.4493 72 62.4493 72C62.4493 72 62.4493 72 62.4493 72C62.4493 72 62.4493 72 62.4493 72C62.4493 72 62.4493 72 62.4493 72C62.4493 72 62.4493 72 62.4493 72C62.4493 72 62.4493 72 62.4493 72C62.4493 72 62.4493 72 62.4493 72C62.4493 72 62.4493 72 62.4493 72C62.4493 72 62.4493 72 62.4493 72C62.4493 72 62.4493 72 62.4493 72C62.4493 72 62.4493 72 62.4493 72C62.4493 72 62.4493 72 62.4493 72C62.4493 72 62.4493 72 62.4493 72C62.4493 72 62.4493 72 62.4493 72C62.4493 72 62.4493 72 62.4493 72C62.4493 72 62.4493 72 62.4493 72C62.4493 72 62.4493 72 62.4493 72C62.4493 72 62.4493 72 62.4493 72C62.4493 72 62.4493 72 62.4493 72C62.4493 72 62.4493 72 62.4493 72C62.4493 72 62.4493 72 62.4493 72C62.4493 72 62.4493 72 62.4493 72C62.4493 72 62.4493 72 62.4493 72C62.4493 72 62.4493 72 62.4493 72C62.4493 72 62.4493 72 62.4493 72C62.4493 72 62.4493 72 62.4493 72C62.4493 72 62.4493 72 62.4493 72C62.4493 72 62.4493 72 62.4493 72C62.4493 72 62.4493 72 62.4493 72C62.4493 72 62.4493 72 62.4493 72C62.4493 72 62.4493 72 62.4493 72C62.4493 72 62.4493 72 62.4493 72C62.4493 72 62.4493 72 62.4493 72C62.4493 72 62.4493 72 62.4493 72C62.4493 72 62.4493 72 62.4493 72C62.4493 72 62.4493 72 62.4493 72C62.4493 72 62.4493 72 62.4493 72C62.4493 72 62.4493 72 62.4493 72C62.4493 72 62.4493 72 62.4493 72C62.4493 72 62.4493 72 62.4493 72C62.4493 72 62.4493 72 62.4493 72C62.4493 72 62.4493 72 62.4493 72C62.4493 72 62.4493 72 62.4493 72C62.4493 72 62.4493 72 62.4493 72C62.4493 72 62.4493 72 62.4493 72C62.4493 72 62.4493 72 62.4493 72C62.4493 72 62.4493 72 62.4493 72C62.4493 72 62.4493 72 62.4493 72C62.4493 72 62.4493 72 62.4493 72C62.4493 72 62.4493 72 62.4493 72C62.4493 72 62.4493 72 62.4493 72C62.4493 72 62.4493 72 62.4493 72C62.4493 72 62.4493 72 62.4493 72C62.4493 72 62.4493 72 62.4493 72C62.4493 72 62.4493 72 62.4493 72C62.4493 72 62.4493 72 62.4493 72C62.4493 72 62.4493 72 62.4493 72C62.4493 72 62.4493 72 62.4493 72C62.4493 72 62.4493 72 62.4493 72C62.4493 72 62.4493 72 62.4493 72C62.4493 72 62.4493 72 62.4493 72C62.4493 72 62.4493 72 62.4493 72C62.4493 72 62.4493 72 62.4493 72C62.4493 72 62.4493 72 62.4493 72C62.4493 72 62.4493 72 62.4493 72C62.4493 72 62.4493 72 62.4493 72C62.4493 72 62.4493 72 62.4493 72C62.4493 72 62.4493 72 62.4493 72C62.4493 72 62.4493 72 62.4493 72C62.4493 72 62.4493 72 62.4493 72C62.4493 72 62.4493 72 62.4493 72C62.4493 72 62.4493 72 62.4493 72C62.4493 72 62.4493 72 62.4493 72C62.4493 72 62.4493 72 62.4493 72C62.4493 72 62.4493 72 62.4493 72C62.4493 72 62.4493 72 62.4493 72C62.4493 72 62.4493 72 62.4493 72C62.4493 72 62.4493 72 62.4493 72C62.4493 72 62.4493 72 62.4493 72C62.4493 72 62.4493 72 62.4493 72C62.4493 72 62.4493 72 62.4493 72C62.4493 72 62.4493 72 62.4493 72C62.4493 72 62.4493 72 62.4493 72C62.4493 72 62.4493 72 62.4493 72C62.4493 72 62.4493 72 62.4493 72C62.4493 72 62.4493 72 62.4493 72C62.4493 72 62.4493 72 62.4493 72C62.4493 72 62.4493 72 62.4493 72C62.4493 72 62.4493 72 62.4493 72C62.4493 72 62.4493 72 62.4493 72C62.4493 72 62.4493 72 62.4493 72C62.4493 72 62.4493 72 62.4493 72C62.4493 72 62.4493 72 62.4493 72C62.4493 72 62.4493 72 62.4493 72C62.4493 72 62.4493 72 62.4493 72C62.4493 72 62.4493 72 62.4493 72C62.4493 72 62.4493 72 62.4493 72C62.4493 72 62.4493 72 62.4493 72C62.4493 72 62.4493 72 62.4493 72C62.4493 72 62.4493 72 62.4493 72C62.4493 72 62.4493 72 62.4493 72C62.4493 72 62.4493 72 62.4493 72C62.4493 72 62.4493 72 62.4493 72C62.4493 72 62.4493 72 62.4493 72C62.4493 72 62.4493 72 62.4493 72C62.4493 72 62.4493 72 62.4493 72C62.4493 72 62.4493 72 62.4493 72C62.4493 72 62.4493 72 62.4493 72C62.4493 72 62.4493 72 62.4493 72C62.4493 72 62.4493 72 62.4493 72C62.4493 72 62.4493 72 62.4493 72C62.4494 72 62.4494 72 62.4494 72C62.4494 72 62.4494 72 62.4494 72C62.4494 72 62.4494 72 62.4494 72C62.4494 72 62.4494 72 62.4494 72C62.4494 72 62.4494 72 62.4494 72C62.4494 72 62.4494 72 62.4494 72C62.4494 72 62.4494 72 62.4494 72C62.4494 72 62.4494 72 62.4494 72C62.4494 72 62.4494 72 62.4494 72C62.4494 72 62.4494 72 62.4494 72C62.4494 72 62.4494 72 62.4494 72C62.4494 72 62.4494 72 62.4494 72C62.4494 72 62.4494 72 62.4494 72C62.4494 72 62.4494 72 62.4494 72C62.4494 72 62.4494 72 62.4494 72C62.4494 72 62.4494 72 62.4494 72C62.4494 72 62.4494 72 62.4494 72C62.4494 72 62.4494 72 62.4494 72C62.4494 72 62.4494 72 62.4494 72C62.4494 72 62.4494 72 62.4494 72C62.4494 72 62.4494 72 62.4494 72C62.4494 72 62.4494 72 62.4494 72C62.4494 72 62.4494 72 62.4494 72C62.4494 72 62.4494 72 62.4494 72C62.4494 72 62.4494 72 62.4494 72C62.4494 72 62.4494 72 62.4494 72C62.4494 72 62.4494 72 62.4494 72C62.4494 72 62.4494 72 62.4494 72C62.4494 72 62.4494 72 62.4494 72C62.4494 72 62.4494 72 62.4494 72C62.4494 72 62.4494 72 62.4494 72C62.4494 72 62.4494 72 62.4494 72C62.4494 72 62.4494 72 62.4494 72C62.4494 72 62.4494 72 62.4494 72C62.4494 72 62.4494 72 62.4494 72C62.4494 72 62.4494 72 62.4494 72C62.4494 72 62.4494 72 62.4494 72C62.4494 72 62.4494 72 62.4494 72C62.4494 72 62.4494 72 62.4494 72C62.4494 72 62.4494 72 62.4494 72C62.4494 72 62.4494 72 62.4494 72C62.4494 72 62.4494 72 62.4494 72C62.4494 72 62.4494 72 62.4494 72C62.4494 72 62.4494 72 62.4494 72C62.4494 72 62.4494 72 62.4494 72C62.4494 72 62.4494 72 62.4494 72C62.4494 72 62.4494 72 62.4494 72C62.4494 72 62.4494 72 62.4494 72C62.4494 72 62.4494 72 62.4494 72C62.4494 72 62.4494 72 62.4494 72C62.4494 72 62.4494 72 62.4494 72C62.4494 72 62.4494 72 62.4494 72C62.4494 72 62.4494 72 62.4494 72C62.4494 72 62.4494 72 62.4494 72C62.4494 72 62.4494 72 62.4494 72C62.4494 72 62.4494 72 62.4494 72C62.4494 72 62.4494 72 62.4494 72C62.4494 72 62.4494 72 62.4494 72C62.4494 72 62.4494 72 62.4494 72C62.4494 72 62.4494 72 62.4494 72C62.4494 72 62.4494 72 62.4494 72C62.4494 72 62.4494 72 62.4494 72C62.4494 72 62.4494 72 62.4494 72C62.4494 72 62.4494 72 62.4494 72C62.4494 72 62.4494 72 62.4494 72C62.4494 72 62.4494 72 62.4494 72C62.4494 72 62.4494 72 62.4494 72C62.4494 72 62.4494 72 62.4494 72C62.4494 72 62.4494 72 62.4494 72C62.4494 72 62.4494 72 62.4494 72C62.4494 72 62.4494 72 62.4494 72C62.4494 72 62.4494 72 62.4494 72C62.4494 72 62.4494 72 62.4494 72C62.4494 72 62.4494 72 62.4494 72C62.4494 72 62.4494 72 62.4494 72C62.4494 72 62.4494 72 62.4494 72C62.4494 72 62.4494 72 62.4494 72C62.4494 72 62.4494 72 62.4494 72C62.4494 72 62.4494 72 62.4494 72C62.4494 72 62.4494 72 62.4494 72C62.4494 72 62.4494 72 62.4494 72C62.4494 72 62.4494 72 62.4494 72C62.4494 72 62.4494 72 62.4494 72C62.4494 72 62.4494 72 62.4494 72C62.4494 72 62.4494 72 62.4494 72C62.4494 72 62.4494 72 62.4494 72C62.4494 72 62.4494 72 62.4494 72C62.4494 72 62.4494 72 62.4494 72C62.4494 72 62.4494 72 62.4494 72C62.4494 72 62.4494 72 62.4494 72C62.4494 72 62.4494 72 62.4494 72C62.4494 72 62.4494 72 62.4494 72C62.4494 72 62.4494 72 62.4494 72C62.4494 72 62.4494 72 62.4494 72C62.4494 72 62.4494 72 62.4494 72C62.4494 72 62.4494 72 62.4494 72C62.4494 72 62.4494 72 62.4494 72C62.4494 72 62.4494 72 62.4494 72C62.4494 72 62.4494 72 62.4494 72C62.4494 72 62.4494 72 62.4494 72C62.4494 72 62.4494 72 62.4494 72C62.4494 72 62.4494 72 62.4494 72C62.4494 72 62.4494 72 62.4494 72C62.4494 72 62.4494 72 62.4494 72C62.4494 72 62.4494 72 62.4494 72C62.4494 72 62.4494 72 62.4494 72C62.4494 72 62.4494 72 62.4494 72C62.4494 72 62.4494 72 62.4494 72C62.4494 72 62.4494 72 62.4494 72C62.4494 72 62.4494 72 62.4494 72C62.4494 72 62.4494 72 62.4494 72C62.4494 72 62.4494 72 62.4494 72C62.4494 72 62.4494 72 62.4494 72C62.4494 72 62.4494 72 62.4494 72C62.4494 72 62.4494 72 62.4494 72C62.4494 72 62.4494 72 62.4494 72C62.4494 72 62.4494 72 62.4494 72C62.4494 72 62.4494 72 62.4494 72C62.4494 72 62.4494 72 62.4494 72C62.4494 72 62.4494 72 62.4494 72C62.4494 72 62.4494 72 62.4494 72C62.4494 72 62.4494 72 62.4494 72C62.4494 72 62.4494 72 62.4494 72C62.4494 72 62.4494 72 62.4494 72C62.4494 72 62.4494 72 62.4494 72C62.4494 72 62.4494 72 62.4494 72C62.4494 72 62.4494 72 62.4494 72C62.4494 72 62.4494 72 62.4494 72C62.4494 72 62.4494 72 62.4494 72C62.4494 72 62.4494 72 62.4494 72C62.4494 72 62.4494 72 62.4494 72C62.4494 72 62.4494 72 62.4494 72C62.4494 72 62.4494 72 62.4494 72C62.4494 72 62.4494 72 62.4494 72C62.4494 72 62.4494 72 62.4494 72C62.4494 72 62.4494 72 62.4495 72C62.4495 72 62.4495 72 62.4495 72C62.4495 72 62.4495 72 62.4495 72C62.4495 72 62.4495 72 62.4495 72C62.4495 72 62.4495 72 62.4495 72C62.4495 72 62.4495 72 62.4495 72C62.4495 72 62.4495 72 62.4495 72C62.4495 72 62.4495 72 62.4495 72V68C62.4495 68 62.4495 68 62.4495 68C62.4495 68 62.4495 68 62.4495 68C62.4495 68 62.4495 68 62.4495 68C62.4495 68 62.4495 68 62.4495 68C62.4495 68 62.4495 68 62.4495 68C62.4495 68 62.4495 68 62.4495 68C62.4495 68 62.4495 68 62.4495 68C62.4494 68 62.4494 68 62.4494 68C62.4494 68 62.4494 68 62.4494 68C62.4494 68 62.4494 68 62.4494 68C62.4494 68 62.4494 68 62.4494 68C62.4494 68 62.4494 68 62.4494 68C62.4494 68 62.4494 68 62.4494 68C62.4494 68 62.4494 68 62.4494 68C62.4494 68 62.4494 68 62.4494 68C62.4494 68 62.4494 68 62.4494 68C62.4494 68 62.4494 68 62.4494 68C62.4494 68 62.4494 68 62.4494 68C62.4494 68 62.4494 68 62.4494 68C62.4494 68 62.4494 68 62.4494 68C62.4494 68 62.4494 68 62.4494 68C62.4494 68 62.4494 68 62.4494 68C62.4494 68 62.4494 68 62.4494 68C62.4494 68 62.4494 68 62.4494 68C62.4494 68 62.4494 68 62.4494 68C62.4494 68 62.4494 68 62.4494 68C62.4494 68 62.4494 68 62.4494 68C62.4494 68 62.4494 68 62.4494 68C62.4494 68 62.4494 68 62.4494 68C62.4494 68 62.4494 68 62.4494 68C62.4494 68 62.4494 68 62.4494 68C62.4494 68 62.4494 68 62.4494 68C62.4494 68 62.4494 68 62.4494 68C62.4494 68 62.4494 68 62.4494 68C62.4494 68 62.4494 68 62.4494 68C62.4494 68 62.4494 68 62.4494 68C62.4494 68 62.4494 68 62.4494 68C62.4494 68 62.4494 68 62.4494 68C62.4494 68 62.4494 68 62.4494 68C62.4494 68 62.4494 68 62.4494 68C62.4494 68 62.4494 68 62.4494 68C62.4494 68 62.4494 68 62.4494 68C62.4494 68 62.4494 68 62.4494 68C62.4494 68 62.4494 68 62.4494 68C62.4494 68 62.4494 68 62.4494 68C62.4494 68 62.4494 68 62.4494 68C62.4494 68 62.4494 68 62.4494 68C62.4494 68 62.4494 68 62.4494 68C62.4494 68 62.4494 68 62.4494 68C62.4494 68 62.4494 68 62.4494 68C62.4494 68 62.4494 68 62.4494 68C62.4494 68 62.4494 68 62.4494 68C62.4494 68 62.4494 68 62.4494 68C62.4494 68 62.4494 68 62.4494 68C62.4494 68 62.4494 68 62.4494 68C62.4494 68 62.4494 68 62.4494 68C62.4494 68 62.4494 68 62.4494 68C62.4494 68 62.4494 68 62.4494 68C62.4494 68 62.4494 68 62.4494 68C62.4494 68 62.4494 68 62.4494 68C62.4494 68 62.4494 68 62.4494 68C62.4494 68 62.4494 68 62.4494 68C62.4494 68 62.4494 68 62.4494 68C62.4494 68 62.4494 68 62.4494 68C62.4494 68 62.4494 68 62.4494 68C62.4494 68 62.4494 68 62.4494 68C62.4494 68 62.4494 68 62.4494 68C62.4494 68 62.4494 68 62.4494 68C62.4494 68 62.4494 68 62.4494 68C62.4494 68 62.4494 68 62.4494 68C62.4494 68 62.4494 68 62.4494 68C62.4494 68 62.4494 68 62.4494 68C62.4494 68 62.4494 68 62.4494 68C62.4494 68 62.4494 68 62.4494 68C62.4494 68 62.4494 68 62.4494 68C62.4494 68 62.4494 68 62.4494 68C62.4494 68 62.4494 68 62.4494 68C62.4494 68 62.4494 68 62.4494 68C62.4494 68 62.4494 68 62.4494 68C62.4494 68 62.4494 68 62.4494 68C62.4494 68 62.4494 68 62.4494 68C62.4494 68 62.4494 68 62.4494 68C62.4494 68 62.4494 68 62.4494 68C62.4494 68 62.4494 68 62.4494 68C62.4494 68 62.4494 68 62.4494 68C62.4494 68 62.4494 68 62.4494 68C62.4494 68 62.4494 68 62.4494 68C62.4494 68 62.4494 68 62.4494 68C62.4494 68 62.4494 68 62.4494 68C62.4494 68 62.4494 68 62.4494 68C62.4494 68 62.4494 68 62.4494 68C62.4494 68 62.4494 68 62.4494 68C62.4494 68 62.4494 68 62.4494 68C62.4494 68 62.4494 68 62.4494 68C62.4494 68 62.4494 68 62.4494 68C62.4494 68 62.4494 68 62.4494 68C62.4494 68 62.4494 68 62.4494 68C62.4494 68 62.4494 68 62.4494 68C62.4494 68 62.4494 68 62.4494 68C62.4494 68 62.4494 68 62.4494 68C62.4494 68 62.4494 68 62.4494 68C62.4494 68 62.4494 68 62.4494 68C62.4494 68 62.4494 68 62.4494 68C62.4494 68 62.4494 68 62.4494 68C62.4494 68 62.4494 68 62.4494 68C62.4494 68 62.4494 68 62.4494 68C62.4494 68 62.4494 68 62.4494 68C62.4494 68 62.4494 68 62.4494 68C62.4494 68 62.4494 68 62.4494 68C62.4494 68 62.4494 68 62.4494 68C62.4494 68 62.4494 68 62.4494 68C62.4494 68 62.4494 68 62.4494 68C62.4494 68 62.4494 68 62.4494 68C62.4494 68 62.4494 68 62.4494 68C62.4494 68 62.4494 68 62.4494 68C62.4494 68 62.4494 68 62.4494 68C62.4494 68 62.4494 68 62.4494 68C62.4494 68 62.4494 68 62.4494 68C62.4494 68 62.4494 68 62.4494 68C62.4494 68 62.4494 68 62.4494 68C62.4494 68 62.4494 68 62.4494 68C62.4494 68 62.4494 68 62.4494 68C62.4494 68 62.4494 68 62.4494 68C62.4494 68 62.4494 68 62.4494 68C62.4494 68 62.4494 68 62.4494 68C62.4494 68 62.4494 68 62.4494 68C62.4494 68 62.4494 68 62.4494 68C62.4494 68 62.4494 68 62.4494 68C62.4494 68 62.4494 68 62.4494 68C62.4494 68 62.4494 68 62.4494 68C62.4494 68 62.4494 68 62.4494 68C62.4494 68 62.4494 68 62.4494 68C62.4494 68 62.4494 68 62.4494 68C62.4494 68 62.4494 68 62.4494 68C62.4494 68 62.4494 68 62.4494 68C62.4494 68 62.4494 68 62.4494 68C62.4494 68 62.4494 68 62.4494 68C62.4494 68 62.4494 68 62.4494 68C62.4494 68 62.4494 68 62.4494 68C62.4494 68 62.4494 68 62.4494 68C62.4494 68 62.4494 68 62.4494 68C62.4494 68 62.4494 68 62.4494 68C62.4494 68 62.4494 68 62.4493 68C62.4493 68 62.4493 68 62.4493 68C62.4493 68 62.4493 68 62.4493 68C62.4493 68 62.4493 68 62.4493 68C62.4493 68 62.4493 68 62.4493 68C62.4493 68 62.4493 68 62.4493 68C62.4493 68 62.4493 68 62.4493 68C62.4493 68 62.4493 68 62.4493 68C62.4493 68 62.4493 68 62.4493 68C62.4493 68 62.4493 68 62.4493 68C62.4493 68 62.4493 68 62.4493 68C62.4493 68 62.4493 68 62.4493 68C62.4493 68 62.4493 68 62.4493 68C62.4493 68 62.4493 68 62.4493 68C62.4493 68 62.4493 68 62.4493 68C62.4493 68 62.4493 68 62.4493 68C62.4493 68 62.4493 68 62.4493 68C62.4493 68 62.4493 68 62.4493 68C62.4493 68 62.4493 68 62.4493 68C62.4493 68 62.4493 68 62.4493 68C62.4493 68 62.4493 68 62.4493 68C62.4493 68 62.4493 68 62.4493 68C62.4493 68 62.4493 68 62.4493 68C62.4493 68 62.4493 68 62.4493 68C62.4493 68 62.4493 68 62.4493 68C62.4493 68 62.4493 68 62.4493 68C62.4493 68 62.4493 68 62.4493 68C62.4493 68 62.4493 68 62.4493 68C62.4493 68 62.4493 68 62.4493 68C62.4493 68 62.4493 68 62.4493 68C62.4493 68 62.4493 68 62.4493 68C62.4493 68 62.4493 68 62.4493 68C62.4493 68 62.4493 68 62.4493 68C62.4493 68 62.4493 68 62.4493 68C62.4493 68 62.4493 68 62.4493 68C62.4493 68 62.4493 68 62.4493 68C62.4493 68 62.4493 68 62.4493 68C62.4493 68 62.4493 68 62.4493 68C62.4493 68 62.4493 68 62.4493 68C62.4493 68 62.4493 68 62.4493 68C62.4493 68 62.4493 68 62.4493 68C62.4493 68 62.4493 68 62.4493 68C62.4493 68 62.4493 68 62.4493 68C62.4493 68 62.4493 68 62.4493 68C62.4493 68 62.4493 68 62.4493 68C62.4493 68 62.4493 68 62.4493 68C62.4493 68 62.4493 68 62.4493 68C62.4493 68 62.4493 68 62.4493 68C62.4493 68 62.4493 68 62.4493 68C62.4493 68 62.4493 68 62.4493 68C62.4493 68 62.4493 68 62.4493 68C62.4493 68 62.4493 68 62.4493 68C62.4493 68 62.4493 68 62.4493 68C62.4493 68 62.4493 68 62.4493 68C62.4493 68 62.4493 68 62.4493 68C62.4493 68 62.4493 68 62.4493 68C62.4493 68 62.4493 68 62.4493 68C62.4493 68 62.4493 68 62.4493 68C62.4493 68 62.4493 68 62.4493 68C62.4493 68 62.4493 68 62.4493 68C62.4493 68 62.4493 68 62.4493 68C62.4493 68 62.4493 68 62.4493 68C62.4493 68 62.4493 68 62.4493 68C62.4493 68 62.4493 68 62.4493 68C62.4493 68 62.4493 68 62.4493 68C62.4493 68 62.4493 68 62.4493 68C62.4493 68 62.4493 68 62.4493 68C62.4493 68 62.4493 68 62.4493 68C62.4493 68 62.4493 68 62.4493 68C62.4493 68 62.4493 68 62.4493 68C62.4493 68 62.4493 68 62.4493 68C62.4493 68 62.4493 68 62.4493 68C62.4493 68 62.4493 68 62.4493 68C62.4493 68 62.4493 68 62.4493 68C62.4493 68 62.4493 68 62.4493 68C62.4493 68 62.4493 68 62.4493 68C62.4493 68 62.4493 68 62.4493 68C62.4493 68 62.4493 68 62.4493 68C62.4493 68 62.4493 68 62.4493 68C62.4493 68 62.4493 68 62.4493 68C62.4493 68 62.4493 68 62.4493 68C62.4493 68 62.4493 68 62.4493 68C62.4493 68 62.4493 68 62.4493 68C62.4493 68 62.4493 68 62.4493 68C62.4493 68 62.4493 68 62.4493 68C62.4493 68 62.4493 68 62.4493 68C62.4493 68 62.4493 68 62.4493 68C62.4493 68 62.4493 68 62.4493 68C62.4493 68 62.4493 68 62.4493 68C62.4493 68 62.4493 68 62.4493 68C62.4493 68 62.4493 68 62.4493 68C62.4493 68 62.4493 68 62.4493 68C62.4493 68 62.4493 68 62.4493 68C62.4493 68 62.4493 68 62.4493 68C62.4493 68 62.4493 68 62.4493 68C62.4493 68 62.4493 68 62.4493 68C62.4493 68 62.4493 68 62.4493 68C62.4493 68 62.4493 68 62.4493 68C62.4493 68 62.4493 68 62.4493 68C62.4493 68 62.4493 68 62.4493 68C62.4493 68 62.4493 68 62.4493 68C62.4493 68 62.4493 68 62.4493 68C62.4493 68 62.4493 68 62.4493 68C62.4493 68 62.4493 68 62.4493 68C62.4493 68 62.4493 68 62.4493 68C62.4493 68 62.4493 68 62.4493 68C62.4493 68 62.4493 68 62.4493 68C62.4493 68 62.4493 68 62.4493 68C62.4493 68 62.4493 68 62.4493 68C62.4493 68 62.4493 68 62.4493 68C62.4493 68 62.4493 68 62.4493 68C62.4493 68 62.4493 68 62.4493 68C62.4493 68 62.4493 68 62.4493 68C62.4493 68 62.4493 68 62.4493 68C62.4493 68 62.4493 68 62.4493 68C62.4493 68 62.4493 68 62.4493 68C62.4493 68 62.4493 68 62.4493 68C62.4493 68 62.4493 68 62.4493 68C62.4493 68 62.4493 68 62.4493 68C62.4493 68 62.4493 68 62.4493 68C62.4493 68 62.4493 68 62.4493 68C62.4493 68 62.4493 68 62.4493 68C62.4493 68 62.4493 68 62.4493 68C62.4493 68 62.4493 68 62.4493 68C62.4493 68 62.4493 68 62.4493 68C62.4493 68 62.4493 68 62.4493 68C62.4493 68 62.4493 68 62.4493 68C62.4493 68 62.4493 68 62.4493 68C62.4493 68 62.4493 68 62.4493 68C62.4493 68 62.4493 68 62.4493 68C62.4493 68 62.4493 68 62.4493 68C62.4493 68 62.4493 68 62.4493 68C62.4493 68 62.4493 68 62.4493 68C62.4493 68 62.4493 68 62.4493 68C62.4493 68 62.4493 68 62.4493 68C62.4493 68 62.4493 68 62.4493 68C62.4492 68 62.4492 68 62.4492 68C62.4492 68 62.4492 68 62.4492 68C62.4492 68 62.4492 68 62.4492 68C62.4492 68 62.4492 68 62.4492 68C62.4492 68 62.4492 68 62.4492 68C62.4492 68 62.4492 68 62.4492 68C62.4492 68 62.4492 68 62.4492 68C62.4492 68 62.4492 68 62.4492 68C62.4492 68 62.4492 68 62.4492 68C62.4492 68 62.4492 68 62.4492 68C62.4492 68 62.4492 68 62.4492 68C62.4492 68 62.4492 68 62.4492 68C62.4492 68 62.4492 68 62.4492 68C62.4492 68 62.4492 68 62.4492 68C62.4492 68 62.4492 68 62.4492 68C62.4492 68 62.4492 68 62.4492 68C62.4492 68 62.4492 68 62.4492 68C62.4492 68 62.4492 68 62.4492 68C62.4492 68 62.4492 68 62.4492 68C62.4492 68 62.4492 68 62.4492 68C62.4492 68 62.4492 68 62.4492 68C62.4492 68 62.4492 68 62.4492 68C62.4492 68 62.4492 68 62.4492 68C62.4492 68 62.4492 68 62.4492 68C62.4492 68 62.4492 68 62.4492 68C62.4492 68 62.4492 68 62.4492 68C62.4492 68 62.4492 68 62.4492 68C62.4492 68 62.4492 68 62.4492 68C62.4492 68 62.4492 68 62.4492 68C62.4492 68 62.4492 68 62.4492 68C62.4492 68 62.4492 68 62.4492 68C62.4492 68 62.4492 68 62.4492 68C62.4492 68 62.4492 68 62.4492 68C62.4492 68 62.4492 68 62.4492 68C62.4492 68 62.4492 68 62.4492 68C62.4492 68 62.4492 68 62.4492 68C62.4492 68 62.4492 68 62.4492 68C62.4492 68 62.4492 68 62.4492 68C62.4492 68 62.4492 68 62.4492 68C62.4492 68 62.4492 68 62.4492 68C62.4492 68 62.4492 68 62.4492 68C62.4492 68 62.4492 68 62.4492 68C62.4492 68 62.4492 68 62.4492 68C62.4492 68 62.4492 68 62.4492 68C62.4492 68 62.4492 68 62.4492 68C62.4492 68 62.4492 68 62.4492 68C62.4492 68 62.4492 68 62.4492 68C62.4492 68 62.4492 68 62.4492 68C62.4492 68 62.4492 68 62.4492 68C62.4492 68 62.4492 68 62.4492 68C62.4492 68 62.4492 68 62.4492 68C62.4492 68 62.4492 68 62.4492 68C62.4492 68 62.4492 68 62.4492 68C62.4492 68 62.4492 68 62.4492 68C62.4492 68 62.4492 68 62.4492 68C62.4492 68 62.4492 68 62.4492 68C62.4492 68 62.4492 68 62.4492 68C62.4492 68 62.4492 68 62.4492 68C62.4492 68 62.4492 68 62.4492 68C62.4492 68 62.4492 68 62.4492 68C62.4492 68 62.4492 68 62.4492 68C62.4492 68 62.4492 68 62.4492 68C62.4492 68 62.4492 68 62.4492 68C62.4492 68 62.4492 68 62.4492 68C62.4492 68 62.4492 68 62.4492 68C62.4492 68 62.4492 68 62.4492 68C62.4492 68 62.4492 68 62.4492 68C62.4492 68 62.4492 68 62.4492 68C62.4492 68 62.4492 68 62.4492 68C62.4492 68 62.4492 68 62.4492 68C62.4492 68 62.4492 68 62.4492 68C62.4492 68 62.4492 68 62.4492 68C62.4492 68 62.4492 68 62.4492 68C62.4492 68 62.4492 68 62.4492 68C62.4492 68 62.4492 68 62.4492 68C62.4492 68 62.4492 68 62.4492 68C62.4492 68 62.4492 68 62.4492 68C62.4492 68 62.4492 68 62.4492 68C62.4492 68 62.4492 68 62.4492 68C62.4492 68 62.4492 68 62.4492 68C62.4492 68 62.4492 68 62.4492 68C62.4492 68 62.4492 68 62.4492 68C62.4492 68 62.4492 68 62.4492 68C62.4492 68 62.4492 68 62.4492 68C62.4492 68 62.4492 68 62.4492 68C62.4492 68 62.4492 68 62.4492 68C62.4492 68 62.4492 68 62.4492 68C62.4492 68 62.4492 68 62.4492 68C62.4492 68 62.4492 68 62.4492 68C62.4492 68 62.4492 68 62.4492 68C62.4492 68 62.4492 68 62.4492 68C62.4492 68 62.4492 68 62.4492 68C62.4492 68 62.4492 68 62.4492 68C62.4492 68 62.4492 68 62.4492 68C62.4492 68 62.4492 68 62.4492 68C62.4492 68 62.4492 68 62.4492 68C62.4492 68 62.4492 68 62.4492 68C62.4492 68 62.4492 68 62.4492 68C62.4492 68 62.4492 68 62.4492 68C62.4492 68 62.4492 68 62.4492 68C62.4492 68 62.4492 68 62.4492 68C62.4492 68 62.4492 68 62.4492 68C62.4492 68 62.4492 68 62.4492 68C62.4492 68 62.4492 68 62.4492 68C62.4492 68 62.4492 68 62.4492 68C62.4492 68 62.4492 68 62.4492 68C62.4492 68 62.4492 68 62.4492 68C62.4492 68 62.4492 68 62.4492 68C62.4492 68 62.4492 68 62.4492 68C62.4492 68 62.4492 68 62.4492 68C62.4492 68 62.4492 68 62.4492 68C62.4492 68 62.4492 68 62.4492 68C62.4492 68 62.4492 68 62.4492 68C62.4492 68 62.4492 68 62.4492 68C62.4492 68 62.4492 68 62.4492 68C62.4492 68 62.4492 68 62.4492 68C62.4492 68 62.4492 68 62.4492 68C62.4492 68 62.4492 68 62.4492 68C62.4492 68 62.4492 68 62.4492 68C62.4492 68 62.4492 68 62.4492 68C62.4492 68 62.4492 68 62.4492 68C62.4492 68 62.4492 68 62.4492 68C62.4492 68 62.4492 68 62.4492 68C62.4492 68 62.4492 68 62.4492 68C62.4492 68 62.4492 68 62.4492 68C62.4492 68 62.4492 68 62.4492 68C62.4492 68 62.4492 68 62.4492 68C62.4492 68 62.4492 68 62.4492 68C62.4492 68 62.4492 68 62.4492 68C62.4492 68 62.4492 68 62.4492 68C62.4492 68 62.4492 68 62.4492 68C62.4492 68 62.4492 68 62.4492 68C62.4492 68 62.4492 68 62.4492 68C62.4492 68 62.4492 68 62.4492 68C62.4492 68 62.4492 68 62.4492 68C62.4492 68 62.4492 68 62.4491 68C62.4491 68 62.4491 68 62.4491 68C62.4491 68 62.4491 68 62.4491 68C62.4491 68 62.4491 68 62.4491 68C62.4491 68 62.4491 68 62.4491 68C62.4491 68 62.4491 68 62.4491 68C62.4491 68 62.4491 68 62.4491 68C62.4491 68 62.4491 68 62.4491 68C62.4491 68 62.4491 68 62.4491 68C62.4491 68 62.4491 68 62.4491 68C62.4491 68 62.4491 68 62.4491 68C62.4491 68 62.4491 68 62.4491 68C62.4491 68 62.4491 68 62.4491 68C62.4491 68 62.4491 68 62.4491 68C62.4491 68 62.4491 68 62.4491 68C62.4491 68 62.4491 68 62.4491 68C62.4491 68 62.4491 68 62.4491 68C62.4491 68 62.4491 68 62.4491 68C62.4491 68 62.4491 68 62.4491 68C62.4491 68 62.4491 68 62.4491 68C62.4491 68 62.4491 68 62.4491 68C62.4491 68 62.4491 68 62.4491 68C62.4491 68 62.4491 68 62.4491 68C62.4491 68 62.4491 68 62.4491 68C62.4491 68 62.4491 68 62.4491 68C62.4491 68 62.4491 68 62.4491 68C62.4491 68 62.4491 68 62.4491 68C62.4491 68 62.4491 68 62.4491 68C62.4491 68 62.4491 68 62.4491 68C62.4491 68 62.4491 68 62.4491 68C62.4491 68 62.4491 68 62.4491 68C62.4491 68 62.4491 68 62.4491 68C62.4491 68 62.4491 68 62.4491 68C62.4491 68 62.4491 68 62.4491 68C62.4491 68 62.4491 68 62.4491 68C62.4491 68 62.4491 68 62.4491 68C62.4491 68 62.4491 68 62.4491 68C62.4491 68 62.4491 68 62.4491 68C62.4491 68 62.4491 68 62.4491 68C62.4491 68 62.4491 68 62.4491 68C62.4491 68 62.4491 68 62.4491 68C62.4491 68 62.4491 68 62.4491 68C62.4491 68 62.4491 68 62.4491 68C62.4491 68 62.4491 68 62.4491 68C62.4491 68 62.4491 68 62.4491 68C62.4491 68 62.4491 68 62.4491 68C62.4491 68 62.4491 68 62.4491 68C62.4491 68 62.4491 68 62.4491 68C62.4491 68 62.4491 68 62.4491 68C62.4491 68 62.4491 68 62.4491 68C62.4491 68 62.4491 68 62.4491 68C62.4491 68 62.4491 68 62.4491 68C62.4491 68 62.4491 68 62.4491 68C62.4491 68 62.4491 68 62.4491 68C62.4491 68 62.4491 68 62.4491 68C62.4491 68 62.4491 68 62.4491 68C62.4491 68 62.4491 68 62.4491 68C62.4491 68 62.4491 68 62.4491 68C62.4491 68 62.4491 68 62.4491 68C62.4491 68 62.4491 68 62.4491 68C62.4491 68 62.4491 68 62.4491 68C62.4491 68 62.4491 68 62.4491 68C62.4491 68 62.4491 68 62.4491 68C62.4491 68 62.4491 68 62.4491 68C62.4491 68 62.4491 68 62.4491 68C62.4491 68 62.4491 68 62.4491 68C62.4491 68 62.4491 68 62.4491 68C62.4491 68 62.4491 68 62.4491 68C62.4491 68 62.4491 68 62.4491 68C62.4491 68 62.4491 68 62.4491 68C62.4491 68 62.4491 68 62.4491 68C62.4491 68 62.4491 68 62.4491 68C62.4491 68 62.4491 68 62.4491 68C62.4491 68 62.4491 68 62.4491 68C62.4491 68 62.4491 68 62.4491 68C62.4491 68 62.4491 68 62.4491 68C62.4491 68 62.4491 68 62.4491 68C62.4491 68 62.4491 68 62.4491 68C62.4491 68 62.4491 68 62.4491 68C62.4491 68 62.4491 68 62.4491 68C62.4491 68 62.4491 68 62.4491 68C62.4491 68 62.4491 68 62.4491 68C62.4491 68 62.4491 68 62.4491 68C62.4491 68 62.4491 68 62.4491 68C62.4491 68 62.4491 68 62.4491 68C62.4491 68 62.4491 68 62.4491 68C62.4491 68 62.4491 68 62.4491 68C62.4491 68 62.4491 68 62.4491 68C62.4491 68 62.4491 68 62.4491 68C62.4491 68 62.4491 68 62.4491 68C62.4491 68 62.4491 68 62.4491 68C62.4491 68 62.4491 68 62.4491 68C62.4491 68 62.4491 68 62.4491 68C62.4491 68 62.4491 68 62.4491 68C62.4491 68 62.4491 68 62.4491 68C62.4491 68 62.4491 68 62.4491 68C62.4491 68 62.4491 68 62.4491 68C62.4491 68 62.4491 68 62.4491 68C62.4491 68 62.4491 68 62.4491 68V72ZM60.4491 70V70.0003H64.4491V70H60.4491ZM62.4491 68.0003H35.0205V72.0003H62.4491V68.0003ZM37.0205 70.0003V69.9964H33.0205V70.0003H37.0205ZM34.6939 72C34.8179 72 34.9416 71.9986 35.065 71.9959L34.976 67.9969C34.8823 67.999 34.7882 68 34.6939 68V72ZM18 55C18 64.3498 25.4354 72 34.6939 72V68C27.7219 68 22 62.2188 22 55H18ZM34.6939 38C25.4354 38 18 45.6502 18 55H22C22 47.7812 27.7219 42 34.6939 42V38ZM42.7318 40.097C40.347 38.7607 37.6054 38 34.6939 38V42C36.9001 42 38.9708 42.5747 40.7765 43.5865L42.7318 40.097ZM62.4495 24C51.7001 24 42.6715 31.3281 39.8308 41.2935L43.6775 42.3901C46.0551 34.0495 53.5822 28 62.4495 28V24ZM86.0005 48C86.0005 34.7842 75.495 24 62.4495 24V28C73.2085 28 82.0005 36.9152 82.0005 48H86.0005Z" fill="black" fill-opacity="0.21"/>
<path d="M47 88.2V74.025H43V63H57L53 70.875H57L47 88.2Z" fill="url(#paint2_linear_407_633)" stroke="#B44100" stroke-opacity="0.25" stroke-width="2" stroke-miterlimit="16"/>
</g>
<defs>
<filter id="filter0_f_407_633" x="11" y="-3" width="74" height="74" filterUnits="userSpaceOnUse" color-interpolation-filters="sRGB">
<feFlood flood-opacity="0" result="BackgroundImageFix"/>
<feBlend mode="normal" in="SourceGraphic" in2="BackgroundImageFix" result="shape"/>
<feGaussianBlur stdDeviation="9" result="effect1_foregroundBlur_407_633"/>
</filter>
<linearGradient id="paint0_linear_407_633" x1="35" y1="17" x2="63" y2="63" gradientUnits="userSpaceOnUse">
<stop offset="0.165457" stop-color="#F0AA41"/>
<stop offset="1" stop-color="#FF8A00"/>
</linearGradient>
<linearGradient id="paint1_linear_407_633" x1="42.5308" y1="42.3335" x2="66.3964" y2="60.1921" gradientUnits="userSpaceOnUse">
<stop offset="0.06" stop-color="#757575"/>
<stop offset="1" stop-color="#656565"/>
</linearGradient>
<linearGradient id="paint2_linear_407_633" x1="46.25" y1="65.25" x2="60.3758" y2="78.1426" gradientUnits="userSpaceOnUse">
<stop offset="0.165457" stop-color="#F0AA41"/>
<stop offset="1" stop-color="#FF8A00"/>
</linearGradient>
<clipPath id="clip0_407_633">
<rect width="100" height="100" fill="white"/>
</clipPath>
</defs>
</svg>
