<svg width="100" height="100" viewBox="0 0 100 100" fill="none" xmlns="http://www.w3.org/2000/svg">
<path fill-rule="evenodd" clip-rule="evenodd" d="M82 46C82 58.1503 72.3513 68 60.449 68H33.0204V67.9964C32.9119 67.9988 32.803 68 32.6939 68C24.5787 68 18 61.2843 18 53C18 44.7157 24.5787 38 32.6939 38C35.2526 38 37.6586 38.6676 39.7537 39.8416C42.3629 30.6887 50.6408 24 60.449 24C72.3513 24 82 33.8497 82 46Z" fill="url(#paint0_linear_407_634)"/>
<path d="M33.0204 68H31.0204V70H33.0204V68ZM33.0204 67.9964H35.0204V65.9514L32.9759 65.9969L33.0204 67.9964ZM39.7537 39.8416L38.7761 41.5863L40.9834 42.8231L41.6771 40.3899L39.7537 39.8416ZM60.449 70C73.4945 70 84 59.2158 84 46H80C80 57.0848 71.208 66 60.449 66V70ZM60.449 66H33.0204V70H60.449V66ZM35.0204 68V67.9964H31.0204V68H35.0204ZM32.6939 70C32.8179 70 32.9415 69.9986 33.0649 69.9959L32.9759 65.9969C32.8822 65.9989 32.7881 66 32.6939 66V70ZM16 53C16 62.3498 23.4354 70 32.6939 70V66C25.7219 66 20 60.2188 20 53H16ZM32.6939 36C23.4354 36 16 43.6502 16 53H20C20 45.7812 25.7219 40 32.6939 40V36ZM40.7313 38.0968C38.3466 36.7606 35.6052 36 32.6939 36V40C34.9 40 36.9705 40.5747 38.7761 41.5863L40.7313 38.0968ZM60.449 22C49.6997 22 40.6712 29.3279 37.8303 39.2933L41.6771 40.3899C44.0547 32.0494 51.5818 26 60.449 26V22ZM84 46C84 32.7842 73.4945 22 60.449 22V26C71.208 26 80 34.9152 80 46H84Z" fill="black" fill-opacity="0.07"/>
<path fill-rule="evenodd" clip-rule="evenodd" d="M49.212 75.4741C48.1161 75.4741 47.2065 76.2716 47.0317 77.3178C46.9982 77.5185 46.8365 77.6847 46.633 77.6847C46.4295 77.6847 46.2622 77.5189 46.2873 77.317C46.4683 75.8627 47.7087 74.7373 49.212 74.7373C50.8398 74.7373 52.1593 76.0569 52.1593 77.6847C52.1593 79.3125 50.8398 80.632 49.212 80.632H39.633C39.4295 80.632 39.2646 80.4671 39.2646 80.2636C39.2646 80.0601 39.4295 79.8952 39.633 79.8952H49.212C50.4328 79.8952 51.4225 78.9055 51.4225 77.6847C51.4225 76.4638 50.4328 75.4741 49.212 75.4741ZM45.5278 86.5268C44.4319 86.5268 43.5223 85.7294 43.3475 84.6831C43.314 84.4824 43.1523 84.3163 42.9488 84.3163C42.7453 84.3163 42.578 84.482 42.6031 84.6839C42.7841 86.1382 44.0245 87.2636 45.5278 87.2636C47.1555 87.2636 48.4751 85.944 48.4751 84.3163C48.4751 82.6885 47.1555 81.3689 45.5278 81.3689H35.9488C35.7453 81.3689 35.5804 81.5338 35.5804 81.7373C35.5804 81.9408 35.7453 82.1057 35.9488 82.1057H45.5278C46.7486 82.1057 47.7383 83.0954 47.7383 84.3163C47.7383 85.5371 46.7486 86.5268 45.5278 86.5268ZM34.1067 79.8952C33.9032 79.8952 33.7383 80.0601 33.7383 80.2636C33.7383 80.4671 33.9032 80.632 34.1067 80.632H37.4225C37.626 80.632 37.7909 80.4671 37.7909 80.2636C37.7909 80.0601 37.626 79.8952 37.4225 79.8952H34.1067Z" fill="url(#paint1_linear_407_634)"/>
<path fill-rule="evenodd" clip-rule="evenodd" d="M49.2105 76.2105C48.4807 76.2105 47.8735 76.7418 47.7571 77.4387C47.6769 77.9189 47.2669 78.4211 46.6316 78.4211C46.0492 78.4211 45.4672 77.9284 45.5547 77.2255C45.781 75.4069 47.3309 74 49.2105 74C51.2453 74 52.8947 75.6495 52.8947 77.6842C52.8947 79.7189 51.2453 81.3684 49.2105 81.3684H47.7372C48.6319 82.0406 49.2105 83.1106 49.2105 84.3158C49.2105 86.3505 47.561 88 45.5263 88C43.6467 88 42.0968 86.5931 41.8705 84.7745C41.783 84.0716 42.365 83.5789 42.9474 83.5789C43.5827 83.5789 43.9927 84.0811 44.0729 84.5613C44.1893 85.2582 44.7965 85.7895 45.5263 85.7895C46.3402 85.7895 47 85.1297 47 84.3158C47 83.5019 46.3402 82.8421 45.5263 82.8421H35.9474C35.3369 82.8421 34.8421 82.3473 34.8421 81.7368C34.8421 81.6077 34.8643 81.4837 34.905 81.3684H34.1053C33.4948 81.3684 33 80.8736 33 80.2632C33 79.6527 33.4948 79.1579 34.1053 79.1579H37.4211C38.0315 79.1579 38.5263 79.6527 38.5263 80.2632C38.5263 80.3923 38.5042 80.5163 38.4634 80.6316H38.5892C38.5485 80.5163 38.5263 80.3923 38.5263 80.2632C38.5263 79.6527 39.0212 79.1579 39.6316 79.1579H49.2105C50.0244 79.1579 50.6842 78.4981 50.6842 77.6842C50.6842 76.8703 50.0244 76.2105 49.2105 76.2105ZM39.6316 80.6316H49.2105C50.8383 80.6316 52.1579 79.312 52.1579 77.6842C52.1579 76.0564 50.8383 74.7368 49.2105 74.7368C48.5151 74.7368 47.8759 74.9777 47.3719 75.3805C46.7863 75.8485 46.3831 76.535 46.2859 77.3165C46.2607 77.5184 46.4281 77.6842 46.6316 77.6842C46.8041 77.6842 46.9465 77.5648 47.0064 77.4062C47.0118 77.3917 47.0166 77.3769 47.0206 77.3619C47.0238 77.3502 47.0265 77.3383 47.0287 77.3263C47.0293 77.3233 47.0298 77.3203 47.0303 77.3173C47.2051 76.2711 48.1147 75.4737 49.2105 75.4737C50.4314 75.4737 51.4211 76.4634 51.4211 77.6842C51.4211 78.9051 50.4314 79.8947 49.2105 79.8947H39.6316C39.4281 79.8947 39.2632 80.0597 39.2632 80.2632C39.2632 80.4666 39.4281 80.6316 39.6316 80.6316ZM35.9474 81.3684C35.7439 81.3684 35.5789 81.5334 35.5789 81.7368C35.5789 81.9403 35.7439 82.1053 35.9474 82.1053H45.5263C46.7472 82.1053 47.7368 83.0949 47.7368 84.3158C47.7368 85.5366 46.7472 86.5263 45.5263 86.5263C44.4305 86.5263 43.5209 85.7289 43.3461 84.6827C43.3456 84.6796 43.3451 84.6766 43.3445 84.6736C43.3423 84.6616 43.3395 84.6498 43.3364 84.6381C43.3324 84.6231 43.3276 84.6083 43.3222 84.5938C43.2623 84.4352 43.1198 84.3158 42.9474 84.3158C42.7439 84.3158 42.5765 84.4816 42.6017 84.6835C42.6988 85.4643 43.1014 86.1503 43.6861 86.6182C44.1064 86.9547 44.6209 87.1784 45.1839 87.2435C45.2963 87.2565 45.4105 87.2632 45.5263 87.2632C47.1541 87.2632 48.4737 85.9436 48.4737 84.3158C48.4737 82.688 47.1541 81.3684 45.5263 81.3684H35.9474ZM33.7368 80.2632C33.7368 80.0597 33.9018 79.8947 34.1053 79.8947H37.4211C37.6245 79.8947 37.7895 80.0597 37.7895 80.2632C37.7895 80.4666 37.6245 80.6316 37.4211 80.6316H34.1053C33.9018 80.6316 33.7368 80.4666 33.7368 80.2632Z" fill="black" fill-opacity="0.05"/>
<mask id="path-5-outside-1_407_634" maskUnits="userSpaceOnUse" x="55" y="74" width="14" height="14" fill="black">
<rect fill="white" x="55" y="74" width="14" height="14"/>
<path fill-rule="evenodd" clip-rule="evenodd" d="M59.841 75.7775C59.681 75.6498 59.6596 75.4145 59.794 75.26C59.9206 75.1146 60.1392 75.0948 60.2898 75.215L60.8826 75.6879C61.1355 75.8897 61.5095 75.7096 61.5095 75.3861C61.5095 75.1729 61.6823 75 61.8956 75H62.1044C62.3176 75 62.4905 75.1729 62.4905 75.3861C62.4905 75.7096 62.8645 75.8897 63.1174 75.6879L63.7102 75.215C63.8608 75.0948 64.0794 75.1146 64.206 75.26C64.3404 75.4145 64.319 75.6498 64.159 75.7775L63.0016 76.7009C62.6786 76.9586 62.4905 77.3493 62.4905 77.7625V77.8013C62.4905 78.8349 63.6139 79.477 64.5046 78.9525C64.8544 78.7464 65.0916 78.3924 65.1491 77.9905L65.3648 76.4829C65.3938 76.2799 65.5878 76.1433 65.7888 76.1843C65.9735 76.2221 66.0968 76.3972 66.0701 76.5838L65.9559 77.3822C65.9109 77.6972 66.25 77.9244 66.5242 77.763C66.707 77.6553 66.9425 77.7184 67.047 77.903L67.1531 78.0905C67.2585 78.2766 67.1952 78.5128 67.0109 78.6213C66.7311 78.7861 66.7615 79.2001 67.0623 79.3223L67.774 79.6114C67.9509 79.6833 68.0418 79.8802 67.9818 80.0615C67.9159 80.2607 67.6952 80.3625 67.5009 80.2836L66.1634 79.7402C65.7709 79.5808 65.3266 79.6134 64.9616 79.8284C64.0686 80.3543 64.0686 81.6458 64.9616 82.1717C65.3266 82.3867 65.7709 82.4193 66.1634 82.2598L67.5009 81.7165C67.6952 81.6375 67.9159 81.7394 67.9818 81.9385C68.0418 82.1199 67.9509 82.3167 67.774 82.3886L67.0623 82.6777C66.7615 82.8 66.7311 83.2139 67.0109 83.3787C67.1952 83.4872 67.2585 83.7234 67.1531 83.9096L67.047 84.097C66.9425 84.2817 66.707 84.3448 66.5242 84.2371C66.25 84.0756 65.9109 84.3029 65.9559 84.6178L66.0701 85.4162C66.0968 85.6028 65.9735 85.778 65.7888 85.8157C65.5878 85.8568 65.3938 85.7201 65.3648 85.5171L65.1491 84.0096C65.0916 83.6076 64.8544 83.2537 64.5046 83.0476C63.6139 82.523 62.4905 83.1652 62.4905 84.1988V84.2375C62.4905 84.6507 62.6786 85.0414 63.0016 85.2991L64.159 86.2225C64.319 86.3502 64.3404 86.5855 64.206 86.74C64.0794 86.8854 63.8608 86.9052 63.7102 86.785L63.1174 86.3121C62.8645 86.1103 62.4905 86.2904 62.4905 86.6139C62.4905 86.8271 62.3176 87 62.1044 87H61.8956C61.6823 87 61.5095 86.8271 61.5095 86.6139C61.5095 86.2904 61.1355 86.1103 60.8826 86.3121L60.2898 86.785C60.1392 86.9052 59.9206 86.8854 59.794 86.74C59.6596 86.5855 59.681 86.3502 59.841 86.2225L60.9984 85.2991C61.3214 85.0414 61.5095 84.6507 61.5095 84.2375V84.1987C61.5095 83.1652 60.3862 82.5231 59.4956 83.0476C59.1458 83.2537 58.9087 83.6076 58.8512 84.0095L58.6355 85.5171C58.6064 85.7201 58.4124 85.8568 58.2115 85.8157C58.0268 85.778 57.9034 85.6028 57.9301 85.4162L58.0443 84.6178C58.0894 84.3029 57.7502 84.0756 57.4761 84.2371C57.2933 84.3448 57.0577 84.2817 56.9532 84.097L56.8471 83.9096C56.7418 83.7234 56.8051 83.4872 56.9894 83.3787C57.2691 83.2139 57.2388 82.7999 56.938 82.6777L56.2263 82.3886C56.0493 82.3167 55.9584 82.1199 56.0185 81.9385C56.0844 81.7394 56.305 81.6375 56.4994 81.7165L57.8368 82.2598C58.2293 82.4193 58.6737 82.3867 59.0387 82.1717C59.9316 81.6458 59.9316 80.3543 59.0387 79.8284C58.6737 79.6134 58.2293 79.5808 57.8368 79.7402L56.4994 80.2836C56.305 80.3625 56.0844 80.2607 56.0185 80.0615C55.9584 79.8802 56.0493 79.6833 56.2263 79.6114L56.938 79.3223C57.2388 79.2001 57.2691 78.7861 56.9894 78.6213C56.8051 78.5128 56.7418 78.2766 56.8471 78.0905L56.9532 77.903C57.0577 77.7184 57.2933 77.6553 57.4761 77.763C57.7502 77.9244 58.0894 77.6971 58.0443 77.3822L57.9301 76.5838C57.9034 76.3972 58.0268 76.2221 58.2115 76.1843C58.4124 76.1433 58.6064 76.2799 58.6355 76.4829L58.8512 77.9905C58.9087 78.3924 59.1458 78.7464 59.4956 78.9524C60.3862 79.4769 61.5095 78.8349 61.5095 77.8013V77.7625C61.5095 77.3493 61.3214 76.9586 60.9984 76.7009L59.841 75.7775Z"/>
</mask>
<path fill-rule="evenodd" clip-rule="evenodd" d="M59.841 75.7775C59.681 75.6498 59.6596 75.4145 59.794 75.26C59.9206 75.1146 60.1392 75.0948 60.2898 75.215L60.8826 75.6879C61.1355 75.8897 61.5095 75.7096 61.5095 75.3861C61.5095 75.1729 61.6823 75 61.8956 75H62.1044C62.3176 75 62.4905 75.1729 62.4905 75.3861C62.4905 75.7096 62.8645 75.8897 63.1174 75.6879L63.7102 75.215C63.8608 75.0948 64.0794 75.1146 64.206 75.26C64.3404 75.4145 64.319 75.6498 64.159 75.7775L63.0016 76.7009C62.6786 76.9586 62.4905 77.3493 62.4905 77.7625V77.8013C62.4905 78.8349 63.6139 79.477 64.5046 78.9525C64.8544 78.7464 65.0916 78.3924 65.1491 77.9905L65.3648 76.4829C65.3938 76.2799 65.5878 76.1433 65.7888 76.1843C65.9735 76.2221 66.0968 76.3972 66.0701 76.5838L65.9559 77.3822C65.9109 77.6972 66.25 77.9244 66.5242 77.763C66.707 77.6553 66.9425 77.7184 67.047 77.903L67.1531 78.0905C67.2585 78.2766 67.1952 78.5128 67.0109 78.6213C66.7311 78.7861 66.7615 79.2001 67.0623 79.3223L67.774 79.6114C67.9509 79.6833 68.0418 79.8802 67.9818 80.0615C67.9159 80.2607 67.6952 80.3625 67.5009 80.2836L66.1634 79.7402C65.7709 79.5808 65.3266 79.6134 64.9616 79.8284C64.0686 80.3543 64.0686 81.6458 64.9616 82.1717C65.3266 82.3867 65.7709 82.4193 66.1634 82.2598L67.5009 81.7165C67.6952 81.6375 67.9159 81.7394 67.9818 81.9385C68.0418 82.1199 67.9509 82.3167 67.774 82.3886L67.0623 82.6777C66.7615 82.8 66.7311 83.2139 67.0109 83.3787C67.1952 83.4872 67.2585 83.7234 67.1531 83.9096L67.047 84.097C66.9425 84.2817 66.707 84.3448 66.5242 84.2371C66.25 84.0756 65.9109 84.3029 65.9559 84.6178L66.0701 85.4162C66.0968 85.6028 65.9735 85.778 65.7888 85.8157C65.5878 85.8568 65.3938 85.7201 65.3648 85.5171L65.1491 84.0096C65.0916 83.6076 64.8544 83.2537 64.5046 83.0476C63.6139 82.523 62.4905 83.1652 62.4905 84.1988V84.2375C62.4905 84.6507 62.6786 85.0414 63.0016 85.2991L64.159 86.2225C64.319 86.3502 64.3404 86.5855 64.206 86.74C64.0794 86.8854 63.8608 86.9052 63.7102 86.785L63.1174 86.3121C62.8645 86.1103 62.4905 86.2904 62.4905 86.6139C62.4905 86.8271 62.3176 87 62.1044 87H61.8956C61.6823 87 61.5095 86.8271 61.5095 86.6139C61.5095 86.2904 61.1355 86.1103 60.8826 86.3121L60.2898 86.785C60.1392 86.9052 59.9206 86.8854 59.794 86.74C59.6596 86.5855 59.681 86.3502 59.841 86.2225L60.9984 85.2991C61.3214 85.0414 61.5095 84.6507 61.5095 84.2375V84.1987C61.5095 83.1652 60.3862 82.5231 59.4956 83.0476C59.1458 83.2537 58.9087 83.6076 58.8512 84.0095L58.6355 85.5171C58.6064 85.7201 58.4124 85.8568 58.2115 85.8157C58.0268 85.778 57.9034 85.6028 57.9301 85.4162L58.0443 84.6178C58.0894 84.3029 57.7502 84.0756 57.4761 84.2371C57.2933 84.3448 57.0577 84.2817 56.9532 84.097L56.8471 83.9096C56.7418 83.7234 56.8051 83.4872 56.9894 83.3787C57.2691 83.2139 57.2388 82.7999 56.938 82.6777L56.2263 82.3886C56.0493 82.3167 55.9584 82.1199 56.0185 81.9385C56.0844 81.7394 56.305 81.6375 56.4994 81.7165L57.8368 82.2598C58.2293 82.4193 58.6737 82.3867 59.0387 82.1717C59.9316 81.6458 59.9316 80.3543 59.0387 79.8284C58.6737 79.6134 58.2293 79.5808 57.8368 79.7402L56.4994 80.2836C56.305 80.3625 56.0844 80.2607 56.0185 80.0615C55.9584 79.8802 56.0493 79.6833 56.2263 79.6114L56.938 79.3223C57.2388 79.2001 57.2691 78.7861 56.9894 78.6213C56.8051 78.5128 56.7418 78.2766 56.8471 78.0905L56.9532 77.903C57.0577 77.7184 57.2933 77.6553 57.4761 77.763C57.7502 77.9244 58.0894 77.6971 58.0443 77.3822L57.9301 76.5838C57.9034 76.3972 58.0268 76.2221 58.2115 76.1843C58.4124 76.1433 58.6064 76.2799 58.6355 76.4829L58.8512 77.9905C58.9087 78.3924 59.1458 78.7464 59.4956 78.9524C60.3862 79.4769 61.5095 78.8349 61.5095 77.8013V77.7625C61.5095 77.3493 61.3214 76.9586 60.9984 76.7009L59.841 75.7775Z" fill="url(#paint2_linear_407_634)"/>
<path d="M60.9984 76.7009L60.6242 77.1699L60.9984 76.7009ZM58.8512 77.9905L58.2572 78.0755L58.8512 77.9905ZM58.0443 77.3822L58.6383 77.2972L58.0443 77.3822ZM56.9532 77.903L56.4311 77.6075L56.9532 77.903ZM56.8471 78.0905L56.325 77.795L56.8471 78.0905ZM56.938 79.3223L56.7121 78.7664L56.938 79.3223ZM56.2263 79.6114L56.4521 80.1673L56.2263 79.6114ZM56.4994 80.2836L56.7252 80.8395L56.4994 80.2836ZM57.8368 79.7402L57.611 79.1843L57.8368 79.7402ZM57.8368 82.2598L58.0627 81.7039L57.8368 82.2598ZM56.4994 81.7165L56.2735 82.2724L56.4994 81.7165ZM56.2263 82.3886L56.0005 82.9445L56.2263 82.3886ZM56.938 82.6777L56.7121 83.2336L56.938 82.6777ZM56.8471 83.9096L57.3693 83.614L56.8471 83.9096ZM56.9532 84.097L56.4311 84.3925L56.9532 84.097ZM58.0443 84.6178L58.6383 84.7028L58.0443 84.6178ZM57.9301 85.4162L57.3362 85.3312L57.9301 85.4162ZM58.6355 85.5171L58.0415 85.4321L58.6355 85.5171ZM60.9984 85.2991L61.3726 85.7681L60.9984 85.2991ZM59.841 86.2225L60.2152 86.6915L59.841 86.2225ZM60.2898 86.785L60.664 87.254L60.2898 86.785ZM60.8826 86.3121L61.2568 86.7811L60.8826 86.3121ZM63.1174 86.3121L62.7432 86.7811L63.1174 86.3121ZM63.7102 86.785L63.336 87.254L63.7102 86.785ZM64.159 86.2225L63.7848 86.6915L64.159 86.2225ZM65.1491 84.0096L65.743 83.9246L65.1491 84.0096ZM65.3648 85.5171L65.9587 85.4321L65.3648 85.5171ZM66.0701 85.4162L65.4762 85.5012L66.0701 85.4162ZM67.047 84.097L66.5249 83.8015L67.047 84.097ZM67.1531 83.9096L67.6753 84.2051L67.1531 83.9096ZM67.0623 82.6777L66.8365 82.1219L67.0623 82.6777ZM67.774 82.3886L67.9998 82.9445L67.774 82.3886ZM67.5009 81.7165L67.2751 81.1606L67.5009 81.7165ZM66.1634 82.2598L65.9376 81.7039L66.1634 82.2598ZM66.1634 79.7402L65.9376 80.2961L66.1634 79.7402ZM67.5009 80.2836L67.7267 79.7277L67.5009 80.2836ZM67.774 79.6114L67.9998 79.0555L67.774 79.6114ZM67.0623 79.3223L66.8365 79.8782L67.0623 79.3223ZM67.1531 78.0905L67.6753 77.795L67.1531 78.0905ZM67.047 77.903L66.5249 78.1986L67.047 77.903ZM65.9559 77.3822L65.362 77.2972L65.9559 77.3822ZM66.0701 76.5838L66.6641 76.6688L66.0701 76.5838ZM65.3648 76.4829L65.9587 76.5679L65.3648 76.4829ZM65.1491 77.9905L64.5551 77.9055L65.1491 77.9905ZM64.159 75.7775L64.5332 76.2465L64.159 75.7775ZM63.7102 75.215L63.336 74.746L63.7102 75.215ZM63.1174 75.6879L63.4916 76.1569L63.1174 75.6879ZM60.8826 75.6879L61.2568 75.2189L60.8826 75.6879ZM60.2898 75.215L60.664 74.746L60.2898 75.215ZM61.2568 75.2189L60.664 74.746L59.9156 75.684L60.5084 76.1569L61.2568 75.2189ZM62.1044 74.4H61.8956V75.6H62.1044V74.4ZM63.336 74.746L62.7432 75.2189L63.4916 76.1569L64.0844 75.684L63.336 74.746ZM63.3758 77.1699L64.5332 76.2465L63.7848 75.3085L62.6274 76.2318L63.3758 77.1699ZM63.0905 77.8013V77.7625H61.8905V77.8013H63.0905ZM64.7708 76.398L64.5551 77.9055L65.7431 78.0754L65.9587 76.5679L64.7708 76.398ZM66.5499 77.4672L66.6641 76.6688L65.4762 76.4989L65.362 77.2972L66.5499 77.4672ZM67.6753 77.795L67.5692 77.6075L66.5249 78.1986L66.631 78.386L67.6753 77.795ZM67.9998 79.0555L67.2881 78.7664L66.8365 79.8782L67.5481 80.1673L67.9998 79.0555ZM65.9376 80.2961L67.2751 80.8395L67.7267 79.7277L66.3892 79.1843L65.9376 80.2961ZM66.3892 82.8157L67.7267 82.2724L67.2751 81.1606L65.9376 81.7039L66.3892 82.8157ZM67.5481 81.8328L66.8365 82.1219L67.2881 83.2336L67.9998 82.9445L67.5481 81.8328ZM66.631 83.614L66.5249 83.8015L67.5692 84.3925L67.6753 84.2051L66.631 83.614ZM65.362 84.7028L65.4762 85.5012L66.6641 85.3312L66.5499 84.5329L65.362 84.7028ZM65.9587 85.4321L65.743 83.9246L64.5551 84.0946L64.7708 85.6021L65.9587 85.4321ZM63.0905 84.2375V84.1988H61.8905V84.2375H63.0905ZM64.5332 85.7535L63.3758 84.8301L62.6274 85.7681L63.7848 86.6915L64.5332 85.7535ZM62.7432 86.7811L63.336 87.254L64.0844 86.316L63.4916 85.8431L62.7432 86.7811ZM61.8956 87.6H62.1044V86.4H61.8956V87.6ZM60.664 87.254L61.2568 86.7811L60.5084 85.8431L59.9156 86.316L60.664 87.254ZM60.6242 84.8301L59.4668 85.7535L60.2152 86.6915L61.3726 85.7681L60.6242 84.8301ZM60.9095 84.1987V84.2375H62.1095V84.1987H60.9095ZM59.2294 85.6021L59.4451 84.0945L58.2572 83.9245L58.0415 85.4321L59.2294 85.6021ZM57.4504 84.5329L57.3362 85.3312L58.5241 85.5012L58.6383 84.7028L57.4504 84.5329ZM56.325 84.2051L56.4311 84.3925L57.4754 83.8015L57.3693 83.614L56.325 84.2051ZM56.0005 82.9445L56.7121 83.2336L57.1638 82.1219L56.4521 81.8328L56.0005 82.9445ZM58.0627 81.7039L56.7252 81.1606L56.2735 82.2724L57.611 82.8157L58.0627 81.7039ZM57.611 79.1843L56.2735 79.7277L56.7252 80.8395L58.0627 80.2961L57.611 79.1843ZM56.4521 80.1673L57.1638 79.8782L56.7121 78.7664L56.0005 79.0555L56.4521 80.1673ZM57.3693 78.386L57.4754 78.1986L56.4311 77.6075L56.325 77.795L57.3693 78.386ZM58.6383 77.2972L58.5241 76.4989L57.3362 76.6688L57.4504 77.4672L58.6383 77.2972ZM58.0415 76.5679L58.2572 78.0755L59.4451 77.9056L59.2294 76.398L58.0415 76.5679ZM60.9095 77.7625V77.8013H62.1095V77.7625H60.9095ZM59.4668 76.2465L60.6242 77.1699L61.3726 76.2319L60.2152 75.3085L59.4668 76.2465ZM62.1095 77.7625C62.1095 77.1668 61.8383 76.6034 61.3726 76.2319L60.6242 77.1699C60.8045 77.3138 60.9095 77.5319 60.9095 77.7625H62.1095ZM59.1911 79.4694C60.4817 80.2295 62.1095 79.2991 62.1095 77.8013H60.9095C60.9095 78.3707 60.2907 78.7244 59.8001 78.4354L59.1911 79.4694ZM58.2572 78.0755C58.3405 78.6579 58.6842 79.1708 59.1911 79.4694L59.8001 78.4354C59.6074 78.3219 59.4768 78.127 59.4451 77.9056L58.2572 78.0755ZM58.3316 76.7722C58.1941 76.8003 58.0614 76.7068 58.0415 76.5679L59.2294 76.398C59.1515 75.853 58.6307 75.4863 58.0914 75.5965L58.3316 76.7722ZM58.5241 76.4989C58.5423 76.6266 58.458 76.7464 58.3316 76.7722L58.0914 75.5965C57.5955 75.6978 57.2645 76.1679 57.3362 76.6688L58.5241 76.4989ZM57.1716 78.2799C57.8791 78.6967 58.7546 78.1101 58.6383 77.2972L57.4504 77.4672C57.4242 77.2842 57.6213 77.1521 57.7806 77.246L57.1716 78.2799ZM57.4754 78.1986C57.4147 78.3058 57.2778 78.3425 57.1716 78.2799L57.7806 77.246C57.3088 76.9681 56.7008 77.131 56.4311 77.6075L57.4754 78.1986ZM57.2938 78.1044C57.3916 78.1619 57.4252 78.2873 57.3693 78.386L56.325 77.795C56.0584 78.266 56.2185 78.8637 56.6849 79.1383L57.2938 78.1044ZM57.1638 79.8782C57.925 79.5689 58.0018 78.5213 57.2938 78.1044L56.6849 79.1383C56.5364 79.0509 56.5525 78.8313 56.7121 78.7664L57.1638 79.8782ZM56.5881 79.8729C56.6273 79.9915 56.5679 80.1203 56.4521 80.1673L56.0005 79.0555C55.5307 79.2464 55.2895 79.7688 55.4489 80.2501L56.5881 79.8729ZM56.2735 79.7277C56.4006 79.6761 56.5449 79.7427 56.5881 79.8729L55.4489 80.2501C55.6239 80.7786 56.2094 81.049 56.7252 80.8395L56.2735 79.7277ZM59.3432 79.3114C58.8171 79.0015 58.1767 78.9546 57.611 79.1843L58.0627 80.2961C58.282 80.207 58.5302 80.2252 58.7342 80.3454L59.3432 79.3114ZM59.3432 82.6887C60.6301 81.9307 60.6301 80.0693 59.3432 79.3114L58.7342 80.3454C59.2331 80.6392 59.2331 81.3608 58.7342 81.6547L59.3432 82.6887ZM57.611 82.8157C58.1767 83.0455 58.8171 82.9985 59.3432 82.6887L58.7342 81.6547C58.5302 81.7748 58.282 81.793 58.0627 81.7039L57.611 82.8157ZM56.5881 82.1271C56.5449 82.2574 56.4006 82.324 56.2735 82.2724L56.7252 81.1606C56.2094 80.951 55.6239 81.2214 55.4489 81.7499L56.5881 82.1271ZM56.4521 81.8328C56.5679 81.8798 56.6273 82.0085 56.5881 82.1271L55.4489 81.7499C55.2895 82.2313 55.5307 82.7537 56.0005 82.9445L56.4521 81.8328ZM57.2938 83.8957C58.0018 83.4787 57.925 82.4311 57.1638 82.1219L56.7121 83.2336C56.5525 83.1688 56.5364 82.9491 56.6849 82.8617L57.2938 83.8957ZM57.3693 83.614C57.4252 83.7128 57.3916 83.8381 57.2938 83.8957L56.6849 82.8617C56.2185 83.1364 56.0584 83.7341 56.325 84.2051L57.3693 83.614ZM57.1716 83.7201C57.2778 83.6575 57.4147 83.6942 57.4754 83.8015L56.4311 84.3925C56.7008 84.8691 57.3088 85.032 57.7806 84.7541L57.1716 83.7201ZM58.6383 84.7028C58.7546 83.8899 57.8791 83.3034 57.1716 83.7201L57.7806 84.7541C57.6213 84.8479 57.4242 84.7159 57.4504 84.5329L58.6383 84.7028ZM58.3316 85.2279C58.458 85.2537 58.5423 85.3735 58.5241 85.5012L57.3362 85.3312C57.2645 85.8322 57.5955 86.3023 58.0914 86.4036L58.3316 85.2279ZM58.0415 85.4321C58.0614 85.2933 58.1941 85.1998 58.3316 85.2279L58.0914 86.4036C58.6307 86.5138 59.1515 86.147 59.2294 85.6021L58.0415 85.4321ZM59.1911 82.5306C58.6842 82.8292 58.3405 83.3421 58.2572 83.9245L59.4451 84.0945C59.4768 83.8731 59.6074 83.6781 59.8001 83.5646L59.1911 82.5306ZM62.1095 84.1987C62.1095 82.701 60.4817 81.7706 59.1911 82.5306L59.8001 83.5646C60.2907 83.2757 60.9095 83.6294 60.9095 84.1987H62.1095ZM61.3726 85.7681C61.8383 85.3966 62.1095 84.8333 62.1095 84.2375H60.9095C60.9095 84.4681 60.8045 84.6862 60.6242 84.8301L61.3726 85.7681ZM60.2466 86.346C60.3363 86.4491 60.3221 86.6063 60.2152 86.6915L59.4668 85.7535C59.0399 86.0941 58.9828 86.7219 59.3415 87.1339L60.2466 86.346ZM59.9156 86.316C60.0162 86.2358 60.1621 86.249 60.2466 86.346L59.3415 87.1339C59.679 87.5217 60.2621 87.5747 60.664 87.254L59.9156 86.316ZM62.1095 86.6139C62.1095 85.7877 61.1543 85.3278 60.5084 85.8431L61.2568 86.7811C61.1167 86.8929 60.9095 86.7931 60.9095 86.6139H62.1095ZM61.8956 86.4C62.0137 86.4 62.1095 86.4958 62.1095 86.6139H60.9095C60.9095 87.1585 61.351 87.6 61.8956 87.6V86.4ZM61.8905 86.6139C61.8905 86.4958 61.9863 86.4 62.1044 86.4V87.6C62.649 87.6 63.0905 87.1585 63.0905 86.6139H61.8905ZM63.4916 85.8431C62.8457 85.3278 61.8905 85.7877 61.8905 86.6139H63.0905C63.0905 86.7931 62.8833 86.8929 62.7432 86.7811L63.4916 85.8431ZM63.7534 86.346C63.8379 86.249 63.9838 86.2358 64.0844 86.316L63.336 87.254C63.7378 87.5747 64.321 87.5217 64.6585 87.1339L63.7534 86.346ZM63.7848 86.6915C63.6779 86.6063 63.6637 86.4491 63.7534 86.346L64.6585 87.1339C65.0172 86.7219 64.9601 86.0941 64.5332 85.7535L63.7848 86.6915ZM61.8905 84.2375C61.8905 84.8332 62.1617 85.3966 62.6274 85.7681L63.3758 84.8301C63.1955 84.6863 63.0905 84.4681 63.0905 84.2375H61.8905ZM64.8091 82.5306C63.5184 81.7705 61.8905 82.701 61.8905 84.1988H63.0905C63.0905 83.6294 63.7094 83.2756 64.2001 83.5646L64.8091 82.5306ZM65.743 83.9246C65.6597 83.3422 65.316 82.8292 64.8091 82.5306L64.2001 83.5646C64.3928 83.6781 64.5235 83.8731 64.5551 84.0946L65.743 83.9246ZM65.6687 85.2279C65.8061 85.1998 65.9389 85.2933 65.9587 85.4321L64.7708 85.6021C64.8488 86.147 65.3696 86.5138 65.9089 86.4036L65.6687 85.2279ZM65.4762 85.5012C65.4579 85.3735 65.5423 85.2537 65.6687 85.2279L65.9089 86.4036C66.4047 86.3023 66.7358 85.8322 66.6641 85.3312L65.4762 85.5012ZM66.8287 83.7201C66.1211 83.3034 65.2457 83.8899 65.362 84.7028L66.5499 84.5329C66.5761 84.7159 66.379 84.8479 66.2197 84.7541L66.8287 83.7201ZM66.5249 83.8015C66.5856 83.6942 66.7224 83.6575 66.8287 83.7201L66.2197 84.7541C66.6915 85.032 67.2995 84.8691 67.5692 84.3925L66.5249 83.8015ZM66.7064 83.8957C66.6086 83.8381 66.5751 83.7128 66.631 83.614L67.6753 84.2051C67.9419 83.7341 67.7817 83.1364 67.3154 82.8617L66.7064 83.8957ZM66.8365 82.1219C66.0753 82.4311 65.9984 83.4787 66.7064 83.8957L67.3154 82.8617C67.4638 82.9491 67.4477 83.1688 67.2881 83.2336L66.8365 82.1219ZM67.4122 82.1271C67.3729 82.0085 67.4324 81.8798 67.5481 81.8328L67.9998 82.9445C68.4695 82.7537 68.7108 82.2313 68.5514 81.7499L67.4122 82.1271ZM67.7267 82.2724C67.5996 82.324 67.4553 82.2574 67.4122 82.1271L68.5514 81.7499C68.3764 81.2214 67.7909 80.951 67.2751 81.1606L67.7267 82.2724ZM64.6571 82.6887C65.1831 82.9985 65.8236 83.0455 66.3892 82.8157L65.9376 81.7039C65.7183 81.793 65.47 81.7748 65.2661 81.6547L64.6571 82.6887ZM64.6571 79.3114C63.3701 80.0693 63.3701 81.9307 64.6571 82.6887L65.2661 81.6547C64.7671 81.3608 64.7671 80.6392 65.2661 80.3454L64.6571 79.3114ZM66.3892 79.1843C65.8236 78.9546 65.1831 79.0015 64.6571 79.3114L65.2661 80.3454C65.47 80.2252 65.7183 80.207 65.9376 80.2961L66.3892 79.1843ZM67.4122 79.8729C67.4553 79.7427 67.5996 79.6761 67.7267 79.7277L67.2751 80.8395C67.7909 81.049 68.3764 80.7786 68.5514 80.2501L67.4122 79.8729ZM67.5481 80.1673C67.4324 80.1203 67.3729 79.9915 67.4122 79.8729L68.5514 80.2501C68.7108 79.7688 68.4695 79.2464 67.9998 79.0555L67.5481 80.1673ZM66.7064 78.1044C65.9984 78.5213 66.0753 79.5689 66.8365 79.8782L67.2881 78.7664C67.4477 78.8313 67.4638 79.0509 67.3154 79.1383L66.7064 78.1044ZM66.631 78.386C66.5751 78.2873 66.6086 78.1619 66.7064 78.1044L67.3154 79.1383C67.7817 78.8637 67.9419 78.266 67.6753 77.795L66.631 78.386ZM66.8287 78.2799C66.7224 78.3425 66.5856 78.3058 66.5249 78.1986L67.5692 77.6075C67.2995 77.131 66.6915 76.9681 66.2197 77.246L66.8287 78.2799ZM65.362 77.2972C65.2457 78.1101 66.1211 78.6967 66.8287 78.2799L66.2197 77.246C66.379 77.1521 66.5761 77.2842 66.5499 77.4672L65.362 77.2972ZM65.6687 76.7722C65.5423 76.7464 65.4579 76.6266 65.4762 76.4989L66.6641 76.6688C66.7358 76.1679 66.4047 75.6978 65.9089 75.5965L65.6687 76.7722ZM65.9587 76.5679C65.9389 76.7068 65.8061 76.8003 65.6687 76.7722L65.9089 75.5965C65.3696 75.4863 64.8488 75.853 64.7708 76.398L65.9587 76.5679ZM64.8091 79.4694C65.316 79.1708 65.6597 78.6579 65.7431 78.0754L64.5551 77.9055C64.5235 78.1269 64.3928 78.3219 64.2001 78.4355L64.8091 79.4694ZM61.8905 77.8013C61.8905 79.2991 63.5184 80.2296 64.8091 79.4694L64.2001 78.4355C63.7094 78.7244 63.0905 78.3707 63.0905 77.8013H61.8905ZM62.6274 76.2318C62.1617 76.6034 61.8905 77.1668 61.8905 77.7625H63.0905C63.0905 77.5319 63.1955 77.3137 63.3758 77.1699L62.6274 76.2318ZM63.7534 75.654C63.6637 75.5508 63.6779 75.3937 63.7848 75.3085L64.5332 76.2465C64.9601 75.9059 65.0172 75.2781 64.6585 74.8661L63.7534 75.654ZM64.0844 75.684C63.9838 75.7642 63.8379 75.751 63.7534 75.654L64.6585 74.8661C64.321 74.4783 63.7378 74.4253 63.336 74.746L64.0844 75.684ZM61.8905 75.3861C61.8905 76.2123 62.8457 76.6722 63.4916 76.1569L62.7432 75.2189C62.8833 75.1071 63.0905 75.2069 63.0905 75.3861H61.8905ZM62.1044 75.6C61.9863 75.6 61.8905 75.5042 61.8905 75.3861H63.0905C63.0905 74.8415 62.649 74.4 62.1044 74.4V75.6ZM62.1095 75.3861C62.1095 75.5042 62.0137 75.6 61.8956 75.6V74.4C61.351 74.4 60.9095 74.8415 60.9095 75.3861H62.1095ZM60.5084 76.1569C61.1543 76.6722 62.1095 76.2123 62.1095 75.3861H60.9095C60.9095 75.2069 61.1167 75.1071 61.2568 75.2189L60.5084 76.1569ZM59.3415 74.8661C58.9828 75.2781 59.0399 75.9059 59.4668 76.2465L60.2152 75.3085C60.3221 75.3937 60.3363 75.5509 60.2466 75.654L59.3415 74.8661ZM60.2466 75.654C60.1621 75.751 60.0162 75.7642 59.9156 75.684L60.664 74.746C60.2621 74.4253 59.679 74.4783 59.3415 74.8661L60.2466 75.654Z" fill="#36426F" fill-opacity="0.15" mask="url(#path-5-outside-1_407_634)"/>
<defs>
<linearGradient id="paint0_linear_407_634" x1="40.5306" y1="40.3333" x2="64.3961" y2="58.1919" gradientUnits="userSpaceOnUse">
<stop offset="0.183865" stop-color="#ECECEC"/>
<stop offset="1" stop-color="#C4C4C4"/>
</linearGradient>
<linearGradient id="paint1_linear_407_634" x1="40.2232" y1="79.3872" x2="47.0382" y2="84.5431" gradientUnits="userSpaceOnUse">
<stop offset="0.183865" stop-color="white"/>
<stop offset="1" stop-color="#CDCDCD"/>
</linearGradient>
<linearGradient id="paint2_linear_407_634" x1="61.4547" y1="78.1579" x2="67.4732" y2="83.0495" gradientUnits="userSpaceOnUse">
<stop offset="0.183865" stop-color="#F5FCFF"/>
<stop offset="1" stop-color="#E0E9F4"/>
</linearGradient>
</defs>
</svg>
