<svg width="100" height="100" viewBox="0 0 100 100" fill="none" xmlns="http://www.w3.org/2000/svg">
<path fill-rule="evenodd" clip-rule="evenodd" d="M82 46C82 58.1503 72.3513 68 60.449 68H33.0204V67.9964C32.9119 67.9988 32.803 68 32.6939 68C24.5787 68 18 61.2843 18 53C18 44.7157 24.5787 38 32.6939 38C35.2526 38 37.6586 38.6676 39.7537 39.8416C42.3629 30.6887 50.6408 24 60.449 24C72.3513 24 82 33.8497 82 46Z" fill="url(#paint0_linear_407_785)"/>
<path d="M33.0204 68H31.0204V70H33.0204V68ZM33.0204 67.9964H35.0204V65.9514L32.9759 65.9969L33.0204 67.9964ZM39.7537 39.8416L38.7761 41.5863L40.9834 42.8231L41.6771 40.3899L39.7537 39.8416ZM60.449 70C73.4945 70 84 59.2158 84 46H80C80 57.0848 71.208 66 60.449 66V70ZM60.449 66H33.0204V70H60.449V66ZM35.0204 68V67.9964H31.0204V68H35.0204ZM32.6939 70C32.8179 70 32.9415 69.9986 33.0649 69.9959L32.9759 65.9969C32.8822 65.9989 32.7881 66 32.6939 66V70ZM16 53C16 62.3498 23.4354 70 32.6939 70V66C25.7219 66 20 60.2188 20 53H16ZM32.6939 36C23.4354 36 16 43.6502 16 53H20C20 45.7812 25.7219 40 32.6939 40V36ZM40.7313 38.0968C38.3466 36.7606 35.6052 36 32.6939 36V40C34.9 40 36.9705 40.5747 38.7761 41.5863L40.7313 38.0968ZM60.449 22C49.6997 22 40.6712 29.3279 37.8303 39.2933L41.6771 40.3899C44.0547 32.0494 51.5818 26 60.449 26V22ZM84 46C84 32.7842 73.4945 22 60.449 22V26C71.208 26 80 34.9152 80 46H84Z" fill="black" fill-opacity="0.04"/>
<mask id="path-3-outside-1_407_785" maskUnits="userSpaceOnUse" x="31.5" y="73" width="23" height="16" fill="black">
<rect fill="white" x="31.5" y="73" width="23" height="16"/>
<path fill-rule="evenodd" clip-rule="evenodd" d="M42.8333 76.6667C42.8333 75.5621 43.7288 74.6667 44.8333 74.6667C45.9379 74.6667 46.8333 75.5621 46.8333 76.6667C46.8333 77.7712 45.9379 78.6667 44.8333 78.6667H35.8333C35.6492 78.6667 35.5 78.8159 35.5 79C35.5 79.1841 35.6492 79.3333 35.8333 79.3333H44.8333C46.3061 79.3333 47.5 78.1394 47.5 76.6667C47.5 75.1939 46.3061 74 44.8333 74C43.3606 74 42.1667 75.1939 42.1667 76.6667C42.1667 76.8508 42.3159 77 42.5 77C42.6841 77 42.8333 76.8508 42.8333 76.6667ZM48.8333 78C48.8333 76.8954 49.7288 76 50.8333 76C51.9379 76 52.8333 76.8954 52.8333 78C52.8333 79.1046 51.9379 80 50.8333 80H41.8333C41.6492 80 41.5 80.1492 41.5 80.3333C41.5 80.5174 41.6492 80.6667 41.8333 80.6667H50.8333C52.3061 80.6667 53.5 79.4728 53.5 78C53.5 76.5272 52.3061 75.3333 50.8333 75.3333C49.3606 75.3333 48.1667 76.5272 48.1667 78C48.1667 78.1841 48.3159 78.3333 48.5 78.3333C48.6841 78.3333 48.8333 78.1841 48.8333 78ZM41.5 87.3333C40.3954 87.3333 39.5 86.4379 39.5 85.3333C39.5 85.1492 39.3508 85 39.1667 85C38.9826 85 38.8333 85.1492 38.8333 85.3333C38.8333 86.8061 40.0272 88 41.5 88C42.9728 88 44.1667 86.8061 44.1667 85.3333C44.1667 83.8606 42.9728 82.6667 41.5 82.6667H35.8333C35.6492 82.6667 35.5 82.8159 35.5 83C35.5 83.1841 35.6492 83.3333 35.8333 83.3333H41.5C42.6046 83.3333 43.5 84.2288 43.5 85.3333C43.5 86.4379 42.6046 87.3333 41.5 87.3333ZM45.5 84C45.5 85.1046 46.3954 86 47.5 86C48.6046 86 49.5 85.1046 49.5 84C49.5 82.8954 48.6046 82 47.5 82H38.5C38.3159 82 38.1667 81.8508 38.1667 81.6667C38.1667 81.4826 38.3159 81.3333 38.5 81.3333H47.5C48.9728 81.3333 50.1667 82.5272 50.1667 84C50.1667 85.4728 48.9728 86.6667 47.5 86.6667C46.0272 86.6667 44.8333 85.4728 44.8333 84C44.8333 83.8159 44.9826 83.6667 45.1667 83.6667C45.3508 83.6667 45.5 83.8159 45.5 84ZM33.5 80.3333C33.5 80.1492 33.6492 80 33.8333 80H40.1667C40.3508 80 40.5 80.1492 40.5 80.3333C40.5 80.5174 40.3508 80.6667 40.1667 80.6667H33.8333C33.6492 80.6667 33.5 80.5174 33.5 80.3333ZM32.8333 81.3333C32.6492 81.3333 32.5 81.4826 32.5 81.6667C32.5 81.8508 32.6492 82 32.8333 82H36.8333C37.0174 82 37.1667 81.8508 37.1667 81.6667C37.1667 81.4826 37.0174 81.3333 36.8333 81.3333H32.8333Z"/>
</mask>
<path fill-rule="evenodd" clip-rule="evenodd" d="M42.8333 76.6667C42.8333 75.5621 43.7288 74.6667 44.8333 74.6667C45.9379 74.6667 46.8333 75.5621 46.8333 76.6667C46.8333 77.7712 45.9379 78.6667 44.8333 78.6667H35.8333C35.6492 78.6667 35.5 78.8159 35.5 79C35.5 79.1841 35.6492 79.3333 35.8333 79.3333H44.8333C46.3061 79.3333 47.5 78.1394 47.5 76.6667C47.5 75.1939 46.3061 74 44.8333 74C43.3606 74 42.1667 75.1939 42.1667 76.6667C42.1667 76.8508 42.3159 77 42.5 77C42.6841 77 42.8333 76.8508 42.8333 76.6667ZM48.8333 78C48.8333 76.8954 49.7288 76 50.8333 76C51.9379 76 52.8333 76.8954 52.8333 78C52.8333 79.1046 51.9379 80 50.8333 80H41.8333C41.6492 80 41.5 80.1492 41.5 80.3333C41.5 80.5174 41.6492 80.6667 41.8333 80.6667H50.8333C52.3061 80.6667 53.5 79.4728 53.5 78C53.5 76.5272 52.3061 75.3333 50.8333 75.3333C49.3606 75.3333 48.1667 76.5272 48.1667 78C48.1667 78.1841 48.3159 78.3333 48.5 78.3333C48.6841 78.3333 48.8333 78.1841 48.8333 78ZM41.5 87.3333C40.3954 87.3333 39.5 86.4379 39.5 85.3333C39.5 85.1492 39.3508 85 39.1667 85C38.9826 85 38.8333 85.1492 38.8333 85.3333C38.8333 86.8061 40.0272 88 41.5 88C42.9728 88 44.1667 86.8061 44.1667 85.3333C44.1667 83.8606 42.9728 82.6667 41.5 82.6667H35.8333C35.6492 82.6667 35.5 82.8159 35.5 83C35.5 83.1841 35.6492 83.3333 35.8333 83.3333H41.5C42.6046 83.3333 43.5 84.2288 43.5 85.3333C43.5 86.4379 42.6046 87.3333 41.5 87.3333ZM45.5 84C45.5 85.1046 46.3954 86 47.5 86C48.6046 86 49.5 85.1046 49.5 84C49.5 82.8954 48.6046 82 47.5 82H38.5C38.3159 82 38.1667 81.8508 38.1667 81.6667C38.1667 81.4826 38.3159 81.3333 38.5 81.3333H47.5C48.9728 81.3333 50.1667 82.5272 50.1667 84C50.1667 85.4728 48.9728 86.6667 47.5 86.6667C46.0272 86.6667 44.8333 85.4728 44.8333 84C44.8333 83.8159 44.9826 83.6667 45.1667 83.6667C45.3508 83.6667 45.5 83.8159 45.5 84ZM33.5 80.3333C33.5 80.1492 33.6492 80 33.8333 80H40.1667C40.3508 80 40.5 80.1492 40.5 80.3333C40.5 80.5174 40.3508 80.6667 40.1667 80.6667H33.8333C33.6492 80.6667 33.5 80.5174 33.5 80.3333ZM32.8333 81.3333C32.6492 81.3333 32.5 81.4826 32.5 81.6667C32.5 81.8508 32.6492 82 32.8333 82H36.8333C37.0174 82 37.1667 81.8508 37.1667 81.6667C37.1667 81.4826 37.0174 81.3333 36.8333 81.3333H32.8333Z" fill="url(#paint1_linear_407_785)"/>
<path d="M44.8333 74C43.3606 74 42.1667 75.1939 42.1667 76.6667H43.5C43.5 75.9303 44.097 75.3333 44.8333 75.3333V74ZM47.5 76.6667C47.5 75.1939 46.3061 74 44.8333 74V75.3333C45.5697 75.3333 46.1667 75.9303 46.1667 76.6667H47.5ZM44.8333 79.3333C46.3061 79.3333 47.5 78.1394 47.5 76.6667H46.1667C46.1667 77.403 45.5697 78 44.8333 78V79.3333ZM35.8333 79.3333H44.8333V78H35.8333V79.3333ZM36.1667 79C36.1667 79.1841 36.0174 79.3333 35.8333 79.3333V78C35.281 78 34.8333 78.4477 34.8333 79H36.1667ZM35.8333 78.6667C36.0174 78.6667 36.1667 78.8159 36.1667 79H34.8333C34.8333 79.5523 35.281 80 35.8333 80V78.6667ZM44.8333 78.6667H35.8333V80H44.8333V78.6667ZM46.8333 76.6667C46.8333 77.7712 45.9379 78.6667 44.8333 78.6667V80C46.6743 80 48.1667 78.5076 48.1667 76.6667H46.8333ZM44.8333 74.6667C45.9379 74.6667 46.8333 75.5621 46.8333 76.6667H48.1667C48.1667 74.8257 46.6743 73.3333 44.8333 73.3333V74.6667ZM42.8333 76.6667C42.8333 75.5621 43.7288 74.6667 44.8333 74.6667V73.3333C42.9924 73.3333 41.5 74.8257 41.5 76.6667H42.8333ZM42.5 76.3333C42.6841 76.3333 42.8333 76.4826 42.8333 76.6667H41.5C41.5 77.219 41.9477 77.6667 42.5 77.6667V76.3333ZM42.1667 76.6667C42.1667 76.4826 42.3159 76.3333 42.5 76.3333V77.6667C43.0523 77.6667 43.5 77.219 43.5 76.6667H42.1667ZM50.8333 75.3333C49.3606 75.3333 48.1667 76.5272 48.1667 78H49.5C49.5 77.2636 50.097 76.6667 50.8333 76.6667V75.3333ZM53.5 78C53.5 76.5272 52.3061 75.3333 50.8333 75.3333V76.6667C51.5697 76.6667 52.1667 77.2636 52.1667 78H53.5ZM50.8333 80.6667C52.3061 80.6667 53.5 79.4728 53.5 78H52.1667C52.1667 78.7364 51.5697 79.3333 50.8333 79.3333V80.6667ZM41.8333 80.6667H50.8333V79.3333H41.8333V80.6667ZM42.1667 80.3333C42.1667 80.5174 42.0174 80.6667 41.8333 80.6667V79.3333C41.281 79.3333 40.8333 79.781 40.8333 80.3333H42.1667ZM41.8333 80C42.0174 80 42.1667 80.1492 42.1667 80.3333H40.8333C40.8333 80.8856 41.281 81.3333 41.8333 81.3333V80ZM50.8333 80H41.8333V81.3333H50.8333V80ZM52.8333 78C52.8333 79.1046 51.9379 80 50.8333 80V81.3333C52.6743 81.3333 54.1667 79.8409 54.1667 78H52.8333ZM50.8333 76C51.9379 76 52.8333 76.8954 52.8333 78H54.1667C54.1667 76.1591 52.6743 74.6667 50.8333 74.6667V76ZM48.8333 78C48.8333 76.8954 49.7288 76 50.8333 76V74.6667C48.9924 74.6667 47.5 76.1591 47.5 78H48.8333ZM48.5 77.6667C48.6841 77.6667 48.8333 77.8159 48.8333 78H47.5C47.5 78.5523 47.9477 79 48.5 79V77.6667ZM48.1667 78C48.1667 77.8159 48.3159 77.6667 48.5 77.6667V79C49.0523 79 49.5 78.5523 49.5 78H48.1667ZM38.8333 85.3333C38.8333 86.8061 40.0272 88 41.5 88V86.6667C40.7636 86.6667 40.1667 86.0697 40.1667 85.3333H38.8333ZM39.1667 85.6667C38.9826 85.6667 38.8333 85.5174 38.8333 85.3333H40.1667C40.1667 84.781 39.719 84.3333 39.1667 84.3333V85.6667ZM39.5 85.3333C39.5 85.5174 39.3508 85.6667 39.1667 85.6667V84.3333C38.6144 84.3333 38.1667 84.781 38.1667 85.3333H39.5ZM41.5 87.3333C40.3954 87.3333 39.5 86.4379 39.5 85.3333H38.1667C38.1667 87.1743 39.6591 88.6667 41.5 88.6667V87.3333ZM43.5 85.3333C43.5 86.4379 42.6046 87.3333 41.5 87.3333V88.6667C43.3409 88.6667 44.8333 87.1743 44.8333 85.3333H43.5ZM41.5 83.3333C42.6046 83.3333 43.5 84.2288 43.5 85.3333H44.8333C44.8333 83.4924 43.3409 82 41.5 82V83.3333ZM35.8333 83.3333H41.5V82H35.8333V83.3333ZM36.1667 83C36.1667 83.1841 36.0174 83.3333 35.8333 83.3333V82C35.281 82 34.8333 82.4477 34.8333 83H36.1667ZM35.8333 82.6667C36.0174 82.6667 36.1667 82.8159 36.1667 83H34.8333C34.8333 83.5523 35.281 84 35.8333 84V82.6667ZM41.5 82.6667H35.8333V84H41.5V82.6667ZM44.1667 85.3333C44.1667 83.8606 42.9728 82.6667 41.5 82.6667V84C42.2364 84 42.8333 84.597 42.8333 85.3333H44.1667ZM41.5 88C42.9728 88 44.1667 86.8061 44.1667 85.3333H42.8333C42.8333 86.0697 42.2364 86.6667 41.5 86.6667V88ZM47.5 85.3333C46.7636 85.3333 46.1667 84.7364 46.1667 84H44.8333C44.8333 85.4728 46.0272 86.6667 47.5 86.6667V85.3333ZM48.8333 84C48.8333 84.7364 48.2364 85.3333 47.5 85.3333V86.6667C48.9728 86.6667 50.1667 85.4728 50.1667 84H48.8333ZM47.5 82.6667C48.2364 82.6667 48.8333 83.2636 48.8333 84H50.1667C50.1667 82.5272 48.9728 81.3333 47.5 81.3333V82.6667ZM38.5 82.6667H47.5V81.3333H38.5V82.6667ZM37.5 81.6667C37.5 82.219 37.9477 82.6667 38.5 82.6667V81.3333C38.6841 81.3333 38.8333 81.4826 38.8333 81.6667H37.5ZM38.5 80.6667C37.9477 80.6667 37.5 81.1144 37.5 81.6667H38.8333C38.8333 81.8508 38.6841 82 38.5 82V80.6667ZM47.5 80.6667H38.5V82H47.5V80.6667ZM50.8333 84C50.8333 82.1591 49.3409 80.6667 47.5 80.6667V82C48.6046 82 49.5 82.8954 49.5 84H50.8333ZM47.5 87.3333C49.3409 87.3333 50.8333 85.8409 50.8333 84H49.5C49.5 85.1046 48.6046 86 47.5 86V87.3333ZM44.1667 84C44.1667 85.8409 45.6591 87.3333 47.5 87.3333V86C46.3954 86 45.5 85.1046 45.5 84H44.1667ZM45.1667 83C44.6144 83 44.1667 83.4477 44.1667 84H45.5C45.5 84.1841 45.3508 84.3333 45.1667 84.3333V83ZM46.1667 84C46.1667 83.4477 45.719 83 45.1667 83V84.3333C44.9826 84.3333 44.8333 84.1841 44.8333 84H46.1667ZM33.8333 79.3333C33.281 79.3333 32.8333 79.781 32.8333 80.3333H34.1667C34.1667 80.5174 34.0174 80.6667 33.8333 80.6667V79.3333ZM40.1667 79.3333H33.8333V80.6667H40.1667V79.3333ZM41.1667 80.3333C41.1667 79.781 40.719 79.3333 40.1667 79.3333V80.6667C39.9826 80.6667 39.8333 80.5174 39.8333 80.3333H41.1667ZM40.1667 81.3333C40.719 81.3333 41.1667 80.8856 41.1667 80.3333H39.8333C39.8333 80.1492 39.9826 80 40.1667 80V81.3333ZM33.8333 81.3333H40.1667V80H33.8333V81.3333ZM32.8333 80.3333C32.8333 80.8856 33.281 81.3333 33.8333 81.3333V80C34.0174 80 34.1667 80.1492 34.1667 80.3333H32.8333ZM33.1667 81.6667C33.1667 81.8508 33.0174 82 32.8333 82V80.6667C32.281 80.6667 31.8333 81.1144 31.8333 81.6667H33.1667ZM32.8333 81.3333C33.0174 81.3333 33.1667 81.4826 33.1667 81.6667H31.8333C31.8333 82.219 32.281 82.6667 32.8333 82.6667V81.3333ZM36.8333 81.3333H32.8333V82.6667H36.8333V81.3333ZM36.5 81.6667C36.5 81.4826 36.6492 81.3333 36.8333 81.3333V82.6667C37.3856 82.6667 37.8333 82.219 37.8333 81.6667H36.5ZM36.8333 82C36.6492 82 36.5 81.8508 36.5 81.6667H37.8333C37.8333 81.1144 37.3856 80.6667 36.8333 80.6667V82ZM32.8333 82H36.8333V80.6667H32.8333V82Z" fill="black" fill-opacity="0.05" mask="url(#path-3-outside-1_407_785)"/>
<mask id="path-5-outside-2_407_785" maskUnits="userSpaceOnUse" x="55.5" y="74" width="14" height="14" fill="black">
<rect fill="white" x="55.5" y="74" width="14" height="14"/>
<path fill-rule="evenodd" clip-rule="evenodd" d="M60.341 75.7775C60.181 75.6498 60.1596 75.4145 60.294 75.26V75.26C60.4206 75.1146 60.6392 75.0948 60.7898 75.215L61.3826 75.6879C61.6355 75.8897 62.0095 75.7096 62.0095 75.3861V75.3861C62.0095 75.1729 62.1823 75 62.3956 75H62.6044C62.8176 75 62.9905 75.1729 62.9905 75.3861V75.3861C62.9905 75.7096 63.3645 75.8897 63.6174 75.6879L64.2102 75.215C64.3608 75.0948 64.5794 75.1146 64.706 75.26V75.26C64.8404 75.4145 64.819 75.6498 64.659 75.7775L63.5016 76.7009C63.1786 76.9586 62.9905 77.3493 62.9905 77.7625V77.8013C62.9905 78.8349 64.1139 79.477 65.0046 78.9525V78.9525C65.3544 78.7464 65.5916 78.3924 65.6491 77.9905L65.8648 76.4829C65.8938 76.2799 66.0878 76.1433 66.2888 76.1843V76.1843C66.4735 76.2221 66.5968 76.3972 66.5701 76.5838L66.4559 77.3822C66.4109 77.6972 66.75 77.9244 67.0242 77.763V77.763C67.207 77.6553 67.4425 77.7184 67.547 77.903L67.6531 78.0905C67.7585 78.2766 67.6952 78.5128 67.5109 78.6213V78.6213C67.2311 78.7861 67.2615 79.2001 67.5623 79.3223L68.274 79.6114C68.451 79.6833 68.5418 79.8802 68.4818 80.0615V80.0615C68.4159 80.2607 68.1952 80.3625 68.0009 80.2836L66.6634 79.7402C66.2709 79.5808 65.8266 79.6134 65.4616 79.8284V79.8284C64.5686 80.3543 64.5686 81.6458 65.4616 82.1717V82.1717C65.8266 82.3867 66.2709 82.4193 66.6634 82.2598L68.0009 81.7165C68.1952 81.6375 68.4159 81.7394 68.4818 81.9385V81.9385C68.5418 82.1199 68.451 82.3167 68.274 82.3886L67.5623 82.6777C67.2615 82.8 67.2311 83.2139 67.5109 83.3787V83.3787C67.6952 83.4872 67.7585 83.7234 67.6531 83.9096L67.547 84.097C67.4425 84.2817 67.207 84.3448 67.0242 84.2371V84.2371C66.75 84.0756 66.4109 84.3029 66.4559 84.6178L66.5701 85.4162C66.5968 85.6028 66.4735 85.778 66.2888 85.8157V85.8157C66.0878 85.8568 65.8938 85.7201 65.8648 85.5171L65.6491 84.0096C65.5916 83.6076 65.3544 83.2537 65.0046 83.0476V83.0476C64.1139 82.523 62.9905 83.1652 62.9905 84.1988V84.2375C62.9905 84.6507 63.1786 85.0414 63.5016 85.2991L64.659 86.2225C64.819 86.3502 64.8404 86.5855 64.706 86.74V86.74C64.5794 86.8854 64.3608 86.9052 64.2102 86.785L63.6174 86.3121C63.3645 86.1103 62.9905 86.2904 62.9905 86.6139V86.6139C62.9905 86.8271 62.8176 87 62.6044 87H62.3956C62.1823 87 62.0095 86.8271 62.0095 86.6139V86.6139C62.0095 86.2904 61.6355 86.1103 61.3826 86.3121L60.7898 86.785C60.6392 86.9052 60.4206 86.8853 60.294 86.74V86.74C60.1596 86.5855 60.181 86.3502 60.341 86.2225L61.4984 85.2991C61.8214 85.0414 62.0095 84.6507 62.0095 84.2375V84.1987C62.0095 83.1652 60.8862 82.5231 59.9956 83.0476V83.0476C59.6458 83.2537 59.4087 83.6076 59.3512 84.0095L59.1355 85.5171C59.1064 85.7201 58.9124 85.8568 58.7115 85.8157V85.8157C58.5268 85.778 58.4034 85.6028 58.4301 85.4162L58.5443 84.6178C58.5894 84.3029 58.2502 84.0756 57.9761 84.2371V84.2371C57.7933 84.3448 57.5577 84.2817 57.4532 84.097L57.3471 83.9096C57.2418 83.7234 57.3051 83.4872 57.4894 83.3787V83.3787C57.7691 83.2139 57.7388 82.7999 57.438 82.6777L56.7263 82.3886C56.5493 82.3167 56.4584 82.1199 56.5185 81.9385V81.9385C56.5844 81.7394 56.805 81.6375 56.9994 81.7165L58.3368 82.2598C58.7293 82.4193 59.1737 82.3867 59.5387 82.1717V82.1717C60.4316 81.6458 60.4316 80.3543 59.5387 79.8284V79.8284C59.1737 79.6134 58.7293 79.5808 58.3368 79.7402L56.9994 80.2836C56.805 80.3625 56.5844 80.2607 56.5185 80.0615V80.0615C56.4584 79.8802 56.5493 79.6833 56.7263 79.6114L57.438 79.3223C57.7388 79.2001 57.7691 78.7861 57.4894 78.6213V78.6213C57.3051 78.5128 57.2418 78.2766 57.3471 78.0905L57.4532 77.903C57.5577 77.7184 57.7933 77.6553 57.9761 77.763V77.763C58.2502 77.9244 58.5894 77.6971 58.5443 77.3822L58.4301 76.5838C58.4034 76.3972 58.5268 76.2221 58.7115 76.1843V76.1843C58.9124 76.1433 59.1064 76.2799 59.1355 76.4829L59.3512 77.9905C59.4087 78.3924 59.6458 78.7464 59.9956 78.9524V78.9524C60.8862 79.4769 62.0095 78.8349 62.0095 77.8013V77.7625C62.0095 77.3493 61.8214 76.9586 61.4984 76.7009L60.341 75.7775Z"/>
</mask>
<path fill-rule="evenodd" clip-rule="evenodd" d="M60.341 75.7775C60.181 75.6498 60.1596 75.4145 60.294 75.26V75.26C60.4206 75.1146 60.6392 75.0948 60.7898 75.215L61.3826 75.6879C61.6355 75.8897 62.0095 75.7096 62.0095 75.3861V75.3861C62.0095 75.1729 62.1823 75 62.3956 75H62.6044C62.8176 75 62.9905 75.1729 62.9905 75.3861V75.3861C62.9905 75.7096 63.3645 75.8897 63.6174 75.6879L64.2102 75.215C64.3608 75.0948 64.5794 75.1146 64.706 75.26V75.26C64.8404 75.4145 64.819 75.6498 64.659 75.7775L63.5016 76.7009C63.1786 76.9586 62.9905 77.3493 62.9905 77.7625V77.8013C62.9905 78.8349 64.1139 79.477 65.0046 78.9525V78.9525C65.3544 78.7464 65.5916 78.3924 65.6491 77.9905L65.8648 76.4829C65.8938 76.2799 66.0878 76.1433 66.2888 76.1843V76.1843C66.4735 76.2221 66.5968 76.3972 66.5701 76.5838L66.4559 77.3822C66.4109 77.6972 66.75 77.9244 67.0242 77.763V77.763C67.207 77.6553 67.4425 77.7184 67.547 77.903L67.6531 78.0905C67.7585 78.2766 67.6952 78.5128 67.5109 78.6213V78.6213C67.2311 78.7861 67.2615 79.2001 67.5623 79.3223L68.274 79.6114C68.451 79.6833 68.5418 79.8802 68.4818 80.0615V80.0615C68.4159 80.2607 68.1952 80.3625 68.0009 80.2836L66.6634 79.7402C66.2709 79.5808 65.8266 79.6134 65.4616 79.8284V79.8284C64.5686 80.3543 64.5686 81.6458 65.4616 82.1717V82.1717C65.8266 82.3867 66.2709 82.4193 66.6634 82.2598L68.0009 81.7165C68.1952 81.6375 68.4159 81.7394 68.4818 81.9385V81.9385C68.5418 82.1199 68.451 82.3167 68.274 82.3886L67.5623 82.6777C67.2615 82.8 67.2311 83.2139 67.5109 83.3787V83.3787C67.6952 83.4872 67.7585 83.7234 67.6531 83.9096L67.547 84.097C67.4425 84.2817 67.207 84.3448 67.0242 84.2371V84.2371C66.75 84.0756 66.4109 84.3029 66.4559 84.6178L66.5701 85.4162C66.5968 85.6028 66.4735 85.778 66.2888 85.8157V85.8157C66.0878 85.8568 65.8938 85.7201 65.8648 85.5171L65.6491 84.0096C65.5916 83.6076 65.3544 83.2537 65.0046 83.0476V83.0476C64.1139 82.523 62.9905 83.1652 62.9905 84.1988V84.2375C62.9905 84.6507 63.1786 85.0414 63.5016 85.2991L64.659 86.2225C64.819 86.3502 64.8404 86.5855 64.706 86.74V86.74C64.5794 86.8854 64.3608 86.9052 64.2102 86.785L63.6174 86.3121C63.3645 86.1103 62.9905 86.2904 62.9905 86.6139V86.6139C62.9905 86.8271 62.8176 87 62.6044 87H62.3956C62.1823 87 62.0095 86.8271 62.0095 86.6139V86.6139C62.0095 86.2904 61.6355 86.1103 61.3826 86.3121L60.7898 86.785C60.6392 86.9052 60.4206 86.8853 60.294 86.74V86.74C60.1596 86.5855 60.181 86.3502 60.341 86.2225L61.4984 85.2991C61.8214 85.0414 62.0095 84.6507 62.0095 84.2375V84.1987C62.0095 83.1652 60.8862 82.5231 59.9956 83.0476V83.0476C59.6458 83.2537 59.4087 83.6076 59.3512 84.0095L59.1355 85.5171C59.1064 85.7201 58.9124 85.8568 58.7115 85.8157V85.8157C58.5268 85.778 58.4034 85.6028 58.4301 85.4162L58.5443 84.6178C58.5894 84.3029 58.2502 84.0756 57.9761 84.2371V84.2371C57.7933 84.3448 57.5577 84.2817 57.4532 84.097L57.3471 83.9096C57.2418 83.7234 57.3051 83.4872 57.4894 83.3787V83.3787C57.7691 83.2139 57.7388 82.7999 57.438 82.6777L56.7263 82.3886C56.5493 82.3167 56.4584 82.1199 56.5185 81.9385V81.9385C56.5844 81.7394 56.805 81.6375 56.9994 81.7165L58.3368 82.2598C58.7293 82.4193 59.1737 82.3867 59.5387 82.1717V82.1717C60.4316 81.6458 60.4316 80.3543 59.5387 79.8284V79.8284C59.1737 79.6134 58.7293 79.5808 58.3368 79.7402L56.9994 80.2836C56.805 80.3625 56.5844 80.2607 56.5185 80.0615V80.0615C56.4584 79.8802 56.5493 79.6833 56.7263 79.6114L57.438 79.3223C57.7388 79.2001 57.7691 78.7861 57.4894 78.6213V78.6213C57.3051 78.5128 57.2418 78.2766 57.3471 78.0905L57.4532 77.903C57.5577 77.7184 57.7933 77.6553 57.9761 77.763V77.763C58.2502 77.9244 58.5894 77.6971 58.5443 77.3822L58.4301 76.5838C58.4034 76.3972 58.5268 76.2221 58.7115 76.1843V76.1843C58.9124 76.1433 59.1064 76.2799 59.1355 76.4829L59.3512 77.9905C59.4087 78.3924 59.6458 78.7464 59.9956 78.9524V78.9524C60.8862 79.4769 62.0095 78.8349 62.0095 77.8013V77.7625C62.0095 77.3493 61.8214 76.9586 61.4984 76.7009L60.341 75.7775Z" fill="url(#paint2_linear_407_785)"/>
<path d="M61.4984 76.7009L61.1242 77.1699L61.4984 76.7009ZM59.3512 77.9905L58.7572 78.0755L59.3512 77.9905ZM58.5443 77.3822L59.1383 77.2972L58.5443 77.3822ZM57.4532 77.903L56.9311 77.6075L57.4532 77.903ZM57.3471 78.0905L56.825 77.795L57.3471 78.0905ZM57.438 79.3223L57.2121 78.7664L57.438 79.3223ZM56.7263 79.6114L56.9521 80.1673L56.9521 80.1673L56.7263 79.6114ZM56.9994 80.2836L57.2252 80.8395L56.9994 80.2836ZM58.3368 79.7402L58.111 79.1843L58.3368 79.7402ZM58.3368 82.2598L58.5627 81.7039L58.3368 82.2598ZM56.9994 81.7165L56.7735 82.2724L56.9994 81.7165ZM56.7263 82.3886L56.5005 82.9445L56.7263 82.3886ZM57.438 82.6777L57.2121 83.2336L57.438 82.6777ZM57.3471 83.9096L57.8693 83.614L57.3471 83.9096ZM57.4532 84.097L56.9311 84.3925L57.4532 84.097ZM58.5443 84.6178L59.1383 84.7028L58.5443 84.6178ZM58.4301 85.4162L57.8362 85.3312L58.4301 85.4162ZM59.1355 85.5171L58.5415 85.4321L59.1355 85.5171ZM61.4984 85.2991L61.8726 85.7681L61.4984 85.2991ZM60.341 86.2225L60.7152 86.6915L60.341 86.2225ZM60.7898 86.785L61.164 87.254L60.7898 86.785ZM61.3826 86.3121L61.7568 86.7811L61.3826 86.3121ZM63.6174 86.3121L63.2432 86.7811L63.6174 86.3121ZM64.2102 86.785L63.836 87.254L64.2102 86.785ZM64.659 86.2225L64.2848 86.6915L64.659 86.2225ZM65.6491 84.0096L66.243 83.9246L65.6491 84.0096ZM65.8648 85.5171L66.4587 85.4321L65.8648 85.5171ZM66.5701 85.4162L65.9762 85.5012L66.5701 85.4162ZM67.547 84.097L67.0249 83.8015L67.547 84.097ZM67.6531 83.9096L68.1753 84.2051L67.6531 83.9096ZM67.5623 82.6777L67.3365 82.1219L67.5623 82.6777ZM68.274 82.3886L68.4998 82.9445L68.274 82.3886ZM68.0009 81.7165L67.7751 81.1606L68.0009 81.7165ZM66.6634 82.2598L66.4376 81.7039L66.6634 82.2598ZM66.6634 79.7402L66.4376 80.2961L66.6634 79.7402ZM68.0009 80.2836L68.2267 79.7277L68.0009 80.2836ZM68.274 79.6114L68.4998 79.0555L68.274 79.6114ZM67.5623 79.3223L67.3365 79.8782L67.5623 79.3223ZM67.6531 78.0905L68.1753 77.795L67.6531 78.0905ZM67.547 77.903L67.0249 78.1986L67.547 77.903ZM66.4559 77.3822L65.862 77.2972L66.4559 77.3822ZM66.5701 76.5838L67.1641 76.6688L66.5701 76.5838ZM65.8648 76.4829L66.4587 76.5679L65.8648 76.4829ZM65.6491 77.9905L65.0551 77.9055L65.6491 77.9905ZM64.659 75.7775L65.0332 76.2465L64.659 75.7775ZM64.2102 75.215L63.836 74.746L64.2102 75.215ZM63.6174 75.6879L63.9916 76.1569L63.6174 75.6879ZM61.3826 75.6879L61.7568 75.2189L61.3826 75.6879ZM60.7898 75.215L61.164 74.746L60.7898 75.215ZM61.7568 75.2189L61.164 74.746L60.4156 75.684L61.0084 76.1569L61.7568 75.2189ZM62.6044 74.4H62.3956V75.6H62.6044V74.4ZM63.836 74.746L63.2432 75.2189L63.9916 76.1569L64.5844 75.684L63.836 74.746ZM63.8758 77.1699L65.0332 76.2465L64.2848 75.3085L63.1274 76.2318L63.8758 77.1699ZM63.5905 77.8013V77.7625H62.3905V77.8013H63.5905ZM65.2708 76.398L65.0551 77.9055L66.2431 78.0754L66.4587 76.5679L65.2708 76.398ZM67.0499 77.4672L67.1641 76.6688L65.9762 76.4989L65.862 77.2972L67.0499 77.4672ZM68.1753 77.795L68.0692 77.6075L67.0249 78.1986L67.131 78.386L68.1753 77.795ZM68.4998 79.0555L67.7881 78.7664L67.3365 79.8782L68.0481 80.1673L68.4998 79.0555ZM66.4376 80.2961L67.7751 80.8395L68.2267 79.7277L66.8892 79.1843L66.4376 80.2961ZM66.8892 82.8157L68.2267 82.2724L67.7751 81.1606L66.4376 81.7039L66.8892 82.8157ZM68.0481 81.8328L67.3365 82.1219L67.7881 83.2336L68.4998 82.9445L68.0481 81.8328ZM67.131 83.614L67.0249 83.8015L68.0692 84.3925L68.1753 84.2051L67.131 83.614ZM65.862 84.7028L65.9762 85.5012L67.1641 85.3312L67.0499 84.5329L65.862 84.7028ZM66.4587 85.4321L66.243 83.9246L65.0551 84.0946L65.2708 85.6021L66.4587 85.4321ZM63.5905 84.2375V84.1988H62.3905V84.2375H63.5905ZM65.0332 85.7535L63.8758 84.8301L63.1274 85.7681L64.2848 86.6915L65.0332 85.7535ZM63.2432 86.7811L63.836 87.254L64.5844 86.316L63.9916 85.8431L63.2432 86.7811ZM62.3956 87.6H62.6044V86.4H62.3956V87.6ZM61.164 87.254L61.7568 86.7811L61.0084 85.8431L60.4156 86.316L61.164 87.254ZM61.1242 84.8301L59.9668 85.7535L60.7152 86.6915L61.8726 85.7681L61.1242 84.8301ZM61.4095 84.1987V84.2375H62.6095V84.1987H61.4095ZM59.7294 85.6021L59.9451 84.0945L58.7572 83.9245L58.5415 85.4321L59.7294 85.6021ZM57.9504 84.5329L57.8362 85.3312L59.0241 85.5012L59.1383 84.7028L57.9504 84.5329ZM56.825 84.2051L56.9311 84.3925L57.9754 83.8015L57.8693 83.614L56.825 84.2051ZM56.5005 82.9445L57.2121 83.2336L57.6638 82.1219L56.9521 81.8328L56.5005 82.9445ZM58.5627 81.7039L57.2252 81.1606L56.7735 82.2724L58.111 82.8157L58.5627 81.7039ZM58.111 79.1843L56.7735 79.7277L57.2252 80.8395L58.5627 80.2961L58.111 79.1843ZM56.9521 80.1673L57.6638 79.8782L57.2121 78.7664L56.5005 79.0555L56.9521 80.1673ZM57.8693 78.386L57.9754 78.1986L56.9311 77.6075L56.825 77.795L57.8693 78.386ZM59.1383 77.2972L59.0241 76.4989L57.8362 76.6688L57.9504 77.4672L59.1383 77.2972ZM58.5415 76.5679L58.7572 78.0755L59.9451 77.9056L59.7294 76.398L58.5415 76.5679ZM61.4095 77.7625V77.8013H62.6095V77.7625H61.4095ZM59.9668 76.2465L61.1242 77.1699L61.8726 76.2319L60.7152 75.3085L59.9668 76.2465ZM62.6095 77.7625C62.6095 77.1668 62.3383 76.6034 61.8726 76.2319L61.1242 77.1699C61.3045 77.3138 61.4095 77.5319 61.4095 77.7625H62.6095ZM59.6911 79.4694C60.9817 80.2295 62.6095 79.2991 62.6095 77.8013H61.4095C61.4095 78.3707 60.7907 78.7244 60.3001 78.4354L59.6911 79.4694ZM58.7572 78.0755C58.8405 78.6579 59.1842 79.1708 59.6911 79.4694L60.3001 78.4354C60.1074 78.3219 59.9768 78.127 59.9451 77.9056L58.7572 78.0755ZM58.8316 76.7722C58.6941 76.8003 58.5614 76.7068 58.5415 76.5679L59.7294 76.398C59.6515 75.853 59.1307 75.4863 58.5914 75.5965L58.8316 76.7722ZM59.0241 76.4989C59.0423 76.6266 58.958 76.7464 58.8316 76.7722L58.5914 75.5965C58.0955 75.6978 57.7645 76.1679 57.8362 76.6688L59.0241 76.4989ZM57.6716 78.2799C58.3791 78.6967 59.2546 78.1101 59.1383 77.2972L57.9504 77.4672C57.9242 77.2842 58.1213 77.1521 58.2806 77.246L57.6716 78.2799ZM57.9754 78.1986C57.9147 78.3058 57.7778 78.3425 57.6716 78.2799L58.2806 77.246C57.8088 76.9681 57.2008 77.131 56.9311 77.6075L57.9754 78.1986ZM57.7938 78.1044C57.8916 78.1619 57.9252 78.2873 57.8693 78.386L56.825 77.795C56.5584 78.266 56.7185 78.8637 57.1849 79.1383L57.7938 78.1044ZM57.6638 79.8782C58.425 79.5689 58.5018 78.5213 57.7938 78.1044L57.1849 79.1383C57.0364 79.0509 57.0525 78.8313 57.2121 78.7664L57.6638 79.8782ZM57.0881 79.8729C57.1273 79.9915 57.0679 80.1203 56.9521 80.1673L56.5005 79.0555C56.0307 79.2464 55.7895 79.7688 55.9489 80.2501L57.0881 79.8729ZM56.7735 79.7277C56.9006 79.6761 57.0449 79.7427 57.0881 79.8729L55.9489 80.2501C56.1239 80.7786 56.7094 81.049 57.2252 80.8395L56.7735 79.7277ZM59.8432 79.3114C59.3171 79.0015 58.6767 78.9546 58.111 79.1843L58.5627 80.2961C58.782 80.207 59.0302 80.2252 59.2342 80.3454L59.8432 79.3114ZM59.8432 82.6887C61.1301 81.9307 61.1301 80.0693 59.8432 79.3114L59.2342 80.3454C59.7331 80.6392 59.7331 81.3608 59.2342 81.6547L59.8432 82.6887ZM58.111 82.8157C58.6767 83.0455 59.3171 82.9985 59.8432 82.6887L59.2342 81.6547C59.0302 81.7748 58.782 81.793 58.5627 81.7039L58.111 82.8157ZM57.0881 82.1271C57.0449 82.2574 56.9006 82.324 56.7735 82.2724L57.2252 81.1606C56.7094 80.951 56.1239 81.2214 55.9489 81.7499L57.0881 82.1271ZM56.9521 81.8328C57.0679 81.8798 57.1273 82.0085 57.0881 82.1271L55.9489 81.7499C55.7895 82.2313 56.0307 82.7537 56.5005 82.9445L56.9521 81.8328ZM57.7938 83.8957C58.5018 83.4787 58.425 82.4311 57.6638 82.1219L57.2121 83.2336C57.0525 83.1688 57.0364 82.9491 57.1849 82.8617L57.7938 83.8957ZM57.8693 83.614C57.9252 83.7128 57.8916 83.8381 57.7938 83.8957L57.1849 82.8617C56.7185 83.1364 56.5584 83.7341 56.825 84.2051L57.8693 83.614ZM57.6716 83.7201C57.7778 83.6575 57.9147 83.6942 57.9754 83.8015L56.9311 84.3925C57.2008 84.8691 57.8088 85.032 58.2806 84.7541L57.6716 83.7201ZM59.1383 84.7028C59.2546 83.8899 58.3791 83.3034 57.6716 83.7201L58.2806 84.7541C58.1213 84.8479 57.9242 84.7159 57.9504 84.5329L59.1383 84.7028ZM58.8316 85.2279C58.958 85.2537 59.0423 85.3735 59.0241 85.5012L57.8362 85.3312C57.7645 85.8322 58.0955 86.3023 58.5914 86.4036L58.8316 85.2279ZM58.5415 85.4321C58.5614 85.2933 58.6941 85.1998 58.8316 85.2279L58.5914 86.4036C59.1307 86.5138 59.6515 86.147 59.7294 85.6021L58.5415 85.4321ZM59.6911 82.5306C59.1842 82.8292 58.8405 83.3421 58.7572 83.9245L59.9451 84.0945C59.9768 83.8731 60.1074 83.6781 60.3001 83.5646L59.6911 82.5306ZM62.6095 84.1987C62.6095 82.701 60.9817 81.7706 59.6911 82.5306L60.3001 83.5646C60.7907 83.2757 61.4095 83.6294 61.4095 84.1987H62.6095ZM61.8726 85.7681C62.3383 85.3966 62.6095 84.8332 62.6095 84.2375H61.4095C61.4095 84.4681 61.3045 84.6862 61.1242 84.8301L61.8726 85.7681ZM60.7466 86.346C60.8363 86.4491 60.8221 86.6063 60.7152 86.6915L59.9668 85.7535C59.5399 86.0941 59.4828 86.7219 59.8415 87.1339L60.7466 86.346ZM60.4156 86.316C60.5162 86.2358 60.6621 86.249 60.7466 86.346L59.8415 87.1339C60.179 87.5217 60.7621 87.5747 61.164 87.254L60.4156 86.316ZM62.6095 86.6139C62.6095 85.7877 61.6543 85.3278 61.0084 85.8431L61.7568 86.7811C61.6167 86.8929 61.4095 86.7931 61.4095 86.6139H62.6095ZM62.3956 86.4C62.5137 86.4 62.6095 86.4958 62.6095 86.6139H61.4095C61.4095 87.1585 61.851 87.6 62.3956 87.6V86.4ZM62.3905 86.6139C62.3905 86.4958 62.4863 86.4 62.6044 86.4V87.6C63.149 87.6 63.5905 87.1585 63.5905 86.6139H62.3905ZM63.9916 85.8431C63.3457 85.3278 62.3905 85.7877 62.3905 86.6139H63.5905C63.5905 86.7931 63.3833 86.8929 63.2432 86.7811L63.9916 85.8431ZM64.2534 86.346C64.3379 86.249 64.4838 86.2358 64.5844 86.316L63.836 87.254C64.2378 87.5747 64.821 87.5217 65.1585 87.1339L64.2534 86.346ZM64.2848 86.6915C64.1779 86.6063 64.1637 86.4491 64.2534 86.346L65.1585 87.1339C65.5172 86.7219 65.4601 86.0941 65.0332 85.7535L64.2848 86.6915ZM62.3905 84.2375C62.3905 84.8332 62.6617 85.3966 63.1274 85.7681L63.8758 84.8301C63.6955 84.6863 63.5905 84.4681 63.5905 84.2375H62.3905ZM65.3091 82.5306C64.0184 81.7705 62.3905 82.701 62.3905 84.1988H63.5905C63.5905 83.6294 64.2094 83.2756 64.7001 83.5646L65.3091 82.5306ZM66.243 83.9246C66.1597 83.3422 65.816 82.8292 65.3091 82.5306L64.7001 83.5646C64.8928 83.6781 65.0235 83.8731 65.0551 84.0946L66.243 83.9246ZM66.1687 85.2279C66.3061 85.1998 66.4389 85.2933 66.4587 85.4321L65.2708 85.6021C65.3488 86.147 65.8696 86.5138 66.4089 86.4036L66.1687 85.2279ZM65.9762 85.5012C65.9579 85.3735 66.0423 85.2537 66.1687 85.2279L66.4089 86.4036C66.9047 86.3023 67.2358 85.8322 67.1641 85.3312L65.9762 85.5012ZM67.3287 83.7201C66.6211 83.3034 65.7457 83.8899 65.862 84.7028L67.0499 84.5329C67.0761 84.7159 66.879 84.8479 66.7197 84.7541L67.3287 83.7201ZM67.0249 83.8015C67.0856 83.6942 67.2224 83.6575 67.3287 83.7201L66.7197 84.7541C67.1915 85.032 67.7995 84.8691 68.0692 84.3925L67.0249 83.8015ZM67.2064 83.8957C67.1086 83.8381 67.0751 83.7128 67.131 83.614L68.1753 84.2051C68.4419 83.7341 68.2817 83.1364 67.8154 82.8617L67.2064 83.8957ZM67.3365 82.1219C66.5753 82.4311 66.4984 83.4787 67.2064 83.8957L67.8154 82.8617C67.9638 82.9491 67.9477 83.1688 67.7881 83.2336L67.3365 82.1219ZM67.9122 82.1271C67.8729 82.0085 67.9324 81.8798 68.0481 81.8328L68.4998 82.9445C68.9695 82.7537 69.2108 82.2313 69.0514 81.7499L67.9122 82.1271ZM68.2267 82.2724C68.0996 82.324 67.9553 82.2574 67.9122 82.1271L69.0514 81.7499C68.8764 81.2214 68.2909 80.951 67.7751 81.1606L68.2267 82.2724ZM65.1571 82.6887C65.6831 82.9985 66.3236 83.0455 66.8892 82.8157L66.4376 81.7039C66.2183 81.793 65.97 81.7748 65.7661 81.6547L65.1571 82.6887ZM65.1571 79.3114C63.8701 80.0693 63.8701 81.9307 65.1571 82.6887L65.7661 81.6547C65.2671 81.3608 65.2671 80.6392 65.7661 80.3454L65.1571 79.3114ZM66.8892 79.1843C66.3236 78.9546 65.6831 79.0015 65.1571 79.3114L65.7661 80.3454C65.97 80.2252 66.2183 80.207 66.4376 80.2961L66.8892 79.1843ZM67.9122 79.8729C67.9553 79.7427 68.0996 79.6761 68.2267 79.7277L67.7751 80.8395C68.2909 81.049 68.8764 80.7786 69.0514 80.2501L67.9122 79.8729ZM68.0481 80.1673C67.9324 80.1203 67.8729 79.9915 67.9122 79.8729L69.0514 80.2501C69.2108 79.7688 68.9695 79.2464 68.4998 79.0555L68.0481 80.1673ZM67.2064 78.1044C66.4984 78.5213 66.5753 79.5689 67.3365 79.8782L67.7881 78.7664C67.9477 78.8313 67.9638 79.0509 67.8154 79.1383L67.2064 78.1044ZM67.131 78.386C67.0751 78.2873 67.1086 78.1619 67.2064 78.1044L67.8154 79.1383C68.2817 78.8637 68.4419 78.266 68.1753 77.795L67.131 78.386ZM67.3287 78.2799C67.2224 78.3425 67.0856 78.3058 67.0249 78.1986L68.0692 77.6075C67.7995 77.131 67.1915 76.9681 66.7197 77.246L67.3287 78.2799ZM65.862 77.2972C65.7457 78.1101 66.6211 78.6967 67.3287 78.2799L66.7197 77.246C66.879 77.1521 67.0761 77.2842 67.0499 77.4672L65.862 77.2972ZM66.1687 76.7722C66.0423 76.7464 65.9579 76.6266 65.9762 76.4989L67.1641 76.6688C67.2358 76.1679 66.9047 75.6978 66.4089 75.5965L66.1687 76.7722ZM66.4587 76.5679C66.4389 76.7068 66.3061 76.8003 66.1687 76.7722L66.4089 75.5965C65.8696 75.4863 65.3488 75.853 65.2708 76.398L66.4587 76.5679ZM65.3091 79.4694C65.816 79.1708 66.1597 78.6579 66.2431 78.0754L65.0551 77.9055C65.0235 78.1269 64.8928 78.3219 64.7001 78.4355L65.3091 79.4694ZM62.3905 77.8013C62.3905 79.2991 64.0184 80.2296 65.3091 79.4694L64.7001 78.4355C64.2094 78.7244 63.5905 78.3707 63.5905 77.8013H62.3905ZM63.1274 76.2318C62.6617 76.6034 62.3905 77.1668 62.3905 77.7625H63.5905C63.5905 77.5319 63.6955 77.3137 63.8758 77.1699L63.1274 76.2318ZM64.2534 75.654C64.1637 75.5508 64.1779 75.3937 64.2848 75.3085L65.0332 76.2465C65.4601 75.9059 65.5172 75.2781 65.1585 74.8661L64.2534 75.654ZM64.5844 75.684C64.4838 75.7642 64.3379 75.751 64.2534 75.654L65.1585 74.8661C64.821 74.4783 64.2378 74.4253 63.836 74.746L64.5844 75.684ZM62.3905 75.3861C62.3905 76.2123 63.3457 76.6722 63.9916 76.1569L63.2432 75.2189C63.3833 75.1071 63.5905 75.2069 63.5905 75.3861H62.3905ZM62.6044 75.6C62.4863 75.6 62.3905 75.5042 62.3905 75.3861H63.5905C63.5905 74.8415 63.149 74.4 62.6044 74.4V75.6ZM62.6095 75.3861C62.6095 75.5042 62.5137 75.6 62.3956 75.6V74.4C61.851 74.4 61.4095 74.8415 61.4095 75.3861H62.6095ZM61.0084 76.1569C61.6543 76.6722 62.6095 76.2123 62.6095 75.3861H61.4095C61.4095 75.2069 61.6167 75.1071 61.7568 75.2189L61.0084 76.1569ZM59.8415 74.8661C59.4828 75.2781 59.5399 75.9059 59.9668 76.2465L60.7152 75.3085C60.8221 75.3937 60.8363 75.5509 60.7466 75.654L59.8415 74.8661ZM60.7466 75.654C60.6621 75.751 60.5162 75.7642 60.4156 75.684L61.164 74.746C60.7621 74.4253 60.179 74.4783 59.8415 74.8661L60.7466 75.654Z" fill="black" fill-opacity="0.05" mask="url(#path-5-outside-2_407_785)"/>
<defs>
<linearGradient id="paint0_linear_407_785" x1="40.5306" y1="40.3333" x2="64.3961" y2="58.1919" gradientUnits="userSpaceOnUse">
<stop offset="0.183865" stop-color="#ECECEC"/>
<stop offset="1" stop-color="#C4C4C4"/>
</linearGradient>
<linearGradient id="paint1_linear_407_785" x1="39.8929" y1="79.197" x2="47.5493" y2="85.1053" gradientUnits="userSpaceOnUse">
<stop offset="0.183865" stop-color="white"/>
<stop offset="1" stop-color="#CDCDCD"/>
</linearGradient>
<linearGradient id="paint2_linear_407_785" x1="61.9547" y1="78.1579" x2="67.9732" y2="83.0495" gradientUnits="userSpaceOnUse">
<stop offset="0.183865" stop-color="#F5FCFF"/>
<stop offset="1" stop-color="#E0E9F4"/>
</linearGradient>
</defs>
</svg>
