<svg width="100" height="100" viewBox="0 0 100 100" fill="none" xmlns="http://www.w3.org/2000/svg">
<path fill-rule="evenodd" clip-rule="evenodd" d="M82 44C82 56.1503 72.3513 66 60.449 66H33.0204V65.9964C32.9119 65.9988 32.803 66 32.6939 66C24.5787 66 18 59.2843 18 51C18 42.7157 24.5787 36 32.6939 36C35.2526 36 37.6586 36.6676 39.7537 37.8416C42.3629 28.6887 50.6408 22 60.449 22C72.3513 22 82 31.8497 82 44Z" fill="url(#paint0_linear_407_809)"/>
<path d="M33.0204 66H31.0204V68H33.0204V66ZM33.0204 65.9964H35.0204V63.9514L32.9759 63.9969L33.0204 65.9964ZM39.7537 37.8416L38.7761 39.5863L40.9834 40.8231L41.6771 38.3899L39.7537 37.8416ZM60.449 68C73.4945 68 84 57.2158 84 44H80C80 55.0848 71.208 64 60.449 64V68ZM60.449 64H33.0204V68H60.449V64ZM35.0204 66V65.9964H31.0204V66H35.0204ZM32.6939 68C32.8179 68 32.9415 67.9986 33.0649 67.9959L32.9759 63.9969C32.8822 63.9989 32.7881 64 32.6939 64V68ZM16 51C16 60.3498 23.4354 68 32.6939 68V64C25.7219 64 20 58.2188 20 51H16ZM32.6939 34C23.4354 34 16 41.6502 16 51H20C20 43.7812 25.7219 38 32.6939 38V34ZM40.7313 36.0968C38.3466 34.7606 35.6052 34 32.6939 34V38C34.9 38 36.9705 38.5747 38.7761 39.5863L40.7313 36.0968ZM60.449 20C49.6997 20 40.6712 27.3279 37.8303 37.2933L41.6771 38.3899C44.0547 30.0494 51.5818 24 60.449 24V20ZM84 44C84 30.7842 73.4945 20 60.449 20V24C71.208 24 80 32.9152 80 44H84Z" fill="black" fill-opacity="0.07"/>
<path fill-rule="evenodd" clip-rule="evenodd" d="M46.8571 76.8947C46.8571 75.8483 46.0088 75 44.9624 75H30.2105C28.9897 75 28 75.9897 28 77.2105V77.2105C28 78.4314 28.9897 79.4211 30.2105 79.4211H39.3055C40.3519 79.4211 41.2002 80.2694 41.2002 81.3158V81.3158C41.2002 82.3622 42.0485 83.2105 43.0949 83.2105L49.9912 83.2105C51.0376 83.2105 51.8859 84.0588 51.8859 85.1053V85.1053C51.8859 86.1517 52.7342 87 53.7807 87L69.7897 87C71.0105 87 72.0002 86.0103 72.0002 84.7895V84.7895C72.0002 83.5686 71.0105 82.5789 69.7897 82.5789L60.0664 82.5789C59.0199 82.5789 58.1716 81.7261 58.1716 80.6797V80.6797C58.1716 79.6382 57.3274 78.7895 56.2859 78.7895V78.7895C55.2445 78.7895 54.4002 77.9407 54.4002 76.8993V76.8993C54.4002 75.8528 53.5519 75 52.5055 75H51.8949C50.8485 75 50.0002 75.8483 50.0002 76.8947V77.2179C50.0002 78.0859 49.2966 78.7895 48.4287 78.7895V78.7895C47.5607 78.7895 46.8571 78.0859 46.8571 77.2179V76.8947ZM58.8002 77.2105C58.8002 75.9897 59.7899 75 61.0107 75H69.7897C71.0105 75 72.0002 75.9897 72.0002 77.2105V77.2105C72.0002 78.4314 71.0105 79.4211 69.7897 79.4211H61.0107C59.7899 79.4211 58.8002 78.4314 58.8002 77.2105V77.2105ZM40.5716 84.7895C40.5716 86.0103 39.5819 87 38.3611 87L30.2107 87C28.9899 87 28.0002 86.0103 28.0002 84.7895V84.7895C28.0002 83.5686 28.9899 82.5789 30.2107 82.5789L38.3611 82.5789C39.5819 82.5789 40.5716 83.5686 40.5716 84.7895V84.7895Z" fill="url(#paint1_linear_407_809)"/>
<path d="M38.3611 82.5789L38.3611 83.8421L38.3611 82.5789ZM30.2107 87L30.2107 88.2632L30.2107 87ZM69.7897 87L69.7897 88.2632L69.7897 87ZM49.9912 83.2105L49.9912 84.4737L49.9912 84.4737L49.9912 83.2105ZM30.2105 76.2632H44.9624V73.7368H30.2105V76.2632ZM39.3055 78.1579H30.2105V80.6842H39.3055V78.1579ZM49.9912 81.9474L43.0949 81.9474L43.0949 84.4737L49.9912 84.4737L49.9912 81.9474ZM69.7897 85.7368L53.7807 85.7368L53.7807 88.2632L69.7897 88.2632L69.7897 85.7368ZM60.0664 83.8421L69.7897 83.8421L69.7897 81.3158L60.0664 81.3158L60.0664 83.8421ZM51.8949 76.2632H52.5055V73.7368H51.8949V76.2632ZM51.2634 77.2179V76.8947H48.737V77.2179H51.2634ZM45.594 76.8947V77.2179H48.1203V76.8947H45.594ZM69.7897 73.7368H61.0107V76.2632H69.7897V73.7368ZM61.0107 80.6842H69.7897V78.1579H61.0107V80.6842ZM30.2107 88.2632L38.3611 88.2632L38.3611 85.7368L30.2107 85.7368L30.2107 88.2632ZM38.3611 81.3158L30.2107 81.3158L30.2107 83.8421L38.3611 83.8421L38.3611 81.3158ZM38.3611 83.8421C38.8843 83.8421 39.3085 84.2663 39.3085 84.7895H41.8348C41.8348 82.871 40.2796 81.3158 38.3611 81.3158L38.3611 83.8421ZM29.2634 84.7895C29.2634 84.2663 29.6875 83.8421 30.2107 83.8421L30.2107 81.3158C28.2923 81.3158 26.737 82.871 26.737 84.7895L29.2634 84.7895ZM38.3611 88.2632C40.2796 88.2632 41.8348 86.7079 41.8348 84.7895H39.3085C39.3085 85.3127 38.8843 85.7368 38.3611 85.7368L38.3611 88.2632ZM30.2107 85.7368C29.6875 85.7368 29.2634 85.3127 29.2634 84.7895L26.737 84.7895C26.737 86.7079 28.2923 88.2632 30.2107 88.2632L30.2107 85.7368ZM61.0107 78.1579C60.4875 78.1579 60.0634 77.7337 60.0634 77.2105H57.537C57.537 79.129 59.0923 80.6842 61.0107 80.6842V78.1579ZM70.737 77.2105C70.737 77.7337 70.3129 78.1579 69.7897 78.1579V80.6842C71.7081 80.6842 73.2634 79.129 73.2634 77.2105H70.737ZM61.0107 73.7368C59.0923 73.7368 57.537 75.2921 57.537 77.2105H60.0634C60.0634 76.6873 60.4875 76.2632 61.0107 76.2632V73.7368ZM69.7897 76.2632C70.3129 76.2632 70.737 76.6873 70.737 77.2105H73.2634C73.2634 75.2921 71.7081 73.7368 69.7897 73.7368V76.2632ZM48.4287 77.5263C48.2584 77.5263 48.1203 77.3883 48.1203 77.2179H45.594C45.594 78.7835 46.8631 80.0526 48.4287 80.0526L48.4287 77.5263ZM48.737 77.2179C48.737 77.3883 48.599 77.5263 48.4287 77.5263L48.4287 80.0526C49.9942 80.0526 51.2634 78.7835 51.2634 77.2179H48.737ZM51.8949 73.7368C50.1509 73.7368 48.737 75.1507 48.737 76.8947H51.2634C51.2634 76.5459 51.5461 76.2632 51.8949 76.2632V73.7368ZM55.6634 76.8993C55.6634 75.1591 54.2534 73.7368 52.5055 73.7368V76.2632C52.8504 76.2632 53.137 76.5465 53.137 76.8993H55.6634ZM56.2859 77.5263C55.946 77.5263 55.6634 77.247 55.6634 76.8993H53.137C53.137 78.6344 54.5429 80.0526 56.2859 80.0526L56.2859 77.5263ZM59.4348 80.6797C59.4348 78.9445 58.0289 77.5263 56.2859 77.5263L56.2859 80.0526C56.6258 80.0526 56.9085 80.3319 56.9085 80.6797H59.4348ZM60.0664 81.3158C59.7215 81.3158 59.4348 81.0324 59.4348 80.6797H56.9085C56.9085 82.4198 58.3184 83.8421 60.0664 83.8421L60.0664 81.3158ZM73.2634 84.7895C73.2634 82.871 71.7081 81.3158 69.7897 81.3158L69.7897 83.8421C70.3129 83.8421 70.737 84.2663 70.737 84.7895H73.2634ZM69.7897 88.2632C71.7081 88.2632 73.2634 86.7079 73.2634 84.7895H70.737C70.737 85.3127 70.3129 85.7368 69.7897 85.7368L69.7897 88.2632ZM50.6228 85.1053C50.6228 86.8493 52.0366 88.2632 53.7807 88.2632L53.7807 85.7368C53.4318 85.7368 53.1491 85.4541 53.1491 85.1053H50.6228ZM49.9912 84.4737C50.34 84.4737 50.6228 84.7565 50.6228 85.1053H53.1491C53.1491 83.3612 51.7352 81.9474 49.9912 81.9474L49.9912 84.4737ZM39.937 81.3158C39.937 83.0598 41.3509 84.4737 43.0949 84.4737L43.0949 81.9474C42.7461 81.9474 42.4634 81.6646 42.4634 81.3158H39.937ZM39.3055 80.6842C39.6543 80.6842 39.937 80.967 39.937 81.3158H42.4634C42.4634 79.5717 41.0495 78.1579 39.3055 78.1579V80.6842ZM26.7368 77.2105C26.7368 79.129 28.2921 80.6842 30.2105 80.6842V78.1579C29.6873 78.1579 29.2632 77.7337 29.2632 77.2105H26.7368ZM44.9624 76.2632C45.3112 76.2632 45.594 76.5459 45.594 76.8947H48.1203C48.1203 75.1507 46.7065 73.7368 44.9624 73.7368V76.2632ZM30.2105 73.7368C28.2921 73.7368 26.7368 75.2921 26.7368 77.2105H29.2632C29.2632 76.6873 29.6873 76.2632 30.2105 76.2632V73.7368Z" fill="black" fill-opacity="0.05"/>
<defs>
<linearGradient id="paint0_linear_407_809" x1="40.5306" y1="38.3333" x2="64.3961" y2="56.1919" gradientUnits="userSpaceOnUse">
<stop offset="0.183865" stop-color="#AEADAD"/>
<stop offset="1" stop-color="#9D9D9D"/>
</linearGradient>
<linearGradient id="paint1_linear_407_809" x1="43.4898" y1="79.4545" x2="49.1049" y2="90.0464" gradientUnits="userSpaceOnUse">
<stop offset="0.183865" stop-color="#BABABA"/>
<stop offset="1" stop-color="#919090"/>
</linearGradient>
</defs>
</svg>
