<svg width="100" height="100" viewBox="0 0 100 100" fill="none" xmlns="http://www.w3.org/2000/svg">
<path fill-rule="evenodd" clip-rule="evenodd" d="M84.0005 46C84.0005 58.1503 74.3518 68 62.4495 68C62.4493 68 62.4492 68 62.4491 68V68.0003H35.0205V67.9964C34.9119 67.9988 34.803 68 34.6939 68C26.5787 68 20 61.2843 20 53C20 44.7157 26.5787 38 34.6939 38C37.2528 38 39.6589 38.6677 41.7541 39.8418C44.3633 30.6888 52.6412 24 62.4495 24C74.3518 24 84.0005 33.8497 84.0005 46Z" fill="url(#paint0_linear_407_636)"/>
<path d="M62.4491 68V66H60.4491V68H62.4491ZM62.4491 68.0003V70.0003H64.4491V68.0003H62.4491ZM35.0205 68.0003H33.0205V70.0003H35.0205V68.0003ZM35.0205 67.9964H37.0205V65.9513L34.976 65.9969L35.0205 67.9964ZM41.7541 39.8418L40.7765 41.5865L42.9839 42.8234L43.6775 40.3901L41.7541 39.8418ZM62.4495 70C75.495 70 86.0005 59.2158 86.0005 46H82.0005C82.0005 57.0848 73.2085 66 62.4495 66V70ZM62.4491 70C62.4491 70 62.4491 70 62.4491 70C62.4491 70 62.4491 70 62.4491 70C62.4491 70 62.4491 70 62.4491 70C62.4491 70 62.4491 70 62.4491 70C62.4491 70 62.4491 70 62.4491 70C62.4491 70 62.4491 70 62.4491 70C62.4491 70 62.4491 70 62.4491 70C62.4491 70 62.4491 70 62.4491 70C62.4491 70 62.4491 70 62.4491 70C62.4491 70 62.4491 70 62.4491 70C62.4491 70 62.4491 70 62.4491 70C62.4491 70 62.4491 70 62.4491 70C62.4491 70 62.4491 70 62.4491 70C62.4491 70 62.4491 70 62.4491 70C62.4491 70 62.4491 70 62.4491 70C62.4491 70 62.4491 70 62.4491 70C62.4491 70 62.4491 70 62.4491 70C62.4491 70 62.4491 70 62.4491 70C62.4491 70 62.4491 70 62.4491 70C62.4491 70 62.4491 70 62.4491 70C62.4491 70 62.4491 70 62.4491 70C62.4491 70 62.4491 70 62.4491 70C62.4491 70 62.4491 70 62.4491 70C62.4491 70 62.4491 70 62.4491 70C62.4491 70 62.4491 70 62.4491 70C62.4491 70 62.4491 70 62.4491 70C62.4491 70 62.4491 70 62.4491 70C62.4491 70 62.4491 70 62.4491 70C62.4491 70 62.4491 70 62.4491 70C62.4491 70 62.4491 70 62.4491 70C62.4491 70 62.4491 70 62.4491 70C62.4491 70 62.4491 70 62.4491 70C62.4491 70 62.4491 70 62.4491 70C62.4491 70 62.4491 70 62.4491 70C62.4491 70 62.4491 70 62.4491 70C62.4491 70 62.4491 70 62.4491 70C62.4491 70 62.4491 70 62.4491 70C62.4491 70 62.4491 70 62.4491 70C62.4491 70 62.4491 70 62.4491 70C62.4491 70 62.4491 70 62.4491 70C62.4491 70 62.4491 70 62.4491 70C62.4491 70 62.4491 70 62.4491 70C62.4491 70 62.4491 70 62.4491 70C62.4491 70 62.4491 70 62.4491 70C62.4491 70 62.4491 70 62.4491 70C62.4491 70 62.4491 70 62.4491 70C62.4491 70 62.4491 70 62.4491 70C62.4491 70 62.4491 70 62.4491 70C62.4491 70 62.4491 70 62.4491 70C62.4491 70 62.4491 70 62.4491 70C62.4491 70 62.4491 70 62.4491 70C62.4491 70 62.4491 70 62.4491 70C62.4491 70 62.4491 70 62.4491 70C62.4491 70 62.4491 70 62.4491 70C62.4491 70 62.4491 70 62.4491 70C62.4491 70 62.4491 70 62.4491 70C62.4491 70 62.4491 70 62.4491 70C62.4491 70 62.4491 70 62.4491 70C62.4491 70 62.4491 70 62.4491 70C62.4491 70 62.4491 70 62.4491 70C62.4491 70 62.4491 70 62.4491 70C62.4491 70 62.4491 70 62.4491 70C62.4491 70 62.4491 70 62.4491 70C62.4491 70 62.4491 70 62.4491 70C62.4491 70 62.4491 70 62.4491 70C62.4491 70 62.4491 70 62.4491 70C62.4491 70 62.4491 70 62.4491 70C62.4491 70 62.4491 70 62.4491 70C62.4491 70 62.4491 70 62.4491 70C62.4491 70 62.4491 70 62.4491 70C62.4491 70 62.4491 70 62.4491 70C62.4491 70 62.4491 70 62.4491 70C62.4491 70 62.4491 70 62.4491 70C62.4491 70 62.4491 70 62.4491 70C62.4491 70 62.4491 70 62.4491 70C62.4491 70 62.4491 70 62.4491 70C62.4491 70 62.4491 70 62.4491 70C62.4491 70 62.4491 70 62.4491 70C62.4491 70 62.4491 70 62.4491 70C62.4491 70 62.4491 70 62.4491 70C62.4491 70 62.4491 70 62.4491 70C62.4491 70 62.4491 70 62.4491 70C62.4491 70 62.4491 70 62.4491 70C62.4491 70 62.4491 70 62.4491 70C62.4491 70 62.4491 70 62.4491 70C62.4491 70 62.4491 70 62.4491 70C62.4491 70 62.4491 70 62.4491 70C62.4491 70 62.4491 70 62.4491 70C62.4491 70 62.4491 70 62.4491 70C62.4491 70 62.4491 70 62.4491 70C62.4491 70 62.4491 70 62.4491 70C62.4491 70 62.4491 70 62.4491 70C62.4491 70 62.4491 70 62.4491 70C62.4491 70 62.4491 70 62.4491 70C62.4491 70 62.4491 70 62.4491 70C62.4491 70 62.4491 70 62.4491 70C62.4491 70 62.4491 70 62.4491 70C62.4491 70 62.4491 70 62.4491 70C62.4492 70 62.4492 70 62.4492 70C62.4492 70 62.4492 70 62.4492 70C62.4492 70 62.4492 70 62.4492 70C62.4492 70 62.4492 70 62.4492 70C62.4492 70 62.4492 70 62.4492 70C62.4492 70 62.4492 70 62.4492 70C62.4492 70 62.4492 70 62.4492 70C62.4492 70 62.4492 70 62.4492 70C62.4492 70 62.4492 70 62.4492 70C62.4492 70 62.4492 70 62.4492 70C62.4492 70 62.4492 70 62.4492 70C62.4492 70 62.4492 70 62.4492 70C62.4492 70 62.4492 70 62.4492 70C62.4492 70 62.4492 70 62.4492 70C62.4492 70 62.4492 70 62.4492 70C62.4492 70 62.4492 70 62.4492 70C62.4492 70 62.4492 70 62.4492 70C62.4492 70 62.4492 70 62.4492 70C62.4492 70 62.4492 70 62.4492 70C62.4492 70 62.4492 70 62.4492 70C62.4492 70 62.4492 70 62.4492 70C62.4492 70 62.4492 70 62.4492 70C62.4492 70 62.4492 70 62.4492 70C62.4492 70 62.4492 70 62.4492 70C62.4492 70 62.4492 70 62.4492 70C62.4492 70 62.4492 70 62.4492 70C62.4492 70 62.4492 70 62.4492 70C62.4492 70 62.4492 70 62.4492 70C62.4492 70 62.4492 70 62.4492 70C62.4492 70 62.4492 70 62.4492 70C62.4492 70 62.4492 70 62.4492 70C62.4492 70 62.4492 70 62.4492 70C62.4492 70 62.4492 70 62.4492 70C62.4492 70 62.4492 70 62.4492 70C62.4492 70 62.4492 70 62.4492 70C62.4492 70 62.4492 70 62.4492 70C62.4492 70 62.4492 70 62.4492 70C62.4492 70 62.4492 70 62.4492 70C62.4492 70 62.4492 70 62.4492 70C62.4492 70 62.4492 70 62.4492 70C62.4492 70 62.4492 70 62.4492 70C62.4492 70 62.4492 70 62.4492 70C62.4492 70 62.4492 70 62.4492 70C62.4492 70 62.4492 70 62.4492 70C62.4492 70 62.4492 70 62.4492 70C62.4492 70 62.4492 70 62.4492 70C62.4492 70 62.4492 70 62.4492 70C62.4492 70 62.4492 70 62.4492 70C62.4492 70 62.4492 70 62.4492 70C62.4492 70 62.4492 70 62.4492 70C62.4492 70 62.4492 70 62.4492 70C62.4492 70 62.4492 70 62.4492 70C62.4492 70 62.4492 70 62.4492 70C62.4492 70 62.4492 70 62.4492 70C62.4492 70 62.4492 70 62.4492 70C62.4492 70 62.4492 70 62.4492 70C62.4492 70 62.4492 70 62.4492 70C62.4492 70 62.4492 70 62.4492 70C62.4492 70 62.4492 70 62.4492 70C62.4492 70 62.4492 70 62.4492 70C62.4492 70 62.4492 70 62.4492 70C62.4492 70 62.4492 70 62.4492 70C62.4492 70 62.4492 70 62.4492 70C62.4492 70 62.4492 70 62.4492 70C62.4492 70 62.4492 70 62.4492 70C62.4492 70 62.4492 70 62.4492 70C62.4492 70 62.4492 70 62.4492 70C62.4492 70 62.4492 70 62.4492 70C62.4492 70 62.4492 70 62.4492 70C62.4492 70 62.4492 70 62.4492 70C62.4492 70 62.4492 70 62.4492 70C62.4492 70 62.4492 70 62.4492 70C62.4492 70 62.4492 70 62.4492 70C62.4492 70 62.4492 70 62.4492 70C62.4492 70 62.4492 70 62.4492 70C62.4492 70 62.4492 70 62.4492 70C62.4492 70 62.4492 70 62.4492 70C62.4492 70 62.4492 70 62.4492 70C62.4492 70 62.4492 70 62.4492 70C62.4492 70 62.4492 70 62.4492 70C62.4492 70 62.4492 70 62.4492 70C62.4492 70 62.4492 70 62.4492 70C62.4492 70 62.4492 70 62.4492 70C62.4492 70 62.4492 70 62.4492 70C62.4492 70 62.4492 70 62.4492 70C62.4492 70 62.4492 70 62.4492 70C62.4492 70 62.4492 70 62.4492 70C62.4492 70 62.4492 70 62.4492 70C62.4492 70 62.4492 70 62.4492 70C62.4492 70 62.4492 70 62.4492 70C62.4492 70 62.4492 70 62.4492 70C62.4492 70 62.4492 70 62.4492 70C62.4492 70 62.4492 70 62.4492 70C62.4492 70 62.4492 70 62.4492 70C62.4492 70 62.4492 70 62.4492 70C62.4492 70 62.4492 70 62.4492 70C62.4492 70 62.4492 70 62.4492 70C62.4492 70 62.4492 70 62.4492 70C62.4492 70 62.4492 70 62.4492 70C62.4492 70 62.4492 70 62.4492 70C62.4492 70 62.4492 70 62.4492 70C62.4492 70 62.4492 70 62.4492 70C62.4492 70 62.4492 70 62.4492 70C62.4492 70 62.4492 70 62.4492 70C62.4492 70 62.4492 70 62.4492 70C62.4492 70 62.4492 70 62.4492 70C62.4492 70 62.4492 70 62.4492 70C62.4492 70 62.4492 70 62.4492 70C62.4492 70 62.4492 70 62.4492 70C62.4492 70 62.4492 70 62.4492 70C62.4492 70 62.4492 70 62.4492 70C62.4492 70 62.4492 70 62.4492 70C62.4492 70 62.4492 70 62.4492 70C62.4492 70 62.4492 70 62.4492 70C62.4492 70 62.4492 70 62.4492 70C62.4492 70 62.4492 70 62.4492 70C62.4492 70 62.4492 70 62.4492 70C62.4492 70 62.4492 70 62.4492 70C62.4492 70 62.4492 70 62.4492 70C62.4492 70 62.4492 70 62.4492 70C62.4492 70 62.4492 70 62.4492 70C62.4492 70 62.4492 70 62.4492 70C62.4492 70 62.4492 70 62.4492 70C62.4492 70 62.4492 70 62.4492 70C62.4492 70 62.4492 70 62.4492 70C62.4492 70 62.4492 70 62.4492 70C62.4492 70 62.4492 70 62.4492 70C62.4492 70 62.4492 70 62.4492 70C62.4492 70 62.4492 70 62.4492 70C62.4492 70 62.4492 70 62.4492 70C62.4492 70 62.4492 70 62.4492 70C62.4492 70 62.4492 70 62.4492 70C62.4492 70 62.4492 70 62.4492 70C62.4492 70 62.4492 70 62.4492 70C62.4492 70 62.4492 70 62.4492 70C62.4492 70 62.4492 70 62.4493 70C62.4493 70 62.4493 70 62.4493 70C62.4493 70 62.4493 70 62.4493 70C62.4493 70 62.4493 70 62.4493 70C62.4493 70 62.4493 70 62.4493 70C62.4493 70 62.4493 70 62.4493 70C62.4493 70 62.4493 70 62.4493 70C62.4493 70 62.4493 70 62.4493 70C62.4493 70 62.4493 70 62.4493 70C62.4493 70 62.4493 70 62.4493 70C62.4493 70 62.4493 70 62.4493 70C62.4493 70 62.4493 70 62.4493 70C62.4493 70 62.4493 70 62.4493 70C62.4493 70 62.4493 70 62.4493 70C62.4493 70 62.4493 70 62.4493 70C62.4493 70 62.4493 70 62.4493 70C62.4493 70 62.4493 70 62.4493 70C62.4493 70 62.4493 70 62.4493 70C62.4493 70 62.4493 70 62.4493 70C62.4493 70 62.4493 70 62.4493 70C62.4493 70 62.4493 70 62.4493 70C62.4493 70 62.4493 70 62.4493 70C62.4493 70 62.4493 70 62.4493 70C62.4493 70 62.4493 70 62.4493 70C62.4493 70 62.4493 70 62.4493 70C62.4493 70 62.4493 70 62.4493 70C62.4493 70 62.4493 70 62.4493 70C62.4493 70 62.4493 70 62.4493 70C62.4493 70 62.4493 70 62.4493 70C62.4493 70 62.4493 70 62.4493 70C62.4493 70 62.4493 70 62.4493 70C62.4493 70 62.4493 70 62.4493 70C62.4493 70 62.4493 70 62.4493 70C62.4493 70 62.4493 70 62.4493 70C62.4493 70 62.4493 70 62.4493 70C62.4493 70 62.4493 70 62.4493 70C62.4493 70 62.4493 70 62.4493 70C62.4493 70 62.4493 70 62.4493 70C62.4493 70 62.4493 70 62.4493 70C62.4493 70 62.4493 70 62.4493 70C62.4493 70 62.4493 70 62.4493 70C62.4493 70 62.4493 70 62.4493 70C62.4493 70 62.4493 70 62.4493 70C62.4493 70 62.4493 70 62.4493 70C62.4493 70 62.4493 70 62.4493 70C62.4493 70 62.4493 70 62.4493 70C62.4493 70 62.4493 70 62.4493 70C62.4493 70 62.4493 70 62.4493 70C62.4493 70 62.4493 70 62.4493 70C62.4493 70 62.4493 70 62.4493 70C62.4493 70 62.4493 70 62.4493 70C62.4493 70 62.4493 70 62.4493 70C62.4493 70 62.4493 70 62.4493 70C62.4493 70 62.4493 70 62.4493 70C62.4493 70 62.4493 70 62.4493 70C62.4493 70 62.4493 70 62.4493 70C62.4493 70 62.4493 70 62.4493 70C62.4493 70 62.4493 70 62.4493 70C62.4493 70 62.4493 70 62.4493 70C62.4493 70 62.4493 70 62.4493 70C62.4493 70 62.4493 70 62.4493 70C62.4493 70 62.4493 70 62.4493 70C62.4493 70 62.4493 70 62.4493 70C62.4493 70 62.4493 70 62.4493 70C62.4493 70 62.4493 70 62.4493 70C62.4493 70 62.4493 70 62.4493 70C62.4493 70 62.4493 70 62.4493 70C62.4493 70 62.4493 70 62.4493 70C62.4493 70 62.4493 70 62.4493 70C62.4493 70 62.4493 70 62.4493 70C62.4493 70 62.4493 70 62.4493 70C62.4493 70 62.4493 70 62.4493 70C62.4493 70 62.4493 70 62.4493 70C62.4493 70 62.4493 70 62.4493 70C62.4493 70 62.4493 70 62.4493 70C62.4493 70 62.4493 70 62.4493 70C62.4493 70 62.4493 70 62.4493 70C62.4493 70 62.4493 70 62.4493 70C62.4493 70 62.4493 70 62.4493 70C62.4493 70 62.4493 70 62.4493 70C62.4493 70 62.4493 70 62.4493 70C62.4493 70 62.4493 70 62.4493 70C62.4493 70 62.4493 70 62.4493 70C62.4493 70 62.4493 70 62.4493 70C62.4493 70 62.4493 70 62.4493 70C62.4493 70 62.4493 70 62.4493 70C62.4493 70 62.4493 70 62.4493 70C62.4493 70 62.4493 70 62.4493 70C62.4493 70 62.4493 70 62.4493 70C62.4493 70 62.4493 70 62.4493 70C62.4493 70 62.4493 70 62.4493 70C62.4493 70 62.4493 70 62.4493 70C62.4493 70 62.4493 70 62.4493 70C62.4493 70 62.4493 70 62.4493 70C62.4493 70 62.4493 70 62.4493 70C62.4493 70 62.4493 70 62.4493 70C62.4493 70 62.4493 70 62.4493 70C62.4493 70 62.4493 70 62.4493 70C62.4493 70 62.4493 70 62.4493 70C62.4493 70 62.4493 70 62.4493 70C62.4493 70 62.4493 70 62.4493 70C62.4493 70 62.4493 70 62.4493 70C62.4493 70 62.4493 70 62.4493 70C62.4493 70 62.4493 70 62.4493 70C62.4493 70 62.4493 70 62.4493 70C62.4493 70 62.4493 70 62.4493 70C62.4493 70 62.4493 70 62.4493 70C62.4493 70 62.4493 70 62.4493 70C62.4493 70 62.4493 70 62.4493 70C62.4493 70 62.4493 70 62.4493 70C62.4493 70 62.4493 70 62.4493 70C62.4493 70 62.4493 70 62.4493 70C62.4493 70 62.4493 70 62.4493 70C62.4493 70 62.4493 70 62.4493 70C62.4493 70 62.4493 70 62.4493 70C62.4493 70 62.4493 70 62.4493 70C62.4493 70 62.4493 70 62.4493 70C62.4493 70 62.4493 70 62.4493 70C62.4493 70 62.4493 70 62.4493 70C62.4493 70 62.4493 70 62.4493 70C62.4493 70 62.4493 70 62.4493 70C62.4493 70 62.4493 70 62.4493 70C62.4493 70 62.4493 70 62.4493 70C62.4493 70 62.4493 70 62.4493 70C62.4493 70 62.4493 70 62.4493 70C62.4493 70 62.4493 70 62.4493 70C62.4493 70 62.4493 70 62.4493 70C62.4493 70 62.4493 70 62.4493 70C62.4493 70 62.4493 70 62.4493 70C62.4493 70 62.4493 70 62.4493 70C62.4493 70 62.4493 70 62.4493 70C62.4493 70 62.4493 70 62.4493 70C62.4493 70 62.4493 70 62.4493 70C62.4493 70 62.4493 70 62.4493 70C62.4493 70 62.4493 70 62.4493 70C62.4493 70 62.4493 70 62.4493 70C62.4494 70 62.4494 70 62.4494 70C62.4494 70 62.4494 70 62.4494 70C62.4494 70 62.4494 70 62.4494 70C62.4494 70 62.4494 70 62.4494 70C62.4494 70 62.4494 70 62.4494 70C62.4494 70 62.4494 70 62.4494 70C62.4494 70 62.4494 70 62.4494 70C62.4494 70 62.4494 70 62.4494 70C62.4494 70 62.4494 70 62.4494 70C62.4494 70 62.4494 70 62.4494 70C62.4494 70 62.4494 70 62.4494 70C62.4494 70 62.4494 70 62.4494 70C62.4494 70 62.4494 70 62.4494 70C62.4494 70 62.4494 70 62.4494 70C62.4494 70 62.4494 70 62.4494 70C62.4494 70 62.4494 70 62.4494 70C62.4494 70 62.4494 70 62.4494 70C62.4494 70 62.4494 70 62.4494 70C62.4494 70 62.4494 70 62.4494 70C62.4494 70 62.4494 70 62.4494 70C62.4494 70 62.4494 70 62.4494 70C62.4494 70 62.4494 70 62.4494 70C62.4494 70 62.4494 70 62.4494 70C62.4494 70 62.4494 70 62.4494 70C62.4494 70 62.4494 70 62.4494 70C62.4494 70 62.4494 70 62.4494 70C62.4494 70 62.4494 70 62.4494 70C62.4494 70 62.4494 70 62.4494 70C62.4494 70 62.4494 70 62.4494 70C62.4494 70 62.4494 70 62.4494 70C62.4494 70 62.4494 70 62.4494 70C62.4494 70 62.4494 70 62.4494 70C62.4494 70 62.4494 70 62.4494 70C62.4494 70 62.4494 70 62.4494 70C62.4494 70 62.4494 70 62.4494 70C62.4494 70 62.4494 70 62.4494 70C62.4494 70 62.4494 70 62.4494 70C62.4494 70 62.4494 70 62.4494 70C62.4494 70 62.4494 70 62.4494 70C62.4494 70 62.4494 70 62.4494 70C62.4494 70 62.4494 70 62.4494 70C62.4494 70 62.4494 70 62.4494 70C62.4494 70 62.4494 70 62.4494 70C62.4494 70 62.4494 70 62.4494 70C62.4494 70 62.4494 70 62.4494 70C62.4494 70 62.4494 70 62.4494 70C62.4494 70 62.4494 70 62.4494 70C62.4494 70 62.4494 70 62.4494 70C62.4494 70 62.4494 70 62.4494 70C62.4494 70 62.4494 70 62.4494 70C62.4494 70 62.4494 70 62.4494 70C62.4494 70 62.4494 70 62.4494 70C62.4494 70 62.4494 70 62.4494 70C62.4494 70 62.4494 70 62.4494 70C62.4494 70 62.4494 70 62.4494 70C62.4494 70 62.4494 70 62.4494 70C62.4494 70 62.4494 70 62.4494 70C62.4494 70 62.4494 70 62.4494 70C62.4494 70 62.4494 70 62.4494 70C62.4494 70 62.4494 70 62.4494 70C62.4494 70 62.4494 70 62.4494 70C62.4494 70 62.4494 70 62.4494 70C62.4494 70 62.4494 70 62.4494 70C62.4494 70 62.4494 70 62.4494 70C62.4494 70 62.4494 70 62.4494 70C62.4494 70 62.4494 70 62.4494 70C62.4494 70 62.4494 70 62.4494 70C62.4494 70 62.4494 70 62.4494 70C62.4494 70 62.4494 70 62.4494 70C62.4494 70 62.4494 70 62.4494 70C62.4494 70 62.4494 70 62.4494 70C62.4494 70 62.4494 70 62.4494 70C62.4494 70 62.4494 70 62.4494 70C62.4494 70 62.4494 70 62.4494 70C62.4494 70 62.4494 70 62.4494 70C62.4494 70 62.4494 70 62.4494 70C62.4494 70 62.4494 70 62.4494 70C62.4494 70 62.4494 70 62.4494 70C62.4494 70 62.4494 70 62.4494 70C62.4494 70 62.4494 70 62.4494 70C62.4494 70 62.4494 70 62.4494 70C62.4494 70 62.4494 70 62.4494 70C62.4494 70 62.4494 70 62.4494 70C62.4494 70 62.4494 70 62.4494 70C62.4494 70 62.4494 70 62.4494 70C62.4494 70 62.4494 70 62.4494 70C62.4494 70 62.4494 70 62.4494 70C62.4494 70 62.4494 70 62.4494 70C62.4494 70 62.4494 70 62.4494 70C62.4494 70 62.4494 70 62.4494 70C62.4494 70 62.4494 70 62.4494 70C62.4494 70 62.4494 70 62.4494 70C62.4494 70 62.4494 70 62.4494 70C62.4494 70 62.4494 70 62.4494 70C62.4494 70 62.4494 70 62.4494 70C62.4494 70 62.4494 70 62.4494 70C62.4494 70 62.4494 70 62.4494 70C62.4494 70 62.4494 70 62.4494 70C62.4494 70 62.4494 70 62.4494 70C62.4494 70 62.4494 70 62.4494 70C62.4494 70 62.4494 70 62.4494 70C62.4494 70 62.4494 70 62.4494 70C62.4494 70 62.4494 70 62.4494 70C62.4494 70 62.4494 70 62.4494 70C62.4494 70 62.4494 70 62.4494 70C62.4494 70 62.4494 70 62.4494 70C62.4494 70 62.4494 70 62.4494 70C62.4494 70 62.4494 70 62.4494 70C62.4494 70 62.4494 70 62.4494 70C62.4494 70 62.4494 70 62.4494 70C62.4494 70 62.4494 70 62.4494 70C62.4494 70 62.4494 70 62.4494 70C62.4494 70 62.4494 70 62.4494 70C62.4494 70 62.4494 70 62.4494 70C62.4494 70 62.4494 70 62.4494 70C62.4494 70 62.4494 70 62.4494 70C62.4494 70 62.4494 70 62.4494 70C62.4494 70 62.4494 70 62.4494 70C62.4494 70 62.4494 70 62.4494 70C62.4494 70 62.4494 70 62.4494 70C62.4494 70 62.4494 70 62.4494 70C62.4494 70 62.4494 70 62.4494 70C62.4494 70 62.4494 70 62.4494 70C62.4494 70 62.4494 70 62.4494 70C62.4494 70 62.4494 70 62.4494 70C62.4494 70 62.4494 70 62.4494 70C62.4494 70 62.4494 70 62.4494 70C62.4494 70 62.4494 70 62.4494 70C62.4494 70 62.4494 70 62.4494 70C62.4494 70 62.4494 70 62.4494 70C62.4494 70 62.4494 70 62.4494 70C62.4494 70 62.4494 70 62.4494 70C62.4494 70 62.4494 70 62.4494 70C62.4494 70 62.4494 70 62.4494 70C62.4494 70 62.4494 70 62.4494 70C62.4494 70 62.4494 70 62.4495 70C62.4495 70 62.4495 70 62.4495 70C62.4495 70 62.4495 70 62.4495 70C62.4495 70 62.4495 70 62.4495 70C62.4495 70 62.4495 70 62.4495 70C62.4495 70 62.4495 70 62.4495 70C62.4495 70 62.4495 70 62.4495 70C62.4495 70 62.4495 70 62.4495 70V66C62.4495 66 62.4495 66 62.4495 66C62.4495 66 62.4495 66 62.4495 66C62.4495 66 62.4495 66 62.4495 66C62.4495 66 62.4495 66 62.4495 66C62.4495 66 62.4495 66 62.4495 66C62.4495 66 62.4495 66 62.4495 66C62.4495 66 62.4495 66 62.4495 66C62.4494 66 62.4494 66 62.4494 66C62.4494 66 62.4494 66 62.4494 66C62.4494 66 62.4494 66 62.4494 66C62.4494 66 62.4494 66 62.4494 66C62.4494 66 62.4494 66 62.4494 66C62.4494 66 62.4494 66 62.4494 66C62.4494 66 62.4494 66 62.4494 66C62.4494 66 62.4494 66 62.4494 66C62.4494 66 62.4494 66 62.4494 66C62.4494 66 62.4494 66 62.4494 66C62.4494 66 62.4494 66 62.4494 66C62.4494 66 62.4494 66 62.4494 66C62.4494 66 62.4494 66 62.4494 66C62.4494 66 62.4494 66 62.4494 66C62.4494 66 62.4494 66 62.4494 66C62.4494 66 62.4494 66 62.4494 66C62.4494 66 62.4494 66 62.4494 66C62.4494 66 62.4494 66 62.4494 66C62.4494 66 62.4494 66 62.4494 66C62.4494 66 62.4494 66 62.4494 66C62.4494 66 62.4494 66 62.4494 66C62.4494 66 62.4494 66 62.4494 66C62.4494 66 62.4494 66 62.4494 66C62.4494 66 62.4494 66 62.4494 66C62.4494 66 62.4494 66 62.4494 66C62.4494 66 62.4494 66 62.4494 66C62.4494 66 62.4494 66 62.4494 66C62.4494 66 62.4494 66 62.4494 66C62.4494 66 62.4494 66 62.4494 66C62.4494 66 62.4494 66 62.4494 66C62.4494 66 62.4494 66 62.4494 66C62.4494 66 62.4494 66 62.4494 66C62.4494 66 62.4494 66 62.4494 66C62.4494 66 62.4494 66 62.4494 66C62.4494 66 62.4494 66 62.4494 66C62.4494 66 62.4494 66 62.4494 66C62.4494 66 62.4494 66 62.4494 66C62.4494 66 62.4494 66 62.4494 66C62.4494 66 62.4494 66 62.4494 66C62.4494 66 62.4494 66 62.4494 66C62.4494 66 62.4494 66 62.4494 66C62.4494 66 62.4494 66 62.4494 66C62.4494 66 62.4494 66 62.4494 66C62.4494 66 62.4494 66 62.4494 66C62.4494 66 62.4494 66 62.4494 66C62.4494 66 62.4494 66 62.4494 66C62.4494 66 62.4494 66 62.4494 66C62.4494 66 62.4494 66 62.4494 66C62.4494 66 62.4494 66 62.4494 66C62.4494 66 62.4494 66 62.4494 66C62.4494 66 62.4494 66 62.4494 66C62.4494 66 62.4494 66 62.4494 66C62.4494 66 62.4494 66 62.4494 66C62.4494 66 62.4494 66 62.4494 66C62.4494 66 62.4494 66 62.4494 66C62.4494 66 62.4494 66 62.4494 66C62.4494 66 62.4494 66 62.4494 66C62.4494 66 62.4494 66 62.4494 66C62.4494 66 62.4494 66 62.4494 66C62.4494 66 62.4494 66 62.4494 66C62.4494 66 62.4494 66 62.4494 66C62.4494 66 62.4494 66 62.4494 66C62.4494 66 62.4494 66 62.4494 66C62.4494 66 62.4494 66 62.4494 66C62.4494 66 62.4494 66 62.4494 66C62.4494 66 62.4494 66 62.4494 66C62.4494 66 62.4494 66 62.4494 66C62.4494 66 62.4494 66 62.4494 66C62.4494 66 62.4494 66 62.4494 66C62.4494 66 62.4494 66 62.4494 66C62.4494 66 62.4494 66 62.4494 66C62.4494 66 62.4494 66 62.4494 66C62.4494 66 62.4494 66 62.4494 66C62.4494 66 62.4494 66 62.4494 66C62.4494 66 62.4494 66 62.4494 66C62.4494 66 62.4494 66 62.4494 66C62.4494 66 62.4494 66 62.4494 66C62.4494 66 62.4494 66 62.4494 66C62.4494 66 62.4494 66 62.4494 66C62.4494 66 62.4494 66 62.4494 66C62.4494 66 62.4494 66 62.4494 66C62.4494 66 62.4494 66 62.4494 66C62.4494 66 62.4494 66 62.4494 66C62.4494 66 62.4494 66 62.4494 66C62.4494 66 62.4494 66 62.4494 66C62.4494 66 62.4494 66 62.4494 66C62.4494 66 62.4494 66 62.4494 66C62.4494 66 62.4494 66 62.4494 66C62.4494 66 62.4494 66 62.4494 66C62.4494 66 62.4494 66 62.4494 66C62.4494 66 62.4494 66 62.4494 66C62.4494 66 62.4494 66 62.4494 66C62.4494 66 62.4494 66 62.4494 66C62.4494 66 62.4494 66 62.4494 66C62.4494 66 62.4494 66 62.4494 66C62.4494 66 62.4494 66 62.4494 66C62.4494 66 62.4494 66 62.4494 66C62.4494 66 62.4494 66 62.4494 66C62.4494 66 62.4494 66 62.4494 66C62.4494 66 62.4494 66 62.4494 66C62.4494 66 62.4494 66 62.4494 66C62.4494 66 62.4494 66 62.4494 66C62.4494 66 62.4494 66 62.4494 66C62.4494 66 62.4494 66 62.4494 66C62.4494 66 62.4494 66 62.4494 66C62.4494 66 62.4494 66 62.4494 66C62.4494 66 62.4494 66 62.4494 66C62.4494 66 62.4494 66 62.4494 66C62.4494 66 62.4494 66 62.4494 66C62.4494 66 62.4494 66 62.4494 66C62.4494 66 62.4494 66 62.4494 66C62.4494 66 62.4494 66 62.4494 66C62.4494 66 62.4494 66 62.4494 66C62.4494 66 62.4494 66 62.4494 66C62.4494 66 62.4494 66 62.4494 66C62.4494 66 62.4494 66 62.4494 66C62.4494 66 62.4494 66 62.4494 66C62.4494 66 62.4494 66 62.4494 66C62.4494 66 62.4494 66 62.4494 66C62.4494 66 62.4494 66 62.4494 66C62.4494 66 62.4494 66 62.4494 66C62.4494 66 62.4494 66 62.4494 66C62.4494 66 62.4494 66 62.4494 66C62.4494 66 62.4494 66 62.4494 66C62.4494 66 62.4494 66 62.4494 66C62.4494 66 62.4494 66 62.4494 66C62.4494 66 62.4494 66 62.4494 66C62.4494 66 62.4494 66 62.4494 66C62.4494 66 62.4494 66 62.4494 66C62.4494 66 62.4494 66 62.4494 66C62.4494 66 62.4494 66 62.4494 66C62.4494 66 62.4494 66 62.4494 66C62.4494 66 62.4494 66 62.4494 66C62.4494 66 62.4494 66 62.4494 66C62.4494 66 62.4494 66 62.4494 66C62.4494 66 62.4494 66 62.4493 66C62.4493 66 62.4493 66 62.4493 66C62.4493 66 62.4493 66 62.4493 66C62.4493 66 62.4493 66 62.4493 66C62.4493 66 62.4493 66 62.4493 66C62.4493 66 62.4493 66 62.4493 66C62.4493 66 62.4493 66 62.4493 66C62.4493 66 62.4493 66 62.4493 66C62.4493 66 62.4493 66 62.4493 66C62.4493 66 62.4493 66 62.4493 66C62.4493 66 62.4493 66 62.4493 66C62.4493 66 62.4493 66 62.4493 66C62.4493 66 62.4493 66 62.4493 66C62.4493 66 62.4493 66 62.4493 66C62.4493 66 62.4493 66 62.4493 66C62.4493 66 62.4493 66 62.4493 66C62.4493 66 62.4493 66 62.4493 66C62.4493 66 62.4493 66 62.4493 66C62.4493 66 62.4493 66 62.4493 66C62.4493 66 62.4493 66 62.4493 66C62.4493 66 62.4493 66 62.4493 66C62.4493 66 62.4493 66 62.4493 66C62.4493 66 62.4493 66 62.4493 66C62.4493 66 62.4493 66 62.4493 66C62.4493 66 62.4493 66 62.4493 66C62.4493 66 62.4493 66 62.4493 66C62.4493 66 62.4493 66 62.4493 66C62.4493 66 62.4493 66 62.4493 66C62.4493 66 62.4493 66 62.4493 66C62.4493 66 62.4493 66 62.4493 66C62.4493 66 62.4493 66 62.4493 66C62.4493 66 62.4493 66 62.4493 66C62.4493 66 62.4493 66 62.4493 66C62.4493 66 62.4493 66 62.4493 66C62.4493 66 62.4493 66 62.4493 66C62.4493 66 62.4493 66 62.4493 66C62.4493 66 62.4493 66 62.4493 66C62.4493 66 62.4493 66 62.4493 66C62.4493 66 62.4493 66 62.4493 66C62.4493 66 62.4493 66 62.4493 66C62.4493 66 62.4493 66 62.4493 66C62.4493 66 62.4493 66 62.4493 66C62.4493 66 62.4493 66 62.4493 66C62.4493 66 62.4493 66 62.4493 66C62.4493 66 62.4493 66 62.4493 66C62.4493 66 62.4493 66 62.4493 66C62.4493 66 62.4493 66 62.4493 66C62.4493 66 62.4493 66 62.4493 66C62.4493 66 62.4493 66 62.4493 66C62.4493 66 62.4493 66 62.4493 66C62.4493 66 62.4493 66 62.4493 66C62.4493 66 62.4493 66 62.4493 66C62.4493 66 62.4493 66 62.4493 66C62.4493 66 62.4493 66 62.4493 66C62.4493 66 62.4493 66 62.4493 66C62.4493 66 62.4493 66 62.4493 66C62.4493 66 62.4493 66 62.4493 66C62.4493 66 62.4493 66 62.4493 66C62.4493 66 62.4493 66 62.4493 66C62.4493 66 62.4493 66 62.4493 66C62.4493 66 62.4493 66 62.4493 66C62.4493 66 62.4493 66 62.4493 66C62.4493 66 62.4493 66 62.4493 66C62.4493 66 62.4493 66 62.4493 66C62.4493 66 62.4493 66 62.4493 66C62.4493 66 62.4493 66 62.4493 66C62.4493 66 62.4493 66 62.4493 66C62.4493 66 62.4493 66 62.4493 66C62.4493 66 62.4493 66 62.4493 66C62.4493 66 62.4493 66 62.4493 66C62.4493 66 62.4493 66 62.4493 66C62.4493 66 62.4493 66 62.4493 66C62.4493 66 62.4493 66 62.4493 66C62.4493 66 62.4493 66 62.4493 66C62.4493 66 62.4493 66 62.4493 66C62.4493 66 62.4493 66 62.4493 66C62.4493 66 62.4493 66 62.4493 66C62.4493 66 62.4493 66 62.4493 66C62.4493 66 62.4493 66 62.4493 66C62.4493 66 62.4493 66 62.4493 66C62.4493 66 62.4493 66 62.4493 66C62.4493 66 62.4493 66 62.4493 66C62.4493 66 62.4493 66 62.4493 66C62.4493 66 62.4493 66 62.4493 66C62.4493 66 62.4493 66 62.4493 66C62.4493 66 62.4493 66 62.4493 66C62.4493 66 62.4493 66 62.4493 66C62.4493 66 62.4493 66 62.4493 66C62.4493 66 62.4493 66 62.4493 66C62.4493 66 62.4493 66 62.4493 66C62.4493 66 62.4493 66 62.4493 66C62.4493 66 62.4493 66 62.4493 66C62.4493 66 62.4493 66 62.4493 66C62.4493 66 62.4493 66 62.4493 66C62.4493 66 62.4493 66 62.4493 66C62.4493 66 62.4493 66 62.4493 66C62.4493 66 62.4493 66 62.4493 66C62.4493 66 62.4493 66 62.4493 66C62.4493 66 62.4493 66 62.4493 66C62.4493 66 62.4493 66 62.4493 66C62.4493 66 62.4493 66 62.4493 66C62.4493 66 62.4493 66 62.4493 66C62.4493 66 62.4493 66 62.4493 66C62.4493 66 62.4493 66 62.4493 66C62.4493 66 62.4493 66 62.4493 66C62.4493 66 62.4493 66 62.4493 66C62.4493 66 62.4493 66 62.4493 66C62.4493 66 62.4493 66 62.4493 66C62.4493 66 62.4493 66 62.4493 66C62.4493 66 62.4493 66 62.4493 66C62.4493 66 62.4493 66 62.4493 66C62.4493 66 62.4493 66 62.4493 66C62.4493 66 62.4493 66 62.4493 66C62.4493 66 62.4493 66 62.4493 66C62.4493 66 62.4493 66 62.4493 66C62.4493 66 62.4493 66 62.4493 66C62.4493 66 62.4493 66 62.4493 66C62.4493 66 62.4493 66 62.4493 66C62.4493 66 62.4493 66 62.4493 66C62.4493 66 62.4493 66 62.4493 66C62.4493 66 62.4493 66 62.4493 66C62.4493 66 62.4493 66 62.4493 66C62.4493 66 62.4493 66 62.4493 66C62.4493 66 62.4493 66 62.4493 66C62.4493 66 62.4493 66 62.4493 66C62.4493 66 62.4493 66 62.4493 66C62.4493 66 62.4493 66 62.4493 66C62.4493 66 62.4493 66 62.4493 66C62.4493 66 62.4493 66 62.4493 66C62.4493 66 62.4493 66 62.4493 66C62.4493 66 62.4493 66 62.4493 66C62.4493 66 62.4493 66 62.4493 66C62.4493 66 62.4493 66 62.4493 66C62.4493 66 62.4493 66 62.4493 66C62.4493 66 62.4493 66 62.4493 66C62.4493 66 62.4493 66 62.4493 66C62.4492 66 62.4492 66 62.4492 66C62.4492 66 62.4492 66 62.4492 66C62.4492 66 62.4492 66 62.4492 66C62.4492 66 62.4492 66 62.4492 66C62.4492 66 62.4492 66 62.4492 66C62.4492 66 62.4492 66 62.4492 66C62.4492 66 62.4492 66 62.4492 66C62.4492 66 62.4492 66 62.4492 66C62.4492 66 62.4492 66 62.4492 66C62.4492 66 62.4492 66 62.4492 66C62.4492 66 62.4492 66 62.4492 66C62.4492 66 62.4492 66 62.4492 66C62.4492 66 62.4492 66 62.4492 66C62.4492 66 62.4492 66 62.4492 66C62.4492 66 62.4492 66 62.4492 66C62.4492 66 62.4492 66 62.4492 66C62.4492 66 62.4492 66 62.4492 66C62.4492 66 62.4492 66 62.4492 66C62.4492 66 62.4492 66 62.4492 66C62.4492 66 62.4492 66 62.4492 66C62.4492 66 62.4492 66 62.4492 66C62.4492 66 62.4492 66 62.4492 66C62.4492 66 62.4492 66 62.4492 66C62.4492 66 62.4492 66 62.4492 66C62.4492 66 62.4492 66 62.4492 66C62.4492 66 62.4492 66 62.4492 66C62.4492 66 62.4492 66 62.4492 66C62.4492 66 62.4492 66 62.4492 66C62.4492 66 62.4492 66 62.4492 66C62.4492 66 62.4492 66 62.4492 66C62.4492 66 62.4492 66 62.4492 66C62.4492 66 62.4492 66 62.4492 66C62.4492 66 62.4492 66 62.4492 66C62.4492 66 62.4492 66 62.4492 66C62.4492 66 62.4492 66 62.4492 66C62.4492 66 62.4492 66 62.4492 66C62.4492 66 62.4492 66 62.4492 66C62.4492 66 62.4492 66 62.4492 66C62.4492 66 62.4492 66 62.4492 66C62.4492 66 62.4492 66 62.4492 66C62.4492 66 62.4492 66 62.4492 66C62.4492 66 62.4492 66 62.4492 66C62.4492 66 62.4492 66 62.4492 66C62.4492 66 62.4492 66 62.4492 66C62.4492 66 62.4492 66 62.4492 66C62.4492 66 62.4492 66 62.4492 66C62.4492 66 62.4492 66 62.4492 66C62.4492 66 62.4492 66 62.4492 66C62.4492 66 62.4492 66 62.4492 66C62.4492 66 62.4492 66 62.4492 66C62.4492 66 62.4492 66 62.4492 66C62.4492 66 62.4492 66 62.4492 66C62.4492 66 62.4492 66 62.4492 66C62.4492 66 62.4492 66 62.4492 66C62.4492 66 62.4492 66 62.4492 66C62.4492 66 62.4492 66 62.4492 66C62.4492 66 62.4492 66 62.4492 66C62.4492 66 62.4492 66 62.4492 66C62.4492 66 62.4492 66 62.4492 66C62.4492 66 62.4492 66 62.4492 66C62.4492 66 62.4492 66 62.4492 66C62.4492 66 62.4492 66 62.4492 66C62.4492 66 62.4492 66 62.4492 66C62.4492 66 62.4492 66 62.4492 66C62.4492 66 62.4492 66 62.4492 66C62.4492 66 62.4492 66 62.4492 66C62.4492 66 62.4492 66 62.4492 66C62.4492 66 62.4492 66 62.4492 66C62.4492 66 62.4492 66 62.4492 66C62.4492 66 62.4492 66 62.4492 66C62.4492 66 62.4492 66 62.4492 66C62.4492 66 62.4492 66 62.4492 66C62.4492 66 62.4492 66 62.4492 66C62.4492 66 62.4492 66 62.4492 66C62.4492 66 62.4492 66 62.4492 66C62.4492 66 62.4492 66 62.4492 66C62.4492 66 62.4492 66 62.4492 66C62.4492 66 62.4492 66 62.4492 66C62.4492 66 62.4492 66 62.4492 66C62.4492 66 62.4492 66 62.4492 66C62.4492 66 62.4492 66 62.4492 66C62.4492 66 62.4492 66 62.4492 66C62.4492 66 62.4492 66 62.4492 66C62.4492 66 62.4492 66 62.4492 66C62.4492 66 62.4492 66 62.4492 66C62.4492 66 62.4492 66 62.4492 66C62.4492 66 62.4492 66 62.4492 66C62.4492 66 62.4492 66 62.4492 66C62.4492 66 62.4492 66 62.4492 66C62.4492 66 62.4492 66 62.4492 66C62.4492 66 62.4492 66 62.4492 66C62.4492 66 62.4492 66 62.4492 66C62.4492 66 62.4492 66 62.4492 66C62.4492 66 62.4492 66 62.4492 66C62.4492 66 62.4492 66 62.4492 66C62.4492 66 62.4492 66 62.4492 66C62.4492 66 62.4492 66 62.4492 66C62.4492 66 62.4492 66 62.4492 66C62.4492 66 62.4492 66 62.4492 66C62.4492 66 62.4492 66 62.4492 66C62.4492 66 62.4492 66 62.4492 66C62.4492 66 62.4492 66 62.4492 66C62.4492 66 62.4492 66 62.4492 66C62.4492 66 62.4492 66 62.4492 66C62.4492 66 62.4492 66 62.4492 66C62.4492 66 62.4492 66 62.4492 66C62.4492 66 62.4492 66 62.4492 66C62.4492 66 62.4492 66 62.4492 66C62.4492 66 62.4492 66 62.4492 66C62.4492 66 62.4492 66 62.4492 66C62.4492 66 62.4492 66 62.4492 66C62.4492 66 62.4492 66 62.4492 66C62.4492 66 62.4492 66 62.4492 66C62.4492 66 62.4492 66 62.4492 66C62.4492 66 62.4492 66 62.4492 66C62.4492 66 62.4492 66 62.4492 66C62.4492 66 62.4492 66 62.4492 66C62.4492 66 62.4492 66 62.4492 66C62.4492 66 62.4492 66 62.4492 66C62.4492 66 62.4492 66 62.4492 66C62.4492 66 62.4492 66 62.4492 66C62.4492 66 62.4492 66 62.4492 66C62.4492 66 62.4492 66 62.4492 66C62.4492 66 62.4492 66 62.4492 66C62.4492 66 62.4492 66 62.4492 66C62.4492 66 62.4492 66 62.4492 66C62.4492 66 62.4492 66 62.4492 66C62.4492 66 62.4492 66 62.4492 66C62.4492 66 62.4492 66 62.4492 66C62.4492 66 62.4492 66 62.4492 66C62.4492 66 62.4492 66 62.4492 66C62.4492 66 62.4492 66 62.4492 66C62.4492 66 62.4492 66 62.4492 66C62.4492 66 62.4492 66 62.4492 66C62.4492 66 62.4492 66 62.4492 66C62.4492 66 62.4492 66 62.4491 66C62.4491 66 62.4491 66 62.4491 66C62.4491 66 62.4491 66 62.4491 66C62.4491 66 62.4491 66 62.4491 66C62.4491 66 62.4491 66 62.4491 66C62.4491 66 62.4491 66 62.4491 66C62.4491 66 62.4491 66 62.4491 66C62.4491 66 62.4491 66 62.4491 66C62.4491 66 62.4491 66 62.4491 66C62.4491 66 62.4491 66 62.4491 66C62.4491 66 62.4491 66 62.4491 66C62.4491 66 62.4491 66 62.4491 66C62.4491 66 62.4491 66 62.4491 66C62.4491 66 62.4491 66 62.4491 66C62.4491 66 62.4491 66 62.4491 66C62.4491 66 62.4491 66 62.4491 66C62.4491 66 62.4491 66 62.4491 66C62.4491 66 62.4491 66 62.4491 66C62.4491 66 62.4491 66 62.4491 66C62.4491 66 62.4491 66 62.4491 66C62.4491 66 62.4491 66 62.4491 66C62.4491 66 62.4491 66 62.4491 66C62.4491 66 62.4491 66 62.4491 66C62.4491 66 62.4491 66 62.4491 66C62.4491 66 62.4491 66 62.4491 66C62.4491 66 62.4491 66 62.4491 66C62.4491 66 62.4491 66 62.4491 66C62.4491 66 62.4491 66 62.4491 66C62.4491 66 62.4491 66 62.4491 66C62.4491 66 62.4491 66 62.4491 66C62.4491 66 62.4491 66 62.4491 66C62.4491 66 62.4491 66 62.4491 66C62.4491 66 62.4491 66 62.4491 66C62.4491 66 62.4491 66 62.4491 66C62.4491 66 62.4491 66 62.4491 66C62.4491 66 62.4491 66 62.4491 66C62.4491 66 62.4491 66 62.4491 66C62.4491 66 62.4491 66 62.4491 66C62.4491 66 62.4491 66 62.4491 66C62.4491 66 62.4491 66 62.4491 66C62.4491 66 62.4491 66 62.4491 66C62.4491 66 62.4491 66 62.4491 66C62.4491 66 62.4491 66 62.4491 66C62.4491 66 62.4491 66 62.4491 66C62.4491 66 62.4491 66 62.4491 66C62.4491 66 62.4491 66 62.4491 66C62.4491 66 62.4491 66 62.4491 66C62.4491 66 62.4491 66 62.4491 66C62.4491 66 62.4491 66 62.4491 66C62.4491 66 62.4491 66 62.4491 66C62.4491 66 62.4491 66 62.4491 66C62.4491 66 62.4491 66 62.4491 66C62.4491 66 62.4491 66 62.4491 66C62.4491 66 62.4491 66 62.4491 66C62.4491 66 62.4491 66 62.4491 66C62.4491 66 62.4491 66 62.4491 66C62.4491 66 62.4491 66 62.4491 66C62.4491 66 62.4491 66 62.4491 66C62.4491 66 62.4491 66 62.4491 66C62.4491 66 62.4491 66 62.4491 66C62.4491 66 62.4491 66 62.4491 66C62.4491 66 62.4491 66 62.4491 66C62.4491 66 62.4491 66 62.4491 66C62.4491 66 62.4491 66 62.4491 66C62.4491 66 62.4491 66 62.4491 66C62.4491 66 62.4491 66 62.4491 66C62.4491 66 62.4491 66 62.4491 66C62.4491 66 62.4491 66 62.4491 66C62.4491 66 62.4491 66 62.4491 66C62.4491 66 62.4491 66 62.4491 66C62.4491 66 62.4491 66 62.4491 66C62.4491 66 62.4491 66 62.4491 66C62.4491 66 62.4491 66 62.4491 66C62.4491 66 62.4491 66 62.4491 66C62.4491 66 62.4491 66 62.4491 66C62.4491 66 62.4491 66 62.4491 66C62.4491 66 62.4491 66 62.4491 66C62.4491 66 62.4491 66 62.4491 66C62.4491 66 62.4491 66 62.4491 66C62.4491 66 62.4491 66 62.4491 66C62.4491 66 62.4491 66 62.4491 66C62.4491 66 62.4491 66 62.4491 66C62.4491 66 62.4491 66 62.4491 66C62.4491 66 62.4491 66 62.4491 66C62.4491 66 62.4491 66 62.4491 66C62.4491 66 62.4491 66 62.4491 66C62.4491 66 62.4491 66 62.4491 66C62.4491 66 62.4491 66 62.4491 66C62.4491 66 62.4491 66 62.4491 66C62.4491 66 62.4491 66 62.4491 66C62.4491 66 62.4491 66 62.4491 66C62.4491 66 62.4491 66 62.4491 66C62.4491 66 62.4491 66 62.4491 66C62.4491 66 62.4491 66 62.4491 66C62.4491 66 62.4491 66 62.4491 66C62.4491 66 62.4491 66 62.4491 66C62.4491 66 62.4491 66 62.4491 66C62.4491 66 62.4491 66 62.4491 66C62.4491 66 62.4491 66 62.4491 66V70ZM60.4491 68V68.0003H64.4491V68H60.4491ZM62.4491 66.0003H35.0205V70.0003H62.4491V66.0003ZM37.0205 68.0003V67.9964H33.0205V68.0003H37.0205ZM34.6939 70C34.8179 70 34.9416 69.9986 35.065 69.9959L34.976 65.9969C34.8823 65.999 34.7882 66 34.6939 66V70ZM18 53C18 62.3498 25.4354 70 34.6939 70V66C27.7219 66 22 60.2188 22 53H18ZM34.6939 36C25.4354 36 18 43.6502 18 53H22C22 45.7812 27.7219 40 34.6939 40V36ZM42.7318 38.097C40.347 36.7607 37.6054 36 34.6939 36V40C36.9001 40 38.9708 40.5747 40.7765 41.5865L42.7318 38.097ZM62.4495 22C51.7001 22 42.6715 29.3281 39.8308 39.2935L43.6775 40.3901C46.0551 32.0495 53.5822 26 62.4495 26V22ZM86.0005 46C86.0005 32.7842 75.495 22 62.4495 22V26C73.2085 26 82.0005 34.9152 82.0005 46H86.0005Z" fill="black" fill-opacity="0.14"/>
<path fill-rule="evenodd" clip-rule="evenodd" d="M46.8571 76.8947C46.8571 75.8483 46.0088 75 44.9624 75H30.2105C28.9897 75 28 75.9897 28 77.2105C28 78.4314 28.9897 79.4211 30.2105 79.4211H39.3055C40.3519 79.4211 41.2002 80.2694 41.2002 81.3158C41.2002 82.3622 42.0485 83.2105 43.0949 83.2105L49.9912 83.2105C51.0376 83.2105 51.8859 84.0588 51.8859 85.1053C51.8859 86.1517 52.7342 87 53.7807 87L69.7897 87C71.0105 87 72.0002 86.0103 72.0002 84.7895C72.0002 83.5686 71.0105 82.5789 69.7897 82.5789L60.0664 82.5789C59.0199 82.5789 58.1716 81.7261 58.1716 80.6797C58.1716 79.6382 57.3274 78.7895 56.2859 78.7895C55.2445 78.7895 54.4002 77.9407 54.4002 76.8993C54.4002 75.8528 53.5519 75 52.5055 75H51.8949C50.8485 75 50.0002 75.8483 50.0002 76.8947V77.2179C50.0002 78.0859 49.2966 78.7895 48.4287 78.7895C47.5607 78.7895 46.8571 78.0859 46.8571 77.2179V76.8947ZM58.8002 77.2105C58.8002 75.9897 59.7899 75 61.0107 75H69.7897C71.0105 75 72.0002 75.9897 72.0002 77.2105C72.0002 78.4314 71.0105 79.4211 69.7897 79.4211H61.0107C59.7899 79.4211 58.8002 78.4314 58.8002 77.2105ZM40.5716 84.7895C40.5716 86.0103 39.5819 87 38.3611 87L30.2107 87C28.9899 87 28.0002 86.0103 28.0002 84.7895C28.0002 83.5686 28.9899 82.5789 30.2107 82.5789L38.3611 82.5789C39.5819 82.5789 40.5716 83.5686 40.5716 84.7895Z" fill="url(#paint1_linear_407_636)"/>
<path d="M38.3611 82.5789V83.5789V82.5789ZM30.2107 87V88V87ZM69.7897 87V88V87ZM49.9912 83.2105V84.2105V83.2105ZM30.2105 76H44.9624V74H30.2105V76ZM39.3055 78.4211H30.2105V80.4211H39.3055V78.4211ZM49.9912 82.2105L43.0949 82.2105V84.2105L49.9912 84.2105V82.2105ZM69.7897 86L53.7807 86V88L69.7897 88V86ZM60.0664 83.5789L69.7897 83.5789V81.5789L60.0664 81.5789V83.5789ZM51.8949 76H52.5055V74H51.8949V76ZM51.0002 77.2179V76.8947H49.0002V77.2179H51.0002ZM45.8571 76.8947V77.2179H47.8571V76.8947H45.8571ZM69.7897 74H61.0107V76H69.7897V74ZM61.0107 80.4211H69.7897V78.4211H61.0107V80.4211ZM30.2107 88L38.3611 88V86L30.2107 86V88ZM38.3611 81.5789L30.2107 81.5789L30.2107 83.5789H38.3611V81.5789ZM38.3611 83.5789C39.0297 83.5789 39.5716 84.1209 39.5716 84.7895H41.5716C41.5716 83.0163 40.1342 81.5789 38.3611 81.5789V83.5789ZM29.0002 84.7895C29.0002 84.1209 29.5422 83.5789 30.2107 83.5789L30.2107 81.5789C28.4376 81.5789 27.0002 83.0163 27.0002 84.7895H29.0002ZM38.3611 88C40.1342 88 41.5716 86.5626 41.5716 84.7895H39.5716C39.5716 85.458 39.0297 86 38.3611 86V88ZM30.2107 86C29.5422 86 29.0002 85.458 29.0002 84.7895H27.0002C27.0002 86.5626 28.4376 88 30.2107 88V86ZM61.0107 78.4211C60.3422 78.4211 59.8002 77.8791 59.8002 77.2105H57.8002C57.8002 78.9837 59.2376 80.4211 61.0107 80.4211V78.4211ZM71.0002 77.2105C71.0002 77.8791 70.4582 78.4211 69.7897 78.4211V80.4211C71.5628 80.4211 73.0002 78.9836 73.0002 77.2105H71.0002ZM61.0107 74C59.2376 74 57.8002 75.4374 57.8002 77.2105H59.8002C59.8002 76.542 60.3422 76 61.0107 76V74ZM69.7897 76C70.4582 76 71.0002 76.542 71.0002 77.2105H73.0002C73.0002 75.4374 71.5628 74 69.7897 74V76ZM48.4287 77.7895C48.113 77.7895 47.8571 77.5336 47.8571 77.2179H45.8571C45.8571 78.6382 47.0085 79.7895 48.4287 79.7895V77.7895ZM49.0002 77.2179C49.0002 77.5336 48.7443 77.7895 48.4287 77.7895V79.7895C49.8489 79.7895 51.0002 78.6382 51.0002 77.2179H49.0002ZM51.8949 74C50.2962 74 49.0002 75.296 49.0002 76.8947H51.0002C51.0002 76.4006 51.4008 76 51.8949 76V74ZM55.4002 76.8993C55.4002 75.3036 54.1073 74 52.5055 74V76C52.9965 76 53.4002 76.402 53.4002 76.8993H55.4002ZM56.2859 77.7895C55.7999 77.7895 55.4002 77.3915 55.4002 76.8993H53.4002C53.4002 78.4899 54.6891 79.7895 56.2859 79.7895L56.2859 77.7895ZM59.1716 80.6797C59.1716 79.0891 57.8828 77.7895 56.2859 77.7895L56.2859 79.7895C56.772 79.7895 57.1716 80.1874 57.1716 80.6797H59.1716ZM60.0664 81.5789C59.5753 81.5789 59.1716 81.1769 59.1716 80.6797H57.1716C57.1716 82.2753 58.4646 83.5789 60.0664 83.5789V81.5789ZM73.0002 84.7895C73.0002 83.0164 71.5628 81.5789 69.7897 81.5789V83.5789C70.4582 83.5789 71.0002 84.1209 71.0002 84.7895H73.0002ZM69.7897 88C71.5628 88 73.0002 86.5626 73.0002 84.7895H71.0002C71.0002 85.458 70.4582 86 69.7897 86V88ZM50.8859 85.1053C50.8859 86.704 52.1819 88 53.7807 88V86C53.2865 86 52.8859 85.5994 52.8859 85.1053H50.8859ZM49.9912 84.2105C50.4853 84.2105 50.8859 84.6111 50.8859 85.1053H52.8859C52.8859 83.5065 51.5899 82.2105 49.9912 82.2105V84.2105ZM40.2002 81.3158C40.2002 82.9145 41.4962 84.2105 43.0949 84.2105V82.2105C42.6008 82.2105 42.2002 81.8099 42.2002 81.3158H40.2002ZM39.3055 80.4211C39.7996 80.4211 40.2002 80.8216 40.2002 81.3158H42.2002C42.2002 79.7171 40.9042 78.4211 39.3055 78.4211V80.4211ZM27 77.2105C27 78.9837 28.4374 80.4211 30.2105 80.4211V78.4211C29.542 78.4211 29 77.8791 29 77.2105H27ZM44.9624 76C45.4566 76 45.8571 76.4006 45.8571 76.8947H47.8571C47.8571 75.296 46.5611 74 44.9624 74V76ZM30.2105 74C28.4374 74 27 75.4374 27 77.2105H29C29 76.542 29.542 76 30.2105 76V74Z" fill="black" fill-opacity="0.05"/>
<defs>
<linearGradient id="paint0_linear_407_636" x1="42.5308" y1="40.3335" x2="66.3964" y2="58.1921" gradientUnits="userSpaceOnUse">
<stop offset="0.183865" stop-color="#AEADAD"/>
<stop offset="1" stop-color="#9D9D9D"/>
</linearGradient>
<linearGradient id="paint1_linear_407_636" x1="43.4898" y1="79.4545" x2="49.1049" y2="90.0464" gradientUnits="userSpaceOnUse">
<stop offset="0.183865" stop-color="#BABABA"/>
<stop offset="1" stop-color="#919090"/>
</linearGradient>
</defs>
</svg>
