<svg width="100" height="100" viewBox="0 0 100 100" fill="none" xmlns="http://www.w3.org/2000/svg">
<g clip-path="url(#clip0_407_646)">
<path d="M47.5955 12.7537C49.034 11.7488 50.966 11.7488 52.4045 12.7537L54.3949 14.1442C55.295 14.773 56.4148 15.0231 57.5045 14.8387L59.9143 14.431C61.656 14.1364 63.3966 14.9567 64.2471 16.4729L65.4239 18.5707C65.956 19.5194 66.854 20.2202 67.9176 20.5168L70.2695 21.1726C71.9693 21.6466 73.1739 23.1247 73.2679 24.8519L73.3979 27.2416C73.4568 28.3223 73.9551 29.3349 74.7818 30.0537L76.6101 31.6431C77.9314 32.7919 78.3613 34.6351 77.6802 36.2311L76.7378 38.4394C76.3116 39.438 76.3116 40.562 76.7378 41.5606L77.6802 43.7689C78.3613 45.3649 77.9314 47.2081 76.6101 48.3569L74.7818 49.9463C73.9551 50.6651 73.4568 51.6778 73.3979 52.7584L73.2679 55.1481C73.1739 56.8753 71.9693 58.3534 70.2695 58.8274L67.9176 59.4832C66.854 59.7798 65.956 60.4806 65.4239 61.4292L64.2471 63.5271C63.3966 65.0433 61.656 65.8636 59.9143 65.569L57.5045 65.1613C56.4148 64.9769 55.295 65.227 54.3949 65.8558L52.4045 67.2463C50.966 68.2512 49.034 68.2512 47.5955 67.2463L45.6051 65.8558C44.705 65.227 43.5852 64.9769 42.4955 65.1613L40.0857 65.569C38.344 65.8636 36.6034 65.0433 35.7529 63.5271L34.5761 61.4292C34.044 60.4806 33.146 59.7798 32.0824 59.4832L29.7305 58.8274C28.0307 58.3534 26.8261 56.8753 26.7321 55.1481L26.602 52.7584C26.5432 51.6777 26.0449 50.6651 25.2182 49.9463L23.3899 48.3569C22.0686 47.2081 21.6387 45.3649 22.3198 43.7689L23.2622 41.5606C23.6884 40.562 23.6884 39.438 23.2622 38.4394L22.3198 36.2311C21.6387 34.6351 22.0686 32.7919 23.3899 31.6431L25.2182 30.0537C26.0449 29.3349 26.5432 28.3223 26.602 27.2416L26.7321 24.8519C26.8261 23.1247 28.0307 21.6466 29.7305 21.1726L32.0824 20.5168C33.146 20.2202 34.044 19.5194 34.5761 18.5707L35.7529 16.4729C36.6034 14.9567 38.344 14.1364 40.0857 14.431L42.4955 14.8387C43.5852 15.0231 44.705 14.773 45.6051 14.1442L47.5955 12.7537Z" fill="url(#paint0_linear_407_646)" stroke="#833F00" stroke-opacity="0.25" stroke-width="4"/>
<g filter="url(#filter0_f_407_646)">
<circle cx="48" cy="34" r="19" fill="#FFCF54"/>
</g>
<path fill-rule="evenodd" clip-rule="evenodd" d="M82 46C82 58.1503 72.3513 68 60.449 68H33.0204V67.9964C32.9119 67.9988 32.803 68 32.6939 68C24.5787 68 18 61.2843 18 53C18 44.7157 24.5787 38 32.6939 38C35.2526 38 37.6586 38.6676 39.7537 39.8416C42.3629 30.6887 50.6408 24 60.449 24C72.3513 24 82 33.8497 82 46Z" fill="url(#paint1_linear_407_646)"/>
<path d="M33.0204 68H31.0204V70H33.0204V68ZM33.0204 67.9964H35.0204V65.9514L32.9759 65.9969L33.0204 67.9964ZM39.7537 39.8416L38.7761 41.5863L40.9834 42.8231L41.6771 40.3899L39.7537 39.8416ZM60.449 70C73.4945 70 84 59.2158 84 46H80C80 57.0848 71.208 66 60.449 66V70ZM60.449 66H33.0204V70H60.449V66ZM35.0204 68V67.9964H31.0204V68H35.0204ZM32.6939 70C32.8179 70 32.9415 69.9986 33.0649 69.9959L32.9759 65.9969C32.8822 65.9989 32.7881 66 32.6939 66V70ZM16 53C16 62.3498 23.4354 70 32.6939 70V66C25.7219 66 20 60.2188 20 53H16ZM32.6939 36C23.4354 36 16 43.6502 16 53H20C20 45.7812 25.7219 40 32.6939 40V36ZM40.7313 38.0968C38.3466 36.7606 35.6052 36 32.6939 36V40C34.9 40 36.9705 40.5747 38.7761 41.5863L40.7313 38.0968ZM60.449 22C49.6997 22 40.6712 29.3279 37.8303 39.2933L41.6771 40.3899C44.0547 32.0494 51.5818 26 60.449 26V22ZM84 46C84 32.7842 73.4945 22 60.449 22V26C71.208 26 80 34.9152 80 46H84Z" fill="black" fill-opacity="0.07"/>
<path d="M30.9969 76L34.5344 79.5158C35.234 80.2106 35.7105 81.096 35.9037 82.0601C36.0969 83.0241 35.9981 84.0234 35.6197 84.9316C35.2414 85.8398 34.6005 86.6161 33.7782 87.1623C32.9559 87.7085 31.989 88 31 88C30.011 88 29.0441 87.7085 28.2218 87.1623C27.3995 86.6161 26.7586 85.8398 26.3803 84.9316C26.0019 84.0234 25.9031 83.0241 26.0963 82.0601C26.2895 81.096 26.766 80.2106 27.4656 79.5158L30.9969 76Z" fill="url(#paint2_linear_407_646)" stroke="#21204D" stroke-opacity="0.25" stroke-width="2"/>
<path d="M43.9969 76L47.5344 79.5158C48.234 80.2106 48.7105 81.096 48.9037 82.0601C49.0969 83.0241 48.9981 84.0234 48.6197 84.9316C48.2414 85.8398 47.6005 86.6161 46.7782 87.1623C45.9559 87.7085 44.989 88 44 88C43.011 88 42.0441 87.7085 41.2218 87.1623C40.3995 86.6161 39.7586 85.8398 39.3803 84.9316C39.0019 84.0234 38.9031 83.0241 39.0963 82.0601C39.2895 81.096 39.766 80.2106 40.4656 79.5158L43.9969 76Z" fill="url(#paint3_linear_407_646)" stroke="#21204D" stroke-opacity="0.25" stroke-width="2"/>
<path d="M56.9969 76L60.5344 79.5158C61.234 80.2106 61.7105 81.096 61.9037 82.0601C62.0969 83.0241 61.9981 84.0234 61.6197 84.9316C61.2414 85.8398 60.6005 86.6161 59.7782 87.1623C58.9559 87.7085 57.989 88 57 88C56.011 88 55.0441 87.7085 54.2218 87.1623C53.3995 86.6161 52.7586 85.8398 52.3803 84.9316C52.0019 84.0234 51.9031 83.0241 52.0963 82.0601C52.2895 81.096 52.766 80.2106 53.4656 79.5158L56.9969 76Z" fill="url(#paint4_linear_407_646)" stroke="#21204D" stroke-opacity="0.25" stroke-width="2"/>
<path d="M69.9969 76L73.5344 79.5158C74.234 80.2106 74.7105 81.096 74.9037 82.0601C75.0969 83.0241 74.9981 84.0234 74.6197 84.9316C74.2414 85.8398 73.6005 86.6161 72.7782 87.1623C71.9559 87.7085 70.989 88 70 88C69.011 88 68.0441 87.7085 67.2218 87.1623C66.3995 86.6161 65.7586 85.8398 65.3803 84.9316C65.0019 84.0234 64.9031 83.0241 65.0963 82.0601C65.2895 81.096 65.766 80.2106 66.4656 79.5158L69.9969 76Z" fill="url(#paint5_linear_407_646)" stroke="#21204D" stroke-opacity="0.25" stroke-width="2"/>
</g>
<defs>
<filter id="filter0_f_407_646" x="11" y="-3" width="74" height="74" filterUnits="userSpaceOnUse" color-interpolation-filters="sRGB">
<feFlood flood-opacity="0" result="BackgroundImageFix"/>
<feBlend mode="normal" in="SourceGraphic" in2="BackgroundImageFix" result="shape"/>
<feGaussianBlur stdDeviation="9" result="effect1_foregroundBlur_407_646"/>
</filter>
<linearGradient id="paint0_linear_407_646" x1="35" y1="17" x2="63" y2="63" gradientUnits="userSpaceOnUse">
<stop offset="0.165457" stop-color="#F0AA41"/>
<stop offset="1" stop-color="#FF8A00"/>
</linearGradient>
<linearGradient id="paint1_linear_407_646" x1="40.5306" y1="40.3333" x2="64.3961" y2="58.1919" gradientUnits="userSpaceOnUse">
<stop offset="0.183865" stop-color="#ECECEC"/>
<stop offset="1" stop-color="#C4C4C4"/>
</linearGradient>
<linearGradient id="paint2_linear_407_646" x1="31" y1="76" x2="36.1933" y2="84.5861" gradientUnits="userSpaceOnUse">
<stop offset="0.085" stop-color="#C2D8E5"/>
<stop offset="1" stop-color="#8FCCED"/>
</linearGradient>
<linearGradient id="paint3_linear_407_646" x1="44" y1="76" x2="49.1933" y2="84.5861" gradientUnits="userSpaceOnUse">
<stop offset="0.085" stop-color="#C2D8E5"/>
<stop offset="1" stop-color="#8FCCED"/>
</linearGradient>
<linearGradient id="paint4_linear_407_646" x1="57" y1="76" x2="62.1933" y2="84.5861" gradientUnits="userSpaceOnUse">
<stop offset="0.085" stop-color="#C2D8E5"/>
<stop offset="1" stop-color="#8FCCED"/>
</linearGradient>
<linearGradient id="paint5_linear_407_646" x1="70" y1="76" x2="75.1933" y2="84.5861" gradientUnits="userSpaceOnUse">
<stop offset="0.085" stop-color="#C2D8E5"/>
<stop offset="1" stop-color="#8FCCED"/>
</linearGradient>
<clipPath id="clip0_407_646">
<rect width="100" height="100" fill="white"/>
</clipPath>
</defs>
</svg>
