<svg width="100" height="100" viewBox="0 0 100 100" fill="none" xmlns="http://www.w3.org/2000/svg">
<path fill-rule="evenodd" clip-rule="evenodd" d="M82 46C82 58.1503 72.3513 68 60.449 68H33.0204V67.9964C32.9119 67.9988 32.803 68 32.6939 68C24.5787 68 18 61.2843 18 53C18 44.7157 24.5787 38 32.6939 38C35.2526 38 37.6586 38.6676 39.7537 39.8416C42.3629 30.6887 50.6408 24 60.449 24C72.3513 24 82 33.8497 82 46Z" fill="url(#paint0_linear_407_783)"/>
<path d="M33.0204 68H31.0204V70H33.0204V68ZM33.0204 67.9964H35.0204V65.9514L32.9759 65.9969L33.0204 67.9964ZM39.7537 39.8416L38.7761 41.5863L40.9834 42.8231L41.6771 40.3899L39.7537 39.8416ZM60.449 70C73.4945 70 84 59.2158 84 46H80C80 57.0848 71.208 66 60.449 66V70ZM60.449 66H33.0204V70H60.449V66ZM35.0204 68V67.9964H31.0204V68H35.0204ZM32.6939 70C32.8179 70 32.9415 69.9986 33.0649 69.9959L32.9759 65.9969C32.8822 65.9989 32.7881 66 32.6939 66V70ZM16 53C16 62.3498 23.4354 70 32.6939 70V66C25.7219 66 20 60.2188 20 53H16ZM32.6939 36C23.4354 36 16 43.6502 16 53H20C20 45.7812 25.7219 40 32.6939 40V36ZM40.7313 38.0968C38.3466 36.7606 35.6052 36 32.6939 36V40C34.9 40 36.9705 40.5747 38.7761 41.5863L40.7313 38.0968ZM60.449 22C49.6997 22 40.6712 29.3279 37.8303 39.2933L41.6771 40.3899C44.0547 32.0494 51.5818 26 60.449 26V22ZM84 46C84 32.7842 73.4945 22 60.449 22V26C71.208 26 80 34.9152 80 46H84Z" fill="black" fill-opacity="0.07"/>
<path d="M35.9969 76L39.5344 79.5158C40.234 80.2106 40.7105 81.096 40.9037 82.0601C41.0969 83.0241 40.9981 84.0234 40.6197 84.9316C40.2414 85.8398 39.6005 86.6161 38.7782 87.1623C37.9559 87.7085 36.989 88 36 88C35.011 88 34.0441 87.7085 33.2218 87.1623C32.3995 86.6161 31.7586 85.8398 31.3803 84.9316C31.0019 84.0234 30.9031 83.0241 31.0963 82.0601C31.2895 81.096 31.766 80.2106 32.4656 79.5158L35.9969 76Z" fill="url(#paint1_linear_407_783)" stroke="#21204D" stroke-opacity="0.25" stroke-width="2"/>
<path d="M48.9969 76L52.5344 79.5158C53.234 80.2106 53.7105 81.096 53.9037 82.0601C54.0969 83.0241 53.9981 84.0234 53.6197 84.9316C53.2414 85.8398 52.6005 86.6161 51.7782 87.1623C50.9559 87.7085 49.989 88 49 88C48.011 88 47.0441 87.7085 46.2218 87.1623C45.3995 86.6161 44.7586 85.8398 44.3803 84.9316C44.0019 84.0234 43.9031 83.0241 44.0963 82.0601C44.2895 81.096 44.766 80.2106 45.4656 79.5158L48.9969 76Z" fill="url(#paint2_linear_407_783)" stroke="#21204D" stroke-opacity="0.25" stroke-width="2"/>
<mask id="path-5-outside-1_407_783" maskUnits="userSpaceOnUse" x="56" y="75" width="14" height="14" fill="black">
<rect fill="white" x="56" y="75" width="14" height="14"/>
<path fill-rule="evenodd" clip-rule="evenodd" d="M60.841 76.7775C60.681 76.6498 60.6596 76.4145 60.794 76.26C60.9206 76.1146 61.1392 76.0948 61.2898 76.215L61.8826 76.6879C62.1355 76.8897 62.5095 76.7096 62.5095 76.3861C62.5095 76.1729 62.6823 76 62.8956 76H63.1044C63.3176 76 63.4905 76.1729 63.4905 76.3861C63.4905 76.7096 63.8645 76.8897 64.1174 76.6879L64.7102 76.215C64.8608 76.0948 65.0794 76.1146 65.206 76.26C65.3404 76.4145 65.319 76.6498 65.159 76.7775L64.0016 77.7009C63.6786 77.9586 63.4905 78.3493 63.4905 78.7625V78.8013C63.4905 79.8349 64.6139 80.477 65.5046 79.9525C65.8544 79.7464 66.0916 79.3924 66.1491 78.9905L66.3648 77.4829C66.3938 77.2799 66.5878 77.1433 66.7888 77.1843C66.9735 77.2221 67.0968 77.3972 67.0701 77.5838L66.9559 78.3822C66.9109 78.6972 67.25 78.9244 67.5242 78.763C67.707 78.6553 67.9425 78.7184 68.047 78.903L68.1531 79.0905C68.2585 79.2766 68.1952 79.5128 68.0109 79.6213C67.7311 79.7861 67.7615 80.2001 68.0623 80.3223L68.774 80.6114C68.9509 80.6833 69.0418 80.8802 68.9818 81.0615C68.9159 81.2607 68.6952 81.3625 68.5009 81.2836L67.1634 80.7402C66.7709 80.5808 66.3266 80.6134 65.9616 80.8284C65.0686 81.3543 65.0686 82.6458 65.9616 83.1717C66.3266 83.3867 66.7709 83.4193 67.1634 83.2598L68.5009 82.7165C68.6952 82.6375 68.9159 82.7394 68.9818 82.9385C69.0418 83.1199 68.9509 83.3167 68.774 83.3886L68.0623 83.6777C67.7615 83.8 67.7311 84.2139 68.0109 84.3787C68.1952 84.4872 68.2585 84.7234 68.1531 84.9096L68.047 85.097C67.9425 85.2817 67.707 85.3448 67.5242 85.2371C67.25 85.0756 66.9109 85.3029 66.9559 85.6178L67.0701 86.4162C67.0968 86.6028 66.9735 86.778 66.7888 86.8157C66.5878 86.8568 66.3938 86.7201 66.3648 86.5171L66.1491 85.0096C66.0916 84.6076 65.8544 84.2537 65.5046 84.0476C64.6139 83.523 63.4905 84.1652 63.4905 85.1988V85.2375C63.4905 85.6507 63.6786 86.0414 64.0016 86.2991L65.159 87.2225C65.319 87.3502 65.3404 87.5855 65.206 87.74C65.0794 87.8854 64.8608 87.9052 64.7102 87.785L64.1174 87.3121C63.8645 87.1103 63.4905 87.2904 63.4905 87.6139C63.4905 87.8271 63.3176 88 63.1044 88H62.8956C62.6823 88 62.5095 87.8271 62.5095 87.6139C62.5095 87.2904 62.1355 87.1103 61.8826 87.3121L61.2898 87.785C61.1392 87.9052 60.9206 87.8854 60.794 87.74C60.6596 87.5855 60.681 87.3502 60.841 87.2225L61.9984 86.2991C62.3214 86.0414 62.5095 85.6507 62.5095 85.2375V85.1987C62.5095 84.1652 61.3862 83.5231 60.4956 84.0476C60.1458 84.2537 59.9087 84.6076 59.8512 85.0095L59.6355 86.5171C59.6064 86.7201 59.4124 86.8568 59.2115 86.8157C59.0268 86.778 58.9034 86.6028 58.9301 86.4162L59.0443 85.6178C59.0894 85.3029 58.7502 85.0756 58.4761 85.2371C58.2933 85.3448 58.0577 85.2817 57.9532 85.097L57.8471 84.9096C57.7418 84.7234 57.8051 84.4872 57.9894 84.3787C58.2691 84.2139 58.2388 83.7999 57.938 83.6777L57.2263 83.3886C57.0493 83.3167 56.9584 83.1199 57.0185 82.9385C57.0844 82.7394 57.305 82.6375 57.4994 82.7165L58.8368 83.2598C59.2293 83.4193 59.6737 83.3867 60.0387 83.1717C60.9316 82.6458 60.9316 81.3543 60.0387 80.8284C59.6737 80.6134 59.2293 80.5808 58.8368 80.7402L57.4994 81.2836C57.305 81.3625 57.0844 81.2607 57.0185 81.0615C56.9584 80.8802 57.0493 80.6833 57.2263 80.6114L57.938 80.3223C58.2388 80.2001 58.2691 79.7861 57.9894 79.6213C57.8051 79.5128 57.7418 79.2766 57.8471 79.0905L57.9532 78.903C58.0577 78.7184 58.2933 78.6553 58.4761 78.763C58.7502 78.9244 59.0894 78.6971 59.0443 78.3822L58.9301 77.5838C58.9034 77.3972 59.0268 77.2221 59.2115 77.1843C59.4124 77.1433 59.6064 77.2799 59.6355 77.4829L59.8512 78.9905C59.9087 79.3924 60.1458 79.7464 60.4956 79.9524C61.3862 80.4769 62.5095 79.8349 62.5095 78.8013V78.7625C62.5095 78.3493 62.3214 77.9586 61.9984 77.7009L60.841 76.7775Z"/>
</mask>
<path fill-rule="evenodd" clip-rule="evenodd" d="M60.841 76.7775C60.681 76.6498 60.6596 76.4145 60.794 76.26C60.9206 76.1146 61.1392 76.0948 61.2898 76.215L61.8826 76.6879C62.1355 76.8897 62.5095 76.7096 62.5095 76.3861C62.5095 76.1729 62.6823 76 62.8956 76H63.1044C63.3176 76 63.4905 76.1729 63.4905 76.3861C63.4905 76.7096 63.8645 76.8897 64.1174 76.6879L64.7102 76.215C64.8608 76.0948 65.0794 76.1146 65.206 76.26C65.3404 76.4145 65.319 76.6498 65.159 76.7775L64.0016 77.7009C63.6786 77.9586 63.4905 78.3493 63.4905 78.7625V78.8013C63.4905 79.8349 64.6139 80.477 65.5046 79.9525C65.8544 79.7464 66.0916 79.3924 66.1491 78.9905L66.3648 77.4829C66.3938 77.2799 66.5878 77.1433 66.7888 77.1843C66.9735 77.2221 67.0968 77.3972 67.0701 77.5838L66.9559 78.3822C66.9109 78.6972 67.25 78.9244 67.5242 78.763C67.707 78.6553 67.9425 78.7184 68.047 78.903L68.1531 79.0905C68.2585 79.2766 68.1952 79.5128 68.0109 79.6213C67.7311 79.7861 67.7615 80.2001 68.0623 80.3223L68.774 80.6114C68.9509 80.6833 69.0418 80.8802 68.9818 81.0615C68.9159 81.2607 68.6952 81.3625 68.5009 81.2836L67.1634 80.7402C66.7709 80.5808 66.3266 80.6134 65.9616 80.8284C65.0686 81.3543 65.0686 82.6458 65.9616 83.1717C66.3266 83.3867 66.7709 83.4193 67.1634 83.2598L68.5009 82.7165C68.6952 82.6375 68.9159 82.7394 68.9818 82.9385C69.0418 83.1199 68.9509 83.3167 68.774 83.3886L68.0623 83.6777C67.7615 83.8 67.7311 84.2139 68.0109 84.3787C68.1952 84.4872 68.2585 84.7234 68.1531 84.9096L68.047 85.097C67.9425 85.2817 67.707 85.3448 67.5242 85.2371C67.25 85.0756 66.9109 85.3029 66.9559 85.6178L67.0701 86.4162C67.0968 86.6028 66.9735 86.778 66.7888 86.8157C66.5878 86.8568 66.3938 86.7201 66.3648 86.5171L66.1491 85.0096C66.0916 84.6076 65.8544 84.2537 65.5046 84.0476C64.6139 83.523 63.4905 84.1652 63.4905 85.1988V85.2375C63.4905 85.6507 63.6786 86.0414 64.0016 86.2991L65.159 87.2225C65.319 87.3502 65.3404 87.5855 65.206 87.74C65.0794 87.8854 64.8608 87.9052 64.7102 87.785L64.1174 87.3121C63.8645 87.1103 63.4905 87.2904 63.4905 87.6139C63.4905 87.8271 63.3176 88 63.1044 88H62.8956C62.6823 88 62.5095 87.8271 62.5095 87.6139C62.5095 87.2904 62.1355 87.1103 61.8826 87.3121L61.2898 87.785C61.1392 87.9052 60.9206 87.8854 60.794 87.74C60.6596 87.5855 60.681 87.3502 60.841 87.2225L61.9984 86.2991C62.3214 86.0414 62.5095 85.6507 62.5095 85.2375V85.1987C62.5095 84.1652 61.3862 83.5231 60.4956 84.0476C60.1458 84.2537 59.9087 84.6076 59.8512 85.0095L59.6355 86.5171C59.6064 86.7201 59.4124 86.8568 59.2115 86.8157C59.0268 86.778 58.9034 86.6028 58.9301 86.4162L59.0443 85.6178C59.0894 85.3029 58.7502 85.0756 58.4761 85.2371C58.2933 85.3448 58.0577 85.2817 57.9532 85.097L57.8471 84.9096C57.7418 84.7234 57.8051 84.4872 57.9894 84.3787C58.2691 84.2139 58.2388 83.7999 57.938 83.6777L57.2263 83.3886C57.0493 83.3167 56.9584 83.1199 57.0185 82.9385C57.0844 82.7394 57.305 82.6375 57.4994 82.7165L58.8368 83.2598C59.2293 83.4193 59.6737 83.3867 60.0387 83.1717C60.9316 82.6458 60.9316 81.3543 60.0387 80.8284C59.6737 80.6134 59.2293 80.5808 58.8368 80.7402L57.4994 81.2836C57.305 81.3625 57.0844 81.2607 57.0185 81.0615C56.9584 80.8802 57.0493 80.6833 57.2263 80.6114L57.938 80.3223C58.2388 80.2001 58.2691 79.7861 57.9894 79.6213C57.8051 79.5128 57.7418 79.2766 57.8471 79.0905L57.9532 78.903C58.0577 78.7184 58.2933 78.6553 58.4761 78.763C58.7502 78.9244 59.0894 78.6971 59.0443 78.3822L58.9301 77.5838C58.9034 77.3972 59.0268 77.2221 59.2115 77.1843C59.4124 77.1433 59.6064 77.2799 59.6355 77.4829L59.8512 78.9905C59.9087 79.3924 60.1458 79.7464 60.4956 79.9524C61.3862 80.4769 62.5095 79.8349 62.5095 78.8013V78.7625C62.5095 78.3493 62.3214 77.9586 61.9984 77.7009L60.841 76.7775Z" fill="url(#paint3_linear_407_783)"/>
<path d="M61.9984 77.7009L61.6242 78.1699L61.9984 77.7009ZM59.8512 78.9905L59.2572 79.0755L59.8512 78.9905ZM59.0443 78.3822L59.6383 78.2972L59.0443 78.3822ZM57.9532 78.903L57.4311 78.6075L57.9532 78.903ZM57.8471 79.0905L57.325 78.795L57.8471 79.0905ZM57.938 80.3223L57.7121 79.7664L57.938 80.3223ZM57.2263 80.6114L57.4521 81.1673L57.2263 80.6114ZM57.4994 81.2836L57.7252 81.8395L57.4994 81.2836ZM58.8368 80.7402L58.611 80.1843L58.8368 80.7402ZM58.8368 83.2598L59.0627 82.7039L58.8368 83.2598ZM57.4994 82.7165L57.2735 83.2724L57.4994 82.7165ZM57.2263 83.3886L57.0005 83.9445L57.2263 83.3886ZM57.938 83.6777L57.7121 84.2336L57.938 83.6777ZM57.8471 84.9096L58.3693 84.614L57.8471 84.9096ZM57.9532 85.097L57.4311 85.3925L57.9532 85.097ZM59.0443 85.6178L59.6383 85.7028L59.0443 85.6178ZM58.9301 86.4162L58.3362 86.3312L58.9301 86.4162ZM59.6355 86.5171L59.0415 86.4321L59.6355 86.5171ZM61.9984 86.2991L62.3726 86.7681L61.9984 86.2991ZM60.841 87.2225L61.2152 87.6915L60.841 87.2225ZM61.2898 87.785L61.664 88.254L61.2898 87.785ZM61.8826 87.3121L62.2568 87.7811L61.8826 87.3121ZM64.1174 87.3121L63.7432 87.7811L64.1174 87.3121ZM64.7102 87.785L64.336 88.254L64.7102 87.785ZM65.159 87.2225L64.7848 87.6915L65.159 87.2225ZM66.1491 85.0096L66.743 84.9246L66.1491 85.0096ZM66.3648 86.5171L66.9587 86.4321L66.3648 86.5171ZM67.0701 86.4162L66.4762 86.5012L67.0701 86.4162ZM68.047 85.097L67.5249 84.8015L68.047 85.097ZM68.1531 84.9096L68.6753 85.2051L68.1531 84.9096ZM68.0623 83.6777L67.8365 83.1219L68.0623 83.6777ZM68.774 83.3886L68.9998 83.9445L68.774 83.3886ZM68.5009 82.7165L68.2751 82.1606L68.5009 82.7165ZM67.1634 83.2598L66.9376 82.7039L67.1634 83.2598ZM67.1634 80.7402L66.9376 81.2961L67.1634 80.7402ZM68.5009 81.2836L68.7267 80.7277L68.5009 81.2836ZM68.774 80.6114L68.9998 80.0555L68.774 80.6114ZM68.0623 80.3223L67.8365 80.8782L68.0623 80.3223ZM68.1531 79.0905L68.6753 78.795L68.1531 79.0905ZM68.047 78.903L67.5249 79.1986L68.047 78.903ZM66.9559 78.3822L66.362 78.2972L66.9559 78.3822ZM67.0701 77.5838L67.6641 77.6688L67.0701 77.5838ZM66.3648 77.4829L66.9587 77.5679L66.3648 77.4829ZM66.1491 78.9905L65.5551 78.9055L66.1491 78.9905ZM65.159 76.7775L65.5332 77.2465L65.159 76.7775ZM64.7102 76.215L64.336 75.746L64.7102 76.215ZM64.1174 76.6879L64.4916 77.1569L64.1174 76.6879ZM61.8826 76.6879L62.2568 76.2189L61.8826 76.6879ZM61.2898 76.215L61.664 75.746L61.2898 76.215ZM62.2568 76.2189L61.664 75.746L60.9156 76.684L61.5084 77.1569L62.2568 76.2189ZM63.1044 75.4H62.8956V76.6H63.1044V75.4ZM64.336 75.746L63.7432 76.2189L64.4916 77.1569L65.0844 76.684L64.336 75.746ZM64.3758 78.1699L65.5332 77.2465L64.7848 76.3085L63.6274 77.2318L64.3758 78.1699ZM64.0905 78.8013V78.7625H62.8905V78.8013H64.0905ZM65.7708 77.398L65.5551 78.9055L66.7431 79.0754L66.9587 77.5679L65.7708 77.398ZM67.5499 78.4672L67.6641 77.6688L66.4762 77.4989L66.362 78.2972L67.5499 78.4672ZM68.6753 78.795L68.5692 78.6075L67.5249 79.1986L67.631 79.386L68.6753 78.795ZM68.9998 80.0555L68.2881 79.7664L67.8365 80.8782L68.5481 81.1673L68.9998 80.0555ZM66.9376 81.2961L68.2751 81.8395L68.7267 80.7277L67.3892 80.1843L66.9376 81.2961ZM67.3892 83.8157L68.7267 83.2724L68.2751 82.1606L66.9376 82.7039L67.3892 83.8157ZM68.5481 82.8328L67.8365 83.1219L68.2881 84.2336L68.9998 83.9445L68.5481 82.8328ZM67.631 84.614L67.5249 84.8015L68.5692 85.3925L68.6753 85.2051L67.631 84.614ZM66.362 85.7028L66.4762 86.5012L67.6641 86.3312L67.5499 85.5329L66.362 85.7028ZM66.9587 86.4321L66.743 84.9246L65.5551 85.0946L65.7708 86.6021L66.9587 86.4321ZM64.0905 85.2375V85.1988H62.8905V85.2375H64.0905ZM65.5332 86.7535L64.3758 85.8301L63.6274 86.7681L64.7848 87.6915L65.5332 86.7535ZM63.7432 87.7811L64.336 88.254L65.0844 87.316L64.4916 86.8431L63.7432 87.7811ZM62.8956 88.6H63.1044V87.4H62.8956V88.6ZM61.664 88.254L62.2568 87.7811L61.5084 86.8431L60.9156 87.316L61.664 88.254ZM61.6242 85.8301L60.4668 86.7535L61.2152 87.6915L62.3726 86.7681L61.6242 85.8301ZM61.9095 85.1987V85.2375H63.1095V85.1987H61.9095ZM60.2294 86.6021L60.4451 85.0945L59.2572 84.9245L59.0415 86.4321L60.2294 86.6021ZM58.4504 85.5329L58.3362 86.3312L59.5241 86.5012L59.6383 85.7028L58.4504 85.5329ZM57.325 85.2051L57.4311 85.3925L58.4754 84.8015L58.3693 84.614L57.325 85.2051ZM57.0005 83.9445L57.7121 84.2336L58.1638 83.1219L57.4521 82.8328L57.0005 83.9445ZM59.0627 82.7039L57.7252 82.1606L57.2735 83.2724L58.611 83.8157L59.0627 82.7039ZM58.611 80.1843L57.2735 80.7277L57.7252 81.8395L59.0627 81.2961L58.611 80.1843ZM57.4521 81.1673L58.1638 80.8782L57.7121 79.7664L57.0005 80.0555L57.4521 81.1673ZM58.3693 79.386L58.4754 79.1986L57.4311 78.6075L57.325 78.795L58.3693 79.386ZM59.6383 78.2972L59.5241 77.4989L58.3362 77.6688L58.4504 78.4672L59.6383 78.2972ZM59.0415 77.5679L59.2572 79.0755L60.4451 78.9056L60.2294 77.398L59.0415 77.5679ZM61.9095 78.7625V78.8013H63.1095V78.7625H61.9095ZM60.4668 77.2465L61.6242 78.1699L62.3726 77.2319L61.2152 76.3085L60.4668 77.2465ZM63.1095 78.7625C63.1095 78.1668 62.8383 77.6034 62.3726 77.2319L61.6242 78.1699C61.8045 78.3138 61.9095 78.5319 61.9095 78.7625H63.1095ZM60.1911 80.4694C61.4817 81.2295 63.1095 80.2991 63.1095 78.8013H61.9095C61.9095 79.3707 61.2907 79.7244 60.8001 79.4354L60.1911 80.4694ZM59.2572 79.0755C59.3405 79.6579 59.6842 80.1708 60.1911 80.4694L60.8001 79.4354C60.6074 79.3219 60.4768 79.127 60.4451 78.9056L59.2572 79.0755ZM59.3316 77.7722C59.1941 77.8003 59.0614 77.7068 59.0415 77.5679L60.2294 77.398C60.1515 76.853 59.6307 76.4863 59.0914 76.5965L59.3316 77.7722ZM59.5241 77.4989C59.5423 77.6266 59.458 77.7464 59.3316 77.7722L59.0914 76.5965C58.5955 76.6978 58.2645 77.1679 58.3362 77.6688L59.5241 77.4989ZM58.1716 79.2799C58.8791 79.6967 59.7546 79.1101 59.6383 78.2972L58.4504 78.4672C58.4242 78.2842 58.6213 78.1521 58.7806 78.246L58.1716 79.2799ZM58.4754 79.1986C58.4147 79.3058 58.2778 79.3425 58.1716 79.2799L58.7806 78.246C58.3088 77.9681 57.7008 78.131 57.4311 78.6075L58.4754 79.1986ZM58.2938 79.1044C58.3916 79.1619 58.4252 79.2873 58.3693 79.386L57.325 78.795C57.0584 79.266 57.2185 79.8637 57.6849 80.1383L58.2938 79.1044ZM58.1638 80.8782C58.925 80.5689 59.0018 79.5213 58.2938 79.1044L57.6849 80.1383C57.5364 80.0509 57.5525 79.8313 57.7121 79.7664L58.1638 80.8782ZM57.5881 80.8729C57.6273 80.9915 57.5679 81.1203 57.4521 81.1673L57.0005 80.0555C56.5307 80.2464 56.2895 80.7688 56.4489 81.2501L57.5881 80.8729ZM57.2735 80.7277C57.4006 80.6761 57.5449 80.7427 57.5881 80.8729L56.4489 81.2501C56.6239 81.7786 57.2094 82.049 57.7252 81.8395L57.2735 80.7277ZM60.3432 80.3114C59.8171 80.0015 59.1767 79.9546 58.611 80.1843L59.0627 81.2961C59.282 81.207 59.5302 81.2252 59.7342 81.3454L60.3432 80.3114ZM60.3432 83.6887C61.6301 82.9307 61.6301 81.0693 60.3432 80.3114L59.7342 81.3454C60.2331 81.6392 60.2331 82.3608 59.7342 82.6547L60.3432 83.6887ZM58.611 83.8157C59.1767 84.0455 59.8171 83.9985 60.3432 83.6887L59.7342 82.6547C59.5302 82.7748 59.282 82.793 59.0627 82.7039L58.611 83.8157ZM57.5881 83.1271C57.5449 83.2574 57.4006 83.324 57.2735 83.2724L57.7252 82.1606C57.2094 81.951 56.6239 82.2214 56.4489 82.7499L57.5881 83.1271ZM57.4521 82.8328C57.5679 82.8798 57.6273 83.0085 57.5881 83.1271L56.4489 82.7499C56.2895 83.2313 56.5307 83.7537 57.0005 83.9445L57.4521 82.8328ZM58.2938 84.8957C59.0018 84.4787 58.925 83.4311 58.1638 83.1219L57.7121 84.2336C57.5525 84.1688 57.5364 83.9491 57.6849 83.8617L58.2938 84.8957ZM58.3693 84.614C58.4252 84.7128 58.3916 84.8381 58.2938 84.8957L57.6849 83.8617C57.2185 84.1364 57.0584 84.7341 57.325 85.2051L58.3693 84.614ZM58.1716 84.7201C58.2778 84.6575 58.4147 84.6942 58.4754 84.8015L57.4311 85.3925C57.7008 85.8691 58.3088 86.032 58.7806 85.7541L58.1716 84.7201ZM59.6383 85.7028C59.7546 84.8899 58.8791 84.3034 58.1716 84.7201L58.7806 85.7541C58.6213 85.8479 58.4242 85.7159 58.4504 85.5329L59.6383 85.7028ZM59.3316 86.2279C59.458 86.2537 59.5423 86.3735 59.5241 86.5012L58.3362 86.3312C58.2645 86.8322 58.5955 87.3023 59.0914 87.4036L59.3316 86.2279ZM59.0415 86.4321C59.0614 86.2933 59.1941 86.1998 59.3316 86.2279L59.0914 87.4036C59.6307 87.5138 60.1515 87.147 60.2294 86.6021L59.0415 86.4321ZM60.1911 83.5306C59.6842 83.8292 59.3405 84.3421 59.2572 84.9245L60.4451 85.0945C60.4768 84.8731 60.6074 84.6781 60.8001 84.5646L60.1911 83.5306ZM63.1095 85.1987C63.1095 83.701 61.4817 82.7706 60.1911 83.5306L60.8001 84.5646C61.2907 84.2757 61.9095 84.6294 61.9095 85.1987H63.1095ZM62.3726 86.7681C62.8383 86.3966 63.1095 85.8333 63.1095 85.2375H61.9095C61.9095 85.4681 61.8045 85.6862 61.6242 85.8301L62.3726 86.7681ZM61.2466 87.346C61.3363 87.4491 61.3221 87.6063 61.2152 87.6915L60.4668 86.7535C60.0399 87.0941 59.9828 87.7219 60.3415 88.1339L61.2466 87.346ZM60.9156 87.316C61.0162 87.2358 61.1621 87.249 61.2466 87.346L60.3415 88.1339C60.679 88.5217 61.2621 88.5747 61.664 88.254L60.9156 87.316ZM63.1095 87.6139C63.1095 86.7877 62.1543 86.3278 61.5084 86.8431L62.2568 87.7811C62.1167 87.8929 61.9095 87.7931 61.9095 87.6139H63.1095ZM62.8956 87.4C63.0137 87.4 63.1095 87.4958 63.1095 87.6139H61.9095C61.9095 88.1585 62.351 88.6 62.8956 88.6V87.4ZM62.8905 87.6139C62.8905 87.4958 62.9863 87.4 63.1044 87.4V88.6C63.649 88.6 64.0905 88.1585 64.0905 87.6139H62.8905ZM64.4916 86.8431C63.8457 86.3278 62.8905 86.7877 62.8905 87.6139H64.0905C64.0905 87.7931 63.8833 87.8929 63.7432 87.7811L64.4916 86.8431ZM64.7534 87.346C64.8379 87.249 64.9838 87.2358 65.0844 87.316L64.336 88.254C64.7378 88.5747 65.321 88.5217 65.6585 88.1339L64.7534 87.346ZM64.7848 87.6915C64.6779 87.6063 64.6637 87.4491 64.7534 87.346L65.6585 88.1339C66.0172 87.7219 65.9601 87.0941 65.5332 86.7535L64.7848 87.6915ZM62.8905 85.2375C62.8905 85.8332 63.1617 86.3966 63.6274 86.7681L64.3758 85.8301C64.1955 85.6863 64.0905 85.4681 64.0905 85.2375H62.8905ZM65.8091 83.5306C64.5184 82.7705 62.8905 83.701 62.8905 85.1988H64.0905C64.0905 84.6294 64.7094 84.2756 65.2001 84.5646L65.8091 83.5306ZM66.743 84.9246C66.6597 84.3422 66.316 83.8292 65.8091 83.5306L65.2001 84.5646C65.3928 84.6781 65.5235 84.8731 65.5551 85.0946L66.743 84.9246ZM66.6687 86.2279C66.8061 86.1998 66.9389 86.2933 66.9587 86.4321L65.7708 86.6021C65.8488 87.147 66.3696 87.5138 66.9089 87.4036L66.6687 86.2279ZM66.4762 86.5012C66.4579 86.3735 66.5423 86.2537 66.6687 86.2279L66.9089 87.4036C67.4047 87.3023 67.7358 86.8322 67.6641 86.3312L66.4762 86.5012ZM67.8287 84.7201C67.1211 84.3034 66.2457 84.8899 66.362 85.7028L67.5499 85.5329C67.5761 85.7159 67.379 85.8479 67.2197 85.7541L67.8287 84.7201ZM67.5249 84.8015C67.5856 84.6942 67.7224 84.6575 67.8287 84.7201L67.2197 85.7541C67.6915 86.032 68.2995 85.8691 68.5692 85.3925L67.5249 84.8015ZM67.7064 84.8957C67.6086 84.8381 67.5751 84.7128 67.631 84.614L68.6753 85.2051C68.9419 84.7341 68.7817 84.1364 68.3154 83.8617L67.7064 84.8957ZM67.8365 83.1219C67.0753 83.4311 66.9984 84.4787 67.7064 84.8957L68.3154 83.8617C68.4638 83.9491 68.4477 84.1688 68.2881 84.2336L67.8365 83.1219ZM68.4122 83.1271C68.3729 83.0085 68.4324 82.8798 68.5481 82.8328L68.9998 83.9445C69.4695 83.7537 69.7108 83.2313 69.5514 82.7499L68.4122 83.1271ZM68.7267 83.2724C68.5996 83.324 68.4553 83.2574 68.4122 83.1271L69.5514 82.7499C69.3764 82.2214 68.7909 81.951 68.2751 82.1606L68.7267 83.2724ZM65.6571 83.6887C66.1831 83.9985 66.8236 84.0455 67.3892 83.8157L66.9376 82.7039C66.7183 82.793 66.47 82.7748 66.2661 82.6547L65.6571 83.6887ZM65.6571 80.3114C64.3701 81.0693 64.3701 82.9307 65.6571 83.6887L66.2661 82.6547C65.7671 82.3608 65.7671 81.6392 66.2661 81.3454L65.6571 80.3114ZM67.3892 80.1843C66.8236 79.9546 66.1831 80.0015 65.6571 80.3114L66.2661 81.3454C66.47 81.2252 66.7183 81.207 66.9376 81.2961L67.3892 80.1843ZM68.4122 80.8729C68.4553 80.7427 68.5996 80.6761 68.7267 80.7277L68.2751 81.8395C68.7909 82.049 69.3764 81.7786 69.5514 81.2501L68.4122 80.8729ZM68.5481 81.1673C68.4324 81.1203 68.3729 80.9915 68.4122 80.8729L69.5514 81.2501C69.7108 80.7688 69.4695 80.2464 68.9998 80.0555L68.5481 81.1673ZM67.7064 79.1044C66.9984 79.5213 67.0753 80.5689 67.8365 80.8782L68.2881 79.7664C68.4477 79.8313 68.4638 80.0509 68.3154 80.1383L67.7064 79.1044ZM67.631 79.386C67.5751 79.2873 67.6086 79.1619 67.7064 79.1044L68.3154 80.1383C68.7817 79.8637 68.9419 79.266 68.6753 78.795L67.631 79.386ZM67.8287 79.2799C67.7224 79.3425 67.5856 79.3058 67.5249 79.1986L68.5692 78.6075C68.2995 78.131 67.6915 77.9681 67.2197 78.246L67.8287 79.2799ZM66.362 78.2972C66.2457 79.1101 67.1211 79.6967 67.8287 79.2799L67.2197 78.246C67.379 78.1521 67.5761 78.2842 67.5499 78.4672L66.362 78.2972ZM66.6687 77.7722C66.5423 77.7464 66.4579 77.6266 66.4762 77.4989L67.6641 77.6688C67.7358 77.1679 67.4047 76.6978 66.9089 76.5965L66.6687 77.7722ZM66.9587 77.5679C66.9389 77.7068 66.8061 77.8003 66.6687 77.7722L66.9089 76.5965C66.3696 76.4863 65.8488 76.853 65.7708 77.398L66.9587 77.5679ZM65.8091 80.4694C66.316 80.1708 66.6597 79.6579 66.7431 79.0754L65.5551 78.9055C65.5235 79.1269 65.3928 79.3219 65.2001 79.4355L65.8091 80.4694ZM62.8905 78.8013C62.8905 80.2991 64.5184 81.2296 65.8091 80.4694L65.2001 79.4355C64.7094 79.7244 64.0905 79.3707 64.0905 78.8013H62.8905ZM63.6274 77.2318C63.1617 77.6034 62.8905 78.1668 62.8905 78.7625H64.0905C64.0905 78.5319 64.1955 78.3137 64.3758 78.1699L63.6274 77.2318ZM64.7534 76.654C64.6637 76.5508 64.6779 76.3937 64.7848 76.3085L65.5332 77.2465C65.9601 76.9059 66.0172 76.2781 65.6585 75.8661L64.7534 76.654ZM65.0844 76.684C64.9838 76.7642 64.8379 76.751 64.7534 76.654L65.6585 75.8661C65.321 75.4783 64.7378 75.4253 64.336 75.746L65.0844 76.684ZM62.8905 76.3861C62.8905 77.2123 63.8457 77.6722 64.4916 77.1569L63.7432 76.2189C63.8833 76.1071 64.0905 76.2069 64.0905 76.3861H62.8905ZM63.1044 76.6C62.9863 76.6 62.8905 76.5042 62.8905 76.3861H64.0905C64.0905 75.8415 63.649 75.4 63.1044 75.4V76.6ZM63.1095 76.3861C63.1095 76.5042 63.0137 76.6 62.8956 76.6V75.4C62.351 75.4 61.9095 75.8415 61.9095 76.3861H63.1095ZM61.5084 77.1569C62.1543 77.6722 63.1095 77.2123 63.1095 76.3861H61.9095C61.9095 76.2069 62.1167 76.1071 62.2568 76.2189L61.5084 77.1569ZM60.3415 75.8661C59.9828 76.2781 60.0399 76.9059 60.4668 77.2465L61.2152 76.3085C61.3221 76.3937 61.3363 76.5509 61.2466 76.654L60.3415 75.8661ZM61.2466 76.654C61.1621 76.751 61.0162 76.7642 60.9156 76.684L61.664 75.746C61.2621 75.4253 60.679 75.4783 60.3415 75.8661L61.2466 76.654Z" fill="#36426F" fill-opacity="0.15" mask="url(#path-5-outside-1_407_783)"/>
<path fill-rule="evenodd" clip-rule="evenodd" d="M82 46C82 58.1503 72.3513 68 60.449 68H33.0204V67.9964C32.9119 67.9988 32.803 68 32.6939 68C24.5787 68 18 61.2843 18 53C18 44.7157 24.5787 38 32.6939 38C35.2526 38 37.6586 38.6676 39.7537 39.8416C42.3629 30.6887 50.6408 24 60.449 24C72.3513 24 82 33.8497 82 46Z" fill="url(#paint4_linear_407_783)"/>
<path d="M33.0204 68H31.0204V70H33.0204V68ZM33.0204 67.9964H35.0204V65.9514L32.9759 65.9969L33.0204 67.9964ZM39.7537 39.8416L38.7761 41.5863L40.9834 42.8231L41.6771 40.3899L39.7537 39.8416ZM60.449 70C73.4945 70 84 59.2158 84 46H80C80 57.0848 71.208 66 60.449 66V70ZM60.449 66H33.0204V70H60.449V66ZM35.0204 68V67.9964H31.0204V68H35.0204ZM32.6939 70C32.8179 70 32.9415 69.9986 33.0649 69.9959L32.9759 65.9969C32.8822 65.9989 32.7881 66 32.6939 66V70ZM16 53C16 62.3498 23.4354 70 32.6939 70V66C25.7219 66 20 60.2188 20 53H16ZM32.6939 36C23.4354 36 16 43.6502 16 53H20C20 45.7812 25.7219 40 32.6939 40V36ZM40.7313 38.0968C38.3466 36.7606 35.6052 36 32.6939 36V40C34.9 40 36.9705 40.5747 38.7761 41.5863L40.7313 38.0968ZM60.449 22C49.6997 22 40.6712 29.3279 37.8303 39.2933L41.6771 40.3899C44.0547 32.0494 51.5818 26 60.449 26V22ZM84 46C84 32.7842 73.4945 22 60.449 22V26C71.208 26 80 34.9152 80 46H84Z" fill="black" fill-opacity="0.07"/>
<path d="M35.9969 76L39.5344 79.5158C40.234 80.2106 40.7105 81.096 40.9037 82.0601C41.0969 83.0241 40.9981 84.0234 40.6197 84.9316C40.2414 85.8398 39.6005 86.6161 38.7782 87.1623C37.9559 87.7085 36.989 88 36 88C35.011 88 34.0441 87.7085 33.2218 87.1623C32.3995 86.6161 31.7586 85.8398 31.3803 84.9316C31.0019 84.0234 30.9031 83.0241 31.0963 82.0601C31.2895 81.096 31.766 80.2106 32.4656 79.5158L35.9969 76Z" fill="url(#paint5_linear_407_783)" stroke="#21204D" stroke-opacity="0.25" stroke-width="2"/>
<path d="M48.9969 76L52.5344 79.5158C53.234 80.2106 53.7105 81.096 53.9037 82.0601C54.0969 83.0241 53.9981 84.0234 53.6197 84.9316C53.2414 85.8398 52.6005 86.6161 51.7782 87.1623C50.9559 87.7085 49.989 88 49 88C48.011 88 47.0441 87.7085 46.2218 87.1623C45.3995 86.6161 44.7586 85.8398 44.3803 84.9316C44.0019 84.0234 43.9031 83.0241 44.0963 82.0601C44.2895 81.096 44.766 80.2106 45.4656 79.5158L48.9969 76Z" fill="url(#paint6_linear_407_783)" stroke="#21204D" stroke-opacity="0.25" stroke-width="2"/>
<mask id="path-11-outside-2_407_783" maskUnits="userSpaceOnUse" x="56" y="75" width="14" height="14" fill="black">
<rect fill="white" x="56" y="75" width="14" height="14"/>
<path fill-rule="evenodd" clip-rule="evenodd" d="M60.841 76.7775C60.681 76.6498 60.6596 76.4145 60.794 76.26C60.9206 76.1146 61.1392 76.0948 61.2898 76.215L61.8826 76.6879C62.1355 76.8897 62.5095 76.7096 62.5095 76.3861C62.5095 76.1729 62.6823 76 62.8956 76H63.1044C63.3176 76 63.4905 76.1729 63.4905 76.3861C63.4905 76.7096 63.8645 76.8897 64.1174 76.6879L64.7102 76.215C64.8608 76.0948 65.0794 76.1146 65.206 76.26C65.3404 76.4145 65.319 76.6498 65.159 76.7775L64.0016 77.7009C63.6786 77.9586 63.4905 78.3493 63.4905 78.7625V78.8013C63.4905 79.8349 64.6139 80.477 65.5046 79.9525C65.8544 79.7464 66.0916 79.3924 66.1491 78.9905L66.3648 77.4829C66.3938 77.2799 66.5878 77.1433 66.7888 77.1843C66.9735 77.2221 67.0968 77.3972 67.0701 77.5838L66.9559 78.3822C66.9109 78.6972 67.25 78.9244 67.5242 78.763C67.707 78.6553 67.9425 78.7184 68.047 78.903L68.1531 79.0905C68.2585 79.2766 68.1952 79.5128 68.0109 79.6213C67.7311 79.7861 67.7615 80.2001 68.0623 80.3223L68.774 80.6114C68.9509 80.6833 69.0418 80.8802 68.9818 81.0615C68.9159 81.2607 68.6952 81.3625 68.5009 81.2836L67.1634 80.7402C66.7709 80.5808 66.3266 80.6134 65.9616 80.8284C65.0686 81.3543 65.0686 82.6458 65.9616 83.1717C66.3266 83.3867 66.7709 83.4193 67.1634 83.2598L68.5009 82.7165C68.6952 82.6375 68.9159 82.7394 68.9818 82.9385C69.0418 83.1199 68.9509 83.3167 68.774 83.3886L68.0623 83.6777C67.7615 83.8 67.7311 84.2139 68.0109 84.3787C68.1952 84.4872 68.2585 84.7234 68.1531 84.9096L68.047 85.097C67.9425 85.2817 67.707 85.3448 67.5242 85.2371C67.25 85.0756 66.9109 85.3029 66.9559 85.6178L67.0701 86.4162C67.0968 86.6028 66.9735 86.778 66.7888 86.8157C66.5878 86.8568 66.3938 86.7201 66.3648 86.5171L66.1491 85.0096C66.0916 84.6076 65.8544 84.2537 65.5046 84.0476C64.6139 83.523 63.4905 84.1652 63.4905 85.1988V85.2375C63.4905 85.6507 63.6786 86.0414 64.0016 86.2991L65.159 87.2225C65.319 87.3502 65.3404 87.5855 65.206 87.74C65.0794 87.8854 64.8608 87.9052 64.7102 87.785L64.1174 87.3121C63.8645 87.1103 63.4905 87.2904 63.4905 87.6139C63.4905 87.8271 63.3176 88 63.1044 88H62.8956C62.6823 88 62.5095 87.8271 62.5095 87.6139C62.5095 87.2904 62.1355 87.1103 61.8826 87.3121L61.2898 87.785C61.1392 87.9052 60.9206 87.8854 60.794 87.74C60.6596 87.5855 60.681 87.3502 60.841 87.2225L61.9984 86.2991C62.3214 86.0414 62.5095 85.6507 62.5095 85.2375V85.1987C62.5095 84.1652 61.3862 83.5231 60.4956 84.0476C60.1458 84.2537 59.9087 84.6076 59.8512 85.0095L59.6355 86.5171C59.6064 86.7201 59.4124 86.8568 59.2115 86.8157C59.0268 86.778 58.9034 86.6028 58.9301 86.4162L59.0443 85.6178C59.0894 85.3029 58.7502 85.0756 58.4761 85.2371C58.2933 85.3448 58.0577 85.2817 57.9532 85.097L57.8471 84.9096C57.7418 84.7234 57.8051 84.4872 57.9894 84.3787C58.2691 84.2139 58.2388 83.7999 57.938 83.6777L57.2263 83.3886C57.0493 83.3167 56.9584 83.1199 57.0185 82.9385C57.0844 82.7394 57.305 82.6375 57.4994 82.7165L58.8368 83.2598C59.2293 83.4193 59.6737 83.3867 60.0387 83.1717C60.9316 82.6458 60.9316 81.3543 60.0387 80.8284C59.6737 80.6134 59.2293 80.5808 58.8368 80.7402L57.4994 81.2836C57.305 81.3625 57.0844 81.2607 57.0185 81.0615C56.9584 80.8802 57.0493 80.6833 57.2263 80.6114L57.938 80.3223C58.2388 80.2001 58.2691 79.7861 57.9894 79.6213C57.8051 79.5128 57.7418 79.2766 57.8471 79.0905L57.9532 78.903C58.0577 78.7184 58.2933 78.6553 58.4761 78.763C58.7502 78.9244 59.0894 78.6971 59.0443 78.3822L58.9301 77.5838C58.9034 77.3972 59.0268 77.2221 59.2115 77.1843C59.4124 77.1433 59.6064 77.2799 59.6355 77.4829L59.8512 78.9905C59.9087 79.3924 60.1458 79.7464 60.4956 79.9524C61.3862 80.4769 62.5095 79.8349 62.5095 78.8013V78.7625C62.5095 78.3493 62.3214 77.9586 61.9984 77.7009L60.841 76.7775Z"/>
</mask>
<path fill-rule="evenodd" clip-rule="evenodd" d="M60.841 76.7775C60.681 76.6498 60.6596 76.4145 60.794 76.26C60.9206 76.1146 61.1392 76.0948 61.2898 76.215L61.8826 76.6879C62.1355 76.8897 62.5095 76.7096 62.5095 76.3861C62.5095 76.1729 62.6823 76 62.8956 76H63.1044C63.3176 76 63.4905 76.1729 63.4905 76.3861C63.4905 76.7096 63.8645 76.8897 64.1174 76.6879L64.7102 76.215C64.8608 76.0948 65.0794 76.1146 65.206 76.26C65.3404 76.4145 65.319 76.6498 65.159 76.7775L64.0016 77.7009C63.6786 77.9586 63.4905 78.3493 63.4905 78.7625V78.8013C63.4905 79.8349 64.6139 80.477 65.5046 79.9525C65.8544 79.7464 66.0916 79.3924 66.1491 78.9905L66.3648 77.4829C66.3938 77.2799 66.5878 77.1433 66.7888 77.1843C66.9735 77.2221 67.0968 77.3972 67.0701 77.5838L66.9559 78.3822C66.9109 78.6972 67.25 78.9244 67.5242 78.763C67.707 78.6553 67.9425 78.7184 68.047 78.903L68.1531 79.0905C68.2585 79.2766 68.1952 79.5128 68.0109 79.6213C67.7311 79.7861 67.7615 80.2001 68.0623 80.3223L68.774 80.6114C68.9509 80.6833 69.0418 80.8802 68.9818 81.0615C68.9159 81.2607 68.6952 81.3625 68.5009 81.2836L67.1634 80.7402C66.7709 80.5808 66.3266 80.6134 65.9616 80.8284C65.0686 81.3543 65.0686 82.6458 65.9616 83.1717C66.3266 83.3867 66.7709 83.4193 67.1634 83.2598L68.5009 82.7165C68.6952 82.6375 68.9159 82.7394 68.9818 82.9385C69.0418 83.1199 68.9509 83.3167 68.774 83.3886L68.0623 83.6777C67.7615 83.8 67.7311 84.2139 68.0109 84.3787C68.1952 84.4872 68.2585 84.7234 68.1531 84.9096L68.047 85.097C67.9425 85.2817 67.707 85.3448 67.5242 85.2371C67.25 85.0756 66.9109 85.3029 66.9559 85.6178L67.0701 86.4162C67.0968 86.6028 66.9735 86.778 66.7888 86.8157C66.5878 86.8568 66.3938 86.7201 66.3648 86.5171L66.1491 85.0096C66.0916 84.6076 65.8544 84.2537 65.5046 84.0476C64.6139 83.523 63.4905 84.1652 63.4905 85.1988V85.2375C63.4905 85.6507 63.6786 86.0414 64.0016 86.2991L65.159 87.2225C65.319 87.3502 65.3404 87.5855 65.206 87.74C65.0794 87.8854 64.8608 87.9052 64.7102 87.785L64.1174 87.3121C63.8645 87.1103 63.4905 87.2904 63.4905 87.6139C63.4905 87.8271 63.3176 88 63.1044 88H62.8956C62.6823 88 62.5095 87.8271 62.5095 87.6139C62.5095 87.2904 62.1355 87.1103 61.8826 87.3121L61.2898 87.785C61.1392 87.9052 60.9206 87.8854 60.794 87.74C60.6596 87.5855 60.681 87.3502 60.841 87.2225L61.9984 86.2991C62.3214 86.0414 62.5095 85.6507 62.5095 85.2375V85.1987C62.5095 84.1652 61.3862 83.5231 60.4956 84.0476C60.1458 84.2537 59.9087 84.6076 59.8512 85.0095L59.6355 86.5171C59.6064 86.7201 59.4124 86.8568 59.2115 86.8157C59.0268 86.778 58.9034 86.6028 58.9301 86.4162L59.0443 85.6178C59.0894 85.3029 58.7502 85.0756 58.4761 85.2371C58.2933 85.3448 58.0577 85.2817 57.9532 85.097L57.8471 84.9096C57.7418 84.7234 57.8051 84.4872 57.9894 84.3787C58.2691 84.2139 58.2388 83.7999 57.938 83.6777L57.2263 83.3886C57.0493 83.3167 56.9584 83.1199 57.0185 82.9385C57.0844 82.7394 57.305 82.6375 57.4994 82.7165L58.8368 83.2598C59.2293 83.4193 59.6737 83.3867 60.0387 83.1717C60.9316 82.6458 60.9316 81.3543 60.0387 80.8284C59.6737 80.6134 59.2293 80.5808 58.8368 80.7402L57.4994 81.2836C57.305 81.3625 57.0844 81.2607 57.0185 81.0615C56.9584 80.8802 57.0493 80.6833 57.2263 80.6114L57.938 80.3223C58.2388 80.2001 58.2691 79.7861 57.9894 79.6213C57.8051 79.5128 57.7418 79.2766 57.8471 79.0905L57.9532 78.903C58.0577 78.7184 58.2933 78.6553 58.4761 78.763C58.7502 78.9244 59.0894 78.6971 59.0443 78.3822L58.9301 77.5838C58.9034 77.3972 59.0268 77.2221 59.2115 77.1843C59.4124 77.1433 59.6064 77.2799 59.6355 77.4829L59.8512 78.9905C59.9087 79.3924 60.1458 79.7464 60.4956 79.9524C61.3862 80.4769 62.5095 79.8349 62.5095 78.8013V78.7625C62.5095 78.3493 62.3214 77.9586 61.9984 77.7009L60.841 76.7775Z" fill="url(#paint7_linear_407_783)"/>
<path d="M61.9984 77.7009L61.6242 78.1699L61.9984 77.7009ZM59.8512 78.9905L59.2572 79.0755L59.8512 78.9905ZM59.0443 78.3822L59.6383 78.2972L59.0443 78.3822ZM57.9532 78.903L57.4311 78.6075L57.9532 78.903ZM57.8471 79.0905L57.325 78.795L57.8471 79.0905ZM57.938 80.3223L57.7121 79.7664L57.938 80.3223ZM57.2263 80.6114L57.4521 81.1673L57.2263 80.6114ZM57.4994 81.2836L57.7252 81.8395L57.4994 81.2836ZM58.8368 80.7402L58.611 80.1843L58.8368 80.7402ZM58.8368 83.2598L59.0627 82.7039L58.8368 83.2598ZM57.4994 82.7165L57.2735 83.2724L57.4994 82.7165ZM57.2263 83.3886L57.0005 83.9445L57.2263 83.3886ZM57.938 83.6777L57.7121 84.2336L57.938 83.6777ZM57.8471 84.9096L58.3693 84.614L57.8471 84.9096ZM57.9532 85.097L57.4311 85.3925L57.9532 85.097ZM59.0443 85.6178L59.6383 85.7028L59.0443 85.6178ZM58.9301 86.4162L58.3362 86.3312L58.9301 86.4162ZM59.6355 86.5171L59.0415 86.4321L59.6355 86.5171ZM61.9984 86.2991L62.3726 86.7681L61.9984 86.2991ZM60.841 87.2225L61.2152 87.6915L60.841 87.2225ZM61.2898 87.785L61.664 88.254L61.2898 87.785ZM61.8826 87.3121L62.2568 87.7811L61.8826 87.3121ZM64.1174 87.3121L63.7432 87.7811L64.1174 87.3121ZM64.7102 87.785L64.336 88.254L64.7102 87.785ZM65.159 87.2225L64.7848 87.6915L65.159 87.2225ZM66.1491 85.0096L66.743 84.9246L66.1491 85.0096ZM66.3648 86.5171L66.9587 86.4321L66.3648 86.5171ZM67.0701 86.4162L66.4762 86.5012L67.0701 86.4162ZM68.047 85.097L67.5249 84.8015L68.047 85.097ZM68.1531 84.9096L68.6753 85.2051L68.1531 84.9096ZM68.0623 83.6777L67.8365 83.1219L68.0623 83.6777ZM68.774 83.3886L68.9998 83.9445L68.774 83.3886ZM68.5009 82.7165L68.2751 82.1606L68.5009 82.7165ZM67.1634 83.2598L66.9376 82.7039L67.1634 83.2598ZM67.1634 80.7402L66.9376 81.2961L67.1634 80.7402ZM68.5009 81.2836L68.7267 80.7277L68.5009 81.2836ZM68.774 80.6114L68.9998 80.0555L68.774 80.6114ZM68.0623 80.3223L67.8365 80.8782L68.0623 80.3223ZM68.1531 79.0905L68.6753 78.795L68.1531 79.0905ZM68.047 78.903L67.5249 79.1986L68.047 78.903ZM66.9559 78.3822L66.362 78.2972L66.9559 78.3822ZM67.0701 77.5838L67.6641 77.6688L67.0701 77.5838ZM66.3648 77.4829L66.9587 77.5679L66.3648 77.4829ZM66.1491 78.9905L65.5551 78.9055L66.1491 78.9905ZM65.159 76.7775L65.5332 77.2465L65.159 76.7775ZM64.7102 76.215L64.336 75.746L64.7102 76.215ZM64.1174 76.6879L64.4916 77.1569L64.1174 76.6879ZM61.8826 76.6879L62.2568 76.2189L61.8826 76.6879ZM61.2898 76.215L61.664 75.746L61.2898 76.215ZM62.2568 76.2189L61.664 75.746L60.9156 76.684L61.5084 77.1569L62.2568 76.2189ZM63.1044 75.4H62.8956V76.6H63.1044V75.4ZM64.336 75.746L63.7432 76.2189L64.4916 77.1569L65.0844 76.684L64.336 75.746ZM64.3758 78.1699L65.5332 77.2465L64.7848 76.3085L63.6274 77.2318L64.3758 78.1699ZM64.0905 78.8013V78.7625H62.8905V78.8013H64.0905ZM65.7708 77.398L65.5551 78.9055L66.7431 79.0754L66.9587 77.5679L65.7708 77.398ZM67.5499 78.4672L67.6641 77.6688L66.4762 77.4989L66.362 78.2972L67.5499 78.4672ZM68.6753 78.795L68.5692 78.6075L67.5249 79.1986L67.631 79.386L68.6753 78.795ZM68.9998 80.0555L68.2881 79.7664L67.8365 80.8782L68.5481 81.1673L68.9998 80.0555ZM66.9376 81.2961L68.2751 81.8395L68.7267 80.7277L67.3892 80.1843L66.9376 81.2961ZM67.3892 83.8157L68.7267 83.2724L68.2751 82.1606L66.9376 82.7039L67.3892 83.8157ZM68.5481 82.8328L67.8365 83.1219L68.2881 84.2336L68.9998 83.9445L68.5481 82.8328ZM67.631 84.614L67.5249 84.8015L68.5692 85.3925L68.6753 85.2051L67.631 84.614ZM66.362 85.7028L66.4762 86.5012L67.6641 86.3312L67.5499 85.5329L66.362 85.7028ZM66.9587 86.4321L66.743 84.9246L65.5551 85.0946L65.7708 86.6021L66.9587 86.4321ZM64.0905 85.2375V85.1988H62.8905V85.2375H64.0905ZM65.5332 86.7535L64.3758 85.8301L63.6274 86.7681L64.7848 87.6915L65.5332 86.7535ZM63.7432 87.7811L64.336 88.254L65.0844 87.316L64.4916 86.8431L63.7432 87.7811ZM62.8956 88.6H63.1044V87.4H62.8956V88.6ZM61.664 88.254L62.2568 87.7811L61.5084 86.8431L60.9156 87.316L61.664 88.254ZM61.6242 85.8301L60.4668 86.7535L61.2152 87.6915L62.3726 86.7681L61.6242 85.8301ZM61.9095 85.1987V85.2375H63.1095V85.1987H61.9095ZM60.2294 86.6021L60.4451 85.0945L59.2572 84.9245L59.0415 86.4321L60.2294 86.6021ZM58.4504 85.5329L58.3362 86.3312L59.5241 86.5012L59.6383 85.7028L58.4504 85.5329ZM57.325 85.2051L57.4311 85.3925L58.4754 84.8015L58.3693 84.614L57.325 85.2051ZM57.0005 83.9445L57.7121 84.2336L58.1638 83.1219L57.4521 82.8328L57.0005 83.9445ZM59.0627 82.7039L57.7252 82.1606L57.2735 83.2724L58.611 83.8157L59.0627 82.7039ZM58.611 80.1843L57.2735 80.7277L57.7252 81.8395L59.0627 81.2961L58.611 80.1843ZM57.4521 81.1673L58.1638 80.8782L57.7121 79.7664L57.0005 80.0555L57.4521 81.1673ZM58.3693 79.386L58.4754 79.1986L57.4311 78.6075L57.325 78.795L58.3693 79.386ZM59.6383 78.2972L59.5241 77.4989L58.3362 77.6688L58.4504 78.4672L59.6383 78.2972ZM59.0415 77.5679L59.2572 79.0755L60.4451 78.9056L60.2294 77.398L59.0415 77.5679ZM61.9095 78.7625V78.8013H63.1095V78.7625H61.9095ZM60.4668 77.2465L61.6242 78.1699L62.3726 77.2319L61.2152 76.3085L60.4668 77.2465ZM63.1095 78.7625C63.1095 78.1668 62.8383 77.6034 62.3726 77.2319L61.6242 78.1699C61.8045 78.3138 61.9095 78.5319 61.9095 78.7625H63.1095ZM60.1911 80.4694C61.4817 81.2295 63.1095 80.2991 63.1095 78.8013H61.9095C61.9095 79.3707 61.2907 79.7244 60.8001 79.4354L60.1911 80.4694ZM59.2572 79.0755C59.3405 79.6579 59.6842 80.1708 60.1911 80.4694L60.8001 79.4354C60.6074 79.3219 60.4768 79.127 60.4451 78.9056L59.2572 79.0755ZM59.3316 77.7722C59.1941 77.8003 59.0614 77.7068 59.0415 77.5679L60.2294 77.398C60.1515 76.853 59.6307 76.4863 59.0914 76.5965L59.3316 77.7722ZM59.5241 77.4989C59.5423 77.6266 59.458 77.7464 59.3316 77.7722L59.0914 76.5965C58.5955 76.6978 58.2645 77.1679 58.3362 77.6688L59.5241 77.4989ZM58.1716 79.2799C58.8791 79.6967 59.7546 79.1101 59.6383 78.2972L58.4504 78.4672C58.4242 78.2842 58.6213 78.1521 58.7806 78.246L58.1716 79.2799ZM58.4754 79.1986C58.4147 79.3058 58.2778 79.3425 58.1716 79.2799L58.7806 78.246C58.3088 77.9681 57.7008 78.131 57.4311 78.6075L58.4754 79.1986ZM58.2938 79.1044C58.3916 79.1619 58.4252 79.2873 58.3693 79.386L57.325 78.795C57.0584 79.266 57.2185 79.8637 57.6849 80.1383L58.2938 79.1044ZM58.1638 80.8782C58.925 80.5689 59.0018 79.5213 58.2938 79.1044L57.6849 80.1383C57.5364 80.0509 57.5525 79.8313 57.7121 79.7664L58.1638 80.8782ZM57.5881 80.8729C57.6273 80.9915 57.5679 81.1203 57.4521 81.1673L57.0005 80.0555C56.5307 80.2464 56.2895 80.7688 56.4489 81.2501L57.5881 80.8729ZM57.2735 80.7277C57.4006 80.6761 57.5449 80.7427 57.5881 80.8729L56.4489 81.2501C56.6239 81.7786 57.2094 82.049 57.7252 81.8395L57.2735 80.7277ZM60.3432 80.3114C59.8171 80.0015 59.1767 79.9546 58.611 80.1843L59.0627 81.2961C59.282 81.207 59.5302 81.2252 59.7342 81.3454L60.3432 80.3114ZM60.3432 83.6887C61.6301 82.9307 61.6301 81.0693 60.3432 80.3114L59.7342 81.3454C60.2331 81.6392 60.2331 82.3608 59.7342 82.6547L60.3432 83.6887ZM58.611 83.8157C59.1767 84.0455 59.8171 83.9985 60.3432 83.6887L59.7342 82.6547C59.5302 82.7748 59.282 82.793 59.0627 82.7039L58.611 83.8157ZM57.5881 83.1271C57.5449 83.2574 57.4006 83.324 57.2735 83.2724L57.7252 82.1606C57.2094 81.951 56.6239 82.2214 56.4489 82.7499L57.5881 83.1271ZM57.4521 82.8328C57.5679 82.8798 57.6273 83.0085 57.5881 83.1271L56.4489 82.7499C56.2895 83.2313 56.5307 83.7537 57.0005 83.9445L57.4521 82.8328ZM58.2938 84.8957C59.0018 84.4787 58.925 83.4311 58.1638 83.1219L57.7121 84.2336C57.5525 84.1688 57.5364 83.9491 57.6849 83.8617L58.2938 84.8957ZM58.3693 84.614C58.4252 84.7128 58.3916 84.8381 58.2938 84.8957L57.6849 83.8617C57.2185 84.1364 57.0584 84.7341 57.325 85.2051L58.3693 84.614ZM58.1716 84.7201C58.2778 84.6575 58.4147 84.6942 58.4754 84.8015L57.4311 85.3925C57.7008 85.8691 58.3088 86.032 58.7806 85.7541L58.1716 84.7201ZM59.6383 85.7028C59.7546 84.8899 58.8791 84.3034 58.1716 84.7201L58.7806 85.7541C58.6213 85.8479 58.4242 85.7159 58.4504 85.5329L59.6383 85.7028ZM59.3316 86.2279C59.458 86.2537 59.5423 86.3735 59.5241 86.5012L58.3362 86.3312C58.2645 86.8322 58.5955 87.3023 59.0914 87.4036L59.3316 86.2279ZM59.0415 86.4321C59.0614 86.2933 59.1941 86.1998 59.3316 86.2279L59.0914 87.4036C59.6307 87.5138 60.1515 87.147 60.2294 86.6021L59.0415 86.4321ZM60.1911 83.5306C59.6842 83.8292 59.3405 84.3421 59.2572 84.9245L60.4451 85.0945C60.4768 84.8731 60.6074 84.6781 60.8001 84.5646L60.1911 83.5306ZM63.1095 85.1987C63.1095 83.701 61.4817 82.7706 60.1911 83.5306L60.8001 84.5646C61.2907 84.2757 61.9095 84.6294 61.9095 85.1987H63.1095ZM62.3726 86.7681C62.8383 86.3966 63.1095 85.8333 63.1095 85.2375H61.9095C61.9095 85.4681 61.8045 85.6862 61.6242 85.8301L62.3726 86.7681ZM61.2466 87.346C61.3363 87.4491 61.3221 87.6063 61.2152 87.6915L60.4668 86.7535C60.0399 87.0941 59.9828 87.7219 60.3415 88.1339L61.2466 87.346ZM60.9156 87.316C61.0162 87.2358 61.1621 87.249 61.2466 87.346L60.3415 88.1339C60.679 88.5217 61.2621 88.5747 61.664 88.254L60.9156 87.316ZM63.1095 87.6139C63.1095 86.7877 62.1543 86.3278 61.5084 86.8431L62.2568 87.7811C62.1167 87.8929 61.9095 87.7931 61.9095 87.6139H63.1095ZM62.8956 87.4C63.0137 87.4 63.1095 87.4958 63.1095 87.6139H61.9095C61.9095 88.1585 62.351 88.6 62.8956 88.6V87.4ZM62.8905 87.6139C62.8905 87.4958 62.9863 87.4 63.1044 87.4V88.6C63.649 88.6 64.0905 88.1585 64.0905 87.6139H62.8905ZM64.4916 86.8431C63.8457 86.3278 62.8905 86.7877 62.8905 87.6139H64.0905C64.0905 87.7931 63.8833 87.8929 63.7432 87.7811L64.4916 86.8431ZM64.7534 87.346C64.8379 87.249 64.9838 87.2358 65.0844 87.316L64.336 88.254C64.7378 88.5747 65.321 88.5217 65.6585 88.1339L64.7534 87.346ZM64.7848 87.6915C64.6779 87.6063 64.6637 87.4491 64.7534 87.346L65.6585 88.1339C66.0172 87.7219 65.9601 87.0941 65.5332 86.7535L64.7848 87.6915ZM62.8905 85.2375C62.8905 85.8332 63.1617 86.3966 63.6274 86.7681L64.3758 85.8301C64.1955 85.6863 64.0905 85.4681 64.0905 85.2375H62.8905ZM65.8091 83.5306C64.5184 82.7705 62.8905 83.701 62.8905 85.1988H64.0905C64.0905 84.6294 64.7094 84.2756 65.2001 84.5646L65.8091 83.5306ZM66.743 84.9246C66.6597 84.3422 66.316 83.8292 65.8091 83.5306L65.2001 84.5646C65.3928 84.6781 65.5235 84.8731 65.5551 85.0946L66.743 84.9246ZM66.6687 86.2279C66.8061 86.1998 66.9389 86.2933 66.9587 86.4321L65.7708 86.6021C65.8488 87.147 66.3696 87.5138 66.9089 87.4036L66.6687 86.2279ZM66.4762 86.5012C66.4579 86.3735 66.5423 86.2537 66.6687 86.2279L66.9089 87.4036C67.4047 87.3023 67.7358 86.8322 67.6641 86.3312L66.4762 86.5012ZM67.8287 84.7201C67.1211 84.3034 66.2457 84.8899 66.362 85.7028L67.5499 85.5329C67.5761 85.7159 67.379 85.8479 67.2197 85.7541L67.8287 84.7201ZM67.5249 84.8015C67.5856 84.6942 67.7224 84.6575 67.8287 84.7201L67.2197 85.7541C67.6915 86.032 68.2995 85.8691 68.5692 85.3925L67.5249 84.8015ZM67.7064 84.8957C67.6086 84.8381 67.5751 84.7128 67.631 84.614L68.6753 85.2051C68.9419 84.7341 68.7817 84.1364 68.3154 83.8617L67.7064 84.8957ZM67.8365 83.1219C67.0753 83.4311 66.9984 84.4787 67.7064 84.8957L68.3154 83.8617C68.4638 83.9491 68.4477 84.1688 68.2881 84.2336L67.8365 83.1219ZM68.4122 83.1271C68.3729 83.0085 68.4324 82.8798 68.5481 82.8328L68.9998 83.9445C69.4695 83.7537 69.7108 83.2313 69.5514 82.7499L68.4122 83.1271ZM68.7267 83.2724C68.5996 83.324 68.4553 83.2574 68.4122 83.1271L69.5514 82.7499C69.3764 82.2214 68.7909 81.951 68.2751 82.1606L68.7267 83.2724ZM65.6571 83.6887C66.1831 83.9985 66.8236 84.0455 67.3892 83.8157L66.9376 82.7039C66.7183 82.793 66.47 82.7748 66.2661 82.6547L65.6571 83.6887ZM65.6571 80.3114C64.3701 81.0693 64.3701 82.9307 65.6571 83.6887L66.2661 82.6547C65.7671 82.3608 65.7671 81.6392 66.2661 81.3454L65.6571 80.3114ZM67.3892 80.1843C66.8236 79.9546 66.1831 80.0015 65.6571 80.3114L66.2661 81.3454C66.47 81.2252 66.7183 81.207 66.9376 81.2961L67.3892 80.1843ZM68.4122 80.8729C68.4553 80.7427 68.5996 80.6761 68.7267 80.7277L68.2751 81.8395C68.7909 82.049 69.3764 81.7786 69.5514 81.2501L68.4122 80.8729ZM68.5481 81.1673C68.4324 81.1203 68.3729 80.9915 68.4122 80.8729L69.5514 81.2501C69.7108 80.7688 69.4695 80.2464 68.9998 80.0555L68.5481 81.1673ZM67.7064 79.1044C66.9984 79.5213 67.0753 80.5689 67.8365 80.8782L68.2881 79.7664C68.4477 79.8313 68.4638 80.0509 68.3154 80.1383L67.7064 79.1044ZM67.631 79.386C67.5751 79.2873 67.6086 79.1619 67.7064 79.1044L68.3154 80.1383C68.7817 79.8637 68.9419 79.266 68.6753 78.795L67.631 79.386ZM67.8287 79.2799C67.7224 79.3425 67.5856 79.3058 67.5249 79.1986L68.5692 78.6075C68.2995 78.131 67.6915 77.9681 67.2197 78.246L67.8287 79.2799ZM66.362 78.2972C66.2457 79.1101 67.1211 79.6967 67.8287 79.2799L67.2197 78.246C67.379 78.1521 67.5761 78.2842 67.5499 78.4672L66.362 78.2972ZM66.6687 77.7722C66.5423 77.7464 66.4579 77.6266 66.4762 77.4989L67.6641 77.6688C67.7358 77.1679 67.4047 76.6978 66.9089 76.5965L66.6687 77.7722ZM66.9587 77.5679C66.9389 77.7068 66.8061 77.8003 66.6687 77.7722L66.9089 76.5965C66.3696 76.4863 65.8488 76.853 65.7708 77.398L66.9587 77.5679ZM65.8091 80.4694C66.316 80.1708 66.6597 79.6579 66.7431 79.0754L65.5551 78.9055C65.5235 79.1269 65.3928 79.3219 65.2001 79.4355L65.8091 80.4694ZM62.8905 78.8013C62.8905 80.2991 64.5184 81.2296 65.8091 80.4694L65.2001 79.4355C64.7094 79.7244 64.0905 79.3707 64.0905 78.8013H62.8905ZM63.6274 77.2318C63.1617 77.6034 62.8905 78.1668 62.8905 78.7625H64.0905C64.0905 78.5319 64.1955 78.3137 64.3758 78.1699L63.6274 77.2318ZM64.7534 76.654C64.6637 76.5508 64.6779 76.3937 64.7848 76.3085L65.5332 77.2465C65.9601 76.9059 66.0172 76.2781 65.6585 75.8661L64.7534 76.654ZM65.0844 76.684C64.9838 76.7642 64.8379 76.751 64.7534 76.654L65.6585 75.8661C65.321 75.4783 64.7378 75.4253 64.336 75.746L65.0844 76.684ZM62.8905 76.3861C62.8905 77.2123 63.8457 77.6722 64.4916 77.1569L63.7432 76.2189C63.8833 76.1071 64.0905 76.2069 64.0905 76.3861H62.8905ZM63.1044 76.6C62.9863 76.6 62.8905 76.5042 62.8905 76.3861H64.0905C64.0905 75.8415 63.649 75.4 63.1044 75.4V76.6ZM63.1095 76.3861C63.1095 76.5042 63.0137 76.6 62.8956 76.6V75.4C62.351 75.4 61.9095 75.8415 61.9095 76.3861H63.1095ZM61.5084 77.1569C62.1543 77.6722 63.1095 77.2123 63.1095 76.3861H61.9095C61.9095 76.2069 62.1167 76.1071 62.2568 76.2189L61.5084 77.1569ZM60.3415 75.8661C59.9828 76.2781 60.0399 76.9059 60.4668 77.2465L61.2152 76.3085C61.3221 76.3937 61.3363 76.5509 61.2466 76.654L60.3415 75.8661ZM61.2466 76.654C61.1621 76.751 61.0162 76.7642 60.9156 76.684L61.664 75.746C61.2621 75.4253 60.679 75.4783 60.3415 75.8661L61.2466 76.654Z" fill="#36426F" fill-opacity="0.15" mask="url(#path-11-outside-2_407_783)"/>
<defs>
<linearGradient id="paint0_linear_407_783" x1="40.5306" y1="40.3333" x2="64.3961" y2="58.1919" gradientUnits="userSpaceOnUse">
<stop offset="0.183865" stop-color="#ECECEC"/>
<stop offset="1" stop-color="#C4C4C4"/>
</linearGradient>
<linearGradient id="paint1_linear_407_783" x1="36" y1="76" x2="41.1933" y2="84.5861" gradientUnits="userSpaceOnUse">
<stop offset="0.085" stop-color="#C2D8E5"/>
<stop offset="1" stop-color="#8FCCED"/>
</linearGradient>
<linearGradient id="paint2_linear_407_783" x1="49" y1="76" x2="54.1933" y2="84.5861" gradientUnits="userSpaceOnUse">
<stop offset="0.085" stop-color="#C2D8E5"/>
<stop offset="1" stop-color="#8FCCED"/>
</linearGradient>
<linearGradient id="paint3_linear_407_783" x1="62.4547" y1="79.1579" x2="68.4732" y2="84.0495" gradientUnits="userSpaceOnUse">
<stop offset="0.183865" stop-color="#F5FCFF"/>
<stop offset="1" stop-color="#E0E9F4"/>
</linearGradient>
<linearGradient id="paint4_linear_407_783" x1="40.5306" y1="40.3333" x2="64.3961" y2="58.1919" gradientUnits="userSpaceOnUse">
<stop offset="0.183865" stop-color="#ECECEC"/>
<stop offset="1" stop-color="#C4C4C4"/>
</linearGradient>
<linearGradient id="paint5_linear_407_783" x1="36" y1="76" x2="41.1933" y2="84.5861" gradientUnits="userSpaceOnUse">
<stop offset="0.085" stop-color="#C2D8E5"/>
<stop offset="1" stop-color="#8FCCED"/>
</linearGradient>
<linearGradient id="paint6_linear_407_783" x1="49" y1="76" x2="54.1933" y2="84.5861" gradientUnits="userSpaceOnUse">
<stop offset="0.085" stop-color="#C2D8E5"/>
<stop offset="1" stop-color="#8FCCED"/>
</linearGradient>
<linearGradient id="paint7_linear_407_783" x1="62.4547" y1="79.1579" x2="68.4732" y2="84.0495" gradientUnits="userSpaceOnUse">
<stop offset="0.183865" stop-color="#F5FCFF"/>
<stop offset="1" stop-color="#E0E9F4"/>
</linearGradient>
</defs>
</svg>
