<svg width="100" height="100" viewBox="0 0 100 100" fill="none" xmlns="http://www.w3.org/2000/svg">
<path fill-rule="evenodd" clip-rule="evenodd" d="M56.9925 33.7607C57.0443 33.5577 56.8162 33.3991 56.6323 33.504C53.9918 35.0106 50.776 35.5452 47.5826 34.7554C41.0729 33.1453 37.1208 26.642 38.7553 20.2297C39.5572 17.0838 41.5547 14.5443 44.1504 12.9635C44.3306 12.8538 44.2965 12.5817 44.0911 12.5309C34.577 10.1778 24.9278 15.8675 22.5389 25.2393C20.1501 34.6111 25.9263 44.116 35.4404 46.4691C44.9545 48.8222 54.6037 43.1325 56.9925 33.7607Z" fill="url(#paint0_linear_407_769)" stroke="#1C2047" stroke-opacity="0.15" stroke-width="4"/>
<circle cx="44.5195" cy="40.1445" r="1.875" fill="#1C2047" fill-opacity="0.15"/>
<circle cx="37.0195" cy="39.5195" r="1.25" fill="#1C2047" fill-opacity="0.15"/>
<circle cx="33.2695" cy="21.3945" r="1.25" fill="#1C2047" fill-opacity="0.15"/>
<circle cx="30.1445" cy="31.3945" r="3.125" fill="#1C2047" fill-opacity="0.15"/>
<path fill-rule="evenodd" clip-rule="evenodd" d="M84.0005 48C84.0005 60.1503 74.3518 70 62.4495 70C62.4493 70 62.4492 70 62.4491 70V70.0003H35.0205V69.9964C34.9119 69.9988 34.803 70 34.6939 70C26.5787 70 20 63.2843 20 55C20 46.7157 26.5787 40 34.6939 40C37.2528 40 39.6589 40.6677 41.7541 41.8418C44.3633 32.6888 52.6412 26 62.4495 26C74.3518 26 84.0005 35.8497 84.0005 48Z" fill="url(#paint1_linear_407_769)"/>
<path d="M62.4491 70V68H60.4491V70H62.4491ZM62.4491 70.0003V72.0003H64.4491V70.0003H62.4491ZM35.0205 70.0003H33.0205V72.0003H35.0205V70.0003ZM35.0205 69.9964H37.0205V67.9513L34.976 67.9969L35.0205 69.9964ZM41.7541 41.8418L40.7765 43.5865L42.9839 44.8234L43.6775 42.3901L41.7541 41.8418ZM62.4495 72C75.495 72 86.0005 61.2158 86.0005 48H82.0005C82.0005 59.0848 73.2085 68 62.4495 68V72ZM62.4491 72C62.4491 72 62.4491 72 62.4491 72C62.4491 72 62.4491 72 62.4491 72C62.4491 72 62.4491 72 62.4491 72C62.4491 72 62.4491 72 62.4491 72C62.4491 72 62.4491 72 62.4491 72C62.4491 72 62.4491 72 62.4491 72C62.4491 72 62.4491 72 62.4491 72C62.4491 72 62.4491 72 62.4491 72C62.4491 72 62.4491 72 62.4491 72C62.4491 72 62.4491 72 62.4491 72C62.4491 72 62.4491 72 62.4491 72C62.4491 72 62.4491 72 62.4491 72C62.4491 72 62.4491 72 62.4491 72C62.4491 72 62.4491 72 62.4491 72C62.4491 72 62.4491 72 62.4491 72C62.4491 72 62.4491 72 62.4491 72C62.4491 72 62.4491 72 62.4491 72C62.4491 72 62.4491 72 62.4491 72C62.4491 72 62.4491 72 62.4491 72C62.4491 72 62.4491 72 62.4491 72C62.4491 72 62.4491 72 62.4491 72C62.4491 72 62.4491 72 62.4491 72C62.4491 72 62.4491 72 62.4491 72C62.4491 72 62.4491 72 62.4491 72C62.4491 72 62.4491 72 62.4491 72C62.4491 72 62.4491 72 62.4491 72C62.4491 72 62.4491 72 62.4491 72C62.4491 72 62.4491 72 62.4491 72C62.4491 72 62.4491 72 62.4491 72C62.4491 72 62.4491 72 62.4491 72C62.4491 72 62.4491 72 62.4491 72C62.4491 72 62.4491 72 62.4491 72C62.4491 72 62.4491 72 62.4491 72C62.4491 72 62.4491 72 62.4491 72C62.4491 72 62.4491 72 62.4491 72C62.4491 72 62.4491 72 62.4491 72C62.4491 72 62.4491 72 62.4491 72C62.4491 72 62.4491 72 62.4491 72C62.4491 72 62.4491 72 62.4491 72C62.4491 72 62.4491 72 62.4491 72C62.4491 72 62.4491 72 62.4491 72C62.4491 72 62.4491 72 62.4491 72C62.4491 72 62.4491 72 62.4491 72C62.4491 72 62.4491 72 62.4491 72C62.4491 72 62.4491 72 62.4491 72C62.4491 72 62.4491 72 62.4491 72C62.4491 72 62.4491 72 62.4491 72C62.4491 72 62.4491 72 62.4491 72C62.4491 72 62.4491 72 62.4491 72C62.4491 72 62.4491 72 62.4491 72C62.4491 72 62.4491 72 62.4491 72C62.4491 72 62.4491 72 62.4491 72C62.4491 72 62.4491 72 62.4491 72C62.4491 72 62.4491 72 62.4491 72C62.4491 72 62.4491 72 62.4491 72C62.4491 72 62.4491 72 62.4491 72C62.4491 72 62.4491 72 62.4491 72C62.4491 72 62.4491 72 62.4491 72C62.4491 72 62.4491 72 62.4491 72C62.4491 72 62.4491 72 62.4491 72C62.4491 72 62.4491 72 62.4491 72C62.4491 72 62.4491 72 62.4491 72C62.4491 72 62.4491 72 62.4491 72C62.4491 72 62.4491 72 62.4491 72C62.4491 72 62.4491 72 62.4491 72C62.4491 72 62.4491 72 62.4491 72C62.4491 72 62.4491 72 62.4491 72C62.4491 72 62.4491 72 62.4491 72C62.4491 72 62.4491 72 62.4491 72C62.4491 72 62.4491 72 62.4491 72C62.4491 72 62.4491 72 62.4491 72C62.4491 72 62.4491 72 62.4491 72C62.4491 72 62.4491 72 62.4491 72C62.4491 72 62.4491 72 62.4491 72C62.4491 72 62.4491 72 62.4491 72C62.4491 72 62.4491 72 62.4491 72C62.4491 72 62.4491 72 62.4491 72C62.4491 72 62.4491 72 62.4491 72C62.4491 72 62.4491 72 62.4491 72C62.4491 72 62.4491 72 62.4491 72C62.4491 72 62.4491 72 62.4491 72C62.4491 72 62.4491 72 62.4491 72C62.4491 72 62.4491 72 62.4491 72C62.4491 72 62.4491 72 62.4491 72C62.4491 72 62.4491 72 62.4491 72C62.4491 72 62.4491 72 62.4491 72C62.4491 72 62.4491 72 62.4491 72C62.4491 72 62.4491 72 62.4491 72C62.4491 72 62.4491 72 62.4491 72C62.4491 72 62.4491 72 62.4491 72C62.4491 72 62.4491 72 62.4491 72C62.4491 72 62.4491 72 62.4491 72C62.4491 72 62.4491 72 62.4491 72C62.4491 72 62.4491 72 62.4491 72C62.4491 72 62.4491 72 62.4491 72C62.4491 72 62.4491 72 62.4491 72C62.4491 72 62.4491 72 62.4491 72C62.4491 72 62.4491 72 62.4491 72C62.4492 72 62.4492 72 62.4492 72C62.4492 72 62.4492 72 62.4492 72C62.4492 72 62.4492 72 62.4492 72C62.4492 72 62.4492 72 62.4492 72C62.4492 72 62.4492 72 62.4492 72C62.4492 72 62.4492 72 62.4492 72C62.4492 72 62.4492 72 62.4492 72C62.4492 72 62.4492 72 62.4492 72C62.4492 72 62.4492 72 62.4492 72C62.4492 72 62.4492 72 62.4492 72C62.4492 72 62.4492 72 62.4492 72C62.4492 72 62.4492 72 62.4492 72C62.4492 72 62.4492 72 62.4492 72C62.4492 72 62.4492 72 62.4492 72C62.4492 72 62.4492 72 62.4492 72C62.4492 72 62.4492 72 62.4492 72C62.4492 72 62.4492 72 62.4492 72C62.4492 72 62.4492 72 62.4492 72C62.4492 72 62.4492 72 62.4492 72C62.4492 72 62.4492 72 62.4492 72C62.4492 72 62.4492 72 62.4492 72C62.4492 72 62.4492 72 62.4492 72C62.4492 72 62.4492 72 62.4492 72C62.4492 72 62.4492 72 62.4492 72C62.4492 72 62.4492 72 62.4492 72C62.4492 72 62.4492 72 62.4492 72C62.4492 72 62.4492 72 62.4492 72C62.4492 72 62.4492 72 62.4492 72C62.4492 72 62.4492 72 62.4492 72C62.4492 72 62.4492 72 62.4492 72C62.4492 72 62.4492 72 62.4492 72C62.4492 72 62.4492 72 62.4492 72C62.4492 72 62.4492 72 62.4492 72C62.4492 72 62.4492 72 62.4492 72C62.4492 72 62.4492 72 62.4492 72C62.4492 72 62.4492 72 62.4492 72C62.4492 72 62.4492 72 62.4492 72C62.4492 72 62.4492 72 62.4492 72C62.4492 72 62.4492 72 62.4492 72C62.4492 72 62.4492 72 62.4492 72C62.4492 72 62.4492 72 62.4492 72C62.4492 72 62.4492 72 62.4492 72C62.4492 72 62.4492 72 62.4492 72C62.4492 72 62.4492 72 62.4492 72C62.4492 72 62.4492 72 62.4492 72C62.4492 72 62.4492 72 62.4492 72C62.4492 72 62.4492 72 62.4492 72C62.4492 72 62.4492 72 62.4492 72C62.4492 72 62.4492 72 62.4492 72C62.4492 72 62.4492 72 62.4492 72C62.4492 72 62.4492 72 62.4492 72C62.4492 72 62.4492 72 62.4492 72C62.4492 72 62.4492 72 62.4492 72C62.4492 72 62.4492 72 62.4492 72C62.4492 72 62.4492 72 62.4492 72C62.4492 72 62.4492 72 62.4492 72C62.4492 72 62.4492 72 62.4492 72C62.4492 72 62.4492 72 62.4492 72C62.4492 72 62.4492 72 62.4492 72C62.4492 72 62.4492 72 62.4492 72C62.4492 72 62.4492 72 62.4492 72C62.4492 72 62.4492 72 62.4492 72C62.4492 72 62.4492 72 62.4492 72C62.4492 72 62.4492 72 62.4492 72C62.4492 72 62.4492 72 62.4492 72C62.4492 72 62.4492 72 62.4492 72C62.4492 72 62.4492 72 62.4492 72C62.4492 72 62.4492 72 62.4492 72C62.4492 72 62.4492 72 62.4492 72C62.4492 72 62.4492 72 62.4492 72C62.4492 72 62.4492 72 62.4492 72C62.4492 72 62.4492 72 62.4492 72C62.4492 72 62.4492 72 62.4492 72C62.4492 72 62.4492 72 62.4492 72C62.4492 72 62.4492 72 62.4492 72C62.4492 72 62.4492 72 62.4492 72C62.4492 72 62.4492 72 62.4492 72C62.4492 72 62.4492 72 62.4492 72C62.4492 72 62.4492 72 62.4492 72C62.4492 72 62.4492 72 62.4492 72C62.4492 72 62.4492 72 62.4492 72C62.4492 72 62.4492 72 62.4492 72C62.4492 72 62.4492 72 62.4492 72C62.4492 72 62.4492 72 62.4492 72C62.4492 72 62.4492 72 62.4492 72C62.4492 72 62.4492 72 62.4492 72C62.4492 72 62.4492 72 62.4492 72C62.4492 72 62.4492 72 62.4492 72C62.4492 72 62.4492 72 62.4492 72C62.4492 72 62.4492 72 62.4492 72C62.4492 72 62.4492 72 62.4492 72C62.4492 72 62.4492 72 62.4492 72C62.4492 72 62.4492 72 62.4492 72C62.4492 72 62.4492 72 62.4492 72C62.4492 72 62.4492 72 62.4492 72C62.4492 72 62.4492 72 62.4492 72C62.4492 72 62.4492 72 62.4492 72C62.4492 72 62.4492 72 62.4492 72C62.4492 72 62.4492 72 62.4492 72C62.4492 72 62.4492 72 62.4492 72C62.4492 72 62.4492 72 62.4492 72C62.4492 72 62.4492 72 62.4492 72C62.4492 72 62.4492 72 62.4492 72C62.4492 72 62.4492 72 62.4492 72C62.4492 72 62.4492 72 62.4492 72C62.4492 72 62.4492 72 62.4492 72C62.4492 72 62.4492 72 62.4492 72C62.4492 72 62.4492 72 62.4492 72C62.4492 72 62.4492 72 62.4492 72C62.4492 72 62.4492 72 62.4492 72C62.4492 72 62.4492 72 62.4492 72C62.4492 72 62.4492 72 62.4492 72C62.4492 72 62.4492 72 62.4492 72C62.4492 72 62.4492 72 62.4492 72C62.4492 72 62.4492 72 62.4492 72C62.4492 72 62.4492 72 62.4492 72C62.4492 72 62.4492 72 62.4492 72C62.4492 72 62.4492 72 62.4492 72C62.4492 72 62.4492 72 62.4492 72C62.4492 72 62.4492 72 62.4492 72C62.4492 72 62.4492 72 62.4492 72C62.4492 72 62.4492 72 62.4492 72C62.4492 72 62.4492 72 62.4492 72C62.4492 72 62.4492 72 62.4492 72C62.4492 72 62.4492 72 62.4492 72C62.4492 72 62.4492 72 62.4492 72C62.4492 72 62.4492 72 62.4492 72C62.4492 72 62.4492 72 62.4492 72C62.4492 72 62.4492 72 62.4492 72C62.4492 72 62.4492 72 62.4492 72C62.4492 72 62.4492 72 62.4492 72C62.4492 72 62.4492 72 62.4492 72C62.4492 72 62.4492 72 62.4492 72C62.4492 72 62.4492 72 62.4492 72C62.4492 72 62.4492 72 62.4492 72C62.4492 72 62.4492 72 62.4493 72C62.4493 72 62.4493 72 62.4493 72C62.4493 72 62.4493 72 62.4493 72C62.4493 72 62.4493 72 62.4493 72C62.4493 72 62.4493 72 62.4493 72C62.4493 72 62.4493 72 62.4493 72C62.4493 72 62.4493 72 62.4493 72C62.4493 72 62.4493 72 62.4493 72C62.4493 72 62.4493 72 62.4493 72C62.4493 72 62.4493 72 62.4493 72C62.4493 72 62.4493 72 62.4493 72C62.4493 72 62.4493 72 62.4493 72C62.4493 72 62.4493 72 62.4493 72C62.4493 72 62.4493 72 62.4493 72C62.4493 72 62.4493 72 62.4493 72C62.4493 72 62.4493 72 62.4493 72C62.4493 72 62.4493 72 62.4493 72C62.4493 72 62.4493 72 62.4493 72C62.4493 72 62.4493 72 62.4493 72C62.4493 72 62.4493 72 62.4493 72C62.4493 72 62.4493 72 62.4493 72C62.4493 72 62.4493 72 62.4493 72C62.4493 72 62.4493 72 62.4493 72C62.4493 72 62.4493 72 62.4493 72C62.4493 72 62.4493 72 62.4493 72C62.4493 72 62.4493 72 62.4493 72C62.4493 72 62.4493 72 62.4493 72C62.4493 72 62.4493 72 62.4493 72C62.4493 72 62.4493 72 62.4493 72C62.4493 72 62.4493 72 62.4493 72C62.4493 72 62.4493 72 62.4493 72C62.4493 72 62.4493 72 62.4493 72C62.4493 72 62.4493 72 62.4493 72C62.4493 72 62.4493 72 62.4493 72C62.4493 72 62.4493 72 62.4493 72C62.4493 72 62.4493 72 62.4493 72C62.4493 72 62.4493 72 62.4493 72C62.4493 72 62.4493 72 62.4493 72C62.4493 72 62.4493 72 62.4493 72C62.4493 72 62.4493 72 62.4493 72C62.4493 72 62.4493 72 62.4493 72C62.4493 72 62.4493 72 62.4493 72C62.4493 72 62.4493 72 62.4493 72C62.4493 72 62.4493 72 62.4493 72C62.4493 72 62.4493 72 62.4493 72C62.4493 72 62.4493 72 62.4493 72C62.4493 72 62.4493 72 62.4493 72C62.4493 72 62.4493 72 62.4493 72C62.4493 72 62.4493 72 62.4493 72C62.4493 72 62.4493 72 62.4493 72C62.4493 72 62.4493 72 62.4493 72C62.4493 72 62.4493 72 62.4493 72C62.4493 72 62.4493 72 62.4493 72C62.4493 72 62.4493 72 62.4493 72C62.4493 72 62.4493 72 62.4493 72C62.4493 72 62.4493 72 62.4493 72C62.4493 72 62.4493 72 62.4493 72C62.4493 72 62.4493 72 62.4493 72C62.4493 72 62.4493 72 62.4493 72C62.4493 72 62.4493 72 62.4493 72C62.4493 72 62.4493 72 62.4493 72C62.4493 72 62.4493 72 62.4493 72C62.4493 72 62.4493 72 62.4493 72C62.4493 72 62.4493 72 62.4493 72C62.4493 72 62.4493 72 62.4493 72C62.4493 72 62.4493 72 62.4493 72C62.4493 72 62.4493 72 62.4493 72C62.4493 72 62.4493 72 62.4493 72C62.4493 72 62.4493 72 62.4493 72C62.4493 72 62.4493 72 62.4493 72C62.4493 72 62.4493 72 62.4493 72C62.4493 72 62.4493 72 62.4493 72C62.4493 72 62.4493 72 62.4493 72C62.4493 72 62.4493 72 62.4493 72C62.4493 72 62.4493 72 62.4493 72C62.4493 72 62.4493 72 62.4493 72C62.4493 72 62.4493 72 62.4493 72C62.4493 72 62.4493 72 62.4493 72C62.4493 72 62.4493 72 62.4493 72C62.4493 72 62.4493 72 62.4493 72C62.4493 72 62.4493 72 62.4493 72C62.4493 72 62.4493 72 62.4493 72C62.4493 72 62.4493 72 62.4493 72C62.4493 72 62.4493 72 62.4493 72C62.4493 72 62.4493 72 62.4493 72C62.4493 72 62.4493 72 62.4493 72C62.4493 72 62.4493 72 62.4493 72C62.4493 72 62.4493 72 62.4493 72C62.4493 72 62.4493 72 62.4493 72C62.4493 72 62.4493 72 62.4493 72C62.4493 72 62.4493 72 62.4493 72C62.4493 72 62.4493 72 62.4493 72C62.4493 72 62.4493 72 62.4493 72C62.4493 72 62.4493 72 62.4493 72C62.4493 72 62.4493 72 62.4493 72C62.4493 72 62.4493 72 62.4493 72C62.4493 72 62.4493 72 62.4493 72C62.4493 72 62.4493 72 62.4493 72C62.4493 72 62.4493 72 62.4493 72C62.4493 72 62.4493 72 62.4493 72C62.4493 72 62.4493 72 62.4493 72C62.4493 72 62.4493 72 62.4493 72C62.4493 72 62.4493 72 62.4493 72C62.4493 72 62.4493 72 62.4493 72C62.4493 72 62.4493 72 62.4493 72C62.4493 72 62.4493 72 62.4493 72C62.4493 72 62.4493 72 62.4493 72C62.4493 72 62.4493 72 62.4493 72C62.4493 72 62.4493 72 62.4493 72C62.4493 72 62.4493 72 62.4493 72C62.4493 72 62.4493 72 62.4493 72C62.4493 72 62.4493 72 62.4493 72C62.4493 72 62.4493 72 62.4493 72C62.4493 72 62.4493 72 62.4493 72C62.4493 72 62.4493 72 62.4493 72C62.4493 72 62.4493 72 62.4493 72C62.4493 72 62.4493 72 62.4493 72C62.4493 72 62.4493 72 62.4493 72C62.4493 72 62.4493 72 62.4493 72C62.4493 72 62.4493 72 62.4493 72C62.4493 72 62.4493 72 62.4493 72C62.4493 72 62.4493 72 62.4493 72C62.4493 72 62.4493 72 62.4493 72C62.4493 72 62.4493 72 62.4493 72C62.4493 72 62.4493 72 62.4493 72C62.4493 72 62.4493 72 62.4493 72C62.4493 72 62.4493 72 62.4493 72C62.4493 72 62.4493 72 62.4493 72C62.4493 72 62.4493 72 62.4493 72C62.4493 72 62.4493 72 62.4493 72C62.4493 72 62.4493 72 62.4493 72C62.4493 72 62.4493 72 62.4493 72C62.4493 72 62.4493 72 62.4493 72C62.4493 72 62.4493 72 62.4493 72C62.4493 72 62.4493 72 62.4493 72C62.4493 72 62.4493 72 62.4493 72C62.4494 72 62.4494 72 62.4494 72C62.4494 72 62.4494 72 62.4494 72C62.4494 72 62.4494 72 62.4494 72C62.4494 72 62.4494 72 62.4494 72C62.4494 72 62.4494 72 62.4494 72C62.4494 72 62.4494 72 62.4494 72C62.4494 72 62.4494 72 62.4494 72C62.4494 72 62.4494 72 62.4494 72C62.4494 72 62.4494 72 62.4494 72C62.4494 72 62.4494 72 62.4494 72C62.4494 72 62.4494 72 62.4494 72C62.4494 72 62.4494 72 62.4494 72C62.4494 72 62.4494 72 62.4494 72C62.4494 72 62.4494 72 62.4494 72C62.4494 72 62.4494 72 62.4494 72C62.4494 72 62.4494 72 62.4494 72C62.4494 72 62.4494 72 62.4494 72C62.4494 72 62.4494 72 62.4494 72C62.4494 72 62.4494 72 62.4494 72C62.4494 72 62.4494 72 62.4494 72C62.4494 72 62.4494 72 62.4494 72C62.4494 72 62.4494 72 62.4494 72C62.4494 72 62.4494 72 62.4494 72C62.4494 72 62.4494 72 62.4494 72C62.4494 72 62.4494 72 62.4494 72C62.4494 72 62.4494 72 62.4494 72C62.4494 72 62.4494 72 62.4494 72C62.4494 72 62.4494 72 62.4494 72C62.4494 72 62.4494 72 62.4494 72C62.4494 72 62.4494 72 62.4494 72C62.4494 72 62.4494 72 62.4494 72C62.4494 72 62.4494 72 62.4494 72C62.4494 72 62.4494 72 62.4494 72C62.4494 72 62.4494 72 62.4494 72C62.4494 72 62.4494 72 62.4494 72C62.4494 72 62.4494 72 62.4494 72C62.4494 72 62.4494 72 62.4494 72C62.4494 72 62.4494 72 62.4494 72C62.4494 72 62.4494 72 62.4494 72C62.4494 72 62.4494 72 62.4494 72C62.4494 72 62.4494 72 62.4494 72C62.4494 72 62.4494 72 62.4494 72C62.4494 72 62.4494 72 62.4494 72C62.4494 72 62.4494 72 62.4494 72C62.4494 72 62.4494 72 62.4494 72C62.4494 72 62.4494 72 62.4494 72C62.4494 72 62.4494 72 62.4494 72C62.4494 72 62.4494 72 62.4494 72C62.4494 72 62.4494 72 62.4494 72C62.4494 72 62.4494 72 62.4494 72C62.4494 72 62.4494 72 62.4494 72C62.4494 72 62.4494 72 62.4494 72C62.4494 72 62.4494 72 62.4494 72C62.4494 72 62.4494 72 62.4494 72C62.4494 72 62.4494 72 62.4494 72C62.4494 72 62.4494 72 62.4494 72C62.4494 72 62.4494 72 62.4494 72C62.4494 72 62.4494 72 62.4494 72C62.4494 72 62.4494 72 62.4494 72C62.4494 72 62.4494 72 62.4494 72C62.4494 72 62.4494 72 62.4494 72C62.4494 72 62.4494 72 62.4494 72C62.4494 72 62.4494 72 62.4494 72C62.4494 72 62.4494 72 62.4494 72C62.4494 72 62.4494 72 62.4494 72C62.4494 72 62.4494 72 62.4494 72C62.4494 72 62.4494 72 62.4494 72C62.4494 72 62.4494 72 62.4494 72C62.4494 72 62.4494 72 62.4494 72C62.4494 72 62.4494 72 62.4494 72C62.4494 72 62.4494 72 62.4494 72C62.4494 72 62.4494 72 62.4494 72C62.4494 72 62.4494 72 62.4494 72C62.4494 72 62.4494 72 62.4494 72C62.4494 72 62.4494 72 62.4494 72C62.4494 72 62.4494 72 62.4494 72C62.4494 72 62.4494 72 62.4494 72C62.4494 72 62.4494 72 62.4494 72C62.4494 72 62.4494 72 62.4494 72C62.4494 72 62.4494 72 62.4494 72C62.4494 72 62.4494 72 62.4494 72C62.4494 72 62.4494 72 62.4494 72C62.4494 72 62.4494 72 62.4494 72C62.4494 72 62.4494 72 62.4494 72C62.4494 72 62.4494 72 62.4494 72C62.4494 72 62.4494 72 62.4494 72C62.4494 72 62.4494 72 62.4494 72C62.4494 72 62.4494 72 62.4494 72C62.4494 72 62.4494 72 62.4494 72C62.4494 72 62.4494 72 62.4494 72C62.4494 72 62.4494 72 62.4494 72C62.4494 72 62.4494 72 62.4494 72C62.4494 72 62.4494 72 62.4494 72C62.4494 72 62.4494 72 62.4494 72C62.4494 72 62.4494 72 62.4494 72C62.4494 72 62.4494 72 62.4494 72C62.4494 72 62.4494 72 62.4494 72C62.4494 72 62.4494 72 62.4494 72C62.4494 72 62.4494 72 62.4494 72C62.4494 72 62.4494 72 62.4494 72C62.4494 72 62.4494 72 62.4494 72C62.4494 72 62.4494 72 62.4494 72C62.4494 72 62.4494 72 62.4494 72C62.4494 72 62.4494 72 62.4494 72C62.4494 72 62.4494 72 62.4494 72C62.4494 72 62.4494 72 62.4494 72C62.4494 72 62.4494 72 62.4494 72C62.4494 72 62.4494 72 62.4494 72C62.4494 72 62.4494 72 62.4494 72C62.4494 72 62.4494 72 62.4494 72C62.4494 72 62.4494 72 62.4494 72C62.4494 72 62.4494 72 62.4494 72C62.4494 72 62.4494 72 62.4494 72C62.4494 72 62.4494 72 62.4494 72C62.4494 72 62.4494 72 62.4494 72C62.4494 72 62.4494 72 62.4494 72C62.4494 72 62.4494 72 62.4494 72C62.4494 72 62.4494 72 62.4494 72C62.4494 72 62.4494 72 62.4494 72C62.4494 72 62.4494 72 62.4494 72C62.4494 72 62.4494 72 62.4494 72C62.4494 72 62.4494 72 62.4494 72C62.4494 72 62.4494 72 62.4494 72C62.4494 72 62.4494 72 62.4494 72C62.4494 72 62.4494 72 62.4494 72C62.4494 72 62.4494 72 62.4494 72C62.4494 72 62.4494 72 62.4494 72C62.4494 72 62.4494 72 62.4494 72C62.4494 72 62.4494 72 62.4494 72C62.4494 72 62.4494 72 62.4494 72C62.4494 72 62.4494 72 62.4494 72C62.4494 72 62.4494 72 62.4494 72C62.4494 72 62.4494 72 62.4494 72C62.4494 72 62.4494 72 62.4494 72C62.4494 72 62.4494 72 62.4494 72C62.4494 72 62.4494 72 62.4495 72C62.4495 72 62.4495 72 62.4495 72C62.4495 72 62.4495 72 62.4495 72C62.4495 72 62.4495 72 62.4495 72C62.4495 72 62.4495 72 62.4495 72C62.4495 72 62.4495 72 62.4495 72C62.4495 72 62.4495 72 62.4495 72C62.4495 72 62.4495 72 62.4495 72V68C62.4495 68 62.4495 68 62.4495 68C62.4495 68 62.4495 68 62.4495 68C62.4495 68 62.4495 68 62.4495 68C62.4495 68 62.4495 68 62.4495 68C62.4495 68 62.4495 68 62.4495 68C62.4495 68 62.4495 68 62.4495 68C62.4495 68 62.4495 68 62.4495 68C62.4494 68 62.4494 68 62.4494 68C62.4494 68 62.4494 68 62.4494 68C62.4494 68 62.4494 68 62.4494 68C62.4494 68 62.4494 68 62.4494 68C62.4494 68 62.4494 68 62.4494 68C62.4494 68 62.4494 68 62.4494 68C62.4494 68 62.4494 68 62.4494 68C62.4494 68 62.4494 68 62.4494 68C62.4494 68 62.4494 68 62.4494 68C62.4494 68 62.4494 68 62.4494 68C62.4494 68 62.4494 68 62.4494 68C62.4494 68 62.4494 68 62.4494 68C62.4494 68 62.4494 68 62.4494 68C62.4494 68 62.4494 68 62.4494 68C62.4494 68 62.4494 68 62.4494 68C62.4494 68 62.4494 68 62.4494 68C62.4494 68 62.4494 68 62.4494 68C62.4494 68 62.4494 68 62.4494 68C62.4494 68 62.4494 68 62.4494 68C62.4494 68 62.4494 68 62.4494 68C62.4494 68 62.4494 68 62.4494 68C62.4494 68 62.4494 68 62.4494 68C62.4494 68 62.4494 68 62.4494 68C62.4494 68 62.4494 68 62.4494 68C62.4494 68 62.4494 68 62.4494 68C62.4494 68 62.4494 68 62.4494 68C62.4494 68 62.4494 68 62.4494 68C62.4494 68 62.4494 68 62.4494 68C62.4494 68 62.4494 68 62.4494 68C62.4494 68 62.4494 68 62.4494 68C62.4494 68 62.4494 68 62.4494 68C62.4494 68 62.4494 68 62.4494 68C62.4494 68 62.4494 68 62.4494 68C62.4494 68 62.4494 68 62.4494 68C62.4494 68 62.4494 68 62.4494 68C62.4494 68 62.4494 68 62.4494 68C62.4494 68 62.4494 68 62.4494 68C62.4494 68 62.4494 68 62.4494 68C62.4494 68 62.4494 68 62.4494 68C62.4494 68 62.4494 68 62.4494 68C62.4494 68 62.4494 68 62.4494 68C62.4494 68 62.4494 68 62.4494 68C62.4494 68 62.4494 68 62.4494 68C62.4494 68 62.4494 68 62.4494 68C62.4494 68 62.4494 68 62.4494 68C62.4494 68 62.4494 68 62.4494 68C62.4494 68 62.4494 68 62.4494 68C62.4494 68 62.4494 68 62.4494 68C62.4494 68 62.4494 68 62.4494 68C62.4494 68 62.4494 68 62.4494 68C62.4494 68 62.4494 68 62.4494 68C62.4494 68 62.4494 68 62.4494 68C62.4494 68 62.4494 68 62.4494 68C62.4494 68 62.4494 68 62.4494 68C62.4494 68 62.4494 68 62.4494 68C62.4494 68 62.4494 68 62.4494 68C62.4494 68 62.4494 68 62.4494 68C62.4494 68 62.4494 68 62.4494 68C62.4494 68 62.4494 68 62.4494 68C62.4494 68 62.4494 68 62.4494 68C62.4494 68 62.4494 68 62.4494 68C62.4494 68 62.4494 68 62.4494 68C62.4494 68 62.4494 68 62.4494 68C62.4494 68 62.4494 68 62.4494 68C62.4494 68 62.4494 68 62.4494 68C62.4494 68 62.4494 68 62.4494 68C62.4494 68 62.4494 68 62.4494 68C62.4494 68 62.4494 68 62.4494 68C62.4494 68 62.4494 68 62.4494 68C62.4494 68 62.4494 68 62.4494 68C62.4494 68 62.4494 68 62.4494 68C62.4494 68 62.4494 68 62.4494 68C62.4494 68 62.4494 68 62.4494 68C62.4494 68 62.4494 68 62.4494 68C62.4494 68 62.4494 68 62.4494 68C62.4494 68 62.4494 68 62.4494 68C62.4494 68 62.4494 68 62.4494 68C62.4494 68 62.4494 68 62.4494 68C62.4494 68 62.4494 68 62.4494 68C62.4494 68 62.4494 68 62.4494 68C62.4494 68 62.4494 68 62.4494 68C62.4494 68 62.4494 68 62.4494 68C62.4494 68 62.4494 68 62.4494 68C62.4494 68 62.4494 68 62.4494 68C62.4494 68 62.4494 68 62.4494 68C62.4494 68 62.4494 68 62.4494 68C62.4494 68 62.4494 68 62.4494 68C62.4494 68 62.4494 68 62.4494 68C62.4494 68 62.4494 68 62.4494 68C62.4494 68 62.4494 68 62.4494 68C62.4494 68 62.4494 68 62.4494 68C62.4494 68 62.4494 68 62.4494 68C62.4494 68 62.4494 68 62.4494 68C62.4494 68 62.4494 68 62.4494 68C62.4494 68 62.4494 68 62.4494 68C62.4494 68 62.4494 68 62.4494 68C62.4494 68 62.4494 68 62.4494 68C62.4494 68 62.4494 68 62.4494 68C62.4494 68 62.4494 68 62.4494 68C62.4494 68 62.4494 68 62.4494 68C62.4494 68 62.4494 68 62.4494 68C62.4494 68 62.4494 68 62.4494 68C62.4494 68 62.4494 68 62.4494 68C62.4494 68 62.4494 68 62.4494 68C62.4494 68 62.4494 68 62.4494 68C62.4494 68 62.4494 68 62.4494 68C62.4494 68 62.4494 68 62.4494 68C62.4494 68 62.4494 68 62.4494 68C62.4494 68 62.4494 68 62.4494 68C62.4494 68 62.4494 68 62.4494 68C62.4494 68 62.4494 68 62.4494 68C62.4494 68 62.4494 68 62.4494 68C62.4494 68 62.4494 68 62.4494 68C62.4494 68 62.4494 68 62.4494 68C62.4494 68 62.4494 68 62.4494 68C62.4494 68 62.4494 68 62.4494 68C62.4494 68 62.4494 68 62.4494 68C62.4494 68 62.4494 68 62.4494 68C62.4494 68 62.4494 68 62.4494 68C62.4494 68 62.4494 68 62.4494 68C62.4494 68 62.4494 68 62.4494 68C62.4494 68 62.4494 68 62.4494 68C62.4494 68 62.4494 68 62.4494 68C62.4494 68 62.4494 68 62.4494 68C62.4494 68 62.4494 68 62.4494 68C62.4494 68 62.4494 68 62.4494 68C62.4494 68 62.4494 68 62.4494 68C62.4494 68 62.4494 68 62.4494 68C62.4494 68 62.4494 68 62.4494 68C62.4494 68 62.4494 68 62.4494 68C62.4494 68 62.4494 68 62.4494 68C62.4494 68 62.4494 68 62.4494 68C62.4494 68 62.4494 68 62.4494 68C62.4494 68 62.4494 68 62.4494 68C62.4494 68 62.4494 68 62.4494 68C62.4494 68 62.4494 68 62.4493 68C62.4493 68 62.4493 68 62.4493 68C62.4493 68 62.4493 68 62.4493 68C62.4493 68 62.4493 68 62.4493 68C62.4493 68 62.4493 68 62.4493 68C62.4493 68 62.4493 68 62.4493 68C62.4493 68 62.4493 68 62.4493 68C62.4493 68 62.4493 68 62.4493 68C62.4493 68 62.4493 68 62.4493 68C62.4493 68 62.4493 68 62.4493 68C62.4493 68 62.4493 68 62.4493 68C62.4493 68 62.4493 68 62.4493 68C62.4493 68 62.4493 68 62.4493 68C62.4493 68 62.4493 68 62.4493 68C62.4493 68 62.4493 68 62.4493 68C62.4493 68 62.4493 68 62.4493 68C62.4493 68 62.4493 68 62.4493 68C62.4493 68 62.4493 68 62.4493 68C62.4493 68 62.4493 68 62.4493 68C62.4493 68 62.4493 68 62.4493 68C62.4493 68 62.4493 68 62.4493 68C62.4493 68 62.4493 68 62.4493 68C62.4493 68 62.4493 68 62.4493 68C62.4493 68 62.4493 68 62.4493 68C62.4493 68 62.4493 68 62.4493 68C62.4493 68 62.4493 68 62.4493 68C62.4493 68 62.4493 68 62.4493 68C62.4493 68 62.4493 68 62.4493 68C62.4493 68 62.4493 68 62.4493 68C62.4493 68 62.4493 68 62.4493 68C62.4493 68 62.4493 68 62.4493 68C62.4493 68 62.4493 68 62.4493 68C62.4493 68 62.4493 68 62.4493 68C62.4493 68 62.4493 68 62.4493 68C62.4493 68 62.4493 68 62.4493 68C62.4493 68 62.4493 68 62.4493 68C62.4493 68 62.4493 68 62.4493 68C62.4493 68 62.4493 68 62.4493 68C62.4493 68 62.4493 68 62.4493 68C62.4493 68 62.4493 68 62.4493 68C62.4493 68 62.4493 68 62.4493 68C62.4493 68 62.4493 68 62.4493 68C62.4493 68 62.4493 68 62.4493 68C62.4493 68 62.4493 68 62.4493 68C62.4493 68 62.4493 68 62.4493 68C62.4493 68 62.4493 68 62.4493 68C62.4493 68 62.4493 68 62.4493 68C62.4493 68 62.4493 68 62.4493 68C62.4493 68 62.4493 68 62.4493 68C62.4493 68 62.4493 68 62.4493 68C62.4493 68 62.4493 68 62.4493 68C62.4493 68 62.4493 68 62.4493 68C62.4493 68 62.4493 68 62.4493 68C62.4493 68 62.4493 68 62.4493 68C62.4493 68 62.4493 68 62.4493 68C62.4493 68 62.4493 68 62.4493 68C62.4493 68 62.4493 68 62.4493 68C62.4493 68 62.4493 68 62.4493 68C62.4493 68 62.4493 68 62.4493 68C62.4493 68 62.4493 68 62.4493 68C62.4493 68 62.4493 68 62.4493 68C62.4493 68 62.4493 68 62.4493 68C62.4493 68 62.4493 68 62.4493 68C62.4493 68 62.4493 68 62.4493 68C62.4493 68 62.4493 68 62.4493 68C62.4493 68 62.4493 68 62.4493 68C62.4493 68 62.4493 68 62.4493 68C62.4493 68 62.4493 68 62.4493 68C62.4493 68 62.4493 68 62.4493 68C62.4493 68 62.4493 68 62.4493 68C62.4493 68 62.4493 68 62.4493 68C62.4493 68 62.4493 68 62.4493 68C62.4493 68 62.4493 68 62.4493 68C62.4493 68 62.4493 68 62.4493 68C62.4493 68 62.4493 68 62.4493 68C62.4493 68 62.4493 68 62.4493 68C62.4493 68 62.4493 68 62.4493 68C62.4493 68 62.4493 68 62.4493 68C62.4493 68 62.4493 68 62.4493 68C62.4493 68 62.4493 68 62.4493 68C62.4493 68 62.4493 68 62.4493 68C62.4493 68 62.4493 68 62.4493 68C62.4493 68 62.4493 68 62.4493 68C62.4493 68 62.4493 68 62.4493 68C62.4493 68 62.4493 68 62.4493 68C62.4493 68 62.4493 68 62.4493 68C62.4493 68 62.4493 68 62.4493 68C62.4493 68 62.4493 68 62.4493 68C62.4493 68 62.4493 68 62.4493 68C62.4493 68 62.4493 68 62.4493 68C62.4493 68 62.4493 68 62.4493 68C62.4493 68 62.4493 68 62.4493 68C62.4493 68 62.4493 68 62.4493 68C62.4493 68 62.4493 68 62.4493 68C62.4493 68 62.4493 68 62.4493 68C62.4493 68 62.4493 68 62.4493 68C62.4493 68 62.4493 68 62.4493 68C62.4493 68 62.4493 68 62.4493 68C62.4493 68 62.4493 68 62.4493 68C62.4493 68 62.4493 68 62.4493 68C62.4493 68 62.4493 68 62.4493 68C62.4493 68 62.4493 68 62.4493 68C62.4493 68 62.4493 68 62.4493 68C62.4493 68 62.4493 68 62.4493 68C62.4493 68 62.4493 68 62.4493 68C62.4493 68 62.4493 68 62.4493 68C62.4493 68 62.4493 68 62.4493 68C62.4493 68 62.4493 68 62.4493 68C62.4493 68 62.4493 68 62.4493 68C62.4493 68 62.4493 68 62.4493 68C62.4493 68 62.4493 68 62.4493 68C62.4493 68 62.4493 68 62.4493 68C62.4493 68 62.4493 68 62.4493 68C62.4493 68 62.4493 68 62.4493 68C62.4493 68 62.4493 68 62.4493 68C62.4493 68 62.4493 68 62.4493 68C62.4493 68 62.4493 68 62.4493 68C62.4493 68 62.4493 68 62.4493 68C62.4493 68 62.4493 68 62.4493 68C62.4493 68 62.4493 68 62.4493 68C62.4493 68 62.4493 68 62.4493 68C62.4493 68 62.4493 68 62.4493 68C62.4493 68 62.4493 68 62.4493 68C62.4493 68 62.4493 68 62.4493 68C62.4493 68 62.4493 68 62.4493 68C62.4493 68 62.4493 68 62.4493 68C62.4493 68 62.4493 68 62.4493 68C62.4493 68 62.4493 68 62.4493 68C62.4493 68 62.4493 68 62.4493 68C62.4493 68 62.4493 68 62.4493 68C62.4493 68 62.4493 68 62.4493 68C62.4493 68 62.4493 68 62.4493 68C62.4493 68 62.4493 68 62.4493 68C62.4493 68 62.4493 68 62.4493 68C62.4493 68 62.4493 68 62.4493 68C62.4493 68 62.4493 68 62.4493 68C62.4492 68 62.4492 68 62.4492 68C62.4492 68 62.4492 68 62.4492 68C62.4492 68 62.4492 68 62.4492 68C62.4492 68 62.4492 68 62.4492 68C62.4492 68 62.4492 68 62.4492 68C62.4492 68 62.4492 68 62.4492 68C62.4492 68 62.4492 68 62.4492 68C62.4492 68 62.4492 68 62.4492 68C62.4492 68 62.4492 68 62.4492 68C62.4492 68 62.4492 68 62.4492 68C62.4492 68 62.4492 68 62.4492 68C62.4492 68 62.4492 68 62.4492 68C62.4492 68 62.4492 68 62.4492 68C62.4492 68 62.4492 68 62.4492 68C62.4492 68 62.4492 68 62.4492 68C62.4492 68 62.4492 68 62.4492 68C62.4492 68 62.4492 68 62.4492 68C62.4492 68 62.4492 68 62.4492 68C62.4492 68 62.4492 68 62.4492 68C62.4492 68 62.4492 68 62.4492 68C62.4492 68 62.4492 68 62.4492 68C62.4492 68 62.4492 68 62.4492 68C62.4492 68 62.4492 68 62.4492 68C62.4492 68 62.4492 68 62.4492 68C62.4492 68 62.4492 68 62.4492 68C62.4492 68 62.4492 68 62.4492 68C62.4492 68 62.4492 68 62.4492 68C62.4492 68 62.4492 68 62.4492 68C62.4492 68 62.4492 68 62.4492 68C62.4492 68 62.4492 68 62.4492 68C62.4492 68 62.4492 68 62.4492 68C62.4492 68 62.4492 68 62.4492 68C62.4492 68 62.4492 68 62.4492 68C62.4492 68 62.4492 68 62.4492 68C62.4492 68 62.4492 68 62.4492 68C62.4492 68 62.4492 68 62.4492 68C62.4492 68 62.4492 68 62.4492 68C62.4492 68 62.4492 68 62.4492 68C62.4492 68 62.4492 68 62.4492 68C62.4492 68 62.4492 68 62.4492 68C62.4492 68 62.4492 68 62.4492 68C62.4492 68 62.4492 68 62.4492 68C62.4492 68 62.4492 68 62.4492 68C62.4492 68 62.4492 68 62.4492 68C62.4492 68 62.4492 68 62.4492 68C62.4492 68 62.4492 68 62.4492 68C62.4492 68 62.4492 68 62.4492 68C62.4492 68 62.4492 68 62.4492 68C62.4492 68 62.4492 68 62.4492 68C62.4492 68 62.4492 68 62.4492 68C62.4492 68 62.4492 68 62.4492 68C62.4492 68 62.4492 68 62.4492 68C62.4492 68 62.4492 68 62.4492 68C62.4492 68 62.4492 68 62.4492 68C62.4492 68 62.4492 68 62.4492 68C62.4492 68 62.4492 68 62.4492 68C62.4492 68 62.4492 68 62.4492 68C62.4492 68 62.4492 68 62.4492 68C62.4492 68 62.4492 68 62.4492 68C62.4492 68 62.4492 68 62.4492 68C62.4492 68 62.4492 68 62.4492 68C62.4492 68 62.4492 68 62.4492 68C62.4492 68 62.4492 68 62.4492 68C62.4492 68 62.4492 68 62.4492 68C62.4492 68 62.4492 68 62.4492 68C62.4492 68 62.4492 68 62.4492 68C62.4492 68 62.4492 68 62.4492 68C62.4492 68 62.4492 68 62.4492 68C62.4492 68 62.4492 68 62.4492 68C62.4492 68 62.4492 68 62.4492 68C62.4492 68 62.4492 68 62.4492 68C62.4492 68 62.4492 68 62.4492 68C62.4492 68 62.4492 68 62.4492 68C62.4492 68 62.4492 68 62.4492 68C62.4492 68 62.4492 68 62.4492 68C62.4492 68 62.4492 68 62.4492 68C62.4492 68 62.4492 68 62.4492 68C62.4492 68 62.4492 68 62.4492 68C62.4492 68 62.4492 68 62.4492 68C62.4492 68 62.4492 68 62.4492 68C62.4492 68 62.4492 68 62.4492 68C62.4492 68 62.4492 68 62.4492 68C62.4492 68 62.4492 68 62.4492 68C62.4492 68 62.4492 68 62.4492 68C62.4492 68 62.4492 68 62.4492 68C62.4492 68 62.4492 68 62.4492 68C62.4492 68 62.4492 68 62.4492 68C62.4492 68 62.4492 68 62.4492 68C62.4492 68 62.4492 68 62.4492 68C62.4492 68 62.4492 68 62.4492 68C62.4492 68 62.4492 68 62.4492 68C62.4492 68 62.4492 68 62.4492 68C62.4492 68 62.4492 68 62.4492 68C62.4492 68 62.4492 68 62.4492 68C62.4492 68 62.4492 68 62.4492 68C62.4492 68 62.4492 68 62.4492 68C62.4492 68 62.4492 68 62.4492 68C62.4492 68 62.4492 68 62.4492 68C62.4492 68 62.4492 68 62.4492 68C62.4492 68 62.4492 68 62.4492 68C62.4492 68 62.4492 68 62.4492 68C62.4492 68 62.4492 68 62.4492 68C62.4492 68 62.4492 68 62.4492 68C62.4492 68 62.4492 68 62.4492 68C62.4492 68 62.4492 68 62.4492 68C62.4492 68 62.4492 68 62.4492 68C62.4492 68 62.4492 68 62.4492 68C62.4492 68 62.4492 68 62.4492 68C62.4492 68 62.4492 68 62.4492 68C62.4492 68 62.4492 68 62.4492 68C62.4492 68 62.4492 68 62.4492 68C62.4492 68 62.4492 68 62.4492 68C62.4492 68 62.4492 68 62.4492 68C62.4492 68 62.4492 68 62.4492 68C62.4492 68 62.4492 68 62.4492 68C62.4492 68 62.4492 68 62.4492 68C62.4492 68 62.4492 68 62.4492 68C62.4492 68 62.4492 68 62.4492 68C62.4492 68 62.4492 68 62.4492 68C62.4492 68 62.4492 68 62.4492 68C62.4492 68 62.4492 68 62.4492 68C62.4492 68 62.4492 68 62.4492 68C62.4492 68 62.4492 68 62.4492 68C62.4492 68 62.4492 68 62.4492 68C62.4492 68 62.4492 68 62.4492 68C62.4492 68 62.4492 68 62.4492 68C62.4492 68 62.4492 68 62.4492 68C62.4492 68 62.4492 68 62.4492 68C62.4492 68 62.4492 68 62.4492 68C62.4492 68 62.4492 68 62.4492 68C62.4492 68 62.4492 68 62.4492 68C62.4492 68 62.4492 68 62.4492 68C62.4492 68 62.4492 68 62.4492 68C62.4492 68 62.4492 68 62.4492 68C62.4492 68 62.4492 68 62.4492 68C62.4492 68 62.4492 68 62.4491 68C62.4491 68 62.4491 68 62.4491 68C62.4491 68 62.4491 68 62.4491 68C62.4491 68 62.4491 68 62.4491 68C62.4491 68 62.4491 68 62.4491 68C62.4491 68 62.4491 68 62.4491 68C62.4491 68 62.4491 68 62.4491 68C62.4491 68 62.4491 68 62.4491 68C62.4491 68 62.4491 68 62.4491 68C62.4491 68 62.4491 68 62.4491 68C62.4491 68 62.4491 68 62.4491 68C62.4491 68 62.4491 68 62.4491 68C62.4491 68 62.4491 68 62.4491 68C62.4491 68 62.4491 68 62.4491 68C62.4491 68 62.4491 68 62.4491 68C62.4491 68 62.4491 68 62.4491 68C62.4491 68 62.4491 68 62.4491 68C62.4491 68 62.4491 68 62.4491 68C62.4491 68 62.4491 68 62.4491 68C62.4491 68 62.4491 68 62.4491 68C62.4491 68 62.4491 68 62.4491 68C62.4491 68 62.4491 68 62.4491 68C62.4491 68 62.4491 68 62.4491 68C62.4491 68 62.4491 68 62.4491 68C62.4491 68 62.4491 68 62.4491 68C62.4491 68 62.4491 68 62.4491 68C62.4491 68 62.4491 68 62.4491 68C62.4491 68 62.4491 68 62.4491 68C62.4491 68 62.4491 68 62.4491 68C62.4491 68 62.4491 68 62.4491 68C62.4491 68 62.4491 68 62.4491 68C62.4491 68 62.4491 68 62.4491 68C62.4491 68 62.4491 68 62.4491 68C62.4491 68 62.4491 68 62.4491 68C62.4491 68 62.4491 68 62.4491 68C62.4491 68 62.4491 68 62.4491 68C62.4491 68 62.4491 68 62.4491 68C62.4491 68 62.4491 68 62.4491 68C62.4491 68 62.4491 68 62.4491 68C62.4491 68 62.4491 68 62.4491 68C62.4491 68 62.4491 68 62.4491 68C62.4491 68 62.4491 68 62.4491 68C62.4491 68 62.4491 68 62.4491 68C62.4491 68 62.4491 68 62.4491 68C62.4491 68 62.4491 68 62.4491 68C62.4491 68 62.4491 68 62.4491 68C62.4491 68 62.4491 68 62.4491 68C62.4491 68 62.4491 68 62.4491 68C62.4491 68 62.4491 68 62.4491 68C62.4491 68 62.4491 68 62.4491 68C62.4491 68 62.4491 68 62.4491 68C62.4491 68 62.4491 68 62.4491 68C62.4491 68 62.4491 68 62.4491 68C62.4491 68 62.4491 68 62.4491 68C62.4491 68 62.4491 68 62.4491 68C62.4491 68 62.4491 68 62.4491 68C62.4491 68 62.4491 68 62.4491 68C62.4491 68 62.4491 68 62.4491 68C62.4491 68 62.4491 68 62.4491 68C62.4491 68 62.4491 68 62.4491 68C62.4491 68 62.4491 68 62.4491 68C62.4491 68 62.4491 68 62.4491 68C62.4491 68 62.4491 68 62.4491 68C62.4491 68 62.4491 68 62.4491 68C62.4491 68 62.4491 68 62.4491 68C62.4491 68 62.4491 68 62.4491 68C62.4491 68 62.4491 68 62.4491 68C62.4491 68 62.4491 68 62.4491 68C62.4491 68 62.4491 68 62.4491 68C62.4491 68 62.4491 68 62.4491 68C62.4491 68 62.4491 68 62.4491 68C62.4491 68 62.4491 68 62.4491 68C62.4491 68 62.4491 68 62.4491 68C62.4491 68 62.4491 68 62.4491 68C62.4491 68 62.4491 68 62.4491 68C62.4491 68 62.4491 68 62.4491 68C62.4491 68 62.4491 68 62.4491 68C62.4491 68 62.4491 68 62.4491 68C62.4491 68 62.4491 68 62.4491 68C62.4491 68 62.4491 68 62.4491 68C62.4491 68 62.4491 68 62.4491 68C62.4491 68 62.4491 68 62.4491 68C62.4491 68 62.4491 68 62.4491 68C62.4491 68 62.4491 68 62.4491 68C62.4491 68 62.4491 68 62.4491 68C62.4491 68 62.4491 68 62.4491 68C62.4491 68 62.4491 68 62.4491 68C62.4491 68 62.4491 68 62.4491 68C62.4491 68 62.4491 68 62.4491 68C62.4491 68 62.4491 68 62.4491 68C62.4491 68 62.4491 68 62.4491 68C62.4491 68 62.4491 68 62.4491 68C62.4491 68 62.4491 68 62.4491 68C62.4491 68 62.4491 68 62.4491 68C62.4491 68 62.4491 68 62.4491 68C62.4491 68 62.4491 68 62.4491 68C62.4491 68 62.4491 68 62.4491 68C62.4491 68 62.4491 68 62.4491 68C62.4491 68 62.4491 68 62.4491 68V72ZM60.4491 70V70.0003H64.4491V70H60.4491ZM62.4491 68.0003H35.0205V72.0003H62.4491V68.0003ZM37.0205 70.0003V69.9964H33.0205V70.0003H37.0205ZM34.6939 72C34.8179 72 34.9416 71.9986 35.065 71.9959L34.976 67.9969C34.8823 67.999 34.7882 68 34.6939 68V72ZM18 55C18 64.3498 25.4354 72 34.6939 72V68C27.7219 68 22 62.2188 22 55H18ZM34.6939 38C25.4354 38 18 45.6502 18 55H22C22 47.7812 27.7219 42 34.6939 42V38ZM42.7318 40.097C40.347 38.7607 37.6054 38 34.6939 38V42C36.9001 42 38.9708 42.5747 40.7765 43.5865L42.7318 40.097ZM62.4495 24C51.7001 24 42.6715 31.3281 39.8308 41.2935L43.6775 42.3901C46.0551 34.0495 53.5822 28 62.4495 28V24ZM86.0005 48C86.0005 34.7842 75.495 24 62.4495 24V28C73.2085 28 82.0005 36.9152 82.0005 48H86.0005Z" fill="black" fill-opacity="0.21"/>
<path d="M35.9969 76L39.5344 79.5158C40.234 80.2106 40.7105 81.096 40.9037 82.0601C41.0969 83.0241 40.9981 84.0234 40.6197 84.9316C40.2414 85.8398 39.6005 86.6161 38.7782 87.1623C37.9559 87.7085 36.989 88 36 88C35.011 88 34.0441 87.7085 33.2218 87.1623C32.3995 86.6161 31.7586 85.8398 31.3803 84.9316C31.0019 84.0234 30.9031 83.0241 31.0963 82.0601C31.2895 81.096 31.766 80.2106 32.4656 79.5158L35.9969 76Z" fill="url(#paint2_linear_407_769)" stroke="#21204D" stroke-opacity="0.25" stroke-width="2"/>
<path d="M42.9969 86L46.5344 89.5158C47.234 90.2106 47.7105 91.096 47.9037 92.0601C48.0969 93.0241 47.9981 94.0234 47.6197 94.9316C47.2414 95.8398 46.6005 96.6161 45.7782 97.1623C44.9559 97.7085 43.989 98 43 98C42.011 98 41.0441 97.7085 40.2218 97.1623C39.3995 96.6161 38.7586 95.8398 38.3803 94.9316C38.0019 94.0234 37.9031 93.0241 38.0963 92.0601C38.2895 91.096 38.766 90.2106 39.4656 89.5158L42.9969 86Z" fill="url(#paint3_linear_407_769)" stroke="#21204D" stroke-opacity="0.25" stroke-width="2"/>
<path d="M49.9969 76L53.5344 79.5158C54.234 80.2106 54.7105 81.096 54.9037 82.0601C55.0969 83.0241 54.9981 84.0234 54.6197 84.9316C54.2414 85.8398 53.6005 86.6161 52.7782 87.1623C51.9559 87.7085 50.989 88 50 88C49.011 88 48.0441 87.7085 47.2218 87.1623C46.3995 86.6161 45.7586 85.8398 45.3803 84.9316C45.0019 84.0234 44.9031 83.0241 45.0963 82.0601C45.2895 81.096 45.766 80.2106 46.4656 79.5158L49.9969 76Z" fill="url(#paint4_linear_407_769)" stroke="#21204D" stroke-opacity="0.25" stroke-width="2"/>
<path d="M56.9969 86L60.5344 89.5158C61.234 90.2106 61.7105 91.096 61.9037 92.0601C62.0969 93.0241 61.9981 94.0234 61.6197 94.9316C61.2414 95.8398 60.6005 96.6161 59.7782 97.1623C58.9559 97.7085 57.989 98 57 98C56.011 98 55.0441 97.7085 54.2218 97.1623C53.3995 96.6161 52.7586 95.8398 52.3803 94.9316C52.0019 94.0234 51.9031 93.0241 52.0963 92.0601C52.2895 91.096 52.766 90.2106 53.4656 89.5158L56.9969 86Z" fill="url(#paint5_linear_407_769)" stroke="#21204D" stroke-opacity="0.25" stroke-width="2"/>
<path d="M63.9969 76L67.5344 79.5158C68.234 80.2106 68.7105 81.096 68.9037 82.0601C69.0969 83.0241 68.9981 84.0234 68.6197 84.9316C68.2414 85.8398 67.6005 86.6161 66.7782 87.1623C65.9559 87.7085 64.989 88 64 88C63.011 88 62.0441 87.7085 61.2218 87.1623C60.3995 86.6161 59.7586 85.8398 59.3803 84.9316C59.0019 84.0234 58.9031 83.0241 59.0963 82.0601C59.2895 81.096 59.766 80.2106 60.4656 79.5158L63.9969 76Z" fill="url(#paint6_linear_407_769)" stroke="#21204D" stroke-opacity="0.25" stroke-width="2"/>
<defs>
<linearGradient id="paint0_linear_407_769" x1="24.9829" y1="19.4344" x2="46.282" y2="45.2882" gradientUnits="userSpaceOnUse">
<stop offset="0.10284" stop-color="#9BA4B9"/>
<stop offset="0.859806" stop-color="#A9B4C4"/>
</linearGradient>
<linearGradient id="paint1_linear_407_769" x1="42.5308" y1="42.3335" x2="66.3964" y2="60.1921" gradientUnits="userSpaceOnUse">
<stop offset="0.06" stop-color="#757575"/>
<stop offset="1" stop-color="#656565"/>
</linearGradient>
<linearGradient id="paint2_linear_407_769" x1="36" y1="76" x2="41.1933" y2="84.5861" gradientUnits="userSpaceOnUse">
<stop offset="0.085" stop-color="#C2D8E5"/>
<stop offset="1" stop-color="#8FCCED"/>
</linearGradient>
<linearGradient id="paint3_linear_407_769" x1="43" y1="86" x2="48.1933" y2="94.5861" gradientUnits="userSpaceOnUse">
<stop offset="0.085" stop-color="#C2D8E5"/>
<stop offset="1" stop-color="#8FCCED"/>
</linearGradient>
<linearGradient id="paint4_linear_407_769" x1="50" y1="76" x2="55.1933" y2="84.5861" gradientUnits="userSpaceOnUse">
<stop offset="0.085" stop-color="#C2D8E5"/>
<stop offset="1" stop-color="#8FCCED"/>
</linearGradient>
<linearGradient id="paint5_linear_407_769" x1="57" y1="86" x2="62.1933" y2="94.5861" gradientUnits="userSpaceOnUse">
<stop offset="0.085" stop-color="#C2D8E5"/>
<stop offset="1" stop-color="#8FCCED"/>
</linearGradient>
<linearGradient id="paint6_linear_407_769" x1="64" y1="76" x2="69.1933" y2="84.5861" gradientUnits="userSpaceOnUse">
<stop offset="0.085" stop-color="#C2D8E5"/>
<stop offset="1" stop-color="#8FCCED"/>
</linearGradient>
</defs>
</svg>
