<svg width="100" height="100" viewBox="0 0 100 100" fill="none" xmlns="http://www.w3.org/2000/svg">
<g clip-path="url(#clip0_407_661)">
<path d="M47.5955 12.7537C49.034 11.7488 50.966 11.7488 52.4045 12.7537L54.3949 14.1442C55.295 14.773 56.4148 15.0231 57.5045 14.8387L59.9143 14.431C61.656 14.1364 63.3966 14.9567 64.2471 16.4729L65.4239 18.5707C65.956 19.5194 66.854 20.2202 67.9176 20.5168L70.2695 21.1726C71.9693 21.6466 73.1739 23.1247 73.2679 24.8519L73.3979 27.2416C73.4568 28.3223 73.9551 29.3349 74.7818 30.0537L76.6101 31.6431C77.9314 32.7919 78.3613 34.6351 77.6802 36.2311L76.7378 38.4394C76.3116 39.438 76.3116 40.562 76.7378 41.5606L77.6802 43.7689C78.3613 45.3649 77.9314 47.2081 76.6101 48.3569L74.7818 49.9463C73.9551 50.6651 73.4568 51.6778 73.3979 52.7584L73.2679 55.1481C73.1739 56.8753 71.9693 58.3534 70.2695 58.8274L67.9176 59.4832C66.854 59.7798 65.956 60.4806 65.4239 61.4292L64.2471 63.5271C63.3966 65.0433 61.656 65.8636 59.9143 65.569L57.5045 65.1613C56.4148 64.9769 55.295 65.227 54.3949 65.8558L52.4045 67.2463C50.966 68.2512 49.034 68.2512 47.5955 67.2463L45.6051 65.8558C44.705 65.227 43.5852 64.9769 42.4955 65.1613L40.0857 65.569C38.344 65.8636 36.6034 65.0433 35.7529 63.5271L34.5761 61.4292C34.044 60.4806 33.146 59.7798 32.0824 59.4832L29.7305 58.8274C28.0307 58.3534 26.8261 56.8753 26.7321 55.1481L26.602 52.7584C26.5432 51.6777 26.0449 50.6651 25.2182 49.9463L23.3899 48.3569C22.0686 47.2081 21.6387 45.3649 22.3198 43.7689L23.2622 41.5606C23.6884 40.562 23.6884 39.438 23.2622 38.4394L22.3198 36.2311C21.6387 34.6351 22.0686 32.7919 23.3899 31.6431L25.2182 30.0537C26.0449 29.3349 26.5432 28.3223 26.602 27.2416L26.7321 24.8519C26.8261 23.1247 28.0307 21.6466 29.7305 21.1726L32.0824 20.5168C33.146 20.2202 34.044 19.5194 34.5761 18.5707L35.7529 16.4729C36.6034 14.9567 38.344 14.1364 40.0857 14.431L42.4955 14.8387C43.5852 15.0231 44.705 14.773 45.6051 14.1442L47.5955 12.7537Z" fill="url(#paint0_linear_407_661)" stroke="#353535" stroke-opacity="0.05" stroke-width="4"/>
<g filter="url(#filter0_f_407_661)">
<circle cx="48" cy="34" r="19" fill="#FFCF54"/>
</g>
<path fill-rule="evenodd" clip-rule="evenodd" d="M82 46C82 58.1503 72.3513 68 60.449 68H33.0204V67.9964C32.9119 67.9988 32.803 68 32.6939 68C24.5787 68 18 61.2843 18 53C18 44.7157 24.5787 38 32.6939 38C35.2526 38 37.6586 38.6676 39.7537 39.8416C42.3629 30.6887 50.6408 24 60.449 24C72.3513 24 82 33.8497 82 46Z" fill="url(#paint1_linear_407_661)"/>
<path d="M33.0204 68H31.0204V70H33.0204V68ZM33.0204 67.9964H35.0204V65.9514L32.9759 65.9969L33.0204 67.9964ZM39.7537 39.8416L38.7761 41.5863L40.9834 42.8231L41.6771 40.3899L39.7537 39.8416ZM60.449 70C73.4945 70 84 59.2158 84 46H80C80 57.0848 71.208 66 60.449 66V70ZM60.449 66H33.0204V70H60.449V66ZM35.0204 68V67.9964H31.0204V68H35.0204ZM32.6939 70C32.8179 70 32.9415 69.9986 33.0649 69.9959L32.9759 65.9969C32.8822 65.9989 32.7881 66 32.6939 66V70ZM16 53C16 62.3498 23.4354 70 32.6939 70V66C25.7219 66 20 60.2188 20 53H16ZM32.6939 36C23.4354 36 16 43.6502 16 53H20C20 45.7812 25.7219 40 32.6939 40V36ZM40.7313 38.0968C38.3466 36.7606 35.6052 36 32.6939 36V40C34.9 40 36.9705 40.5747 38.7761 41.5863L40.7313 38.0968ZM60.449 22C49.6997 22 40.6712 29.3279 37.8303 39.2933L41.6771 40.3899C44.0547 32.0494 51.5818 26 60.449 26V22ZM84 46C84 32.7842 73.4945 22 60.449 22V26C71.208 26 80 34.9152 80 46H84Z" fill="black" fill-opacity="0.09"/>
<path d="M35.9969 76L39.5344 79.5158C40.234 80.2106 40.7105 81.096 40.9037 82.0601C41.0969 83.0241 40.9981 84.0234 40.6197 84.9316C40.2414 85.8398 39.6005 86.6161 38.7782 87.1623C37.9559 87.7085 36.989 88 36 88C35.011 88 34.0441 87.7085 33.2218 87.1623C32.3995 86.6161 31.7586 85.8398 31.3803 84.9316C31.0019 84.0234 30.9031 83.0241 31.0963 82.0601C31.2895 81.096 31.766 80.2106 32.4656 79.5158L35.9969 76Z" fill="url(#paint2_linear_407_661)" stroke="#2D2C3E" stroke-opacity="0.05" stroke-width="2"/>
<path d="M42.9969 85L46.5344 88.5158C47.234 89.2106 47.7105 90.096 47.9037 91.0601C48.0969 92.0241 47.9981 93.0234 47.6197 93.9316C47.2414 94.8398 46.6005 95.6161 45.7782 96.1623C44.9559 96.7085 43.989 97 43 97C42.011 97 41.0441 96.7085 40.2218 96.1623C39.3995 95.6161 38.7586 94.8398 38.3803 93.9316C38.0019 93.0234 37.9031 92.0241 38.0963 91.0601C38.2895 90.096 38.766 89.2106 39.4656 88.5158L42.9969 85Z" fill="url(#paint3_linear_407_661)" stroke="#2D2C3E" stroke-opacity="0.05" stroke-width="2"/>
<path d="M49.9969 76L53.5344 79.5158C54.234 80.2106 54.7105 81.096 54.9037 82.0601C55.0969 83.0241 54.9981 84.0234 54.6197 84.9316C54.2414 85.8398 53.6005 86.6161 52.7782 87.1623C51.9559 87.7085 50.989 88 50 88C49.011 88 48.0441 87.7085 47.2218 87.1623C46.3995 86.6161 45.7586 85.8398 45.3803 84.9316C45.0019 84.0234 44.9031 83.0241 45.0963 82.0601C45.2895 81.096 45.766 80.2106 46.4656 79.5158L49.9969 76Z" fill="url(#paint4_linear_407_661)" stroke="#2D2C3E" stroke-opacity="0.05" stroke-width="2"/>
<path d="M56.9969 85L60.5344 88.5158C61.234 89.2106 61.7105 90.096 61.9037 91.0601C62.0969 92.0241 61.9981 93.0234 61.6197 93.9316C61.2414 94.8398 60.6005 95.6161 59.7782 96.1623C58.9559 96.7085 57.989 97 57 97C56.011 97 55.0441 96.7085 54.2218 96.1623C53.3995 95.6161 52.7586 94.8398 52.3803 93.9316C52.0019 93.0234 51.9031 92.0241 52.0963 91.0601C52.2895 90.096 52.766 89.2106 53.4656 88.5158L56.9969 85Z" fill="url(#paint5_linear_407_661)" stroke="#2D2C3E" stroke-opacity="0.05" stroke-width="2"/>
<path d="M63.9969 76L67.5344 79.5158C68.234 80.2106 68.7105 81.096 68.9037 82.0601C69.0969 83.0241 68.9981 84.0234 68.6197 84.9316C68.2414 85.8398 67.6005 86.6161 66.7782 87.1623C65.9559 87.7085 64.989 88 64 88C63.011 88 62.0441 87.7085 61.2218 87.1623C60.3995 86.6161 59.7586 85.8398 59.3803 84.9316C59.0019 84.0234 58.9031 83.0241 59.0963 82.0601C59.2895 81.096 59.766 80.2106 60.4656 79.5158L63.9969 76Z" fill="url(#paint6_linear_407_661)" stroke="#2D2C3E" stroke-opacity="0.05" stroke-width="2"/>
</g>
<defs>
<filter id="filter0_f_407_661" x="11" y="-3" width="74" height="74" filterUnits="userSpaceOnUse" color-interpolation-filters="sRGB">
<feFlood flood-opacity="0" result="BackgroundImageFix"/>
<feBlend mode="normal" in="SourceGraphic" in2="BackgroundImageFix" result="shape"/>
<feGaussianBlur stdDeviation="9" result="effect1_foregroundBlur_407_661"/>
</filter>
<linearGradient id="paint0_linear_407_661" x1="35" y1="17" x2="63" y2="63" gradientUnits="userSpaceOnUse">
<stop offset="0.165457" stop-color="#F0AA41"/>
<stop offset="1" stop-color="#FF8A00"/>
</linearGradient>
<linearGradient id="paint1_linear_407_661" x1="40.5306" y1="40.3333" x2="64.3961" y2="58.1919" gradientUnits="userSpaceOnUse">
<stop offset="0.06" stop-color="#757575"/>
<stop offset="1" stop-color="#656565"/>
</linearGradient>
<linearGradient id="paint2_linear_407_661" x1="36" y1="76" x2="41.1933" y2="84.5861" gradientUnits="userSpaceOnUse">
<stop offset="0.085" stop-color="#C2D8E5"/>
<stop offset="1" stop-color="#8FCCED"/>
</linearGradient>
<linearGradient id="paint3_linear_407_661" x1="43" y1="85" x2="48.1933" y2="93.5861" gradientUnits="userSpaceOnUse">
<stop offset="0.085" stop-color="#C2D8E5"/>
<stop offset="1" stop-color="#8FCCED"/>
</linearGradient>
<linearGradient id="paint4_linear_407_661" x1="50" y1="76" x2="55.1933" y2="84.5861" gradientUnits="userSpaceOnUse">
<stop offset="0.085" stop-color="#C2D8E5"/>
<stop offset="1" stop-color="#8FCCED"/>
</linearGradient>
<linearGradient id="paint5_linear_407_661" x1="57" y1="85" x2="62.1933" y2="93.5861" gradientUnits="userSpaceOnUse">
<stop offset="0.085" stop-color="#C2D8E5"/>
<stop offset="1" stop-color="#8FCCED"/>
</linearGradient>
<linearGradient id="paint6_linear_407_661" x1="64" y1="76" x2="69.1933" y2="84.5861" gradientUnits="userSpaceOnUse">
<stop offset="0.085" stop-color="#C2D8E5"/>
<stop offset="1" stop-color="#8FCCED"/>
</linearGradient>
<clipPath id="clip0_407_661">
<rect width="100" height="100" fill="white"/>
</clipPath>
</defs>
</svg>
