<svg width="100" height="100" viewBox="0 0 100 100" fill="none" xmlns="http://www.w3.org/2000/svg">
<path fill-rule="evenodd" clip-rule="evenodd" d="M56.9925 33.7607C57.0443 33.5577 56.8162 33.3991 56.6323 33.504C53.9918 35.0106 50.776 35.5452 47.5826 34.7554C41.0729 33.1453 37.1208 26.642 38.7553 20.2297C39.5572 17.0838 41.5547 14.5443 44.1504 12.9635C44.3306 12.8538 44.2965 12.5817 44.0911 12.5309C34.577 10.1778 24.9278 15.8675 22.5389 25.2393C20.1501 34.6111 25.9263 44.116 35.4404 46.4691C44.9545 48.8222 54.6037 43.1325 56.9925 33.7607Z" fill="url(#paint0_linear_407_808)" stroke="#1C2047" stroke-opacity="0.15" stroke-width="4"/>
<circle cx="44.5195" cy="40.1445" r="1.875" fill="#1C2047" fill-opacity="0.15"/>
<circle cx="37.0195" cy="39.5195" r="1.25" fill="#1C2047" fill-opacity="0.15"/>
<circle cx="33.2695" cy="21.3945" r="1.25" fill="#1C2047" fill-opacity="0.15"/>
<circle cx="30.1445" cy="31.3945" r="3.125" fill="#1C2047" fill-opacity="0.15"/>
<g clip-path="url(#clip0_407_808)">
<path fill-rule="evenodd" clip-rule="evenodd" d="M82 46C82 58.1503 72.3513 68 60.449 68H33.0204V67.9964C32.9119 67.9988 32.803 68 32.6939 68C24.5787 68 18 61.2843 18 53C18 44.7157 24.5787 38 32.6939 38C35.2526 38 37.6586 38.6676 39.7537 39.8416C42.3629 30.6887 50.6408 24 60.449 24C72.3513 24 82 33.8497 82 46Z" fill="url(#paint1_linear_407_808)"/>
<path d="M33.0204 68H31.0204V70H33.0204V68ZM33.0204 67.9964H35.0204V65.9514L32.9759 65.9969L33.0204 67.9964ZM39.7537 39.8416L38.7761 41.5863L40.9834 42.8231L41.6771 40.3899L39.7537 39.8416ZM60.449 70C73.4945 70 84 59.2158 84 46H80C80 57.0848 71.208 66 60.449 66V70ZM60.449 66H33.0204V70H60.449V66ZM35.0204 68V67.9964H31.0204V68H35.0204ZM32.6939 70C32.8179 70 32.9415 69.9986 33.0649 69.9959L32.9759 65.9969C32.8822 65.9989 32.7881 66 32.6939 66V70ZM16 53C16 62.3498 23.4354 70 32.6939 70V66C25.7219 66 20 60.2188 20 53H16ZM32.6939 36C23.4354 36 16 43.6502 16 53H20C20 45.7812 25.7219 40 32.6939 40V36ZM40.7313 38.0968C38.3466 36.7606 35.6052 36 32.6939 36V40C34.9 40 36.9705 40.5747 38.7761 41.5863L40.7313 38.0968ZM60.449 22C49.6997 22 40.6712 29.3279 37.8303 39.2933L41.6771 40.3899C44.0547 32.0494 51.5818 26 60.449 26V22ZM84 46C84 32.7842 73.4945 22 60.449 22V26C71.208 26 80 34.9152 80 46H84Z" fill="black" fill-opacity="0.07"/>
</g>
<path d="M38.8739 85.7368L37 82.7368V79.4211L38.4054 76.7368L40.4354 75.4737L43.2462 75L46.3694 76.4211L47.7748 78.7895L48.5556 81.6316L47.4625 84.3158L46.0571 85.7368L44.4955 86.5263L42.3093 87L38.8739 85.7368Z" fill="url(#paint2_linear_407_808)" stroke="black" stroke-opacity="0.05" stroke-width="1.77778"/>
<path fill-rule="evenodd" clip-rule="evenodd" d="M41.3433 77.85L40.7276 79.9022L39.5329 81.097L39.8912 84.0334L38.4688 80.904L39.9406 79.4321L40.6583 77.0398L43.1645 76.7266L41.3433 77.85Z" fill="black" fill-opacity="0.05"/>
<path d="M53.4286 85.7368L51.5547 82.7368V79.4211L52.9601 76.7368L54.9901 75.4737L57.8009 75L60.9241 76.4211L62.3295 78.7895L63.1102 81.6316L62.0171 84.3158L60.6117 85.7368L59.0502 86.5263L56.864 87L53.4286 85.7368Z" fill="url(#paint3_linear_407_808)" stroke="black" stroke-opacity="0.05" stroke-width="1.77778"/>
<path fill-rule="evenodd" clip-rule="evenodd" d="M55.898 77.85L55.2823 79.9022L54.0876 81.097L54.4459 84.0334L53.0234 80.904L54.4953 79.4321L55.213 77.0398L57.7192 76.7266L55.898 77.85Z" fill="black" fill-opacity="0.05"/>
<defs>
<linearGradient id="paint0_linear_407_808" x1="24.9829" y1="19.4344" x2="46.282" y2="45.2882" gradientUnits="userSpaceOnUse">
<stop offset="0.10284" stop-color="#9BA4B9"/>
<stop offset="0.859806" stop-color="#A9B4C4"/>
</linearGradient>
<linearGradient id="paint1_linear_407_808" x1="40.5306" y1="40.3333" x2="64.3961" y2="58.1919" gradientUnits="userSpaceOnUse">
<stop offset="0.183865" stop-color="#ECECEC"/>
<stop offset="1" stop-color="#C4C4C4"/>
</linearGradient>
<linearGradient id="paint2_linear_407_808" x1="41.068" y1="79.4545" x2="46.4653" y2="82.1284" gradientUnits="userSpaceOnUse">
<stop offset="0.183865" stop-color="white"/>
<stop offset="1" stop-color="#CDCDCD"/>
</linearGradient>
<linearGradient id="paint3_linear_407_808" x1="55.6227" y1="79.4545" x2="61.02" y2="82.1284" gradientUnits="userSpaceOnUse">
<stop offset="0.183865" stop-color="white"/>
<stop offset="1" stop-color="#CDCDCD"/>
</linearGradient>
<clipPath id="clip0_407_808">
<rect width="64" height="44" fill="white" transform="translate(18 24)"/>
</clipPath>
</defs>
</svg>
