<svg width="100" height="100" viewBox="0 0 100 100" fill="none" xmlns="http://www.w3.org/2000/svg">
<path fill-rule="evenodd" clip-rule="evenodd" d="M56.9925 33.7607C57.0443 33.5577 56.8162 33.3991 56.6323 33.504C53.9918 35.0106 50.776 35.5452 47.5826 34.7554C41.0729 33.1453 37.1208 26.642 38.7553 20.2297C39.5572 17.0838 41.5547 14.5443 44.1504 12.9635C44.3306 12.8538 44.2965 12.5817 44.0911 12.5309C34.577 10.1778 24.9278 15.8675 22.5389 25.2393C20.1501 34.6111 25.9263 44.116 35.4404 46.4691C44.9545 48.8222 54.6037 43.1325 56.9925 33.7607Z" fill="url(#paint0_linear_407_811)" stroke="#1C2047" stroke-opacity="0.15" stroke-width="4"/>
<circle cx="44.5195" cy="40.1445" r="1.875" fill="#1C2047" fill-opacity="0.15"/>
<circle cx="37.0195" cy="39.5195" r="1.25" fill="#1C2047" fill-opacity="0.15"/>
<circle cx="33.2695" cy="21.3945" r="1.25" fill="#1C2047" fill-opacity="0.15"/>
<circle cx="30.1445" cy="31.3945" r="3.125" fill="#1C2047" fill-opacity="0.15"/>
<g clip-path="url(#clip0_407_811)">
<path fill-rule="evenodd" clip-rule="evenodd" d="M84.0005 48C84.0005 60.1503 74.3518 70 62.4495 70C62.4493 70 62.4492 70 62.4491 70V70.0003H35.0205V69.9964C34.9119 69.9988 34.803 70 34.6939 70C26.5787 70 20 63.2843 20 55C20 46.7157 26.5787 40 34.6939 40C37.2528 40 39.6589 40.6677 41.7541 41.8418C44.3633 32.6888 52.6412 26 62.4495 26C74.3518 26 84.0005 35.8497 84.0005 48Z" fill="url(#paint1_linear_407_811)"/>
<path d="M62.4491 70V68H60.4491V70H62.4491ZM62.4491 70.0003V72.0003H64.4491V70.0003H62.4491ZM35.0205 70.0003H33.0205V72.0003H35.0205V70.0003ZM35.0205 69.9964H37.0205V67.9513L34.976 67.9969L35.0205 69.9964ZM41.7541 41.8418L40.7765 43.5865L42.9839 44.8234L43.6775 42.3901L41.7541 41.8418ZM62.4495 72C75.495 72 86.0005 61.2158 86.0005 48H82.0005C82.0005 59.0848 73.2085 68 62.4495 68V72ZM62.4491 72C62.4491 72 62.4491 72 62.4491 72C62.4491 72 62.4491 72 62.4491 72C62.4491 72 62.4491 72 62.4491 72C62.4491 72 62.4491 72 62.4491 72C62.4491 72 62.4491 72 62.4491 72C62.4491 72 62.4491 72 62.4491 72C62.4491 72 62.4491 72 62.4491 72C62.4491 72 62.4491 72 62.4491 72C62.4491 72 62.4491 72 62.4491 72C62.4491 72 62.4491 72 62.4491 72C62.4491 72 62.4491 72 62.4491 72C62.4491 72 62.4491 72 62.4491 72C62.4491 72 62.4491 72 62.4491 72C62.4491 72 62.4491 72 62.4491 72C62.4491 72 62.4491 72 62.4491 72C62.4491 72 62.4491 72 62.4491 72C62.4491 72 62.4491 72 62.4491 72C62.4491 72 62.4491 72 62.4491 72C62.4491 72 62.4491 72 62.4491 72C62.4491 72 62.4491 72 62.4491 72C62.4491 72 62.4491 72 62.4491 72C62.4491 72 62.4491 72 62.4491 72C62.4491 72 62.4491 72 62.4491 72C62.4491 72 62.4491 72 62.4491 72C62.4491 72 62.4491 72 62.4491 72C62.4491 72 62.4491 72 62.4491 72C62.4491 72 62.4491 72 62.4491 72C62.4491 72 62.4491 72 62.4491 72C62.4491 72 62.4491 72 62.4491 72C62.4491 72 62.4491 72 62.4491 72C62.4491 72 62.4491 72 62.4491 72C62.4491 72 62.4491 72 62.4491 72C62.4491 72 62.4491 72 62.4491 72C62.4491 72 62.4491 72 62.4491 72C62.4491 72 62.4491 72 62.4491 72C62.4491 72 62.4491 72 62.4491 72C62.4491 72 62.4491 72 62.4491 72C62.4491 72 62.4491 72 62.4491 72C62.4491 72 62.4491 72 62.4491 72C62.4491 72 62.4491 72 62.4491 72C62.4491 72 62.4491 72 62.4491 72C62.4491 72 62.4491 72 62.4491 72C62.4491 72 62.4491 72 62.4491 72C62.4491 72 62.4491 72 62.4491 72C62.4491 72 62.4491 72 62.4491 72C62.4491 72 62.4491 72 62.4491 72C62.4491 72 62.4491 72 62.4491 72C62.4491 72 62.4491 72 62.4491 72C62.4491 72 62.4491 72 62.4491 72C62.4491 72 62.4491 72 62.4491 72C62.4491 72 62.4491 72 62.4491 72C62.4491 72 62.4491 72 62.4491 72C62.4491 72 62.4491 72 62.4491 72C62.4491 72 62.4491 72 62.4491 72C62.4491 72 62.4491 72 62.4491 72C62.4491 72 62.4491 72 62.4491 72C62.4491 72 62.4491 72 62.4491 72C62.4491 72 62.4491 72 62.4491 72C62.4491 72 62.4491 72 62.4491 72C62.4491 72 62.4491 72 62.4491 72C62.4491 72 62.4491 72 62.4491 72C62.4491 72 62.4491 72 62.4491 72C62.4491 72 62.4491 72 62.4491 72C62.4491 72 62.4491 72 62.4491 72C62.4491 72 62.4491 72 62.4491 72C62.4491 72 62.4491 72 62.4491 72C62.4491 72 62.4491 72 62.4491 72C62.4491 72 62.4491 72 62.4491 72C62.4491 72 62.4491 72 62.4491 72C62.4491 72 62.4491 72 62.4491 72C62.4491 72 62.4491 72 62.4491 72C62.4491 72 62.4491 72 62.4491 72C62.4491 72 62.4491 72 62.4491 72C62.4491 72 62.4491 72 62.4491 72C62.4491 72 62.4491 72 62.4491 72C62.4491 72 62.4491 72 62.4491 72C62.4491 72 62.4491 72 62.4491 72C62.4491 72 62.4491 72 62.4491 72C62.4491 72 62.4491 72 62.4491 72C62.4491 72 62.4491 72 62.4491 72C62.4491 72 62.4491 72 62.4491 72C62.4491 72 62.4491 72 62.4491 72C62.4491 72 62.4491 72 62.4491 72C62.4491 72 62.4491 72 62.4491 72C62.4491 72 62.4491 72 62.4491 72C62.4491 72 62.4491 72 62.4491 72C62.4491 72 62.4491 72 62.4491 72C62.4491 72 62.4491 72 62.4491 72C62.4491 72 62.4491 72 62.4491 72C62.4491 72 62.4491 72 62.4491 72C62.4491 72 62.4491 72 62.4491 72C62.4491 72 62.4491 72 62.4491 72C62.4491 72 62.4491 72 62.4491 72C62.4491 72 62.4491 72 62.4491 72C62.4491 72 62.4491 72 62.4491 72C62.4491 72 62.4491 72 62.4491 72C62.4491 72 62.4491 72 62.4491 72C62.4491 72 62.4491 72 62.4491 72C62.4492 72 62.4492 72 62.4492 72C62.4492 72 62.4492 72 62.4492 72C62.4492 72 62.4492 72 62.4492 72C62.4492 72 62.4492 72 62.4492 72C62.4492 72 62.4492 72 62.4492 72C62.4492 72 62.4492 72 62.4492 72C62.4492 72 62.4492 72 62.4492 72C62.4492 72 62.4492 72 62.4492 72C62.4492 72 62.4492 72 62.4492 72C62.4492 72 62.4492 72 62.4492 72C62.4492 72 62.4492 72 62.4492 72C62.4492 72 62.4492 72 62.4492 72C62.4492 72 62.4492 72 62.4492 72C62.4492 72 62.4492 72 62.4492 72C62.4492 72 62.4492 72 62.4492 72C62.4492 72 62.4492 72 62.4492 72C62.4492 72 62.4492 72 62.4492 72C62.4492 72 62.4492 72 62.4492 72C62.4492 72 62.4492 72 62.4492 72C62.4492 72 62.4492 72 62.4492 72C62.4492 72 62.4492 72 62.4492 72C62.4492 72 62.4492 72 62.4492 72C62.4492 72 62.4492 72 62.4492 72C62.4492 72 62.4492 72 62.4492 72C62.4492 72 62.4492 72 62.4492 72C62.4492 72 62.4492 72 62.4492 72C62.4492 72 62.4492 72 62.4492 72C62.4492 72 62.4492 72 62.4492 72C62.4492 72 62.4492 72 62.4492 72C62.4492 72 62.4492 72 62.4492 72C62.4492 72 62.4492 72 62.4492 72C62.4492 72 62.4492 72 62.4492 72C62.4492 72 62.4492 72 62.4492 72C62.4492 72 62.4492 72 62.4492 72C62.4492 72 62.4492 72 62.4492 72C62.4492 72 62.4492 72 62.4492 72C62.4492 72 62.4492 72 62.4492 72C62.4492 72 62.4492 72 62.4492 72C62.4492 72 62.4492 72 62.4492 72C62.4492 72 62.4492 72 62.4492 72C62.4492 72 62.4492 72 62.4492 72C62.4492 72 62.4492 72 62.4492 72C62.4492 72 62.4492 72 62.4492 72C62.4492 72 62.4492 72 62.4492 72C62.4492 72 62.4492 72 62.4492 72C62.4492 72 62.4492 72 62.4492 72C62.4492 72 62.4492 72 62.4492 72C62.4492 72 62.4492 72 62.4492 72C62.4492 72 62.4492 72 62.4492 72C62.4492 72 62.4492 72 62.4492 72C62.4492 72 62.4492 72 62.4492 72C62.4492 72 62.4492 72 62.4492 72C62.4492 72 62.4492 72 62.4492 72C62.4492 72 62.4492 72 62.4492 72C62.4492 72 62.4492 72 62.4492 72C62.4492 72 62.4492 72 62.4492 72C62.4492 72 62.4492 72 62.4492 72C62.4492 72 62.4492 72 62.4492 72C62.4492 72 62.4492 72 62.4492 72C62.4492 72 62.4492 72 62.4492 72C62.4492 72 62.4492 72 62.4492 72C62.4492 72 62.4492 72 62.4492 72C62.4492 72 62.4492 72 62.4492 72C62.4492 72 62.4492 72 62.4492 72C62.4492 72 62.4492 72 62.4492 72C62.4492 72 62.4492 72 62.4492 72C62.4492 72 62.4492 72 62.4492 72C62.4492 72 62.4492 72 62.4492 72C62.4492 72 62.4492 72 62.4492 72C62.4492 72 62.4492 72 62.4492 72C62.4492 72 62.4492 72 62.4492 72C62.4492 72 62.4492 72 62.4492 72C62.4492 72 62.4492 72 62.4492 72C62.4492 72 62.4492 72 62.4492 72C62.4492 72 62.4492 72 62.4492 72C62.4492 72 62.4492 72 62.4492 72C62.4492 72 62.4492 72 62.4492 72C62.4492 72 62.4492 72 62.4492 72C62.4492 72 62.4492 72 62.4492 72C62.4492 72 62.4492 72 62.4492 72C62.4492 72 62.4492 72 62.4492 72C62.4492 72 62.4492 72 62.4492 72C62.4492 72 62.4492 72 62.4492 72C62.4492 72 62.4492 72 62.4492 72C62.4492 72 62.4492 72 62.4492 72C62.4492 72 62.4492 72 62.4492 72C62.4492 72 62.4492 72 62.4492 72C62.4492 72 62.4492 72 62.4492 72C62.4492 72 62.4492 72 62.4492 72C62.4492 72 62.4492 72 62.4492 72C62.4492 72 62.4492 72 62.4492 72C62.4492 72 62.4492 72 62.4492 72C62.4492 72 62.4492 72 62.4492 72C62.4492 72 62.4492 72 62.4492 72C62.4492 72 62.4492 72 62.4492 72C62.4492 72 62.4492 72 62.4492 72C62.4492 72 62.4492 72 62.4492 72C62.4492 72 62.4492 72 62.4492 72C62.4492 72 62.4492 72 62.4492 72C62.4492 72 62.4492 72 62.4492 72C62.4492 72 62.4492 72 62.4492 72C62.4492 72 62.4492 72 62.4492 72C62.4492 72 62.4492 72 62.4492 72C62.4492 72 62.4492 72 62.4492 72C62.4492 72 62.4492 72 62.4492 72C62.4492 72 62.4492 72 62.4492 72C62.4492 72 62.4492 72 62.4492 72C62.4492 72 62.4492 72 62.4492 72C62.4492 72 62.4492 72 62.4492 72C62.4492 72 62.4492 72 62.4492 72C62.4492 72 62.4492 72 62.4492 72C62.4492 72 62.4492 72 62.4492 72C62.4492 72 62.4492 72 62.4492 72C62.4492 72 62.4492 72 62.4492 72C62.4492 72 62.4492 72 62.4492 72C62.4492 72 62.4492 72 62.4492 72C62.4492 72 62.4492 72 62.4492 72C62.4492 72 62.4492 72 62.4492 72C62.4492 72 62.4492 72 62.4492 72C62.4492 72 62.4492 72 62.4492 72C62.4492 72 62.4492 72 62.4492 72C62.4492 72 62.4492 72 62.4492 72C62.4492 72 62.4492 72 62.4492 72C62.4492 72 62.4492 72 62.4492 72C62.4492 72 62.4492 72 62.4492 72C62.4492 72 62.4492 72 62.4492 72C62.4492 72 62.4492 72 62.4492 72C62.4492 72 62.4492 72 62.4492 72C62.4492 72 62.4492 72 62.4492 72C62.4492 72 62.4492 72 62.4492 72C62.4492 72 62.4492 72 62.4492 72C62.4492 72 62.4492 72 62.4492 72C62.4492 72 62.4492 72 62.4492 72C62.4492 72 62.4492 72 62.4492 72C62.4492 72 62.4492 72 62.4492 72C62.4492 72 62.4492 72 62.4493 72C62.4493 72 62.4493 72 62.4493 72C62.4493 72 62.4493 72 62.4493 72C62.4493 72 62.4493 72 62.4493 72C62.4493 72 62.4493 72 62.4493 72C62.4493 72 62.4493 72 62.4493 72C62.4493 72 62.4493 72 62.4493 72C62.4493 72 62.4493 72 62.4493 72C62.4493 72 62.4493 72 62.4493 72C62.4493 72 62.4493 72 62.4493 72C62.4493 72 62.4493 72 62.4493 72C62.4493 72 62.4493 72 62.4493 72C62.4493 72 62.4493 72 62.4493 72C62.4493 72 62.4493 72 62.4493 72C62.4493 72 62.4493 72 62.4493 72C62.4493 72 62.4493 72 62.4493 72C62.4493 72 62.4493 72 62.4493 72C62.4493 72 62.4493 72 62.4493 72C62.4493 72 62.4493 72 62.4493 72C62.4493 72 62.4493 72 62.4493 72C62.4493 72 62.4493 72 62.4493 72C62.4493 72 62.4493 72 62.4493 72C62.4493 72 62.4493 72 62.4493 72C62.4493 72 62.4493 72 62.4493 72C62.4493 72 62.4493 72 62.4493 72C62.4493 72 62.4493 72 62.4493 72C62.4493 72 62.4493 72 62.4493 72C62.4493 72 62.4493 72 62.4493 72C62.4493 72 62.4493 72 62.4493 72C62.4493 72 62.4493 72 62.4493 72C62.4493 72 62.4493 72 62.4493 72C62.4493 72 62.4493 72 62.4493 72C62.4493 72 62.4493 72 62.4493 72C62.4493 72 62.4493 72 62.4493 72C62.4493 72 62.4493 72 62.4493 72C62.4493 72 62.4493 72 62.4493 72C62.4493 72 62.4493 72 62.4493 72C62.4493 72 62.4493 72 62.4493 72C62.4493 72 62.4493 72 62.4493 72C62.4493 72 62.4493 72 62.4493 72C62.4493 72 62.4493 72 62.4493 72C62.4493 72 62.4493 72 62.4493 72C62.4493 72 62.4493 72 62.4493 72C62.4493 72 62.4493 72 62.4493 72C62.4493 72 62.4493 72 62.4493 72C62.4493 72 62.4493 72 62.4493 72C62.4493 72 62.4493 72 62.4493 72C62.4493 72 62.4493 72 62.4493 72C62.4493 72 62.4493 72 62.4493 72C62.4493 72 62.4493 72 62.4493 72C62.4493 72 62.4493 72 62.4493 72C62.4493 72 62.4493 72 62.4493 72C62.4493 72 62.4493 72 62.4493 72C62.4493 72 62.4493 72 62.4493 72C62.4493 72 62.4493 72 62.4493 72C62.4493 72 62.4493 72 62.4493 72C62.4493 72 62.4493 72 62.4493 72C62.4493 72 62.4493 72 62.4493 72C62.4493 72 62.4493 72 62.4493 72C62.4493 72 62.4493 72 62.4493 72C62.4493 72 62.4493 72 62.4493 72C62.4493 72 62.4493 72 62.4493 72C62.4493 72 62.4493 72 62.4493 72C62.4493 72 62.4493 72 62.4493 72C62.4493 72 62.4493 72 62.4493 72C62.4493 72 62.4493 72 62.4493 72C62.4493 72 62.4493 72 62.4493 72C62.4493 72 62.4493 72 62.4493 72C62.4493 72 62.4493 72 62.4493 72C62.4493 72 62.4493 72 62.4493 72C62.4493 72 62.4493 72 62.4493 72C62.4493 72 62.4493 72 62.4493 72C62.4493 72 62.4493 72 62.4493 72C62.4493 72 62.4493 72 62.4493 72C62.4493 72 62.4493 72 62.4493 72C62.4493 72 62.4493 72 62.4493 72C62.4493 72 62.4493 72 62.4493 72C62.4493 72 62.4493 72 62.4493 72C62.4493 72 62.4493 72 62.4493 72C62.4493 72 62.4493 72 62.4493 72C62.4493 72 62.4493 72 62.4493 72C62.4493 72 62.4493 72 62.4493 72C62.4493 72 62.4493 72 62.4493 72C62.4493 72 62.4493 72 62.4493 72C62.4493 72 62.4493 72 62.4493 72C62.4493 72 62.4493 72 62.4493 72C62.4493 72 62.4493 72 62.4493 72C62.4493 72 62.4493 72 62.4493 72C62.4493 72 62.4493 72 62.4493 72C62.4493 72 62.4493 72 62.4493 72C62.4493 72 62.4493 72 62.4493 72C62.4493 72 62.4493 72 62.4493 72C62.4493 72 62.4493 72 62.4493 72C62.4493 72 62.4493 72 62.4493 72C62.4493 72 62.4493 72 62.4493 72C62.4493 72 62.4493 72 62.4493 72C62.4493 72 62.4493 72 62.4493 72C62.4493 72 62.4493 72 62.4493 72C62.4493 72 62.4493 72 62.4493 72C62.4493 72 62.4493 72 62.4493 72C62.4493 72 62.4493 72 62.4493 72C62.4493 72 62.4493 72 62.4493 72C62.4493 72 62.4493 72 62.4493 72C62.4493 72 62.4493 72 62.4493 72C62.4493 72 62.4493 72 62.4493 72C62.4493 72 62.4493 72 62.4493 72C62.4493 72 62.4493 72 62.4493 72C62.4493 72 62.4493 72 62.4493 72C62.4493 72 62.4493 72 62.4493 72C62.4493 72 62.4493 72 62.4493 72C62.4493 72 62.4493 72 62.4493 72C62.4493 72 62.4493 72 62.4493 72C62.4493 72 62.4493 72 62.4493 72C62.4493 72 62.4493 72 62.4493 72C62.4493 72 62.4493 72 62.4493 72C62.4493 72 62.4493 72 62.4493 72C62.4493 72 62.4493 72 62.4493 72C62.4493 72 62.4493 72 62.4493 72C62.4493 72 62.4493 72 62.4493 72C62.4493 72 62.4493 72 62.4493 72C62.4493 72 62.4493 72 62.4493 72C62.4493 72 62.4493 72 62.4493 72C62.4493 72 62.4493 72 62.4493 72C62.4493 72 62.4493 72 62.4493 72C62.4493 72 62.4493 72 62.4493 72C62.4493 72 62.4493 72 62.4493 72C62.4493 72 62.4493 72 62.4493 72C62.4493 72 62.4493 72 62.4493 72C62.4493 72 62.4493 72 62.4493 72C62.4493 72 62.4493 72 62.4493 72C62.4493 72 62.4493 72 62.4493 72C62.4493 72 62.4493 72 62.4493 72C62.4493 72 62.4493 72 62.4493 72C62.4493 72 62.4493 72 62.4493 72C62.4493 72 62.4493 72 62.4493 72C62.4493 72 62.4493 72 62.4493 72C62.4494 72 62.4494 72 62.4494 72C62.4494 72 62.4494 72 62.4494 72C62.4494 72 62.4494 72 62.4494 72C62.4494 72 62.4494 72 62.4494 72C62.4494 72 62.4494 72 62.4494 72C62.4494 72 62.4494 72 62.4494 72C62.4494 72 62.4494 72 62.4494 72C62.4494 72 62.4494 72 62.4494 72C62.4494 72 62.4494 72 62.4494 72C62.4494 72 62.4494 72 62.4494 72C62.4494 72 62.4494 72 62.4494 72C62.4494 72 62.4494 72 62.4494 72C62.4494 72 62.4494 72 62.4494 72C62.4494 72 62.4494 72 62.4494 72C62.4494 72 62.4494 72 62.4494 72C62.4494 72 62.4494 72 62.4494 72C62.4494 72 62.4494 72 62.4494 72C62.4494 72 62.4494 72 62.4494 72C62.4494 72 62.4494 72 62.4494 72C62.4494 72 62.4494 72 62.4494 72C62.4494 72 62.4494 72 62.4494 72C62.4494 72 62.4494 72 62.4494 72C62.4494 72 62.4494 72 62.4494 72C62.4494 72 62.4494 72 62.4494 72C62.4494 72 62.4494 72 62.4494 72C62.4494 72 62.4494 72 62.4494 72C62.4494 72 62.4494 72 62.4494 72C62.4494 72 62.4494 72 62.4494 72C62.4494 72 62.4494 72 62.4494 72C62.4494 72 62.4494 72 62.4494 72C62.4494 72 62.4494 72 62.4494 72C62.4494 72 62.4494 72 62.4494 72C62.4494 72 62.4494 72 62.4494 72C62.4494 72 62.4494 72 62.4494 72C62.4494 72 62.4494 72 62.4494 72C62.4494 72 62.4494 72 62.4494 72C62.4494 72 62.4494 72 62.4494 72C62.4494 72 62.4494 72 62.4494 72C62.4494 72 62.4494 72 62.4494 72C62.4494 72 62.4494 72 62.4494 72C62.4494 72 62.4494 72 62.4494 72C62.4494 72 62.4494 72 62.4494 72C62.4494 72 62.4494 72 62.4494 72C62.4494 72 62.4494 72 62.4494 72C62.4494 72 62.4494 72 62.4494 72C62.4494 72 62.4494 72 62.4494 72C62.4494 72 62.4494 72 62.4494 72C62.4494 72 62.4494 72 62.4494 72C62.4494 72 62.4494 72 62.4494 72C62.4494 72 62.4494 72 62.4494 72C62.4494 72 62.4494 72 62.4494 72C62.4494 72 62.4494 72 62.4494 72C62.4494 72 62.4494 72 62.4494 72C62.4494 72 62.4494 72 62.4494 72C62.4494 72 62.4494 72 62.4494 72C62.4494 72 62.4494 72 62.4494 72C62.4494 72 62.4494 72 62.4494 72C62.4494 72 62.4494 72 62.4494 72C62.4494 72 62.4494 72 62.4494 72C62.4494 72 62.4494 72 62.4494 72C62.4494 72 62.4494 72 62.4494 72C62.4494 72 62.4494 72 62.4494 72C62.4494 72 62.4494 72 62.4494 72C62.4494 72 62.4494 72 62.4494 72C62.4494 72 62.4494 72 62.4494 72C62.4494 72 62.4494 72 62.4494 72C62.4494 72 62.4494 72 62.4494 72C62.4494 72 62.4494 72 62.4494 72C62.4494 72 62.4494 72 62.4494 72C62.4494 72 62.4494 72 62.4494 72C62.4494 72 62.4494 72 62.4494 72C62.4494 72 62.4494 72 62.4494 72C62.4494 72 62.4494 72 62.4494 72C62.4494 72 62.4494 72 62.4494 72C62.4494 72 62.4494 72 62.4494 72C62.4494 72 62.4494 72 62.4494 72C62.4494 72 62.4494 72 62.4494 72C62.4494 72 62.4494 72 62.4494 72C62.4494 72 62.4494 72 62.4494 72C62.4494 72 62.4494 72 62.4494 72C62.4494 72 62.4494 72 62.4494 72C62.4494 72 62.4494 72 62.4494 72C62.4494 72 62.4494 72 62.4494 72C62.4494 72 62.4494 72 62.4494 72C62.4494 72 62.4494 72 62.4494 72C62.4494 72 62.4494 72 62.4494 72C62.4494 72 62.4494 72 62.4494 72C62.4494 72 62.4494 72 62.4494 72C62.4494 72 62.4494 72 62.4494 72C62.4494 72 62.4494 72 62.4494 72C62.4494 72 62.4494 72 62.4494 72C62.4494 72 62.4494 72 62.4494 72C62.4494 72 62.4494 72 62.4494 72C62.4494 72 62.4494 72 62.4494 72C62.4494 72 62.4494 72 62.4494 72C62.4494 72 62.4494 72 62.4494 72C62.4494 72 62.4494 72 62.4494 72C62.4494 72 62.4494 72 62.4494 72C62.4494 72 62.4494 72 62.4494 72C62.4494 72 62.4494 72 62.4494 72C62.4494 72 62.4494 72 62.4494 72C62.4494 72 62.4494 72 62.4494 72C62.4494 72 62.4494 72 62.4494 72C62.4494 72 62.4494 72 62.4494 72C62.4494 72 62.4494 72 62.4494 72C62.4494 72 62.4494 72 62.4494 72C62.4494 72 62.4494 72 62.4494 72C62.4494 72 62.4494 72 62.4494 72C62.4494 72 62.4494 72 62.4494 72C62.4494 72 62.4494 72 62.4494 72C62.4494 72 62.4494 72 62.4494 72C62.4494 72 62.4494 72 62.4494 72C62.4494 72 62.4494 72 62.4494 72C62.4494 72 62.4494 72 62.4494 72C62.4494 72 62.4494 72 62.4494 72C62.4494 72 62.4494 72 62.4494 72C62.4494 72 62.4494 72 62.4494 72C62.4494 72 62.4494 72 62.4494 72C62.4494 72 62.4494 72 62.4494 72C62.4494 72 62.4494 72 62.4494 72C62.4494 72 62.4494 72 62.4494 72C62.4494 72 62.4494 72 62.4494 72C62.4494 72 62.4494 72 62.4494 72C62.4494 72 62.4494 72 62.4494 72C62.4494 72 62.4494 72 62.4494 72C62.4494 72 62.4494 72 62.4494 72C62.4494 72 62.4494 72 62.4494 72C62.4494 72 62.4494 72 62.4494 72C62.4494 72 62.4494 72 62.4494 72C62.4494 72 62.4494 72 62.4494 72C62.4494 72 62.4494 72 62.4494 72C62.4494 72 62.4494 72 62.4494 72C62.4494 72 62.4494 72 62.4494 72C62.4494 72 62.4494 72 62.4494 72C62.4494 72 62.4494 72 62.4494 72C62.4494 72 62.4494 72 62.4495 72C62.4495 72 62.4495 72 62.4495 72C62.4495 72 62.4495 72 62.4495 72C62.4495 72 62.4495 72 62.4495 72C62.4495 72 62.4495 72 62.4495 72C62.4495 72 62.4495 72 62.4495 72C62.4495 72 62.4495 72 62.4495 72C62.4495 72 62.4495 72 62.4495 72V68C62.4495 68 62.4495 68 62.4495 68C62.4495 68 62.4495 68 62.4495 68C62.4495 68 62.4495 68 62.4495 68C62.4495 68 62.4495 68 62.4495 68C62.4495 68 62.4495 68 62.4495 68C62.4495 68 62.4495 68 62.4495 68C62.4495 68 62.4495 68 62.4495 68C62.4494 68 62.4494 68 62.4494 68C62.4494 68 62.4494 68 62.4494 68C62.4494 68 62.4494 68 62.4494 68C62.4494 68 62.4494 68 62.4494 68C62.4494 68 62.4494 68 62.4494 68C62.4494 68 62.4494 68 62.4494 68C62.4494 68 62.4494 68 62.4494 68C62.4494 68 62.4494 68 62.4494 68C62.4494 68 62.4494 68 62.4494 68C62.4494 68 62.4494 68 62.4494 68C62.4494 68 62.4494 68 62.4494 68C62.4494 68 62.4494 68 62.4494 68C62.4494 68 62.4494 68 62.4494 68C62.4494 68 62.4494 68 62.4494 68C62.4494 68 62.4494 68 62.4494 68C62.4494 68 62.4494 68 62.4494 68C62.4494 68 62.4494 68 62.4494 68C62.4494 68 62.4494 68 62.4494 68C62.4494 68 62.4494 68 62.4494 68C62.4494 68 62.4494 68 62.4494 68C62.4494 68 62.4494 68 62.4494 68C62.4494 68 62.4494 68 62.4494 68C62.4494 68 62.4494 68 62.4494 68C62.4494 68 62.4494 68 62.4494 68C62.4494 68 62.4494 68 62.4494 68C62.4494 68 62.4494 68 62.4494 68C62.4494 68 62.4494 68 62.4494 68C62.4494 68 62.4494 68 62.4494 68C62.4494 68 62.4494 68 62.4494 68C62.4494 68 62.4494 68 62.4494 68C62.4494 68 62.4494 68 62.4494 68C62.4494 68 62.4494 68 62.4494 68C62.4494 68 62.4494 68 62.4494 68C62.4494 68 62.4494 68 62.4494 68C62.4494 68 62.4494 68 62.4494 68C62.4494 68 62.4494 68 62.4494 68C62.4494 68 62.4494 68 62.4494 68C62.4494 68 62.4494 68 62.4494 68C62.4494 68 62.4494 68 62.4494 68C62.4494 68 62.4494 68 62.4494 68C62.4494 68 62.4494 68 62.4494 68C62.4494 68 62.4494 68 62.4494 68C62.4494 68 62.4494 68 62.4494 68C62.4494 68 62.4494 68 62.4494 68C62.4494 68 62.4494 68 62.4494 68C62.4494 68 62.4494 68 62.4494 68C62.4494 68 62.4494 68 62.4494 68C62.4494 68 62.4494 68 62.4494 68C62.4494 68 62.4494 68 62.4494 68C62.4494 68 62.4494 68 62.4494 68C62.4494 68 62.4494 68 62.4494 68C62.4494 68 62.4494 68 62.4494 68C62.4494 68 62.4494 68 62.4494 68C62.4494 68 62.4494 68 62.4494 68C62.4494 68 62.4494 68 62.4494 68C62.4494 68 62.4494 68 62.4494 68C62.4494 68 62.4494 68 62.4494 68C62.4494 68 62.4494 68 62.4494 68C62.4494 68 62.4494 68 62.4494 68C62.4494 68 62.4494 68 62.4494 68C62.4494 68 62.4494 68 62.4494 68C62.4494 68 62.4494 68 62.4494 68C62.4494 68 62.4494 68 62.4494 68C62.4494 68 62.4494 68 62.4494 68C62.4494 68 62.4494 68 62.4494 68C62.4494 68 62.4494 68 62.4494 68C62.4494 68 62.4494 68 62.4494 68C62.4494 68 62.4494 68 62.4494 68C62.4494 68 62.4494 68 62.4494 68C62.4494 68 62.4494 68 62.4494 68C62.4494 68 62.4494 68 62.4494 68C62.4494 68 62.4494 68 62.4494 68C62.4494 68 62.4494 68 62.4494 68C62.4494 68 62.4494 68 62.4494 68C62.4494 68 62.4494 68 62.4494 68C62.4494 68 62.4494 68 62.4494 68C62.4494 68 62.4494 68 62.4494 68C62.4494 68 62.4494 68 62.4494 68C62.4494 68 62.4494 68 62.4494 68C62.4494 68 62.4494 68 62.4494 68C62.4494 68 62.4494 68 62.4494 68C62.4494 68 62.4494 68 62.4494 68C62.4494 68 62.4494 68 62.4494 68C62.4494 68 62.4494 68 62.4494 68C62.4494 68 62.4494 68 62.4494 68C62.4494 68 62.4494 68 62.4494 68C62.4494 68 62.4494 68 62.4494 68C62.4494 68 62.4494 68 62.4494 68C62.4494 68 62.4494 68 62.4494 68C62.4494 68 62.4494 68 62.4494 68C62.4494 68 62.4494 68 62.4494 68C62.4494 68 62.4494 68 62.4494 68C62.4494 68 62.4494 68 62.4494 68C62.4494 68 62.4494 68 62.4494 68C62.4494 68 62.4494 68 62.4494 68C62.4494 68 62.4494 68 62.4494 68C62.4494 68 62.4494 68 62.4494 68C62.4494 68 62.4494 68 62.4494 68C62.4494 68 62.4494 68 62.4494 68C62.4494 68 62.4494 68 62.4494 68C62.4494 68 62.4494 68 62.4494 68C62.4494 68 62.4494 68 62.4494 68C62.4494 68 62.4494 68 62.4494 68C62.4494 68 62.4494 68 62.4494 68C62.4494 68 62.4494 68 62.4494 68C62.4494 68 62.4494 68 62.4494 68C62.4494 68 62.4494 68 62.4494 68C62.4494 68 62.4494 68 62.4494 68C62.4494 68 62.4494 68 62.4494 68C62.4494 68 62.4494 68 62.4494 68C62.4494 68 62.4494 68 62.4494 68C62.4494 68 62.4494 68 62.4494 68C62.4494 68 62.4494 68 62.4494 68C62.4494 68 62.4494 68 62.4494 68C62.4494 68 62.4494 68 62.4494 68C62.4494 68 62.4494 68 62.4494 68C62.4494 68 62.4494 68 62.4494 68C62.4494 68 62.4494 68 62.4494 68C62.4494 68 62.4494 68 62.4494 68C62.4494 68 62.4494 68 62.4494 68C62.4494 68 62.4494 68 62.4494 68C62.4494 68 62.4494 68 62.4494 68C62.4494 68 62.4494 68 62.4494 68C62.4494 68 62.4494 68 62.4494 68C62.4494 68 62.4494 68 62.4494 68C62.4494 68 62.4494 68 62.4494 68C62.4494 68 62.4494 68 62.4494 68C62.4494 68 62.4494 68 62.4494 68C62.4494 68 62.4494 68 62.4494 68C62.4494 68 62.4494 68 62.4494 68C62.4494 68 62.4494 68 62.4494 68C62.4494 68 62.4494 68 62.4494 68C62.4494 68 62.4494 68 62.4494 68C62.4494 68 62.4494 68 62.4494 68C62.4494 68 62.4494 68 62.4494 68C62.4494 68 62.4494 68 62.4493 68C62.4493 68 62.4493 68 62.4493 68C62.4493 68 62.4493 68 62.4493 68C62.4493 68 62.4493 68 62.4493 68C62.4493 68 62.4493 68 62.4493 68C62.4493 68 62.4493 68 62.4493 68C62.4493 68 62.4493 68 62.4493 68C62.4493 68 62.4493 68 62.4493 68C62.4493 68 62.4493 68 62.4493 68C62.4493 68 62.4493 68 62.4493 68C62.4493 68 62.4493 68 62.4493 68C62.4493 68 62.4493 68 62.4493 68C62.4493 68 62.4493 68 62.4493 68C62.4493 68 62.4493 68 62.4493 68C62.4493 68 62.4493 68 62.4493 68C62.4493 68 62.4493 68 62.4493 68C62.4493 68 62.4493 68 62.4493 68C62.4493 68 62.4493 68 62.4493 68C62.4493 68 62.4493 68 62.4493 68C62.4493 68 62.4493 68 62.4493 68C62.4493 68 62.4493 68 62.4493 68C62.4493 68 62.4493 68 62.4493 68C62.4493 68 62.4493 68 62.4493 68C62.4493 68 62.4493 68 62.4493 68C62.4493 68 62.4493 68 62.4493 68C62.4493 68 62.4493 68 62.4493 68C62.4493 68 62.4493 68 62.4493 68C62.4493 68 62.4493 68 62.4493 68C62.4493 68 62.4493 68 62.4493 68C62.4493 68 62.4493 68 62.4493 68C62.4493 68 62.4493 68 62.4493 68C62.4493 68 62.4493 68 62.4493 68C62.4493 68 62.4493 68 62.4493 68C62.4493 68 62.4493 68 62.4493 68C62.4493 68 62.4493 68 62.4493 68C62.4493 68 62.4493 68 62.4493 68C62.4493 68 62.4493 68 62.4493 68C62.4493 68 62.4493 68 62.4493 68C62.4493 68 62.4493 68 62.4493 68C62.4493 68 62.4493 68 62.4493 68C62.4493 68 62.4493 68 62.4493 68C62.4493 68 62.4493 68 62.4493 68C62.4493 68 62.4493 68 62.4493 68C62.4493 68 62.4493 68 62.4493 68C62.4493 68 62.4493 68 62.4493 68C62.4493 68 62.4493 68 62.4493 68C62.4493 68 62.4493 68 62.4493 68C62.4493 68 62.4493 68 62.4493 68C62.4493 68 62.4493 68 62.4493 68C62.4493 68 62.4493 68 62.4493 68C62.4493 68 62.4493 68 62.4493 68C62.4493 68 62.4493 68 62.4493 68C62.4493 68 62.4493 68 62.4493 68C62.4493 68 62.4493 68 62.4493 68C62.4493 68 62.4493 68 62.4493 68C62.4493 68 62.4493 68 62.4493 68C62.4493 68 62.4493 68 62.4493 68C62.4493 68 62.4493 68 62.4493 68C62.4493 68 62.4493 68 62.4493 68C62.4493 68 62.4493 68 62.4493 68C62.4493 68 62.4493 68 62.4493 68C62.4493 68 62.4493 68 62.4493 68C62.4493 68 62.4493 68 62.4493 68C62.4493 68 62.4493 68 62.4493 68C62.4493 68 62.4493 68 62.4493 68C62.4493 68 62.4493 68 62.4493 68C62.4493 68 62.4493 68 62.4493 68C62.4493 68 62.4493 68 62.4493 68C62.4493 68 62.4493 68 62.4493 68C62.4493 68 62.4493 68 62.4493 68C62.4493 68 62.4493 68 62.4493 68C62.4493 68 62.4493 68 62.4493 68C62.4493 68 62.4493 68 62.4493 68C62.4493 68 62.4493 68 62.4493 68C62.4493 68 62.4493 68 62.4493 68C62.4493 68 62.4493 68 62.4493 68C62.4493 68 62.4493 68 62.4493 68C62.4493 68 62.4493 68 62.4493 68C62.4493 68 62.4493 68 62.4493 68C62.4493 68 62.4493 68 62.4493 68C62.4493 68 62.4493 68 62.4493 68C62.4493 68 62.4493 68 62.4493 68C62.4493 68 62.4493 68 62.4493 68C62.4493 68 62.4493 68 62.4493 68C62.4493 68 62.4493 68 62.4493 68C62.4493 68 62.4493 68 62.4493 68C62.4493 68 62.4493 68 62.4493 68C62.4493 68 62.4493 68 62.4493 68C62.4493 68 62.4493 68 62.4493 68C62.4493 68 62.4493 68 62.4493 68C62.4493 68 62.4493 68 62.4493 68C62.4493 68 62.4493 68 62.4493 68C62.4493 68 62.4493 68 62.4493 68C62.4493 68 62.4493 68 62.4493 68C62.4493 68 62.4493 68 62.4493 68C62.4493 68 62.4493 68 62.4493 68C62.4493 68 62.4493 68 62.4493 68C62.4493 68 62.4493 68 62.4493 68C62.4493 68 62.4493 68 62.4493 68C62.4493 68 62.4493 68 62.4493 68C62.4493 68 62.4493 68 62.4493 68C62.4493 68 62.4493 68 62.4493 68C62.4493 68 62.4493 68 62.4493 68C62.4493 68 62.4493 68 62.4493 68C62.4493 68 62.4493 68 62.4493 68C62.4493 68 62.4493 68 62.4493 68C62.4493 68 62.4493 68 62.4493 68C62.4493 68 62.4493 68 62.4493 68C62.4493 68 62.4493 68 62.4493 68C62.4493 68 62.4493 68 62.4493 68C62.4493 68 62.4493 68 62.4493 68C62.4493 68 62.4493 68 62.4493 68C62.4493 68 62.4493 68 62.4493 68C62.4493 68 62.4493 68 62.4493 68C62.4493 68 62.4493 68 62.4493 68C62.4493 68 62.4493 68 62.4493 68C62.4493 68 62.4493 68 62.4493 68C62.4493 68 62.4493 68 62.4493 68C62.4493 68 62.4493 68 62.4493 68C62.4493 68 62.4493 68 62.4493 68C62.4493 68 62.4493 68 62.4493 68C62.4493 68 62.4493 68 62.4493 68C62.4493 68 62.4493 68 62.4493 68C62.4493 68 62.4493 68 62.4493 68C62.4493 68 62.4493 68 62.4493 68C62.4493 68 62.4493 68 62.4493 68C62.4493 68 62.4493 68 62.4493 68C62.4493 68 62.4493 68 62.4493 68C62.4493 68 62.4493 68 62.4493 68C62.4493 68 62.4493 68 62.4493 68C62.4493 68 62.4493 68 62.4493 68C62.4493 68 62.4493 68 62.4493 68C62.4493 68 62.4493 68 62.4493 68C62.4493 68 62.4493 68 62.4493 68C62.4493 68 62.4493 68 62.4493 68C62.4493 68 62.4493 68 62.4493 68C62.4492 68 62.4492 68 62.4492 68C62.4492 68 62.4492 68 62.4492 68C62.4492 68 62.4492 68 62.4492 68C62.4492 68 62.4492 68 62.4492 68C62.4492 68 62.4492 68 62.4492 68C62.4492 68 62.4492 68 62.4492 68C62.4492 68 62.4492 68 62.4492 68C62.4492 68 62.4492 68 62.4492 68C62.4492 68 62.4492 68 62.4492 68C62.4492 68 62.4492 68 62.4492 68C62.4492 68 62.4492 68 62.4492 68C62.4492 68 62.4492 68 62.4492 68C62.4492 68 62.4492 68 62.4492 68C62.4492 68 62.4492 68 62.4492 68C62.4492 68 62.4492 68 62.4492 68C62.4492 68 62.4492 68 62.4492 68C62.4492 68 62.4492 68 62.4492 68C62.4492 68 62.4492 68 62.4492 68C62.4492 68 62.4492 68 62.4492 68C62.4492 68 62.4492 68 62.4492 68C62.4492 68 62.4492 68 62.4492 68C62.4492 68 62.4492 68 62.4492 68C62.4492 68 62.4492 68 62.4492 68C62.4492 68 62.4492 68 62.4492 68C62.4492 68 62.4492 68 62.4492 68C62.4492 68 62.4492 68 62.4492 68C62.4492 68 62.4492 68 62.4492 68C62.4492 68 62.4492 68 62.4492 68C62.4492 68 62.4492 68 62.4492 68C62.4492 68 62.4492 68 62.4492 68C62.4492 68 62.4492 68 62.4492 68C62.4492 68 62.4492 68 62.4492 68C62.4492 68 62.4492 68 62.4492 68C62.4492 68 62.4492 68 62.4492 68C62.4492 68 62.4492 68 62.4492 68C62.4492 68 62.4492 68 62.4492 68C62.4492 68 62.4492 68 62.4492 68C62.4492 68 62.4492 68 62.4492 68C62.4492 68 62.4492 68 62.4492 68C62.4492 68 62.4492 68 62.4492 68C62.4492 68 62.4492 68 62.4492 68C62.4492 68 62.4492 68 62.4492 68C62.4492 68 62.4492 68 62.4492 68C62.4492 68 62.4492 68 62.4492 68C62.4492 68 62.4492 68 62.4492 68C62.4492 68 62.4492 68 62.4492 68C62.4492 68 62.4492 68 62.4492 68C62.4492 68 62.4492 68 62.4492 68C62.4492 68 62.4492 68 62.4492 68C62.4492 68 62.4492 68 62.4492 68C62.4492 68 62.4492 68 62.4492 68C62.4492 68 62.4492 68 62.4492 68C62.4492 68 62.4492 68 62.4492 68C62.4492 68 62.4492 68 62.4492 68C62.4492 68 62.4492 68 62.4492 68C62.4492 68 62.4492 68 62.4492 68C62.4492 68 62.4492 68 62.4492 68C62.4492 68 62.4492 68 62.4492 68C62.4492 68 62.4492 68 62.4492 68C62.4492 68 62.4492 68 62.4492 68C62.4492 68 62.4492 68 62.4492 68C62.4492 68 62.4492 68 62.4492 68C62.4492 68 62.4492 68 62.4492 68C62.4492 68 62.4492 68 62.4492 68C62.4492 68 62.4492 68 62.4492 68C62.4492 68 62.4492 68 62.4492 68C62.4492 68 62.4492 68 62.4492 68C62.4492 68 62.4492 68 62.4492 68C62.4492 68 62.4492 68 62.4492 68C62.4492 68 62.4492 68 62.4492 68C62.4492 68 62.4492 68 62.4492 68C62.4492 68 62.4492 68 62.4492 68C62.4492 68 62.4492 68 62.4492 68C62.4492 68 62.4492 68 62.4492 68C62.4492 68 62.4492 68 62.4492 68C62.4492 68 62.4492 68 62.4492 68C62.4492 68 62.4492 68 62.4492 68C62.4492 68 62.4492 68 62.4492 68C62.4492 68 62.4492 68 62.4492 68C62.4492 68 62.4492 68 62.4492 68C62.4492 68 62.4492 68 62.4492 68C62.4492 68 62.4492 68 62.4492 68C62.4492 68 62.4492 68 62.4492 68C62.4492 68 62.4492 68 62.4492 68C62.4492 68 62.4492 68 62.4492 68C62.4492 68 62.4492 68 62.4492 68C62.4492 68 62.4492 68 62.4492 68C62.4492 68 62.4492 68 62.4492 68C62.4492 68 62.4492 68 62.4492 68C62.4492 68 62.4492 68 62.4492 68C62.4492 68 62.4492 68 62.4492 68C62.4492 68 62.4492 68 62.4492 68C62.4492 68 62.4492 68 62.4492 68C62.4492 68 62.4492 68 62.4492 68C62.4492 68 62.4492 68 62.4492 68C62.4492 68 62.4492 68 62.4492 68C62.4492 68 62.4492 68 62.4492 68C62.4492 68 62.4492 68 62.4492 68C62.4492 68 62.4492 68 62.4492 68C62.4492 68 62.4492 68 62.4492 68C62.4492 68 62.4492 68 62.4492 68C62.4492 68 62.4492 68 62.4492 68C62.4492 68 62.4492 68 62.4492 68C62.4492 68 62.4492 68 62.4492 68C62.4492 68 62.4492 68 62.4492 68C62.4492 68 62.4492 68 62.4492 68C62.4492 68 62.4492 68 62.4492 68C62.4492 68 62.4492 68 62.4492 68C62.4492 68 62.4492 68 62.4492 68C62.4492 68 62.4492 68 62.4492 68C62.4492 68 62.4492 68 62.4492 68C62.4492 68 62.4492 68 62.4492 68C62.4492 68 62.4492 68 62.4492 68C62.4492 68 62.4492 68 62.4492 68C62.4492 68 62.4492 68 62.4492 68C62.4492 68 62.4492 68 62.4492 68C62.4492 68 62.4492 68 62.4492 68C62.4492 68 62.4492 68 62.4492 68C62.4492 68 62.4492 68 62.4492 68C62.4492 68 62.4492 68 62.4492 68C62.4492 68 62.4492 68 62.4492 68C62.4492 68 62.4492 68 62.4492 68C62.4492 68 62.4492 68 62.4492 68C62.4492 68 62.4492 68 62.4492 68C62.4492 68 62.4492 68 62.4492 68C62.4492 68 62.4492 68 62.4492 68C62.4492 68 62.4492 68 62.4492 68C62.4492 68 62.4492 68 62.4492 68C62.4492 68 62.4492 68 62.4492 68C62.4492 68 62.4492 68 62.4492 68C62.4492 68 62.4492 68 62.4492 68C62.4492 68 62.4492 68 62.4492 68C62.4492 68 62.4492 68 62.4492 68C62.4492 68 62.4492 68 62.4492 68C62.4492 68 62.4492 68 62.4492 68C62.4492 68 62.4492 68 62.4491 68C62.4491 68 62.4491 68 62.4491 68C62.4491 68 62.4491 68 62.4491 68C62.4491 68 62.4491 68 62.4491 68C62.4491 68 62.4491 68 62.4491 68C62.4491 68 62.4491 68 62.4491 68C62.4491 68 62.4491 68 62.4491 68C62.4491 68 62.4491 68 62.4491 68C62.4491 68 62.4491 68 62.4491 68C62.4491 68 62.4491 68 62.4491 68C62.4491 68 62.4491 68 62.4491 68C62.4491 68 62.4491 68 62.4491 68C62.4491 68 62.4491 68 62.4491 68C62.4491 68 62.4491 68 62.4491 68C62.4491 68 62.4491 68 62.4491 68C62.4491 68 62.4491 68 62.4491 68C62.4491 68 62.4491 68 62.4491 68C62.4491 68 62.4491 68 62.4491 68C62.4491 68 62.4491 68 62.4491 68C62.4491 68 62.4491 68 62.4491 68C62.4491 68 62.4491 68 62.4491 68C62.4491 68 62.4491 68 62.4491 68C62.4491 68 62.4491 68 62.4491 68C62.4491 68 62.4491 68 62.4491 68C62.4491 68 62.4491 68 62.4491 68C62.4491 68 62.4491 68 62.4491 68C62.4491 68 62.4491 68 62.4491 68C62.4491 68 62.4491 68 62.4491 68C62.4491 68 62.4491 68 62.4491 68C62.4491 68 62.4491 68 62.4491 68C62.4491 68 62.4491 68 62.4491 68C62.4491 68 62.4491 68 62.4491 68C62.4491 68 62.4491 68 62.4491 68C62.4491 68 62.4491 68 62.4491 68C62.4491 68 62.4491 68 62.4491 68C62.4491 68 62.4491 68 62.4491 68C62.4491 68 62.4491 68 62.4491 68C62.4491 68 62.4491 68 62.4491 68C62.4491 68 62.4491 68 62.4491 68C62.4491 68 62.4491 68 62.4491 68C62.4491 68 62.4491 68 62.4491 68C62.4491 68 62.4491 68 62.4491 68C62.4491 68 62.4491 68 62.4491 68C62.4491 68 62.4491 68 62.4491 68C62.4491 68 62.4491 68 62.4491 68C62.4491 68 62.4491 68 62.4491 68C62.4491 68 62.4491 68 62.4491 68C62.4491 68 62.4491 68 62.4491 68C62.4491 68 62.4491 68 62.4491 68C62.4491 68 62.4491 68 62.4491 68C62.4491 68 62.4491 68 62.4491 68C62.4491 68 62.4491 68 62.4491 68C62.4491 68 62.4491 68 62.4491 68C62.4491 68 62.4491 68 62.4491 68C62.4491 68 62.4491 68 62.4491 68C62.4491 68 62.4491 68 62.4491 68C62.4491 68 62.4491 68 62.4491 68C62.4491 68 62.4491 68 62.4491 68C62.4491 68 62.4491 68 62.4491 68C62.4491 68 62.4491 68 62.4491 68C62.4491 68 62.4491 68 62.4491 68C62.4491 68 62.4491 68 62.4491 68C62.4491 68 62.4491 68 62.4491 68C62.4491 68 62.4491 68 62.4491 68C62.4491 68 62.4491 68 62.4491 68C62.4491 68 62.4491 68 62.4491 68C62.4491 68 62.4491 68 62.4491 68C62.4491 68 62.4491 68 62.4491 68C62.4491 68 62.4491 68 62.4491 68C62.4491 68 62.4491 68 62.4491 68C62.4491 68 62.4491 68 62.4491 68C62.4491 68 62.4491 68 62.4491 68C62.4491 68 62.4491 68 62.4491 68C62.4491 68 62.4491 68 62.4491 68C62.4491 68 62.4491 68 62.4491 68C62.4491 68 62.4491 68 62.4491 68C62.4491 68 62.4491 68 62.4491 68C62.4491 68 62.4491 68 62.4491 68C62.4491 68 62.4491 68 62.4491 68C62.4491 68 62.4491 68 62.4491 68C62.4491 68 62.4491 68 62.4491 68C62.4491 68 62.4491 68 62.4491 68C62.4491 68 62.4491 68 62.4491 68C62.4491 68 62.4491 68 62.4491 68C62.4491 68 62.4491 68 62.4491 68C62.4491 68 62.4491 68 62.4491 68C62.4491 68 62.4491 68 62.4491 68C62.4491 68 62.4491 68 62.4491 68C62.4491 68 62.4491 68 62.4491 68C62.4491 68 62.4491 68 62.4491 68C62.4491 68 62.4491 68 62.4491 68C62.4491 68 62.4491 68 62.4491 68C62.4491 68 62.4491 68 62.4491 68C62.4491 68 62.4491 68 62.4491 68C62.4491 68 62.4491 68 62.4491 68C62.4491 68 62.4491 68 62.4491 68C62.4491 68 62.4491 68 62.4491 68C62.4491 68 62.4491 68 62.4491 68C62.4491 68 62.4491 68 62.4491 68V72ZM60.4491 70V70.0003H64.4491V70H60.4491ZM62.4491 68.0003H35.0205V72.0003H62.4491V68.0003ZM37.0205 70.0003V69.9964H33.0205V70.0003H37.0205ZM34.6939 72C34.8179 72 34.9416 71.9986 35.065 71.9959L34.976 67.9969C34.8823 67.999 34.7882 68 34.6939 68V72ZM18 55C18 64.3498 25.4354 72 34.6939 72V68C27.7219 68 22 62.2188 22 55H18ZM34.6939 38C25.4354 38 18 45.6502 18 55H22C22 47.7812 27.7219 42 34.6939 42V38ZM42.7318 40.097C40.347 38.7607 37.6054 38 34.6939 38V42C36.9001 42 38.9708 42.5747 40.7765 43.5865L42.7318 40.097ZM62.4495 24C51.7001 24 42.6715 31.3281 39.8308 41.2935L43.6775 42.3901C46.0551 34.0495 53.5822 28 62.4495 28V24ZM86.0005 48C86.0005 34.7842 75.495 24 62.4495 24V28C73.2085 28 82.0005 36.9152 82.0005 48H86.0005Z" fill="black" fill-opacity="0.21"/>
</g>
<g clip-path="url(#clip1_407_811)">
<path d="M47 86.2V72.025H43V61H57L53 68.875H57L47 86.2Z" fill="url(#paint2_linear_407_811)" stroke="#B44100" stroke-opacity="0.25" stroke-width="2" stroke-miterlimit="16"/>
</g>
<defs>
<linearGradient id="paint0_linear_407_811" x1="24.9829" y1="19.4344" x2="46.282" y2="45.2882" gradientUnits="userSpaceOnUse">
<stop offset="0.10284" stop-color="#9BA4B9"/>
<stop offset="0.859806" stop-color="#A9B4C4"/>
</linearGradient>
<linearGradient id="paint1_linear_407_811" x1="42.5308" y1="42.3335" x2="66.3964" y2="60.1921" gradientUnits="userSpaceOnUse">
<stop offset="0.06" stop-color="#757575"/>
<stop offset="1" stop-color="#656565"/>
</linearGradient>
<linearGradient id="paint2_linear_407_811" x1="46.25" y1="63.25" x2="60.3758" y2="76.1426" gradientUnits="userSpaceOnUse">
<stop offset="0.165457" stop-color="#F0AA41"/>
<stop offset="1" stop-color="#FF8A00"/>
</linearGradient>
<clipPath id="clip0_407_811">
<rect width="68" height="48" fill="white" transform="translate(18 24)"/>
</clipPath>
<clipPath id="clip1_407_811">
<rect width="14" height="28" fill="white" transform="translate(43 61)"/>
</clipPath>
</defs>
</svg>
