<svg width="20" height="20" viewBox="0 0 20 20" fill="none" xmlns="http://www.w3.org/2000/svg">
<path fill-rule="evenodd" clip-rule="evenodd" d="M11.4994 1.5C11.4994 0.671573 10.8278 0 9.99936 0C9.17093 0 8.49936 0.671573 8.49936 1.5V8.49838H1.5C0.671573 8.49838 0 9.16996 0 9.99838C0 10.8268 0.671573 11.4984 1.5 11.4984H8.49936V18.4982C8.49936 19.3266 9.17093 19.9982 9.99936 19.9982C10.8278 19.9982 11.4994 19.3266 11.4994 18.4982V11.4984H18.4982C19.3266 11.4984 19.9982 10.8268 19.9982 9.99838C19.9982 9.16996 19.3266 8.49838 18.4982 8.49838H11.4994V1.5Z" fill="black"/>
</svg>
