<svg width="27" height="21" viewBox="0 0 27 21" fill="none" xmlns="http://www.w3.org/2000/svg">
<path fill-rule="evenodd" clip-rule="evenodd" d="M8.39984 1.10502C8.68467 0.779494 9.09616 0.592773 9.52871 0.592773H23.3383C24.2996 0.592773 25.2215 0.974645 25.9012 1.65438C26.581 2.33411 26.9628 3.25603 26.9628 4.21733V16.9646C26.9628 17.9259 26.581 18.8478 25.9012 19.5276C25.2215 20.2073 24.2996 20.5892 23.3383 20.5892H9.52871C9.09616 20.5892 8.68467 20.4025 8.39984 20.0769L0.963908 11.5787C0.469062 11.0132 0.469062 10.1688 0.963908 9.60322L8.39984 1.10502ZM10.2094 3.59277L4.08593 10.591L10.2094 17.5892H23.3383C23.5039 17.5892 23.6628 17.5234 23.7799 17.4063C23.897 17.2891 23.9628 17.1303 23.9628 16.9646V4.21733C23.9628 4.05168 23.897 3.89283 23.7799 3.7757C23.6628 3.65857 23.5039 3.59277 23.3383 3.59277H10.2094ZM20.8589 6.69669C21.2494 7.08722 21.2494 7.72038 20.8589 8.11091L18.3791 10.5906L20.8589 13.0703C21.2494 13.4609 21.2494 14.094 20.8589 14.4846C20.4683 14.8751 19.8352 14.8751 19.4447 14.4846L16.9649 12.0048L14.4852 14.4846C14.0947 14.8751 13.4615 14.8751 13.071 14.4846C12.6805 14.094 12.6805 13.4609 13.071 13.0703L15.5507 10.5906L13.071 8.11091C12.6805 7.72038 12.6805 7.08722 13.071 6.69669C13.4615 6.30617 14.0947 6.30617 14.4852 6.69669L16.9649 9.17641L19.4447 6.69669C19.8352 6.30617 20.4683 6.30617 20.8589 6.69669Z" fill="black"/>
</svg>
