<svg width="21" height="20" viewBox="0 0 21 20" fill="none" xmlns="http://www.w3.org/2000/svg">
<path fill-rule="evenodd" clip-rule="evenodd" d="M10.8114 5.00009C12.1525 5.00009 13.2397 3.88078 13.2397 2.50005C13.2397 1.11931 12.1525 0 10.8114 0C9.47031 0 8.38312 1.11931 8.38312 2.50005C8.38312 3.88078 9.47031 5.00009 10.8114 5.00009ZM0.812012 10.001C0.812012 9.1726 1.48358 8.50103 2.31201 8.50103H19.3102C20.1386 8.50103 20.8102 9.1726 20.8102 10.001C20.8102 10.8295 20.1386 11.501 19.3102 11.501H2.31201C1.48358 11.501 0.812012 10.8295 0.812012 10.001ZM13.2399 17.5C13.2399 18.8808 12.1527 20.0001 10.8116 20.0001C9.47049 20.0001 8.3833 18.8808 8.3833 17.5C8.3833 16.1193 9.47049 15 10.8116 15C12.1527 15 13.2399 16.1193 13.2399 17.5Z" fill="black"/>
</svg>
