<svg width="20" height="20" viewBox="0 0 20 20" fill="none" xmlns="http://www.w3.org/2000/svg">
<path fill-rule="evenodd" clip-rule="evenodd" d="M19.4024 2.56066C19.9882 1.97487 19.9882 1.02513 19.4024 0.43934C18.8166 -0.146447 17.8669 -0.146447 17.2811 0.43934L9.92089 7.79957L2.56066 0.43934C1.97487 -0.146447 1.02513 -0.146447 0.43934 0.43934C-0.146447 1.02513 -0.146447 1.97487 0.43934 2.56066L7.79957 9.92089L0.43934 17.2811C-0.146447 17.8669 -0.146447 18.8166 0.43934 19.4024C1.02513 19.9882 1.97487 19.9882 2.56066 19.4024L9.92089 12.0422L17.2811 19.4024C17.8669 19.9882 18.8166 19.9882 19.4024 19.4024C19.9882 18.8166 19.9882 17.8669 19.4024 17.2811L12.0422 9.92089L19.4024 2.56066Z" fill="black"/>
</svg>
