<svg width="21" height="21" viewBox="0 0 21 21" fill="none" xmlns="http://www.w3.org/2000/svg">
<path fill-rule="evenodd" clip-rule="evenodd" d="M4.57473 3.41797C3.93587 3.41797 3.41797 3.93587 3.41797 4.57473C3.41797 5.21359 3.93587 5.73148 4.57473 5.73148C5.21359 5.73148 5.73148 5.21359 5.73148 4.57473C5.73148 3.93587 5.21359 3.41797 4.57473 3.41797ZM0.417969 4.57473C0.417969 2.27901 2.27901 0.417969 4.57473 0.417969C6.87044 0.417969 8.73148 2.27901 8.73148 4.57473C8.73148 6.87044 6.87044 8.73148 4.57473 8.73148C2.27901 8.73148 0.417969 6.87044 0.417969 4.57473ZM18.9188 1.91966C19.5046 2.50545 19.5046 3.45519 18.9188 4.04098L4.04098 18.9188C3.45519 19.5046 2.50545 19.5046 1.91966 18.9188C1.33387 18.333 1.33387 17.3833 1.91966 16.7975L16.7975 1.91966C17.3833 1.33387 18.333 1.33387 18.9188 1.91966ZM15.1077 16.2645C15.1077 15.6256 15.6256 15.1077 16.2645 15.1077C16.9033 15.1077 17.4212 15.6256 17.4212 16.2645C17.4212 16.9033 16.9033 17.4212 16.2645 17.4212C15.6256 17.4212 15.1077 16.9033 15.1077 16.2645ZM16.2645 12.1077C13.9688 12.1077 12.1077 13.9688 12.1077 16.2645C12.1077 18.5602 13.9688 20.4212 16.2645 20.4212C18.5602 20.4212 20.4212 18.5602 20.4212 16.2645C20.4212 13.9688 18.5602 12.1077 16.2645 12.1077Z" fill="black"/>
</svg>
