<?xml version="1.0" encoding="UTF-8"?><svg id="a" xmlns="http://www.w3.org/2000/svg" viewBox="0 0 560 560"><path d="M327.55,301.65c3.68,2.06,8.2,2.28,12.1.68,1.93-.79,3.72-1.97,5.08-3.56.72-.84,1.31-2.04,2.44-2.37s2.37.06,3.45.24c2.39.38,4.63.28,6.7-1.11s3.46-3.44,4.53-5.65c2.48-5.11,4.67-10.41,6.91-15.62s4.27-10.67,5.96-16.17c.85-2.77,1.64-5.56,2.41-8.36.73-2.65,1.72-5.4,2.1-8.12s-1.63-3.84-3.93-4.7-4.58-1.94-6.75-3.15c-4.34-2.43-8.31-5.47-11.77-9.04-1.6-1.65-3.32-4.44-6.02-3.81-2.53.59-3.67,3.43-4.74,5.5-2.96,5.72-5.66,11.57-8.15,17.51-.32.75.34,1.64,1.05,1.85.86.25,1.53-.3,1.85-1.05,1.99-4.75,4.15-9.44,6.45-14.05.53-1.06,1.07-2.11,1.61-3.16.51-.99.98-2.11,1.69-2.97.55-.66,1.02-.91,1.71-.3.83.72,1.51,1.66,2.28,2.46,3.09,3.22,6.6,6.04,10.39,8.4,1.87,1.16,3.81,2.21,5.81,3.13.99.46,2,.88,3.02,1.28.66.26,2.4.57,2.57,1.33.1.46-.2,1.12-.32,1.56-.16.62-.33,1.25-.5,1.87-.33,1.25-.66,2.49-1,3.74-.7,2.57-1.41,5.13-2.17,7.68-1.5,5.01-3.19,9.95-5.19,14.78s-4.12,9.46-6.2,14.17c-1.57,3.55-3.5,9.47-8.32,9.26-2.35-.1-4.66-1.12-6.95-.11-2.1.92-3.06,3.28-4.91,4.58-3.4,2.38-8.05,2.74-11.69.7-1.69-.95-3.2,1.65-1.51,2.59h0Z" style="fill:#fff; stroke-width:0px;"/><path d="M270.31,228.05c-2.1-2.51-4.19-5.01-6.29-7.52l-.45.59c3.19,1.37,6.05,3.29,8.52,5.72.35.35.83-.16.53-.53-1.44-1.79-2.88-3.59-4.32-5.38-.27-.33-.81.1-.59.45,1.04,1.67,2.24,3.19,3.62,4.59.22.23.65.06.64-.27-.04-1.62-.41-3.12-1.09-4.59l-.65.38c.88,1.37,1.94,2.56,3.21,3.58.3.24.69.02.63-.36-.36-2.23-.92-4.4-1.67-6.53l-.72.2c1.01,2.58,2.46,4.9,4.34,6.93.22.24.64.05.64-.27-.01-2.04-.36-3.99-1.07-5.9l-.72.2c.62,1.62,1.42,3.12,2.42,4.54.22.31.66.19.7-.19.17-1.83.16-3.65-.05-5.47l-.74.1c.33,2.1.99,4.09,1.95,5.98.15.29.61.22.69-.09.4-1.72.68-3.44.86-5.2l-.74.1c.32,1.86.96,3.59,1.91,5.22.17.29.59.21.69-.09.55-1.67,1.21-3.28,1.98-4.86l-.69-.09c.52,1.54,1.04,3.07,1.55,4.61.09.28.54.4.69.09.41-.9.82-1.8,1.24-2.71l-.7-.19c.08,1.33.26,2.63.54,3.93.06.26.45.38.63.17,1-1.2,2.11-2.27,3.37-3.2l-.56-.32c-.11,1.71-.09,3.41.08,5.11.04.39.47.49.7.19,1.15-1.5,2.29-2.99,3.44-4.49l-.69-.09c.19,1.22.37,2.44.56,3.66.04.26.46.38.63.17.81-1.05,1.79-1.85,2.99-2.43l-.56-.32c-.13,1.38-.37,2.73-.71,4.08-.11.41.46.65.69.29.83-1.34,1.82-2.53,2.99-3.59l-.64-.27c-.14,1.6-.18,3.2-.11,4.8.01.32.41.51.64.27,1.12-1.15,2.23-2.31,3.35-3.46l-.64-.27c.04,1.44.08,2.88.11,4.33,0,.36.51.52.7.19.55-.97,1.26-1.67,2.22-2.21l-.55-.22c.35,1.01.48,2,.39,3.07-.03.45.6.47.74.1.3-.79.75-1.35,1.43-1.83l-.55-.22c.3.93.55,1.87.74,2.83.06.32.53.35.69.09.51-.88,1.14-1.61,1.96-2.22l-.55-.22c.21.43.25.89.12,1.38-.09.47.61.67.72.2.06-.41.26-.73.6-.97l-.63-.17c.22.63.24,1.15-.04,1.8-.1.23-.03.47.22.55,2.09.69,3.88,1.86,5.35,3.49l.27-.64c-2.15-.21-4.14-1.7-6.16-2.43s-4.08-1.22-6.16-1.66c-4.52-.95-9.05-1.89-13.59-2.77s-8.96-1.59-13.51-1.83c-3.82-.21-8.06-.36-11.36,1.89l.55.22c-.65-1.67-1.29-3.35-1.94-5.02l-.26.46c4.67-1.47,9.58-3.6,14.52-3.8,4.65-.19,9.46.87,13.99,1.82s8.79,2.14,12.89,4.06c1.94.91,3.85,1.96,5.59,3.22,2.15,1.56,3.34,3.55,4.42,5.92.2.44.84.06.65-.38-.39-.89-.78-1.78-1.17-2.66-.13-.29-.63-.22-.69.09-.11.65-.15,1.28-.12,1.94l.74-.1c-.27-.82-.54-1.63-.81-2.45-.12-.38-.78-.34-.74.1l.22,2.57c.04.47.78.49.75,0-.1-1.69-.4-3.33-.9-4.94-.1-.32-.66-.39-.72,0l-.33,2.02h.72c-.23-.64-.51-1.22-.88-1.78-.16-.24-.63-.25-.69.09-.14.92-.24,1.84-.27,2.78h.75l-.19-2.7c-.03-.48-.71-.48-.75,0l-.26,3.14h.75c-.21-1.78-.67-3.45-1.38-5.1-.13-.31-.61-.2-.69.09l-.73,2.75h.72l-.56-2.81c-.07-.37-.63-.34-.72,0-.34,1.26-.61,2.53-.79,3.83l.74.1.16-4.76c.01-.44-.61-.49-.74-.1l-1.33,4.07.74.1c.1-1.58-.08-3.09-.56-4.6-.09-.29-.53-.39-.69-.09-.77,1.44-1.31,2.93-1.63,4.53l.74.1c.18-1.68.05-3.31-.39-4.95-.1-.39-.59-.32-.72,0-.49,1.2-.99,2.4-1.48,3.6l.74.1c-.19-1.56-.63-3.01-1.34-4.42-.13-.27-.5-.22-.65,0-.89,1.35-1.64,2.77-2.25,4.27l.74.1c-.06-2.23-.37-4.4-.93-6.56-.1-.38-.6-.33-.72,0-.55,1.48-1.01,2.97-1.38,4.5l.74.1c-.17-1.75-.67-3.38-1.5-4.93-.14-.25-.51-.24-.65,0-.91,1.54-1.83,3.08-2.74,4.62l.7.19c-.18-1.64-.36-3.29-.53-4.93-.04-.39-.63-.54-.74-.1-.35,1.48-.69,2.95-1.04,4.43l.74.1c.04-2.25-.2-4.45-.72-6.63-.07-.31-.54-.37-.69-.09-.72,1.37-1.45,2.74-2.17,4.11l.69.09c-.26-1.24-.52-2.48-.78-3.73-.07-.32-.54-.36-.69-.09-.79,1.44-1.58,2.89-2.38,4.33l.7.19c.02-1.95-.24-3.84-.77-5.71-.08-.28-.55-.4-.69-.09-.64,1.47-1.27,2.93-1.91,4.4l.7.19c-.15-1.17-.36-2.33-.64-3.48-.09-.38-.61-.33-.72,0-.48,1.41-.86,2.84-1.13,4.31l.74.1.22-3.28c.03-.49-.69-.47-.75,0-.2,1.62-.6,3.18-1.18,4.71l.69-.09c-.67-1.2-1.38-2.38-2.15-3.52-.36-.53-.98-1.92-1.76-1.97-.57-.03-.91.63-1.12,1.05-.46.91-.58,2.14-1.62,2.59l.55.22c-.22-1.13-.25-2.22-.13-3.36.04-.42-.64-.5-.74-.1-.48,1.95-1.12,3.84-1.93,5.67-.19.44.45.82.65.38.84-1.9,1.51-3.84,2-5.85l-.74-.1c-.12,1.21-.07,2.38.16,3.56.05.26.35.31.55.22,1.37-.6,1.13-1.99,1.95-3,.43-.52.66-.04,1,.31.4.42.72,1.03,1.03,1.51.58.9,1.13,1.82,1.64,2.75.17.3.58.2.69-.09.61-1.59,1-3.22,1.2-4.91h-.75l-.22,3.28c-.03.42.66.52.74.1.27-1.47.65-2.9,1.13-4.31h-.72c.27,1.08.48,2.17.62,3.28.04.31.53.58.7.19.64-1.47,1.27-2.93,1.91-4.4l-.69-.09c.52,1.81.76,3.63.75,5.51,0,.37.52.52.7.19.79-1.44,1.58-2.89,2.38-4.33l-.69-.09c.26,1.24.52,2.48.78,3.73.07.31.54.37.69.09.72-1.37,1.45-2.74,2.17-4.11l-.69-.09c.5,2.12.73,4.26.69,6.43,0,.42.64.52.74.1.35-1.48.69-2.95,1.04-4.43l-.74-.1c.18,1.64.36,3.29.53,4.93.04.35.49.53.7.19.91-1.54,1.83-3.08,2.74-4.62h-.65c.77,1.43,1.24,2.93,1.4,4.55.04.39.63.54.74.1.38-1.53.84-3.03,1.38-4.5h-.72c.54,2.09.85,4.2.91,6.36.01.45.58.48.74.1.59-1.44,1.32-2.79,2.18-4.09h-.65c.65,1.29,1.06,2.61,1.24,4.04.05.43.57.5.74.1.49-1.2.99-2.4,1.48-3.6h-.72c.42,1.57.53,3.13.36,4.75-.04.42.65.51.74.1.31-1.53.82-2.97,1.56-4.35l-.69-.09c.46,1.44.63,2.89.53,4.4-.03.44.61.49.74.1l1.33-4.07-.74-.1-.16,4.76c-.01.41.68.52.74.1.18-1.29.45-2.57.79-3.83h-.72l.56,2.81c.07.37.63.34.72,0l.73-2.75-.69.09c.66,1.51,1.08,3.08,1.28,4.72.06.47.71.49.75,0l.26-3.14h-.75l.19,2.7c.03.48.73.49.75,0,.03-.87.11-1.72.25-2.58l-.69.09c.34.52.6,1.02.8,1.6.11.31.66.4.72,0l.33-2.02h-.72c.48,1.55.77,3.12.87,4.74h.75l-.22-2.57-.74.1c.27.82.54,1.63.81,2.45.13.38.76.34.74-.1-.03-.61-.01-1.13.09-1.74l-.69.09c.39.89.78,1.78,1.17,2.66l.65-.38c-.72-1.58-1.46-3.17-2.66-4.46s-2.72-2.26-4.21-3.14c-3.11-1.86-6.5-3.24-9.96-4.29s-7.17-1.83-10.81-2.45-7.69-1.38-11.53-.91c-4.46.56-8.83,2.35-13.09,3.69-.18.06-.34.27-.26.46.65,1.67,1.29,3.35,1.94,5.02.08.21.33.37.55.22,3.55-2.42,8.35-2,12.43-1.69,4.63.35,9.22,1.17,13.77,2.09s8.71,1.7,13.03,2.68c2.18.5,4.36,1.1,6.41,2,1.58.7,3,1.64,4.76,1.82.35.03.46-.42.27-.64-1.56-1.72-3.48-2.96-5.69-3.68l.22.55c.35-.8.4-1.55.11-2.38-.1-.28-.41-.36-.63-.17-.42.37-.66.76-.79,1.3l.72.2c.12-.65.1-1.14-.12-1.77-.07-.2-.34-.38-.55-.22-.92.69-1.65,1.49-2.23,2.49l.69.09c-.19-.96-.44-1.9-.74-2.83-.07-.21-.34-.37-.55-.22-.85.59-1.41,1.31-1.78,2.28l.74.1c.09-1.14-.05-2.19-.42-3.27-.08-.23-.33-.35-.55-.22-1.07.6-1.88,1.41-2.49,2.48l.7.19c-.04-1.44-.08-2.88-.11-4.33,0-.32-.41-.5-.64-.27-1.12,1.15-2.23,2.31-3.35,3.46l.64.27c-.06-1.61-.02-3.2.11-4.8.03-.34-.42-.47-.64-.27-1.22,1.11-2.24,2.35-3.11,3.75l.69.29c.36-1.41.6-2.83.74-4.28.03-.31-.33-.44-.56-.32-1.26.61-2.29,1.44-3.14,2.54l.63.17c-.19-1.22-.37-2.44-.56-3.66-.06-.36-.52-.31-.69-.09-1.15,1.5-2.29,2.99-3.44,4.49l.7.19c-.17-1.71-.2-3.4-.08-5.11.02-.27-.34-.49-.56-.32-1.31.97-2.48,2.07-3.52,3.32l.63.17c-.26-1.23-.43-2.47-.51-3.73-.02-.34-.53-.56-.7-.19-.41.9-.82,1.8-1.24,2.71l.69.09c-.52-1.54-1.04-3.07-1.55-4.61-.1-.28-.53-.4-.69-.09-.8,1.63-1.49,3.31-2.06,5.04l.69-.09c-.92-1.58-1.52-3.25-1.83-5.04-.08-.45-.7-.29-.74.1-.16,1.69-.44,3.35-.83,5l.69-.09c-.94-1.84-1.56-3.77-1.88-5.8-.07-.41-.78-.32-.74.1.21,1.83.23,3.64.05,5.47l.7-.19c-.96-1.36-1.74-2.8-2.34-4.36-.17-.44-.89-.26-.72.2.69,1.85,1.04,3.73,1.05,5.7l.64-.27c-1.79-1.93-3.18-4.15-4.15-6.6-.17-.44-.89-.26-.72.2.75,2.13,1.31,4.3,1.67,6.53l.63-.36c-1.23-.98-2.25-2.1-3.1-3.43-.26-.41-.85-.05-.65.38.63,1.35.95,2.73.99,4.21l.64-.27c-1.33-1.36-2.5-2.83-3.5-4.44l-.59.45c1.44,1.79,2.88,3.59,4.32,5.38l.53-.53c-2.51-2.48-5.43-4.45-8.68-5.84-.39-.17-.74.25-.45.59l6.29,7.52c.31.37.84-.16.53-.53h0Z" style="fill:#fff; stroke-width:0px;"/><path d="M245.29,299.03c2.68-.96,5.5-1.43,8.35-1.3s5.53.8,8.38.67,5.76-.09,8.64.34c2.51.38,4.89,1.44,7.47,1.35.48-.02.48-.77,0-.75-2.67.09-5.19-1.07-7.82-1.4-2.95-.38-5.8-.37-8.76-.27s-5.56-.64-8.37-.71-5.49.42-8.08,1.35c-.45.16-.26.89.2.72h0Z" style="fill:#fff; stroke-width:0px;"/><path d="M258.54,299.81c-.85,1.02-1.29,2.36-1.12,3.69.02.2.15.38.38.38.18,0,.4-.17.38-.38-.14-1.12.17-2.29.9-3.16.13-.15.15-.38,0-.53-.13-.13-.4-.16-.53,0h0Z" style="fill:#fff; stroke-width:0px;"/><path d="M261.23,284.77c1.1,1.87,1.63,4.01,1.56,6.17-.02.48.73.48.75,0,.08-2.29-.5-4.57-1.66-6.55-.24-.42-.89-.04-.65.38h0Z" style="fill:#fff; stroke-width:0px;"/><path d="M266.73,225.31c-.8-.87-1.45-1.82-1.99-2.87l-.59.45c.67.74,1.31,1.5,1.92,2.28.22.27.63.03.64-.27.03-.67-.03-1.26-.18-1.91l-.69.29c.32.65.68,1.27,1.08,1.87.21.31.68.19.7-.19.04-.97.01-1.93-.08-2.9l-.7.19c.35.67.67,1.35.98,2.05.18.41.76.1.69-.29-.19-1-.48-1.94-.87-2.88l-.69.29c.57.94,1.15,1.78,2.12,2.34.24.14.58-.03.56-.32-.05-1.1-.39-2-1.07-2.87-.26-.33-.84.11-.59.45l1.54,2.13c.28.39.87.06.65-.38-.4-.78-.75-1.57-1.05-2.4l-.69.29c.52.72.94,1.46,1.29,2.27.19.43.74.09.69-.29l-.35-2.55-.72.2c.22.88.52,1.72.9,2.55.17.38.67.14.7-.19.1-.98.02-1.87-.22-2.81-.12-.47-.83-.27-.72.2.16.66.38,1.28.67,1.89.16.33.73.17.7-.19-.08-1.02-.2-2.03-.35-3.04l-.69.29.95,2.02c.13.28.64.23.69-.09.12-.83.36-1.56.76-2.3l-.7-.19c.16,1.3.31,2.6.47,3.9.05.4.6.53.74.1l1.03-3.36-.72-.2c-.15,1.01-.18,2-.06,3.02.04.32.53.58.7.19.45-1.06.79-2.13,1.01-3.25l-.74-.1c-.02.81.04,1.59.17,2.38.05.31.56.38.69.09.4-.9.69-1.81.86-2.79l-.74-.1c.01.62-.07,2.19.7,2.45.89.3,1.71-1.6,2.04-2.08l-.7-.19c-.09.95-.18,1.9-.28,2.84-.04.39.52.48.7.19.56-.89,1.06-1.79,1.5-2.75l-.7-.19c-.07.58-.14,1.16-.2,1.74-.04.33.43.48.64.27.62-.64,1.25-1.27,1.87-1.91l-.59-.45-.77,1.4c-.21.37.28.75.59.45.69-.66,1.43-1.19,2.26-1.64l-.55-.42c-.15.54-.33,1.05-.55,1.57-.12.27.08.66.42.55,1.1-.36,2.12-.85,3.1-1.47l-.45-.59-1.61,1.9c-.28.33.06.78.45.59.67-.33,1.14-.75,1.58-1.35l-.65-.38c-.33.47-1.56,2.02-.87,2.63.83.74,3.05-1.15,3.65-1.56l-.51-.51c-.35.8-.56,1.6-.64,2.47-.03.32.33.42.56.32,1.05-.45,1.58-1.38,2.07-2.37l-.69-.29c-.26.71-.39,1.39-.41,2.15,0,.28.32.47.56.32.75-.46,1.4-.97,2-1.61l-.63-.36c-.28.71-.56,1.43-.84,2.14-.12.31.29.58.55.42.84-.51,1.56-1.11,2.22-1.83l-.63-.36c-.26.61-.51,1.22-.77,1.84-.15.36.39.62.63.36.32-.34.49-.63.62-1.08.08-.27-.19-.55-.46-.46-1.36.44-2.72.88-4.08,1.32l.46.46.82-2.16c.12-.32-.29-.57-.55-.42l-4.07,2.2.51.51c.48-.84.79-1.69.96-2.65.04-.25-.17-.58-.46-.46-2.08.84-4.18,1.61-6.32,2.31l.42.55c.51-.87,1.05-1.71,1.64-2.54.22-.31-.21-.71-.51-.51-1.02.67-1.9,1.45-2.67,2.4-.25.31.07.84.45.59,1.3-.84,2.49-1.8,3.58-2.9.3-.3-.09-.81-.45-.59-1.54.93-2.92,2.04-4.15,3.35-.3.32.08.78.45.59.71-.35,2.21-2.1.9-2.64-.64-.26-1.74.17-2.38.31-1.19.26-2.35.59-3.51.98l.29.69c.61-.37,1.21-.74,1.82-1.11l-.45-.59c-.57.55-1.08,1.13-1.57,1.76-.25.32.05.81.45.59.73-.4,1.18-.97,1.4-1.77.08-.28-.19-.53-.46-.46-1.49.38-2.84,1-4.1,1.89-.35.25-.14.76.29.69,1.6-.28,3.06-.84,4.44-1.69.35-.22.13-.82-.29-.69-1.36.45-2.7.96-4.01,1.54l.38.65c1.24-.58,2.43-1.24,3.57-2,.33-.22.13-.84-.29-.69-1.64.62-3.19,1.4-4.65,2.37-.29.19-.21.56.09.69,1.67.7,3.86.1,5.59-.12,2.07-.27,4.13-.59,6.19-.95.48-.08.27-.79-.2-.72-2.34.35-4.67.71-7.01,1.06l.2.72c1.36-.23,2.73-.46,4.09-.7,1.18-.2,2.44-.29,3.49-.88.33-.18.18-.7-.19-.7-1.77-.01-3.54-.03-5.3-.04s-3.63.14-5.35-.25l-.1.74c2.91-.39,5.83-.41,8.74-.06l-.36-.47c-.06.4-2.62,1.13-2.99,1.27-.4.15-.33.7.1.74,1.97.18,3.93.24,5.9.18.48-.01.48-.76,0-.75-1.97.06-3.94,0-5.9-.18l.1.74c.92-.36,1.88-.67,2.77-1.08.4-.19.68-.26.74-.72.04-.26-.1-.44-.36-.47-2.92-.35-5.83-.33-8.74.06-.38.05-.55.63-.1.74,1.65.37,3.38.26,5.07.27,1.93.02,3.86.03,5.79.05l-.19-.7c-1.1.62-2.54.67-3.77.89s-2.42.41-3.64.62c-.48.08-.27.79.2.72,2.34-.35,4.67-.71,7.01-1.06l-.2-.72c-1.93.33-3.86.64-5.79.89-1.69.22-3.96.86-5.58.18l.09.69c1.41-.94,2.88-1.7,4.47-2.29l-.29-.69c-1.14.76-2.33,1.43-3.57,2-.44.2-.06.84.38.65,1.25-.55,2.53-1.04,3.83-1.47l-.29-.69c-1.33.81-2.73,1.34-4.26,1.62l.29.69c1.2-.85,2.49-1.44,3.92-1.81l-.46-.46c-.18.63-.48,1-1.06,1.32l.45.59c.48-.63,1-1.21,1.57-1.76.3-.3-.09-.81-.45-.59-.61.37-1.21.74-1.82,1.11-.35.21-.13.82.29.69,1.01-.34,2.03-.64,3.06-.88.42-.1.91-.25,1.34-.28.34-.15.66-.1.96.14-.18.5-.49.84-.95,1.01l.45.59c1.19-1.26,2.51-2.34,4-3.23l-.45-.59c-1.05,1.05-2.19,1.97-3.43,2.78l.45.59c.73-.89,1.55-1.64,2.52-2.28l-.51-.51c-.59.82-1.13,1.66-1.64,2.54-.16.27.11.65.42.55,2.13-.7,4.24-1.46,6.32-2.31l-.46-.46c-.15.89-.43,1.69-.88,2.47-.19.33.19.69.51.51l4.07-2.2-.55-.42-.82,2.16c-.1.27.2.54.46.46,1.36-.44,2.72-.88,4.08-1.32l-.46-.46-.43.75.63.36c.26-.61.51-1.22.77-1.84.15-.35-.39-.63-.63-.36-.62.67-1.29,1.24-2.07,1.71l.55.42c.28-.71.56-1.43.84-2.14.14-.36-.38-.62-.63-.36-.56.59-1.16,1.08-1.85,1.5l.56.32c.02-.69.14-1.31.38-1.95.15-.4-.5-.67-.69-.29-.43.87-.85,1.7-1.8,2.1l.56.32c.07-.75.24-1.4.54-2.09.13-.3-.17-.75-.51-.51-.69.47-1.4.87-2.12,1.29-.46.27-.85.82-.29-.29.19-.37.41-.71.65-1.05.28-.4-.37-.76-.65-.38-.36.5-.76.81-1.31,1.08l.45.59,1.61-1.9c.26-.31-.07-.83-.45-.59-.92.59-1.88,1.05-2.92,1.4l.42.55c.25-.57.45-1.15.63-1.75.09-.32-.27-.58-.55-.42-.89.48-1.68,1.06-2.42,1.76l.59.45.77-1.4c.2-.37-.28-.77-.59-.45-.62.64-1.25,1.27-1.87,1.91l.64.27c.07-.58.14-1.16.2-1.74.04-.37-.55-.52-.7-.19-.44.95-.93,1.86-1.5,2.75l.7.19c.09-.95.18-1.9.28-2.84.04-.4-.51-.47-.7-.19-.24.35-.63,1.25-.98,1.46-.15.38-.23.31-.25-.2-.08-.42-.12-.83-.11-1.26,0-.41-.66-.53-.74-.1-.16.91-.41,1.76-.79,2.61l.69.09c-.12-.74-.16-1.44-.15-2.18,0-.41-.65-.52-.74-.1-.21,1.06-.51,2.08-.93,3.07l.7.19c-.11-.95-.11-1.87.03-2.82.07-.47-.58-.67-.72-.2l-1.03,3.36.74.1c-.16-1.3-.31-2.6-.47-3.9-.04-.34-.5-.55-.7-.19-.44.79-.71,1.57-.84,2.48l.69-.09-.95-2.02c-.2-.42-.74-.09-.69.29.14.94.24,1.89.32,2.84l.7-.19c-.26-.56-.45-1.11-.59-1.71l-.72.2c.23.89.29,1.71.2,2.61l.7-.19c-.35-.77-.62-1.55-.83-2.37-.12-.48-.79-.26-.72.2l.35,2.55.69-.29c-.35-.81-.78-1.55-1.29-2.27-.23-.32-.84-.14-.69.29.32.89.69,1.74,1.12,2.58l.65-.38-1.54-2.13-.59.45c.55.72.81,1.45.85,2.34l.56-.32c-.85-.48-1.36-1.25-1.85-2.07-.21-.35-.85-.12-.69.29.39.94.68,1.88.87,2.88l.69-.29c-.31-.69-.63-1.37-.98-2.05-.16-.32-.73-.18-.7.19.09.97.11,1.93.08,2.9l.7-.19c-.41-.6-.76-1.22-1.08-1.87-.19-.39-.78-.11-.69.29.13.57.18,1.12.16,1.71l.64-.27c-.62-.78-1.26-1.54-1.92-2.28-.3-.33-.78.09-.59.45.57,1.11,1.26,2.11,2.11,3.03.33.36.86-.17.53-.53h0Z" style="fill:#fff; stroke-width:0px;"/><path d="M304.19,409.92c-3.8,13.59-10.99,26.33-11.86,40.64-.03.48.72.48.75,0,.87-14.22,8.06-26.93,11.84-40.44.13-.47-.59-.66-.72-.2h0Z" style="fill:#fff; stroke-width:0px;"/><path d="M303.41,409.44c1.02,7.63-1.77,15.23-3.58,22.54s-3.43,14.89-4.48,22.46c-.07.47.66.68.72.2,1.07-7.73,2.72-15.37,4.6-22.94s4.5-14.72,3.49-22.27c-.06-.47-.81-.48-.75,0h0Z" style="fill:#fff; stroke-width:0px;"/><path d="M308.28,415.47c-.1.34-.2.69-.3,1.03-.07.26-.15.51-.22.77-.26.89-.52,1.79-.78,2.68-.06.22-.13.44-.19.66-1,3.45-2,6.9-2.99,10.35-.08.24-.14.48-.21.72-.51,1.74-1.01,3.47-1.51,5.21-.07.23-.13.47-.2.7-.32,1.11-.64,2.22-.96,3.33-.07.26-.15.52-.22.78-1.2,4.16-2.4,8.31-3.59,12.47-.27.03-.54.06-.81.08,1.2-4.16,2.39-8.31,3.59-12.47.08-.26.15-.51.23-.77.32-1.12.64-2.24.96-3.36.07-.23.13-.45.2-.68.52-1.81,1.04-3.61,1.57-5.42.06-.24.13-.48.21-.72,1-3.49,2.01-6.98,3.03-10.47.06-.23.13-.45.19-.68.25-.86.5-1.71.75-2.57.07-.26.15-.51.22-.77.1-.36.21-.71.31-1.07.13-.46.86-.26.72.2Z" style="fill:#fff; stroke-width:0px;"/><path d="M308.79,417.21c-.02.09-.05.18-.07.27-.24.87-.47,1.74-.71,2.61-.06.24-.13.47-.19.71-.94,3.46-1.88,6.93-2.82,10.39-.06.24-.13.48-.19.72-.44,1.63-.88,3.25-1.33,4.88-.06.25-.13.5-.2.75-.29,1.07-.58,2.15-.88,3.22-.06.26-.13.51-.2.77-1.13,4.16-2.26,8.31-3.39,12.47-.26.03-.52.06-.79.09,1.12-4.16,2.25-8.31,3.38-12.47.06-.26.13-.51.21-.77.29-1.09.59-2.19.89-3.28.06-.24.12-.49.19-.73.46-1.69.92-3.39,1.38-5.08.06-.24.13-.47.19-.71.94-3.46,1.88-6.91,2.81-10.37.06-.22.12-.44.18-.66.25-.9.49-1.79.73-2.69.03-.11.06-.21.09-.32.13-.47.85-.27.72.2Z" style="fill:#fff; stroke-width:0px;"/><path d="M348.19,294.83c3.26-4.42,6.58-9.07,8.2-14.36.52-1.69,1.47-4.59,3.71-4.51,1.93.07,2.97,2.34,1.67,3.82s.85,3.58,2.12,2.12c2.07-2.37,1.9-6.06-.74-7.94s-5.78-.96-7.62,1.38c-1.01,1.28-1.56,2.78-2.03,4.33s-1.03,3.04-1.87,4.48c-1.84,3.16-3.86,6.21-6.04,9.16-.48.66-.1,1.67.54,2.05.76.45,1.57.11,2.05-.54h0Z" style="fill:#fff; stroke-width:0px;"/><path d="M257.43,241.19c-1.2,2.47-1.53,5.11-1.86,7.8s-.86,5.48-1.59,8.16c-.5,1.87,2.39,2.66,2.89.8.72-2.68,1.24-5.4,1.6-8.15.31-2.39.49-4.89,1.55-7.09.35-.73.2-1.62-.54-2.05-.66-.38-1.7-.19-2.05.54h0Z" style="fill:#fff; stroke-width:0px;"/><path d="M219.75,264.83c-.45,12.04,1.17,24.11,4.79,35.6.58,1.84,3.47,1.05,2.89-.8-3.54-11.26-5.12-23.01-4.68-34.8.07-1.93-2.93-1.93-3,0h0Z" style="fill:#fff; stroke-width:0px;"/><path d="M335.86,445.89c-.72.25-1.41.49-2.13.72h-.04c-4.87.06-9.93.98-14.45-1.08-1.48-.67-2.72-1.71-4.1-2.53-1.28-.75-2.67-1.24-4.12-1.51-2.91-.56-5.9-.29-8.82.04-.15.02-.31.03-.46.05-.11.01-.23.03-.34.04-.23.02-.47.05-.7.08-.27.02-.54.05-.81.08-.52.06-1.04.1-1.56.14-.26.03-.52.05-.78.06-1.08.07-2.14.1-3.22.04h-.01c-.25,0-.49-.02-.74-.05h-.01c-.37-.02-.75-.07-1.12-.12-3.04-.44-5.94-1.5-8.78-2.65-11.13-4.55-22.25-10.39-34.56-10.46-.48,0-.48-.75,0-.75,6.6.04,12.99,1.73,19.14,4.02,5.72,2.12,11.23,4.76,16.91,6.98,2.76,1.08,5.61,2,8.58,2.24.23.03.45.05.68.06h.07c1.07.05,2.14.02,3.21-.05.26-.02.52-.04.79-.06.54-.05,1.09-.1,1.63-.17.27-.02.53-.05.8-.09.23-.02.46-.05.69-.07.26-.03.53-.06.79-.09.6-.07,1.19-.14,1.79-.19,2.75-.24,5.59-.28,8.28.49,2.92.82,5.01,3.05,7.81,4.1,4.95,1.84,10.41.45,15.58.73Z" style="fill:#fff; stroke-width:0px;"/><path d="M248.48,424.06c11.75,3.65,23.49,7.3,35.24,10.96,2.87.89,5.74,1.92,8.67,2.63s5.62.25,8.57.01,5.89-.19,8.84-.06c1.43.06,2.87.1,4.29.24.88.08,1.72.2,2.38.85.43.42.7.98,1.12,1.42.78.8,1.83,1.21,2.89,1.49,1.68.45,3.41.77,5.11,1.12,3.39.69,6.79,1.31,10.2,1.94.47.09.67-.64.2-.72-3.08-.56-6.16-1.12-9.23-1.74-1.45-.29-2.91-.6-4.35-.92s-2.94-.53-4.04-1.48c-.75-.65-1.13-1.62-2.01-2.14-.93-.55-2.08-.56-3.13-.62-3.03-.18-6.06-.34-9.09-.28s-5.92.77-8.84.61c-3.15-.17-6.27-1.48-9.26-2.41-5.83-1.81-11.67-3.63-17.5-5.44l-19.86-6.18c-.46-.14-.66.58-.2.72h0Z" style="fill:#fff; stroke-width:0px;"/><path d="M245.89,422.6c11.61.38,23.43.78,34.59,4.3,2.69.85,5.23,2.03,7.89,2.95s5.44.97,8.27,1.08c5.7.22,11.36,1.4,16.67,3.48,5.8,2.27,10.9,6.31,17.01,7.79.47.11.67-.61.2-.72-5.57-1.35-10.25-4.93-15.47-7.16-5-2.13-10.32-3.47-15.73-3.96-2.98-.27-6.07-.02-9.01-.71s-5.56-2.09-8.35-3.04c-5.33-1.81-10.89-2.87-16.48-3.53-6.51-.77-13.06-1-19.61-1.22-.48-.02-.48.73,0,.75h0Z" style="fill:#fff; stroke-width:0px;"/><path d="M239.34,147.8c1.52-3.71,3.18-7.36,6.33-9.98s6.95-3.54,10.8-4.12c8.52-1.28,17.29-1.33,25.86-.42,4.93.52,9.8,1.42,14.61,2.63,1.87.47,2.67-2.42.8-2.89-9.07-2.29-18.43-3.43-27.78-3.33-4.7.05-9.41.41-14.06,1.09-4.2.61-8.31,1.77-11.71,4.41-3.91,3.04-5.9,7.35-7.74,11.82-.73,1.78,2.17,2.56,2.89.8h0Z" style="fill:#fff; stroke-width:0px;"/><path d="M269.17,137.86c16.05-3.43,33.26-1.51,48.01,5.77,4.5,2.22,8.75,4.89,12.99,7.55,1.64,1.03,3.15-1.57,1.51-2.59-7.55-4.74-15.17-9.17-23.72-11.85s-16.74-3.73-25.27-3.5c-4.81.13-9.61.73-14.32,1.73-1.89.4-1.09,3.3.8,2.89h0Z" style="fill:#fff; stroke-width:0px;"/><path d="M324.5,152.03c4.2-.39,8.12,1.18,11.69,3.27s6.72,4.49,9.37,7.54c5.19,5.98,7.1,14.05,8.04,21.72.62,5.07.93,10.17.99,15.27.02,1.93,3.02,1.93,3,0-.09-8.99-.63-18.46-3.38-27.09-1.29-4.06-3.17-7.89-5.85-11.22s-5.99-5.93-9.54-8.14c-4.27-2.67-9.17-4.83-14.31-4.35-1.91.18-1.92,3.18,0,3h0Z" style="fill:#fff; stroke-width:0px;"/><path d="M294.1,171.45c5.39-6.97,14.43-8.57,22.7-9.3,4.6-.41,9.32-.67,13.9.15,4.09.73,8.46,2.25,11.45,5.26,1.66,1.67,2.36,3.92,3.53,5.92s2.7,3.74,4.49,5.18c1.49,1.2,3.63-.91,2.12-2.12-1.72-1.38-3.15-3-4.22-4.93s-1.86-4.02-3.37-5.72c-2.94-3.3-7.48-5.22-11.7-6.18-4.83-1.1-9.83-1.06-14.74-.68s-9.85.89-14.51,2.45-8.81,4.03-11.76,7.85c-.5.65-.62,1.49,0,2.12.51.52,1.63.64,2.12,0h0Z" style="fill:#fff; stroke-width:0px;"/><path d="M294.93,168.67c.07-3.14,2.55-5.94,4.64-8.06s4.63-3.95,7.35-5.33,5.53-2.25,8.46-2.68c3.55-.52,7.14-.07,10.7-.46,1.9-.21,1.92-3.21,0-3-3.89.43-7.8-.02-11.69.6-3.38.53-6.67,1.69-9.68,3.31s-5.66,3.68-7.94,6.14c-2.42,2.62-4.77,5.78-4.85,9.48-.04,1.93,2.96,1.93,3,0h0Z" style="fill:#fff; stroke-width:0px;"/><path d="M286.25,167.38c1.19-1.56,1.71-3.44,2.43-5.23s1.69-3.55,2.82-5.14c2.13-2.99,5.03-5.38,8.21-7.18,3.4-1.93,7.28-3.42,11.23-3.55,4.26-.14,8.46,1.04,12.73.61,1.9-.19,1.92-3.19,0-3-4.58.46-9.09-.93-13.66-.56-4.16.34-8.2,1.86-11.81,3.91-3.37,1.92-6.4,4.44-8.75,7.54-1.27,1.67-2.32,3.48-3.16,5.4s-1.33,4.01-2.62,5.7c-1.17,1.53,1.43,3.03,2.59,1.51h0Z" style="fill:#fff; stroke-width:0px;"/><path d="M273.49,167.18c1.13-4.25,2.66-8.56,5.07-12.28,2.28-3.52,5.66-5.61,9.36-7.41,1.92-.93,3.89-1.75,5.97-2.25s4.32-.56,6.52-.57c4.63-.03,9.05-.73,13.57-1.69,1.89-.4,1.09-3.29-.8-2.89-2.51.53-5.03,1.09-7.59,1.36-2.35.25-4.71.18-7.07.24-4.65.13-8.81,1.53-12.93,3.61-3.87,1.96-7.23,4.4-9.62,8.08-2.53,3.91-4.17,8.52-5.37,12.99-.5,1.87,2.39,2.66,2.89.8h0Z" style="fill:#fff; stroke-width:0px;"/><path d="M259.9,167.71c3.18-6.82,4.55-14.79,9.43-20.71s13.2-7.37,20.54-7.98c4.7-.39,9.41-.26,14.09.34,1.91.25,1.89-2.76,0-3-8.46-1.09-17.42-.73-25.65,1.64-3.7,1.07-7.18,2.78-9.9,5.54-2.58,2.62-4.43,5.87-5.88,9.23-1.9,4.41-3.19,9.06-5.22,13.42-.81,1.74,1.77,3.26,2.59,1.51h0Z" style="fill:#fff; stroke-width:0px;"/><path d="M250.98,169.32c2.27-7.5,4.7-15.03,10.37-20.71,2.72-2.73,5.81-5.31,9.07-7.37,1.59-1.01,3.28-1.86,5.11-2.32,2.04-.51,4.16-.35,6.22-.75,1.89-.37,1.09-3.26-.8-2.89-2.2.43-4.44.24-6.62.86-1.85.53-3.62,1.39-5.25,2.41-3.54,2.2-6.91,5.01-9.85,7.96-6.03,6.05-8.71,14.04-11.14,22.03-.56,1.85,2.33,2.64,2.89.8h0Z" style="fill:#fff; stroke-width:0px;"/><path d="M240.06,174.22c1.55-4.17,1.12-8.85,2.03-13.18s2.29-8.08,4.28-11.77,4.4-7.23,7.49-9.97c3.66-3.25,8.7-3.17,13.32-3.36,1.92-.08,1.93-3.08,0-3-3.82.16-7.9.16-11.48,1.68-3.34,1.41-5.79,4.22-7.95,7.04-4.31,5.62-7.33,12.26-8.68,19.21-.8,4.13-.43,8.6-1.9,12.56-.67,1.81,2.22,2.59,2.89.8h0Z" style="fill:#fff; stroke-width:0px;"/><path d="M249.03,168.68c-.28-2.08-.42-4.17-.38-6.26.01-.97.06-1.94.15-2.91.04-.52.1-1.04.16-1.56-.11.87.09-.55.1-.58.33-1.99.81-3.96,1.43-5.88.3-.93.63-1.84.99-2.74-.27.69.24-.54.31-.68.2-.43.41-.86.64-1.27.2-.36.4-.71.62-1.05.15-.23.3-.45.46-.67-.29.38-.27.37.06-.03.29-.28.57-.57.87-.85.71-.66-.39.16.39-.28.84-.47,1.64-.97,2.5-1.39.41-.2.82-.39,1.24-.58.28-.13.56-.25.83-.37-.37.16-.31.14.19-.07,1.86-.69,3.72-1.33,5.64-1.82,1.03-.26,2.07-.49,3.12-.68.45-.08.9-.15,1.35-.23.55-.08.6-.09.16-.03.3-.04.6-.07.91-.1,2.33-.25,4.62-1.89,4.5-4.5-.1-2.22-1.99-4.77-4.5-4.5-4.81.52-9.49,1.54-13.99,3.35s-9,4.09-11.72,8.54c-2.36,3.87-3.81,8.55-4.61,12.99-.84,4.69-1.05,9.43-.42,14.15.31,2.32,1.85,4.62,4.5,4.5,2.17-.1,4.83-2,4.5-4.5h0Z" style="fill:#fff; stroke-width:0px;"/><path d="M262.96,167.13c.9-4.09,1.39-8.27,2.5-12.31.23-.84.49-1.67.77-2.49.1-.27.2-.54.3-.81.18-.45.21-.54.1-.26-.11.27-.07.19.12-.25.12-.26.25-.52.38-.78.39-.77.83-1.51,1.32-2.23.16-.23.32-.45.48-.67-.3.39-.28.38.04-.02.27-.29.53-.59.8-.88s.56-.56.86-.82c.11-.1,1.14-.93.77-.66s.72-.48.84-.55c.34-.21.68-.41,1.02-.6,1.5-.82,2.61-1.16,4.7-1.62.52-.11,1.05-.21,1.58-.3.16-.03,1.64-.25.85-.14.94-.12,1.88-.22,2.82-.32,2.32-.23,4.64-.42,6.95-.61s4.61-1.93,4.5-4.5c-.1-2.28-1.99-4.7-4.5-4.5-9.33.75-19.38,1.01-26.47,7.98s-7.48,16.15-9.42,24.95c-.5,2.29.69,4.98,3.14,5.54,2.28.52,4.99-.68,5.54-3.14h0Z" style="fill:#fff; stroke-width:0px;"/><path d="M277.3,167.29c.15-.78.33-1.55.55-2.3.11-.38.23-.75.37-1.13.07-.19.13-.37.2-.56.03-.08.36-.84.15-.38-.18.39.27-.56.36-.72.18-.35.36-.7.56-1.05.42-.75.89-1.46,1.39-2.16s-.28.3.26-.34c.26-.3.51-.6.78-.89.58-.63,1.19-1.23,1.84-1.79.14-.12.91-.74.63-.53-.38.28.2-.13.23-.15.18-.12.36-.25.54-.37.78-.52,1.59-1,2.42-1.44.77-.41,1.55-.78,2.34-1.13-.63.28.34-.13.53-.21.47-.18.95-.36,1.43-.53,1.88-.66,3.79-1.23,5.73-1.71s3.76-.86,5.66-1.18c.91-.16,1.83-.3,2.75-.43-.67.1.46-.06.65-.08.54-.07,1.08-.13,1.62-.19,4.4-.47,8.81-.7,13.23-.86,2.35-.09,4.61-2.01,4.5-4.5s-1.98-4.59-4.5-4.5c-8.58.31-17.24.9-25.62,2.9-7.88,1.88-16.12,5.04-21.36,11.52-2.9,3.59-5.02,7.74-5.9,12.29-.44,2.3.65,4.97,3.14,5.54,2.22.51,5.06-.67,5.54-3.14h0Z" style="fill:#fff; stroke-width:0px;"/><path d="M303.11,172.53c.32-.05.64-.09.96-.14-.4.06-.32.05.24-.03.64-.07,1.28-.15,1.92-.21,1.12-.11,2.25-.2,3.38-.26,2.25-.13,4.51-.17,6.77-.13,2.42.04,4.84.18,7.25.4,1.13.11,2.25.23,3.37.37-.72-.09.59.08.72.1.64.09,1.28.19,1.91.3,1.98.33,3.97.68,5.9,1.22.51.14,1.02.3,1.52.48.25.09.5.18.74.28-.41-.17-.46-.19-.17-.05.39.24.82.41,1.21.65.22.14.44.28.66.43-.38-.31-.37-.31.02.02.32.3.63.59.93.9.11.12,1.12,1.39.67.77.62.84,1.2,1.71,1.77,2.58,1.29,1.94,2.52,3.91,3.71,5.91s4.1,2.94,6.16,1.61,2.91-3.99,1.61-6.16-2.59-4.23-3.97-6.29-2.86-4.31-4.82-5.95c-3.73-3.11-8.39-4.22-13.08-5.02-10.57-1.8-21.17-2.05-31.79-.49-2.34.34-3.83,3.42-3.14,5.54.83,2.55,3.03,3.51,5.54,3.14h0Z" style="fill:#fff; stroke-width:0px;"/><path d="M365.96,189.75c-.66-6.71-4.73-12.89-10.8-15.93-.72-.36-1.62-.19-2.05.54-.39.67-.19,1.69.54,2.05,5.07,2.54,8.76,7.66,9.32,13.34.08.81.63,1.5,1.5,1.5.75,0,1.58-.69,1.5-1.5h0Z" style="fill:#fff; stroke-width:0px;"/><path d="M244.15,141.4c3.99-1.78,7.83-3.89,11.49-6.29.68-.45.96-1.33.54-2.05-.39-.67-1.37-.99-2.05-.54-3.65,2.41-7.49,4.51-11.49,6.29-.74.33-.92,1.41-.54,2.05.45.76,1.31.87,2.05.54h0Z" style="fill:#fff; stroke-width:0px;"/><path d="M245.59,451.61c-.97-.19-1.95-.39-2.92-.6.47-3.43.24-6.92,0-10.37-.24-3.44-.57-6.77-2.16-9.89-2.77-5.46-7.63-9.38-11.86-13.66-4.18-4.22-7.13-9.47-11.58-13.43-4-3.56-8.74-6.64-11.29-11.51-1.48-2.84-1.69-5.67-.95-8.75.46-1.9.93-3.78,1.34-5.67-5.71,4.3-12.64,7.22-19.83,4.96-.96-.3-1.21-1.24-.95-1.99,0,0-.01,0,0-.01.23-.67.87-1.18,1.74-.9.64.2,1.27.36,1.9.47,6.88,1.19,13.33-2.87,18.3-7.39.2-.18.42-.3.63-.37,1.03-.32,2.05.64,1.88,1.83-.04.25-.08.51-.12.76-.26,1.68-.58,3.35-.96,5-.41,1.8-1.03,3.58-1.31,5.41-.3,1.94.18,3.75,1.06,5.4.42.8.95,1.56,1.52,2.27.03.04.07.09.1.13.22.27.45.53.68.79,1.53,1.7,3.26,3.19,5.02,4.66,2.47,2.05,4.98,4.06,7.03,6.57,1.93,2.37,3.59,4.93,5.62,7.22,2.02,2.28,4.26,4.35,6.44,6.48,4.17,4.07,8.31,8.66,9.83,14.45.81,3.1.9,6.39,1.08,9.57.15,2.87.15,5.73-.24,8.57Z" style="fill:#fff; stroke-width:0px;"/><path d="M187.88,381.42c5.86-5.88,11.54-12.08,17.87-17.46,3.04-2.58,6.19-5,9.07-7.77s5.68-5.83,8.45-8.81c3.34-3.59,6.68-7.17,10.02-10.76,1.31-1.41-.8-3.54-2.12-2.12-5.74,6.16-11.34,12.5-17.31,18.43-2.83,2.81-5.9,5.31-8.97,7.84s-6.08,5.42-8.96,8.31c-3.4,3.4-6.78,6.81-10.17,10.21-1.36,1.37.76,3.49,2.12,2.12h0Z" style="fill:#fff; stroke-width:0px;"/><path d="M209.49,375.39c2.52-3.15,4.55-6.6,6.58-10.08s4.01-6.54,6.22-9.69c4.34-6.19,8.84-12.29,11.54-19.42.68-1.81-2.22-2.59-2.89-.8-2.59,6.85-7.06,12.76-11.24,18.71-2.12,3.03-4.13,6.11-5.99,9.3-1.97,3.37-3.9,6.8-6.34,9.86-1.19,1.49.92,3.63,2.12,2.12h0Z" style="fill:#fff; stroke-width:0px;"/><path d="M244.73,417.28c1.52-6.63,10.24-6.03,15.35-5.79,3.15.15,6.95.4,9.67-1.48s4.06-5.24,5.79-7.81c1.96-2.91,4.05-5.76,6.38-8.38,1.82-2.06,4.53-4.71,7.55-3.79s4.92,4.17,6.69,6.39c2.03,2.54,4,5.14,6.07,7.64s4.12,4.79,6.46,6.9c1.11,1,2.27,1.94,3.47,2.83s2.51,1.92,4.09,1.82,2.67-1.29,3.51-2.48c1.02-1.45,1.89-3.03,2.73-4.59,1.64-3.04,3.05-6.19,4.36-9.38,5.56-13.56,10.04-27.72,13.32-42,.87-3.8,2.01-7.79,2.23-11.69.1-1.72-.24-3.44-1.28-4.84s-2.56-2.27-3.93-3.29c-5.64-4.19-10.06-10.05-12.6-16.59-.69-1.78-3.59-1.01-2.89.8,2.26,5.81,5.74,11.1,10.32,15.36,1.06.99,2.19,1.92,3.35,2.79,1.22.92,2.86,1.72,3.61,3.11.7,1.29.46,2.9.22,4.28-.32,1.86-.71,3.71-1.1,5.55-3.02,14.29-7.44,28.3-12.64,41.94-1.25,3.26-2.58,6.5-4.11,9.64-.73,1.49-1.5,2.96-2.32,4.39-.45.78-.91,1.56-1.4,2.32-.31.49-.8,1.5-1.43,1.66s-1.38-.59-1.85-.91c-.62-.44-1.23-.89-1.82-1.37-1.27-1.03-2.48-2.14-3.63-3.31-2.28-2.3-4.35-4.79-6.36-7.32s-3.91-5.02-5.94-7.48c-1.87-2.27-4.02-4.7-7.07-5.24-6.47-1.15-11.22,6.28-14.45,10.71-1.18,1.61-2.31,3.26-3.38,4.94-.92,1.44-1.71,3.1-2.92,4.32-1.31,1.32-3.12,1.54-4.9,1.61-2.06.08-4.11-.08-6.16-.17-3.54-.15-7.06,0-10.3,1.58-2.68,1.31-4.9,3.57-5.57,6.54-.43,1.88,2.46,2.68,2.89.8h0Z" style="fill:#fff; stroke-width:0px;"/><path d="M195.65,383.89c-.7,3.47-2.3,6.75-3.71,9.98-1.54,3.52-3.14,7.02-4.75,10.51-.94,2.05-1.89,4.09-2.83,6.14-.79,1.72-1.59,3.45-2.38,5.17h-.01c-1.08,2.36-2.16,4.7-3.24,7.05-.19-.14-.38-.27-.57-.41,0,0-.03-.02-.04-.03,1.08-2.35,2.16-4.7,3.24-7.04,1.66-3.61,3.32-7.21,4.98-10.81,1.6-3.5,3.21-6.99,4.75-10.51,1.46-3.31,3.12-6.68,3.84-10.25.09-.47.82-.27.72.2Z" style="fill:#fff; stroke-width:0px;"/><path d="M197.7,386.95c-2.97,7.93-7.06,15.19-11.63,22.29-1.37,2.14-2.76,4.28-4.09,6.45h-.01c-.8,1.31-1.58,2.62-2.32,3.95-.49.88-1,1.78-1.49,2.69,0,0-.03-.02-.04-.03-.18-.13-.37-.26-.55-.4.33-.63.67-1.25,1-1.86.89-1.62,1.83-3.21,2.79-4.78.98-1.59,1.99-3.17,3-4.74.19-.31.39-.61.58-.91,4.7-7.3,8.98-14.7,12.03-22.86.17-.45.9-.25.73.2Z" style="fill:#fff; stroke-width:0px;"/><path d="M186.98,386.01c-5.64,10.05-11.28,20.09-16.93,30.14-.19-.16-.39-.32-.59-.48,5.62-10.01,11.25-20.03,16.87-30.04.24-.42.88-.04.65.38Z" style="fill:#fff; stroke-width:0px;"/><path d="M339.34,356.47c.65,5.98.4,12.04-.82,17.93s-3.43,10.98-4.22,16.71-.95,11.81-1.23,17.69-.46,11.97-.32,17.95.14,12.36,2.99,17.7c.23.43.88.05.65-.38-2.68-5.01-2.71-11.04-2.87-16.58-.17-5.9-.02-11.81.25-17.71s.46-11.64,1.12-17.41c.68-5.88,2.94-11.32,4.2-17.07,1.36-6.18,1.68-12.55,1-18.83-.05-.47-.8-.48-.75,0h0Z" style="fill:#fff; stroke-width:0px;"/><path d="M347.25,363.39c0,.33-.01.65-.02.98-.03,1.43-.15,2.87-.33,4.29,0,.07-.01.13-.02.19-.06.47-.12.94-.2,1.41-.04.35-.1.7-.15,1.05-.07.39-.14.79-.21,1.18-.02.13-.05.27-.08.4-.23,1.27-.5,2.53-.79,3.79-.03.1-.05.2-.07.3-.06.26-.12.52-.19.77-.11.49-.23.99-.36,1.48,0,.02-.01.04-.01.06-.01.01-.01.02-.01.03s0,.02-.01.04c-.1.41-.2.82-.31,1.23-.28,1.18-.58,2.35-.86,3.53-.16.66-.32,1.32-.47,1.99-.33,1.52-.64,3.05-.88,4.59-.02.14-.04.29-.07.44,0,.02,0,.05-.01.08v.05s-.01.07-.02.11c-.01.07-.02.16-.03.26-.04.32-.07.65-.11.97-.08.82-.14,1.63-.19,2.44,0,.11,0,.21,0,.32-.02.16-.02.32-.02.48-.02.16-.03.32-.03.49v.04c-.05,1.11-.07,2.22-.07,3.33v.23c0,.07,0,.14.01.21-.01.14-.01.28,0,.42-.01.06,0,.11,0,.17v.18c.02,1.45.07,2.89.16,4.34.05,1.09.12,2.19.2,3.28,0,.12,0,.24.03.36.01.2.02.4.04.6v.02c.02.28.04.57.07.85.02.3.04.61.07.91.05.79.12,1.58.18,2.37.03.36.05.72.09,1.07,0,.14.01.28.03.41.02.37.05.73.09,1.1.08,1.14.18,2.28.27,3.42.06.69.11,1.38.17,2.08.04.42.07.85.11,1.27.06.69.11,1.38.17,2.06.01.04.01.08.01.11.11,1.26.22,2.52.32,3.77.13,1.42.25,2.84.37,4.25.04.43.07.85.11,1.27.04.49.09.98.13,1.47.02.2.03.41.05.61.03.36.06.72.09,1.08.15,1.65.29,3.29.43,4.94-1.2.48-2.4.94-3.61,1.39-.18.08-.36.14-.55.21-1.51.56-3.03,1.1-4.56,1.62-.03-.38-.06-.77-.1-1.15v-.04c-.02-.21-.03-.42-.05-.63-.02-.22-.04-.45-.06-.67-.45-5.4-.9-10.8-1.36-16.2-.32-3.85-.73-7.73-1.08-11.61v-.02c-.19-2.11-.37-4.21-.51-6.32-.49-7.43-.53-14.87.8-22.2,1.1-6.12,2.96-12.07,4.03-18.2.03-.18.05-.28.06-.32h0c.01-.07.02-.17.03-.29.04-.3.07-.6.1-.91.08-.7.12-1.42.15-2.14,0-.05,0-.09,0-.14.07-1.56.02-3.12-.09-4.68-.14-1.95-.35-3.9-.43-5.85-.05-1.21-.05-2.42.03-3.63.09-1.26.57-2.36,1.35-3.16.78-.79,1.86-1.28,3.15-1.34h.1c.38-.01.75.04,1.11.16,1.81.51,3.35,2.3,3.3,4.19,0,.03,0,.06-.01.09v.06c-.05.8-.07,1.6-.05,2.4,0,.73.03,1.47.08,2.2.07,1.18.17,2.35.27,3.53.03.45.07.91.1,1.36.03.47.06.95.08,1.42.02.31.03.61.03.91.01.27.01.53.01.79Z" style="fill:#fff; stroke-width:0px;"/><path d="M390.55,415.67c-1.7,1.38-3.42,2.73-5.17,4.04-1.28.98-2.58,1.94-3.89,2.87-.19-.5-.27-1.03-.21-1.56,0-.06,0-.13.02-.19.07-.71.13-1.41.17-2.12.05-.9.08-1.8.08-2.7v-.43c0-.1,0-.2-.01-.3,0-.85-.04-1.7-.09-2.55h0c-.02-.32-.04-.62-.07-.94-.01-.24-.03-.48-.05-.72-.04-.44-.09-.88-.14-1.31-.04-.37-.08-.74-.12-1.11-.01-.04-.01-.08-.01-.12.01-.01,0-.01,0-.02,0,0,0-.01-.01-.05-.01-.03-.01-.08-.02-.15-.01-.03-.01-.06-.02-.1-.01-.04-.01-.08-.02-.13-.06-.37-.11-.74-.17-1.1-.05-.33-.1-.64-.16-.97h0c-.07-.44-.14-.87-.22-1.3-.15-.86-.31-1.72-.48-2.58-.19-.98-.39-1.96-.6-2.94-.13-.65-.26-1.29-.4-1.93-.14-.68-.28-1.36-.42-2.04-.02-.08-.04-.16-.05-.24-.12-.56-.23-1.12-.35-1.68-.09-.46-.18-.91-.27-1.37-.19-.98-.38-1.97-.55-2.95-.08-.43-.15-.85-.22-1.28-.08-.5-.16-1-.23-1.51-.01-.01,0-.01,0-.01-.08-.49-.15-.97-.22-1.46-.01-.06-.02-.13-.03-.19-.03-.25-.06-.5-.1-.74-.01-.13-.03-.26-.05-.39h0c-.18-1.45-.33-2.89-.43-4.34-.05-.7-.09-1.41-.11-2.11-.02-.54-.03-1.09-.03-1.63v-.19c0-.88.05-1.75.1-2.63.03-.58.06-1.16.08-1.75.01-.39,0-.78-.01-1.17,0-.06,0-.12-.01-.18,0-.18-.01-.36-.01-.54-.03-.82-.02,1.08-.07-.24-.01-.05-.07-.25-.09-.36,0-.01-.01-.03-.01-.04-.09-.16-.18-.31-.29-.46-.03,0-.3-.3-.46-.48-.05-.05-.09-.1-.11-.11-.16-.15-.87-.73-.87-.75-.6-.45-1.21-.87-1.84-1.26-.59-.38-1.2-.74-1.81-1.09-.33-.19-.67-.38-1-.54-1.27-.72-2.57-1.37-3.87-2.01-.36-.19-.73-.37-1.09-.55-.69-.33-1.37-.67-2.06-1.01-1.14-.56-2.29-1.11-3.44-1.66-.36-.17-.73-.35-1.1-.52-1.23-.58-2.47-1.15-3.71-1.7-.36-.16-.72-.32-1.09-.47-.01,0-.01-.01-.02-.01,0,0-.01,0-.03-.01-.01-.01-.03-.01-.04-.02-.02,0-.04-.01-.07-.02-.01-.01-.02-.02-.03-.02-.16-.06-.37-.15-.43-.18-.17-.07-.34-.14-.51-.2-.39-.17-.76-.32-1.15-.47h-.01c-.09-.04-.19-.07-.28-.11-1.28-.5-2.58-.96-3.89-1.39-.17-.06-.34-.11-.51-.17-.52-.17-.99-.4-1.39-.7-.15-.11-.3-.22-.43-.35-1.19-1.09-1.72-2.74-1.32-4.48.08-.37.22-.71.41-1.04.98-1.7,3.24-2.71,5.12-2.1,7.19,2.33,14,5.65,20.77,8.99,2.74,1.36,5.5,2.72,8.06,4.41,3.07,2.03,6.03,4.44,7.15,8.09.95,3.09.36,6.33.36,9.49,0,1.55.07,3.11.2,4.66.06.74.14,1.47.22,2.21,0,.03.05.37.08.62,0,.02,0,.05,0,.07v.03s.01.06.01.1c.01.02.01.04.01.07.03.19.05.38.08.57.6,4.03,1.46,8.05,2.3,12.08.04.21.08.41.12.62,1.34,6.4,2.59,12.82,2.62,19.32Z" style="fill:#fff; stroke-width:0px;"/><path d="M350.14,440.37c-1.72.76-3.46,1.49-5.22,2.19-1.2.48-2.4.94-3.61,1.39-.06-.13-.11-.27-.16-.41-.28-.53-.41-1.11-.39-1.73-.02-.6.1-1.16.36-1.67.01-.37.06-.73.16-1.1.03-.07.06-.14.09-.21.12-.29.24-.58.36-.87.27-.44.59-.83.98-1.15.19-.17.4-.33.63-.46.34-.14.67-.28,1.01-.42.02-.01.05-.02.07-.03.37-.12.75-.17,1.12-.17.23.01.44.04.67.09.6.02,1.16.2,1.68.53.13.07.26.15.38.24.35.25.64.56.88.92.4.43.67.94.8,1.53.01.04.02.08.03.12.07.4.11.81.16,1.21Z" style="fill:#fff; stroke-width:0px;"/><path d="M385.38,419.71c-1.28.98-2.58,1.94-3.89,2.87-9.75,6.96-20.25,12.93-31.35,17.79-1.72.76-3.46,1.49-5.22,2.19-1.2.48-2.4.94-3.61,1.39-.18.08-.36.14-.55.21-.92-1.65-.82-4.1.61-5.33.03-.04.07-.07.11-.1.64-.5,1.28-.99,1.94-1.48.32-.24.65-.48.98-.71.38-.28.76-.55,1.14-.81.56-.39,1.13-.78,1.7-1.16.71-.47,1.42-.93,2.14-1.38.17-.1.33-.2.5-.31.01,0,.01-.01.02-.01,1.19-.73,2.4-1.44,3.62-2.12.03-.02.06-.04.1-.05,2.02-1.14,4.09-2.2,6.21-3.21.18-.09.36-.18.54-.26.01-.01.03-.01.04-.02.33-.15.65-.31.98-.46.77-.36,1.54-.72,2.31-1.09.61-.28,1.21-.57,1.81-.87.97-.45,1.93-.93,2.88-1.42.33-.16.66-.34.99-.52.16-.08.33-.16.49-.25.14-.08.29-.15.43-.23,1.39-.75,2.76-1.55,4.09-2.41.02,0,.03-.02.05-.04.39-.25.78-.51,1.16-.78.22-.14.44-.3.65-.46,0,0,.01,0,.03-.02.02,0,.03-.01.04-.03.02-.03.04-.05.07-.07.01-.01.02-.02.04-.03.09-.08.21-.18.31-.26h.01c.61-1.25,1.59-2.15,2.8-2.53.07-.02.14-.04.22-.06.55-.15,1.15-.18,1.78-.1.16.02.33.05.5.09.41.09.81.27,1.17.5.05.03.09.06.13.09.55.37,1.02.89,1.38,1.48.36.6.6,1.29.65,1.97Z" style="fill:#fff; stroke-width:0px;"/><path d="M343.12,353.92c-.5,1.33-.99,2.65-1.49,3.98-.79,2.1.71,4.51,2.61,5.31s4.65.19,5.62-1.84c.74-1.56,1.62-3.03,2.62-4.44l-8.39-2.27c0,2.19,0,4.37.01,6.56,0,2.56,0,5.18,2.04,7.07,2.21,2.04,5.43,1.57,7.07-.91s3.43-5.19,5.14-7.78l-8.39-2.27c.17,2.39.32,4.78.5,7.17.21,2.94.91,5.15,3.4,6.96,2.12,1.54,4.83.17,6.16-1.61,1.65-2.22,3.3-4.45,4.95-6.67l-8.39-2.27c.29,3.79.79,7.57,1.48,11.31.6,3.24,5.4,4.44,7.52,1.99s3.92-4.99,5.74-7.59l-8.22-1.07c.79,2.84,1.43,5.71,1.93,8.61.29,1.73,2.15,3.01,3.74,3.22,1.74.23,3.59-.57,4.48-2.15,1.06-1.88,2.03-3.81,2.89-5.79l-8.39-2.27c.33,2.83.65,5.65.98,8.48.22,1.92,1.24,3.87,3.3,4.34s3.89-.36,5.08-2.07c1.02-1.46,1.75-3.21,2.03-4.98l-8.84-1.2c.21,2.92.17,5.84-.13,8.75l5.7-4.34c-6.12-1.83-12.29-.58-18.46.24.49-.07.1-.01-.17.02-.38.04-.76.09-1.13.13-.68.07-1.36.13-2.04.17-.32.02-.72-.02-1.04.03-.44.07.43.12.66.26.2.12.63.57.23.15.24.18.39.41.46.69.11.31.13.35.05.12-.21-.78-.26-.12-.07.11-.11-.14-.02-.64-.03-.8,0-.34.23-.81-.02-.03.09-.28.12-.58.19-.87.38-1.66.81-3.38.63-5.09-.23-2.25-1.54-4.1-3.9-4.42-2.02-.27-4.57,1.01-4.94,3.22s-.95,4.3-1.79,6.35l8.68,2.39c.53-3.84.45-7.54-.58-11.3-.47-1.73-1.99-2.99-3.74-3.22-1.65-.22-3.72.54-4.48,2.15-2.34,4.92-3.72,10-4.18,15.43-.16,1.87,1.5,3.93,3.3,4.34,1.97.45,4.03-.3,5.08-2.07.94-1.57,1.88-3.14,2.82-4.71l-8.39-2.27c-.2,1.71-.26,2.15-.56,4.02-.24,1.5-.51,2.99-.81,4.47-.62,3.05-1.36,6.07-2.21,9.06l8.68,2.39c.69-4.45,1.16-8.91,1.33-13.41.09-2.24-1.78-4.13-3.9-4.42s-4.53,1.02-4.94,3.22c-.8,4.29-1.74,8.55-2.83,12.78-.59,2.28.75,4.99,3.14,5.54,2.63.6,4.56-.81,5.54-3.14.12-.29.25-.58.37-.88.06-.14.28-.67.1-.24.28-.66.56-1.31.84-1.97.53-1.24,1.06-2.48,1.6-3.71,1.08-2.47,2.19-4.92,3.37-7.34s2.3-4.63,3.56-6.89c.58-1.04,1.2-2.06,1.87-3.05.18-.26.33-.47.05-.1.21-.27.44-.54.68-.8.42-.47.87-.9,1.35-1.31l-7.68-3.18c-.04,3.92-.38,6.29-1.41,10.08l8.68,2.39c.2-1.13.45-2.24.79-3.34.14-.45.15-.33-.04.03.11-.22.24-.44.34-.66.34-.71-.29.18.05-.13.23-.21.43-.43.67-.64-2.51-.66-5.01-1.32-7.52-1.99.44,1.11.75,2.25.97,3.42.05.29.1.59.15.88-.06-.46-.05-.41.01.14.06.59.13,1.19.19,1.78.22,2.25,1.54,4.1,3.9,4.42s4.05-1.12,4.94-3.22c-.3.72.1-.16.16-.29.16-.32.32-.64.49-.95.34-.63.71-1.24,1.1-1.83.16-.24.32-.47.48-.71.76-1.09-.29.29.2-.28s1.02-1.19,1.57-1.75c-2.51-.66-5.01-1.32-7.52-1.99.05.31.1.63.15.94-.06-.41-.05-.34.02.22.04.47.09.95.13,1.42.09,1.19.13,2.38.15,3.57.03,2.31-.05,4.61-.13,6.92-.07,1.89,1.44,3.91,3.3,4.34s4.22-.23,5.08-2.07c1.76-3.77,3.52-7.53,5.29-11.3l-8.39-2.27c-.33,4.64-.05,9.22.61,13.83.26,1.85,2.56,3.38,4.34,3.3,2.16-.1,3.54-1.38,4.34-3.3.96-2.31,1.91-4.63,2.87-6.94l-5.54,3.14c-1.05-.29-1.7-.88-1.92-1.78l.1.32c.08.38.18.75.25,1.13.21,1.05.41,2.11.6,3.16.36,2.03.69,4.07.98,6.11.26,1.85,2.56,3.38,4.34,3.3,1.89-.08,3.94-1.32,4.34-3.3.44-2.19.66-4.39.5-6.62-.17-2.34-1.95-4.61-4.5-4.5s-4.39,1.98-4.5,4.5-.22,5.01-.32,7.51c-.1,2.35,2.14,4.61,4.5,4.5,2.58-.12,4.33-1.98,4.5-4.5.16-2.29-.35-4.51-1.28-6.59s-2.64-4.51-4.99-5.26c-2.95-.94-5.13.81-7.3,2.49-1.38,1.07-2.74,2.17-4.11,3.26.73-.58-.31.23-.37.28-.32.24-.64.48-.97.71-.76.54-1.53,1.05-2.33,1.52-.68.4-1.38.76-2.09,1.1-.47.21-.48.22-.01,0-.18.07-.37.14-.55.21-.44.15-.89.26-1.33.41l-.35.08c1.35-.36,2.47.29,3.36,1.96.06.54.07.61.03.22l-.07-.72c-.11-1.12-.22-2.25-.33-3.37-.2-2.09-.4-4.17-.61-6.26-.19-1.92-1.26-3.87-3.3-4.34-1.8-.41-4.25.22-5.08,2.07-3.86,8.62-7.99,17.12-12.37,25.5l8.22,3.47c.86-3.88,1.37-7.84,1.5-11.81h-9c.02,1.43,0,2.87-.08,4.3-.04.64-.08,1.27-.14,1.9-.04.4-.08.79-.12,1.19-.01.11-.14,1.12-.05.46l8.84,1.2.79-8.62h-9c.95,7.15-.45,14.38,1.26,21.47,1.04,4.33,7.59,4.25,8.68,0,.63-2.44,1.25-4.88,1.88-7.32h-8.68c.11.44.21.87.3,1.31l.07.44c-.05-.39-.06-.42-.03-.1.02.81.1,1.62.08,2.43-.01.74-.06,1.49-.13,2.23-.04.45-.09.9-.14,1.34l-.05.45c.05-.37.06-.4.01-.07-.49,3.46-1.12,6.93-1.12,10.44,0,2.35,2.07,4.61,4.5,4.5,2.62-.12,4.27-1.98,4.5-4.5.24-2.71.49-5.42.73-8.13h-9c-.04.78-.1,1.55-.18,2.32-.03.24-.11.68-.02.19-.08.46-.16.92-.24,1.38h8.68c-.01-.05-.16-.57-.12-.59.19-.1-.06,1.03.07.11.09-.62-.22.89-.06.31.07-.24.04-.19-.08.15-.19.59-.58,1.04-1.17,1.37l-2.29.35-1.17-.67c-.24-.22-.32-.53-.47-.8l-.03-.39c.01.21.02.41,0,.62,0,.35-.04.69-.08,1.04-.21,2.22,1.87,4.15,3.9,4.42,2.31.31,4.17-1.09,4.94-3.22.35-.97.71-1.93,1.08-2.88.16-.4.17-.38,0,0,.11-.23.21-.47.32-.71.24-.52.5-1.04.77-1.55.24-.45.5-.88.77-1.31.14-.21.29-.41.42-.62.33-.55-.45.49-.02.02.33-.37.65-.75,1.01-1.1.18-.17.38-.33.55-.5.46-.46-.82.57.14-.1l-6.61-2.69c-.07-.49,0-.01.03.21.05.39.1.78.15,1.17.09.7.17,1.41.24,2.11.15,1.41.28,2.82.39,4.23.15,1.92,1.28,3.88,3.3,4.34s4.01-.31,5.08-2.07c1.29-2.14,2.59-4.28,4.02-6.32.34-.48.68-.96,1.03-1.43.15-.2.4-.5.1-.13.18-.23.37-.46.55-.68.84-1.01,1.74-1.97,2.7-2.88l-7.68-3.18c-.01.1-.14,1.25-.08.82.04-.35-.07.5-.09.58-.12.78-.27,1.56-.44,2.33-.32,1.47-.72,2.92-1.18,4.35-.69,2.14.63,4.48,2.61,5.31s4.68.2,5.62-1.84,1.9-4.1,2.95-6.1c.45-.85.99-1.66,1.44-2.51.19-.27.13-.21-.17.18.15-.18.31-.36.48-.52.38-.34.34-.31-.09.06.44-.24.4-.22-.12.05l-5.54-3.14c.11.46.2.91.3,1.37.09.55.1.62.04.19.03.23.05.47.06.7.07,1.02.06,2.03,0,3.04-.3,4.54,6.26,6.01,8.39,2.27s4.08-7.2,6.13-10.8l-8.39-2.27c.09,1.99.18,3.98.27,5.97.21,4.58,5.87,5.97,8.39,2.27,1.54-2.27,2.64-4.88,3.18-7.57l-8.84-1.2c-.2,2.45-.41,4.89-.61,7.34-.19,2.23,1.86,4.14,3.9,4.42s4.53-1.02,4.94-3.22c1.1-6.03.42-11.97-2.12-17.56-1.23-2.7-3.18-5.21-6.16-6.03-3.64-1-7.31,1.07-8.5,4.58l8.68,2.39c.88-3.03,1.39-6.14,1.65-9.29.15-1.87-1.5-3.93-3.3-4.34s-4.22.23-5.08,2.07c-3.44,7.37-6.41,14.95-8.84,22.71l8.22-1.07c-.36-.61-.65-1.24-.96-1.88.2.43.08.21-.04-.09-.23-.55-.46-1.11-.7-1.66-.47-1.09-.98-2.12-1.69-3.07-2.1-2.83-5.17-4.84-8.84-4.51-6.19.56-11.07,5.24-15.33,9.34l7.52,4.38c.89-4.06,1.78-8.12,2.66-12.18h-8.68c.4,2.75.79,5.5,1.19,8.25.21,1.48.32,2.91,1.02,4.27,1.04,2,3.17,3.18,5.42,2.88,2.84-.38,4.53-3.08,6.17-5.16.68-.87,1.37-1.73,2.13-2.53.35-.37.73-.72,1.1-1.08.85-.8-.41.23.14-.14,1.25-.82-.41.45-1.69-.08l-1.99-1.16c-.22-.2-.47-1.21-.48-.68,0,.13.19,1.16.09.31.07.65.09,1.3.07,1.95s-.07,1.31-.15,1.96c.08-.66-.02.05-.06.34-.06.37-.13.73-.2,1.1-.57,3.03-1.26,6.05-1.36,9.15-.07,2.24,1.76,4.13,3.9,4.42,2.36.32,4.1-1.11,4.94-3.22.26-.66.52-1.33.79-1.99.04-.09.46-1.12.26-.65-.18.44.29-.68.28-.65.54-1.24,1.13-2.46,1.78-3.65s1.35-2.34,2.17-3.39c-.47.6.14-.14.23-.24.18-.21.59-.49.69-.75l-.32.22c-1.06.48-1.99.4-2.8-.24-.68-.48-.88-.58-.6-.31.23.25.12.11-.32-.42-.02.22.48.81.61,1,.5.74,1.01,1.35,1.71,1.89,1.83,1.41,4.23,1.55,6.27.48,2.84-1.48,4.59-5.31,5.28-8.27h-8.68c.05.21.23,1.3.14.51.06.5.07,1.01.05,1.51,0,.22-.02.43-.03.65.07-.41.08-.45.02-.12-.11.49-.22.98-.36,1.47h8.68c-.79-4.4-2.18-8.57-3.94-12.68-.6-1.4-2.45-2.23-3.89-2.23-1.68,0-2.96.9-3.89,2.23-2.49,3.57-4.38,6.03-7.32,9.36-1.16,1.33-2.37,2.62-3.7,3.79-.2.18-.41.35-.62.52.33-.25.37-.27.11-.09-.38.27-.76.54-1.16.79-.34.21-.69.41-1.04.59-.24.12-.48.24-.72.35.46-.2.44-.2-.05-.01l5.7,4.34c-.05-3.07.09-6.13.41-9.19.23-2.22-1.89-4.15-3.9-4.42-2.11-.28-4.44,1.03-4.94,3.22-.65,2.87-1.3,5.73-1.95,8.6-1.01,4.43,4.17,7.44,7.52,4.38,3.06-2.79,4.81-6.53,6.86-10.05.46-.78.96-1.53,1.46-2.29.3-.41.28-.39-.06.05.15-.19.3-.37.46-.55.31-.36.64-.7.99-1.03.18-.16.36-.32.54-.48-.81.85-1.9.9-3.28.15-.41-.23-1.26-1.38-.65-.4.65,1.06,1.5,2.17,2.68,2.68,2.2.94,4.85.72,6.16-1.61,1.46-2.62,2.29-5.53,2.35-8.53.07-3.22-.59-7.68-3.93-9.09-2.34-.99-4.82-.16-6.34,1.81-.92,1.2-1.64,2.56-2.4,3.87-1.49,2.59-2.92,5.22-4.27,7.88l8.22,3.47c1.05-3.84,2.1-7.68,3.14-11.52h-8.68c.02.12.17,1.19.1.58s.04.61.04.59c.05.6.07,1.21.09,1.81.04,1.27.05,2.54.14,3.81.21,2.99.78,5.95,2.42,8.51,1.51,2.36,5.01,3.1,7.07.91,2.25-2.39,2.72-5.68,1.81-8.78s-2.79-6.17-5.97-7.09c-2.82-.82-6.09.15-8.81,1.01s-5.56,2.1-8.11,3.58l5.45,7.07c.29-.34.59-.64.89-.96.59-.64-.32.15.45-.39l-6.61-2.69c.49,1.81.98,3.62,1.47,5.43,1.01,3.73,6.29,4.42,8.22,1.07,3.78-6.54,5.82-13.96,5.95-21.52.04-2.24-1.74-4.13-3.9-4.42s-4.3,1.06-4.94,3.22c-.82,2.78-1.3,5.62-1.6,8.5-.19,1.87,1.53,3.93,3.3,4.34s4.26-.22,5.08-2.07c1.72-3.88,2.62-8.01,2.13-12.26-.26-2.25-1.51-4.1-3.9-4.42-2.2-.3-4.32,1.05-4.94,3.22-.92,3.24-1.61,6.53-2.08,9.86-.16,1.13-.4,2.18-.02,3.31.53,1.6,1.68,2.76,3.29,3.28,1.74.56,3.78-.26,4.85-1.64.98-1.27,1.1-2.62.84-4.17-.33-1.96-2.51-3.26-4.34-3.3h-.1c-2.35-.06-4.61,2.11-4.5,4.5s1.98,4.44,4.5,4.5h.1c-1.45-1.1-2.89-2.2-4.34-3.3l.02.12v-2.39l-.05.13,3.14-3.14-.12.03,4.38,1.16-.15-.13,1.16,1.99c-.05,1.55-.03,1.96.06,1.24.03-.24.07-.48.1-.71.06-.4.12-.79.19-1.19.15-.87.31-1.73.49-2.6.36-1.73.79-3.43,1.26-5.13l-8.84-1.2c.09.74.14,1.48.15,2.22,0,.44-.01.89-.04,1.33,0,.1-.14,1.24-.06.73.07-.48-.15.75-.15.72-.08.36-.17.72-.27,1.08s-.21.71-.33,1.06c-.05.15-.53,1.3-.21.58l8.39,2.27c.03-.31.06-.62.1-.93-.06.43-.05.36.03-.19.09-.54.18-1.07.29-1.6.23-1.14.52-2.27.85-3.39l-8.84-1.2c-.01.81-.04,1.61-.1,2.41-.03.36-.06.73-.1,1.09,0,.05-.2,1.44-.06.55-.25,1.59-.57,3.17-1,4.72s-.94,3.09-1.57,4.56c.25-.58-.06.1-.16.33-.15.33-.31.66-.47.99-.39.79-.81,1.56-1.25,2.32l8.22,1.07c-.49-1.81-.98-3.62-1.47-5.43-.71-2.61-4.21-4.39-6.61-2.69-1.16.82-2.25,1.68-3.17,2.77-1.47,1.72-1.79,4.04-.35,5.91,1.36,1.76,3.85,2.29,5.81,1.16.83-.48,1.67-.93,2.53-1.34.15-.07,1.19-.55.87-.41s.74-.29.9-.35c1.73-.65,3.5-1.08,5.3-1.5,1.4-.33-.85.26.43-.07.59.04.53-.01-.19-.16-.68-.24-.77-.24-.28.02-.3-.2-.77-.93-.42-.28.18.33.35.65.51.98-.47-.99-.04-.02.04.23.07.23.12.46.17.69l-.06-.51c.02.23.03.45.02.68.11-.59.13-.72.06-.38-.09.33-.02.22.19-.32-.25.41-.21.37.12-.13l7.07.91c-.14-.22-.27-.45-.41-.67-.6-.96.09.44-.1-.14-.18-.55-.36-1.09-.48-1.65-.05-.25-.09-.51-.14-.76.12.64.03.28,0-.16-.06-.59-.09-1.19-.11-1.79-.11-2.69-.15-5.33-.64-7.99-.34-1.85-2.5-3.39-4.34-3.3-1.98.09-3.8,1.33-4.34,3.3-1.05,3.84-2.1,7.68-3.14,11.52-.59,2.17.56,4.45,2.61,5.31s4.6.16,5.62-1.84,2.01-3.87,3.08-5.77c.51-.92,1.03-1.83,1.56-2.74.24-.42.49-.84.74-1.25.17-.28.33-.55.5-.83.66-.98.18-.69-1.43.87h-2.39l.26.07-1.99-1.16c-.3-.23-.6-1.61-.43-.66.07.4.19.8.26,1.2-.17-.96,0,.21,0,.43.02.48.01.96-.02,1.44-.01.2-.03.41-.05.61.06-.45.06-.51,0-.18-.12.39-.18.8-.29,1.2-.04.14-.43,1.25-.26.81.16-.4-.42.79-.5.93l6.16-1.61c-.64-.27.31.4.49.54.43.34.13.14-.01-.1-.34-.6-.76-1.19-1.22-1.69-1.43-1.54-3.65-2.09-5.67-1.63-2.88.66-5.09,3.54-6.7,5.82-1.26,1.79-2.24,3.75-3.32,5.65-.54.95-1.1,1.89-1.72,2.78-.06.08-.52.72-.18.27.37-.5-.25.29-.33.38-.4.45-.82.88-1.26,1.28l7.52,4.38c.65-2.87,1.3-5.73,1.95-8.6l-8.84-1.2c-.32,3.05-.46,6.12-.41,9.19.04,2.74,2.87,5.34,5.7,4.34,4.39-1.56,7.83-4.5,10.88-7.95,3.23-3.64,6.22-7.5,8.99-11.49h-7.77c-.28-.65.21.53.26.65.17.43.33.87.49,1.31.34.95.66,1.91.95,2.88.55,1.87.99,3.76,1.33,5.68s2.51,3.39,4.34,3.3c2.01-.09,3.75-1.34,4.34-3.3.86-2.88.87-5.88.19-8.8-1.01-4.28-7.67-4.3-8.68,0-.08.33-.16.65-.25.97-.1.34-.29.83-.04.24-.26.62-.61,1.19-.97,1.75s-.19.04.01,0c-.63.55-.22.52,1.22-.1.81-.54,1.53-.53,2.18.05.5.16.87.47,1.1.94l-.14-.21c-.11-.19-.22-.38-.34-.56-.91-1.48-2.05-2.7-3.75-3.26-2.25-.74-4.55.08-6.27,1.59-2.12,1.87-3.78,4.53-5.09,7.02-1.45,2.74-2.58,5.64-3.72,8.52l8.84,1.2c.01-.44.03-.89.07-1.33,0-.1.14-1.24.07-.73-.07.48.13-.76.12-.73.06-.37.13-.74.2-1.1.3-1.54.63-3.07.87-4.62.27-1.76.51-3.55.41-5.34s-.33-3.95-1.37-5.53c-1.66-2.53-4.73-3.16-7.36-1.81-1.39.71-2.65,1.88-3.73,3-.94.98-1.78,2.06-2.62,3.13-.4.51-.81,1.03-1.22,1.53-.25.3-.5.6-.76.89l-.26.29c-.83.81-.19.62,1.92-.58l2.27.61c.58.39,1,.89,1.25,1.51l-.06-.31c.07-.42-.15-1.02-.21-1.46-.15-1.05-.3-2.1-.45-3.15-.29-2.02-.58-4.04-.87-6.07-.27-1.85-2.55-3.38-4.34-3.3-1.91.09-3.91,1.32-4.34,3.3-.89,4.06-1.78,8.12-2.66,12.18-.95,4.34,4.19,7.58,7.52,4.38,1.55-1.49,3.1-3.01,4.81-4.33-.64.5.69-.48.82-.57.47-.32.96-.62,1.46-.91.14-.08,1.64-.82.84-.48.46-.19.96-.27,1.42-.44.33-.07.27-.07-.16,0,.27-.02.55-.02.82,0-.52-.07-.51-.05.02.08-.51-.23-.54-.23-.09,0,.42.28.4.26-.05-.05.18.16.35.34.51.52-.69-.68.13.19.27.44.23.38.44.78.63,1.19.12.26.24.51.35.77-.18-.43-.16-.39.04.1.53,1.27,1.05,2.54,1.74,3.73,2,3.43,7.09,2.57,8.22-1.07,2.29-7.34,4.87-14.01,7.93-20.56l-8.39-2.27c-.05.61-.1,1.22-.18,1.82.06-.49.01-.1-.03.16-.06.38-.13.75-.2,1.13-.24,1.28-.55,2.53-.92,3.78-.65,2.26.8,5,3.14,5.54,2.49.57,4.73-.75,5.54-3.14-.29.86-.93,1.53-1.8,1.78.91-.27-.91,0-.02,0-.16,0-1.38-.1-1.38-.52,0-.19.93,1.28.28.21.42.69.79,1.38,1.13,2.11-.35-.74.19.5.2.54.15.41.29.83.41,1.24.25.84.46,1.69.62,2.55.03.18.18,1.43.09.53.04.43.08.87.11,1.31.04.8.04,1.6,0,2.4-.02.44-.08.87-.1,1.31-.04.33-.03.29.02-.11-.04.29-.09.57-.15.86l8.84,1.2c.2-2.45.41-4.89.61-7.34.19-2.23-1.86-4.14-3.9-4.42s-4.49,1.02-4.94,3.22c-.22,1.09-.5,2.17-.94,3.2.36-.84-.37.66-.45.81-.27.49-.57.95-.89,1.41l8.39,2.27c-.09-1.99-.18-3.98-.27-5.97s-1.33-3.89-3.3-4.34-4.07.28-5.08,2.07c-2.04,3.6-4.08,7.2-6.13,10.8l8.39,2.27c.17-2.58-.11-5.19-.72-7.7-.56-2.31-3.27-3.84-5.54-3.14-5.5,1.7-7.67,8.23-9.87,12.97l8.22,3.47c1.1-3.41,1.74-6.9,2.1-10.46.18-1.75-1.28-3.49-2.77-4.11-1.68-.71-3.59-.33-4.92.93-4.01,3.82-6.96,8.56-9.81,13.26l8.39,2.27c-.27-3.38-.66-6.75-1.13-10.11-.38-2.79-4.44-4.2-6.61-2.69-4.93,3.43-7.2,8.64-9.17,14.12l8.84,1.2c.19-1.97-.03-3.98-1.14-5.68-1.43-2.19-4.13-3.48-6.73-2.87-4.37,1.04-5.28,5.62-4.4,9.43.43,1.84,2.44,3.39,4.34,3.3s3.96-1.32,4.34-3.3.66-4.17.77-6.28c.12-2.35-2.15-4.61-4.5-4.5-2.62.12-4.27,1.98-4.5,4.5-.24,2.71-.49,5.42-.73,8.13h9c0-1.66.14-3.31.35-4.96-.11.83.07-.45.09-.61.07-.45.13-.9.2-1.35.16-1.07.31-2.15.44-3.22.46-3.6.51-7.18-.4-10.72-1.1-4.28-7.58-4.29-8.68,0-.63,2.44-1.25,4.88-1.88,7.32h8.68c-.11-.45-.21-.9-.3-1.35-.02-.1-.2-1.24-.14-.76s-.07-.67-.08-.77c-.04-.46-.07-.92-.1-1.38-.09-1.62-.07-3.24-.05-4.86.05-3.33.15-6.65-.29-9.96-.31-2.32-1.85-4.62-4.5-4.5s-4.27,1.98-4.5,4.5l-.79,8.62c-.2,2.22,1.87,4.15,3.9,4.42s4.63-1.01,4.94-3.22c.47-3.41.77-6.8.71-10.24-.04-2.35-2.04-4.61-4.5-4.5s-4.42,1.98-4.5,4.5c-.12,3.67-.41,5.96-1.18,9.42-.49,2.21.49,4.41,2.61,5.31,1.97.83,4.58.15,5.62-1.84,4.38-8.37,8.51-16.87,12.37-25.5l-8.39-2.27c.2,2.09.4,4.17.61,6.26s.16,4.57.8,6.62c1.03,3.35,4.38,4.66,7.6,3.97,1.89-.4,3.75-1.24,5.44-2.14,3.29-1.74,6.15-4.2,9.05-6.5.32-.25.63-.5.95-.75,1.04-.82-.7.51.36-.28.29-.21.69-.42.94-.68-3.26-1.15-4.34-1.18-3.25-.08-.29-.39-.29-.37,0,.06.19.35.41.69.58,1.06-.39-.84.06.31.09.43.09.33.18,1.19.12.38.04.54.04,1.06,0,1.6h9c.11-2.5.22-5.01.32-7.51h-9c.06.83.08,1.66.04,2.5-.02.38-.05.76-.09,1.13.09-.78-.1.46-.13.6h8.68c-.38-2.7-.83-5.38-1.34-8.06-.23-1.23-.46-2.37-.95-3.52-.78-1.86-2.17-2.92-4.01-3.66-.97-.39-2.61-.1-3.47.45-1.05.68-1.59,1.54-2.07,2.69-.96,2.31-1.91,4.63-2.87,6.94h8.68c.1.71-.07-.6-.09-.74-.05-.48-.1-.97-.14-1.45-.09-1.05-.15-2.11-.19-3.16-.06-2.03-.01-4.06.13-6.08.13-1.88-1.48-3.92-3.3-4.34s-4.22.23-5.08,2.07c-1.76,3.77-3.52,7.53-5.29,11.3l8.39,2.27c.18-5.2.21-10.31-.64-15.46-.56-3.41-5.34-4.23-7.52-1.99-2.78,2.87-4.77,6.12-6.32,9.79l8.84,1.2c-.29-2.91-.56-5.88-1.64-8.62-1.28-3.24-4.79-4.33-7.52-1.99-2.55,2.19-3.54,5.51-4.12,8.7-.42,2.31.63,4.96,3.14,5.54,2.37.54,4.87-.71,5.54-3.14,1.11-4.05,1.69-8.27,1.73-12.47.02-1.8-1.15-3.43-2.77-4.11-1.74-.73-3.52-.28-4.92.93-4.14,3.61-6.56,9.11-8.91,13.96-2.58,5.34-4.88,10.82-7.18,16.29l8.68,2.39c1.09-4.23,2.03-8.49,2.83-12.78l-8.84-1.2c-.07,1.96-.2,3.92-.38,5.88-.09.98-.2,1.95-.32,2.93l-.06.49c.04-.3.04-.3,0,.02-.08.57-.16,1.13-.25,1.7-.36,2.32.59,4.95,3.14,5.54,2.4.55,4.84-.72,5.54-3.14,1.87-6.54,3.12-13.19,3.91-19.94.22-1.86-1.55-3.94-3.3-4.34-1.97-.45-4.03.3-5.08,2.07-.94,1.57-1.88,3.14-2.82,4.71l8.39,2.27c.01-.16.2-1.88.09-1.08.06-.45.14-.9.22-1.35.19-1.05.42-2.09.7-3.12s.6-2.05.97-3.05c.16-.43.32-.86.5-1.28-.27.64.41-.87.48-1.01l-8.22-1.07c.17.61.31,1.22.44,1.84.04.21.13.7.06.21.06.39.08.79.11,1.18.04.63.05,1.26.04,1.89,0,.32-.02.63-.04.95,0,.12-.11,1.13-.02.45-.32,2.32.56,4.95,3.14,5.54s4.59-.8,5.54-3.14c.83-2.05,1.43-4.17,1.79-6.35l-8.84-1.2c.04.44.06.85.03,1.3.04-.66-.02,0-.09.32-.17.79-.39,1.58-.52,2.38-.27,1.7-.34,3.39.19,5.07.56,1.79,1.72,3.5,3.4,4.43,1.82,1,3.82,1.03,5.83.87,1.84-.14,3.68-.41,5.5-.67.83-.12,1.66-.24,2.49-.36l.45-.06c-.37.05-.39.05-.06,0,.38-.05.75-.09,1.13-.14,1.64-.18,3.28-.3,4.93-.26.37,0,.74.03,1.11.06.29.02,1,.11.34.01.89.13,1.75.34,2.61.6,3.04.91,5.41-1.54,5.7-4.34s.34-5.83.13-8.75c-.16-2.25-1.59-4.11-3.9-4.42-2-.27-4.59,1.01-4.94,3.22-.04.28-.09.56-.15.84-.02.1-.34,1.15-.17.67.15-.4-.18.34-.22.42-.17.31-.37.6-.57.89l8.39,2.27c-.33-2.83-.65-5.65-.98-8.48-.22-1.92-1.24-3.87-3.3-4.34-1.79-.41-4.27.22-5.08,2.07-.86,1.98-1.83,3.91-2.89,5.79l8.22,1.07c-.49-2.9-1.14-5.77-1.93-8.61-.48-1.73-1.99-2.99-3.74-3.22-1.87-.25-3.43.63-4.48,2.15-.75,1.08-1.51,2.16-2.29,3.23-.18.25-.37.5-.56.75-.46.62.33-.41-.15.19-.43.55-.88,1.08-1.34,1.61,2.51.66,5.01,1.32,7.52,1.99-.15-.8-.29-1.59-.42-2.39-.06-.4-.13-.8-.18-1.2-.02-.11-.15-1.12-.07-.49-.21-1.61-.36-3.22-.49-4.84-.15-1.92-1.29-3.88-3.3-4.34s-3.84.39-5.08,2.07c-1.65,2.22-3.3,4.45-4.95,6.67l6.16-1.61c.55.28.91.69,1.08,1.22.13.36.13.34.01-.06-.1-.75-.07.2.01.22-.13-.04-.16-2.32-.18-2.55-.12-1.73-.24-3.46-.36-5.19-.31-4.48-5.86-6.09-8.39-2.27-1.71,2.59-3.43,5.19-5.14,7.78l7.07-.91c.54,1.27.72,1.61.56,1.02-.08-.33-.06-.22.05.33-.06-.03,0-.76,0-.83,0-.89,0-1.78,0-2.67,0-1.7,0-3.4-.01-5.1,0-1.9-1.39-3.9-3.3-4.34-2.08-.47-3.86.38-5.08,2.07-1.01,1.4-1.88,2.88-2.62,4.44l8.22,3.47,1.49-3.98c.83-2.21-.92-5.03-3.14-5.54-2.56-.58-4.65.78-5.54,3.14h0Z" style="fill:#fff; stroke-width:0px;"/><path d="M235.66,362.54c2.19-.37,1.03-3.34.76-4.64-.48-2.3-.88-4.61-1.19-6.94s-.51-4.51-.65-6.77c-.12-1.98-.31-4.11.66-5.92l-2.8-.76c.17,2.3-.58,4.49-.91,6.74-.31,2.13-.42,4.27-.33,6.42.18,4.51,1.12,8.95,2.33,13.28.52,1.86,3.42,1.07,2.89-.8-1.19-4.23-2.12-8.54-2.24-12.95-.06-2.19.06-4.39.47-6.54s.94-4.06.78-6.16c-.1-1.39-2.04-2.16-2.8-.76-1.85,3.45-1.12,7.8-.73,11.52.21,2.05.49,4.1.82,6.14.18,1.11.38,2.22.6,3.33.09.47.19.95.29,1.42.06.26.18,1.86.49,1.14l.9-.69-.15.03c-1.9.32-1.09,3.21.8,2.89h0Z" style="fill:#fff; stroke-width:0px;"/><path d="M216.57,396.57c2.34-4.53,4.96-8.69,8.07-12.72,3.03-3.93,6.17-7.78,8.69-12.06.98-1.67-1.61-3.18-2.59-1.51-2.53,4.29-5.68,8.14-8.71,12.08s-5.73,8.18-8.06,12.71c-.88,1.71,1.7,3.23,2.59,1.51h0Z" style="fill:#fff; stroke-width:0px;"/><path d="M216.43,396.33c-1.95-1.8-3.88-3.62-5.79-5.47l-.66,2.51c2.72-.9,4.76-3.61,6.62-5.66,2.13-2.34,4.24-4.69,6.22-7.16,3.98-4.95,6.82-10.57,10.46-15.74l-2.8-.76c-.12,2.96-.5,5.91-1.21,8.79-.28,1.14-1.54,1.66-2.4,2.41-.98.85-1.87,1.82-2.69,2.83-1.57,1.95-2.94,4.05-4.29,6.15-1.48,2.31-2.83,4.71-3.53,7.38-.49,1.87,2.4,2.67,2.89.8.72-2.71,2.19-5.07,3.71-7.4s2.88-4.45,4.7-6.37c.87-.92,1.82-1.66,2.83-2.41,1.11-.82,1.48-1.76,1.79-3.06.7-2.99,1.09-6.05,1.21-9.12.06-1.6-2-1.89-2.8-.76-3.4,4.83-6.01,10.13-9.7,14.77-1.77,2.23-3.66,4.37-5.57,6.49-1,1.1-1.99,2.21-3.03,3.28-.9.93-1.93,2.22-3.2,2.64-1.04.34-1.51,1.69-.66,2.51,1.91,1.85,3.83,3.67,5.79,5.47,1.42,1.31,3.54-.81,2.12-2.12h0Z" style="fill:#fff; stroke-width:0px;"/><path d="M298.41,386.75c7.2,5.34,14.75,10.17,22.62,14.47.42.23.8-.42.38-.65-7.87-4.29-15.43-9.12-22.62-14.47-.39-.29-.76.36-.38.65h0Z" style="fill:#fff; stroke-width:0px;"/><path d="M304.19,386.48c6.17,6.09,13.75,10.6,22.03,13.14.46.14.66-.58.2-.72-8.17-2.5-15.62-6.95-21.7-12.95-.34-.34-.87.19-.53.53h0Z" style="fill:#fff; stroke-width:0px;"/><path d="M271.56,412.14c8.98.38,17.87,2.02,26.38,4.9,2.19.74,4.37,1.53,6.46,2.51,1.58.75,2.71,1.47,4.5,1.2,2.37-.35,4.73-.85,7.14-.65,2.24.19,4.39.91,6.33,2.04,3.28,1.92,7.01,5.03,10.96,2.91.43-.23.05-.88-.38-.65-4.16,2.23-8.07-1.99-11.56-3.63s-7.26-1.64-11.07-1.02c-1.17.19-2.35.54-3.5.13-1-.36-1.92-.95-2.89-1.37-1.89-.83-3.84-1.54-5.79-2.2-4.08-1.38-8.26-2.48-12.49-3.3-4.65-.89-9.36-1.43-14.09-1.63-.48-.02-.48.73,0,.75h0Z" style="fill:#fff; stroke-width:0px;"/><path d="M275.12,410.17c8.25.29,16.14,2.77,24.03,4.97,3.97,1.11,7.97,2.07,12.02,2.83,1.03.19,2.07.38,3.11.57.71.13,1.5.39,2.21.18.82-.24,1.47-.68,2.35-.79,1.02-.13,2.09-.18,3.12-.15,4.2.12,6.77,3.66,10,5.83.4.27.78-.38.38-.65-2.68-1.8-4.86-4.58-8.03-5.57-1.69-.53-3.58-.42-5.32-.24-.66.07-1.27.22-1.9.44-.66.23-1.18.41-1.89.34-.64-.06-1.29-.23-1.91-.34-8.34-1.51-16.34-4.06-24.54-6.08-4.47-1.11-9.01-1.93-13.62-2.09-.48-.02-.48.73,0,.75h0Z" style="fill:#fff; stroke-width:0px;"/><path d="M217.5,364.85c3.76.5,7.54.69,11.33.58.48-.01.48-.76,0-.75-3.79.11-7.57-.08-11.33-.58-.48-.06-.47.69,0,.75h0Z" style="fill:#fff; stroke-width:0px;"/><path d="M222.06,361.38c2.52.57,5.1.82,7.69.74.48-.01.48-.76,0-.75-2.52.08-5.03-.16-7.49-.71-.47-.11-.67.62-.2.72h0Z" style="fill:#fff; stroke-width:0px;"/><path d="M214.46,367.35c-1.43,5.93-2.36,11.97-2.77,18.06-.03.48.72.48.75,0,.41-6.02,1.33-11.99,2.74-17.86.11-.47-.61-.67-.72-.2h0Z" style="fill:#fff; stroke-width:0px;"/><path d="M228.61,351.33c-.2,7.1-2.17,14.22-.58,21.28.11.47.83.27.72-.2-1.57-6.98.4-14.06.6-21.08.01-.48-.74-.48-.75,0h0Z" style="fill:#fff; stroke-width:0px;"/><path d="M204.62,374.47c-1.92-1.05-3.96-1.86-6.07-2.41-.47-.12-.67.6-.2.72,2.06.53,4.03,1.31,5.9,2.33.42.23.8-.42.38-.65h0Z" style="fill:#fff; stroke-width:0px;"/><path d="M205.78,372.17c-2.11-.12-4.22-.15-6.33-.1-.48.01-.48.76,0,.75,2.11-.05,4.22-.02,6.33.1.48.03.48-.72,0-.75h0Z" style="fill:#fff; stroke-width:0px;"/><path d="M207.33,370.61c-2.38-.91-4.84-1.6-7.34-2.07-.47-.09-.67.63-.2.72,2.51.47,4.96,1.17,7.34,2.07.45.17.65-.55.2-.72h0Z" style="fill:#fff; stroke-width:0px;"/><path d="M216.85,359.01c-1.19-.65-2.45-1.19-3.76-1.59-.46-.14-.66.58-.2.72,1.24.39,2.44.89,3.58,1.52.42.23.8-.42.38-.65h0Z" style="fill:#fff; stroke-width:0px;"/><path d="M218.22,357.27c-1.84-.52-3.75-.77-5.67-.74-.48,0-.48.76,0,.75,1.85-.04,3.69.2,5.47.71.47.13.66-.59.2-.72h0Z" style="fill:#fff; stroke-width:0px;"/><path d="M219.17,355.93c-1.19-.93-2.66-1.44-4.17-1.4-.48.01-.48.76,0,.75,1.3-.03,2.61.38,3.64,1.18.16.12.37.16.53,0,.13-.13.16-.41,0-.53h0Z" style="fill:#fff; stroke-width:0px;"/><path d="M197.91,376.69c7.01-7.06,13.38-14.74,19.03-22.94.27-.4-.38-.77-.65-.38-5.61,8.14-11.94,15.77-18.91,22.79-.34.34.19.87.53.53h0Z" style="fill:#fff; stroke-width:0px;"/><path d="M204.27,374.95c5.25-5.02,9.51-11.02,12.5-17.64.2-.44-.45-.82-.65-.38-2.97,6.57-7.17,12.51-12.38,17.49-.35.33.18.86.53.53h0Z" style="fill:#fff; stroke-width:0px;"/><path d="M395.75,385.7c-1.32,8.27-2.79,16.51-4.41,24.72-.09.47.63.67.72.2,1.62-8.21,3.09-16.46,4.41-24.72.08-.47-.65-.68-.72-.2h0Z" style="fill:#fff; stroke-width:0px;"/><path d="M411.06,395.96c-.18.21-.37.42-.55.62-2.08-.7-4.15-1.41-6.33-1.79-3.03-.54-6.12-.59-9.15-.19-.26.04-.52.08-.78.12-2.07.33-4.12.87-6.09,1.62-.09.03-.17.03-.23.01-.22-.08-.3-.42-.12-.62.03-.05.08-.08.15-.11,2.08-.79,4.23-1.36,6.43-1.68.25-.05.51-.08.77-.11,1.77-.23,3.57-.3,5.36-.21,2.04.11,4.07.41,6.04.91,1.03.27,2.05.6,3.06.94.48.16.96.34,1.44.49Z" style="fill:#fff; stroke-width:0px;"/><path d="M391.45,393.07c3.3-1.72,7.14-2.28,10.78-1.46,1.92.43,3.71,1.24,5.45,2.13,1.34.69,2.7,1.36,4.24.95.47-.12.27-.85-.2-.72-2.04.54-4.22-1.24-6.03-2-1.51-.64-3.09-1.12-4.72-1.33-3.41-.44-6.86.21-9.9,1.8-.43.22-.05.87.38.65h0Z" style="fill:#fff; stroke-width:0px;"/><path d="M455,280c0,44.48-16.6,85.09-43.94,115.96-.18.21-.37.42-.55.62-6.14,6.88-12.82,13.26-19.96,19.09-1.7,1.38-3.42,2.73-5.17,4.04-1.28.98-2.58,1.94-3.89,2.87-9.75,6.96-20.25,12.93-31.35,17.79-1.72.76-3.46,1.49-5.22,2.19-1.2.48-2.4.94-3.61,1.39-.18.08-.36.14-.55.21-1.51.56-3.03,1.1-4.56,1.62-.12.04-.23.08-.34.11-.72.25-1.41.49-2.13.72h-.04c-11.18,3.6-22.85,6.1-34.88,7.39-.26.03-.52.06-.79.09-.3.02-.6.05-.91.08-.27.03-.54.06-.81.08-.05.01-.1.01-.16.02-.25.02-.51.04-.77.07-5.06.43-10.19.66-15.37.66-11.78,0-23.28-1.16-34.41-3.39-.97-.19-1.95-.39-2.92-.6-23.4-5.09-45.06-14.85-63.94-28.27-.19-.14-.38-.27-.57-.41,0,0-.03-.02-.04-.03-.18-.13-.37-.26-.55-.4-2.56-1.85-5.07-3.76-7.52-5.75-.19-.16-.39-.32-.59-.48-39.34-32.08-64.46-80.94-64.46-135.67,0-96.65,78.35-175,175-175s175,78.35,175,175Z" style="fill:none; stroke-width:0px;"/></svg>