<?xml version="1.0" encoding="UTF-8"?>
<svg xmlns="http://www.w3.org/2000/svg" version="1.1" xmlns:xlink="http://www.w3.org/1999/xlink" viewBox="0 0 500 500">
  <defs>
    <style>
      .cls-1, .cls-2, .cls-3 {
        fill: #263238;
      }

      .cls-1, .cls-3, .cls-4, .cls-5, .cls-6, .cls-7, .cls-8, .cls-9 {
        stroke-width: 0px;
      }

      .cls-10 {
        opacity: .7;
      }

      .cls-11, .cls-7 {
        opacity: .5;
      }

      .cls-12, .cls-13, .cls-14, .cls-15, .cls-16, .cls-17, .cls-18, .cls-19 {
        stroke: #263238;
      }

      .cls-12, .cls-13, .cls-20, .cls-6, .cls-7, .cls-8 {
        fill: #fff;
      }

      .cls-12, .cls-14, .cls-2 {
        stroke-miterlimit: 10;
      }

      .cls-21 {
        clip-path: url(#clippath-2);
      }

      .cls-13, .cls-15, .cls-16, .cls-17, .cls-18, .cls-19 {
        stroke-linecap: round;
        stroke-linejoin: round;
      }

      .cls-14, .cls-15, .cls-4 {
        fill: none;
      }

      .cls-22, .cls-3, .cls-9 {
        opacity: .2;
      }

      .cls-2 {
        stroke: #fff;
      }

      .cls-23 {
        clip-path: url(#clippath-1);
      }

      .cls-24 {
        clip-path: url(#clippath);
      }

      .cls-16 {
        fill: #bfbfbf;
      }

      .cls-5, .cls-19 {
        fill: #92e3a9;
      }

      .cls-17 {
        fill: #999;
      }

      .cls-18 {
        fill: #757575;
      }

      .cls-8 {
        opacity: 0;
      }

      .cls-9 {
        fill: #000;
      }
    </style>
    <clipPath id="clippath">
      <path class="cls-6" d="M347.7,388.5v-44.2c.6-1.8,1-8.3,2-12.9,1.7-7.7-5.1-16.9-5.6-17.2-1.9-1.2-6-1.2-6-1.2,0,0-4-4.6-7.6-6-3.6-1.4-7.7-1-7.7-1,0,0-4.5-3.8-9.1-5.5-4.5-1.7-7.7,1.4-7.7,1.4l-4.5,7c-1.3,2.1-1.1,4.8.6,6.5,2.1,2.1,4.9,1.1,6.3,1.1s2.6-2.2,2.6-2.2c0,0,.5,11.3,0,12.7h0c-.5,1.4-4.1,4.8-4.1,4.8l-12-15.8c-3.5-4.6-8.4-12.6-10.8-17.8-.4-.8-.8-1.5-1.3-2.1-2.1-2.4-6.6-3.1-7.8,1.3-.3,1.2-.2,3.1.2,4.2,5,14.8,11.4,25.9,17.2,37.6,3.5,6.9,2.2,6.8,3.9,10-.2.1-.1.4-.3.5-.8,3.4-1.4,6.7-2.3,10.1-.8-4-1.9-8.5-3.8-12.2.4-2.4.8-4.7.5-7.1-.2-2.4-1.1-4.8-3-6.3-.9-.8-2.2-1.3-3.5-1.4-1.9-.1-3.6,1.2-3.8,3.1-.3,1.8-.5,3.9-1,5.4-1.5,4.6-2.8,6.6-2.8,6.8,0,4.5,2.8,3.7,4.8,21.7,1.6,14,19.6,23.2,29.4,33.3l10.4,32.9c12.1-4.9,23.7-11.1,34.9-18.3l-8.3-29.3Z"/>
    </clipPath>
    <clipPath id="clippath-1">
      <path class="cls-6" d="M237.2,336.4c-.4-2-3.2-1.7-3.2-1.7-9.4.6-10.7,15.4-10.7,15.4l-3.4,10.1-1.1-15.3v-19.7c.1,0,3-18.8,1.7-21.8-1.3-3-3.9-2.9-3.9-2.9-5.5-1.4-5.8,6.5-5.8,6.5l-4.6,16.2-1.9,17.5-1.6-.8s-.7-18.5-.4-18.8c.3-.3,2.2-12.8,2.2-12.8,0,0,1-2.3,2.3-5.3,1.3-3,0-5.3,0-5.3-2.2-4.5-6.9-2.4-7.8,0-1,2.4-3.8,7.2-3.8,7.2l-5.3,14.5c.2,3.3-1.7,19.5-1.7,19.5l-1.9-.9-3.1-9.5,2.3-9.7s5.1-5.6,4.2-8.9c-.8-3.3-5.2-2.3-5.2-2.3l-8.7,10.4h-2.5l-6,7.6c-1.6,4.9-2.5,10-2.5,15.2s.4,6.8,1.1,10.1l1.4,6.4v41.6s-4.1,6.7-4.1,7.3-1.7,5.5-4.1,12.1c10.4,6.1,19.3,10.8,25.6,13.3,3,1.2,6,2.3,9,3.4,3.8-10.7,8.2-22.1,10.7-24.8,4.9-5.3,14.4-15.4,14.4-15.4,0,0,10.8-17.4,12.1-23.1,1-4.7,3.6-13.3,4.5-16.3.2-.7.3-1.4.2-2.1,0-1.6-.2-4.6-.2-7.3,0-3.8,2.3-7.6,1.8-9.6Z"/>
    </clipPath>
    <clipPath id="clippath-2">
      <path class="cls-12" d="M450,317.1c0,4.1-.3,8.1-1,11.9-2.9,17.3-12,29.9-22.8,29.9s-1.9-.1-2.9-.3c-11.7-2.5-20.9-20.1-20.9-41.5s10.6-31.2,23.7-31.2,23.7,8.2,23.7,31.2Z"/>
    </clipPath>
  </defs>
  <g id="Background_Simple" data-name="Background Simple">
    <g>
      <path class="cls-5" d="M481.7,245.8c0,9.6-1,19.2-3.3,28.5-.8,3.1-1.6,6.1-2.7,9.1-.3.9-.6,1.7-.9,2.6-.3.7-.5,1.4-.8,2.1,0,.2-.1.4-.2.6-.3.7-.6,1.4-.9,2.1,0,.1-.1.2-.2.4-.3.7-.6,1.4-.9,2.1-.1.3-.3.6-.4.9-.3.6-.6,1.2-.9,1.8-.3.6-.6,1.3-1,1.9-.1.2-.2.5-.4.7-.3.5-.6,1.1-.8,1.6-.2.4-.5.9-.7,1.3-1.1,2-2.2,3.9-3.3,5.8-.5.8-1,1.6-1.4,2.3-.1.2-.2.4-.4.6-.6.9-1.1,1.8-1.7,2.6-.5.7-.9,1.4-1.4,2.1-.4.6-.8,1.2-1.3,1.9,0,.1-.2.3-.3.4-.4.6-.9,1.3-1.4,1.9-.6.8-1.1,1.6-1.7,2.3-.1.2-.2.3-.4.5-.6.9-1.3,1.8-2,2.6-.4.5-.8,1-1.2,1.6-.7,1-1.5,1.9-2.2,2.8-.7.9-1.4,1.8-2.2,2.7,0,.1-.2.2-.2.3-.7.9-1.4,1.8-2.2,2.7-.2.3-.4.5-.7.8-.7.8-1.4,1.6-2,2.4-2,2.3-3.9,4.6-5.9,6.9-4.1,4.7-8.2,9.3-12.4,13.9-3.5,3.8-7.1,7.6-10.7,11.3-17.4,17.9-36.3,34.6-56.8,47.9-2.5,1.6-5.1,3.3-7.7,4.8-.9.6-1.9,1.1-2.9,1.7-.2,0-.3.2-.5.3-1,.6-2,1.1-2.9,1.6-1,.6-2,1.1-3,1.6l-1.4.7c-2,1-4,2-6,3-1.1.5-2.2,1-3.3,1.5-1,.5-2,.9-3,1.4-.4.2-.8.4-1.2.5-.9.4-1.9.8-2.8,1.2-1.8.7-3.6,1.4-5.5,2.1-.7.3-1.4.5-2.1.8-.4.1-.8.3-1.2.4-.7.2-1.3.4-2,.6-.6.2-1.1.4-1.7.5,0,0,0,0,0,0-1.1.4-2.3.7-3.4,1-1.8.5-3.6,1-5.4,1.5-1.2.3-2.4.6-3.6.9-1.1.3-2.3.5-3.4.7,0,0-.2,0-.3,0-1.2.2-2.4.5-3.6.7-.6.1-1.2.2-1.8.3s-1.2.2-1.8.3c-.5,0-1.1.2-1.7.2-.7.1-1.4.2-2,.3-7.1.9-14.2,1.3-21.4,1.2-.4,0-.9,0-1.3,0-6.5-.1-12.9-.6-19.3-1.5-.5,0-.9-.1-1.4-.2-.8-.1-1.6-.2-2.4-.3l-1.9-.3c-2.7-.4-5.3-.9-8-1.4-.6-.1-1.2-.2-1.8-.4-1.8-.4-3.6-.8-5.3-1.2-1.2-.3-2.4-.6-3.6-.9s-1.2-.3-1.8-.5c-.6-.1-1.2-.3-1.8-.5-2.4-.6-4.7-1.3-7-2-2.7-.8-5.4-1.7-8.1-2.6-1-.3-1.9-.7-2.9-1-3-1.1-6-2.2-9-3.4-.5-.2-1.1-.4-1.6-.7-.4-.2-.9-.4-1.3-.6-.3-.1-.6-.3-.9-.4-1.9-.9-4.1-1.9-6.3-3.1-.4-.2-.8-.4-1.2-.6-1.4-.7-2.8-1.5-4.3-2.3-3.1-1.7-6.5-3.6-10-5.7-40-23.5-101.3-67.7-115.6-84.5-.7-.9-1.4-1.7-2.2-2.6-.5-.7-1.1-1.4-1.6-2.1-.5-.6-1-1.3-1.4-1.9-.4-.6-.8-1.1-1.2-1.7-.4-.5-.8-1.1-1.1-1.6,0,0,0,0,0-.1-.5-.7-.9-1.3-1.3-2-.4-.6-.8-1.3-1.2-2-.2-.3-.4-.6-.6-1-.4-.7-.9-1.5-1.3-2.2t0,0c-.5-.8-.9-1.6-1.4-2.5-.8-1.5-1.5-2.9-2.2-4.4-.2-.4-.4-.8-.5-1.2-1.4-3-2.7-6.1-3.7-9.3-.4-1.1-.7-2.2-1.1-3.3-.4-1.4-.8-2.9-1.2-4.3,0-.3-.1-.6-.2-.9-.2-.8-.3-1.5-.5-2.3-.2-1.1-.4-2.1-.6-3.2,0-.3,0-.5-.1-.8,0-.6-.2-1.1-.2-1.7,0-.7-.2-1.3-.2-2,0-.2,0-.4,0-.7,0-.6-.1-1.1-.1-1.7,0,0,0-.1,0-.1,0-.7,0-1.3-.1-2,0,0,0-.1,0-.2,0-.7,0-1.4,0-2.1,0-.3,0-.5,0-.8,0-.4,0-.8,0-1.2,0-1,0-2.1.1-3.1,0-.7,0-1.4.2-2,.1-1.3.3-2.7.5-4,.1-.7.2-1.4.3-2,.2-1.3.5-2.7.9-4,.9-3.5,2.1-7,3.5-10.2,1.1-2.5,2.3-5,3.6-7.3.1-.2.2-.4.3-.6,5.4-9.5,12.7-17.9,21-25.7.9-.8,1.8-1.7,2.7-2.5,1-.9,1.9-1.7,2.9-2.6,0,0,.1-.1.2-.2,1.6-1.4,3.1-2.7,4.7-4,2.4-2.1,4.9-4.1,7.4-6.1,0,0,.2-.1.2-.2,2.1-1.7,4.3-3.4,6.5-5.1,3.4-2.6,6.8-5.2,10.1-7.9.9-.7,1.8-1.4,2.6-2.1,1-.8,1.9-1.5,2.9-2.3,9-7.2,16.7-14.8,23.9-22.6,1.4-1.5,2.8-3.1,4.1-4.6.6-.7,1.3-1.5,1.9-2.2,9.1-10.4,17.6-20.9,27.1-30.8,2.2-2.4,4.6-4.7,6.9-7,2-1.9,4-3.8,6.1-5.6,2.4-2.1,4.9-4.2,7.5-6.2,3.6-2.8,7.3-5.4,11.3-7.9,1-.6,2-1.2,2.9-1.8,99.7-62,173.1-41.7,222.1,0,3.7,3.1,7.2,6.4,10.7,9.8,2.1,2,4.1,4.1,6,6.2.2.2.4.5.6.7,1.4,1.5,2.7,2.9,4,4.4.4.4.8.9,1.2,1.3.6.7,1.1,1.3,1.7,2,.7.8,1.4,1.6,2.1,2.4.4.5.8,1,1.3,1.6,2.7,3.4,5.3,6.8,7.8,10.2.5.7,1,1.4,1.5,2.1,3.4,4.8,6.6,9.7,9.5,14.5.4.7.8,1.4,1.2,2.1.4.7.8,1.4,1.2,2.1.4.7.8,1.4,1.2,2.1.4.7.8,1.4,1.2,2s.8,1.4,1.1,2.1c.4.7.8,1.4,1.1,2,.4.7.7,1.4,1.1,2s.7,1.3,1.1,2c.3.7.7,1.3,1,2,.3.7.7,1.3,1,2,1.3,2.6,2.5,5.2,3.7,7.8.6,1.3,1.2,2.6,1.7,3.9,2.5,5.7,4.6,11.2,6.4,16.3,0,0,0,0,0,0,.2.5.3,1,.5,1.4.2.5.3,1,.5,1.5.1.4.2.8.4,1.1.2.6.4,1.1.5,1.7.2.6.4,1.2.5,1.8.3,1.1.6,2.2,1,3.4.3.9.5,1.9.8,2.9,0,.2.1.4.1.5,0,.2,0,.3.1.5.1.6.3,1.1.4,1.7.4,1.5.7,3,1,4.5.2.8.3,1.6.5,2.4,0,.2,0,.3,0,.5.1.8.3,1.5.4,2.3.2,1,.4,2.1.5,3.1.1.8.2,1.6.4,2.4,0,.1,0,.2,0,.4,0,.5.1,1,.2,1.6,0,.4.1.9.2,1.3.2,1.6.3,3.2.5,4.8v1.1c.1.6.2,1.2.2,1.8,0,.7,0,1.3.1,2,0,.5,0,1,0,1.6,0,.8,0,1.5,0,2.3,0,.9,0,1.8,0,2.7Z"/>
      <g class="cls-10">
        <path class="cls-6" d="M481.7,245.8c0,9.6-1,19.2-3.3,28.5-.8,3.1-1.6,6.1-2.7,9.1-.3.9-.6,1.7-.9,2.6-.3.7-.5,1.4-.8,2.1,0,.2-.1.4-.2.6-.3.7-.6,1.4-.9,2.1,0,.1-.1.2-.2.4-.3.7-.6,1.4-.9,2.1-.1.3-.3.6-.4.9-.3.6-.6,1.2-.9,1.8-.3.6-.6,1.3-1,1.9-.1.2-.2.5-.4.7-.3.5-.6,1.1-.8,1.6-.2.4-.5.9-.7,1.3-1.1,2-2.2,3.9-3.3,5.8-.5.8-1,1.6-1.4,2.3-.1.2-.2.4-.4.6-.6.9-1.1,1.8-1.7,2.6-.5.7-.9,1.4-1.4,2.1-.4.6-.8,1.2-1.3,1.9,0,.1-.2.3-.3.4-.4.6-.9,1.3-1.4,1.9-.6.8-1.1,1.6-1.7,2.3-.1.2-.2.3-.4.5-.6.9-1.3,1.8-2,2.6-.4.5-.8,1-1.2,1.6-.7,1-1.5,1.9-2.2,2.8-.7.9-1.4,1.8-2.2,2.7,0,.1-.2.2-.2.3-.7.9-1.4,1.8-2.2,2.7-.2.3-.4.5-.7.8-.7.8-1.4,1.6-2,2.4-2,2.3-3.9,4.6-5.9,6.9-4.1,4.7-8.2,9.3-12.4,13.9-3.5,3.8-7.1,7.6-10.7,11.3-17.4,17.9-36.3,34.6-56.8,47.9-2.5,1.6-5.1,3.3-7.7,4.8-.9.6-1.9,1.1-2.9,1.7-.2,0-.3.2-.5.3-1,.6-2,1.1-2.9,1.6-1,.6-2,1.1-3,1.6l-1.4.7c-2,1-4,2-6,3-1.1.5-2.2,1-3.3,1.5-1,.5-2,.9-3,1.4-.4.2-.8.4-1.2.5-.9.4-1.9.8-2.8,1.2-1.8.7-3.6,1.4-5.5,2.1-.7.3-1.4.5-2.1.8-.4.1-.8.3-1.2.4-.7.2-1.3.4-2,.6-.6.2-1.1.4-1.7.5,0,0,0,0,0,0-1.1.4-2.3.7-3.4,1-1.8.5-3.6,1-5.4,1.5-1.2.3-2.4.6-3.6.9-1.1.3-2.3.5-3.4.7,0,0-.2,0-.3,0-1.2.2-2.4.5-3.6.7-.6.1-1.2.2-1.8.3s-1.2.2-1.8.3c-.5,0-1.1.2-1.7.2-.7.1-1.4.2-2,.3-7.1.9-14.2,1.3-21.4,1.2-.4,0-.9,0-1.3,0-6.5-.1-12.9-.6-19.3-1.5-.5,0-.9-.1-1.4-.2-.8-.1-1.6-.2-2.4-.3l-1.9-.3c-2.7-.4-5.3-.9-8-1.4-.6-.1-1.2-.2-1.8-.4-1.8-.4-3.6-.8-5.3-1.2-1.2-.3-2.4-.6-3.6-.9s-1.2-.3-1.8-.5c-.6-.1-1.2-.3-1.8-.5-2.4-.6-4.7-1.3-7-2-2.7-.8-5.4-1.7-8.1-2.6-1-.3-1.9-.7-2.9-1-3-1.1-6-2.2-9-3.4-.5-.2-1.1-.4-1.6-.7-.4-.2-.9-.4-1.3-.6-.3-.1-.6-.3-.9-.4-1.9-.9-4.1-1.9-6.3-3.1-.4-.2-.8-.4-1.2-.6-1.4-.7-2.8-1.5-4.3-2.3-3.1-1.7-6.5-3.6-10-5.7-40-23.5-101.3-67.7-115.6-84.5-.7-.9-1.4-1.7-2.2-2.6-.5-.7-1.1-1.4-1.6-2.1-.5-.6-1-1.3-1.4-1.9-.4-.6-.8-1.1-1.2-1.7-.4-.5-.8-1.1-1.1-1.6,0,0,0,0,0-.1-.5-.7-.9-1.3-1.3-2-.4-.6-.8-1.3-1.2-2-.2-.3-.4-.6-.6-1-.4-.7-.9-1.5-1.3-2.2t0,0c-.5-.8-.9-1.6-1.4-2.5-.8-1.5-1.5-2.9-2.2-4.4-.2-.4-.4-.8-.5-1.2-1.4-3-2.7-6.1-3.7-9.3-.4-1.1-.7-2.2-1.1-3.3-.4-1.4-.8-2.9-1.2-4.3,0-.3-.1-.6-.2-.9-.2-.8-.3-1.5-.5-2.3-.2-1.1-.4-2.1-.6-3.2,0-.3,0-.5-.1-.8,0-.6-.2-1.1-.2-1.7,0-.7-.2-1.3-.2-2,0-.2,0-.4,0-.7,0-.6-.1-1.1-.1-1.7,0,0,0-.1,0-.1,0-.7,0-1.3-.1-2,0,0,0-.1,0-.2,0-.7,0-1.4,0-2.1,0-1.7,0-3.5.1-5.2,0-.7,0-1.4.2-2,.1-1.3.3-2.7.5-4,.1-.7.2-1.4.3-2,.2-1.3.5-2.7.9-4,.9-3.5,2.1-7,3.5-10.2,1.1-2.5,2.3-5,3.6-7.3.1-.2.2-.4.3-.6,5.4-9.5,12.7-17.9,21-25.7.5-.4.9-.9,1.4-1.3l1.3-1.1c1-.9,1.9-1.7,2.9-2.6,0,0,.1-.1.2-.2,1.6-1.4,3.1-2.7,4.7-4,2.4-2.1,4.9-4.1,7.4-6.1,0,0,.2-.1.2-.2,2.1-1.7,4.3-3.4,6.5-5.1,1.1-.8,2.2-1.7,3.3-2.5,2.3-1.8,4.6-3.6,6.9-5.3.9-.7,1.8-1.4,2.6-2.1,1-.8,1.9-1.5,2.9-2.3,9-7.2,16.7-14.8,23.9-22.6,1.4-1.5,2.8-3.1,4.1-4.6.6-.7,1.3-1.5,1.9-2.2,9.1-10.4,17.6-20.9,27.1-30.8,2.2-2.4,4.6-4.7,6.9-7,2-1.9,4-3.8,6.1-5.6,2.4-2.1,4.9-4.2,7.5-6.2,3.6-2.8,7.3-5.4,11.3-7.9,1-.6,2-1.2,2.9-1.8,99.7-62,173.1-41.7,222.1,0,3.7,3.1,7.2,6.4,10.7,9.8,2.1,2,4.1,4.1,6,6.2.2.2.4.5.6.7,1.4,1.5,2.7,2.9,4,4.4.4.4.8.9,1.2,1.3.6.7,1.1,1.3,1.7,2,.7.8,1.4,1.6,2.1,2.4.4.5.8,1,1.3,1.6,2.7,3.4,5.3,6.8,7.8,10.2.5.7,1,1.4,1.5,2.1,3.4,4.8,6.6,9.7,9.5,14.5.4.7.8,1.4,1.2,2.1.4.7.8,1.4,1.2,2.1.4.7.8,1.4,1.2,2.1.4.7.8,1.4,1.2,2s.8,1.4,1.1,2.1c.4.7.8,1.4,1.1,2,.4.7.7,1.4,1.1,2s.7,1.3,1.1,2c.3.7.7,1.3,1,2,.3.7.7,1.3,1,2,1.3,2.6,2.6,5.2,3.7,7.8.6,1.3,1.2,2.6,1.7,3.9,2.5,5.7,4.6,11.2,6.4,16.3,0,0,0,0,0,0,.2.5.3,1,.5,1.4.2.5.3,1,.5,1.5.1.4.2.8.4,1.1.2.6.4,1.1.5,1.7.2.6.4,1.2.5,1.8.3,1.1.6,2.2,1,3.4.3.9.5,1.9.8,2.9,0,.2.1.4.1.5,0,.2,0,.3.1.5.1.6.3,1.1.4,1.7.4,1.5.7,3,1,4.5.2.8.3,1.6.5,2.4,0,.2,0,.3,0,.5.1.8.3,1.5.4,2.3.2,1,.4,2.1.5,3.1.1.8.2,1.6.4,2.4,0,.1,0,.2,0,.4,0,.5.1,1,.2,1.6,0,.4.1.9.2,1.3.2,1.6.3,3.2.5,4.8v1.1c.1.6.2,1.2.2,1.8,0,.7,0,1.3.1,2,0,.5,0,1,0,1.6,0,.8,0,1.5,0,2.3,0,.9,0,1.8,0,2.7Z"/>
      </g>
    </g>
  </g>
  <g id="Plants">
    <path class="cls-3" d="M32.1,262.3c-.2-.1-.2-.2,0,0h0Z"/>
    <g>
      <path class="cls-9" d="M125.7,253.4c-1,6.8-6,12.3-12.6,14.5l-2.5.8c-8.9,12.6-24.6,18-37.9,10.2l-3.9-2.3-10.9-13s0,0-.1,0c-3.5.7-7.4.2-9.9-2.2-.4,2.1-3.2,3.4-5.1,2.3s-2.1-4.2-.4-5.5c-2.2,1.9-5.6,1-7.7-1.1,0-5.8.5-11.6,1.9-17.3.9-3.6,2.1-7,3.5-10.2,1.1-2.5,2.3-5,3.6-7.3.1-.2.2-.4.3-.6,2-3.5,4.2-6.8,6.7-10l1.3-1.1c1-.9,1.9-1.7,2.9-2.6,0,0,.1-.1.2-.2,1.6-1.4,3.1-2.7,4.7-4,2.4-2.1,4.9-4.1,7.4-6.1,0,0,.2-.1.2-.2,2.1-1.7,4.3-3.4,6.5-5.1,1.1-.8,2.2-1.7,3.3-2.5.7,0,1.3.2,1.9.4,2.7.9,3.1,3.4,5,5.1,2.5,2.2,4.8-1.5,8.6-1.4,11.6.4,7.1,12.3,12.8,10.8,24.6-6.5,20.4,24.9,9.8,31.9,6.3,5.2,11.7,8.7,10.5,16.9Z"/>
      <g>
        <ellipse class="cls-12" cx="72.8" cy="242.4" rx="41.4" ry="40.9"/>
        <ellipse class="cls-2" cx="72.8" cy="240.7" rx="37.8" ry="37.3"/>
      </g>
      <g>
        <path class="cls-5" d="M32.2,255.4c-2.4,1.5-3.1,6.5-1.2,8.6,1.9,2.1,5.5.5,6.2-2.9.3.9,1.5,1.1,2,.3.4-.6.4-1.5.1-2.1-.2-.2-.1-.3,0,0,1.2,1,3.3,0,3.6-2.2-.9,5.5,4.1,10.3,7.8,7.5-1.1,2.3.3,5.4,2.2,6,1.9.6,3.9-.5,5.8-1.8,1.8-1.2,3.7-2.7,5.7-2.8,1.7,0,3.3.9,5,1.5,5.3,1.8,11.4-.6,15.4-6.1,2.7,4.5,9.2,2.9,11-2.8.4,2.7,2.2,4.7,4.2,4.7,2,0,4.1-1.9,4.8-4.6h0c0,2.5,2.3,3.8,3.9,2.2,2-2.1,3.3-5.8,2.3-8.9,2.7-.1,5.4-3.3,5.8-6.9.4-3.7-1.4-7.3-4.1-8.1,4.5-1.9,8-8,8.2-14.3.2-6.3-3.1-12.1-7.5-13.6-1.7-.6-3.7-.4-5.1,1.1-.5-3.6-2.1-6.8-4.5-8.4-3.8-2.6-9.1-.8-11.9,4,1.4-2.5,1.5-6,.2-8.4-1.3-2.3-3.8-3.3-5.9-2.2-.5-3.8-3.4-6.6-6.3-5.8-2.9.7-5.2,4.8-5,8.7-.3-3.1-4-3.9-5.3-1.3.1.2,0,0,0,0-1.8-3.9-5.6-5.8-9-4.7-3.7,1.2-6.8,5.8-7.3,10.9-2.5-2.3-6.3-2.2-9,.2-2.7,2.5-4.3,7.1-3.8,11.3-2.9-2.8-7.7-1.3-9.7,3.1-2,4.4-.6,10.6,2.7,12.4-2.3.3-4.3,3.4-4.3,6.5,0,3.1,2,5.7,4.3,5.6-2.3.2-4.5,2.9-4.8,6.1-.3,3.1,1.2,6.2,3.4,6.9Z"/>
        <g class="cls-22">
          <path class="cls-6" d="M70.3,241.1c-1.2-1-2.6-1.4-4-1-1.4.4-2.7,1.9-3,3.7-.3,1.8.5,3.8,1.9,4.1,1.7.4,3.4-1.5,5.1-1.3.6,0,1.2.4,1.8.6,2.5.7,5-1.5,7.1-3.6.7-.7,1.5-1.5,2-2.5.5-1,.7-2.3.3-3.3-.6-1.3-2.1-1.5-3.4-1.2-2.5.5-5,2-7,4.1,0-.5.1-1,.2-1.5l-.9,1.8Z"/>
          <path class="cls-6" d="M106.5,236.2c-.7-.6-1.3-1.1-2.1-1.3-.8-.2-1.7,0-2.3.9-.7,1.2-.3,2.9.6,3.8.9.8,2,1,3.1,1.2,1.1.2,2.6.1,3.2-1.2.4-1,.1-2.2-.5-2.9-.6-.7-1.4-1-2.2-1.3l.2.8Z"/>
          <g>
            <path class="cls-6" d="M49.9,215.7c-2.3,1.4-4.1,4.2-4.7,7.3-.2.9-.2,2.1.5,2.6.4.3,1,.1,1.6,0,2.2-.8,4.4-1.6,6.6-2.4-1.1.6-2.2,1.2-3,2.2-.9,1-1.5,2.5-1.2,3.9.3,1.6,1.7,2.5,3,2.4,1.3-.1,2.6-1,3.7-2.1,1.2-1.1,2.3-2.6,2.4-4.5,0-1.8-1.7-3.4-2.8-2.1,2.5-1,5-2.6,7.2-4.5.8-.7,1.6-1.5,2.1-2.6.5-1.1.7-2.4.3-3.4-2.2-5.1-5.2,2.8-6.6,3.5-2.7,1.5-5.6-2.3-8.9-.3Z"/>
            <path class="cls-6" d="M39.2,238.7c-.3,1-.1,2.3.5,2.9.6.6,1.8.3,2.1-.7-1.5.7-3.1,1.4-4,3.1-.9,1.6-.8,4.4.7,4.9.9.3,1.9-.3,2.8-.9,2.4-1.8,4.7-3.9,6.9-6.1-.7,2,.8,4.1,2.5,4.1,1.6,0,3.2-1.1,4.6-2.3,1.8-1.4,3.8-3.6,3.4-6.1-.4-2.2-2.5-3-4.2-2.3-1.7.7-3,2.6-4.2,4.3,1-1.8-.3-4.3-1.9-4.4-1.6-.2-3.2,1.1-4.2,2.7,1.9-1.4,2.3-4.8-.1-5-1.6-.2-4.4,4.2-4.8,5.9Z"/>
            <path class="cls-6" d="M89.8,228.1c-1.4-.6-3.1.7-3.5,2.5-.4,1.8.6,3.9,2.1,4.1-1.1.2-2.1.9-2.8,2-.4.6-.7,1.4-.6,2.1.1,1.1,1,1.8,1.9,1.8.9,0,1.8-.6,2.6-1.1-.9.2-1.8.3-2.5,1.1-.7.7-1,2.2-.4,3,.5.6,1.4.5,2.1.2,1.6-.7,3.1-1.8,4.4-3.4.9,1.2,2.2,2.1,3.6,1.7,1.4-.4,2.5-2.3,2.1-3.9-.3-1.2-1.2-1.8-2.2-1.9-1,0-1.9.3-2.9.7,1-.9,2-1.9,2.4-3.4.4-1.4-.3-3.3-1.5-3.1-1.3.2-2,2.5-3.1,3.4-1.2-1.4,1.2-4.8-1.6-5.9Z"/>
            <path class="cls-6" d="M66.4,222.6c-1.5,1.4-2.1,3.9-2,6.2,0,2.5.9,5.2,2.7,6.1,2.4,1.2,5.4-1.5,5.9-4.8.5-3.3-1.1-6.5-3.4-7.9,0,0-1.7-.9-3.2.5Z"/>
            <path class="cls-6" d="M83.1,218.9c.2.2.4.4.6.6-1-1.6-3.1-1.7-4.3-.2-1.2,1.5-1.3,4.2-.1,5.6,1.2,1.3,3.3,1,4.4-.7,1.7.9,4,.4,5.2-1.6,1.2-1.9,1-5.2-.6-6.3-1.6-1.1-4.2.9-4,3.3-.2-.3-.5-.6-.7-1l-.4.2Z"/>
            <path class="cls-6" d="M101.4,221.5c-1.2,1.6-2.5,3.2-2.9,5.3-.5,2.1.2,4.6,1.8,5,1.6.4,3.1-1.4,4.1-3.2.8-1.6,1.5-3.6,1.1-5.4-.4-1.8-2.4-2.7-3.5-1.3l-.5-.5Z"/>
            <path class="cls-6" d="M75.1,210.8c-.6-1.7-2.5-2.2-3.7-1.1-1.3,1.1-1.8,3.3-1.3,5,.5,1.7,1.9,2.8,3.3,2.9,1.8.1,4-1.9,3.6-4.1.8,1.3,2.1,1.7,3.4,1.5,1.3-.2,2.5-1.1,3.6-1.9,1.5-1.2,3.2-3,3.1-5.2,0-1.8-1.4-3-2.8-3.1-1.4,0-2.8.8-3.9,2-.9,1-1.6,2.1-2.5,3-.9.9-2.2,1.4-3.1.7v.3Z"/>
          </g>
        </g>
      </g>
    </g>
  </g>
  <g id="Keyboard">
    <g>
      <g>
        <rect class="cls-19" x="145.7" y="272.8" width="230.7" height="97.1"/>
        <g>
          <rect class="cls-12" x="150.5" y="278.6" width="21.7" height="12"/>
          <rect class="cls-12" x="336.8" y="337.2" width="34.2" height="12"/>
          <rect class="cls-12" x="349.9" y="293.6" width="21.1" height="12"/>
          <rect class="cls-12" x="150.5" y="322.4" width="21.7" height="12"/>
          <rect class="cls-12" x="150.5" y="307.9" width="17.6" height="12"/>
          <g>
            <rect class="cls-12" x="150.5" y="293.3" width="12" height="12"/>
            <rect class="cls-12" x="165.8" y="293.3" width="12" height="12"/>
            <rect class="cls-12" x="181.2" y="293.3" width="12" height="12"/>
            <rect class="cls-12" x="196.5" y="293.3" width="12" height="12"/>
            <rect class="cls-12" x="211.8" y="293.3" width="12" height="12"/>
            <rect class="cls-12" x="227.2" y="293.3" width="12" height="12"/>
            <rect class="cls-12" x="242.5" y="293.3" width="12" height="12"/>
            <rect class="cls-12" x="257.8" y="293.3" width="12" height="12"/>
            <rect class="cls-12" x="273.2" y="293.3" width="12" height="12"/>
            <rect class="cls-12" x="288.5" y="293.3" width="12" height="12"/>
            <rect class="cls-12" x="303.8" y="293.3" width="12" height="12"/>
            <rect class="cls-12" x="319.2" y="293.3" width="12" height="12"/>
            <rect class="cls-12" x="334.5" y="293.3" width="12" height="12"/>
          </g>
          <g>
            <rect class="cls-12" x="150.5" y="352" width="12" height="12"/>
            <rect class="cls-12" x="165.8" y="352" width="12" height="12"/>
            <rect class="cls-12" x="181.2" y="352" width="12" height="12"/>
            <rect class="cls-12" x="196.5" y="352" width="14.7" height="12"/>
            <rect class="cls-12" x="214.5" y="352" width="73.3" height="12"/>
            <rect class="cls-12" x="312.5" y="352" width="12" height="12"/>
            <rect class="cls-12" x="327.8" y="352" width="12" height="12"/>
            <rect class="cls-12" x="343.2" y="352" width="12" height="12"/>
            <rect class="cls-12" x="290.8" y="352" width="18.7" height="12"/>
            <rect class="cls-12" x="359" y="352" width="12" height="12"/>
          </g>
          <g>
            <rect class="cls-12" x="171.5" y="307.9" width="12" height="12"/>
            <rect class="cls-12" x="186.8" y="307.9" width="12" height="12"/>
            <rect class="cls-12" x="202.1" y="307.9" width="12" height="12"/>
            <rect class="cls-12" x="217.5" y="307.9" width="12" height="12"/>
            <rect class="cls-12" x="232.8" y="307.9" width="12" height="12"/>
            <rect class="cls-12" x="248.1" y="307.9" width="12" height="12"/>
            <rect class="cls-12" x="263.5" y="307.9" width="12" height="12"/>
            <rect class="cls-12" x="278.8" y="307.9" width="12" height="12"/>
            <rect class="cls-12" x="294.1" y="307.9" width="12" height="12"/>
            <rect class="cls-12" x="309.5" y="307.9" width="12" height="12"/>
            <rect class="cls-12" x="324.8" y="307.9" width="12" height="12"/>
            <rect class="cls-12" x="340.2" y="307.9" width="12" height="12"/>
            <polygon class="cls-12" points="371 307.9 371 334.6 359 334.6 359 319.9 355.5 319.9 355.5 307.9 371 307.9"/>
          </g>
          <g>
            <rect class="cls-12" x="175" y="322.6" width="12" height="12"/>
            <rect class="cls-12" x="190.3" y="322.6" width="12" height="12"/>
            <rect class="cls-12" x="205.7" y="322.6" width="12" height="12"/>
            <rect class="cls-12" x="221" y="322.6" width="12" height="12"/>
            <rect class="cls-12" x="236.3" y="322.6" width="12" height="12"/>
            <rect class="cls-12" x="251.7" y="322.6" width="12" height="12"/>
            <rect class="cls-12" x="267" y="322.6" width="12" height="12"/>
            <rect class="cls-12" x="282.3" y="322.6" width="12" height="12"/>
            <rect class="cls-12" x="297.7" y="322.6" width="12" height="12"/>
            <rect class="cls-12" x="313" y="322.6" width="12" height="12"/>
            <rect class="cls-12" x="328.3" y="322.6" width="12" height="12"/>
            <rect class="cls-12" x="343.7" y="322.6" width="12" height="12"/>
          </g>
          <g>
            <rect class="cls-12" x="168.5" y="337.2" width="12" height="12"/>
            <rect class="cls-12" x="183.8" y="337.2" width="12" height="12"/>
            <rect class="cls-12" x="199.1" y="337.2" width="12" height="12"/>
            <rect class="cls-12" x="214.5" y="337.2" width="12" height="12"/>
            <rect class="cls-12" x="229.8" y="337.2" width="12" height="12"/>
            <rect class="cls-12" x="245.1" y="337.2" width="12" height="12"/>
            <rect class="cls-12" x="260.5" y="337.2" width="12" height="12"/>
            <rect class="cls-12" x="275.8" y="337.2" width="12" height="12"/>
            <rect class="cls-12" x="291.1" y="337.2" width="12" height="12"/>
            <rect class="cls-12" x="306.5" y="337.2" width="12" height="12"/>
            <rect class="cls-12" x="321.8" y="337.2" width="12" height="12"/>
          </g>
          <g>
            <rect class="cls-12" x="175" y="279.4" width="12" height="12"/>
            <rect class="cls-12" x="190.3" y="279.4" width="12" height="12"/>
            <rect class="cls-12" x="205.7" y="279.4" width="12" height="12"/>
            <rect class="cls-12" x="221" y="279.4" width="12" height="12"/>
            <rect class="cls-12" x="236.3" y="279.4" width="12" height="12"/>
            <rect class="cls-12" x="251.7" y="279.4" width="12" height="12"/>
            <rect class="cls-12" x="267" y="279.4" width="12" height="12"/>
            <rect class="cls-12" x="282.3" y="279.4" width="12" height="12"/>
            <rect class="cls-12" x="297.7" y="279.4" width="12" height="12"/>
            <rect class="cls-12" x="313" y="279.4" width="12" height="12"/>
            <rect class="cls-12" x="328.3" y="279.4" width="12" height="12"/>
            <rect class="cls-12" x="343.7" y="279.4" width="12" height="12"/>
            <rect class="cls-12" x="359" y="279.4" width="12" height="12"/>
          </g>
          <rect class="cls-12" x="150.5" y="337.2" width="14.6" height="12"/>
        </g>
      </g>
      <polygon class="cls-1" points="145.7 273.4 150.5 271.8 373.2 271.8 376.4 273.4 145.7 273.4"/>
    </g>
  </g>
  <g id="Hands">
    <g>
      <path class="cls-9" d="M310.3,440l-4.7-28.2c-1-4.2-3.2-8-6.3-11.1-9.3-9-21.7-18.2-22.2-30-.8-18-3.6-17.5-3.3-21.9,0-.2,1.4-2.1,3.2-6.6.6-1.4,1-3.6,1.4-5.3.4-1.9,2.2-3.1,4-2.9,1.3.2,2.5.7,3.4,1.6,1.7,1.7,2.5,4.1,2.5,6.5,0,2.4-.5,4.7-1,7.1,1.7,3.8,2.5,8.3,3,12.4,1.1-3.3,1.9-6.6,3-9.9.2-.1.1-.4.3-.5-1.5-3.2-.2-3.1-3.2-10.2-5-12-10.6-23.6-14.6-38.7-.3-1.2-.3-3.1,0-4.2,1.4-4.3,5.9-3.3,7.8-.8.5.7.9,1.4,1.2,2.2,2.1,5.4,6.4,13.6,9.6,18.4l10.9,16.6s3.8-3.1,4.4-4.5h0c.6-1.4.9-12.7.9-12.7,0,0-.9,2.1-2.8,2-1.4,0-4.2.7-6.2-1.5-1.6-1.8-1.6-4.6-.2-6.5l4.9-6.7s3.3-2.9,7.7-.9c4.4,2,8.7,6.1,8.7,6.1,0,0,4.1-.2,7.6,1.5,3.5,1.7,7.1,6.5,7.1,6.5,0,0,4.1.2,5.9,1.6.5.3,6.7,10,4.4,17.5-1.3,4.5-2.1,11-2.8,12.8l-3,44.1,6.1,29-13.1,7.3c-4.8,2.7-9.9,5-15.1,6.8l-9.6,3.3Z"/>
      <g>
        <g>
          <g>
            <path class="cls-20" d="M347.7,388.5v-44.2c.6-1.8,1-8.3,2-12.9,1.7-7.7-5.1-16.9-5.6-17.2-1.9-1.2-6-1.2-6-1.2,0,0-4-4.6-7.6-6-3.6-1.4-7.7-1-7.7-1,0,0-4.5-3.8-9.1-5.5-4.5-1.7-7.7,1.4-7.7,1.4l-4.5,7c-1.3,2.1-1.1,4.8.6,6.5,2.1,2.1,4.9,1.1,6.3,1.1s2.6-2.2,2.6-2.2c0,0,.5,11.3,0,12.7h0c-.5,1.4-4.1,4.8-4.1,4.8l-12-15.8c-3.5-4.6-8.4-12.6-10.8-17.8-.4-.8-.8-1.5-1.3-2.1-2.1-2.4-6.6-3.1-7.8,1.3-.3,1.2-.2,3.1.2,4.2,5,14.8,11.4,25.9,17.2,37.6,3.5,6.9,2.2,6.8,3.9,10-.2.1-.1.4-.3.5-.8,3.4-1.4,6.7-2.3,10.1-.8-4-1.9-8.5-3.8-12.2.4-2.4.8-4.7.5-7.1-.2-2.4-1.1-4.8-3-6.3-.9-.8-2.2-1.3-3.5-1.4-1.9-.1-3.6,1.2-3.8,3.1-.3,1.8-.5,3.9-1,5.4-1.5,4.6-2.8,6.6-2.8,6.8,0,4.5,2.8,3.7,4.8,21.7,1.6,14,19.6,23.2,29.4,33.3l10.4,32.9c12.1-4.9,23.7-11.1,34.9-18.3l-8.3-29.3Z"/>
            <g class="cls-24">
              <g>
                <g>
                  <path class="cls-5" d="M342.5,328.4c.5-1.3,1.2-2.6,2.3-3.5s2.9-.9,3.8.1c-.7-2.3-1.5-4.6-2.4-6.8-.6-1.7-1.4-3.5-2.8-4.7s-3.8-1.4-5,0c.9,5.2,1,10.6.3,15.8-.4,2.8-.8,6.1,1.1,8.2.5.4,1.4-.3,1.1-.9-.2-.3-.7-.3-1-.3.6-2.7,1.5-5.4,2.5-8Z"/>
                  <path class="cls-5" d="M342.5,328.4c.5-1.3,1.2-2.6,2.3-3.5s2.9-.9,3.8.1c-.7-2.3-1.5-4.6-2.4-6.8-.6-1.7-1.4-3.5-2.8-4.7s-3.8-1.4-5,0c.9,5.2,1,10.6.3,15.8-.4,2.8-.8,6.1,1.1,8.2.5.4,1.4-.3,1.1-.9-.2-.3-.7-.3-1-.3.6-2.7,1.5-5.4,2.5-8Z"/>
                  <path class="cls-7" d="M342.5,328.4c.5-1.3,1.2-2.6,2.3-3.5s2.9-.9,3.8.1c-.7-2.3-1.5-4.6-2.4-6.8-.6-1.7-1.4-3.5-2.8-4.7s-3.8-1.4-5,0c.9,5.2,1,10.6.3,15.8-.4,2.8-.8,6.1,1.1,8.2.5.4,1.4-.3,1.1-.9-.2-.3-.7-.3-1-.3.6-2.7,1.5-5.4,2.5-8Z"/>
                </g>
                <g>
                  <path class="cls-5" d="M326.6,323.7c0,1.9,0,3.9.5,5.7.5,1.9,1.5,3.7,3.2,4.6-1-3.7-.5-7.7,0-11.5.3-2.3.7-4.6,1-7,.1-.8.2-1.6.7-2.3s1.4-1.1,2.1-.8c-1,.6-2.3-.2-2.9-1.2-.6-1-.8-2.2-1.5-3.1-1.3-1.7-4.2-2.1-6.2-1.6.6,5.7,2.7,11.2,3,17.1Z"/>
                  <path class="cls-5" d="M326.6,323.7c0,1.9,0,3.9.5,5.7.5,1.9,1.5,3.7,3.2,4.6-1-3.7-.5-7.7,0-11.5.3-2.3.7-4.6,1-7,.1-.8.2-1.6.7-2.3s1.4-1.1,2.1-.8c-1,.6-2.3-.2-2.9-1.2-.6-1-.8-2.2-1.5-3.1-1.3-1.7-4.2-2.1-6.2-1.6.6,5.7,2.7,11.2,3,17.1Z"/>
                  <g class="cls-11">
                    <path class="cls-6" d="M326.6,323.7c0,1.9,0,3.9.5,5.7.5,1.9,1.5,3.7,3.2,4.6-1-3.7-.5-7.7,0-11.5.3-2.3.7-4.6,1-7,.1-.8.2-1.6.7-2.3s1.4-1.1,2.1-.8c-1,.6-2.3-.2-2.9-1.2-.6-1-.8-2.2-1.5-3.1-1.3-1.7-4.2-2.1-6.2-1.6.6,5.7,2.7,11.2,3,17.1Z"/>
                  </g>
                </g>
                <g>
                  <g>
                    <path class="cls-5" d="M310.3,308.3c-.6-.5-.9-1.3-1.1-2.1-.2-.8-.5-1.6-1.2-2-3.1,1.9-1.4,7.7-4.5,9.6-.6.4-1.4.6-1.7,1.2-.3.6-.1,1.3.3,1.8.4.5,1.1.7,1.7.8,2.5.4,5.1-.8,6.5-2.8,1.2-1.7,2.1-4.4,1.5-6.4-.5.3-1.1.4-1.6,0Z"/>
                    <path class="cls-5" d="M278.3,345.6c0,.2,0,.5,0,.6.3.2.6-.1.8-.4,1.3-1.8,3.8-2.7,6-1.9.8,0,1.1-1.2.6-1.9s-1.4-.7-2.2-.7c-.8,0-1.7,0-2.4-.4-.8-.5-1.2-1.6-1-2.5-.5,2.4-1.2,4.8-1.8,7.2Z"/>
                  </g>
                  <g class="cls-11">
                    <path class="cls-6" d="M310.3,308.3c-.6-.5-.9-1.3-1.1-2.1-.2-.8-.5-1.6-1.2-2-3.1,1.9-1.4,7.7-4.5,9.6-.6.4-1.4.6-1.7,1.2-.3.6-.1,1.3.3,1.8.4.5,1.1.7,1.7.8,2.5.4,5.1-.8,6.5-2.8,1.2-1.7,2.1-4.4,1.5-6.4-.5.3-1.1.4-1.6,0Z"/>
                    <path class="cls-6" d="M278.3,345.6c0,.2,0,.5,0,.6.3.2.6-.1.8-.4,1.3-1.8,3.8-2.7,6-1.9.8,0,1.1-1.2.6-1.9s-1.4-.7-2.2-.7c-.8,0-1.7,0-2.4-.4-.8-.5-1.2-1.6-1-2.5-.5,2.4-1.2,4.8-1.8,7.2Z"/>
                  </g>
                </g>
                <g>
                  <path class="cls-5" d="M319.1,307.5c-1.7-.2-3.6-.3-5.1-1.2-1.9-1.1-3.2-3.5-5.4-3.6-2,0-3.4,1.7-4.5,3.3-.1-2.4,1.7-4.7,3.9-5.6,2.3-.9,4.9-.6,7.2.3,2.3.9,4.3,2.4,6.2,3.9.8.6,1.6,1.2,2.1,2,2.5,3.9-2.8,1.1-4.3.9Z"/>
                  <path class="cls-7" d="M319.1,307.5c-1.7-.2-3.6-.3-5.1-1.2-1.9-1.1-3.2-3.5-5.4-3.6-2,0-3.4,1.7-4.5,3.3-.1-2.4,1.7-4.7,3.9-5.6,2.3-.9,4.9-.6,7.2.3,2.3.9,4.3,2.4,6.2,3.9.8.6,1.6,1.2,2.1,2,2.5,3.9-2.8,1.1-4.3.9Z"/>
                </g>
              </g>
              <g>
                <path class="cls-5" d="M287.8,364.3c.1-.2.2-.4.3-.7-.2.2-.3.4-.3.7Z"/>
                <path class="cls-5" d="M290.7,348.8c-.2-2.5.2-4.9,0-7.4-.1-2.5-.7-5.1-2.5-6.8-2.6-2.4-9.6-1.2-7.3,3.4.7,1.3,2.4,1.9,3.7,1.4s2-2.4,1.2-3.6c2.9,4.3,2.6,10.5-.6,14.6,3.7,3.2,4.8,8.9,2.8,13.3.4-.3,1.2-.4,1.6,0,.7.5.9,1.5,1.3,2.3.3.8,1,1.6,1.9,1.6,1.2-2.9.8-6.3,0-9.4-.8-3.1-1.9-6.1-2.2-9.3Z"/>
                <path class="cls-5" d="M316.6,302.4c-1.4-1.1-3-1.8-4.7-2l4.7,2Z"/>
                <path class="cls-5" d="M328.4,333.7c-.4-1.7-1.2-3.3-1.6-5-1.1-3.9-.4-8.1-.9-12.1-.6-5.2-3.4-10.1-7.4-13.5l-1.8-.8c1.7,1.3,3,3.2,3.6,5.2,1.4,4.8,1.8,9.8,2.4,14.7.9,7.6,2.3,15.2,4.2,22.6,1.2-3.6,2.4-7.5,1.6-11.3Z"/>
                <path class="cls-5" d="M309.3,315.9c1.2-1,1.9-2.5,2.1-4.1.2-1.4,0-2.8-.1-4.2-.1.6-.9,1.1-1.6.9-.9-.2-1.4-1-1.9-1.7-.1.4-.2.8-.4,1.3,0-.2,0-.5-.1-.7l-.5.6c.7,2,1.4,4.3.3,6.2-.5.9-1.4,1.5-2.3,2.1,1.3.9,3.2.7,4.4-.3Z"/>
                <path class="cls-5" d="M311.3,307.1c0,.2,0,.3,0,.5,0-.2,0-.3,0-.5Z"/>
                <path class="cls-5" d="M306.1,327.3c-3.5-6.9-7-13.8-10.9-20.5-2.3-3.9-4.6-7.8-7.6-11.2-1.3-1.5-5.2-5-7.3-2.7-1.4,1.5.4,4.3-1.3,5.9.4,0,2.4-.2,2.6,0,4.4,5.4,6.8,12.4,6.7,19.4,1.4-1.1,3.3.4,4.4,1.8,6.8,8.7,13.1,17.8,19,27.1-1.1-4.1-1.2-8.5-2.4-12.6-.8-2.6-2-5-3.2-7.4Z"/>
                <path class="cls-5" d="M346.8,344.1c1.7-4.5,3-9.1,3.1-13.8.1-4.3-.9-8.8-3.1-12.5-.6-.9-3-4.8-4.3-4.5-2.3.6.7,4.6,1.3,5.7,2,3.8,4.1,7.9,4,12.3-.1,3.4-1.5,6.5-2.6,9.7-.8,2.2-1.4,4.6-1.4,6.9-.2.3-.3.5-.5.8-1.6,2-3.7,3.7-6.3,4.1,1-3,1.9-6,2.9-8.9.3-1.1.5-2.5-.1-3.3.2-.4.3-.8.3-1.3,0-.8-.5-1.6-.8-2.3-1.3-2.9-.9-6.2-.6-9.4.4-3.9.6-7.9-.6-11.7-1.1-3.7-3.8-7.2-7.5-8.5.3.3.6.7,1,1l-1.3-.9c.8,1.6,1.6,3.2,2.3,4.9-.3.4-.6.8-.9,1.2,1.3-.7,2.9.3,3.5,1.6.6,1.3.4,2.9.3,4.3-.8,8.1-.4,16.3,1.2,24.3-.1,1.9-.5,3.7-1.4,5.3-1,1.7-3,3-5,2.7.4-1.9-.3-4.2-1.9-5.3-2,2.8-.8,7.1-.5,10.3.5,4.8,1.2,9.6,2.3,14.4.3-4.1,1.2-8.2,2.6-12,1.1,3.9,2.2,7.9,3.3,11.8,0-1.1,0-2.3.6-3.2s1.7-1.7,2.8-1.3c.8.3,1.3,1.2,1.7,2.1,2.8,6.8,3.5,14.4,2,21.6,1.3.7,3.1-.2,3.9-1.5.7-1.3.7-3,.7-4.5-.2-13.3-.5-26.7-.7-40Z"/>
                <path class="cls-5" d="M312.9,348.4c-.6,1.1,2,5.6,2.4,6.6,2.2,5.4,4.4,10.8,6.6,16.1-.7-7.1-2.5-14.1-5.1-20.7-.5-1.1-2.6-4.3-3.9-2.1Z"/>
                <path class="cls-5" d="M316.3,319.8c-.4.6-.9,1.3-1.6,1.1-.6-.2-.7-1-.7-1.6,0-3.7.1-7.5.2-11.2-3,2.2-2.6,5-2.8,8.2-.1,1.9.4,10.8-.9,11.9,3-2.5,5.5-5.6,7.4-9.1-.5-.4-1.3.1-1.7.7Z"/>
                <g class="cls-11">
                  <path class="cls-6" d="M287.8,364.3c.1-.2.2-.4.3-.7-.2.2-.3.4-.3.7Z"/>
                  <path class="cls-6" d="M290.7,348.8c-.2-2.5.2-4.9,0-7.4-.1-2.5-.7-5.1-2.5-6.8-2.6-2.4-9.6-1.2-7.3,3.4.7,1.3,2.4,1.9,3.7,1.4s2-2.4,1.2-3.6c2.9,4.3,2.6,10.5-.6,14.6,3.7,3.2,4.8,8.9,2.8,13.3.4-.3,1.2-.4,1.6,0,.7.5.9,1.5,1.3,2.3.3.8,1,1.6,1.9,1.6,1.2-2.9.8-6.3,0-9.4-.8-3.1-1.9-6.1-2.2-9.3Z"/>
                  <path class="cls-6" d="M316.6,302.4c-1.4-1.1-3-1.8-4.7-2l4.7,2Z"/>
                  <path class="cls-6" d="M328.4,333.7c-.4-1.7-1.2-3.3-1.6-5-1.1-3.9-.4-8.1-.9-12.1-.6-5.2-3.4-10.1-7.4-13.5l-1.8-.8c1.7,1.3,3,3.2,3.6,5.2,1.4,4.8,1.8,9.8,2.4,14.7.9,7.6,2.3,15.2,4.2,22.6,1.2-3.6,2.4-7.5,1.6-11.3Z"/>
                  <path class="cls-6" d="M309.3,315.9c1.2-1,1.9-2.5,2.1-4.1.2-1.4,0-2.8-.1-4.2-.1.6-.9,1.1-1.6.9-.9-.2-1.4-1-1.9-1.7-.1.4-.2.8-.4,1.3,0-.2,0-.5-.1-.7l-.5.6c.7,2,1.4,4.3.3,6.2-.5.9-1.4,1.5-2.3,2.1,1.3.9,3.2.7,4.4-.3Z"/>
                  <path class="cls-6" d="M311.3,307.1c0,.2,0,.3,0,.5,0-.2,0-.3,0-.5Z"/>
                  <path class="cls-6" d="M306.1,327.3c-3.5-6.9-7-13.8-10.9-20.5-2.3-3.9-4.6-7.8-7.6-11.2-1.3-1.5-5.2-5-7.3-2.7-1.4,1.5.4,4.3-1.3,5.9.4,0,2.4-.2,2.6,0,4.4,5.4,6.8,12.4,6.7,19.4,1.4-1.1,3.3.4,4.4,1.8,6.8,8.7,13.1,17.8,19,27.1-1.1-4.1-1.2-8.5-2.4-12.6-.8-2.6-2-5-3.2-7.4Z"/>
                  <path class="cls-6" d="M346.8,344.1c1.7-4.5,3-9.1,3.1-13.8.1-4.3-.9-8.8-3.1-12.5-.6-.9-3-4.8-4.3-4.5-2.3.6.7,4.6,1.3,5.7,2,3.8,4.1,7.9,4,12.3-.1,3.4-1.5,6.5-2.6,9.7-.8,2.2-1.4,4.6-1.4,6.9-.2.3-.3.5-.5.8-1.6,2-3.7,3.7-6.3,4.1,1-3,1.9-6,2.9-8.9.3-1.1.5-2.5-.1-3.3.2-.4.3-.8.3-1.3,0-.8-.5-1.6-.8-2.3-1.3-2.9-.9-6.2-.6-9.4.4-3.9.6-7.9-.6-11.7-1.1-3.7-3.8-7.2-7.5-8.5.3.3.6.7,1,1l-1.3-.9c.8,1.6,1.6,3.2,2.3,4.9-.3.4-.6.8-.9,1.2,1.3-.7,2.9.3,3.5,1.6.6,1.3.4,2.9.3,4.3-.8,8.1-.4,16.3,1.2,24.3-.1,1.9-.5,3.7-1.4,5.3-1,1.7-3,3-5,2.7.4-1.9-.3-4.2-1.9-5.3-2,2.8-.8,7.1-.5,10.3.5,4.8,1.2,9.6,2.3,14.4.3-4.1,1.2-8.2,2.6-12,1.1,3.9,2.2,7.9,3.3,11.8,0-1.1,0-2.3.6-3.2s1.7-1.7,2.8-1.3c.8.3,1.3,1.2,1.7,2.1,2.8,6.8,3.5,14.4,2,21.6,1.3.7,3.1-.2,3.9-1.5.7-1.3.7-3,.7-4.5-.2-13.3-.5-26.7-.7-40Z"/>
                  <path class="cls-6" d="M312.9,348.4c-.6,1.1,2,5.6,2.4,6.6,2.2,5.4,4.4,10.8,6.6,16.1-.7-7.1-2.5-14.1-5.1-20.7-.5-1.1-2.6-4.3-3.9-2.1Z"/>
                  <path class="cls-6" d="M316.3,319.8c-.4.6-.9,1.3-1.6,1.1-.6-.2-.7-1-.7-1.6,0-3.7.1-7.5.2-11.2-3,2.2-2.6,5-2.8,8.2-.1,1.9.4,10.8-.9,11.9,3-2.5,5.5-5.6,7.4-9.1-.5-.4-1.3.1-1.7.7Z"/>
                </g>
              </g>
            </g>
          </g>
          <g>
            <g>
              <g>
                <path class="cls-4" d="M324,307.6c1.8,6.5,2.7,13.3,2.7,20,0,1.1,0,2.3.4,3.4.4,1.1,1.2,2.1,2.3,2.3"/>
                <path class="cls-4" d="M338.1,314.2c3,6.3,0,20.2.2,21.2.2,1,.8,1.9,1.7,2.4"/>
                <g>
                  <path class="cls-4" d="M312.3,306.7c-.3,2-.6,4.3-1,6.3-2.3-2-3.8-4.9-4-8"/>
                  <path class="cls-4" d="M293.2,360.1c-.7.3-1.4.6-2.2,1"/>
                  <path class="cls-4" d="M293.7,361.8c-.4,1.7-.4,3.4,0,5.1"/>
                  <path class="cls-4" d="M306.4,343.1c.8,1.4,1.6,2.9,2.4,4.3"/>
                  <path class="cls-4" d="M311,327.4c.8-1.1,1.6-2.2,2.4-3.4"/>
                  <path class="cls-4" d="M344.4,343.1c-.2.9-.5,1.8-.7,2.6"/>
                  <path class="cls-4" d="M338.6,335.9c.7-2.2,1.4-4.5,2.1-6.7"/>
                  <path class="cls-4" d="M345.6,324c1.2-.7,3-.2,3.6,1.1"/>
                  <path class="cls-4" d="M331.3,312.5c1.7-.5,3.5,0,4.8,1.1"/>
                  <path class="cls-4" d="M286.7,319.2c1.5-1.7,3.9-2.6,6.2-2.3"/>
                </g>
              </g>
              <path class="cls-4" d="M277.7,300.3c1.4-1,3.3-1.5,5-1.2"/>
              <path class="cls-6" d="M279.6,345.1c-1.2.9-2.2,2-2.9,3.3l2.9-3.3Z"/>
            </g>
            <path class="cls-4" d="M280.5,340.5c1.6-1.1,4.1,1.4,5.6.1.6-.5.6-1.4.5-2.2-.1-.8-.4-1.5-.3-2.3"/>
          </g>
        </g>
        <path class="cls-4" d="M325.1,333.6c1.9,3.9,2.3,8.6,1.1,12.8"/>
        <path class="cls-4" d="M336.7,339.8c.3,1.9,0,3.9-1,5.5"/>
      </g>
      <g>
        <g>
          <path class="cls-14" d="M321.1,436.1l-10.4-32.9c-9.8-10.1-27.8-19.3-29.4-33.3-2-17.9-4.8-17.2-4.8-21.7s1.3-2.2,2.8-6.8c.5-1.5.7-3.6,1-5.4.3-1.9,1.9-3.3,3.8-3.1,1.3,0,2.5.6,3.5,1.4,1.8,1.5,2.7,3.9,3,6.3.2,2.4-.1,4.8-.5,7.1,1.9,3.6,3,8.1,3.8,12.2.8-3.4,1.4-6.7,2.3-10.1.2-.1.1-.4.3-.5-1.7-3.1-.4-3-3.9-10-5.8-11.6-12.2-22.8-17.2-37.6-.4-1.1-.5-3.1-.2-4.2,1.2-4.4,5.7-3.7,7.8-1.3.6.6,1,1.3,1.3,2.1,2.4,5.2,7.3,13.2,10.8,17.8l12,15.8s3.6-3.3,4.1-4.8h0c.5-1.4,0-12.7,0-12.7,0,0-.7,2.2-2.6,2.2s-4.1,1-6.3-1.1c-1.7-1.7-1.9-4.5-.6-6.5l4.5-7s3.1-3.1,7.7-1.4c4.5,1.7,9.1,5.5,9.1,5.5,0,0,4.1-.5,7.7,1,3.6,1.4,7.6,6,7.6,6,0,0,4.1,0,6,1.2.5.3,7.3,9.5,5.6,17.2-1,4.6-1.4,11.1-1.9,12.9v44.2c-.1,0,8.2,29.3,8.2,29.3"/>
          <g>
            <g>
              <g>
                <path class="cls-14" d="M324,307.6c1.8,6.5,2.7,13.3,2.7,20,0,1.1,0,2.3.4,3.4.4,1.1,1.2,2.1,2.3,2.3"/>
                <path class="cls-14" d="M338.1,314.2c3,6.3,0,20.2.2,21.2.2,1,.8,1.9,1.7,2.4"/>
                <g>
                  <path class="cls-14" d="M312.3,306.7c-.3,2-.6,4.3-1,6.3-2.3-2-3.8-4.9-4-8"/>
                  <path class="cls-14" d="M293.2,360.1c-.7.3-1.4.6-2.2,1"/>
                  <path class="cls-14" d="M293.7,361.8c-.4,1.7-.4,3.4,0,5.1"/>
                  <path class="cls-14" d="M306.4,343.1c.8,1.4,1.6,2.9,2.4,4.3"/>
                  <path class="cls-14" d="M311,327.4c.8-1.1,1.6-2.2,2.4-3.4"/>
                  <path class="cls-14" d="M344.4,343.1c-.2.9-.5,1.8-.7,2.6"/>
                  <path class="cls-14" d="M338.6,335.9c.7-2.2,1.4-4.5,2.1-6.7"/>
                  <path class="cls-14" d="M345.6,324c1.2-.7,3-.2,3.6,1.1"/>
                  <path class="cls-14" d="M331.3,312.5c1.7-.5,3.5,0,4.8,1.1"/>
                  <path class="cls-14" d="M286.7,319.2c1.5-1.7,3.9-2.6,6.2-2.3"/>
                </g>
              </g>
              <path class="cls-14" d="M277.7,300.3c1.4-1,3.3-1.5,5-1.2"/>
              <path class="cls-14" d="M279.6,345.1c-1.2.9-2.2,2-2.9,3.3"/>
            </g>
            <path class="cls-14" d="M280.5,340.5c1.6-1.1,4.1,1.4,5.6.1.6-.5.6-1.4.5-2.2-.1-.8-.4-1.5-.3-2.3"/>
          </g>
        </g>
        <path class="cls-14" d="M325.1,333.6c1.9,3.9,2.3,8.6,1.1,12.8"/>
        <path class="cls-14" d="M336.7,339.8c.3,1.9,0,3.9-1,5.5"/>
      </g>
      <path class="cls-9" d="M240.1,354.8c0,.7,0,1.4,0,2.1-.6,3-2.5,11.8-3.2,16.6-.8,5.9-10.3,24-10.3,24,0,0-8.7,10.8-13.2,16.5-2.2,2.8-5.6,14-8.6,24.7-3.7-1.1-7.4-2.3-11-3.6-3-1.1-6-2.2-9-3.4-4.2-1.6-9.5-4.3-15.6-7.6,1.7-6,2.8-10.7,2.8-10.9,0-.6,3.6-7.6,3.6-7.6l-3.1-41.4-1.9-6.3c-1-3.3-1.6-6.6-1.8-10-.4-5.1,0-10.3,1.3-15.3l5.4-8.1,2.5-.2,7.9-11s4.2-1.3,5.3,1.9c1.1,3.2-3.5,9.2-3.5,9.2l-1.6,9.9,3.8,9.2,2,.7s.7-16.3.2-19.5l4.2-14.9s2.5-5,3.3-7.5c.8-2.5,5.2-5,7.8-.6,0,0,1.4,2.2.4,5.3-1.1,3-1.9,5.4-1.9,5.4,0,0-.9,12.6-1.2,12.9-.3.3,1.9,18.7,1.9,18.7l1.6.7.6-17.6,3.4-16.5s-.3-7.9,5.3-7c0,0,2.6-.3,4.1,2.6,1.5,2.9,0,21.8,0,21.8l1.4,19.6,2.2,15.1,2.6-10.4s.2-14.9,9.5-16.1c0,0,2.8-.5,3.4,1.4.6,1.9-1.4,5.9-1.1,9.7.2,2.7.6,5.7.8,7.2Z"/>
      <g>
        <g>
          <path class="cls-20" d="M237.2,336.4c-.4-2-3.2-1.7-3.2-1.7-9.4.6-10.7,15.4-10.7,15.4l-3.4,10.1-1.1-15.3v-19.7c.1,0,3-18.8,1.7-21.8-1.3-3-3.9-2.9-3.9-2.9-5.5-1.4-5.8,6.5-5.8,6.5l-4.6,16.2-1.9,17.5-1.6-.8s-.7-18.5-.4-18.8c.3-.3,2.2-12.8,2.2-12.8,0,0,1-2.3,2.3-5.3,1.3-3,0-5.3,0-5.3-2.2-4.5-6.9-2.4-7.8,0-1,2.4-3.8,7.2-3.8,7.2l-5.3,14.5c.2,3.3-1.7,19.5-1.7,19.5l-1.9-.9-3.1-9.5,2.3-9.7s5.1-5.6,4.2-8.9c-.8-3.3-5.2-2.3-5.2-2.3l-8.7,10.4h-2.5l-6,7.6c-1.6,4.9-2.5,10-2.5,15.2s.4,6.8,1.1,10.1l1.4,6.4v41.6s-4.1,6.7-4.1,7.3-1.7,5.5-4.1,12.1c10.4,6.1,19.3,10.8,25.6,13.3,3,1.2,6,2.3,9,3.4,3.8-10.7,8.2-22.1,10.7-24.8,4.9-5.3,14.4-15.4,14.4-15.4,0,0,10.8-17.4,12.1-23.1,1-4.7,3.6-13.3,4.5-16.3.2-.7.3-1.4.2-2.1,0-1.6-.2-4.6-.2-7.3,0-3.8,2.3-7.6,1.8-9.6Z"/>
          <g class="cls-23">
            <path class="cls-5" d="M172.3,332.2c1.6-2,4.9-2.8,6.8-1,1.1,1,1.4,2.6,1.7,4,.3,1.5.5,3,1.5,4.1,1,1.1,2.9,1.6,3.9.5.1,2.2.3,4.4.4,6.6,2.3-4.1,3.5-8.8,3.4-13.4,0-2.3-.4-4.6.1-6.8s2.2-4.4,4.5-4.5c2.5-.1,4.5,2.3,5,4.8s0,5-.2,7.5c-.2,3.8.5,7.7,2.2,11.2.5-1.1,1.1-2.1,1.6-3.2.5,2.2,1,4.3,1.4,6.5.4-4.7.8-9.5,1.2-14.2.1-1.3.2-2.7.9-3.9.6-1.2,1.9-2.2,3.2-2,1.8.2,2.8,2.1,3.4,3.8,4.5,12.7,2.6,26.7.7,40.1,1.3.2,2.3-1,2.6-2.3.3-1.2.2-2.6.7-3.7.5-1.2,1.9-2.2,3-1.5,1.6,1,.5,4.1,2.1,4.9.5-4,2.1-7.8,4.5-10.9,1.1-1.4,2.8-2.9,4.5-2.4,1.3.3,2.2,1.7,2.4,3,.2,1.3,2.1-4.2,1.8-2.9.8-7.7-.8-8.5,0-16.2.1-1.4,2.4-3.8,1.4-4.8-.9-1-3.6-2.4-4.8-1.8-1.2.6-5.1,2.5-5.9,3.6-4.9,6.8-4.6,16.6-6.1,24.8-1.3-12.6-2.6-25.3-.3-37.7,1.3-6.8,3.6-14,1.4-20.6-1-3-3.7-6-6.8-5.5-2.5.5-4,3-5.1,5.4-3.4,7.9-5,16.5-6.5,25,1.9-8.5,3.8-17.1,5.6-25.6.5-2.2,1-4.5.6-6.7-.4-2.2-1.9-4.4-4.2-4.9-2.2-.5-4.4.8-6.1,2.4-5.9,5.4-8.2,13.7-10.1,21.6.7-2,1.4-4.2,1.2-6.3-.2-2.1-1.6-4.3-3.7-4.8-2.7-.6-5.2,1.8-6.4,4.4-1.2,2.5-1.8,5.4-3.7,7.4-1.4-1.6-4-1.5-5.7-.3-1.7,1.2-2.8,3.1-3.6,5-3.1,7-4.5,14.8-3.9,22.5,1.4-3.1,4.9-5.1,8.2-4.7-.2-1.7-.4-3.4-.6-5.1"/>
            <g>
              <path class="cls-5" d="M178.9,348.5c0,1.3-.2,2.5-.3,3.8.4-1.1,1.9-1.4,2.8-.7-.2-.8.3-1.6.6-2.3.3-.8.4-1.8-.4-2.2-.9-.4-1.7.6-2.2,1.4,0-.3,0-.6-.1-.9l-.4,1Z"/>
              <path class="cls-5" d="M193.2,346.2c-1,1.2-1.7,2.6-2,4.2.4-.4.9-.9,1.5-1.1.6-.2,1.3-.1,1.7.4.2.3.3.7.6.9.3.2.8,0,1-.4.2-.3.2-.7.3-1.1,0-.7,0-1.5-.1-2.2-.2-.7-.7-1.4-1.4-1.5-.7-.2-1.6.4-1.6,1.1l.2-.4Z"/>
              <path class="cls-5" d="M207.1,349.7c-1.1,1.5-1.8,3.2-2.1,5,.7-.1,1.4-.6,1.9-1,.6-.5,1.2-.9,2-1s1.6.5,1.6,1.2c-.1-.8,0-1.7,0-2.5s.1-1.7-.2-2.5c-.3-.8-1.1-1.5-1.9-1.4s-1.6,1-1.2,1.8l-.2.4Z"/>
              <path class="cls-5" d="M168.9,354.7c-.8,1.4-1.2,3.1-1.2,4.7,0-.8.7-1.4,1.5-1.5.7-.1,1.5.2,2.1.6.1-.8.3-1.5.1-2.3s-.7-1.5-1.5-1.6-1.6.6-1.4,1.4c0-.2-.2-.4-.2-.6l.5-.7Z"/>
            </g>
            <path class="cls-7" d="M172.3,332.2c1.6-2,4.9-2.8,6.8-1,1.1,1,1.4,2.6,1.7,4,.3,1.5.5,3,1.5,4.1,1,1.1,2.9,1.6,3.9.5.1,2.2.3,4.4.4,6.6,2.3-4.1,3.5-8.8,3.4-13.4,0-2.3-.4-4.6.1-6.8s2.2-4.4,4.5-4.5c2.5-.1,4.5,2.3,5,4.8s0,5-.2,7.5c-.2,3.8.5,7.7,2.2,11.2.5-1.1,1.1-2.1,1.6-3.2.5,2.2,1,4.3,1.4,6.5.4-4.7.8-9.5,1.2-14.2.1-1.3.2-2.7.9-3.9.6-1.2,1.9-2.2,3.2-2,1.8.2,2.8,2.1,3.4,3.8,4.5,12.7,2.6,26.7.7,40.1,1.3.2,2.3-1,2.6-2.3.3-1.2.2-2.6.7-3.7.5-1.2,1.9-2.2,3-1.5,1.6,1,.5,4.1,2.1,4.9.5-4,2.1-7.8,4.5-10.9,1.1-1.4,2.8-2.9,4.5-2.4,1.3.3,2.2,1.7,2.4,3,.2,1.3,2.1-4.2,1.8-2.9.8-7.7-.8-8.5,0-16.2.1-1.4,2.4-3.8,1.4-4.8-.9-1-3.6-2.4-4.8-1.8-1.2.6-5.1,2.5-5.9,3.6-4.9,6.8-4.6,16.6-6.1,24.8-1.3-12.6-2.6-25.3-.3-37.7,1.3-6.8,3.6-14,1.4-20.6-1-3-3.7-6-6.8-5.5-2.5.5-4,3-5.1,5.4-3.4,7.9-5,16.5-6.5,25,1.9-8.5,3.8-17.1,5.6-25.6.5-2.2,1-4.5.6-6.7-.4-2.2-1.9-4.4-4.2-4.9-2.2-.5-4.4.8-6.1,2.4-5.9,5.4-8.2,13.7-10.1,21.6.7-2,1.4-4.2,1.2-6.3-.2-2.1-1.6-4.3-3.7-4.8-2.7-.6-5.2,1.8-6.4,4.4-1.2,2.5-1.8,5.4-3.7,7.4-1.4-1.6-4-1.5-5.7-.3-1.7,1.2-2.8,3.1-3.6,5-3.1,7-4.5,14.8-3.9,22.5,1.4-3.1,4.9-5.1,8.2-4.7-.2-1.7-.4-3.4-.6-5.1"/>
            <g class="cls-11">
              <path class="cls-6" d="M178.9,348.5c0,1.3-.2,2.5-.3,3.8.4-1.1,1.9-1.4,2.8-.7-.2-.8.3-1.6.6-2.3.3-.8.4-1.8-.4-2.2-.9-.4-1.7.6-2.2,1.4,0-.3,0-.6-.1-.9l-.4,1Z"/>
              <path class="cls-6" d="M193.2,346.2c-1,1.2-1.7,2.6-2,4.2.4-.4.9-.9,1.5-1.1.6-.2,1.3-.1,1.7.4.2.3.3.7.6.9.3.2.8,0,1-.4.2-.3.2-.7.3-1.1,0-.7,0-1.5-.1-2.2-.2-.7-.7-1.4-1.4-1.5-.7-.2-1.6.4-1.6,1.1l.2-.4Z"/>
              <path class="cls-6" d="M207.1,349.7c-1.1,1.5-1.8,3.2-2.1,5,.7-.1,1.4-.6,1.9-1,.6-.5,1.2-.9,2-1s1.6.5,1.6,1.2c-.1-.8,0-1.7,0-2.5s.1-1.7-.2-2.5c-.3-.8-1.1-1.5-1.9-1.4s-1.6,1-1.2,1.8l-.2.4Z"/>
              <path class="cls-6" d="M168.9,354.7c-.8,1.4-1.2,3.1-1.2,4.7,0-.8.7-1.4,1.5-1.5.7-.1,1.5.2,2.1.6.1-.8.3-1.5.1-2.3s-.7-1.5-1.5-1.6-1.6.6-1.4,1.4c0-.2-.2-.4-.2-.6l.5-.7Z"/>
            </g>
          </g>
        </g>
        <path class="cls-14" d="M159.1,418.3c2.4-6.5,4.1-11.8,4.1-12.1,0-.6,4.1-7.3,4.1-7.3v-41.6l-1.4-6.4c-.7-3.3-1.1-6.7-1.1-10.1,0-5.1.8-10.3,2.5-15.2l6-7.6h2.5l8.7-10.4s4.3-1,5.2,2.3c.8,3.3-4.2,8.9-4.2,8.9l-2.3,9.7,3.1,9.5,1.9.9s1.9-16.2,1.7-19.5l5.3-14.5s2.9-4.8,3.8-7.2c1-2.4,5.6-4.5,7.8,0,0,0,1.3,2.3,0,5.3-1.3,3-2.3,5.3-2.3,5.3,0,0-1.9,12.5-2.2,12.8-.3.3.4,18.8.4,18.8l1.6.8,1.9-17.5,4.6-16.2s.3-7.9,5.8-6.5c0,0,2.6-.1,3.9,2.9,1.3,3-1.6,21.8-1.6,21.8v19.7c-.1,0,1,15.3,1,15.3l3.4-10.1s1.3-14.8,10.7-15.4c0,0,2.8-.3,3.2,1.7.4,2-1.8,5.8-1.8,9.6s.1,5.7.2,7.3c0,.7,0,1.4-.2,2.1-.9,3-3.4,11.6-4.5,16.3-1.3,5.8-12.1,23.1-12.1,23.1,0,0-9.5,10.2-14.4,15.4-2.5,2.7-6.9,14.1-10.7,24.8"/>
        <path class="cls-12" d="M188,340.5c.6,2,0,4.2-1.4,5.7"/>
        <path class="cls-12" d="M171.8,354.5c1.4-2.1,2.7-5,2.3-7.6-.7-4.9-3-10.6-2-15.4.6-3.1,1.3-6.2,1.9-9.3"/>
        <path class="cls-14" d="M211.7,308.1c1.6-.4,3.4-.4,5,0,0-.5,0-.9,0-1.4"/>
        <path class="cls-14" d="M198.6,301.9c1,.7,2.3.8,3.4.2,1-.6,1.7-1.7,1.7-2.9"/>
        <path class="cls-14" d="M234.7,336.6c-2.8.6-4.9,3.5-4.6,6.3.8.2,1.6.5,2.5.7"/>
        <path class="cls-12" d="M202.5,337.8c.1,1.7,0,5.7,0,7.4"/>
        <path class="cls-12" d="M204.4,340.1c-.2,2.7-.4,5.5-.6,8.2,0-.3,0-.7,0-1"/>
        <path class="cls-12" d="M219.6,363.3c.7,3,.4,6.3-.9,9.1"/>
        <path class="cls-14" d="M194.3,348.9c-2.2,2.4-1.9,8.1-.3,11.3"/>
        <path class="cls-14" d="M210.4,352.8c0,2.6-.9,5.2-2.7,7.3"/>
        <path class="cls-14" d="M178.4,350c-.4,2.4.2,4.9,1.5,7"/>
        <path class="cls-14" d="M169.1,357.5c-.1,1.9.4,3.8,1.5,5.3"/>
        <path class="cls-14" d="M181.8,311.4c1.1-.5,2.6-.3,3.5.6.4-.5.8-1.1,1.2-1.6"/>
        <path class="cls-14" d="M192.1,318.7c1.7-1.1,4.1-.6,5.3.9"/>
        <path class="cls-14" d="M208.1,323.7c1.8-.8,3.9-.8,5.7.1"/>
        <path class="cls-14" d="M172.5,332.1c1-1.8,3.2-2.9,5.2-2.6"/>
        <path class="cls-14" d="M165.8,341.7c0-1.3,1.1-2.5,2.4-2.7"/>
      </g>
    </g>
  </g>
  <g id="Coffee">
    <g>
      <circle class="cls-15" cx="423.4" cy="228.4" r="41.4"/>
      <g>
        <g>
          <path class="cls-9" d="M470.4,229.5c-8.8,14.5-12,12.5-42.1,27-15.3,7.3-30.1-16.2-20.1-40.4.5-1.2,4.8-7.1,4.8-7.1,1.8-8,8.5-14.7,16.5-16.6,8-1.9,16.9,1.1,22.1,7.5,5.7-5,13.9-6.9,21.2-5.1.4,1,.7,2,1,3,.1.4.2.8.4,1.1.4,1.2.7,2.3,1.1,3.5.7,2.2,1.3,4.5,1.8,6.8-3.3-.9-6.7-.9-9.8.6-2.2,1.1-4.1,2.9-6.4,3.7-2.3.9-5.5.4-6.4-1.9,1.1,4.6,6,3.2,10.6,4.2,7.2,1.4,9,7.7,5.3,13.8Z"/>
          <g>
            <path class="cls-13" d="M456.7,222.3s7.4-1,10.9-.5c2.2.3,3.6,1.6,4.3,2.4.3.4.5.8.5,1.3l.4,5.8c0,.7-.2,1.3-.6,1.8-1.4,1.5-5.8,4.3-18.8,5.2-18.2,1.4,3.3-16.1,3.3-16.1Z"/>
            <g>
              <path class="cls-13" d="M451.3,207.3c2.1,2.6,6.1,8.5,6.1,17.6s-8,30.5-28.5,33.4c-21.7,3-39.1-15.5-35.4-37.9,2.6-15.5,40.4-34.8,57.8-13.2Z"/>
              <ellipse class="cls-6" cx="424.8" cy="223.4" rx="31.5" ry="29.8"/>
              <ellipse class="cls-1" cx="424.8" cy="225" rx="25.8" ry="24.5"/>
              <path class="cls-15" d="M456.3,223.4c0-16.5-14.1-29.8-31.5-29.8s-31.5,13.3-31.5,29.8"/>
              <path class="cls-15" d="M448,243.6c5.2-5.3,8.3-12.4,8.3-20.2"/>
              <path class="cls-15" d="M402.8,244.7c5.7,5.3,13.5,8.5,22,8.5s10.2-1.2,14.6-3.4"/>
              <path class="cls-15" d="M398.2,239.4c.4.6.8,1.2,1.3,1.8"/>
              <path class="cls-15" d="M393.4,223.4c0,4.5,1.1,8.9,3,12.7"/>
            </g>
            <path class="cls-13" d="M471,231.6s-5.6-3.9-14.7-.4"/>
            <path class="cls-13" d="M466.2,234.3c-2.1.6-5.7,1.4-11.6,1.8"/>
            <path class="cls-13" d="M469.1,233.1s-.3.3-1.4.7"/>
          </g>
        </g>
        <path class="cls-6" d="M474.1,198.8c-.1-.4-.2-.8-.4-1.1-1.9-5.9-4.4-12.4-7.4-19.3-.6-1.3-1.1-2.6-1.7-3.9-.2,0-.4,0-.7,0-2.9.3-5.9.7-8.2,2.3-2.4,1.7-3.8,5.1-2.2,7.5,1.5,2.4,5.4,3.8,4.8,6.6-6.4,3.6-14.2,3.2-21.4,5-4.3,1.1-8.4,3-11.9,5.6,0,0,0,0,0,0-1.1.9-2.2,1.8-3.2,2.7-.5.4-.9.9-1.3,1.4t0,0c-.6.8-1,1.6-1.1,2.5-.2,2.7,2.2,4.5,4.8,5.6.5.2.5.9,0,1.1-1.7.7-3.3,1.5-4.7,2.7,0,0,0,0,0,0-.8.7-.1,2.1,1,2,.1,0,.3,0,.4,0,1.1,0,2.1,0,3,.4,1.5.5,2.6,1.6,2.7,2.9.2,2-2.1,3.9-5.1,4.1-.7,0-.2.9.9,1.1,2.1.4,4.3,0,6.4-.5,2.5-.6,5.2-1.5,6.6-3.6.6-.9.8-2.1.6-3.2-.2-1.5-1.2-2.8-2.7-2.9,4.6-.6,9.2-1.5,13.7-2.8h0l1.4-.4c1.3-.4,2.8-.9,3.9-1.7s1.3-1.1,1.7-1.9c1-2-.4-5.2-2.6-4.8,6.4-2.5,13.3-4,19.8-6.3,1-.4,2.1-.8,3.1-1.2Z"/>
      </g>
    </g>
  </g>
  <g id="Monitor">
    <g>
      <path class="cls-9" d="M424.6,112.3c-6,5.4-12.9,9.9-19.9,14-36.4,21.5-77.5,34.4-119.4,40.7-41.8,6.3-84.4,6.1-126.6,2.6-8.3-.7-16.7-1.5-24.3-4.9-6.4-2.8-12.3-7.8-15-14.2,9.1-10.4,17.6-20.9,27.1-30.8,2.2-2.4,4.6-4.7,6.9-7,2-1.9,4-3.8,6.1-5.6,2.4-2.1,4.9-4.2,7.5-6.2,3.6-2.8,7.3-5.4,11.3-7.9,1-.6,2-1.2,2.9-1.8,99.7-62,173.1-41.7,222.1,0,3.7,3.1,7.2,6.4,10.7,9.8,2.1,2,4.1,4.1,6,6.2.2.2.4.5.6.7,1.4,1.5,2.7,2.9,4,4.4Z"/>
      <path class="cls-13" d="M428.6,102.4l-335.5,1.5,5.1-7.6c2.4-3.7,6.5-5.9,10.9-5.9h303.6c4,0,7.7,1.8,10.2,4.9l5.7,7Z"/>
      <g>
        <g>
          <rect class="cls-18" x="214.2" y="152.7" width="86.7" height="86.7" rx="34.2" ry="34.2"/>
          <path class="cls-17" d="M229.9,203.3v12.3c0,3.9,3.1,7,7,7h42.3c3.8,0,7-3.1,7-7,0-5.5.3-12.4.3-12.4h-56.6Z"/>
          <g>
            <path class="cls-16" d="M384.6,207.5h-247.2c-2.6,0-5-1.6-5.9-4l-38.1-97.9c-1-2.6.9-5.3,3.6-5.3h328c2.7,0,4.6,2.8,3.6,5.3l-38.1,97.9c-.9,2.4-3.3,4-5.9,4Z"/>
            <polygon class="cls-1" points="386.5 198.9 135 198.9 100.4 106.4 420.9 106.4 386.5 198.9"/>
          </g>
        </g>
        <rect class="cls-1" x="230.2" y="207.3" width="56.1" height="3.8"/>
        <g>
          <g>
            <path class="cls-5" d="M349.7,195h-177.6c-1,0-1.9-.4-2.1-1l-25.3-80.2c-.3-.9.5-1.6,1.8-1.6h228.7c1.3,0,2,.7,1.8,1.6l-25.3,80.2c-.2.5-1.1,1-2.1,1Z"/>
            <polygon class="cls-1" points="349.1 193.1 172.8 193.1 151.3 122.6 370.5 122.6 349.1 193.1"/>
            <g>
              <path class="cls-6" d="M198.1,140.1h-33.4c-.8,0-1.4.4-1.2,1,.2.5.9,1,1.8,1h33.2c.8,0,1.4-.4,1.3-1,0-.5-.8-1-1.7-1Z"/>
              <path class="cls-6" d="M199.2,146.2h-28.4c-.8,0-1.3.4-1.2,1,.1.5.9,1,1.7,1h28.2c.8,0,1.4-.4,1.3-1,0-.5-.8-1-1.6-1Z"/>
              <path class="cls-7" d="M200.3,152.1h-32.2c-.8,0-1.3.4-1.2.9.1.5.9.9,1.7.9h32c.8,0,1.4-.4,1.3-.9,0-.5-.8-.9-1.6-.9Z"/>
              <path class="cls-6" d="M201.3,157.8h-18.9c-.8,0-1.3.4-1.2.9.1.5.8.9,1.6.9h18.8c.8,0,1.3-.4,1.2-.9,0-.5-.8-.9-1.6-.9Z"/>
              <path class="cls-6" d="M202.3,163.3h-31.1c-.8,0-1.3.4-1.1.9.1.5.9.9,1.6.9h30.9c.8,0,1.3-.4,1.2-.9,0-.5-.8-.9-1.5-.9Z"/>
              <path class="cls-6" d="M203.3,168.6h-25.1c-.8,0-1.3.4-1.1.8.1.5.8.8,1.6.8h25c.8,0,1.3-.4,1.2-.8,0-.5-.8-.8-1.5-.8Z"/>
              <path class="cls-6" d="M204.3,173.7h-24.7c-.7,0-1.2.4-1.1.8.1.4.8.8,1.6.8h24.6c.7,0,1.3-.4,1.2-.8,0-.4-.7-.8-1.5-.8Z"/>
              <path class="cls-6" d="M205.2,178.7h-27c-.7,0-1.2.4-1.1.8.1.4.8.8,1.5.8h26.8c.7,0,1.3-.3,1.2-.8,0-.4-.7-.8-1.5-.8Z"/>
              <path class="cls-7" d="M206,183.5h-17.4c-.7,0-1.2.3-1.1.8.1.4.8.8,1.5.8h17.3c.7,0,1.2-.3,1.2-.8,0-.4-.7-.8-1.4-.8Z"/>
              <path class="cls-7" d="M196.9,133.8h-24.9c-.8,0-1.4.5-1.3,1,.1.6.9,1,1.8,1h24.7c.8,0,1.4-.5,1.3-1-.1-.6-.9-1-1.7-1Z"/>
              <path class="cls-6" d="M195.7,127.3h-34.6c-.9,0-1.4.5-1.2,1.1.2.6,1,1.1,1.8,1.1h34.4c.8,0,1.5-.5,1.3-1.1-.1-.6-.9-1.1-1.7-1.1Z"/>
              <path class="cls-6" d="M206.9,188.1h-28.7c-.7,0-1.2.3-1.1.7.1.4.8.7,1.5.7h28.6c.7,0,1.2-.3,1.1-.7,0-.4-.7-.7-1.4-.7Z"/>
              <polygon class="cls-7" points="209.8 142.4 216.3 142.4 216 139.9 209.4 139.9 209.8 142.4"/>
              <polygon class="cls-7" points="210.7 148.4 217.1 148.4 216.8 146 210.4 146 210.7 148.4"/>
              <polygon class="cls-7" points="211.6 154.2 217.8 154.2 217.5 151.9 211.2 151.9 211.6 154.2"/>
              <polygon class="cls-7" points="212.4 159.8 218.6 159.8 218.3 157.6 212.1 157.6 212.4 159.8"/>
              <polygon class="cls-7" points="213.2 165.2 219.3 165.2 219 163 212.9 163 213.2 165.2"/>
              <polygon class="cls-7" points="214 170.4 220 170.4 219.7 168.4 213.7 168.4 214 170.4"/>
              <polygon class="cls-7" points="214.8 175.5 220.6 175.5 220.4 173.5 214.5 173.5 214.8 175.5"/>
              <polygon class="cls-7" points="215.5 180.4 221.3 180.4 221 178.5 215.2 178.5 215.5 180.4"/>
              <polygon class="cls-7" points="216.2 185.2 221.9 185.2 221.7 183.3 216 183.3 216.2 185.2"/>
              <polygon class="cls-7" points="208.9 136.1 215.5 136.1 215.1 133.6 208.5 133.6 208.9 136.1"/>
              <polygon class="cls-7" points="207.9 129.6 214.6 129.6 214.3 127 207.5 127 207.9 129.6"/>
              <polygon class="cls-7" points="216.9 189.8 222.5 189.8 222.3 187.9 216.7 187.9 216.9 189.8"/>
              <path class="cls-6" d="M251,179.4c0-.4.6-.8,1.3-.8h95.8c.7,0,1.2.4,1.1.8-.1.4-.8.8-1.5.8h-95.3c-.7,0-1.3-.3-1.3-.8Z"/>
              <path class="cls-6" d="M349.1,175.3h-53.1c-.7,0-1.3-.4-1.3-.8,0-.4.7-.8,1.4-.8h53.3c.7,0,1.2.4,1.1.8-.1.4-.8.8-1.6.8Z"/>
              <path class="cls-7" d="M283.5,175.3h-16.5c-.7,0-1.3-.4-1.3-.8,0-.4.6-.8,1.4-.8h16.6c.7,0,1.3.4,1.3.8,0,.4-.7.8-1.4.8Z"/>
              <path class="cls-6" d="M317.9,170.2h-74.8c-.8,0-1.4-.4-1.4-.8,0-.5.6-.8,1.3-.8h75.2c.8,0,1.3.4,1.2.8,0,.5-.8.8-1.5.8Z"/>
              <path class="cls-7" d="M227.4,168.6h5.3c.8,0,1.4.4,1.4.8,0,.5-.5.8-1.3.8h-5.3c-.8,0-1.4-.4-1.5-.8,0-.5.5-.8,1.3-.8Z"/>
              <path class="cls-6" d="M328.7,164.1c-.1.5-.8.9-1.6.9h-70.5c-.8,0-1.4-.4-1.4-.9,0-.5.6-.9,1.4-.9h70.9c.8,0,1.3.4,1.2.9Z"/>
              <path class="cls-6" d="M226.9,163.3h20c.8,0,1.4.4,1.4.9,0,.5-.6.9-1.3.9h-19.9c-.8,0-1.4-.4-1.5-.9,0-.5.5-.9,1.3-.9Z"/>
              <path class="cls-6" d="M226.3,157.8h76.9c.8,0,1.4.4,1.3.9,0,.5-.7.9-1.5.9h-76.5c-.8,0-1.5-.4-1.5-.9,0-.5.5-.9,1.3-.9Z"/>
              <path class="cls-6" d="M276.2,153.9c-.8,0-1.4-.4-1.4-.9,0-.5.7-.9,1.5-.9h40.6c.8,0,1.4.4,1.3.9,0,.5-.8.9-1.6.9h-40.4Z"/>
              <path class="cls-6" d="M225.7,152.1h35.1c.8,0,1.4.4,1.4.9,0,.5-.6.9-1.4.9h-34.9c-.8,0-1.5-.4-1.5-.9,0-.5.5-.9,1.3-.9Z"/>
              <path class="cls-6" d="M356.9,148.1h-96.7c-.8,0-1.5-.4-1.5-1,0-.5.6-1,1.5-1h97.3c.8,0,1.3.4,1.2,1-.2.5-.9,1-1.7,1Z"/>
              <path class="cls-6" d="M358.7,142.1h-85.1c-.8,0-1.5-.4-1.5-1,0-.5.7-1,1.5-1h85.6c.8,0,1.4.4,1.2,1-.2.5-1,1-1.8,1Z"/>
              <path class="cls-7" d="M360.4,135.9h-17.8c-.8,0-1.4-.5-1.3-1,.1-.6.9-1,1.8-1h17.9c.8,0,1.4.5,1.2,1-.2.6-1,1-1.8,1Z"/>
              <path class="cls-6" d="M330.2,135.9h-65.4c-.8,0-1.5-.5-1.5-1,0-.6.7-1,1.5-1h65.8c.8,0,1.4.5,1.3,1-.1.6-.9,1-1.7,1Z"/>
              <path class="cls-6" d="M229,183.5h60.4c.7,0,1.3.3,1.2.8,0,.4-.7.8-1.4.8h-60.1c-.7,0-1.3-.3-1.4-.8,0-.4.5-.8,1.2-.8Z"/>
              <path class="cls-6" d="M229.5,188.1h92.8c.7,0,1.2.3,1.1.7,0,.4-.7.7-1.4.7h-92.4c-.7,0-1.3-.3-1.4-.7,0-.4.5-.7,1.2-.7Z"/>
              <path class="cls-6" d="M326.9,129.4h-47.3c-.8,0-1.5-.5-1.5-1.1,0-.6.7-1.1,1.6-1.1h47.5c.9,0,1.5.5,1.3,1.1-.1.6-.9,1.1-1.7,1.1Z"/>
              <path class="cls-7" d="M266.2,129.4h-43c-.8,0-1.6-.5-1.7-1.1,0-.6.6-1.1,1.4-1.1h43.2c.9,0,1.5.5,1.5,1.1,0,.6-.7,1.1-1.6,1.1Z"/>
              <path class="cls-7" d="M302.9,183.5c.7,0,1.3.3,1.2.8,0,.4-.7.8-1.4.8h-4.7c-.7,0-1.3-.3-1.2-.8,0-.4.7-.8,1.4-.8h4.7Z"/>
              <path class="cls-7" d="M245.5,179.4c0,.4-.6.8-1.3.8h-6.4c-.7,0-1.3-.3-1.4-.8,0-.4.5-.8,1.3-.8h6.4c.7,0,1.3.4,1.4.8Z"/>
              <path class="cls-7" d="M322.3,158.7c0,.5-.8.9-1.6.9h-7.4c-.8,0-1.3-.4-1.3-.9,0-.5.8-.9,1.6-.9h7.5c.8,0,1.3.4,1.2.9Z"/>
              <path class="cls-7" d="M345.5,163.3c.8,0,1.3.4,1.2.9-.1.5-.9.9-1.6.9h-5.9c-.8,0-1.3-.4-1.2-.9.1-.5.8-.9,1.6-.9h6Z"/>
              <path class="cls-7" d="M248.5,148.1c-.8,0-1.5-.4-1.5-1,0-.5.6-1,1.4-1h6.3c.8,0,1.5.4,1.5,1,0,.5-.6,1-1.4,1h-6.3Z"/>
            </g>
          </g>
          <g>
            <path class="cls-6" d="M162.6,117.3c.5,1.6-.5,3-2.1,3s-3.4-1.3-3.9-3c-.5-1.7.4-3,2.1-3s3.5,1.4,4,3Z"/>
            <path class="cls-6" d="M170.7,117.4c.4,1.6-.6,2.9-2.2,2.9s-3.4-1.3-3.8-2.9c-.5-1.7.5-3,2.2-3s3.4,1.4,3.9,3Z"/>
            <path class="cls-6" d="M178.9,117.3c.4,1.6-.6,3-2.3,3s-3.3-1.3-3.7-3c-.4-1.7.6-3,2.3-3s3.4,1.4,3.8,3Z"/>
          </g>
        </g>
        <g>
          <polygon class="cls-8" points="100.4 106.4 127.3 178.5 159.8 106.4 100.4 106.4"/>
          <polygon class="cls-8" points="145.8 198.9 199.8 106.4 256.2 106.4 176.9 198.9 145.8 198.9"/>
          <polygon class="cls-8" points="280.6 106 196.5 198.9 209.4 198.9 296.5 106.4 280.6 106"/>
          <polygon class="cls-8" points="297.2 198.9 389.5 106.4 402.6 106.4 307.3 198.9 297.2 198.9"/>
        </g>
      </g>
    </g>
  </g>
  <g id="Code">
    <g>
      <g>
        <path class="cls-13" d="M171.9,239.1h-21.1c-2.7,0-5,2.2-5,5v10.3c0,2.7,2.2,5,5,5h5.5l4.2,9.5,5.9-9.5h5.5c2.7,0,5-2.2,5-5v-10.3c0-2.7-2.2-5-5-5Z"/>
        <g>
          <path class="cls-1" d="M158.4,244.9c0-.5.4-1,1-1s1,.4,1,.9-.4,1-1,1-1-.4-1-1ZM158.6,247h1.6v6.9h-1.6v-6.9Z"/>
          <path class="cls-1" d="M164.1,246.7v.4h1.9v1.3h-1.8v5.5h-1.6v-5.5h-1.1v-1.3h1.1v-.4c0-1.4.9-2.4,2.5-2.4s1.1.1,1.5.4l-.4,1.2c-.2-.2-.6-.3-.9-.3-.7,0-1,.4-1,1.1Z"/>
        </g>
      </g>
      <g>
        <path class="cls-13" d="M236.1,240.5h-21.1c-2.7,0-5,2.2-5,5v10.3c0,2.7,2.2,5,5,5h5.5l4.2,9.5,5.9-9.5h5.5c2.7,0,5-2.2,5-5v-10.3c0-2.7-2.2-5-5-5Z"/>
        <g>
          <path class="cls-1" d="M219.5,252.4h-5.4c.2,1,1,1.6,2.2,1.6s1.4-.2,1.9-.7l.9,1c-.6.7-1.6,1.1-2.8,1.1-2.3,0-3.8-1.5-3.8-3.5s1.5-3.5,3.5-3.5,3.5,1.4,3.5,3.5,0,.3,0,.5ZM214.1,251.3h3.9c-.1-1-.9-1.7-1.9-1.7s-1.8.7-2,1.7Z"/>
          <path class="cls-1" d="M221,245.8h1.6v9.5h-1.6v-9.5Z"/>
          <path class="cls-1" d="M223.9,254.6l.6-1.2c.6.4,1.5.7,2.4.7s1.4-.3,1.4-.8c0-1.3-4.2,0-4.2-2.8s1.2-2.1,3-2.1,2,.2,2.6.6l-.6,1.2c-.7-.4-1.3-.5-2-.5-1,0-1.4.3-1.4.8,0,1.4,4.2.2,4.2,2.8s-1.2,2.1-3.1,2.1-2.3-.3-2.9-.8Z"/>
          <path class="cls-1" d="M237.8,252.4h-5.4c.2,1,1,1.6,2.2,1.6s1.4-.2,1.9-.7l.9,1c-.6.7-1.6,1.1-2.8,1.1-2.3,0-3.8-1.5-3.8-3.5s1.5-3.5,3.5-3.5,3.5,1.4,3.5,3.5,0,.3,0,.5ZM232.4,251.3h3.9c-.1-1-.9-1.7-1.9-1.7s-1.8.7-2,1.7Z"/>
        </g>
      </g>
      <g>
        <path class="cls-13" d="M298.4,239.9h-21.1c-2.7,0-5,2.2-5,5v10.3c0,2.7,2.2,5,5,5h5.5l4.2,9.5,5.9-9.5h5.5c2.7,0,5-2.2,5-5v-10.3c0-2.7-2.2-5-5-5Z"/>
        <g>
          <path class="cls-1" d="M282.1,247.5v.4h1.9v1.3h-1.8v5.5h-1.6v-5.5h-1.1v-1.3h1.1v-.4c0-1.4.9-2.4,2.5-2.4s1.1.1,1.5.4l-.5,1.2c-.2-.2-.6-.3-.9-.3-.7,0-1,.4-1,1.1Z"/>
          <path class="cls-1" d="M284.4,251.3c0-2.1,1.5-3.5,3.6-3.5s3.7,1.5,3.7,3.5-1.5,3.5-3.7,3.5-3.6-1.5-3.6-3.5ZM290.1,251.3c0-1.3-.9-2.1-2-2.1s-2,.8-2,2.1.9,2.1,2,2.1,2-.8,2-2.1Z"/>
          <path class="cls-1" d="M297.2,247.8v1.5c-.1,0-.3,0-.4,0-1.2,0-2,.7-2,2.1v3.3h-1.6v-6.9h1.5v1c.5-.7,1.3-1.1,2.4-1.1Z"/>
        </g>
      </g>
      <g>
        <path class="cls-13" d="M359.7,239.1h-21.1c-2.7,0-5,2.2-5,5v10.3c0,2.7,2.2,5,5,5h5.5l4.2,9.5,5.9-9.5h5.5c2.7,0,5-2.2,5-5v-10.3c0-2.7-2.2-5-5-5Z"/>
        <path class="cls-1" d="M346.4,246.7h5.9v1.3h-5.9v-1.3ZM346.4,249.8h5.9v1.3h-5.9v-1.3Z"/>
      </g>
      <g>
        <path class="cls-13" d="M204.1,227.2h-21.1c-2.7,0-5,2.2-5,5v10.3c0,2.7,2.2,5,5,5h5.5l4.2,9.5,5.9-9.5h5.5c2.7,0,5-2.2,5-5v-10.3c0-2.7-2.2-5-5-5Z"/>
        <g>
          <path class="cls-1" d="M188.5,231.5h3.1v1.3h-1.5v9.5h1.5v1.3h-3.1v-12Z"/>
          <path class="cls-1" d="M195.6,243.5v-1.3h1.5v-9.5h-1.5v-1.3h3.1v12h-3.1Z"/>
        </g>
      </g>
      <g>
        <path class="cls-13" d="M266.8,226.1h-21.1c-2.7,0-5,2.2-5,5v10.3c0,2.7,2.2,5,5,5h5.5l4.2,9.5,5.9-9.5h5.5c2.7,0,5-2.2,5-5v-10.3c0-2.7-2.2-5-5-5Z"/>
        <g>
          <path class="cls-1" d="M251.9,236.4c.5.2.8.5.8,1.3v2.4c0,.6.3,1,1,1h.3v1.3h-.6c-1.5,0-2.2-.7-2.2-2.1v-2.6c0-.4-.2-.6-.6-.6h-.4v-1.3h.4c.4,0,.6-.2.6-.6v-2.6c0-1.4.7-2.1,2.2-2.1h.6v1.3h-.3c-.6,0-1,.4-1,1v2.4c0,.8-.2,1.1-.8,1.3Z"/>
          <path class="cls-1" d="M261.7,235.7v1.3h-.4c-.3,0-.6.2-.6.6v2.6c0,1.4-.7,2.1-2.2,2.1h-.6v-1.3h.3c.7,0,1-.4,1-1v-2.4c0-.8.2-1.1.7-1.3-.5-.2-.7-.5-.7-1.3v-2.4c0-.6-.3-1-1-1h-.3v-1.3h.6c1.5,0,2.2.7,2.2,2.1v2.6c0,.4.2.6.6.6h.4Z"/>
        </g>
      </g>
      <g>
        <path class="cls-13" d="M328.8,224.1h-21.1c-2.7,0-5,2.2-5,5v10.3c0,2.7,2.2,5,5,5h5.5l4.2,9.5,5.9-9.5h5.5c2.7,0,5-2.2,5-5v-10.3c0-2.7-2.2-5-5-5Z"/>
        <path class="cls-1" d="M317.4,231.7c0-.6.5-1.1,1.1-1.1s1.1.4,1.1,1.1-.5,1.1-1.1,1.1-1.1-.4-1.1-1.1ZM319.6,236.6c0,.3,0,.5-.3,1.1l-.7,1.8h-1l.5-2c-.4-.2-.6-.5-.6-1s.4-1.1,1-1.1,1,.4,1,1.1Z"/>
      </g>
      <g>
        <path class="cls-13" d="M246.4,403.5h21.1c2.7,0,5-2.2,5-5v-10.3c0-2.7-2.2-5-5-5h-5.5l-1.6-9.5-8.5,9.5h-5.5c-2.7,0-5,2.2-5,5v10.3c0,2.7,2.2,5,5,5Z"/>
        <g>
          <path class="cls-1" d="M253.8,391.3l-4.4,1.7,4.4,1.7v1.3l-5.9-2.3v-1.4l5.9-2.3v1.3Z"/>
          <path class="cls-1" d="M258.4,386.6h1.4l-4.2,12.1h-1.4l4.2-12.1Z"/>
          <path class="cls-1" d="M266.1,392.3v1.4l-5.9,2.3v-1.3l4.4-1.7-4.4-1.7v-1.3l5.9,2.3Z"/>
        </g>
      </g>
      <g>
        <path class="cls-13" d="M112.2,328.8h21.1c2.7,0,5-2.2,5-5v-10.3c0-2.7-2.2-5-5-5h-5.5l1.2-9.5-11.3,9.5h-5.5c-2.7,0-5,2.2-5,5v10.3c0,2.7,2.2,5,5,5Z"/>
        <g>
          <path class="cls-1" d="M118.5,322.2c0-.6.4-1,1-1s1,.4,1,1-.4,1-1,1-1-.4-1-1ZM118.6,314.2h1.9l-.3,6h-1.3l-.3-6Z"/>
          <path class="cls-1" d="M122.1,316.5h5.9v1.3h-5.9v-1.3ZM122.1,319.6h5.9v1.3h-5.9v-1.3Z"/>
        </g>
      </g>
    </g>
  </g>
  <g id="Mouse">
    <g>
      <g>
        <g>
          <path class="cls-20" d="M450,317.1c0,4.1-.3,8.1-1,11.9-2.9,17.3-12,29.9-22.8,29.9s-1.9-.1-2.9-.3c-11.7-2.5-20.9-20.1-20.9-41.5s10.6-31.2,23.7-31.2,23.7,8.2,23.7,31.2Z"/>
          <g class="cls-21">
            <g>
              <path class="cls-5" d="M441.4,317.4c.9,12.4-1.2,24.8-4.8,36.7,8.9-7.3,13.1-18.9,16.8-29.8,2.7-8,5.4-16.1,4.9-24.5-.5-8.4-5-17.1-12.8-20-3.8-1.4-8.3-1.3-12.1.2-6.6,2.6-3,4.8-.2,9.5,5,8.5,7.6,18.2,8.3,28Z"/>
              <path class="cls-7" d="M441.4,317.4c.9,12.4-1.2,24.8-4.8,36.7,8.9-7.3,13.1-18.9,16.8-29.8,2.7-8,5.4-16.1,4.9-24.5-.5-8.4-5-17.1-12.8-20-3.8-1.4-8.3-1.3-12.1.2-6.6,2.6-3,4.8-.2,9.5,5,8.5,7.6,18.2,8.3,28Z"/>
            </g>
          </g>
          <path class="cls-14" d="M450,317.1c0,4.1-.3,8.1-1,11.9-2.9,17.3-12,29.9-22.8,29.9s-1.9-.1-2.9-.3c-11.7-2.5-20.9-20.1-20.9-41.5s10.6-31.2,23.7-31.2,23.7,8.2,23.7,31.2Z"/>
        </g>
        <g>
          <path class="cls-12" d="M439,338.4c-1.6,5.3-4.2,10.3-7.8,14.6"/>
          <path class="cls-14" d="M439.8,335.4c-.1.6-.3,1.1-.4,1.7"/>
          <path class="cls-12" d="M439.7,317.1c1.3,5.3,1.4,10.9.5,16.3"/>
        </g>
        <path class="cls-14" d="M402.6,317.1s27-10.7,47.5,0"/>
        <path class="cls-12" d="M426.3,285.9s2.7,10,3,26.3"/>
        <path class="cls-16" d="M430.1,298c.3,3.1-.2,5.8-1.2,5.9-1,.2-2.1-2.2-2.5-5.3-.3-3.1.2-5.8,1.2-5.9,1-.2,2.1,2.2,2.5,5.3Z"/>
      </g>
      <path class="cls-14" d="M415.7,366.9h-31.6c-3.9,0-7.2-2.9-7.7-6.7,0-.3,0-.7,0-1.1v-74.6c0-.4,0-.7,0-1.1.5-3.8,3.8-6.7,7.7-6.7h89.7c1.4,0,2.6.4,3.7,1"/>
    </g>
  </g>
</svg>