<?xml version="1.0" encoding="UTF-8"?><svg id="b" xmlns="http://www.w3.org/2000/svg" viewBox="0 0 210 210"><g id="c"><path d="M209.32,200.15l-35.99-72.6c-1.26-2.53-4.06-4.17-7.15-4.17h-18.16c-7.71,0-13.97,5.6-13.97,12.52s6.25,12.52,13.97,12.52c3.1,0,5.89,1.63,7.15,4.17l11.17,22.53c2.29,4.64-1.5,9.85-7.15,9.85H50.81c-5.65,0-9.44-5.22-7.15-9.85l13.24-26.7h8.66c7.71,0,13.97-5.6,13.97-12.52,0-5.81-4.43-10.69-10.42-12.09l28.75-57.98c2.76-5.56,11.54-5.56,14.3,0l14.06,28.36c1.26,2.53,4.06,4.17,7.15,4.17h13.45c5.65,0,9.44-5.22,7.15-9.85L112.15,4.17c-2.76-5.56-11.54-5.56-14.3,0L.68,200.15c-2.29,4.64,1.49,9.85,7.15,9.85h194.34c5.65,0,9.44-5.22,7.15-9.85Z" style="fill:#c7c7c7; stroke-width:0px;"/></g></svg>