<?xml version="1.0" encoding="UTF-8"?><svg id="b" xmlns="http://www.w3.org/2000/svg" viewBox="0 0 200 990.22"><g id="c"><path d="M145.83,250.03s0-.03-.07-.13c-.17-.23-.6-.27-.83-.33-3.61-1.16-7.65-1.69-11.4-2.19-3.78-.53-7.62-.93-11.43-1.23-7.79-.6-15.64-.73-23.46-.36-14.22.66-28.96,2.39-42.42,7.22-.86.3-1.69.63-2.52.96-.96.4-1.89.8-2.82,1.23-6.79,3.12-12.82,7.36-17.93,12.73-.73.8-1.46,1.59-2.15,2.42-1.52,1.82-2.95,3.74-4.24,5.77-6.59,10.31-10.17,22.27-12.69,34.13-2.98,13.92-4.77,28.2-6.06,42.35-1.42,15.74-1.86,31.61-.13,47.36,1.49,13.69,4.57,27.24,9.48,40.1,2.42,6.3,5.34,12.39,8.42,18.36.5.96,1.03,1.92,1.56,2.85,3.21-4.44,6.83-8.58,11-12.2,2.75-2.39,5.67-4.54,8.72-6.5-4.71-7.62-7.69-16.14-9.61-24.89-2.32-10.44-3.41-21.24-3.78-31.91-.63-19.68,1.09-39.6,5-58.89,1.49-7.49,3.58-14.98,6.56-22.04.5-1.16.99-2.32,1.52-3.41,3.45-7.39,7.99-14.25,13.92-20.05,1.39-1.39,2.92-2.68,4.47-3.88.93-.7,1.89-1.39,2.85-1.99,3.94-2.58,8.32-4.61,12.82-5.87,7.36-2.05,14.85-1.95,22.14.33,3.11.96,7.29,2.49,9.38,5.17,2.98,3.81-1.39,8.28-3.58,11.27-4.14,5.73-8.25,11.5-12.59,17.1,6.1,6.33,12.1,12.69,18.06,19.15.76-.83,1.49-1.69,2.22-2.52,8.62-10.14,15.28-21.81,20.21-34.13,2.39-6,4.44-12.23,6.03-18.49.83-3.28,1.52-6.56,2.09-9.88.3-1.72.56-3.45.83-5.14.1-.63.5-1.86.33-2.45-.03-.13.1-.03.1-.03ZM153.69,987.54c-38.87,1.42-77.78,3.25-116.68,2.52-4.71-.1-9.41-.2-14.12-.33-3.94-.1-9.84.73-12.36-3.05-1.19-1.76-1.66-4.11-2.22-6.1-.6-2.12-1.16-4.27-1.66-6.46-1.03-4.47-1.82-9.01-2.42-13.59-1.23-9.21-1.95-18.52-2.55-27.8-.63-9.41-.93-18.86-.66-28.3.8-25.15,6.79-51.17,21.51-71.58-3.94-5.97-7.03-12.46-9.41-19.32-3.78-10.8-6.13-22.07-7.99-33.3-3.74-22.5-5.5-45.5-4.41-68.27.56-11.3,1.92-22.53,4.21-33.6,2.22-10.67,5.2-21.51,10.9-30.89,1.92-3.15,4.14-6.06,6.59-8.75-14.71-19.32-20.81-43.91-22.1-67.9-1.56-28.73,2.52-58.32,13.62-84.97,3.08-7.42,6.66-14.75,11.07-21.47-3.08-4.24-5.9-8.62-8.19-13.32-3.11-6.36-5.77-12.96-7.82-19.72-4.44-14.61-6.4-29.76-6.99-44.94-.66-16.77.53-33.5,2.52-50.14,1.62-13.69,3.48-27.51,7.59-40.73,3.38-10.94,8.45-21.41,16.14-29.86v-.03c-12.06-23.4-17.8-50.47-18.26-76.65-.3-14.88.46-29.82,2.42-44.6,1.76-13.55,4.08-27.31,8.09-40.43,1.95-6.43,4.57-12.69,7.99-18.43-7.85-12.1-12.16-26.25-14.12-40.56-1.26-9.25-1.52-18.52-1.56-27.84,0-2.42,0-4.84-.03-7.26-.03-2.09-.43-4.41.3-6.4.86-2.42,3.02-3.21,5.4-3.31,2.25-.07,4.47-.07,6.73-.1,18.82-.13,37.71-.13,56.53.56,38.14,1.49,76.19,4.57,114.39,5.1,1.23,0,2.32,1.26,2.49,2.42.89,6.5.26,13.06.53,19.62.27,6.53.56,13.02.7,19.52.3,12.69.13,25.35-.27,38.01-.36,11.33-1.06,22.6-2.09,33.87-.53,5.6-1.19,11.17-1.69,16.77-.53,5.83-1.29,11.57-2.68,17.27-3.78,15.61-10.07,31.05-19.68,44.04,9.21,20.74,15.14,42.85,18.09,65.35,2.88,21.87,2.78,44.27-.23,66.11-2.95,21.14-8.91,41.95-23.13,58.39-.73.83-1.42,1.66-2.19,2.45.5.93.96,1.89,1.42,2.85,11.47,23.99,17.93,50.6,18.52,77.18.3,13.29-.7,26.54-3.18,39.63-2.45,13.06-5.96,26.08-11.66,38.18-2.78,5.93-6.06,11.7-9.84,17.1,1.03,1.89,2.02,3.81,2.92,5.77,12.33,26.21,17.83,55.47,19.45,84.24,1.59,28.33-1.66,57.33-16.44,82.08-1.33,2.22-2.72,4.41-4.24,6.53,0,.03.03.03.03.07,7.65,10.11,11.63,22.73,14.55,34.93,3.11,12.96,5.07,26.11,5.5,39.43.93,26.61-3.51,53.45-13.19,78.31-3.48,8.91-7.49,18.06-12.69,26.31.73.66,1.42,1.33,2.15,2.05,10.97,10.94,19.12,24.75,23.03,39.8.96,3.61,1.66,7.29,2.05,11.04.4,3.91.43,8.12-3.84,9.81-3.91,1.52-8.65,1.82-12.76,2.09-4.71.33-9.41.43-14.08.6ZM104.94,985.32c18.59.03,37.12-.5,55.71-1.39,4.14-.2,8.35-.5,12.46-1.36,1.89-.36,4.47-.93,6-2.22,1.29-1.06.7-3.15.53-4.64-.8-7.22-2.42-14.38-5-21.21-2.62-6.89-5.8-13.45-10.04-19.49-2.68-3.81-5.67-7.36-8.91-10.67-1.52,2.29-3.15,4.51-4.9,6.63-4.61,5.53-10.14,10.21-16.2,14.05,4.87,5.57,8.35,12.36,10.41,19.42.4,1.36-.17,3.12-1.86,3.28-26.64,2.35-53.72,2.19-80.43.6-5.8-.36-11.63-.73-17.36-1.89-4.9-.99-9.97-2.39-12.72-6.96-1.33-2.22-1.79-4.77-2.42-7.26-.66-2.78-1.33-5.53-1.82-8.35-1.06-5.57-1.76-11.23-2.22-16.9-1.69-20.61-.43-42.88,9.01-61.64,1.06-2.09,2.19-4.11,3.45-6.03.63-.96,1.29-1.96,1.99-2.88,4.24-5.87,9.35-11.1,14.85-16.01,1.66-1.46,3.38-2.92,5.14-4.27.73-.53,1.46-1.06,2.19-1.56,1.62-1.09,3.28-2.09,5-2.95,4.57-2.29,9.58-3.51,14.65-4.01,5.4-.53,10.67.1,16.11.2,2.32.07,4.97.43,6.36,2.55,1.46,2.19.46,4.94-.13,7.26-1.99,7.89-5.3,15.38-9.81,22.14,5.04,3.84,10.07,7.72,15.11,11.63.99.73,1.96,1.49,2.92,2.25,1.26-2.02,2.49-4.08,3.68-6.13,6.23-10.6,11.37-21.87,15.08-33.57,1.89-5.9,3.38-11.9,4.47-17.96.96-5.3,1.36-10.64,1.79-16.01-3.68-.23-7.32-.36-11-.5-17.5-.6-35.03.13-51.96,4.81-9.05,2.52-17.96,6.1-26.08,10.94-.83.46-1.62.96-2.42,1.49-4.21,2.65-8.19,5.7-11.83,9.11-2.75,2.58-5.3,5.43-7.59,8.45-.63.8-1.23,1.62-1.82,2.49-5.77,8.25-10.01,17.66-13.02,27.17-5.1,16.17-6.46,33.3-6.23,50.21.13,8.98.66,17.96,1.36,26.94.66,8.72,1.46,17.46,2.98,26.08.76,4.31,1.72,8.62,2.98,12.79.33,1.09.6,2.19,1.03,3.21.43,1.09.66.99,1.86,1.06,2.02.07,4.11,0,6.16.03,9.18.2,18.36.33,27.54.4,18.33.17,36.65.63,55.01.66ZM76.54,964.27c21.11,1.23,42.22.5,63.29-1.06-1.59-6.03-4.47-11.53-8.22-16.44-3.84,2.19-7.89,4.04-12,5.6-12.96,4.84-26.74,7.19-40.56,7.36-7.32.1-14.61-.43-21.84-1.66-3.21-.53-7.06-.86-10.04-2.25-3.15-1.49-3.61-4.51-3.41-7.66.86-13.16,3.98-26.28,8.98-38.47,3.84-9.48,8.78-18.19,14.68-26.38-.36-.3-.76-.6-1.13-.93-5.57-4.41-11.1-8.88-16.5-13.45-2.42-2.02-4.87-4.04-7.26-6.1-2.92,5.1-5.17,10.5-6.86,16.17-2.62,8.81-3.98,18.06-4.57,27.24-.66,10.37-.63,21.01.83,31.35.73,5.17,1.62,10.44,3.18,15.44.7,2.35,1.42,4.27,3.68,5.5,1.69.96,3.58,1.52,5.43,2.02,5.14,1.42,10.5,1.99,15.77,2.45,5.5.53,11.04.93,16.54,1.26ZM52.18,952.54c13.62,3.18,27.77,4.01,41.66,2.35,12.36-1.46,24.59-4.77,35.52-10.9.1-.03.2-.07.3-.13.83-.46,1.66-.96,2.45-1.46,4.37-2.72,8.45-5.93,12-9.64,3.28-3.41,6.1-7.26,8.65-11.23.46-.7.89-1.39,1.29-2.09.46-.73.89-1.46,1.36-2.19,6.4-10.84,11.4-22.6,15.31-34.53,7.89-24.09,10.84-49.81,8.72-75.03-1.06-12.63-3.28-25.22-7.06-37.31-2.68-8.55-6.2-17.1-11.43-24.49-5.53,7.42-11.93,14.15-19.02,20.08,6.46,13.49,9.41,28.5,10.37,43.41,1.19,18.09-.17,36.32-5.1,53.82-2.82,9.94-6.86,19.52-12.06,28.43-.53.93-1.06,1.82-1.62,2.68-2.49,4.08-5.27,7.99-8.25,11.73-2.98,3.78-6.23,7.42-9.78,10.77-.8.8-1.62,1.52-2.45,2.29-1.52,1.29-3.08,2.55-4.71,3.74-3.08,2.29-6.43,4.31-9.94,5.87-3.55,1.52-7.85,3.21-11.8,2.65-3.48-.5-6.56-3.28-6.79-6.93-.13-2.05.66-4.21,1.26-6.13.63-1.96,1.29-3.84,2.05-5.7,1.69-4.08,3.88-8.15,6.53-11.83-6.56-5.1-13.06-10.24-19.55-15.38-6.59,10.6-11.86,21.94-15.58,33.87-1.89,5.93-3.28,12.03-4.24,18.16-.5,3.02-.93,6.06-1.23,9.11-.17,1.29-.66,3.25-.33,4.51.33,1.19,2.42,1.26,3.48,1.49ZM86.51,926.76c2.12.66,4.67-.17,6.73-.8,1.92-.6,3.81-1.39,5.63-2.29,3.88-1.92,7.46-4.41,10.74-7.26-3.38-2.65-6.73-5.34-10.14-7.95-2.05-1.62-4.11-3.21-6.16-4.81-.4.63-.8,1.33-1.16,1.99-1.96,3.61-3.68,7.42-5.1,11.3-.73,1.99-1.33,4.04-1.92,6.06-.5,1.76-.7,3.08,1.39,3.74ZM112.2,914.1c1.19-1.13,2.35-2.29,3.48-3.48,5.07-5.34,9.61-11.2,13.49-17.43.27-.43.5-.83.76-1.26-2.98-2.05-5.9-4.21-8.78-6.26-2.75-1.99-5.5-4.01-8.19-6.06-.83-.63-1.66-1.26-2.52-1.89-6.1-4.67-12.06-9.51-17.99-14.42-.76-.63-1.49-1.23-2.22-1.86-8.91-7.46-17.73-15.08-26.51-22.63-1.66,1.29-3.21,2.68-4.74,4.11-3.74,3.48-7.29,7.16-10.47,11.1-1.36,1.69-2.62,3.48-3.81,5.27,3.48,2.55,6.83,5.3,10.17,7.92,5.2,4.01,10.34,8.09,15.44,12.23.8.63,1.59,1.26,2.39,1.92,6.56,5.3,13.02,10.7,19.52,16.07,1.09.93,2.19,1.86,3.28,2.75,5.57,4.64,11.13,9.31,16.7,13.92ZM125.72,883.84c2.02,1.66,4.04,3.28,6.03,4.94,6.59-11.7,11.27-24.59,13.98-37.68,3.35-16.11,3.98-32.77,2.15-49.08-.2-1.82-.46-3.65-.76-5.47-1.46-9.71-3.98-19.32-8.15-28.2-9.68,7.62-20.51,13.79-31.98,18.26-13.22,5.17-27.21,8.32-41.42,9.35-6.59.5-13.92.6-18.72-4.74-1.89-2.09-3.15-4.67-3.94-7.42-1.03-3.51-1.33-7.36-1.36-10.8-.1-15.34,6.66-29.99,11.93-44.07,2.85-7.59,5.83-15.11,8.75-22.67,1.16-3.08,2.35-6.16,3.55-9.25v-.03c-5-5.6-9.71-11.5-14.25-17.5-2.05-2.75-4.11-5.57-6.1-8.45-11.53,19.62-13.39,44.9-12.63,66.94.56,15.84,2.92,31.42,6.69,46.69,2.09,8.55,4.64,16.97,7.56,25.28,27.44-16.5,62.6-14.68,93.55-14.15.89,0,1.52.7,1.79,1.52.1.3.13.6.13.89-.3,7.12-1.69,14.32-3.18,21.31-4.24,20.12-11.76,39.57-23.59,56.3,3.38,2.62,6.69,5.3,9.97,8.02ZM78.33,846.93c4.67,3.61,9.35,7.22,14.05,10.8,1.46-2.65,2.72-5.43,3.81-8.28.99-2.62,1.86-5.3,2.52-8.02.3-1.23.56-2.49.8-3.74.23-1.23.23-2.68.6-3.84.23-.63.4-.43-.3-.56-.53-.13-1.06-.33-1.59-.53-1.36-.5-2.65-.93-4.08-1.19-2.55-.53-5.2-.66-7.79-.66-5.5-.03-11.07,1.09-15.97,3.58-1.56.76-3.05,1.69-4.44,2.65,4.11,3.31,8.22,6.59,12.39,9.81ZM24.78,829.86c3.98-5.1,8.58-9.78,13.79-13.98,1.86-1.52,3.81-2.92,5.77-4.21-4.84-11.43-8.45-23.43-11.1-35.49-3.28-15.24-4.64-31.02-4.51-46.59.13-15.77,1.39-31.98,6.59-46.99,1.89-5.4,4.37-10.67,7.46-15.58.7-1.09,1.39-2.19,2.19-3.25,3.98-5.6,8.85-10.57,14.55-14.45,2.29-1.56,4.71-2.92,7.22-4.04.99-.46,1.99-.86,2.98-1.23,2.92-1.09,5.97-1.89,9.05-2.39,3.45-.53,6.93-.7,10.41-.5,3.58.2,7.03.86,10.54,1.36,1.16.17,1.89,1.16,1.82,2.29-.1,1.59-.63,3.15-.96,4.71-.3,1.49-.63,2.98-.99,4.47-.83,3.08-1.76,6.1-2.82,9.08-.89,2.55-1.86,5.07-2.92,7.56,2.19,2.25,4.41,4.47,6.59,6.76,3.41,3.48,6.79,6.99,10.17,10.51,2.05-4.11,3.94-8.28,5.63-12.56,4.31-10.67,7.82-21.77,10.27-32.97,1.23-5.7,2.19-11.4,2.92-17.17.63-5.04.89-10.04,1.26-15.08-12.26-.7-24.46.03-36.65,1.76-11.93,1.66-23.99,4.11-35.26,8.48-2.29.89-4.57,1.89-6.79,2.95-.86.4-1.69.83-2.52,1.26-8.25,4.31-15.77,9.84-21.84,16.73-.53.6-1.09,1.26-1.59,1.89-3.58,4.44-6.59,9.41-8.81,14.95-3.94,9.78-6.33,20.25-8.19,30.62-1.96,10.87-3.11,21.9-3.55,32.97-.83,21.64,1.36,43.44,5.3,64.69,2.78,14.91,7.19,29.79,13.98,43.44ZM59.37,791.25c6.79.1,13.69-.43,20.38-1.49,13.62-2.15,26.78-6.4,38.94-12.82,6.56-3.48,12.72-7.56,18.46-12.23.96-.8,1.92-1.59,2.85-2.42,6.83-5.93,12.96-12.66,18.13-20.05.63-.89,1.26-1.82,1.86-2.72,3.41-5.17,6.36-10.67,8.81-16.37,10.9-25.45,12.16-53.85,9.81-81.09-2.22-26.01-7.92-51.56-19.05-75.19-5.4,7.36-11.8,14.02-19.02,19.49,5.27,9.44,8.85,19.72,11,30.49,6.2,31.12-.17,63.49-10.34,93.09-.63,1.72-1.26,3.48-1.92,5.2-.43,1.09-.9,2.19-1.36,3.28-3.84,9.01-8.88,17.56-15.67,24.59-.73.8-1.52,1.59-2.32,2.32-.33.33-.7.63-1.03.93-5.14,4.57-11.1,8.32-17.7,10.24-3.41.96-6.83,1.42-10.37,1.33-3.35-.1-7.32-.56-10.17-2.52-.93-.63-1.42-2.22-.89-3.25,3.02-5.63,4.94-11.93,7.29-17.83,1.52-3.84,3.12-7.66,4.77-11.47-7.95-7.03-15.58-14.35-22.8-22.17-4.81,12.82-9.54,25.65-14.51,38.41-5.04,13.16-11.13,27.67-7.69,41.99.63,2.72,1.82,5.6,3.91,7.56,2.35,2.19,5.57,2.65,8.65,2.72ZM88.7,752.61c1.79.46,3.61.6,5.47.5,3.65-.2,7.22-1.09,10.6-2.52,4.41-1.82,8.45-4.41,12.06-7.52-5.87-4.27-11.57-8.75-17.1-13.45-1.66-1.39-3.31-2.82-4.94-4.21-1.29,3.31-2.55,6.66-3.81,10.01-1.92,5.17-4.18,10.54-5.43,15.97,1.03.5,2.05.96,3.15,1.23ZM119.32,740.82c1.03-.99,2.02-1.99,2.95-3.05,5.63-6.26,9.84-13.45,13.12-21.11-2.22-1.59-4.41-3.28-6.53-5-6.73-5.5-12.99-11.57-19.02-17.8-.53-.53-1.03-1.06-1.52-1.59-4.44-4.64-8.75-9.38-13.02-14.08-1.09-1.19-2.15-2.42-3.21-3.65-.7-.76-1.36-1.56-2.02-2.32-3.68-4.31-7.26-8.68-11.04-12.89-3.28-3.71-6.53-7.39-9.74-11.13-4.77,2.29-9.15,5.4-12.99,9.05-3.25,3.12-6.1,6.5-8.55,10.14,3.05,4.01,6.06,8.05,9.21,12,3.48,4.34,7.06,8.65,10.74,12.86,1.03,1.19,2.09,2.39,3.11,3.55,7.22,8.09,14.78,15.84,22.67,23.23.93.86,1.86,1.72,2.78,2.55,7.39,6.79,15.08,13.22,23.06,19.25ZM133.47,710c1.13,1.03,2.25,2.05,3.41,3.05,1.59-4.04,2.95-8.22,4.14-12.43,4.21-14.81,7.16-30.06,8.12-45.47,1.39-22.87-1.36-46.33-10.8-67.21-5.9,4.14-12.33,7.52-19.29,9.91-5.87,2.02-11.86,3.15-17.96,3.74-7.99.76-16.04.56-24.03,0-7.19-.53-14.22-1.46-21.18-3.25-2.95-.73-6.53-1.52-8.45-4.14-2.02-2.78-.99-6.59-.43-9.71,3.98-21.74,12.53-43.54,25.72-61.57-1.99-1.92-3.98-3.88-5.93-5.8-5.53-5.47-11.07-10.97-16.24-16.8-1.52-1.69-3.02-3.35-4.51-5.04-9.05,14.55-14.05,31.55-14.88,48.85-.7,13.95,1.29,28,5.1,41.42,3.41,12.03,8.65,23.1,14.02,34.23,4.67-1.99,9.44-3.61,14.22-5,12.2-3.45,24.69-5.57,37.28-6.86,10.27-1.13,20.65-1.66,30.92-1.99,1.06-.03,2.45.56,2.49,1.86.13,6.73-.56,13.55-1.52,20.25-1.69,11.63-4.41,23.26-8.45,34.33-3.45,9.44-7.85,18.49-12.89,27.24,1.52,1.56,3.08,3.11,4.61,4.67,5.37,5.37,10.94,10.57,16.54,15.71ZM91.55,668.34c.73-1.96,1.36-3.88,1.95-5.87.86-2.88,1.59-5.8,2.22-8.75.33-1.56.66-3.12.96-4.67.2-1.09.3-2.22.43-3.35-3.21-1.52-7.16-1.89-10.64-1.82-3.84.1-7.69.76-11.33,1.96-1.03.33-2.02.7-3.02,1.09,3.58,4.21,7.19,8.38,10.94,12.46,2.75,3.05,5.63,6,8.48,8.95ZM24.51,636.53c6.5-6.46,14.38-11.53,22.8-15.41-3.25-5.47-5.93-11.27-8.38-17.17-3.11-7.52-5.7-15.28-7.62-23.2-6.53-26.71-4.84-55.61,7.42-80.46,1.39-2.82,2.88-5.57,4.51-8.22.6-.93,1.19-1.89,1.82-2.78,4.87-7.36,10.8-14.02,17.76-19.45.2-.17.43-.33.63-.46.76-.63,1.52-1.19,2.32-1.72,4.67-3.28,9.81-6,15.31-7.56,3.58-1.03,7.22-1.62,10.94-1.86,3.94-.23,7.85-.6,11.76-.89,1.62-.13,2.92.83,3.25,2.42,1.59,7.56-1.52,15.74-4.67,22.43-2.25,4.84-5.04,9.38-8.12,13.69,6.43,6.13,12.86,12.26,19.15,18.52l1.76,1.76c.96-1.29,1.89-2.58,2.75-3.94,14.22-21.34,21.54-47.62,18.66-73.24-.13-1.16-.03-3.51-.8-4.47-.76-.93-2.68-1.16-3.78-1.39-3.15-.66-6.33-1.23-9.51-1.66-6.63-.86-13.32-1.26-20.02-1.03-13.12.43-26.28,3.15-38.34,8.38-12.39,5.37-24.29,13.32-32.54,24.12-.66.83-1.29,1.72-1.92,2.62-.6.83-1.19,1.69-1.72,2.55-6.56,9.97-11.33,21.31-14.98,32.54-8.42,25.55-11.4,53.52-7.82,80.23,2.62,19.49,8.91,38.9,19.39,55.64ZM92.61,597.56c12.69.07,25.19-2.32,36.39-8.48,2.65-1.42,5.17-3.02,7.62-4.74.66-.46,1.29-.93,1.92-1.42,6.26-4.74,11.86-10.44,16.67-16.67.83-1.09,1.62-2.19,2.42-3.31.5-.73.99-1.49,1.49-2.22,5.67-8.65,9.91-18.13,13.35-27.9,8.45-24.03,10.67-50.01,8.75-75.29-1.72-22.83-7.46-45.37-16.93-66.21-6.69,6.86-14.48,12.66-22.87,17.27,7.22,10.8,11.47,23.89,13.55,36.45,1.42,8.52,1.96,17.13,2.09,25.75.13,8.35-.17,16.67-1.19,24.95-1.99,15.51-6.46,30.65-15.48,43.54-.56.8-1.13,1.59-1.72,2.35-.53.7-1.06,1.36-1.62,2.02-5.34,6.46-11.96,11.96-19.29,16.07-.83.46-1.66.89-2.52,1.33-2.35,1.19-4.77,2.22-7.26,3.11-3.68,1.33-7.49,2.22-11.43,2.35-3.35.07-8.68-.26-10.44-3.71-1.13-2.19.36-3.81,1.66-5.43,1.33-1.62,2.49-3.35,3.58-5.14,1.52-2.52,3.08-5,4.64-7.49-7.06-6.3-13.95-12.76-20.74-19.35-6.16,9.88-11.27,20.38-15.14,31.35-2.09,5.8-3.84,11.73-5.17,17.76-.7,3.12-1.29,6.26-1.82,9.41-.23,1.59-.46,3.18-.7,4.77-.13,1.13-.46,2.09.46,2.88,1.09.89,2.98,1.36,4.27,1.82,1.52.53,3.05.96,4.64,1.26,3.28.7,6.59,1.13,9.91,1.49,6.93.73,13.89,1.36,20.91,1.42ZM95.23,560.97c1.79.27,3.58.23,5.37,0,3.45-.43,6.86-1.36,10.04-2.75.26-.1.53-.23.76-.33-3.48-2.82-6.89-5.7-10.24-8.62-.96-.83-1.89-1.66-2.85-2.49-.89,1.66-1.82,3.31-2.78,4.94-.96,1.69-1.99,3.31-2.85,5.07-.33.7-.66,2.12-1.19,2.68-.03.17-.1.3-.13.36,1.16.63,2.72.93,3.88,1.13ZM114.22,556.5c4.44-2.32,8.55-5.3,12.2-8.78,2.45-2.35,4.71-4.84,6.76-7.46-2.92-2.55-5.83-5.14-8.75-7.72-3.58-3.21-7.09-6.53-10.5-9.94-.7-.66-1.39-1.36-2.05-2.05-6.89-6.93-13.49-14.12-20.15-21.28l-1.29-1.39c-.46-.5-.89-.96-1.36-1.42-7.52-8.09-15.11-16.11-22.73-24.09-1.86,1.42-3.61,2.98-5.3,4.57-4.94,4.64-9.28,9.78-12.99,15.28,2.52,2.52,5,5.07,7.52,7.56,6.59,6.59,13.12,13.22,19.72,19.82.76.73,1.49,1.49,2.25,2.25,3.61,3.58,7.26,7.12,10.94,10.6,3.18,3.02,6.36,6.06,9.58,9.05.7.66,1.39,1.33,2.09,1.99,4.67,4.37,9.35,8.72,14.08,13.02ZM117.6,518.66c6.03,6.16,11.83,12.53,17.53,18.99,12.33-17.3,16.67-39.27,17.36-60.35.46-14.32-.43-28.83-3.91-42.78-2.15-8.72-5.53-16.83-10.04-24.42-5.9,3.05-12.13,5.5-18.49,7.36-8.28,2.42-16.77,3.84-25.35,4.51-2.72.17-5.43.3-8.15.33-5.7.07-11.43-.23-17.1-.86-5.7-.63-11.27-1.76-16.87-2.72-1.23-.2-2.42-1.13-2.52-2.45-.36-3.61.3-7.22.53-10.84.2-3.51.56-6.99,1.03-10.44,1.69-12.46,5-24.75,9.74-36.39,3.38-8.25,7.52-16.47,12.53-24.06-7.95-8.42-16.01-16.8-24.19-25.02-.73,1.89-1.42,3.78-2.09,5.73-2.72,7.89-4.71,16.07-6.26,24.26-3.45,18.13-4.21,36.59-3.18,54.98.89,15.87,2.95,32.64,11.07,46.59,8.05-4.84,16.97-8.38,25.91-10.87,6.5-1.79,13.12-2.98,19.82-3.65,7.16-.7,14.35-.73,21.51-.23,3.41.27,6.83.66,10.21,1.19,3.31.53,6.96.93,10.14,1.96,3.51,1.16,4.14,4.34,4.47,7.59.36,3.35.53,6.69.6,10.04.46,25.82-8.02,51.5-24.29,71.55ZM78,480.12c4.44,4.44,8.98,8.81,13.52,13.16,2.78-3.81,5.24-7.89,7.06-12.26,1.36-3.31,2.22-6.83,2.62-10.41.3-2.65.23-5.27.2-7.89-3.38-.43-6.73-.76-10.21-.53-4.04.33-8.05,1.06-11.86,2.55-3.78,1.49-7.32,3.51-10.67,5.9,3.08,3.18,6.2,6.36,9.35,9.48ZM72.06,416.65c6.16.7,12.36,1.03,18.52.89,12.1-.33,24.19-2.52,35.52-6.76,3.45-1.26,6.83-2.75,10.11-4.44.89-.43,1.76-.89,2.62-1.36,8.68-4.81,16.64-10.9,23.36-18.16.53-.56,1.03-1.09,1.52-1.66,2.02-2.32,3.91-4.71,5.7-7.19,12.23-17.33,16.2-39.1,18.43-59.82,4.27-40.13-1.96-80.69-16.54-118.17-1.96,2.42-4.01,4.77-6.23,6.99-4.11,4.14-8.65,7.85-13.49,11.04,5.2,11.83,8.91,24.29,11.04,37.02,4.71,28.13,2.45,58.06-8.48,84.54-2.78,6.69-6.26,12.96-10.6,18.56-.43.56-.86,1.09-1.33,1.66-3.91,4.74-8.45,8.95-13.72,12.43-3.08,2.02-6.26,3.84-9.61,5.4-1.19.56-2.39,1.13-3.61,1.62-1.62.66-3.28,1.33-4.94,1.89-6.33,2.22-13.16,4.44-19.82,5.24-1.99.23-3.61-1.36-3.41-3.31.83-9.25,3.18-18.43,7.06-26.88-6.06-6.5-12.13-13.02-18.26-19.49-1.82,2.92-3.55,5.87-5.1,8.95-5.53,10.87-9.81,22.5-12.39,34.46-1.26,5.9-2.15,11.9-2.65,17.9-.23,2.95-.4,5.93-.46,8.91-.03,2.32.3,4.54.4,6.79,5.34,1.49,10.9,2.29,16.37,2.95ZM93.21,379.77c2.52-.4,5.1-.8,7.66-1.36,3.48-.76,6.93-1.82,10.31-3.02.13-.07.3-.13.46-.2-2.22-2.49-4.41-4.97-6.66-7.36-2.52-2.75-5.04-5.47-7.59-8.19-2.45,6.5-3.78,13.22-4.18,20.12ZM109.64,366.95c1.92,2.22,3.94,4.47,5.9,6.73,5.2-2.19,10.17-4.9,14.71-8.32,3.45-2.62,6.43-5.6,9.08-8.85-.33-.4-.66-.73-.99-1.13-3.05-3.31-6.36-6.4-9.48-9.68-5.34-5.6-10.47-11.4-15.61-17.2-.76-.86-1.52-1.72-2.29-2.58-4.67-5.27-9.35-10.54-14.18-15.67-1.09-1.16-2.22-2.32-3.31-3.48-.7-.73-1.36-1.42-2.05-2.15-7.32-7.72-14.78-15.34-22.27-22.87-4.67,3.45-8.58,7.82-11.86,12.66-2.42,3.61-4.41,7.49-6.1,11.47,3.28,3.18,6.56,6.36,9.81,9.58,5.17,5.1,10.34,10.24,15.41,15.44.66.66,1.29,1.33,1.96,1.99,5.24,5.4,10.41,10.87,15.51,16.4.8.86,1.62,1.72,2.39,2.62,1.03,1.09,1.99,2.15,2.98,3.28,3.51,3.88,6.99,7.79,10.41,11.76ZM133.7,345.14c2.45,3.08,4.64,6.4,7.09,9.51,5.14-6.89,8.81-14.81,11.76-23,4.71-13.02,7.52-26.64,8.48-40.43,1.79-24.42-2.35-49.08-12-71.55-10.24,6.33-21.77,10.67-33.6,12.99-10.44,2.05-21.11,2.52-31.71,2.09-11.1-.43-22.4-1.82-33.3-3.98-1.09-.23-2.32-.96-2.62-2.12-.07-.17-.1-.33-.1-.53-.4-8.38.5-16.83,1.79-25.12,2.25-14.51,6.46-28.96,12.72-42.25,3.12-6.63,6.66-13.06,10.57-19.22,2.82-4.41,5.96-8.48,9.28-12.46v-.03c-6.66-6.46-12.82-13.32-18.06-20.81-6.53,8.52-11.4,18.46-15.21,28.23-5.1,13.12-8.12,27.01-9.28,41.03-1.16,14.02-.3,28.2,2.55,42.02.7,3.35,1.52,6.69,2.42,10.01.99,3.55,2.09,7.06,3.35,10.51,1.19,3.31,2.58,6.56,3.98,9.81,5.43-2.15,11.1-3.74,16.77-4.94,15.57-3.28,31.71-4.27,47.59-3.58,8.15.33,16.24,1.26,24.29,2.42,3.08.46,7.85.3,9.81,3.21,1.86,2.75.53,7.39.03,10.44-4.27,25.42-16.6,48.85-33.93,67.8.53.56,1.06,1.13,1.59,1.69,5.43,5.93,10.74,11.93,15.74,18.26ZM84.96,292.22c2.95,2.98,5.87,5.93,8.75,8.95,4.08-6.03,8.38-11.93,12.66-17.86,1.09-1.52,4.37-4.67,2.65-6.5-1.26-1.26-3.78-1.96-5.43-2.52-3.51-1.19-7.26-1.66-10.97-1.26-6.99.8-13.59,2.58-19.68,6.16-.26.17-.53.3-.8.46,4.34,4.11,8.62,8.32,12.82,12.56ZM30.84,262.99c.13-.17.27-.3.4-.43,5.14-4.87,11.07-8.58,17.46-11.43-5.77-11.4-9.38-24.09-11.57-36.42-5.07-28.86-1.66-59.15,10.31-85.96,3.78-8.48,8.32-16.87,14.08-24.22h.03c1.13-1.49,2.32-2.88,3.58-4.27v-.03c2.72-2.95,5.7-5.73,8.91-8.19,2.58-1.95,5.3-3.71,8.15-5.27t.07-.03c.76-.4,1.52-.83,2.32-1.23h.03c2.85-1.42,5.8-2.65,8.78-3.65,6.99-2.35,14.18-3.35,21.51-3.84,1.59-.13,3.15,1.06,2.88,2.78-.83,5.7-3.51,11.6-6,16.74-1.52,3.08-3.21,6.06-5.14,8.95,6.5,5.77,13.02,11.5,19.25,17.43,0-.03.03-.07.03-.1.8-1.52,1.56-3.05,2.29-4.57,5.9-11.96,11.33-24.09,15.01-36.88,1.82-6.36,3.11-12.89,3.78-19.45.3-3.25.5-6.5.5-9.74,0-.56.17-1.52-.2-1.96-.36-.4-1.79-.27-2.32-.3-1.66-.13-3.35-.26-5.04-.36-14.02-.93-28.33.2-42.22,2.35-12.33,1.92-24.66,4.71-36.02,9.88-.86.4-1.72.8-2.58,1.23-.89.46-1.79.93-2.65,1.39-8.58,4.71-16.07,11-21.51,19.29-.56.86-1.13,1.76-1.66,2.65-.56.93-1.06,1.86-1.56,2.82-4.57,8.75-7.26,18.49-9.31,28.04-5.87,27.41-8.58,55.51-6.4,83.48.99,12.96,3.15,25.85,6.59,38.37,2.19,7.85,5,15.48,8.19,22.97ZM87.81,230.48c11.27.33,22.7-.83,33.6-3.68,9.18-2.42,17.96-6.03,25.95-10.97.86-.53,1.69-1.06,2.52-1.62,6.69-4.47,12.73-9.94,17.8-16.44.6-.8,1.23-1.62,1.79-2.42.66-.89,1.26-1.76,1.89-2.65,10.27-15.28,15.71-33.2,19.65-51.07,2.35-10.77,3.31-21.77,4.21-32.74.86-11.04,1.52-22.1,1.72-33.14.23-11.27-.03-22.6-.53-33.87-.26-5.37-.4-10.84-1.09-16.17-.6-4.84-1.69-9.64-2.15-14.51-19.62-1.79-39.27-2.98-58.92-3.94-18.16-.86-36.32-1.76-54.51-2.25-17.89-.5-35.82-.99-53.68.76-.5.07-4.77.66-6.56.8-.03.36-.13.73-.13,1.03-.07,1.09-.13,2.19-.2,3.28-.26,4.54-.3,9.05-.33,13.59-.03,8.78.27,17.63,1.46,26.31,1.49,11.04,4.57,22.1,10.07,31.78,2.55-3.84,5.47-7.42,8.85-10.6,4.37-4.14,9.35-7.56,14.65-10.34-1.39-2.22-2.68-4.51-3.84-6.83-1.49-3.02-2.72-6.16-3.68-9.38-.93-3.11-1.95-6.33-2.55-9.48-.3-1.59.99-3.28,2.58-3.48,4.87-.56,9.97-.1,14.85-.13,4.71,0,9.38.03,14.08.1,9.51.1,19.02.36,28.5.76,17.03.7,34.07,1.56,51.07,2.88,2.12.17,4.21.33,6.3.5,1.86.17,3.91-.13,5.67.63,3.94,1.66,3.31,6.66,3.41,10.14.23,8.38.4,16.77.46,25.15.1,17.36-.86,34.8-4.24,51.86-1.69,8.55-4.04,16.87-7.06,25.05-3.05,8.28-7.09,16.34-11,24.26-3.55,7.12-7.92,12.76-14.58,17.27-1.09.76-2.25,1.46-3.41,2.12-11.07,6.1-24.75,7.52-36.72,3.28-2.72-.96-5.6-2.52-6.4-5.3-.46-1.59-.1-3.35.3-5,3.31-13.32,8.95-26.11,16.54-37.55-6.53-5.43-13.12-11-19.35-16.87,0,0-.03,0-.03.03-3.45,4.64-6.59,9.61-9.51,14.51-7.29,12.13-12.79,25.52-16.4,39.2-1.86,6.89-3.15,13.98-3.98,21.11-.76,6.3-.83,12.56-.93,18.86,5.3,1.42,10.67,2.75,16.14,3.55,5.87.83,11.83,1.42,17.76,1.62ZM109.58,193.86c11.13.43,21.28-4.11,29.06-11.47-3.38-4.67-7.09-9.08-11.2-13.26-6.56-6.63-13.69-12.69-20.88-18.69-2.65,4.34-5,8.85-7.03,13.55-3.08,7.19-5.5,14.68-7.03,22.37-.1.63-.5,2.25-.43,2.52.03.03.8.83,1.19,1.06,1.49.86,3.25,1.42,4.84,1.96,3.68,1.19,7.62,1.82,11.47,1.96ZM140.86,180.18c3.81-6.23,7.19-12.76,10.11-19.45.27-.66.56-1.36.5-2.09-.1-.73-.53-1.36-.96-1.92-7.16-9.61-15.61-18.09-24.42-26.28-.76-.73-1.56-1.46-2.32-2.15-6.56-6.03-13.29-11.93-19.75-17.99h-.03c-.99-.93-1.99-1.82-2.95-2.78v-.03c-5.7-5.47-11.17-11.17-16.14-17.27-4.77,2.62-9.18,5.8-13.02,9.35-1.46,1.33-2.85,2.78-4.21,4.27,20.71,28.13,55.34,45.83,73.2,76.35ZM128.73,126.62c9.21,9.08,17.63,18.79,23.99,30.09,5.5-12.89,9.08-26.18,10.97-40.06,2.15-15.81,2.32-31.85,1.82-47.79-.26-8.15-.8-16.27-1.33-24.39-.03-.33,0-2.12-.2-2.32-.2-.17-1.72-.3-1.96-.36-1.82-.23-3.71-.33-5.53-.53-2.68-.26-5.37-.5-8.05-.73-1.39-.13-2.75-.27-4.14-.36-16.27-1.26-32.54-2.12-48.88-2.32-8.15-.1-16.34-.13-24.49,0-4.08.07-8.15.13-12.23.23-2.98.1-5.93.4-8.91.46,0,.7,0,1.39.13,2.05.2,1.39.46,2.78.8,4.18.66,3.02,1.59,5.97,2.78,8.85.89,2.25,1.99,4.44,3.21,6.53,4.71-2.29,9.64-4.14,14.65-5.67,13.22-4.08,27.04-6.26,40.83-7.32,7.36-.56,14.71-.63,22.1-.5,3.71.07,7.46.07,11.17.2.8.03,1.62.07,2.39.17,2.39.26,4.44,1.09,4.77,4.11.4,3.21,0,6.79-.33,10.01-.33,3.45-.86,6.86-1.59,10.27-1.39,6.79-3.38,13.45-5.8,19.95-4.51,12.1-10.27,23.69-16.14,35.19,0,.03-.03.07-.03.07ZM103.55,103.66c1.62-2.58,3.08-5.27,4.34-8.05,1.16-2.58,2.22-5.27,3.02-8.02.46-1.56.83-3.11,1.19-4.71-8.28-.1-16.7,2.12-24.36,5.83,5.04,5.17,10.37,10.11,15.81,14.95Z" style="fill:#000; stroke-width:0px;"/></g></svg>