<svg xmlns="http://www.w3.org/2000/svg" width="80" height="78" viewBox="0 0 80 78">
  <defs>
    <style>
      .cls-1 {
        fill: #fff;
      }
    </style>
  </defs>
  <g id="send-money" transform="translate(0 -7.982)">
    <g id="Group_2846" data-name="Group 2846" transform="translate(0 33.781)">
      <g id="Group_2845" data-name="Group 2845">
        <path id="Path_8689" data-name="Path 8689" class="cls-1" d="M67.976,160.017H1.145A1.144,1.144,0,0,0,0,161.159v32.072a1.144,1.144,0,0,0,1.143,1.145H46.589a1.145,1.145,0,1,0,0-2.29H2.291V162.307H66.828v2.864a1.144,1.144,0,0,0,1.143,1.145h0a1.144,1.144,0,0,0,1.145-1.142v-4.011A1.144,1.144,0,0,0,67.976,160.017Z" transform="translate(0 -160.017)"/>
      </g>
    </g>
    <g id="Group_2848" data-name="Group 2848" transform="translate(2.672 16.006)">
      <g id="Group_2847" data-name="Group 2847" transform="translate(0 0)">
        <path id="Path_8690" data-name="Path 8690" class="cls-1" d="M73.514,68.073,20.065,56.047a1.145,1.145,0,0,0-1.37.869L16.023,68.941a1.146,1.146,0,1,0,2.237.5l2.423-10.9L73.011,70.307a1.08,1.08,0,0,0,.253.028,1.145,1.145,0,0,0,.25-2.262Z" transform="translate(-15.995 -56.019)"/>
      </g>
    </g>
    <g id="Group_2850" data-name="Group 2850" transform="translate(17.357 7.982)">
      <g id="Group_2849" data-name="Group 2849" transform="translate(0 0)">
        <path id="Path_8691" data-name="Path 8691" class="cls-1" d="M140.225,21.433,108.156,8.071a1.149,1.149,0,0,0-1.47.547l-2.672,5.345a1.149,1.149,0,0,0,2.022,1.093c.012-.022.023-.044.033-.067v0l2.193-4.388L139.34,23.552a1.148,1.148,0,1,0,.885-2.119Z" transform="translate(-103.875 -7.982)"/>
      </g>
    </g>
    <g id="Group_2852" data-name="Group 2852" transform="translate(42.77 39.001)">
      <g id="Group_2851" data-name="Group 2851">
        <path id="Path_8692" data-name="Path 8692" class="cls-1" d="M267.751,192.017H257.145a1.145,1.145,0,1,0,0,2.29h10.606a1.145,1.145,0,0,0,0-2.29Z" transform="translate(-256 -192.017)"/>
      </g>
    </g>
    <g id="Group_2854" data-name="Group 2854" transform="translate(21.462 39.189)">
      <g id="Group_2853" data-name="Group 2853">
        <path id="Path_8693" data-name="Path 8693" class="cls-1" d="M140.215,192.473a11.759,11.759,0,1,0,11.759,11.759A11.759,11.759,0,0,0,140.215,192.473Zm0,21.38a9.621,9.621,0,1,1,9.621-9.621A9.621,9.621,0,0,1,140.215,213.853Z" transform="translate(-128.456 -192.473)"/>
      </g>
    </g>
    <g id="Group_2856" data-name="Group 2856" transform="translate(50.603 43.223)">
      <g id="Group_2855" data-name="Group 2855">
        <path id="Path_8694" data-name="Path 8694" class="cls-1" d="M317.554,214.873c-7.082,0-14.7,1.673-14.7,5.345v32.069c0,3.672,7.616,5.345,14.7,5.345s14.7-1.673,14.7-5.345V220.218C332.253,216.546,324.636,214.873,317.554,214.873Zm12.026,37.394c-.2.742-4.209,2.693-12.026,2.693s-11.824-1.951-12.026-2.672v-2.1c2.844,1.432,7.54,2.1,12.026,2.1s9.184-.675,12.026-2.1Zm0-5.345c-.2.742-4.209,2.692-12.026,2.692s-11.824-1.951-12.026-2.672v-2.1c2.844,1.432,7.54,2.1,12.026,2.1s9.184-.675,12.026-2.1Zm0-5.345c-.2.742-4.209,2.693-12.026,2.693s-11.824-1.951-12.026-2.672v-2.1c2.844,1.432,7.54,2.1,12.026,2.1s9.184-.675,12.026-2.1Zm0-5.345c-.2.742-4.209,2.692-12.026,2.692s-11.824-1.951-12.026-2.672v-2.1c2.844,1.432,7.54,2.1,12.026,2.1s9.184-.675,12.026-2.1Zm0-5.345c-.2.742-4.209,2.693-12.026,2.693s-11.824-1.951-12.026-2.672v-2.1c2.844,1.426,7.54,2.1,12.026,2.1s9.184-.675,12.026-2.1Zm0-5.345c-.2.742-4.209,2.693-12.026,2.693s-11.824-1.951-12.026-2.672v-2.1c2.844,1.426,7.54,2.1,12.026,2.1s9.184-.675,12.026-2.1Zm-12.026-2.652c-7.8,0-11.811-1.946-12.026-2.648v-.008c.215-.744,4.221-2.688,12.026-2.688,7.75,0,11.759,1.916,12.026,2.672C329.313,220.974,325.3,222.89,317.554,222.89Z" transform="translate(-302.856 -214.873)"/>
      </g>
    </g>
    <g id="Group_2858" data-name="Group 2858" transform="translate(5.344 39.113)">
      <g id="Group_2857" data-name="Group 2857">
        <path id="Path_8695" data-name="Path 8695" class="cls-1" d="M49.173,213.4h-10.1l-4.789-5.238v-8.685l5.289-5.165h9.6a1.145,1.145,0,1,0,0-2.29H39.107a1.146,1.146,0,0,0-.8.325l-5.969,5.822a1.436,1.436,0,0,0-.345.935v9.5a1.146,1.146,0,0,0,.3.772l5.429,5.938a1.145,1.145,0,0,0,.846.373H49.173a1.145,1.145,0,1,0,0-2.29Z" transform="translate(-31.992 -192.017)"/>
      </g>
    </g>
    <g id="Group_2860" data-name="Group 2860" transform="translate(29.213 44.926)">
      <g id="Group_2859" data-name="Group 2859">
        <path id="Path_8696" data-name="Path 8696" class="cls-1" d="M179.533,231.55H178.2c-.416,0-.668-.233-.668-.334s.253-.334.668-.334h3.341a1.336,1.336,0,1,0,0-2.672H180.2a1.336,1.336,0,0,0-2.672,0v.06a3.111,3.111,0,0,0-2.672,2.94,3.191,3.191,0,0,0,3.341,3.013h1.336c.416,0,.668.232.668.334s-.253.334-.668.334h-3.341a1.336,1.336,0,0,0,0,2.672h1.336a1.336,1.336,0,1,0,2.672,0v-.06a3.111,3.111,0,0,0,2.672-2.94A3.191,3.191,0,0,0,179.533,231.55Z" transform="translate(-174.856 -226.873)"/>
      </g>
    </g>
  </g>
</svg>
