<svg id="success" xmlns="http://www.w3.org/2000/svg" width="151" height="151" viewBox="0 0 151 151">
  <defs>
    <style>
      .cls-1 {
        fill: #389e42;
      }
    </style>
  </defs>
  <path id="Path_8778" data-name="Path 8778" class="cls-1" d="M75.5,0A75.5,75.5,0,1,0,151,75.5,75.585,75.585,0,0,0,75.5,0Zm0,145.192A69.692,69.692,0,1,1,145.192,75.5,69.774,69.774,0,0,1,75.5,145.192Z"/>
  <path id="Path_8779" data-name="Path 8779" class="cls-1" d="M88.232,15.977,43.6,66.184,16.716,44.675a2.9,2.9,0,0,0-3.627,4.536L42.128,72.442a2.907,2.907,0,0,0,3.987-.34L92.576,19.833a2.9,2.9,0,0,0-4.344-3.856Z" transform="translate(22.846 28.557)"/>
</svg>
