<svg xmlns="http://www.w3.org/2000/svg" width="32" height="57.143" viewBox="0 0 32 57.143"><path d="M75.766,57.143H45.442A.839.839,0,0,1,44.6,56.3V3.951A3.947,3.947,0,0,1,48.539,0H72.669A3.947,3.947,0,0,1,76.6,3.951V56.3A.84.84,0,0,1,75.766,57.143ZM46.279,55.461h28.65V39.294H46.279Zm0-17.848h28.65V3.951a2.267,2.267,0,0,0-2.26-2.269H48.539a2.267,2.267,0,0,0-2.26,2.269V37.613Zm12-1.948h-.437a.841.841,0,0,1,0-1.682h.437a.841.841,0,0,1,0,1.682Zm-3.589,0h-.437a.841.841,0,0,1,0-1.682h.437a.841.841,0,0,1,0,1.682Zm-3.589,0h-.437a.841.841,0,0,1,0-1.682H51.1a.841.841,0,0,1,0,1.682Zm19.445-1.177h-6.48a.839.839,0,0,1-.838-.841V29.454a.839.839,0,0,1,.838-.841h6.48a.839.839,0,0,1,.838.841v4.193A.839.839,0,0,1,70.545,34.488ZM64.9,32.806h4.805V30.3H64.9Zm-6.624.174h-.437a.841.841,0,0,1,0-1.682h.437a.841.841,0,0,1,0,1.682Zm-3.589,0h-.437a.841.841,0,0,1,0-1.682h.437a.841.841,0,0,1,0,1.682Zm-3.589,0h-.437a.841.841,0,0,1,0-1.682H51.1a.841.841,0,0,1,0,1.682ZM58.278,30.3h-.437a.841.841,0,0,1,0-1.682h.437a.841.841,0,0,1,0,1.682Zm-3.589,0h-.437a.841.841,0,0,1,0-1.682h.437a.841.841,0,0,1,0,1.682Zm-3.589,0h-.437a.841.841,0,0,1,0-1.682H51.1a.841.841,0,0,1,0,1.682ZM70.545,26.47H50.663a.839.839,0,0,1-.838-.841V6.5a.839.839,0,0,1,.838-.841H70.545a.839.839,0,0,1,.838.841V25.629A.839.839,0,0,1,70.545,26.47ZM51.5,24.788H69.708V7.346H51.5V24.788Z" transform="translate(-44.604)" fill="#4965e1"/></svg>