<svg xmlns="http://www.w3.org/2000/svg" width="56" height="100" viewBox="0 0 56 100">
  <defs>
    <style>
      .cls-1 {
        fill: #4965e1;
      }
    </style>
  </defs>
  <path id="the-tube-terminal" class="cls-1" d="M99.138,100H46.07A1.469,1.469,0,0,1,44.6,98.528V6.914A6.908,6.908,0,0,1,51.49,0H93.718A6.908,6.908,0,0,1,100.6,6.914V98.528A1.469,1.469,0,0,1,99.138,100Zm-51.6-2.944H97.672V68.765H47.535Zm0-31.234H97.672V6.914a3.967,3.967,0,0,0-3.954-3.971H51.49a3.967,3.967,0,0,0-3.954,3.971V65.822Zm21-3.409h-.765a1.472,1.472,0,0,1,0-2.944h.765a1.472,1.472,0,0,1,0,2.944Zm-6.281,0h-.765a1.472,1.472,0,0,1,0-2.944h.765a1.472,1.472,0,0,1,0,2.944Zm-6.281,0h-.765a1.472,1.472,0,0,1,0-2.944h.765a1.472,1.472,0,0,1,0,2.944ZM90,60.354H78.66a1.469,1.469,0,0,1-1.466-1.472V51.545a1.469,1.469,0,0,1,1.466-1.472H90a1.469,1.469,0,0,1,1.466,1.472v7.337A1.469,1.469,0,0,1,90,60.354ZM80.126,57.41h8.409V53.016H80.126V57.41Zm-11.592.3h-.765a1.472,1.472,0,0,1,0-2.944h.765a1.472,1.472,0,0,1,0,2.944Zm-6.281,0h-.765a1.472,1.472,0,0,1,0-2.944h.765a1.472,1.472,0,0,1,0,2.944Zm-6.281,0h-.765a1.472,1.472,0,0,1,0-2.944h.765a1.472,1.472,0,0,1,0,2.944Zm12.562-4.7h-.765a1.472,1.472,0,0,1,0-2.944h.765a1.472,1.472,0,0,1,0,2.944Zm-6.281,0h-.765a1.472,1.472,0,0,1,0-2.944h.765a1.472,1.472,0,0,1,0,2.944Zm-6.281,0h-.765a1.472,1.472,0,0,1,0-2.944h.765a1.472,1.472,0,0,1,0,2.944ZM90,46.323H55.207a1.469,1.469,0,0,1-1.466-1.472V11.383a1.469,1.469,0,0,1,1.466-1.472H90a1.469,1.469,0,0,1,1.466,1.472V44.851A1.469,1.469,0,0,1,90,46.323ZM56.673,43.379H88.535V12.855H56.673V43.379Z" transform="translate(-44.604)"/>
</svg>
