<svg xmlns="http://www.w3.org/2000/svg" width="85.329" height="152.373" viewBox="0 0 85.329 152.373">
  <defs>
    <style>
      .cls-1 {
        fill: #fff;
      }
    </style>
  </defs>
  <path id="paypoint" class="cls-1" d="M127.7,152.373H46.837A2.238,2.238,0,0,1,44.6,150.13V10.536A10.525,10.525,0,0,1,55.1,0h64.345a10.526,10.526,0,0,1,10.492,10.536V150.13A2.239,2.239,0,0,1,127.7,152.373ZM49.07,147.887h76.395V104.779H49.07Zm0-47.593h76.395V10.536a6.045,6.045,0,0,0-6.025-6.051H55.1a6.045,6.045,0,0,0-6.025,6.051v89.759Zm32-5.194H79.9a2.243,2.243,0,0,1,0-4.485h1.166a2.243,2.243,0,0,1,0,4.485Zm-9.571,0H70.33a2.243,2.243,0,0,1,0-4.485H71.5a2.243,2.243,0,0,1,0,4.485Zm-9.57,0H60.76a2.243,2.243,0,0,1,0-4.485h1.166a2.243,2.243,0,0,1,0,4.485Zm51.851-3.138H96.5a2.238,2.238,0,0,1-2.233-2.243V78.54A2.238,2.238,0,0,1,96.5,76.3h17.28a2.238,2.238,0,0,1,2.233,2.243V89.72A2.238,2.238,0,0,1,113.777,91.963ZM98.73,87.477h12.814V80.783H98.73v6.695Zm-17.663.464H79.9a2.243,2.243,0,0,1,0-4.485h1.166a2.243,2.243,0,0,1,0,4.485Zm-9.571,0H70.33a2.243,2.243,0,0,1,0-4.485H71.5a2.243,2.243,0,0,1,0,4.485Zm-9.57,0H60.76a2.243,2.243,0,0,1,0-4.485h1.166a2.243,2.243,0,0,1,0,4.485Zm19.141-7.159H79.9a2.243,2.243,0,0,1,0-4.485h1.166a2.243,2.243,0,0,1,0,4.485Zm-9.571,0H70.33a2.243,2.243,0,0,1,0-4.485H71.5a2.243,2.243,0,0,1,0,4.485Zm-9.57,0H60.76a2.243,2.243,0,0,1,0-4.485h1.166a2.243,2.243,0,0,1,0,4.485Zm51.851-10.2H60.76a2.238,2.238,0,0,1-2.233-2.243v-51A2.238,2.238,0,0,1,60.76,15.1h53.017a2.238,2.238,0,0,1,2.233,2.243v51A2.238,2.238,0,0,1,113.777,70.583ZM62.993,66.1h48.55V19.588H62.993V66.1Z" transform="translate(-44.604)"/>
</svg>
