<svg xmlns="http://www.w3.org/2000/svg" width="80" height="81.332" viewBox="0 0 80 81.332">
  <defs>
    <style>
      .cls-1 {
        opacity: 0.8;
      }

      .cls-2 {
        fill: #fff;
      }
    </style>
  </defs>
  <g id="receive-money" class="cls-1" transform="translate(-3.997 0)">
    <g id="Group_2876" data-name="Group 2876" transform="translate(37.944 0)">
      <g id="Group_2875" data-name="Group 2875">
        <path id="Path_8703" data-name="Path 8703" class="cls-2" d="M207.677,2.943l1.44,2.245a16.221,16.221,0,0,1,17.223,0l1.44-2.245A18.638,18.638,0,0,0,207.677,2.943Z" transform="translate(-207.677 0)"/>
      </g>
    </g>
    <g id="Group_2878" data-name="Group 2878" transform="translate(29.33 18.666)">
      <g id="Group_2877" data-name="Group 2877">
        <path id="Path_8704" data-name="Path 8704" class="cls-2" d="M158.664,111.992H156a18.536,18.536,0,0,0,1.437,7.185l2.461-1.029A15.864,15.864,0,0,1,158.664,111.992Z" transform="translate(-155.997 -111.992)"/>
      </g>
    </g>
    <g id="Group_2880" data-name="Group 2880" transform="translate(47.997 33.435)">
      <g id="Group_2879" data-name="Group 2879">
        <path id="Path_8705" data-name="Path 8705" class="cls-2" d="M274.146,200.608A15.827,15.827,0,0,1,268,201.839v2.667a18.5,18.5,0,0,0,7.181-1.436Z" transform="translate(-267.997 -200.608)"/>
      </g>
    </g>
    <g id="Group_2882" data-name="Group 2882" transform="translate(62.767 18.666)">
      <g id="Group_2881" data-name="Group 2881">
        <path id="Path_8706" data-name="Path 8706" class="cls-2" d="M357.844,111.992a15.856,15.856,0,0,1-1.231,6.152l2.461,1.029a18.5,18.5,0,0,0,1.436-7.181Z" transform="translate(-356.613 -111.992)"/>
      </g>
    </g>
    <g id="Group_2884" data-name="Group 2884" transform="translate(34.664 5.332)">
      <g id="Group_2883" data-name="Group 2883">
        <path id="Path_8707" data-name="Path 8707" class="cls-2" d="M201.33,31.992a13.333,13.333,0,1,0,13.333,13.333A13.333,13.333,0,0,0,201.33,31.992Zm0,24A10.667,10.667,0,1,1,212,45.325,10.667,10.667,0,0,1,201.33,55.992Z" transform="translate(-187.997 -31.992)"/>
      </g>
    </g>
    <g id="Group_2886" data-name="Group 2886" transform="translate(42.664 10.666)">
      <g id="Group_2885" data-name="Group 2885">
        <path id="Path_8708" data-name="Path 8708" class="cls-2" d="M244.264,71.567l-1.6-.533V67.612A2,2,0,0,1,244,69.325h2.667a4.827,4.827,0,0,0-4-4.5v-.832H240v.832a4.827,4.827,0,0,0-4,4.5,3.351,3.351,0,0,0,2.4,3.092l1.6.533v3.419a2,2,0,0,1-1.333-1.711H236a4.827,4.827,0,0,0,4,4.5v.832h2.667V79.16a4.827,4.827,0,0,0,4-4.5A3.351,3.351,0,0,0,244.264,71.567ZM240,70.145l-.76-.256c-.337-.113-.573-.345-.573-.564A2,2,0,0,1,240,67.612Zm2.667,6.227V73.839l.76.256c.337.113.573.345.573.564A2,2,0,0,1,242.664,76.372Z" transform="translate(-235.997 -63.992)"/>
      </g>
    </g>
    <g id="Group_2888" data-name="Group 2888" transform="translate(3.997 25.333)">
      <g id="Group_2887" data-name="Group 2887">
        <path id="Path_8709" data-name="Path 8709" class="cls-2" d="M83.607,181.718l-4.391-4.391,4.391-4.391a1.333,1.333,0,0,0,0-1.885L66.273,153.717a1.333,1.333,0,0,0-1.885,0L47.33,170.775,28.94,152.384a1.333,1.333,0,0,0-1.885,0L9.721,169.718a1.333,1.333,0,0,0,0,1.885l9.724,9.724H4v2.667H21.33a1.315,1.315,0,0,0,.525-.108l9.081-3.892H50.664v5.333H36a1.333,1.333,0,0,0-.559,2.544l17.333,8a1.333,1.333,0,0,0,1.333-.133L77.2,179.074l3.511,3.511L54.17,205.327H46.9l-25.111-9.251a1.337,1.337,0,0,0-.461-.083H4v2.667H21.092L46.2,207.911a1.333,1.333,0,0,0,.461.083h8a1.325,1.325,0,0,0,.867-.321l28-24a1.333,1.333,0,0,0,.145-1.88C83.654,181.767,83.631,181.742,83.607,181.718Zm-52.943-4.391a1.312,1.312,0,0,0-.525.108l-.324.133a6.629,6.629,0,0,1,12.273-.241Zm14.273,0A9.293,9.293,0,0,0,36,170.66a9.393,9.393,0,0,0-9.265,8.235l-4.164,1.784L12.549,170.66,28,155.212l22.115,22.115Zm8.245,15.8-11.115-5.129H52a1.333,1.333,0,0,0,1.333-1.333v-6.115l7.24,7.24Zm.273-16.223a5.985,5.985,0,1,1,6.968,6.968Zm9.132,9.129a8.657,8.657,0,0,0,1.528-.807l-1.356.979Zm13.877-9.723-11.749,8.487a8.667,8.667,0,1,0-13.424-10.056l-2.076-2.077L65.33,156.545l15.448,15.448Z" transform="translate(-3.997 -151.994)"/>
      </g>
    </g>
  </g>
</svg>
