<svg xmlns="http://www.w3.org/2000/svg" width="34" height="40" viewBox="0 0 34 40"><g transform="translate(-11 -2)"><path d="M54,34h2.261v2.261H54Z" transform="translate(-17.609 -11.178)" fill="#4965e1"/><path d="M44.333,20.667h-.667V12A.667.667,0,0,0,43,11.333H35v-6A3.337,3.337,0,0,0,31.667,2H14.333A3.337,3.337,0,0,0,11,5.333V38.667A3.337,3.337,0,0,0,14.333,42H31.667A3.337,3.337,0,0,0,35,38.667v-6h8A.667.667,0,0,0,43.667,32V27.333h.667A.667.667,0,0,0,45,26.667V21.333A.667.667,0,0,0,44.333,20.667Zm-2-5.333h-20a1.333,1.333,0,1,1,0-2.667h20ZM19,3.333h8V4a.667.667,0,0,1-.667.667H19.667A.667.667,0,0,1,19,4ZM33.667,38.667a2,2,0,0,1-2,2H14.333a2,2,0,0,1-2-2V5.333a2,2,0,0,1,2-2h3.333V4a2,2,0,0,0,2,2h6.667a2,2,0,0,0,2-2V3.333h3.333a2,2,0,0,1,2,2v6H22.333A2.667,2.667,0,0,0,19.667,14V29.333A3.337,3.337,0,0,0,23,32.667H33.667Zm8.667-7.333H23a2,2,0,0,1-2-2V16.3a2.639,2.639,0,0,0,1.333.371h20v4H39a2,2,0,0,0-2,2v2.667a2,2,0,0,0,2,2h3.333ZM43.667,26H39a.667.667,0,0,1-.667-.667V22.667A.667.667,0,0,1,39,22h4.667Z" fill="#4965e1"/><path d="M39.391,32.522h2.261a1.13,1.13,0,0,1,1.13,1.13h2.261a3.391,3.391,0,0,0-3.391-3.391V28H39.391v2.261a3.391,3.391,0,0,0,0,6.783h2.261a1.13,1.13,0,1,1,0,2.261H39.391a1.13,1.13,0,0,1-1.13-1.13H36a3.391,3.391,0,0,0,3.391,3.391v2.261h2.261V41.566a3.391,3.391,0,1,0,0-6.783H39.391a1.13,1.13,0,1,1,0-2.261Z" transform="translate(-10.491 -12.337)" fill="#4965e1"/></g></svg>